<?xml version="1.0" encoding="UTF-8"?>
<svg xmlns="http://www.w3.org/2000/svg" xmlns:xlink="http://www.w3.org/1999/xlink" viewBox="0 0 1000 714" version="1.1">
<g id="surface79">
<rect x="0" y="0" width="1000" height="714" style="fill:rgb(89.4104%,11.764526%,12.548828%);fill-opacity:1;stroke:none;"/>
<path style=" stroke:none;fill-rule:evenodd;fill:rgb(0%,0%,0%);fill-opacity:1;" d="M 428.703125 138.859375 C 421.765625 138.75 410.230469 141.078125 410.492188 146.40625 C 391.148438 143.09375 389.132812 151.082031 390.269531 158.195312 C 392.109375 155.371094 394.351562 153.835938 396.074219 153.550781 C 398.652344 153.125 401.355469 153.957031 404.109375 155.648438 C 406.863281 157.34375 409.898438 160.074219 411.25 161.769531 C 404.421875 163.398438 399.148438 162.347656 393.792969 161.40625 C 391.15625 160.945312 387.464844 159.457031 385.269531 157.925781 C 383.070312 156.390625 382.378906 154.945312 378.925781 151.410156 C 374.859375 147.238281 370.519531 148.410156 371.875 154.890625 C 375 160.902344 380.210938 163.585938 386.789062 164.667969 C 389.949219 165.1875 394.65625 166.316406 400 166.316406 C 405.34375 166.324219 411.335938 165.546875 414.601562 166.230469 C 412.640625 167.457031 410.421875 169.582031 406.027344 170.425781 C 401.554688 171.28125 394.769531 167.765625 390.625 166.8125 C 391.148438 170.292969 395.542969 173.550781 404.199219 175.246094 C 418.414062 178.339844 430.226562 180.691406 438.039062 184.933594 C 445.84375 189.175781 450.769531 194.480469 454.28125 198.640625 C 461.285156 206.914062 461.648438 213.269531 462.09375 214.667969 C 463.539062 227.886719 458.929688 235.324219 450.355469 237.609375 C 446.074219 238.753906 438.460938 236.605469 435.671875 233.328125 C 432.882812 230.050781 430.164062 224.421875 430.9375 215.605469 C 431.6875 212.144531 435.644531 203.132812 432.273438 201.277344 C 416.761719 192.695312 397.921875 184.027344 384.285156 178.863281 C 380.558594 177.457031 377.492188 182.519531 376.296875 184.484375 C 353.140625 181.667969 332.253906 165.996094 322.859375 149.308594 C 316.457031 137.945312 305.910156 149.332031 307.679688 160.066406 C 310.539062 172.050781 319.671875 180.710938 330.621094 186.851562 C 341.867188 193.042969 355.921875 199.136719 370.128906 198.820312 C 377.789062 200.265625 377.714844 210.175781 368.527344 212.03125 C 350.550781 212.144531 336.214844 211.699219 322.675781 198.640625 C 312.410156 189.265625 306.625 200.433594 309.597656 206.765625 C 314.625 226.277344 342.464844 231.738281 370.625 225.425781 C 381.527344 223.621094 375 235.304688 371.917969 235.429688 C 360.15625 243.859375 339.089844 252.121094 320.535156 235.335938 C 312.046875 228.835938 306.304688 234.296875 309.464844 243.6875 C 317.695312 268.148438 349.183594 263.015625 370.800781 250.960938 C 376.367188 247.859375 381.417969 255.078125 374.644531 260.5625 C 347.753906 279.347656 334.3125 279.5625 322.1875 272.34375 C 307.003906 266.355469 305.671875 283.195312 314.691406 288.730469 C 324.707031 294.878906 350.214844 290.269531 368.933594 278.507812 C 376.953125 272.542969 377.316406 281.871094 372.230469 285.5625 C 350.027344 304.75 341.273438 309.800781 318.121094 306.675781 C 306.648438 305.78125 306.820312 319.9375 315.847656 325.46875 C 328.171875 333.027344 352.253906 320.480469 370.941406 304.980469 C 378.800781 300.773438 380.09375 307.667969 376.207031 315.828125 C 364.789062 330.230469 354.074219 338.730469 343.75 342.65625 C 333.425781 346.589844 323.5 345.960938 316.476562 343.546875 C 307.902344 340.605469 306.828125 349.511719 311.566406 357.609375 C 314.417969 362.492188 326.25 364.0625 339.019531 359.535156 C 351.785156 355.007812 365.5 344.382812 374.910156 331.941406 C 383.097656 324.769531 382.082031 334.402344 378.347656 341.183594 C 359.5 370.980469 342.257812 382.039062 319.550781 380.15625 C 309.484375 378.445312 307.199219 386.277344 313.617188 393.503906 C 324.882812 402.855469 338.972656 402.5625 351.296875 393.324219 C 362.25 382.765625 383.203125 360.023438 394.195312 347.835938 C 401.9375 341.664062 404.417969 347.746094 402.140625 360.289062 C 400.078125 367.472656 394.902344 375.042969 380.804688 380.558594 C 371.167969 386.054688 378.402344 393.632812 385.625 393.769531 C 389.601562 393.847656 397.667969 389.207031 403.835938 382.253906 C 411.960938 373.109375 412.445312 366.972656 416.921875 352.75 C 421.148438 345.8125 428.703125 349.050781 428.703125 356.320312 C 425.082031 370.570312 421.964844 373.125 414.640625 378.957031 C 407.636719 385.53125 419.523438 387.722656 423.527344 385.023438 C 435.113281 377.210938 439.339844 367.109375 443.210938 357.925781 C 446.011719 351.296875 454.117188 354.503906 450.355469 365.339844 C 441.378906 391.210938 426.617188 401.402344 400.800781 406.632812 C 398.1875 407.09375 396.589844 408.644531 397.503906 411.675781 C 400.960938 415.269531 404.4375 418.535156 407.902344 422.121094 C 391.9375 426.769531 378.96875 429.378906 362.988281 434.039062 C 355.15625 428.90625 348.820312 424.546875 340.980469 419.398438 C 338.917969 414.5625 337.953125 407.191406 326.378906 412.390625 C 318.546875 408.769531 314.925781 410.101562 310.582031 413.730469 C 316.859375 413.964844 319.59375 415.644531 322.058594 418.503906 C 325.265625 426.972656 332.679688 427.789062 340.269531 425.382812 C 345.199219 429.542969 347.832031 432.730469 352.769531 436.898438 C 343.554688 436.585938 337.136719 436.417969 327.941406 436.140625 C 319.175781 426.722656 312.171875 427.238281 305.894531 434.625 C 301.109375 435.359375 299.078125 435.460938 295.800781 441.273438 C 300.957031 439.160156 304.191406 438.523438 306.433594 440.828125 C 315.757812 446.234375 321.847656 445.027344 326.472656 440.828125 C 335.46875 441.378906 343.582031 441.847656 352.585938 442.4375 C 349.28125 445.25 344.742188 446.742188 341.425781 449.582031 C 327.917969 445.710938 320.863281 450.914062 318.484375 461.941406 C 316.671875 466.394531 315.820312 470.976562 316.609375 475.738281 C 317.914062 471.386719 320.019531 467.640625 323.882812 465.289062 C 335.929688 468.351562 340.457031 463.433594 341.113281 456.230469 C 346.921875 451.492188 355.679688 450.445312 361.476562 445.644531 C 368.25 447.816406 371.527344 449.164062 378.347656 451.316406 C 380.773438 458.691406 386.265625 461.613281 395.179688 459.710938 C 405.789062 460.042969 403.914062 464.394531 404.777344 467.886719 C 407.597656 462.882812 407.519531 458.015625 400.984375 453.601562 C 398.605469 447.132812 393.339844 444.195312 386.425781 447.929688 C 379.925781 446.082031 378.214844 443.429688 371.742188 441.585938 C 388.121094 436.363281 399.742188 435.191406 416.113281 429.980469 C 420.214844 433.84375 423.457031 436.621094 427.585938 440.066406 C 429.765625 441.363281 431.851562 441.691406 433.125 440.066406 C 443.378906 425.222656 447.960938 412.136719 457.5 402.34375 C 461.140625 398.296875 465.742188 392.828125 470.851562 391.496094 C 473.402344 390.832031 476.527344 391.238281 478.53125 393.414062 C 480.523438 395.597656 482.09375 399.617188 481.433594 405.609375 C 480.476562 414.207031 478.394531 416.921875 475.984375 422.078125 C 473.570312 427.230469 470.621094 430.40625 467.59375 434.355469 C 461.53125 442.25 453.53125 446.847656 448.792969 449.9375 C 439.328125 456.109375 435.324219 453.402344 427.992188 453.015625 C 418.511719 454.082031 415.996094 458.691406 423.75 465.066406 C 431 468.839844 437.515625 469.308594 442.816406 468.332031 C 447.363281 467.488281 452.679688 461.621094 456.472656 458.460938 C 460.742188 453.53125 467.816406 459.382812 462.988281 465.117188 C 454.21875 475.539062 445.457031 482.40625 434.640625 482.253906 C 423.277344 483.789062 425.40625 490.171875 432.945312 493.28125 C 446.519531 498.882812 458.773438 488.394531 464.996094 481.5 C 469.804688 476.242188 473.214844 476.039062 472.363281 484.179688 C 467.597656 498.914062 461.082031 504.605469 450.445312 505.335938 C 441.816406 504.535156 441.726562 511.195312 448.03125 515.695312 C 462.410156 525.640625 472.816406 508.707031 477.679688 498.464844 C 481.144531 489.222656 486.460938 493.617188 487.011719 501.230469 C 487.082031 511.398438 482.484375 519.707031 470.179688 530.113281 C 479.597656 545.117188 490.570312 560.375 500 575.425781 C 509.429688 560.375 520.402344 545.117188 529.820312 530.113281 C 517.515625 519.707031 512.917969 511.398438 512.988281 501.230469 C 513.539062 493.617188 518.855469 489.222656 522.320312 498.457031 C 527.183594 508.699219 537.589844 525.640625 551.96875 515.695312 C 558.273438 511.195312 558.183594 504.535156 549.554688 505.335938 C 538.917969 504.605469 532.402344 498.914062 527.636719 484.171875 C 526.785156 476.039062 530.195312 476.242188 535.003906 481.496094 C 541.226562 488.394531 553.480469 498.882812 567.054688 493.28125 C 574.59375 490.171875 576.722656 483.78125 565.359375 482.253906 C 554.542969 482.40625 545.78125 475.539062 537.011719 465.117188 C 532.183594 459.375 539.257812 453.53125 543.527344 458.460938 C 547.320312 461.613281 552.636719 467.488281 557.183594 468.324219 C 562.484375 469.308594 569 468.839844 576.25 465.066406 C 584.003906 458.691406 581.488281 454.082031 572.007812 453.015625 C 564.675781 453.402344 560.671875 456.109375 551.207031 449.9375 C 546.46875 446.847656 538.46875 442.25 532.40625 434.355469 C 529.378906 430.40625 526.429688 427.230469 524.015625 422.078125 C 521.605469 416.921875 519.523438 414.207031 518.566406 405.601562 C 517.90625 399.609375 519.476562 395.597656 521.46875 393.414062 C 523.472656 391.238281 526.597656 390.832031 529.148438 391.496094 C 534.257812 392.828125 538.859375 398.296875 542.5 402.34375 C 552.039062 412.136719 556.621094 425.222656 566.875 440.066406 C 568.148438 441.691406 570.234375 441.363281 572.414062 440.066406 C 576.542969 436.621094 579.785156 433.84375 583.886719 429.980469 C 600.257812 435.191406 611.878906 436.363281 628.257812 441.585938 C 621.785156 443.429688 620.074219 446.082031 613.574219 447.929688 C 606.660156 444.195312 601.394531 447.132812 599.015625 453.59375 C 592.480469 458.015625 592.402344 462.875 595.222656 467.878906 C 596.085938 464.394531 594.210938 460.042969 604.820312 459.710938 C 613.734375 461.605469 619.226562 458.691406 621.652344 451.316406 C 628.472656 449.164062 631.75 447.816406 638.523438 445.644531 C 644.320312 450.445312 653.078125 451.492188 658.886719 456.230469 C 659.542969 463.433594 664.070312 468.351562 676.117188 465.289062 C 679.980469 467.640625 682.085938 471.386719 683.390625 475.738281 C 684.179688 470.976562 683.328125 466.394531 681.515625 461.941406 C 679.136719 450.914062 672.082031 445.710938 658.574219 449.574219 C 655.257812 446.742188 650.71875 445.25 647.414062 442.433594 C 656.417969 441.847656 664.53125 441.378906 673.527344 440.828125 C 678.152344 445.027344 684.242188 446.234375 693.566406 440.828125 C 695.808594 438.523438 699.042969 439.160156 704.199219 441.273438 C 700.921875 435.460938 698.890625 435.359375 694.105469 434.621094 C 687.828125 427.238281 680.824219 426.722656 672.058594 436.140625 C 662.863281 436.417969 656.445312 436.585938 647.230469 436.898438 C 652.167969 432.730469 654.800781 429.542969 659.730469 425.382812 C 667.320312 427.789062 674.734375 426.972656 677.941406 418.503906 C 680.40625 415.644531 683.140625 413.964844 689.417969 413.730469 C 685.074219 410.09375 681.453125 408.769531 673.621094 412.390625 C 662.046875 407.191406 661.082031 414.5625 659.019531 419.398438 C 651.179688 424.539062 644.84375 428.898438 637.011719 434.039062 C 621.03125 429.378906 608.0625 426.769531 592.097656 422.121094 C 595.5625 418.535156 599.039062 415.269531 602.496094 411.675781 C 603.410156 408.644531 601.8125 407.09375 599.199219 406.632812 C 573.382812 401.402344 558.621094 391.210938 549.644531 365.339844 C 545.882812 354.503906 553.988281 351.296875 556.789062 357.925781 C 560.660156 367.109375 564.886719 377.210938 576.472656 385.023438 C 580.476562 387.722656 592.363281 385.53125 585.359375 378.957031 C 578.035156 373.125 574.917969 370.570312 571.296875 356.320312 C 571.296875 349.050781 578.851562 345.8125 583.078125 352.75 C 587.554688 366.972656 588.039062 373.109375 596.164062 382.253906 C 602.332031 389.207031 610.398438 393.855469 614.375 393.769531 C 621.597656 393.632812 628.832031 386.054688 619.195312 380.558594 C 605.097656 375.042969 599.921875 367.472656 597.859375 360.289062 C 595.582031 347.746094 598.0625 341.664062 605.804688 347.835938 C 616.796875 360.023438 637.75 382.765625 648.703125 393.324219 C 661.027344 402.5625 675.117188 402.855469 686.382812 393.503906 C 692.800781 386.277344 690.515625 378.445312 680.449219 380.15625 C 657.742188 382.039062 640.5 370.980469 621.652344 341.183594 C 617.917969 334.402344 616.902344 324.777344 625.089844 331.941406 C 634.5 344.382812 648.214844 355.007812 660.980469 359.535156 C 673.75 364.0625 685.582031 362.492188 688.433594 357.609375 C 693.171875 349.511719 692.097656 340.605469 683.523438 343.546875 C 676.5 345.960938 666.574219 346.589844 656.25 342.664062 C 645.925781 338.730469 635.210938 330.230469 623.792969 315.828125 C 619.90625 307.667969 621.199219 300.773438 629.058594 304.980469 C 647.746094 320.480469 671.828125 333.027344 684.152344 325.46875 C 693.179688 319.9375 693.351562 305.78125 681.878906 306.675781 C 658.726562 309.808594 649.972656 304.75 627.769531 285.5625 C 622.683594 281.871094 623.046875 272.542969 631.066406 278.507812 C 649.785156 290.269531 675.292969 294.878906 685.308594 288.730469 C 694.328125 283.195312 692.996094 266.355469 677.8125 272.34375 C 665.6875 279.5625 652.246094 279.347656 625.355469 260.5625 C 618.582031 255.078125 623.632812 247.859375 629.199219 250.960938 C 650.816406 263.015625 682.304688 268.148438 690.535156 243.6875 C 693.695312 234.296875 687.953125 228.835938 679.464844 235.335938 C 660.910156 252.121094 639.84375 243.859375 628.082031 235.429688 C 625 235.304688 618.472656 223.621094 629.375 225.425781 C 657.535156 231.738281 685.375 226.277344 690.402344 206.765625 C 693.375 200.433594 687.589844 189.265625 677.324219 198.640625 C 663.785156 211.699219 649.449219 212.144531 631.472656 212.03125 C 622.285156 210.175781 622.210938 200.265625 629.871094 198.820312 C 644.078125 199.136719 658.132812 193.042969 669.378906 186.851562 C 680.328125 180.710938 689.460938 172.050781 692.320312 160.066406 C 694.089844 149.332031 683.542969 137.945312 677.140625 149.308594 C 667.746094 165.996094 646.859375 181.667969 623.703125 184.484375 C 622.507812 182.519531 619.441406 177.457031 615.714844 178.863281 C 602.078125 184.027344 583.238281 192.695312 567.726562 201.277344 C 564.355469 203.140625 568.3125 212.144531 569.0625 215.605469 C 569.835938 224.421875 567.117188 230.050781 564.328125 233.328125 C 561.539062 236.605469 553.925781 238.753906 549.644531 237.609375 C 541.070312 235.324219 536.460938 227.886719 537.90625 214.667969 C 538.351562 213.269531 538.714844 206.914062 545.71875 198.640625 C 549.230469 194.480469 554.15625 189.175781 561.960938 184.933594 C 569.773438 180.699219 581.585938 178.339844 595.800781 175.246094 C 604.457031 173.550781 608.851562 170.292969 609.375 166.8125 C 605.230469 167.765625 598.445312 171.28125 593.972656 170.425781 C 589.578125 169.582031 587.359375 167.457031 585.398438 166.230469 C 588.664062 165.546875 594.65625 166.324219 600 166.316406 C 605.34375 166.316406 610.050781 165.1875 613.210938 164.667969 C 619.789062 163.585938 625 160.902344 628.125 154.890625 C 629.480469 148.417969 625.140625 147.238281 621.074219 151.410156 C 617.621094 154.945312 616.929688 156.390625 614.730469 157.925781 C 612.535156 159.457031 608.84375 160.945312 606.207031 161.40625 C 600.851562 162.347656 595.578125 163.398438 588.75 161.769531 C 590.101562 160.074219 593.136719 157.34375 595.890625 155.648438 C 598.644531 153.957031 601.347656 153.125 603.925781 153.550781 C 605.648438 153.84375 607.890625 155.371094 609.730469 158.195312 C 610.867188 151.082031 608.851562 143.09375 589.507812 146.40625 C 589.769531 141.078125 578.234375 138.75 571.296875 138.859375 C 567.363281 138.929688 559.292969 141.238281 553.480469 143.953125 C 544.292969 146.734375 535.15625 148.769531 524.460938 149.53125 C 530.644531 154.722656 531.855469 155.015625 538.078125 159.445312 C 528.65625 162.875 521.351562 169.984375 518.082031 174.625 C 526.316406 175.015625 529.03125 174.324219 531.828125 175.515625 C 520.359375 178.835938 515.164062 180.78125 509.109375 186.851562 C 511.25 187.242188 514.4375 187.8125 515.808594 188.332031 C 517.214844 188.855469 516.628906 189.578125 515.667969 190.605469 C 513.039062 192.25 502.980469 204.109375 500 206.855469 C 497.019531 204.109375 486.960938 192.25 484.332031 190.605469 C 483.371094 189.578125 482.792969 188.855469 484.191406 188.332031 C 485.5625 187.8125 488.75 187.242188 490.890625 186.851562 C 484.835938 180.78125 479.640625 178.835938 468.171875 175.515625 C 470.96875 174.324219 473.683594 175.019531 481.917969 174.625 C 478.648438 169.984375 471.34375 162.871094 461.921875 159.445312 C 468.144531 155.015625 469.355469 154.722656 475.539062 149.53125 C 464.84375 148.769531 455.707031 146.734375 446.519531 143.953125 C 440.707031 141.238281 432.636719 138.929688 428.703125 138.859375 Z M 429.730469 151.316406 C 435.386719 151.316406 438.878906 153.257812 438.878906 155.601562 C 438.878906 157.996094 435.386719 159.933594 429.730469 159.933594 C 424.105469 159.933594 420.535156 157.820312 420.535156 155.425781 C 420.535156 153.078125 424.105469 151.316406 429.730469 151.316406 Z M 570.269531 151.316406 C 575.898438 151.316406 579.464844 153.078125 579.464844 155.425781 C 579.464844 157.820312 575.898438 159.933594 570.269531 159.933594 C 564.613281 159.933594 561.121094 157.996094 561.121094 155.601562 C 561.121094 153.257812 564.613281 151.316406 570.269531 151.316406 Z M 570.269531 151.316406 "/>
</g>
</svg>
