<?xml version="1.0" encoding="UTF-8"?>
<svg xmlns="http://www.w3.org/2000/svg" xmlns:xlink="http://www.w3.org/1999/xlink" viewBox="0 0 1000 500" version="1.1">
<g id="surface89">
<rect x="0" y="0" width="1000" height="500" style="fill:rgb(0%,0%,39.99939%);fill-opacity:1;stroke:none;"/>
<path style=" stroke:none;fill-rule:evenodd;fill:rgb(74.116516%,6.274414%,12.940979%);fill-opacity:1;" d="M 0 250 L 1000 0 L 1000 500 Z M 0 250 "/>
<path style=" stroke:none;fill-rule:evenodd;fill:rgb(99.998474%,99.998474%,99.998474%);fill-opacity:1;" d="M 107.140625 250 L 1000 26.792969 L 1000 473.207031 Z M 107.140625 250 "/>
<path style="fill-rule:evenodd;fill:rgb(61.175537%,22.3526%,0%);fill-opacity:1;stroke-width:1.72;stroke-linecap:butt;stroke-linejoin:miter;stroke:rgb(0%,0%,0%);stroke-opacity:1;stroke-miterlimit:4;" d="M 832.042969 306.058594 C 832.042969 306.058594 825.796875 300.953125 833.171875 292.726562 C 829.203125 289.316406 832.890625 282.792969 832.890625 282.792969 C 832.890625 282.792969 826.078125 280.238281 833.171875 269.734375 C 828.066406 266.332031 830.335938 258.671875 830.335938 258.671875 C 830.335938 258.671875 813.59375 252.425781 829.488281 246.46875 C 816.429688 252.144531 804.230469 238.808594 804.230469 238.808594 L 785.21875 239.375 C 782.003906 223.578125 756.933594 237.296875 775.570312 191.984375 C 770.746094 191.132812 765.351562 189.714844 759.960938 193.6875 C 754.570312 197.660156 739.246094 206.171875 730.167969 197.660156 C 721.082031 189.144531 736.128906 176.945312 736.410156 176.660156 C 736.695312 176.378906 756.558594 166.164062 759.394531 159.351562 C 759.109375 154.242188 752.871094 150.269531 758.546875 139.203125 C 765.074219 128.703125 805.082031 118.769531 823.246094 115.367188 C 832.042969 111.390625 836.015625 103.730469 836.015625 103.730469 L 838.003906 111.109375 C 838.003906 111.109375 878.296875 99.191406 880.285156 93.515625 C 882.269531 87.839844 881.132812 98.621094 881.132812 98.621094 C 897.027344 97.203125 917.171875 83.582031 920.011719 89.824219 C 933.351562 87.269531 958.886719 75.921875 958.886719 75.921875 C 958.886719 75.921875 967.683594 75.636719 961.441406 85.285156 C 965.414062 91.527344 960.308594 96.917969 960.023438 96.917969 C 959.734375 96.917969 961.722656 103.164062 956.617188 106.566406 C 958.320312 111.957031 953.496094 116.214844 953.496094 116.214844 C 953.496094 116.214844 955.765625 122.742188 946.683594 126.148438 C 947.535156 131.828125 941.578125 132.957031 941.578125 132.957031 C 941.578125 132.957031 942.425781 138.921875 938.457031 141.476562 C 938.457031 146.011719 933.917969 148.28125 933.917969 148.28125 C 933.917969 148.28125 936.753906 149.984375 932.777344 152.824219 C 928.808594 155.660156 887.660156 180.917969 887.660156 180.636719 C 887.660156 180.351562 917.738281 186.023438 919.726562 187.160156 C 921.714844 188.296875 944.414062 203.335938 944.414062 203.335938 L 921.425781 231.714844 C 921.425781 231.714844 895.890625 228.878906 894.757812 230.292969 C 893.617188 231.714844 900.144531 232.28125 901.5625 234.550781 C 902.984375 236.820312 905.253906 242.210938 909.796875 241.644531 C 914.335938 241.074219 901.277344 249.871094 892.769531 250.726562 C 892.769531 253.847656 903.550781 254.132812 906.386719 251.578125 C 909.230469 249.023438 899.574219 258.953125 898.441406 260.371094 C 897.308594 261.792969 911.210938 258.390625 911.210938 258.390625 C 911.210938 258.390625 908.941406 267.75 896.742188 270.589844 C 901.5625 278.535156 899.578125 283.640625 899.296875 283.640625 C 899.007812 283.640625 891.347656 275.699219 883.96875 277.113281 C 885.957031 284.78125 891.917969 291.871094 893.617188 293.007812 C 895.324219 294.140625 880.285156 293.859375 878.296875 289.601562 C 876.308594 285.347656 874.605469 299.820312 879.996094 304.359375 C 873.753906 304.644531 868.363281 300.953125 868.363281 300.953125 C 868.363281 300.953125 864.671875 309.460938 867.226562 313.722656 C 869.785156 317.980469 858.433594 305.210938 858.433594 305.210938 L 836.863281 314.292969 Z M 832.042969 306.058594 "/>
<path style="fill-rule:evenodd;fill:rgb(99.998474%,76.077271%,12.940979%);fill-opacity:1;stroke-width:1.72;stroke-linecap:butt;stroke-linejoin:miter;stroke:rgb(0%,0%,0%);stroke-opacity:1;stroke-miterlimit:4;" d="M 665.359375 289.171875 C 665.863281 289.171875 696.691406 288.664062 710.839844 280.582031 C 717.914062 291.695312 727.515625 299.277344 727.515625 299.277344 L 732.066406 283.105469 C 732.066406 283.105469 743.179688 283.609375 744.195312 286.136719 C 742.675781 289.171875 742.171875 293.210938 742.171875 293.210938 C 742.171875 293.210938 749.75 293.714844 750.253906 294.726562 C 750.761719 295.738281 748.234375 304.328125 748.234375 304.328125 L 780.578125 311.910156 C 780.578125 311.910156 783.105469 299.277344 785.628906 300.792969 C 788.160156 302.308594 799.273438 317.972656 814.941406 318.984375 C 830.605469 319.996094 831.617188 305.84375 831.617188 305.84375 L 835.152344 307.867188 C 835.152344 307.867188 841.722656 293.714844 842.734375 293.714844 C 843.746094 293.714844 845.257812 295.738281 853.847656 295.738281 C 856.378906 298.769531 857.386719 305.84375 857.386719 305.84375 C 857.386719 305.84375 847.789062 315.449219 850.820312 323.027344 C 853.847656 330.609375 854.355469 328.582031 854.355469 328.582031 L 924.089844 345.265625 C 924.089844 345.265625 927.632812 350.820312 921.566406 353.851562 C 921.566406 354.355469 851.324219 337.679688 851.324219 337.679688 C 851.324219 337.679688 844.757812 345.265625 839.703125 343.746094 C 834.648438 342.230469 838.183594 346.777344 838.183594 346.777344 L 913.984375 352.839844 C 913.984375 352.839844 919.546875 359.917969 915.503906 361.9375 C 910.449219 362.441406 833.636719 356.886719 833.636719 356.886719 C 833.636719 356.886719 829.085938 366.484375 824.039062 358.402344 C 820.496094 363.960938 816.453125 356.886719 816.453125 356.886719 C 816.453125 356.886719 809.886719 361.9375 808.878906 356.378906 C 803.316406 360.421875 799.78125 353.851562 799.78125 353.851562 L 767.441406 351.832031 L 765.421875 354.863281 C 765.421875 354.863281 770.976562 356.378906 762.386719 359.917969 C 753.792969 363.453125 813.929688 361.9375 815.445312 362.441406 C 816.960938 362.949219 811.40625 367.496094 811.40625 367.496094 C 811.40625 367.496094 842.226562 369.515625 847.789062 362.949219 C 853.34375 356.378906 845.765625 371.539062 845.765625 371.539062 C 845.765625 371.539062 870.023438 370.527344 870.023438 369.515625 C 870.023438 368.507812 869.515625 377.101562 852.839844 376.089844 C 862.949219 382.65625 875.582031 386.699219 875.582031 386.699219 C 875.582031 386.699219 862.949219 389.730469 848.292969 386.195312 C 850.820312 392.765625 861.9375 398.828125 861.9375 398.828125 C 861.9375 398.828125 853.851562 405.902344 835.660156 388.722656 C 840.710938 397.816406 836.671875 401.351562 836.164062 400.339844 C 835.660156 399.332031 827.070312 386.699219 806.855469 382.152344 C 819.488281 390.234375 813.929688 393.773438 813.929688 393.773438 C 813.929688 393.773438 807.359375 382.152344 796.746094 393.773438 C 792.703125 383.164062 777.042969 377.101562 757.835938 376.089844 C 751.773438 369.015625 748.238281 371.035156 734.085938 366.992188 C 726 357.894531 714.378906 347.789062 714.378906 347.789062 C 714.378906 347.789062 714.882812 334.144531 728.523438 335.660156 C 730.042969 340.210938 730.042969 338.691406 730.042969 338.691406 C 730.042969 338.691406 745.203125 333.136719 749.75 340.710938 C 756.320312 329.089844 765.414062 338.976562 766.933594 343.015625 C 771.285156 343.65625 793.207031 344.253906 793.207031 344.253906 C 793.207031 344.253906 790.683594 339.703125 792.199219 340.210938 C 793.714844 340.710938 805.84375 335.660156 805.335938 334.144531 C 804.832031 332.628906 804.328125 327.578125 806.347656 328.082031 C 808.367188 328.582031 789.164062 325.550781 778.554688 333.640625 C 775.019531 330.101562 777.542969 320.503906 777.542969 320.503906 L 746.210938 313.929688 L 744.699219 322.015625 C 744.699219 322.015625 735.601562 323.535156 736.109375 321.515625 C 736.609375 319.492188 734.085938 328.582031 734.085938 328.582031 C 734.085938 328.582031 721.957031 325.554688 721.957031 325.046875 C 721.957031 324.546875 725.492188 306.855469 725.492188 307.363281 C 725.492188 307.871094 715.386719 308.375 701.238281 318.984375 C 697.199219 306.351562 665.359375 289.675781 665.359375 289.171875 Z M 665.359375 289.171875 "/>
<path style="fill-rule:evenodd;fill:rgb(99.998474%,76.077271%,12.940979%);fill-opacity:1;stroke-width:1.72;stroke-linecap:butt;stroke-linejoin:miter;stroke:rgb(0%,0%,0%);stroke-opacity:1;stroke-miterlimit:4;" d="M 704.78125 247.730469 C 704.78125 247.730469 683.554688 265.921875 704.78125 276.535156 C 705.792969 269.457031 707.304688 268.449219 707.304688 268.449219 C 707.304688 268.449219 724.996094 275.015625 735.605469 259.351562 C 731.058594 252.785156 722.972656 255.3125 722.972656 255.3125 C 722.972656 255.3125 706.296875 255.308594 704.78125 247.730469 Z M 704.78125 247.730469 "/>
<path style="fill:none;stroke-width:1.72;stroke-linecap:butt;stroke-linejoin:miter;stroke:rgb(0%,0%,0%);stroke-opacity:1;stroke-miterlimit:4;" d="M 722.472656 255.820312 L 707.816406 268.453125 "/>
<path style="fill-rule:evenodd;fill:rgb(99.998474%,99.998474%,99.998474%);fill-opacity:1;stroke-width:1.72;stroke-linecap:butt;stroke-linejoin:miter;stroke:rgb(0%,0%,0%);stroke-opacity:1;stroke-miterlimit:4;" d="M 705.480469 247.882812 C 705.480469 247.882812 708.316406 245.042969 709.171875 241.636719 C 710.019531 238.234375 708.03125 234.542969 711.441406 231.421875 C 714.84375 228.300781 759.683594 209.289062 763.367188 205.597656 C 767.058594 201.910156 773.867188 193.964844 774.722656 192.261719 C 775.570312 190.554688 778.125 200.777344 770.464844 205.316406 C 778.691406 203.042969 784.085938 200.492188 787.488281 201.625 C 784.082031 206.449219 775.003906 214.394531 770.746094 214.394531 C 780.679688 210.707031 789.761719 207.582031 792.316406 209.570312 C 794.867188 211.558594 780.113281 221.488281 774.148438 222.054688 C 784.082031 219.503906 797.421875 215.53125 799.121094 219.785156 C 793.730469 221.488281 795.433594 222.90625 784.363281 229.148438 C 782.949219 230.289062 775.855469 230.570312 775.855469 230.570312 C 784.363281 229.714844 796 226.3125 797.132812 232.558594 C 790.328125 235.113281 787.773438 238.515625 782.09375 239.9375 C 776.421875 241.351562 763.367188 243.90625 755.421875 247.03125 C 747.476562 250.152344 735.839844 259.234375 735.839844 259.234375 C 735.839844 259.234375 710.585938 260.082031 710.585938 259.800781 C 710.585938 259.515625 705.761719 248.164062 705.480469 247.882812 Z M 705.480469 247.882812 "/>
<path style="fill-rule:evenodd;fill:rgb(99.998474%,99.998474%,99.998474%);fill-opacity:1;stroke-width:1.72;stroke-linecap:butt;stroke-linejoin:miter;stroke:rgb(0%,0%,0%);stroke-opacity:1;stroke-miterlimit:4;" d="M 921.992188 230.570312 L 971.082031 239.9375 C 971.082031 239.9375 976.476562 233.691406 973.636719 230.289062 C 981.015625 228.582031 979.027344 218.933594 979.027344 218.933594 C 979.027344 218.933594 987.539062 215.25 980.445312 206.734375 C 985.273438 201.910156 979.3125 198.222656 979.3125 198.222656 C 979.3125 198.222656 981.296875 189.707031 975.054688 188.859375 C 976.757812 182.046875 964.273438 179.773438 964.273438 179.773438 C 964.273438 179.773438 938.449219 186.871094 920.289062 187.4375 C 926.246094 193.398438 918.015625 197.085938 918.015625 197.085938 C 918.015625 197.085938 922.839844 200.492188 921.421875 203.328125 C 920.003906 206.167969 922.273438 209.289062 916.03125 211.273438 C 924.257812 214.964844 915.179688 221.207031 915.179688 221.207031 C 915.179688 221.207031 924.257812 227.453125 921.992188 230.570312 Z M 921.992188 230.570312 "/>
<path style="fill:none;stroke-width:1.72;stroke-linecap:butt;stroke-linejoin:miter;stroke:rgb(0%,0%,0%);stroke-opacity:1;stroke-miterlimit:4;" d="M 742.167969 293.722656 L 735.601562 323.027344 "/>
<path style="fill:none;stroke-width:1.72;stroke-linecap:butt;stroke-linejoin:miter;stroke:rgb(0%,0%,0%);stroke-opacity:1;stroke-miterlimit:4;" d="M 748.242188 304.828125 L 746.222656 314.429688 "/>
<path style="fill:none;stroke-width:1.72;stroke-linecap:butt;stroke-linejoin:miter;stroke:rgb(0%,0%,0%);stroke-opacity:1;stroke-miterlimit:4;" d="M 780.582031 312.414062 L 777.546875 321.503906 "/>
<path style="fill:none;stroke-width:1.72;stroke-linecap:butt;stroke-linejoin:miter;stroke:rgb(0%,0%,0%);stroke-opacity:1;stroke-miterlimit:4;" d="M 836.671875 374.058594 C 836.167969 374.058594 820.496094 376.078125 818.476562 375.578125 C 816.453125 375.074219 843.238281 383.664062 843.238281 387.199219 "/>
<path style="fill:none;stroke-width:1.72;stroke-linecap:butt;stroke-linejoin:miter;stroke:rgb(0%,0%,0%);stroke-opacity:1;stroke-miterlimit:4;" d="M 808.367188 377.597656 C 808.367188 377.597656 792.703125 367.496094 790.175781 368.507812 C 787.652344 369.515625 805.84375 367.996094 807.359375 366.484375 "/>
<path style="fill:none;stroke-width:1.72;stroke-linecap:butt;stroke-linejoin:miter;stroke:rgb(0%,0%,0%);stroke-opacity:1;stroke-miterlimit:4;" d="M 776.03125 365.980469 C 776.03125 365.980469 759.859375 366.484375 758.34375 364.972656 C 756.828125 363.453125 774.007812 376.082031 777.042969 375.078125 "/>
<path style="fill:none;stroke-width:1.72;stroke-linecap:butt;stroke-linejoin:miter;stroke:rgb(0%,0%,0%);stroke-opacity:1;stroke-miterlimit:4;" d="M 744.703125 358.902344 C 744.195312 358.902344 733.582031 354.859375 729.035156 353.847656 C 733.078125 357.890625 736.109375 363.449219 746.214844 365.46875 "/>
<path style="fill:none;stroke-width:1.72;stroke-linecap:butt;stroke-linejoin:miter;stroke:rgb(0%,0%,0%);stroke-opacity:1;stroke-miterlimit:4;" d="M 748.738281 352.339844 C 748.234375 351.328125 728.523438 345.265625 728.523438 342.230469 C 733.078125 343.75 739.644531 345.769531 745.707031 344.253906 "/>
<path style="fill:none;stroke-width:1.72;stroke-linecap:butt;stroke-linejoin:miter;stroke:rgb(0%,0%,0%);stroke-opacity:1;stroke-miterlimit:4;" d="M 853.351562 329.089844 L 851.328125 338.183594 "/>
<path style="fill:none;stroke-width:1.72;stroke-linecap:butt;stroke-linejoin:miter;stroke:rgb(0%,0%,0%);stroke-opacity:1;stroke-miterlimit:4;" d="M 767.597656 343.558594 C 767.597656 343.558594 770.976562 347.285156 767.945312 351.832031 "/>
<path style="fill:none;stroke-width:1.72;stroke-linecap:butt;stroke-linejoin:miter;stroke:rgb(0%,0%,0%);stroke-opacity:1;stroke-miterlimit:4;" d="M 838.691406 347.28125 L 833.128906 347.789062 "/>
<path style="fill:none;stroke-width:1.72;stroke-linecap:butt;stroke-linejoin:miter;stroke:rgb(0%,0%,0%);stroke-opacity:1;stroke-miterlimit:4;" d="M 793.207031 344.246094 L 803.316406 345.765625 "/>
<path style="fill:none;stroke-width:1.72;stroke-linecap:butt;stroke-linejoin:miter;stroke:rgb(0%,0%,0%);stroke-opacity:1;stroke-miterlimit:4;" d="M 820.398438 318.261719 C 820.398438 318.261719 820.683594 328.476562 812.171875 328.195312 C 803.65625 327.910156 806.492188 328.476562 806.492188 328.476562 "/>
<path style="fill:none;stroke-width:1.72;stroke-linecap:butt;stroke-linejoin:miter;stroke:rgb(0%,0%,0%);stroke-opacity:1;stroke-miterlimit:4;" d="M 826.929688 316.546875 C 826.929688 316.546875 830.335938 317.683594 829.484375 320.238281 C 828.632812 322.792969 830.335938 330.171875 820.40625 337.265625 C 809.902344 339.535156 811.039062 328.472656 811.039062 328.472656 "/>
<path style="fill:none;stroke-width:1.72;stroke-linecap:butt;stroke-linejoin:miter;stroke:rgb(0%,0%,0%);stroke-opacity:1;stroke-miterlimit:4;" d="M 830.621094 319.675781 C 830.621094 319.675781 836.863281 315.992188 837.714844 321.953125 C 838.566406 327.910156 832.609375 338.980469 828.351562 340.679688 C 824.089844 342.382812 819.265625 340.394531 819.832031 337.558594 "/>
<path style="fill:none;stroke-width:1.72;stroke-linecap:butt;stroke-linejoin:miter;stroke:rgb(0%,0%,0%);stroke-opacity:1;stroke-miterlimit:4;" d="M 838.28125 322.230469 C 838.28125 322.230469 843.953125 317.691406 845.660156 323.648438 C 847.363281 329.609375 841.117188 342.945312 838.566406 343.226562 "/>
<path style="fill:none;stroke-width:1.72;stroke-linecap:butt;stroke-linejoin:miter;stroke:rgb(0%,0%,0%);stroke-opacity:1;stroke-miterlimit:4;" d="M 846.230469 323.652344 C 846.230469 323.652344 849.066406 322.230469 851.054688 323.933594 "/>
<path style="fill:none;stroke-width:1.72;stroke-linecap:butt;stroke-linejoin:miter;stroke:rgb(0%,0%,0%);stroke-opacity:1;stroke-miterlimit:4;" d="M 837.148438 344.082031 C 836.015625 344.363281 831.191406 344.648438 829.488281 340.957031 "/>
<path style="fill:none;stroke-width:1.72;stroke-linecap:butt;stroke-linejoin:miter;stroke:rgb(0%,0%,0%);stroke-opacity:1;stroke-miterlimit:4;" d="M 811.609375 334.148438 C 811.328125 334.148438 805.648438 334.433594 805.648438 334.433594 "/>
<path style="fill:none;stroke-width:1.72;stroke-linecap:butt;stroke-linejoin:miter;stroke:rgb(0%,0%,0%);stroke-opacity:1;stroke-miterlimit:4;" d="M 833.460938 356.574219 L 832.894531 347.207031 L 830.625 344.082031 L 826.648438 348.054688 C 826.648438 348.054688 826.082031 357.421875 824.378906 358.269531 "/>
<path style="fill:none;stroke-width:1.72;stroke-linecap:butt;stroke-linejoin:miter;stroke:rgb(0%,0%,0%);stroke-opacity:1;stroke-miterlimit:4;" d="M 826.648438 347.769531 C 826.367188 347.203125 823.53125 341.8125 823.53125 341.8125 L 818.707031 347.769531 C 818.707031 347.769531 818.136719 356.285156 816.433594 357.132812 "/>
<path style="fill:none;stroke-width:1.72;stroke-linecap:butt;stroke-linejoin:miter;stroke:rgb(0%,0%,0%);stroke-opacity:1;stroke-miterlimit:4;" d="M 818.703125 347.488281 C 818.703125 347.207031 816.714844 341.816406 816.714844 341.816406 C 816.714844 341.816406 811.039062 344.9375 810.46875 347.207031 C 809.902344 349.476562 809.617188 355.71875 808.203125 356.289062 "/>
<path style="fill:none;stroke-width:1.72;stroke-linecap:butt;stroke-linejoin:miter;stroke:rgb(0%,0%,0%);stroke-opacity:1;stroke-miterlimit:4;" d="M 810.46875 346.070312 C 810.46875 346.070312 811.039062 340.960938 809.335938 340.960938 C 807.632812 340.960938 799.972656 348.054688 799.6875 354.296875 "/>
<path style="fill:none;stroke-width:1.72;stroke-linecap:butt;stroke-linejoin:miter;stroke:rgb(0%,0%,0%);stroke-opacity:1;stroke-miterlimit:4;" d="M 717.386719 245.898438 C 717.386719 245.898438 717.675781 240.226562 720.230469 238.238281 C 722.785156 236.25 735.550781 231.425781 738.390625 227.171875 C 741.226562 222.914062 734.132812 234.550781 735.269531 237.671875 "/>
<path style="fill:none;stroke-width:1.72;stroke-linecap:butt;stroke-linejoin:miter;stroke:rgb(0%,0%,0%);stroke-opacity:1;stroke-miterlimit:4;" d="M 722.5 237.378906 C 722.5 237.378906 728.746094 239.652344 727.324219 244.472656 "/>
<path style="fill:none;stroke-width:1.493366;stroke-linecap:butt;stroke-linejoin:miter;stroke:rgb(0%,0%,0%);stroke-opacity:1;stroke-miterlimit:4;" d="M 729.878906 240.648438 C 729.878906 243.101562 727.652344 245.332031 725.199219 245.332031 C 722.742188 245.332031 720.515625 243.101562 720.515625 240.648438 C 720.515625 238.199219 722.742188 235.964844 725.199219 235.964844 C 727.652344 235.964844 729.878906 238.199219 729.878906 240.648438 Z M 729.878906 240.648438 "/>
<path style="fill:none;stroke-width:1.72;stroke-linecap:butt;stroke-linejoin:miter;stroke:rgb(0%,0%,0%);stroke-opacity:1;stroke-miterlimit:4;" d="M 917.167969 220.070312 C 917.167969 220.070312 960.585938 225.175781 962.574219 225.175781 C 964.558594 225.175781 972.222656 227.734375 973.640625 230.289062 "/>
<path style="fill:none;stroke-width:1.72;stroke-linecap:butt;stroke-linejoin:miter;stroke:rgb(0%,0%,0%);stroke-opacity:1;stroke-miterlimit:4;" d="M 919.4375 217.519531 L 979.882812 218.941406 "/>
<path style="fill:none;stroke-width:1.72;stroke-linecap:butt;stroke-linejoin:miter;stroke:rgb(0%,0%,0%);stroke-opacity:1;stroke-miterlimit:4;" d="M 919.722656 216.097656 C 919.722656 216.097656 977.042969 212.695312 981.015625 206.734375 "/>
<path style="fill:none;stroke-width:1.72;stroke-linecap:butt;stroke-linejoin:miter;stroke:rgb(0%,0%,0%);stroke-opacity:1;stroke-miterlimit:4;" d="M 921.429688 203.609375 C 921.429688 203.609375 979.039062 197.367188 979.605469 198.21875 "/>
<path style="fill:none;stroke-width:1.72;stroke-linecap:butt;stroke-linejoin:miter;stroke:rgb(0%,0%,0%);stroke-opacity:1;stroke-miterlimit:4;" d="M 919.4375 196.519531 C 919.4375 196.519531 975.339844 187.726562 975.910156 189.140625 "/>
<path style="fill:none;stroke-width:1.72;stroke-linecap:butt;stroke-linejoin:miter;stroke:rgb(0%,0%,0%);stroke-opacity:1;stroke-miterlimit:4;" d="M 759.960938 160.480469 C 759.960938 160.480469 777.554688 179.773438 775.851562 192.832031 "/>
<path style="fill:none;stroke-width:1.72;stroke-linecap:butt;stroke-linejoin:miter;stroke:rgb(0%,0%,0%);stroke-opacity:1;stroke-miterlimit:4;" d="M 774.722656 182.613281 C 774.722656 182.613281 780.394531 190.839844 782.667969 191.691406 C 784.9375 192.542969 804.800781 193.675781 805.933594 202.191406 C 807.070312 207.582031 801.679688 205.878906 802.527344 209.855469 C 803.949219 214.960938 817.285156 221.484375 831.757812 213.824219 "/>
<path style="fill:none;stroke-width:1.72;stroke-linecap:butt;stroke-linejoin:miter;stroke:rgb(0%,0%,0%);stroke-opacity:1;stroke-miterlimit:4;" d="M 818.417969 217.796875 C 818.417969 217.796875 830.335938 235.394531 847.929688 216.382812 "/>
<path style="fill:none;stroke-width:1.72;stroke-linecap:butt;stroke-linejoin:miter;stroke:rgb(0%,0%,0%);stroke-opacity:1;stroke-miterlimit:4;" d="M 838.847656 224.046875 C 838.847656 224.046875 853.320312 231.707031 865.238281 211.847656 "/>
<path style="fill:none;stroke-width:1.72;stroke-linecap:butt;stroke-linejoin:miter;stroke:rgb(0%,0%,0%);stroke-opacity:1;stroke-miterlimit:4;" d="M 849.921875 225.753906 C 849.921875 225.753906 857.015625 231.707031 871.773438 223.765625 "/>
<path style="fill:none;stroke-width:1.72;stroke-linecap:butt;stroke-linejoin:miter;stroke:rgb(0%,0%,0%);stroke-opacity:1;stroke-miterlimit:4;" d="M 892.203125 215.820312 C 892.203125 215.820312 914.046875 220.359375 915.46875 221.777344 "/>
<path style="fill:none;stroke-width:1.72;stroke-linecap:butt;stroke-linejoin:miter;stroke:rgb(0%,0%,0%);stroke-opacity:1;stroke-miterlimit:4;" d="M 900.429688 210.992188 C 900.710938 210.992188 915.753906 211.558594 915.753906 211.558594 "/>
<path style="fill:none;stroke-width:1.72;stroke-linecap:butt;stroke-linejoin:miter;stroke:rgb(0%,0%,0%);stroke-opacity:1;stroke-miterlimit:4;" d="M 891.058594 202.480469 C 891.058594 202.480469 917.167969 200.777344 920.570312 206.171875 "/>
<path style="fill:none;stroke-width:1.72;stroke-linecap:butt;stroke-linejoin:miter;stroke:rgb(0%,0%,0%);stroke-opacity:1;stroke-miterlimit:4;" d="M 879.710938 194.246094 C 879.710938 194.246094 916.320312 195.667969 918.015625 197.65625 "/>
<path style="fill:none;stroke-width:1.72;stroke-linecap:butt;stroke-linejoin:miter;stroke:rgb(0%,0%,0%);stroke-opacity:1;stroke-miterlimit:4;" d="M 887.941406 231.707031 C 887.941406 231.707031 894.183594 230.011719 895.035156 230.859375 "/>
<path style="fill:none;stroke-width:1.72;stroke-linecap:butt;stroke-linejoin:miter;stroke:rgb(0%,0%,0%);stroke-opacity:1;stroke-miterlimit:4;" d="M 873.75 247.03125 C 873.75 247.03125 881.976562 254.125 892.480469 251 "/>
<path style="fill:none;stroke-width:1.72;stroke-linecap:butt;stroke-linejoin:miter;stroke:rgb(0%,0%,0%);stroke-opacity:1;stroke-miterlimit:4;" d="M 878.292969 258.949219 C 878.292969 258.949219 887.65625 263.207031 898.722656 260.648438 "/>
<path style="fill:none;stroke-width:1.72;stroke-linecap:butt;stroke-linejoin:miter;stroke:rgb(0%,0%,0%);stroke-opacity:1;stroke-miterlimit:4;" d="M 881.410156 266.039062 C 881.410156 266.039062 890.777344 272.285156 897.015625 271.148438 "/>
<path style="fill:none;stroke-width:1.72;stroke-linecap:butt;stroke-linejoin:miter;stroke:rgb(0%,0%,0%);stroke-opacity:1;stroke-miterlimit:4;" d="M 877.160156 269.730469 C 877.160156 269.730469 883.6875 274.554688 883.96875 277.109375 "/>
<path style="fill:none;stroke-width:1.72;stroke-linecap:butt;stroke-linejoin:miter;stroke:rgb(0%,0%,0%);stroke-opacity:1;stroke-miterlimit:4;" d="M 868.082031 275.410156 C 868.082031 275.410156 870.070312 285.625 877.164062 289.316406 "/>
<path style="fill:none;stroke-width:1.72;stroke-linecap:butt;stroke-linejoin:miter;stroke:rgb(0%,0%,0%);stroke-opacity:1;stroke-miterlimit:4;" d="M 863.253906 279.953125 C 863.253906 279.953125 860.128906 293.285156 868.078125 301.519531 "/>
<path style="fill:none;stroke-width:1.72;stroke-linecap:butt;stroke-linejoin:miter;stroke:rgb(0%,0%,0%);stroke-opacity:1;stroke-miterlimit:4;" d="M 855.019531 290.449219 C 855.019531 290.734375 854.453125 296.695312 854.734375 297.261719 "/>
<path style="fill:none;stroke-width:1.72;stroke-linecap:butt;stroke-linejoin:miter;stroke:rgb(0%,0%,0%);stroke-opacity:1;stroke-miterlimit:4;" d="M 803.941406 238.796875 L 819.261719 237.949219 C 819.261719 237.949219 824.9375 235.679688 820.964844 231.992188 "/>
<path style="fill:none;stroke-width:1.72;stroke-linecap:butt;stroke-linejoin:miter;stroke:rgb(0%,0%,0%);stroke-opacity:1;stroke-miterlimit:4;" d="M 822.957031 235.398438 C 823.246094 235.398438 837.429688 236.535156 841.121094 240.792969 C 844.808594 245.046875 849.351562 253.558594 851.902344 254.980469 C 854.457031 256.394531 855.023438 254.414062 855.023438 254.414062 "/>
<path style="fill:none;stroke-width:1.72;stroke-linecap:butt;stroke-linejoin:miter;stroke:rgb(0%,0%,0%);stroke-opacity:1;stroke-miterlimit:4;" d="M 848.777344 252.140625 C 848.777344 252.140625 841.117188 265.195312 847.078125 269.164062 "/>
<path style="fill:none;stroke-width:1.72;stroke-linecap:butt;stroke-linejoin:miter;stroke:rgb(0%,0%,0%);stroke-opacity:1;stroke-miterlimit:4;" d="M 844.519531 266.609375 C 844.519531 266.609375 837.710938 275.695312 843.101562 280.230469 "/>
<path style="fill:none;stroke-width:1.72;stroke-linecap:butt;stroke-linejoin:miter;stroke:rgb(0%,0%,0%);stroke-opacity:1;stroke-miterlimit:4;" d="M 841.691406 279.101562 C 841.691406 279.101562 836.296875 287.894531 842.828125 293.859375 "/>
<path style="fill:none;stroke-width:1.72;stroke-linecap:butt;stroke-linejoin:miter;stroke:rgb(0%,0%,0%);stroke-opacity:1;stroke-miterlimit:4;" d="M 839.300781 255.761719 C 838.933594 256.128906 832.710938 260.515625 830.511719 259.421875 "/>
<path style="fill:none;stroke-width:1.72;stroke-linecap:butt;stroke-linejoin:miter;stroke:rgb(0%,0%,0%);stroke-opacity:1;stroke-miterlimit:4;" d="M 832.710938 269.675781 C 832.710938 269.675781 835.273438 272.242188 837.472656 271.875 "/>
<path style="fill:none;stroke-width:1.72;stroke-linecap:butt;stroke-linejoin:miter;stroke:rgb(0%,0%,0%);stroke-opacity:1;stroke-miterlimit:4;" d="M 833.007812 282.980469 L 837.101562 285.785156 "/>
<path style="fill:none;stroke-width:1.72;stroke-linecap:butt;stroke-linejoin:miter;stroke:rgb(0%,0%,0%);stroke-opacity:1;stroke-miterlimit:4;" d="M 833.558594 293.167969 L 837.101562 295.300781 "/>
<path style="fill:none;stroke-width:1.72;stroke-linecap:butt;stroke-linejoin:miter;stroke:rgb(0%,0%,0%);stroke-opacity:1;stroke-miterlimit:4;" d="M 769.46875 154.007812 C 769.46875 154.007812 776.929688 157.890625 782.898438 154.007812 C 788.867188 150.132812 817.515625 135.507812 824.972656 133.121094 C 832.429688 130.734375 836.609375 117.007812 838.101562 111.039062 "/>
<path style="fill:none;stroke-width:1.72;stroke-linecap:butt;stroke-linejoin:miter;stroke:rgb(0%,0%,0%);stroke-opacity:1;stroke-miterlimit:4;" d="M 832.441406 127.148438 L 874.21875 114.917969 C 874.21875 114.917969 881.078125 109.242188 881.378906 98.796875 "/>
<path style="fill:none;stroke-width:1.72;stroke-linecap:butt;stroke-linejoin:miter;stroke:rgb(0%,0%,0%);stroke-opacity:1;stroke-miterlimit:4;" d="M 878.390625 110.140625 C 878.390625 110.140625 920.167969 105.960938 920.167969 90.445312 "/>
<path style="fill:none;stroke-width:1.72;stroke-linecap:butt;stroke-linejoin:miter;stroke:rgb(0%,0%,0%);stroke-opacity:1;stroke-miterlimit:4;" d="M 913.597656 101.191406 C 913.597656 101.191406 957.464844 89.253906 961.644531 84.78125 "/>
<path style="fill:none;stroke-width:1.72;stroke-linecap:butt;stroke-linejoin:miter;stroke:rgb(0%,0%,0%);stroke-opacity:1;stroke-miterlimit:4;" d="M 791.261719 163.550781 C 791.261719 163.550781 817.816406 149.824219 821.996094 148.328125 C 826.171875 146.839844 835.722656 134.902344 821.402344 134.902344 "/>
<path style="fill:none;stroke-width:1.72;stroke-linecap:butt;stroke-linejoin:miter;stroke:rgb(0%,0%,0%);stroke-opacity:1;stroke-miterlimit:4;" d="M 804.089844 168.929688 C 804.390625 168.929688 825.875 154.90625 833.039062 153.113281 C 836.914062 147.742188 834.824219 142.074219 828.261719 143.265625 "/>
<path style="fill:none;stroke-width:1.72;stroke-linecap:butt;stroke-linejoin:miter;stroke:rgb(0%,0%,0%);stroke-opacity:1;stroke-miterlimit:4;" d="M 834.820312 149.53125 C 835.414062 149.234375 846.460938 148.933594 842.578125 157.585938 C 836.910156 161.761719 812.441406 174 812.441406 174 "/>
<path style="fill:none;stroke-width:1.72;stroke-linecap:butt;stroke-linejoin:miter;stroke:rgb(0%,0%,0%);stroke-opacity:1;stroke-miterlimit:4;" d="M 829.148438 140.277344 L 875.703125 124.761719 C 875.703125 124.761719 879.578125 116.703125 873.910156 115.511719 "/>
<path style="fill:none;stroke-width:1.72;stroke-linecap:butt;stroke-linejoin:miter;stroke:rgb(0%,0%,0%);stroke-opacity:1;stroke-miterlimit:4;" d="M 912.710938 101.488281 C 912.710938 101.789062 918.679688 105.070312 915.097656 110.445312 C 908.535156 114.320312 877.5 121.78125 877.5 121.78125 "/>
<path style="fill:none;stroke-width:1.72;stroke-linecap:butt;stroke-linejoin:miter;stroke:rgb(0%,0%,0%);stroke-opacity:1;stroke-miterlimit:4;" d="M 959.847656 96.714844 L 915.992188 108.949219 "/>
<path style="fill:none;stroke-width:1.72;stroke-linecap:butt;stroke-linejoin:miter;stroke:rgb(0%,0%,0%);stroke-opacity:1;stroke-miterlimit:4;" d="M 956.574219 106.558594 L 918.375 118.199219 "/>
<path style="fill:none;stroke-width:1.72;stroke-linecap:butt;stroke-linejoin:miter;stroke:rgb(0%,0%,0%);stroke-opacity:1;stroke-miterlimit:4;" d="M 953.292969 116.109375 L 919.570312 126.25 "/>
<path style="fill:none;stroke-width:1.72;stroke-linecap:butt;stroke-linejoin:miter;stroke:rgb(0%,0%,0%);stroke-opacity:1;stroke-miterlimit:4;" d="M 947.019531 125.660156 C 946.121094 125.660156 921.953125 133.121094 921.953125 133.121094 "/>
<path style="fill:none;stroke-width:1.72;stroke-linecap:butt;stroke-linejoin:miter;stroke:rgb(0%,0%,0%);stroke-opacity:1;stroke-miterlimit:4;" d="M 941.648438 133.121094 L 926.132812 139.386719 "/>
<path style="fill:none;stroke-width:1.72;stroke-linecap:butt;stroke-linejoin:miter;stroke:rgb(0%,0%,0%);stroke-opacity:1;stroke-miterlimit:4;" d="M 937.769531 141.46875 C 937.171875 141.46875 924.339844 147.140625 924.339844 147.140625 "/>
<path style="fill:none;stroke-width:1.72;stroke-linecap:butt;stroke-linejoin:miter;stroke:rgb(0%,0%,0%);stroke-opacity:1;stroke-miterlimit:4;" d="M 933.890625 148.339844 L 921.953125 154.007812 "/>
<path style="fill:none;stroke-width:1.72;stroke-linecap:butt;stroke-linejoin:miter;stroke:rgb(0%,0%,0%);stroke-opacity:1;stroke-miterlimit:4;" d="M 913.300781 161.171875 C 913.300781 161.171875 914.796875 161.765625 914.492188 163.558594 "/>
<path style="fill:none;stroke-width:1.72;stroke-linecap:butt;stroke-linejoin:miter;stroke:rgb(0%,0%,0%);stroke-opacity:1;stroke-miterlimit:4;" d="M 883.160156 177.578125 C 883.160156 177.578125 888.234375 179.371094 883.457031 184.144531 C 881.070312 187.425781 874.207031 186.535156 870.027344 192.5 "/>
<path style="fill:none;stroke-width:1.72;stroke-linecap:butt;stroke-linejoin:miter;stroke:rgb(0%,0%,0%);stroke-opacity:1;stroke-miterlimit:4;" d="M 915.6875 110.742188 C 915.6875 110.742188 921.957031 112.230469 917.183594 120.289062 C 904.648438 125.0625 879.28125 132.824219 879.28125 132.824219 C 879.28125 132.824219 878.089844 134.914062 874.808594 136.699219 C 871.527344 138.492188 835.421875 148.636719 835.421875 148.636719 "/>
<path style="fill:none;stroke-width:1.72;stroke-linecap:butt;stroke-linejoin:miter;stroke:rgb(0%,0%,0%);stroke-opacity:1;stroke-miterlimit:4;" d="M 917.777344 119.988281 C 917.777344 119.988281 924.644531 122.972656 917.777344 128.046875 C 910.019531 132.523438 882.867188 140.878906 882.867188 140.878906 C 882.867188 140.878906 882.570312 143.265625 881.378906 144.160156 C 880.179688 145.054688 844.375 156.992188 844.375 156.992188 "/>
<path style="fill:none;stroke-width:1.72;stroke-linecap:butt;stroke-linejoin:miter;stroke:rgb(0%,0%,0%);stroke-opacity:1;stroke-miterlimit:4;" d="M 919.570312 128.042969 C 919.570312 128.042969 926.734375 130.128906 920.464844 136.097656 C 913.003906 140.570312 889.132812 148.628906 889.132812 148.628906 C 889.132812 148.628906 886.746094 151.609375 882.867188 152.808594 C 878.984375 154 854.21875 164.144531 854.21875 164.144531 "/>
<path style="fill:none;stroke-width:1.72;stroke-linecap:butt;stroke-linejoin:miter;stroke:rgb(0%,0%,0%);stroke-opacity:1;stroke-miterlimit:4;" d="M 921.363281 136.097656 C 923.449219 136.996094 929.121094 137.890625 922.257812 143.261719 C 914.199219 146.839844 894.507812 154.601562 894.507812 154.601562 L 892.714844 157.882812 L 861.382812 171.3125 "/>
<path style="fill:none;stroke-width:1.72;stroke-linecap:butt;stroke-linejoin:miter;stroke:rgb(0%,0%,0%);stroke-opacity:1;stroke-miterlimit:4;" d="M 923.148438 144.160156 C 923.148438 144.160156 926.132812 147.738281 919.570312 151.917969 C 912.40625 155.796875 896.890625 161.765625 896.890625 161.765625 "/>
<path style="fill:none;stroke-width:1.72;stroke-linecap:butt;stroke-linejoin:miter;stroke:rgb(0%,0%,0%);stroke-opacity:1;stroke-miterlimit:4;" d="M 919.570312 152.511719 C 919.570312 152.511719 922.851562 154.601562 918.675781 157.582031 C 913.902344 159.972656 895.101562 169.820312 895.101562 169.820312 L 882.867188 177.875 "/>
<path style="fill:none;stroke-width:1.72;stroke-linecap:butt;stroke-linejoin:miter;stroke:rgb(0%,0%,0%);stroke-opacity:1;stroke-miterlimit:4;" d="M 876.601562 125.058594 C 876.601562 125.355469 881.675781 129.535156 879.882812 134.3125 C 884.359375 137.59375 883.460938 141.171875 883.460938 141.171875 C 883.460938 141.171875 889.730469 144.757812 888.835938 149.828125 C 895.101562 151.320312 894.804688 154.902344 894.804688 154.902344 L 892.714844 158.183594 C 892.714844 158.183594 898.980469 157.886719 893.609375 165.941406 C 896.890625 167.734375 895.398438 169.820312 895.398438 169.820312 "/>
<path style="fill:none;stroke-width:1.72;stroke-linecap:butt;stroke-linejoin:miter;stroke:rgb(0%,0%,0%);stroke-opacity:1;stroke-miterlimit:4;" d="M 893.609375 166.238281 C 892.714844 166.238281 871.828125 174 866.453125 178.773438 "/>
<path style="fill:none;stroke-width:1.72;stroke-linecap:butt;stroke-linejoin:miter;stroke:rgb(0%,0%,0%);stroke-opacity:1;stroke-miterlimit:4;" d="M 843.179688 156.992188 C 843.179688 156.992188 849.449219 156.691406 848.550781 163.554688 C 855.710938 161.167969 854.222656 168.03125 854.222656 168.03125 C 854.222656 168.03125 862.578125 164.746094 861.082031 175.191406 C 866.453125 174 865.5625 179.371094 865.5625 179.371094 C 865.5625 179.371094 870.335938 179.074219 870.335938 181.757812 C 873.617188 178.773438 877.199219 180.265625 877.199219 180.265625 C 877.199219 180.265625 879.585938 176.984375 882.867188 177.875 "/>
<path style="fill:none;stroke-width:1.72;stroke-linecap:butt;stroke-linejoin:miter;stroke:rgb(0%,0%,0%);stroke-opacity:1;stroke-miterlimit:4;" d="M 848.847656 163.261719 C 848.847656 163.859375 820.800781 179.375 820.800781 179.375 "/>
<path style="fill:none;stroke-width:1.72;stroke-linecap:butt;stroke-linejoin:miter;stroke:rgb(0%,0%,0%);stroke-opacity:1;stroke-miterlimit:4;" d="M 854.21875 168.328125 L 833.03125 181.460938 "/>
<path style="fill:none;stroke-width:1.72;stroke-linecap:butt;stroke-linejoin:miter;stroke:rgb(0%,0%,0%);stroke-opacity:1;stroke-miterlimit:4;" d="M 861.382812 174.886719 C 861.382812 175.191406 842.875 185.933594 842.875 185.933594 "/>
<path style="fill:none;stroke-width:1.72;stroke-linecap:butt;stroke-linejoin:miter;stroke:rgb(0%,0%,0%);stroke-opacity:1;stroke-miterlimit:4;" d="M 865.5625 179.074219 C 865.5625 179.074219 852.429688 189.816406 849.449219 189.214844 "/>
<path style="fill:none;stroke-width:1.72;stroke-linecap:butt;stroke-linejoin:miter;stroke:rgb(0%,0%,0%);stroke-opacity:1;stroke-miterlimit:4;" d="M 870.039062 182.347656 C 870.039062 182.347656 862.578125 188.015625 856.3125 190.703125 "/>
<path style="fill:none;stroke-width:1.72;stroke-linecap:butt;stroke-linejoin:miter;stroke:rgb(0%,0%,0%);stroke-opacity:1;stroke-miterlimit:4;" d="M 877.789062 179.972656 C 877.789062 179.972656 880.175781 182.953125 865.257812 190.710938 "/>
</g>
</svg>
