<?xml version="1.0" encoding="UTF-8"?>
<svg xmlns="http://www.w3.org/2000/svg" xmlns:xlink="http://www.w3.org/1999/xlink" viewBox="0 0 1000 667" version="1.1">
<defs>
<clipPath id="clip1">
  <path d="M 0 0 L 1000 0 L 1000 666.71875 L 0 666.71875 Z M 0 0 "/>
</clipPath>
<clipPath id="clip2">
  <path d="M 0 333 L 1000 333 L 1000 666.71875 L 0 666.71875 Z M 0 333 "/>
</clipPath>
</defs>
<g id="surface99">
<g clip-path="url(#clip1)" clip-rule="nonzero">
<path style=" stroke:none;fill-rule:evenodd;fill:rgb(80.783081%,6.666565%,14.901733%);fill-opacity:1;" d="M 0 666.667969 L 0 0 L 1000 0 L 1000 666.667969 Z M 0 666.667969 "/>
</g>
<g clip-path="url(#clip2)" clip-rule="nonzero">
<path style=" stroke:none;fill-rule:evenodd;fill:rgb(0%,0%,0%);fill-opacity:1;" d="M 0 333.332031 L 1000 333.332031 L 1000 666.667969 L 0 666.667969 Z M 0 333.332031 "/>
</g>
<path style=" stroke:none;fill-rule:evenodd;fill:rgb(97.645569%,83.920288%,8.627319%);fill-opacity:1;" d="M 442.945312 254.796875 L 486.535156 254.796875 L 500 213.335938 L 513.464844 254.796875 L 557.054688 254.796875 L 521.800781 280.414062 L 535.265625 321.863281 L 500 296.246094 L 464.734375 321.863281 L 478.199219 280.414062 Z M 442.945312 254.796875 "/>
<path style=" stroke:none;fill-rule:evenodd;fill:rgb(97.645569%,83.920288%,8.627319%);fill-opacity:1;" d="M 672.496094 316.339844 C 673.609375 327.648438 673.609375 339.019531 672.496094 350.324219 L 639.320312 347.058594 C 640.222656 337.933594 640.222656 328.734375 639.320312 319.609375 Z M 665.875 383.648438 C 662.574219 394.507812 658.214844 405.035156 652.863281 415.039062 L 623.46875 399.328125 C 627.789062 391.246094 631.304688 382.746094 633.972656 373.96875 Z M 633.984375 443.292969 C 626.792969 452.070312 618.738281 460.125 609.960938 467.316406 L 588.8125 441.558594 C 595.898438 435.742188 602.410156 429.242188 608.226562 422.148438 Z M 581.707031 486.195312 C 571.691406 491.546875 561.175781 495.910156 550.3125 499.207031 L 540.636719 467.304688 C 549.414062 464.648438 557.910156 461.121094 565.996094 456.804688 Z M 516.992188 505.839844 C 505.6875 506.945312 494.3125 506.945312 483.007812 505.839844 L 486.273438 472.65625 C 495.398438 473.554688 504.601562 473.554688 513.726562 472.65625 Z M 449.6875 499.207031 C 438.824219 495.910156 428.308594 491.546875 418.292969 486.195312 L 434.003906 456.804688 C 442.089844 461.121094 450.585938 464.648438 459.363281 467.304688 Z M 550.3125 167.46875 C 561.175781 170.757812 571.691406 175.121094 581.707031 180.46875 L 565.996094 209.863281 C 557.910156 205.542969 549.414062 202.027344 540.636719 199.359375 Z M 609.960938 199.351562 C 618.738281 206.542969 626.792969 214.59375 633.984375 223.371094 L 608.226562 244.519531 C 602.410156 237.4375 595.898438 230.9375 588.8125 225.109375 Z M 652.863281 251.628906 C 658.214844 261.640625 662.574219 272.160156 665.875 283.019531 L 633.972656 292.695312 C 631.304688 283.917969 627.789062 275.421875 623.46875 267.339844 Z M 652.863281 251.628906 "/>
<path style=" stroke:none;fill-rule:evenodd;fill:rgb(97.645569%,83.920288%,8.627319%);fill-opacity:1;" d="M 623.523438 499.707031 L 639.734375 480.695312 C 648.265625 488.953125 659.746094 497.089844 668.078125 504.480469 C 676.398438 511.871094 682.792969 518.023438 687.957031 526.421875 C 695.53125 538.726562 687.023438 552.667969 675.226562 544.488281 C 668.859375 540.0625 664.855469 528.113281 655.089844 518.226562 C 647.851562 512.078125 642.15625 505.621094 623.96875 502.503906 C 623.089844 502.355469 622.839844 500.511719 623.523438 499.707031 Z M 623.523438 499.707031 "/>
<path style=" stroke:none;fill-rule:evenodd;fill:rgb(0%,0%,0%);fill-opacity:1;" d="M 647.570312 493.988281 C 647.570312 494.792969 647.148438 495.53125 646.453125 495.929688 C 645.757812 496.332031 644.898438 496.332031 644.214844 495.929688 C 643.523438 495.53125 643.089844 494.792969 643.101562 493.988281 C 643.089844 493.195312 643.523438 492.445312 644.214844 492.058594 C 644.898438 491.65625 645.757812 491.65625 646.453125 492.058594 C 647.148438 492.445312 647.570312 493.195312 647.570312 493.988281 Z M 647.570312 493.988281 "/>
<path style=" stroke:none;fill-rule:evenodd;fill:rgb(97.645569%,83.920288%,8.627319%);fill-opacity:1;" d="M 516.667969 175.0625 L 513.496094 204.730469 C 578.832031 211.589844 630.003906 266.265625 630.003906 333.398438 C 630.003906 405.164062 571.753906 463.398438 500 463.398438 C 468.714844 463.398438 440.441406 451.832031 418 433.398438 L 399.003906 456.5625 C 426.617188 479.242188 461.515625 493.402344 500 493.402344 C 588.324219 493.402344 660.003906 421.722656 660.003906 333.398438 C 660.003906 250.804688 597.039062 183.527344 516.667969 175.0625 Z M 516.667969 175.0625 "/>
<path style=" stroke:none;fill-rule:evenodd;fill:rgb(0%,0%,0%);fill-opacity:1;" d="M 514.140625 439.660156 L 559.125 466.265625 L 568.914062 504.210938 L 620.550781 500.304688 L 643.25 473.695312 L 559.125 415.398438 Z M 514.140625 439.660156 "/>
<path style=" stroke:none;fill-rule:evenodd;fill:rgb(97.645569%,83.920288%,8.627319%);fill-opacity:1;" d="M 621.472656 497.089844 C 563.617188 458.617188 526.820312 437.835938 471.375 406.3125 C 449.597656 393.921875 415.777344 362.792969 442.457031 310.707031 C 444.140625 344.898438 579.273438 438.757812 636.382812 479.570312 Z M 621.472656 497.089844 "/>
<path style="fill:none;stroke-width:3.333333;stroke-linecap:butt;stroke-linejoin:miter;stroke:rgb(0%,0%,0%);stroke-opacity:1;stroke-miterlimit:4;" d="M 480.1875 372.265625 C 524.738281 414.246094 580.839844 448.492188 630.878906 486.339844 "/>
<path style=" stroke:none;fill-rule:evenodd;fill:rgb(0%,0%,0%);fill-opacity:1;" d="M 664.054688 508.367188 C 664.0625 509.160156 663.628906 509.894531 662.933594 510.296875 C 662.25 510.699219 661.394531 510.699219 660.699219 510.296875 C 660.003906 509.894531 659.582031 509.160156 659.582031 508.367188 C 659.582031 507.5625 660.003906 506.824219 660.699219 506.421875 C 661.394531 506.023438 662.25 506.023438 662.933594 506.421875 C 663.628906 506.824219 664.0625 507.5625 664.054688 508.367188 Z M 664.054688 508.367188 "/>
<path style=" stroke:none;fill-rule:evenodd;fill:rgb(0%,0%,0%);fill-opacity:1;" d="M 678.535156 523.082031 C 678.546875 523.882812 678.113281 524.621094 677.417969 525.023438 C 676.734375 525.421875 675.878906 525.421875 675.183594 525.023438 C 674.488281 524.621094 674.066406 523.882812 674.066406 523.082031 C 674.066406 522.285156 674.488281 521.539062 675.183594 521.136719 C 675.878906 520.746094 676.734375 520.746094 677.417969 521.136719 C 678.113281 521.539062 678.546875 522.285156 678.535156 523.082031 Z M 678.535156 523.082031 "/>
</g>
</svg>
