<?xml version="1.0" encoding="UTF-8"?>
<svg xmlns="http://www.w3.org/2000/svg" xmlns:xlink="http://www.w3.org/1999/xlink" viewBox="0 0 1000 501" version="1.1">
<g id="surface104">
<path style=" stroke:none;fill-rule:evenodd;fill:rgb(0%,14.117432%,49.01886%);fill-opacity:1;" d="M 0 500 L 0 0 L 1000 0 L 1000 500 Z M 0 500 "/>
<path style=" stroke:none;fill-rule:evenodd;fill:rgb(99.998474%,99.998474%,99.998474%);fill-opacity:1;" d="M 0 0 L 0 27.949219 L 444.097656 250 L 500 250 L 500 222.050781 L 55.902344 0 Z M 500 0 L 500 27.949219 L 55.902344 250 L 0 250 L 0 222.046875 L 444.097656 0 Z M 500 0 "/>
<path style=" stroke:none;fill-rule:evenodd;fill:rgb(81.175232%,7.843018%,16.862488%);fill-opacity:1;" d="M 0 250 L 166.664062 166.664062 L 203.933594 166.664062 L 37.265625 250 Z M 0 0 L 166.664062 83.335938 L 129.398438 83.335938 L 0 18.632812 Z M 296.066406 83.335938 L 462.734375 0 L 500 0 L 333.335938 83.335938 Z M 500 250 L 333.335938 166.664062 L 370.601562 166.664062 L 500 231.367188 Z M 500 250 "/>
<path style=" stroke:none;fill-rule:evenodd;fill:rgb(79.998779%,79.998779%,19.999695%);fill-opacity:1;" d="M 650.484375 128.363281 C 650.484375 252.386719 660.382812 296.425781 694.328125 330.429688 C 728.265625 364.433594 741.128906 369.789062 750.597656 375 C 761.515625 368.988281 774.089844 362.386719 804.859375 331.621094 C 835.285156 301.195312 850 257.332031 850 126.25 C 827.867188 135.722656 816.847656 138.847656 797.488281 138.789062 C 783.152344 140.195312 761.039062 131.011719 747.816406 125 C 739.175781 130.503906 726.636719 137.066406 704.105469 137.796875 C 678.085938 138.890625 669.839844 134.6875 650.484375 128.363281 Z M 650.484375 128.363281 "/>
<path style=" stroke:none;fill-rule:evenodd;fill:rgb(99.998474%,99.998474%,99.998474%);fill-opacity:1;" d="M 656.480469 136.195312 C 656.480469 174.566406 654.207031 226.859375 662.320312 257.113281 C 670.457031 287.5 672.328125 291.953125 678.453125 302.554688 L 821.121094 301.492188 C 829.9375 286.230469 830.382812 276.777344 836.914062 252.382812 C 843.425781 228.082031 845.074219 173.902344 845.265625 133.550781 C 830.917969 140.820312 812.128906 145.972656 793.890625 143.710938 C 779.277344 142.652344 765.765625 139.46875 750.039062 130.992188 C 736.390625 138.789062 731.636719 142.34375 709.105469 143.257812 C 691.5625 144.082031 677.355469 145.433594 656.480469 136.195312 Z M 656.480469 136.195312 "/>
<path style=" stroke:none;fill-rule:evenodd;fill:rgb(59.999084%,79.998779%,99.998474%);fill-opacity:1;" d="M 678.761719 301.714844 C 688.910156 322.085938 736.789062 361.132812 750.785156 369.214844 C 766.757812 359.996094 808.992188 321.410156 820.761719 301.714844 Z M 678.761719 301.714844 "/>
<path style=" stroke:none;fill-rule:evenodd;fill:rgb(99.998474%,59.999084%,0%);fill-opacity:1;" d="M 753.515625 193.003906 C 758.027344 203.121094 772.488281 214.292969 776.46875 219.765625 C 771.40625 225.242188 770.394531 224.644531 771.058594 234.816406 C 779.859375 226.039062 780.019531 225.121094 785.679688 226.453125 C 798.078125 238.253906 787.894531 263.582031 777.652344 269.089844 C 767.40625 274.972656 769.261719 268.890625 753.910156 276.253906 C 760.949219 281.992188 769.105469 275.410156 775.769531 277.171875 C 779.394531 281.269531 774.050781 288.734375 776.863281 295.765625 C 782.757812 295.230469 782.050781 283.886719 783.421875 279.773438 C 787.726562 264.710938 813.597656 254.207031 814.917969 240.390625 C 820.371094 237.949219 825.824219 239.628906 832.457031 243.179688 C 829.15625 230.234375 818.222656 230.371094 815.296875 226.328125 C 808.320312 216.171875 802.144531 204.578125 787.246094 201.578125 C 775.941406 199.292969 776.789062 202.261719 769.542969 197.546875 C 765.027344 194.199219 751.324219 187.867188 753.515625 193.003906 Z M 753.515625 193.003906 "/>
<path style=" stroke:none;fill-rule:evenodd;fill:rgb(99.998474%,99.998474%,99.998474%);fill-opacity:1;" d="M 786.039062 204.511719 C 786.039062 205.753906 784.984375 206.757812 783.679688 206.757812 C 782.378906 206.757812 781.324219 205.753906 781.324219 204.511719 C 781.324219 203.269531 782.378906 202.265625 783.679688 202.265625 C 784.984375 202.265625 786.039062 203.269531 786.039062 204.511719 Z M 786.039062 204.511719 "/>
<path style=" stroke:none;fill-rule:evenodd;fill:rgb(99.998474%,59.999084%,0%);fill-opacity:1;" d="M 717.363281 235.921875 C 724.640625 227.390625 728.242188 209.980469 731.464844 204.074219 C 738.90625 205.78125 738.824219 206.914062 747.945312 201.601562 C 735.695312 198.285156 734.769531 198.578125 733.363281 193.1875 C 738.511719 177.222656 766.761719 173.96875 776.65625 180.035156 C 786.890625 185.925781 780.386719 187.199219 794.390625 196.703125 C 796.421875 188.085938 786.507812 184.28125 785.023438 177.839844 C 787.132812 172.875 796.550781 173.890625 801.761719 168.234375 C 798.507812 163.519531 788.320312 169.414062 783.867188 170.179688 C 767.890625 173.589844 746.058594 156.683594 732.628906 162.03125 C 727.816406 158.574219 726.828125 153.195312 727.019531 145.941406 C 716.558594 154.773438 721.792969 163.921875 719.410156 168.277344 C 713.246094 178.902344 705.386719 189.527344 709.554688 203.484375 C 712.71875 214.082031 715.078125 211.984375 714.097656 220.292969 C 713.097656 225.660156 713.628906 240.171875 717.363281 235.921875 Z M 717.363281 235.921875 "/>
<path style=" stroke:none;fill-rule:evenodd;fill:rgb(99.998474%,99.998474%,99.998474%);fill-opacity:1;" d="M 712.839844 203.136719 C 713.992188 202.554688 715.421875 202.972656 716.03125 204.074219 C 716.636719 205.167969 716.195312 206.527344 715.042969 207.105469 C 713.894531 207.683594 712.472656 207.265625 711.859375 206.171875 C 711.253906 205.074219 711.695312 203.714844 712.839844 203.136719 Z M 712.839844 203.136719 "/>
<path style=" stroke:none;fill-rule:evenodd;fill:rgb(99.998474%,59.999084%,0%);fill-opacity:1;" d="M 776.46875 241.917969 C 765.046875 240.394531 747.558594 246.460938 740.585938 246.890625 C 738.269531 239.9375 739.328125 239.414062 729.84375 234.722656 C 733.203125 246.429688 733.945312 247.03125 729.832031 250.972656 C 712.839844 255.027344 695.300781 233.664062 695.628906 222.453125 C 695.625 211.054688 700.132812 215.703125 701.421875 199.363281 C 692.632812 202.160156 694.351562 212.214844 689.335938 216.757812 C 683.785156 217.609375 679.824219 209.394531 672.050781 208.070312 C 669.503906 213.164062 680.0625 218.425781 683.050781 221.664062 C 694.378906 232.941406 690.496094 259.496094 702.242188 267.683594 C 701.625 273.402344 697.308594 276.996094 690.703125 280.585938 C 704.042969 284.554688 709.546875 275.550781 714.6875 275.238281 C 727.414062 274.773438 741.015625 275.695312 751.390625 265.070312 C 759.265625 257.007812 756.164062 256.167969 764.132812 252.671875 C 769.460938 250.710938 782.214844 242.773438 776.46875 241.917969 Z M 776.46875 241.917969 "/>
<path style=" stroke:none;fill-rule:evenodd;fill:rgb(99.998474%,99.998474%,99.998474%);fill-opacity:1;" d="M 749.375 262.570312 C 748.257812 261.929688 747.898438 260.546875 748.570312 259.488281 C 749.238281 258.421875 750.6875 258.078125 751.800781 258.714844 C 752.921875 259.355469 753.277344 260.738281 752.609375 261.800781 C 751.9375 262.859375 750.488281 263.207031 749.375 262.570312 Z M 749.375 262.570312 "/>
<path style="fill-rule:nonzero;fill:rgb(99.998474%,99.998474%,99.998474%);fill-opacity:1;stroke-width:1;stroke-linecap:square;stroke-linejoin:miter;stroke:rgb(99.998474%,99.998474%,99.998474%);stroke-opacity:1;stroke-miterlimit:3.239307;" d="M 208.335938 0 L 208.335938 250 L 291.664062 250 L 291.664062 0 Z M 208.335938 0 "/>
<path style="fill-rule:nonzero;fill:rgb(99.998474%,99.998474%,99.998474%);fill-opacity:1;stroke-width:1;stroke-linecap:square;stroke-linejoin:miter;stroke:rgb(99.998474%,99.998474%,99.998474%);stroke-opacity:1;stroke-miterlimit:3.239307;" d="M 0 83.335938 L 0 166.664062 L 500 166.664062 L 500 83.335938 Z M 0 83.335938 "/>
<path style="fill-rule:nonzero;fill:rgb(81.175232%,7.843018%,16.862488%);fill-opacity:1;stroke-width:1;stroke-linecap:square;stroke-linejoin:miter;stroke:rgb(81.175232%,7.843018%,16.862488%);stroke-opacity:1;stroke-miterlimit:3.239307;" d="M 0 100 L 0 150 L 500 150 L 500 100 Z M 0 100 "/>
<path style="fill-rule:nonzero;fill:rgb(81.175232%,7.843018%,16.862488%);fill-opacity:1;stroke-width:1;stroke-linecap:square;stroke-linejoin:miter;stroke:rgb(81.175232%,7.843018%,16.862488%);stroke-opacity:1;stroke-miterlimit:3.239307;" d="M 225 0 L 225 250 L 275 250 L 275 0 Z M 225 0 "/>
</g>
</svg>
