<?xml version="1.0" encoding="UTF-8"?>
<svg xmlns="http://www.w3.org/2000/svg" xmlns:xlink="http://www.w3.org/1999/xlink" viewBox="0 0 1000 625" version="1.1">
<g id="surface114">
<rect x="0" y="0" width="1000" height="625" style="fill:rgb(45.489502%,67.449951%,87.449646%);fill-opacity:1;stroke:none;"/>
<path style=" stroke:none;fill-rule:evenodd;fill:rgb(99.998474%,99.998474%,99.998474%);fill-opacity:1;" d="M 0 208.335938 L 1000 208.335938 L 1000 416.675781 L 0 416.675781 Z M 0 208.335938 "/>
<path style=" stroke:none;fill-rule:evenodd;fill:rgb(96.469116%,70.587158%,5.490112%);fill-opacity:1;" d="M 496.050781 314.136719 L 531.617188 391.625 C 531.617188 391.625 532.226562 393.109375 533.214844 392.699219 C 534.203125 392.289062 533.59375 390.8125 533.59375 390.8125 L 503.949219 310.863281 Z M 503.09375 341.015625 C 502.660156 352.800781 509.914062 359.28125 508.964844 369.804688 C 508.019531 380.328125 513.800781 386.28125 515.136719 390.375 C 516.480469 394.464844 513.691406 396.910156 514.890625 397.496094 C 516.09375 398.078125 518.730469 394.847656 517.871094 389.027344 C 517.011719 383.210938 512.597656 381.480469 513.636719 368.628906 C 514.671875 355.773438 508.375 352.777344 509.90625 341.050781 Z M 503.09375 341.015625 "/>
<path style="fill:none;stroke-width:1.3895;stroke-linecap:butt;stroke-linejoin:miter;stroke:rgb(52.156067%,20.391846%,3.921509%);stroke-opacity:1;stroke-miterlimit:4;" d="M 496.050781 314.136719 L 531.617188 391.625 C 531.617188 391.625 532.226562 393.109375 533.214844 392.699219 C 534.203125 392.289062 533.59375 390.8125 533.59375 390.8125 L 503.949219 310.863281 "/>
<path style="fill:none;stroke-width:1.3895;stroke-linecap:butt;stroke-linejoin:miter;stroke:rgb(52.156067%,20.391846%,3.921509%);stroke-opacity:1;stroke-miterlimit:4;" d="M 503.09375 341.015625 C 502.660156 352.800781 509.914062 359.28125 508.964844 369.804688 C 508.019531 380.328125 513.800781 386.28125 515.136719 390.375 C 516.480469 394.464844 513.691406 396.910156 514.890625 397.496094 C 516.09375 398.078125 518.730469 394.847656 517.871094 389.027344 C 517.011719 383.210938 512.597656 381.480469 513.636719 368.628906 C 514.671875 355.773438 508.375 352.777344 509.90625 341.050781 "/>
<path style=" stroke:none;fill-rule:evenodd;fill:rgb(96.469116%,70.587158%,5.490112%);fill-opacity:1;" d="M 495.722656 312.5 L 498.929688 397.703125 C 498.929688 397.703125 498.925781 399.304688 500 399.3125 C 501.070312 399.3125 501.070312 397.703125 501.070312 397.703125 L 504.273438 312.5 Z M 491.949219 340.03125 C 487.035156 350.75 491.253906 359.515625 486.351562 368.871094 C 481.453125 378.234375 484.515625 385.945312 484.1875 390.242188 C 483.863281 394.539062 480.347656 395.726562 481.230469 396.726562 C 482.125 397.722656 485.789062 395.746094 487.226562 390.039062 C 488.660156 384.339844 485.242188 381.046875 491.117188 369.574219 C 496.996094 358.09375 492.320312 352.917969 498.230469 342.675781 Z M 491.949219 340.03125 "/>
<path style="fill:none;stroke-width:1.168426;stroke-linecap:butt;stroke-linejoin:miter;stroke:rgb(52.156067%,20.391846%,3.921509%);stroke-opacity:1;stroke-miterlimit:4;" d="M 495.71875 312.5 L 498.929688 397.707031 C 498.929688 397.707031 498.925781 399.304688 500 399.3125 C 501.066406 399.308594 501.066406 397.703125 501.066406 397.703125 L 504.273438 312.5 "/>
<path style="fill:none;stroke-width:1.168426;stroke-linecap:butt;stroke-linejoin:miter;stroke:rgb(52.156067%,20.391846%,3.921509%);stroke-opacity:1;stroke-miterlimit:4;" d="M 491.949219 340.035156 C 487.035156 350.75 491.253906 359.515625 486.351562 368.871094 C 481.449219 378.234375 484.515625 385.945312 484.1875 390.242188 C 483.863281 394.539062 480.347656 395.726562 481.230469 396.726562 C 482.125 397.722656 485.789062 395.746094 487.222656 390.039062 C 488.660156 384.339844 485.242188 381.046875 491.121094 369.574219 C 496.996094 358.09375 492.320312 352.917969 498.230469 342.675781 "/>
<path style=" stroke:none;fill-rule:evenodd;fill:rgb(96.469116%,70.587158%,5.490112%);fill-opacity:1;" d="M 496.050781 310.863281 L 466.40625 390.808594 C 466.40625 390.808594 465.789062 392.289062 466.777344 392.699219 C 467.765625 393.109375 468.378906 391.625 468.378906 391.625 L 503.949219 314.136719 Z M 482.023438 334.851562 C 473.390625 342.882812 473.929688 352.585938 465.820312 359.363281 C 457.710938 366.132812 457.585938 374.425781 455.640625 378.273438 C 453.691406 382.109375 449.988281 381.871094 450.425781 383.128906 C 450.867188 384.394531 455.015625 383.972656 458.527344 379.25 C 462.03125 374.53125 460.132812 370.183594 469.953125 361.828125 C 479.773438 353.472656 477.441406 346.90625 486.816406 339.695312 Z M 482.023438 334.851562 "/>
<path style="fill:none;stroke-width:1;stroke-linecap:butt;stroke-linejoin:miter;stroke:rgb(52.156067%,20.391846%,3.921509%);stroke-opacity:1;stroke-miterlimit:4;" d="M 496.050781 310.863281 L 466.40625 390.808594 C 466.40625 390.808594 465.789062 392.289062 466.777344 392.699219 C 467.765625 393.109375 468.378906 391.625 468.378906 391.625 L 503.949219 314.136719 "/>
<path style="fill:none;stroke-width:1;stroke-linecap:butt;stroke-linejoin:miter;stroke:rgb(52.156067%,20.391846%,3.921509%);stroke-opacity:1;stroke-miterlimit:4;" d="M 482.023438 334.851562 C 473.390625 342.882812 473.929688 352.585938 465.820312 359.363281 C 457.710938 366.132812 457.585938 374.425781 455.640625 378.273438 C 453.691406 382.109375 449.988281 381.871094 450.425781 383.128906 C 450.867188 384.394531 455.015625 383.972656 458.527344 379.25 C 462.03125 374.53125 460.132812 370.183594 469.953125 361.828125 C 479.773438 353.472656 477.441406 346.90625 486.816406 339.695312 "/>
<path style=" stroke:none;fill-rule:evenodd;fill:rgb(96.469116%,70.587158%,5.490112%);fill-opacity:1;" d="M 496.972656 309.476562 L 438.996094 371.992188 C 438.996094 371.992188 437.859375 373.125 438.617188 373.882812 C 439.375 374.632812 440.503906 373.503906 440.503906 373.503906 L 503.023438 315.523438 Z M 474.839844 326.273438 C 463.789062 330.382812 460.570312 339.5625 450.488281 342.710938 C 440.398438 345.867188 437.117188 353.484375 433.851562 356.285156 C 430.578125 359.09375 427.25 357.453125 427.171875 358.78125 C 427.09375 360.121094 431.089844 361.316406 436.140625 358.296875 C 441.1875 355.28125 441.089844 350.539062 453.363281 346.578125 C 465.636719 342.613281 465.992188 335.648438 477.410156 332.582031 Z M 474.839844 326.273438 "/>
<path style="fill:none;stroke-width:1.168426;stroke-linecap:butt;stroke-linejoin:miter;stroke:rgb(52.156067%,20.391846%,3.921509%);stroke-opacity:1;stroke-miterlimit:4;" d="M 496.972656 309.476562 L 438.996094 371.988281 C 438.996094 371.988281 437.859375 373.125 438.617188 373.882812 C 439.375 374.632812 440.503906 373.503906 440.503906 373.503906 L 503.019531 315.523438 "/>
<path style="fill:none;stroke-width:1.168426;stroke-linecap:butt;stroke-linejoin:miter;stroke:rgb(52.156067%,20.391846%,3.921509%);stroke-opacity:1;stroke-miterlimit:4;" d="M 474.839844 326.273438 C 463.789062 330.382812 460.570312 339.5625 450.488281 342.710938 C 440.398438 345.867188 437.117188 353.484375 433.851562 356.285156 C 430.578125 359.09375 427.253906 357.453125 427.171875 358.78125 C 427.09375 360.121094 431.09375 361.316406 436.140625 358.292969 C 441.1875 355.28125 441.089844 350.535156 453.363281 346.578125 C 465.636719 342.613281 465.992188 335.648438 477.410156 332.582031 "/>
<path style=" stroke:none;fill-rule:evenodd;fill:rgb(52.156067%,20.391846%,3.921509%);fill-opacity:1;" d="M 505.390625 343.011719 C 505.957031 354.328125 512.371094 359.339844 511.109375 369.652344 C 513.878906 361.5 507.207031 355.175781 507.585938 343.128906 Z M 498.023438 313.433594 L 522.382812 366.65625 L 501.972656 311.796875 Z M 498.023438 313.433594 "/>
<path style=" stroke:none;fill-rule:evenodd;fill:rgb(52.156067%,20.391846%,3.921509%);fill-opacity:1;" d="M 493.296875 342.75 C 489.496094 353.421875 493.507812 360.511719 488.390625 369.554688 C 494.066406 363.078125 490.328125 354.6875 495.289062 343.703125 Z M 497.820312 312.609375 L 499.957031 371.101562 L 502.09375 312.601562 Z M 497.820312 312.609375 "/>
<path style=" stroke:none;fill-rule:evenodd;fill:rgb(52.156067%,20.391846%,3.921509%);fill-opacity:1;" d="M 482.234375 337.882812 C 474.632812 346.289062 475.628906 354.371094 467.445312 360.773438 C 475.164062 356.957031 474.921875 347.773438 483.703125 339.519531 Z M 497.945312 311.761719 L 477.53125 366.621094 L 501.890625 313.398438 Z M 497.945312 311.761719 "/>
<path style=" stroke:none;fill-rule:evenodd;fill:rgb(52.156067%,20.391846%,3.921509%);fill-opacity:1;" d="M 473.871094 329.15625 C 463.636719 334.007812 461.457031 341.851562 451.445312 344.632812 C 460.039062 344.074219 463.328125 335.492188 474.601562 331.230469 Z M 498.382812 311.035156 L 458.53125 353.90625 L 501.402344 314.050781 Z M 498.382812 311.035156 "/>
<path style=" stroke:none;fill-rule:evenodd;fill:rgb(96.469116%,70.587158%,5.490112%);fill-opacity:1;" d="M 498.363281 308.550781 L 420.875 344.117188 C 420.875 344.117188 419.390625 344.726562 419.800781 345.714844 C 420.210938 346.703125 421.6875 346.09375 421.6875 346.09375 L 501.636719 316.449219 Z M 471.484375 315.59375 C 459.699219 315.160156 453.21875 322.414062 442.695312 321.464844 C 432.171875 320.519531 426.21875 326.300781 422.125 327.636719 C 418.035156 328.980469 415.589844 326.191406 415.003906 327.390625 C 414.421875 328.59375 417.652344 331.230469 423.472656 330.371094 C 429.289062 329.511719 431.019531 325.097656 443.871094 326.136719 C 456.726562 327.171875 459.722656 320.875 471.449219 322.40625 Z M 471.484375 315.59375 "/>
<path style="fill:none;stroke-width:1.3895;stroke-linecap:butt;stroke-linejoin:miter;stroke:rgb(52.156067%,20.391846%,3.921509%);stroke-opacity:1;stroke-miterlimit:4;" d="M 498.363281 308.550781 L 420.875 344.117188 C 420.875 344.117188 419.390625 344.726562 419.800781 345.714844 C 420.210938 346.703125 421.6875 346.09375 421.6875 346.09375 L 501.636719 316.449219 "/>
<path style="fill:none;stroke-width:1.3895;stroke-linecap:butt;stroke-linejoin:miter;stroke:rgb(52.156067%,20.391846%,3.921509%);stroke-opacity:1;stroke-miterlimit:4;" d="M 471.484375 315.59375 C 459.699219 315.160156 453.21875 322.414062 442.695312 321.464844 C 432.171875 320.519531 426.21875 326.300781 422.125 327.636719 C 418.035156 328.980469 415.589844 326.191406 415.003906 327.390625 C 414.421875 328.59375 417.652344 331.230469 423.472656 330.371094 C 429.289062 329.511719 431.019531 325.097656 443.871094 326.136719 C 456.726562 327.171875 459.722656 320.875 471.449219 322.40625 "/>
<path style=" stroke:none;fill-rule:evenodd;fill:rgb(96.469116%,70.587158%,5.490112%);fill-opacity:1;" d="M 500 308.222656 L 414.796875 311.429688 C 414.796875 311.429688 413.195312 311.425781 413.1875 312.5 C 413.1875 313.570312 414.796875 313.570312 414.796875 313.570312 L 500 316.773438 Z M 472.46875 304.449219 C 461.75 299.535156 452.984375 303.753906 443.628906 298.851562 C 434.265625 293.953125 426.554688 297.015625 422.257812 296.6875 C 417.960938 296.363281 416.773438 292.847656 415.773438 293.730469 C 414.777344 294.625 416.753906 298.289062 422.460938 299.726562 C 428.160156 301.160156 431.453125 297.742188 442.925781 303.617188 C 454.40625 309.496094 459.582031 304.820312 469.824219 310.730469 Z M 472.46875 304.449219 "/>
<path style="fill:none;stroke-width:1.168426;stroke-linecap:butt;stroke-linejoin:miter;stroke:rgb(52.156067%,20.391846%,3.921509%);stroke-opacity:1;stroke-miterlimit:4;" d="M 500 308.222656 L 414.796875 311.433594 C 414.796875 311.433594 413.195312 311.425781 413.191406 312.5 C 413.1875 313.566406 414.792969 313.570312 414.792969 313.570312 L 500 316.773438 "/>
<path style="fill:none;stroke-width:1.168426;stroke-linecap:butt;stroke-linejoin:miter;stroke:rgb(52.156067%,20.391846%,3.921509%);stroke-opacity:1;stroke-miterlimit:4;" d="M 472.46875 304.449219 C 461.75 299.535156 452.984375 303.753906 443.628906 298.851562 C 434.265625 293.953125 426.558594 297.015625 422.261719 296.6875 C 417.960938 296.363281 416.773438 292.847656 415.769531 293.730469 C 414.777344 294.625 416.753906 298.292969 422.460938 299.726562 C 428.160156 301.160156 431.453125 297.742188 442.925781 303.621094 C 454.40625 309.496094 459.582031 304.824219 469.824219 310.730469 "/>
<path style=" stroke:none;fill-rule:evenodd;fill:rgb(96.469116%,70.587158%,5.490112%);fill-opacity:1;" d="M 501.636719 308.550781 L 421.691406 278.90625 C 421.691406 278.90625 420.210938 278.289062 419.800781 279.277344 C 419.390625 280.265625 420.875 280.878906 420.875 280.878906 L 498.363281 316.449219 Z M 477.648438 294.523438 C 469.617188 285.890625 459.914062 286.429688 453.136719 278.320312 C 446.367188 270.210938 438.074219 270.085938 434.226562 268.140625 C 430.390625 266.191406 430.628906 262.488281 429.371094 262.925781 C 428.105469 263.367188 428.527344 267.515625 433.25 271.027344 C 437.96875 274.53125 442.316406 272.632812 450.671875 282.453125 C 459.027344 292.273438 465.59375 289.941406 472.804688 299.316406 Z M 477.648438 294.523438 "/>
<path style="fill:none;stroke-width:1;stroke-linecap:butt;stroke-linejoin:miter;stroke:rgb(52.156067%,20.391846%,3.921509%);stroke-opacity:1;stroke-miterlimit:4;" d="M 501.636719 308.550781 L 421.691406 278.90625 C 421.691406 278.90625 420.210938 278.289062 419.800781 279.277344 C 419.390625 280.265625 420.875 280.878906 420.875 280.878906 L 498.363281 316.449219 "/>
<path style="fill:none;stroke-width:1;stroke-linecap:butt;stroke-linejoin:miter;stroke:rgb(52.156067%,20.391846%,3.921509%);stroke-opacity:1;stroke-miterlimit:4;" d="M 477.648438 294.523438 C 469.617188 285.890625 459.914062 286.429688 453.136719 278.320312 C 446.367188 270.210938 438.074219 270.085938 434.226562 268.140625 C 430.390625 266.191406 430.628906 262.488281 429.371094 262.925781 C 428.105469 263.367188 428.527344 267.515625 433.25 271.027344 C 437.96875 274.53125 442.316406 272.632812 450.671875 282.453125 C 459.027344 292.273438 465.59375 289.941406 472.804688 299.316406 "/>
<path style=" stroke:none;fill-rule:evenodd;fill:rgb(96.469116%,70.587158%,5.490112%);fill-opacity:1;" d="M 503.023438 309.472656 L 440.507812 251.496094 C 440.507812 251.496094 439.375 250.359375 438.617188 251.117188 C 437.867188 251.875 438.996094 253.003906 438.996094 253.003906 L 496.976562 315.523438 Z M 486.226562 287.339844 C 482.117188 276.289062 472.9375 273.070312 469.789062 262.988281 C 466.632812 252.898438 459.015625 249.617188 456.214844 246.351562 C 453.40625 243.078125 455.046875 239.75 453.71875 239.671875 C 452.378906 239.59375 451.183594 243.589844 454.203125 248.640625 C 457.21875 253.6875 461.960938 253.589844 465.921875 265.863281 C 469.886719 278.136719 476.851562 278.492188 479.917969 289.910156 Z M 486.226562 287.339844 "/>
<path style="fill:none;stroke-width:1.168426;stroke-linecap:butt;stroke-linejoin:miter;stroke:rgb(52.156067%,20.391846%,3.921509%);stroke-opacity:1;stroke-miterlimit:4;" d="M 503.023438 309.472656 L 440.507812 251.496094 C 440.507812 251.496094 439.375 250.359375 438.617188 251.117188 C 437.867188 251.875 438.996094 253.003906 438.996094 253.003906 L 496.980469 315.523438 "/>
<path style="fill:none;stroke-width:1.168426;stroke-linecap:butt;stroke-linejoin:miter;stroke:rgb(52.156067%,20.391846%,3.921509%);stroke-opacity:1;stroke-miterlimit:4;" d="M 486.226562 287.339844 C 482.117188 276.285156 472.9375 273.070312 469.789062 262.988281 C 466.632812 252.898438 459.015625 249.617188 456.214844 246.351562 C 453.40625 243.078125 455.046875 239.753906 453.71875 239.671875 C 452.382812 239.59375 451.183594 243.589844 454.207031 248.640625 C 457.222656 253.6875 461.964844 253.589844 465.925781 265.863281 C 469.886719 278.136719 476.847656 278.492188 479.917969 289.910156 "/>
<path style=" stroke:none;fill-rule:evenodd;fill:rgb(52.156067%,20.391846%,3.921509%);fill-opacity:1;" d="M 469.488281 317.890625 C 458.171875 318.457031 453.160156 324.871094 442.847656 323.609375 C 451 326.378906 457.324219 319.707031 469.371094 320.085938 Z M 499.066406 310.523438 L 445.84375 334.882812 L 500.703125 314.472656 Z M 499.066406 310.523438 "/>
<path style=" stroke:none;fill-rule:evenodd;fill:rgb(52.156067%,20.391846%,3.921509%);fill-opacity:1;" d="M 469.75 305.796875 C 459.078125 301.996094 451.988281 306.007812 442.945312 300.890625 C 449.421875 306.566406 457.8125 302.828125 468.796875 307.789062 Z M 499.890625 310.320312 L 441.398438 312.457031 L 499.898438 314.59375 Z M 499.890625 310.320312 "/>
<path style=" stroke:none;fill-rule:evenodd;fill:rgb(52.156067%,20.391846%,3.921509%);fill-opacity:1;" d="M 474.617188 294.734375 C 466.210938 287.132812 458.128906 288.128906 451.726562 279.945312 C 455.542969 287.664062 464.726562 287.421875 472.980469 296.203125 Z M 500.738281 310.445312 L 445.878906 290.03125 L 499.101562 314.390625 Z M 500.738281 310.445312 "/>
<path style=" stroke:none;fill-rule:evenodd;fill:rgb(52.156067%,20.391846%,3.921509%);fill-opacity:1;" d="M 483.34375 286.371094 C 478.492188 276.136719 470.648438 273.957031 467.867188 263.945312 C 468.425781 272.539062 477.007812 275.828125 481.269531 287.101562 Z M 501.464844 310.882812 L 458.59375 271.03125 L 498.449219 313.902344 Z M 501.464844 310.882812 "/>
<path style=" stroke:none;fill-rule:evenodd;fill:rgb(96.469116%,70.587158%,5.490112%);fill-opacity:1;" d="M 503.949219 310.863281 L 468.382812 233.375 C 468.382812 233.375 467.773438 231.890625 466.785156 232.300781 C 465.796875 232.710938 466.40625 234.1875 466.40625 234.1875 L 496.050781 314.136719 Z M 496.90625 283.984375 C 497.339844 272.199219 490.085938 265.71875 491.035156 255.195312 C 491.980469 244.671875 486.199219 238.71875 484.863281 234.625 C 483.519531 230.535156 486.308594 228.089844 485.109375 227.503906 C 483.90625 226.921875 481.269531 230.152344 482.128906 235.972656 C 482.988281 241.789062 487.402344 243.519531 486.363281 256.371094 C 485.328125 269.226562 491.625 272.222656 490.09375 283.949219 Z M 496.90625 283.984375 "/>
<path style="fill:none;stroke-width:1.3895;stroke-linecap:butt;stroke-linejoin:miter;stroke:rgb(52.156067%,20.391846%,3.921509%);stroke-opacity:1;stroke-miterlimit:4;" d="M 503.949219 310.863281 L 468.382812 233.375 C 468.382812 233.375 467.773438 231.890625 466.785156 232.300781 C 465.796875 232.710938 466.40625 234.1875 466.40625 234.1875 L 496.050781 314.136719 "/>
<path style="fill:none;stroke-width:1.3895;stroke-linecap:butt;stroke-linejoin:miter;stroke:rgb(52.156067%,20.391846%,3.921509%);stroke-opacity:1;stroke-miterlimit:4;" d="M 496.90625 283.984375 C 497.339844 272.199219 490.085938 265.71875 491.035156 255.195312 C 491.980469 244.671875 486.199219 238.71875 484.863281 234.625 C 483.519531 230.535156 486.308594 228.089844 485.109375 227.503906 C 483.90625 226.921875 481.269531 230.152344 482.128906 235.972656 C 482.988281 241.789062 487.402344 243.519531 486.363281 256.371094 C 485.328125 269.226562 491.625 272.222656 490.09375 283.949219 "/>
<path style=" stroke:none;fill-rule:evenodd;fill:rgb(96.469116%,70.587158%,5.490112%);fill-opacity:1;" d="M 504.277344 312.5 L 501.070312 227.296875 C 501.070312 227.296875 501.074219 225.695312 500 225.6875 C 498.929688 225.6875 498.929688 227.296875 498.929688 227.296875 L 495.726562 312.5 Z M 508.050781 284.96875 C 512.964844 274.25 508.746094 265.484375 513.648438 256.128906 C 518.546875 246.765625 515.484375 239.054688 515.8125 234.757812 C 516.136719 230.460938 519.652344 229.273438 518.769531 228.273438 C 517.875 227.277344 514.210938 229.253906 512.773438 234.960938 C 511.339844 240.660156 514.757812 243.953125 508.882812 255.425781 C 503.003906 266.90625 507.679688 272.082031 501.769531 282.324219 Z M 508.050781 284.96875 "/>
<path style="fill:none;stroke-width:1.168426;stroke-linecap:butt;stroke-linejoin:miter;stroke:rgb(52.156067%,20.391846%,3.921509%);stroke-opacity:1;stroke-miterlimit:4;" d="M 504.277344 312.5 L 501.070312 227.296875 C 501.070312 227.296875 501.074219 225.695312 500 225.6875 C 498.929688 225.691406 498.933594 227.296875 498.933594 227.296875 L 495.726562 312.5 "/>
<path style="fill:none;stroke-width:1.168426;stroke-linecap:butt;stroke-linejoin:miter;stroke:rgb(52.156067%,20.391846%,3.921509%);stroke-opacity:1;stroke-miterlimit:4;" d="M 508.050781 284.96875 C 512.964844 274.25 508.746094 265.484375 513.648438 256.128906 C 518.546875 246.765625 515.484375 239.054688 515.8125 234.761719 C 516.136719 230.460938 519.652344 229.273438 518.769531 228.273438 C 517.878906 227.277344 514.207031 229.253906 512.773438 234.960938 C 511.339844 240.660156 514.757812 243.953125 508.882812 255.425781 C 503.003906 266.90625 507.679688 272.082031 501.769531 282.324219 "/>
<path style=" stroke:none;fill-rule:evenodd;fill:rgb(96.469116%,70.587158%,5.490112%);fill-opacity:1;" d="M 503.949219 314.136719 L 533.59375 234.191406 C 533.59375 234.191406 534.210938 232.710938 533.222656 232.300781 C 532.234375 231.890625 531.621094 233.375 531.621094 233.375 L 496.050781 310.863281 Z M 517.976562 290.148438 C 526.609375 282.117188 526.070312 272.414062 534.179688 265.636719 C 542.289062 258.867188 542.414062 250.574219 544.359375 246.726562 C 546.308594 242.890625 550.011719 243.128906 549.574219 241.871094 C 549.132812 240.605469 544.984375 241.027344 541.472656 245.75 C 537.96875 250.46875 539.867188 254.816406 530.046875 263.171875 C 520.226562 271.527344 522.558594 278.09375 513.183594 285.304688 Z M 517.976562 290.148438 "/>
<path style="fill:none;stroke-width:1;stroke-linecap:butt;stroke-linejoin:miter;stroke:rgb(52.156067%,20.391846%,3.921509%);stroke-opacity:1;stroke-miterlimit:4;" d="M 503.949219 314.136719 L 533.59375 234.191406 C 533.59375 234.191406 534.210938 232.710938 533.222656 232.300781 C 532.234375 231.890625 531.621094 233.375 531.621094 233.375 L 496.050781 310.863281 "/>
<path style="fill:none;stroke-width:1;stroke-linecap:butt;stroke-linejoin:miter;stroke:rgb(52.156067%,20.391846%,3.921509%);stroke-opacity:1;stroke-miterlimit:4;" d="M 517.976562 290.148438 C 526.609375 282.117188 526.070312 272.414062 534.179688 265.636719 C 542.289062 258.867188 542.414062 250.574219 544.359375 246.726562 C 546.308594 242.890625 550.011719 243.128906 549.574219 241.871094 C 549.132812 240.605469 544.984375 241.027344 541.472656 245.75 C 537.96875 250.46875 539.867188 254.816406 530.046875 263.171875 C 520.226562 271.527344 522.558594 278.09375 513.183594 285.304688 "/>
<path style=" stroke:none;fill-rule:evenodd;fill:rgb(96.469116%,70.587158%,5.490112%);fill-opacity:1;" d="M 503.027344 315.523438 L 561.003906 253.007812 C 561.003906 253.007812 562.140625 251.875 561.382812 251.117188 C 560.625 250.367188 559.496094 251.496094 559.496094 251.496094 L 496.976562 309.476562 Z M 525.160156 298.726562 C 536.210938 294.617188 539.429688 285.4375 549.511719 282.289062 C 559.601562 279.132812 562.882812 271.515625 566.148438 268.714844 C 569.421875 265.90625 572.75 267.546875 572.828125 266.21875 C 572.90625 264.878906 568.910156 263.683594 563.859375 266.703125 C 558.8125 269.71875 558.910156 274.460938 546.636719 278.421875 C 534.363281 282.386719 534.007812 289.351562 522.589844 292.417969 Z M 525.160156 298.726562 "/>
<path style="fill:none;stroke-width:1.168426;stroke-linecap:butt;stroke-linejoin:miter;stroke:rgb(52.156067%,20.391846%,3.921509%);stroke-opacity:1;stroke-miterlimit:4;" d="M 503.027344 315.519531 L 561.003906 253.007812 C 561.003906 253.007812 562.140625 251.875 561.382812 251.117188 C 560.625 250.367188 559.496094 251.496094 559.496094 251.496094 L 496.980469 309.480469 "/>
<path style="fill:none;stroke-width:1.168426;stroke-linecap:butt;stroke-linejoin:miter;stroke:rgb(52.156067%,20.391846%,3.921509%);stroke-opacity:1;stroke-miterlimit:4;" d="M 525.160156 298.722656 C 536.210938 294.617188 539.429688 285.4375 549.511719 282.289062 C 559.601562 279.132812 562.882812 271.515625 566.148438 268.710938 C 569.421875 265.90625 572.746094 267.546875 572.828125 266.214844 C 572.90625 264.878906 568.910156 263.683594 563.859375 266.703125 C 558.8125 269.71875 558.910156 274.460938 546.636719 278.425781 C 534.363281 282.382812 534.007812 289.347656 522.589844 292.417969 "/>
<path style=" stroke:none;fill-rule:evenodd;fill:rgb(52.156067%,20.391846%,3.921509%);fill-opacity:1;" d="M 494.609375 281.988281 C 494.042969 270.671875 487.628906 265.660156 488.890625 255.347656 C 486.121094 263.5 492.792969 269.824219 492.414062 281.871094 Z M 501.976562 311.566406 L 477.617188 258.34375 L 498.027344 313.203125 Z M 501.976562 311.566406 "/>
<path style=" stroke:none;fill-rule:evenodd;fill:rgb(52.156067%,20.391846%,3.921509%);fill-opacity:1;" d="M 506.703125 282.25 C 510.503906 271.578125 506.492188 264.488281 511.609375 255.445312 C 505.933594 261.921875 509.671875 270.3125 504.710938 281.296875 Z M 502.179688 312.390625 L 500.042969 253.898438 L 497.90625 312.398438 Z M 502.179688 312.390625 "/>
<path style=" stroke:none;fill-rule:evenodd;fill:rgb(52.156067%,20.391846%,3.921509%);fill-opacity:1;" d="M 517.765625 287.117188 C 525.367188 278.710938 524.371094 270.628906 532.554688 264.226562 C 524.835938 268.042969 525.078125 277.226562 516.296875 285.480469 Z M 502.054688 313.238281 L 522.46875 258.378906 L 498.109375 311.601562 Z M 502.054688 313.238281 "/>
<path style=" stroke:none;fill-rule:evenodd;fill:rgb(52.156067%,20.391846%,3.921509%);fill-opacity:1;" d="M 526.128906 295.84375 C 536.363281 290.992188 538.542969 283.148438 548.554688 280.367188 C 539.960938 280.925781 536.671875 289.507812 525.398438 293.769531 Z M 501.617188 313.964844 L 541.46875 271.09375 L 498.597656 310.949219 Z M 501.617188 313.964844 "/>
<path style=" stroke:none;fill-rule:evenodd;fill:rgb(96.469116%,70.587158%,5.490112%);fill-opacity:1;" d="M 501.636719 316.449219 L 579.125 280.882812 C 579.125 280.882812 580.609375 280.273438 580.199219 279.285156 C 579.789062 278.296875 578.3125 278.90625 578.3125 278.90625 L 498.363281 308.550781 Z M 528.515625 309.40625 C 540.300781 309.839844 546.78125 302.585938 557.304688 303.535156 C 567.828125 304.480469 573.78125 298.699219 577.875 297.363281 C 581.964844 296.019531 584.410156 298.808594 584.996094 297.609375 C 585.578125 296.40625 582.347656 293.769531 576.527344 294.628906 C 570.710938 295.488281 568.980469 299.902344 556.128906 298.863281 C 543.273438 297.828125 540.277344 304.125 528.550781 302.59375 Z M 528.515625 309.40625 "/>
<path style="fill:none;stroke-width:1.3895;stroke-linecap:butt;stroke-linejoin:miter;stroke:rgb(52.156067%,20.391846%,3.921509%);stroke-opacity:1;stroke-miterlimit:4;" d="M 501.636719 316.449219 L 579.125 280.882812 C 579.125 280.882812 580.609375 280.273438 580.199219 279.285156 C 579.789062 278.296875 578.3125 278.90625 578.3125 278.90625 L 498.363281 308.550781 "/>
<path style="fill:none;stroke-width:1.3895;stroke-linecap:butt;stroke-linejoin:miter;stroke:rgb(52.156067%,20.391846%,3.921509%);stroke-opacity:1;stroke-miterlimit:4;" d="M 528.515625 309.40625 C 540.300781 309.839844 546.78125 302.585938 557.304688 303.535156 C 567.828125 304.480469 573.78125 298.699219 577.875 297.363281 C 581.964844 296.019531 584.410156 298.808594 584.996094 297.609375 C 585.578125 296.40625 582.347656 293.769531 576.527344 294.628906 C 570.710938 295.488281 568.980469 299.902344 556.128906 298.863281 C 543.273438 297.828125 540.277344 304.125 528.550781 302.59375 "/>
<path style=" stroke:none;fill-rule:evenodd;fill:rgb(96.469116%,70.587158%,5.490112%);fill-opacity:1;" d="M 500 316.777344 L 585.203125 313.570312 C 585.203125 313.570312 586.804688 313.574219 586.8125 312.5 C 586.8125 311.429688 585.203125 311.429688 585.203125 311.429688 L 500 308.226562 Z M 527.53125 320.550781 C 538.25 325.464844 547.015625 321.246094 556.371094 326.148438 C 565.734375 331.046875 573.445312 327.984375 577.742188 328.3125 C 582.039062 328.636719 583.226562 332.152344 584.226562 331.269531 C 585.222656 330.375 583.246094 326.710938 577.539062 325.273438 C 571.839844 323.839844 568.546875 327.257812 557.074219 321.382812 C 545.59375 315.503906 540.417969 320.179688 530.175781 314.269531 Z M 527.53125 320.550781 "/>
<path style="fill:none;stroke-width:1.168426;stroke-linecap:butt;stroke-linejoin:miter;stroke:rgb(52.156067%,20.391846%,3.921509%);stroke-opacity:1;stroke-miterlimit:4;" d="M 500 316.777344 L 585.207031 313.566406 C 585.207031 313.566406 586.804688 313.574219 586.808594 312.5 C 586.808594 311.433594 585.203125 311.429688 585.203125 311.429688 L 500 308.226562 "/>
<path style="fill:none;stroke-width:1.168426;stroke-linecap:butt;stroke-linejoin:miter;stroke:rgb(52.156067%,20.391846%,3.921509%);stroke-opacity:1;stroke-miterlimit:4;" d="M 527.535156 320.550781 C 538.25 325.464844 547.015625 321.246094 556.371094 326.148438 C 565.734375 331.046875 573.445312 327.984375 577.742188 328.316406 C 582.039062 328.636719 583.226562 332.152344 584.226562 331.265625 C 585.222656 330.378906 583.246094 326.707031 577.539062 325.273438 C 571.839844 323.839844 568.550781 327.257812 557.074219 321.378906 C 545.59375 315.503906 540.417969 320.179688 530.175781 314.269531 "/>
<path style=" stroke:none;fill-rule:evenodd;fill:rgb(96.469116%,70.587158%,5.490112%);fill-opacity:1;" d="M 498.363281 316.449219 L 578.308594 346.09375 C 578.308594 346.09375 579.789062 346.710938 580.199219 345.722656 C 580.609375 344.734375 579.125 344.121094 579.125 344.121094 L 501.636719 308.550781 Z M 522.351562 330.476562 C 530.382812 339.109375 540.085938 338.570312 546.863281 346.679688 C 553.632812 354.789062 561.925781 354.914062 565.773438 356.859375 C 569.609375 358.808594 569.371094 362.511719 570.628906 362.074219 C 571.894531 361.632812 571.472656 357.484375 566.75 353.972656 C 562.03125 350.46875 557.683594 352.367188 549.328125 342.546875 C 540.972656 332.726562 534.40625 335.058594 527.195312 325.683594 Z M 522.351562 330.476562 "/>
<path style="fill:none;stroke-width:1;stroke-linecap:butt;stroke-linejoin:miter;stroke:rgb(52.156067%,20.391846%,3.921509%);stroke-opacity:1;stroke-miterlimit:4;" d="M 498.363281 316.449219 L 578.308594 346.09375 C 578.308594 346.09375 579.789062 346.710938 580.199219 345.722656 C 580.609375 344.734375 579.125 344.121094 579.125 344.121094 L 501.636719 308.550781 "/>
<path style="fill:none;stroke-width:1;stroke-linecap:butt;stroke-linejoin:miter;stroke:rgb(52.156067%,20.391846%,3.921509%);stroke-opacity:1;stroke-miterlimit:4;" d="M 522.351562 330.476562 C 530.382812 339.109375 540.085938 338.570312 546.863281 346.679688 C 553.632812 354.789062 561.925781 354.914062 565.773438 356.859375 C 569.609375 358.808594 569.371094 362.511719 570.628906 362.074219 C 571.894531 361.632812 571.472656 357.484375 566.75 353.972656 C 562.03125 350.46875 557.683594 352.367188 549.328125 342.546875 C 540.972656 332.726562 534.40625 335.058594 527.195312 325.683594 "/>
<path style=" stroke:none;fill-rule:evenodd;fill:rgb(96.469116%,70.587158%,5.490112%);fill-opacity:1;" d="M 496.976562 315.527344 L 559.492188 373.503906 C 559.492188 373.503906 560.625 374.640625 561.382812 373.882812 C 562.132812 373.125 561.003906 371.996094 561.003906 371.996094 L 503.023438 309.476562 Z M 513.773438 337.660156 C 517.882812 348.710938 527.0625 351.929688 530.210938 362.011719 C 533.367188 372.101562 540.984375 375.382812 543.785156 378.648438 C 546.59375 381.921875 544.953125 385.25 546.28125 385.328125 C 547.621094 385.40625 548.816406 381.410156 545.796875 376.359375 C 542.78125 371.3125 538.039062 371.410156 534.078125 359.136719 C 530.113281 346.863281 523.148438 346.507812 520.082031 335.089844 Z M 513.773438 337.660156 "/>
<path style="fill:none;stroke-width:1.168426;stroke-linecap:butt;stroke-linejoin:miter;stroke:rgb(52.156067%,20.391846%,3.921509%);stroke-opacity:1;stroke-miterlimit:4;" d="M 496.980469 315.527344 L 559.492188 373.503906 C 559.492188 373.503906 560.625 374.640625 561.382812 373.882812 C 562.132812 373.128906 561.003906 371.996094 561.003906 371.996094 L 503.019531 309.480469 "/>
<path style="fill:none;stroke-width:1.168426;stroke-linecap:butt;stroke-linejoin:miter;stroke:rgb(52.156067%,20.391846%,3.921509%);stroke-opacity:1;stroke-miterlimit:4;" d="M 513.777344 337.65625 C 517.882812 348.710938 527.0625 351.929688 530.210938 362.011719 C 533.367188 372.101562 540.984375 375.386719 543.789062 378.652344 C 546.59375 381.921875 544.953125 385.25 546.285156 385.328125 C 547.621094 385.40625 548.816406 381.410156 545.796875 376.363281 C 542.78125 371.3125 538.039062 371.410156 534.074219 359.136719 C 530.113281 346.863281 523.152344 346.507812 520.082031 335.089844 "/>
<path style=" stroke:none;fill-rule:evenodd;fill:rgb(52.156067%,20.391846%,3.921509%);fill-opacity:1;" d="M 530.511719 307.109375 C 541.828125 306.542969 546.839844 300.128906 557.152344 301.390625 C 549 298.621094 542.675781 305.292969 530.628906 304.914062 Z M 500.933594 314.476562 L 554.15625 290.117188 L 499.296875 310.527344 Z M 500.933594 314.476562 "/>
<path style=" stroke:none;fill-rule:evenodd;fill:rgb(52.156067%,20.391846%,3.921509%);fill-opacity:1;" d="M 530.25 319.203125 C 540.921875 323.003906 548.011719 318.992188 557.054688 324.109375 C 550.578125 318.433594 542.1875 322.171875 531.203125 317.210938 Z M 500.109375 314.679688 L 558.601562 312.542969 L 500.101562 310.40625 Z M 500.109375 314.679688 "/>
<path style=" stroke:none;fill-rule:evenodd;fill:rgb(52.156067%,20.391846%,3.921509%);fill-opacity:1;" d="M 525.382812 330.265625 C 533.789062 337.867188 541.871094 336.871094 548.273438 345.054688 C 544.457031 337.335938 535.273438 337.578125 527.019531 328.796875 Z M 499.261719 314.554688 L 554.121094 334.96875 L 500.898438 310.609375 Z M 499.261719 314.554688 "/>
<path style=" stroke:none;fill-rule:evenodd;fill:rgb(52.156067%,20.391846%,3.921509%);fill-opacity:1;" d="M 516.65625 338.628906 C 521.507812 348.863281 529.351562 351.042969 532.132812 361.054688 C 531.574219 352.460938 522.992188 349.171875 518.730469 337.898438 Z M 498.535156 314.117188 L 541.40625 353.96875 L 501.550781 311.097656 Z M 498.535156 314.117188 "/>
<path style="fill-rule:evenodd;fill:rgb(96.469116%,70.587158%,5.490112%);fill-opacity:1;stroke-width:1.875;stroke-linecap:butt;stroke-linejoin:miter;stroke:rgb(52.156067%,20.391846%,3.921509%);stroke-opacity:1;stroke-miterlimit:4;" d="M 534.722656 312.5 C 534.722656 331.675781 519.175781 347.222656 500 347.222656 C 480.824219 347.222656 465.277344 331.675781 465.277344 312.5 C 465.277344 293.324219 480.824219 277.777344 500 277.777344 C 519.175781 277.777344 534.722656 293.324219 534.722656 312.5 Z M 534.722656 312.5 "/>
<path style=" stroke:none;fill-rule:evenodd;fill:rgb(51.763916%,20.783997%,6.666565%);fill-opacity:1;" d="M 511.835938 305.070312 C 509.46875 305.070312 507.195312 306.101562 505.859375 308.238281 C 508.53125 310.644531 514.429688 310.902344 518.4375 307.964844 C 516.703125 306.097656 514.210938 305.070312 511.835938 305.070312 Z M 511.796875 305.621094 C 514.105469 305.578125 516.265625 306.640625 516.566406 307.691406 C 513.890625 310.632812 509.625 310.375 506.953125 308.238281 C 508.125 306.371094 510.003906 305.652344 511.796875 305.621094 Z M 511.796875 305.621094 "/>
<path style=" stroke:none;fill-rule:evenodd;fill:rgb(52.156067%,20.391846%,3.921509%);fill-opacity:1;" d="M 512.285156 303.421875 C 508.820312 303.421875 508.015625 304.230469 506.410156 305.5625 C 504.808594 306.898438 504.007812 306.628906 503.742188 306.898438 C 503.472656 307.164062 503.742188 307.964844 504.273438 307.695312 C 504.808594 307.429688 505.878906 306.898438 507.476562 305.5625 C 509.082031 304.222656 510.679688 304.222656 512.285156 304.222656 C 517.09375 304.222656 519.761719 308.234375 520.300781 307.964844 C 520.832031 307.695312 517.625 303.421875 512.285156 303.421875 Z M 512.285156 303.421875 "/>
<path style=" stroke:none;fill-rule:evenodd;fill:rgb(52.156067%,20.391846%,3.921509%);fill-opacity:1;" d="M 521.898438 305.023438 C 515.757812 299.683594 508.015625 298.882812 503.734375 302.886719 C 502.691406 304.289062 502.019531 305.785156 501.746094 307.347656 C 501.207031 310.394531 502.160156 313.679688 504.539062 317.046875 C 504.273438 317.046875 503.734375 317.308594 503.472656 317.578125 C 501.347656 313.523438 500.597656 309.355469 501.292969 305.394531 C 501.476562 304.363281 501.765625 303.34375 502.128906 302.355469 C 508.007812 297.546875 516.023438 297.007812 521.898438 305.023438 Z M 521.898438 305.023438 "/>
<path style=" stroke:none;fill-rule:evenodd;fill:rgb(52.156067%,20.391846%,3.921509%);fill-opacity:1;" d="M 514.15625 307.691406 C 514.15625 309.015625 513.078125 310.089844 511.753906 310.089844 C 510.425781 310.089844 509.351562 309.015625 509.351562 307.691406 C 509.351562 306.359375 510.425781 305.285156 511.753906 305.285156 C 513.078125 305.285156 514.15625 306.359375 514.15625 307.691406 Z M 514.15625 307.691406 "/>
<path style=" stroke:none;fill-rule:evenodd;fill:rgb(52.156067%,20.391846%,3.921509%);fill-opacity:1;" d="M 518.703125 309.300781 C 514.160156 312.773438 509.617188 312.507812 506.945312 310.902344 C 504.277344 309.300781 504.277344 308.765625 504.808594 308.765625 C 505.339844 308.765625 505.878906 309.300781 508.015625 310.371094 C 510.148438 311.4375 513.355469 311.4375 518.695312 309.300781 Z M 518.703125 309.300781 "/>
<path style=" stroke:none;fill-rule:evenodd;fill:rgb(52.156067%,20.391846%,3.921509%);fill-opacity:1;" d="M 494.691406 317.296875 C 493.546875 317.511719 492.738281 318.523438 492.738281 319.683594 C 492.738281 321.007812 493.828125 322.0625 495.152344 322.0625 C 495.941406 322.0625 496.660156 321.691406 497.105469 321.050781 C 498.035156 321.746094 499.316406 321.820312 500 321.832031 C 500.101562 321.832031 500.242188 321.832031 500.3125 321.832031 C 500.996094 321.820312 502.277344 321.746094 503.203125 321.050781 C 503.65625 321.691406 504.371094 322.0625 505.15625 322.0625 C 506.480469 322.0625 507.582031 321.007812 507.582031 319.683594 C 507.582031 318.523438 506.769531 317.511719 505.628906 317.296875 C 506.269531 317.523438 506.675781 318.144531 506.675781 318.824219 C 506.675781 319.707031 505.960938 320.421875 505.078125 320.421875 C 504.230469 320.421875 503.527344 319.75 503.480469 318.902344 C 503.21875 319.421875 502.183594 320.972656 500.160156 321.050781 C 498.125 320.972656 497.09375 319.421875 496.839844 318.902344 C 496.78125 319.75 496.085938 320.421875 495.234375 320.421875 C 494.347656 320.421875 493.632812 319.707031 493.632812 318.824219 C 493.632812 318.144531 494.046875 317.53125 494.691406 317.296875 Z M 494.691406 317.296875 "/>
<path style=" stroke:none;fill-rule:evenodd;fill:rgb(52.156067%,20.391846%,3.921509%);fill-opacity:1;" d="M 497.300781 324.414062 C 494.628906 324.414062 493.574219 326.832031 491.167969 328.4375 C 492.503906 327.90625 493.554688 326.851562 495.421875 325.78125 C 497.296875 324.710938 498.890625 326.011719 499.957031 326.011719 L 499.992188 326.011719 C 501.0625 326.011719 502.65625 324.710938 504.527344 325.78125 C 506.398438 326.851562 507.488281 327.90625 508.824219 328.4375 C 506.421875 326.832031 505.320312 324.414062 502.648438 324.414062 C 502.117188 324.414062 501.0625 324.703125 499.992188 325.230469 L 499.957031 325.230469 C 498.890625 324.703125 497.832031 324.414062 497.300781 324.414062 Z M 497.300781 324.414062 "/>
<path style=" stroke:none;fill-rule:evenodd;fill:rgb(52.156067%,20.391846%,3.921509%);fill-opacity:1;" d="M 496.398438 327.574219 C 495.34375 327.625 493.953125 327.832031 491.949219 328.4375 C 496.757812 327.367188 497.816406 328.980469 499.957031 328.980469 L 499.992188 328.980469 C 502.128906 328.980469 503.191406 327.367188 508 328.4375 C 502.660156 326.832031 501.597656 327.886719 499.992188 327.886719 L 499.957031 327.886719 C 498.949219 327.886719 498.15625 327.496094 496.398438 327.574219 Z M 496.398438 327.574219 "/>
<path style=" stroke:none;fill-rule:evenodd;fill:rgb(52.156067%,20.391846%,3.921509%);fill-opacity:1;" d="M 492.1875 328.398438 C 491.875 328.40625 491.539062 328.40625 491.175781 328.4375 C 496.78125 328.972656 494.085938 332.191406 499.964844 332.191406 L 500 332.191406 C 505.878906 332.191406 503.21875 328.972656 508.824219 328.4375 C 502.953125 327.90625 504.808594 331.367188 500 331.367188 L 499.964844 331.367188 C 495.453125 331.367188 496.839844 328.34375 492.1875 328.398438 Z M 492.1875 328.398438 "/>
<path style=" stroke:none;fill-rule:evenodd;fill:rgb(52.156067%,20.391846%,3.921509%);fill-opacity:1;" d="M 504.808594 337.074219 C 504.808594 334.417969 502.660156 332.269531 500.007812 332.269531 C 497.351562 332.269531 495.195312 334.417969 495.195312 337.074219 C 495.726562 334.851562 497.71875 333.277344 500.007812 333.277344 C 502.296875 333.277344 504.285156 334.851562 504.808594 337.074219 Z M 504.808594 337.074219 "/>
<path style=" stroke:none;fill-rule:evenodd;fill:rgb(52.156067%,20.391846%,3.921509%);fill-opacity:1;" d="M 478.414062 305.023438 C 484.558594 299.683594 492.296875 298.882812 496.578125 302.886719 C 497.621094 304.289062 498.289062 305.785156 498.566406 307.347656 C 499.101562 310.394531 498.15625 313.679688 495.769531 317.046875 C 496.039062 317.046875 496.578125 317.308594 496.84375 317.578125 C 498.960938 313.523438 499.710938 309.355469 499.015625 305.394531 C 498.835938 304.363281 498.546875 303.34375 498.179688 302.355469 C 492.304688 297.546875 484.289062 297.007812 478.417969 305.023438 Z M 478.414062 305.023438 "/>
<path style=" stroke:none;fill-rule:evenodd;fill:rgb(52.156067%,20.391846%,3.921509%);fill-opacity:1;" d="M 488.023438 303.421875 C 491.5 303.421875 492.296875 304.230469 493.902344 305.5625 C 495.507812 306.898438 496.308594 306.628906 496.570312 306.898438 C 496.839844 307.164062 496.570312 307.964844 496.039062 307.695312 C 495.507812 307.429688 494.433594 306.898438 492.835938 305.5625 C 491.230469 304.222656 489.628906 304.222656 488.023438 304.222656 C 483.222656 304.222656 480.546875 308.234375 480.015625 307.964844 C 479.480469 307.695312 482.683594 303.421875 488.023438 303.421875 Z M 488.023438 303.421875 "/>
<path style=" stroke:none;fill-rule:evenodd;fill:rgb(51.763916%,20.783997%,6.666565%);fill-opacity:1;" d="M 487.859375 305.070312 C 485.492188 305.070312 483.222656 306.101562 481.882812 308.238281 C 484.558594 310.644531 490.453125 310.902344 494.464844 307.964844 C 492.726562 306.097656 490.234375 305.070312 487.859375 305.070312 Z M 487.824219 305.621094 C 490.132812 305.578125 492.285156 306.640625 492.589844 307.691406 C 489.917969 310.632812 485.648438 310.375 482.976562 308.238281 C 484.148438 306.371094 486.03125 305.652344 487.824219 305.621094 Z M 487.824219 305.621094 "/>
<path style=" stroke:none;fill-rule:evenodd;fill:rgb(52.156067%,20.391846%,3.921509%);fill-opacity:1;" d="M 490.578125 307.691406 C 490.578125 309.015625 489.5 310.089844 488.179688 310.089844 C 486.847656 310.089844 485.773438 309.015625 485.773438 307.691406 C 485.773438 306.359375 486.847656 305.285156 488.179688 305.285156 C 489.5 305.285156 490.578125 306.359375 490.578125 307.691406 Z M 490.578125 307.691406 "/>
<path style=" stroke:none;fill-rule:evenodd;fill:rgb(52.156067%,20.391846%,3.921509%);fill-opacity:1;" d="M 481.609375 309.300781 C 486.152344 312.773438 490.691406 312.507812 493.367188 310.902344 C 496.03125 309.300781 496.03125 308.765625 495.5 308.765625 C 494.96875 308.765625 494.433594 309.300781 492.296875 310.371094 C 490.160156 311.4375 486.957031 311.4375 481.617188 309.300781 Z M 481.609375 309.300781 "/>
</g>
</svg>
