<?xml version="1.0" encoding="UTF-8"?>
<svg xmlns="http://www.w3.org/2000/svg" xmlns:xlink="http://www.w3.org/1999/xlink" viewBox="0 0 1000 500" version="1.1">
<g id="surface129">
<rect x="0" y="0" width="1000" height="500" style="fill:rgb(0%,0%,54.508972%);fill-opacity:1;stroke:none;"/>
<path style=" stroke:none;fill-rule:evenodd;fill:rgb(99.998474%,99.998474%,99.998474%);fill-opacity:1;" d="M 250 300 L 264.460938 344.96875 L 308.636719 328.238281 L 282.496094 367.585938 L 323.121094 391.6875 L 276.0625 395.78125 L 282.542969 442.574219 L 250 408.332031 L 217.457031 442.574219 L 223.9375 395.78125 L 176.878906 391.6875 L 217.503906 367.585938 L 191.363281 328.238281 L 235.539062 344.96875 Z M 250 300 "/>
<path style=" stroke:none;fill-rule:evenodd;fill:rgb(99.998474%,99.998474%,99.998474%);fill-opacity:1;" d="M 750 380.953125 L 756.886719 402.367188 L 777.921875 394.398438 L 765.476562 413.136719 L 784.820312 424.613281 L 762.410156 426.5625 L 765.496094 448.84375 L 750 432.539062 L 734.503906 448.84375 L 737.589844 426.5625 L 715.179688 424.613281 L 734.523438 413.136719 L 722.078125 394.398438 L 743.113281 402.367188 Z M 750 380.953125 "/>
<path style=" stroke:none;fill-rule:evenodd;fill:rgb(99.998474%,99.998474%,99.998474%);fill-opacity:1;" d="M 625 183.039062 L 631.886719 204.449219 L 652.921875 196.484375 L 640.476562 215.21875 L 659.820312 226.695312 L 637.410156 228.644531 L 640.496094 250.925781 L 625 234.625 L 609.503906 250.925781 L 612.589844 228.644531 L 590.179688 226.695312 L 609.523438 215.21875 L 597.078125 196.484375 L 618.113281 204.449219 Z M 625 183.039062 "/>
<path style=" stroke:none;fill-rule:evenodd;fill:rgb(99.998474%,99.998474%,99.998474%);fill-opacity:1;" d="M 750 47.621094 L 756.886719 69.03125 L 777.921875 61.066406 L 765.476562 79.800781 L 784.820312 91.28125 L 762.410156 93.230469 L 765.496094 115.507812 L 750 99.203125 L 734.503906 115.507812 L 737.589844 93.230469 L 715.179688 91.28125 L 734.523438 79.800781 L 722.078125 61.066406 L 743.113281 69.03125 Z M 750 47.621094 "/>
<path style=" stroke:none;fill-rule:evenodd;fill:rgb(99.998474%,99.998474%,99.998474%);fill-opacity:1;" d="M 861.109375 149.703125 L 868 171.117188 L 889.035156 163.152344 L 876.585938 181.882812 L 895.929688 193.363281 L 873.519531 195.3125 L 876.605469 217.59375 L 861.109375 201.289062 L 845.617188 217.59375 L 848.703125 195.3125 L 826.292969 193.363281 L 845.632812 181.882812 L 833.1875 163.152344 L 854.226562 171.117188 Z M 861.109375 149.703125 "/>
<path style=" stroke:none;fill-rule:evenodd;fill:rgb(99.998474%,99.998474%,99.998474%);fill-opacity:1;" d="M 800 250 L 805.441406 263.34375 L 819.8125 264.398438 L 808.808594 273.695312 L 812.242188 287.6875 L 800 280.09375 L 787.753906 287.6875 L 791.195312 273.695312 L 780.1875 264.398438 L 794.554688 263.34375 Z M 800 250 "/>
<path style=" stroke:none;fill-rule:evenodd;fill:rgb(99.998474%,99.998474%,99.998474%);fill-opacity:1;" d="M 208.332031 0 L 291.667969 0 L 291.667969 83.332031 L 500 83.332031 L 500 166.667969 L 291.667969 166.667969 L 291.667969 250 L 208.332031 250 L 208.332031 166.667969 L 0 166.667969 L 0 83.332031 L 208.332031 83.332031 Z M 208.332031 0 "/>
<path style=" stroke:none;fill-rule:evenodd;fill:rgb(99.998474%,99.998474%,99.998474%);fill-opacity:1;" d="M 0 0 L 55.902344 0 L 500 222.050781 L 500 250 L 444.101562 250 L 0 27.949219 Z M 0 0 "/>
<path style=" stroke:none;fill-rule:evenodd;fill:rgb(99.998474%,99.998474%,99.998474%);fill-opacity:1;" d="M 500 0 L 444.101562 0 L 0 222.050781 L 0 250 L 55.902344 250 L 500 27.949219 Z M 500 0 "/>
<path style=" stroke:none;fill-rule:evenodd;fill:rgb(99.998474%,0%,0%);fill-opacity:1;" d="M 225 0 L 275.003906 0 L 275.003906 99.996094 L 500 99.996094 L 500 150.003906 L 275.003906 150.003906 L 275.003906 250 L 225 250 L 225 150.003906 L 0 150.003906 L 0 99.996094 L 225 99.996094 Z M 225 0 "/>
<path style=" stroke:none;fill-rule:evenodd;fill:rgb(99.998474%,0%,0%);fill-opacity:1;" d="M 0 0 L 166.667969 83.332031 L 129.398438 83.332031 L 0 18.636719 Z M 500 0 L 462.730469 0 L 296.066406 83.332031 L 333.332031 83.332031 Z M 500 0 "/>
<path style=" stroke:none;fill-rule:evenodd;fill:rgb(99.998474%,0%,0%);fill-opacity:1;" d="M 500 250 L 333.332031 166.667969 L 370.601562 166.667969 L 500 231.367188 Z M 0 250 L 37.269531 250 L 203.933594 166.667969 L 166.667969 166.667969 Z M 0 250 "/>
</g>
</svg>
