<?xml version="1.0" encoding="UTF-8"?>
<svg xmlns="http://www.w3.org/2000/svg" xmlns:xlink="http://www.w3.org/1999/xlink" viewBox="0 0 1000 500" version="1.1">
<g id="surface139">
<rect x="0" y="0" width="1000" height="500" style="fill:rgb(0%,59.606934%,76.469421%);fill-opacity:1;stroke:none;"/>
<path style=" stroke:none;fill-rule:evenodd;fill:rgb(87.841797%,0%,20.391846%);fill-opacity:1;" d="M 0 166.667969 L 1000 166.667969 L 1000 333.332031 L 0 333.332031 Z M 0 166.667969 "/>
<path style=" stroke:none;fill-rule:evenodd;fill:rgb(0%,68.234253%,39.607239%);fill-opacity:1;" d="M 0 333.332031 L 1000 333.332031 L 1000 500 L 0 500 Z M 0 333.332031 "/>
<path style=" stroke:none;fill-rule:evenodd;fill:rgb(99.998474%,99.998474%,99.998474%);fill-opacity:1;" d="M 559.167969 250 C 559.167969 291.421875 525.589844 325 484.167969 325 C 442.746094 325 409.167969 291.421875 409.167969 250 C 409.167969 208.578125 442.746094 175 484.167969 175 C 525.589844 175 559.167969 208.578125 559.167969 250 Z M 559.167969 250 "/>
<path style=" stroke:none;fill-rule:evenodd;fill:rgb(87.841797%,0%,20.391846%);fill-opacity:1;" d="M 562.5 250 C 562.5 284.519531 534.519531 312.5 500 312.5 C 465.480469 312.5 437.5 284.519531 437.5 250 C 437.5 215.480469 465.480469 187.5 500 187.5 C 534.519531 187.5 562.5 215.480469 562.5 250 Z M 562.5 250 "/>
<path style=" stroke:none;fill-rule:evenodd;fill:rgb(99.998474%,99.998474%,99.998474%);fill-opacity:1;" d="M 596.984375 279.445312 L 575.484375 269.242188 L 567.527344 291.667969 L 559.542969 269.253906 L 538.058594 279.484375 L 548.257812 257.988281 L 525.835938 250.027344 L 548.246094 242.039062 L 538.015625 220.554688 L 559.511719 230.757812 L 567.472656 208.332031 L 575.460938 230.746094 L 596.941406 220.515625 L 586.742188 242.011719 L 609.167969 249.972656 L 586.75 257.960938 Z M 596.984375 279.445312 "/>
</g>
</svg>
