<?xml version="1.0" encoding="UTF-8"?>
<svg xmlns="http://www.w3.org/2000/svg" xmlns:xlink="http://www.w3.org/1999/xlink" viewBox="0 0 1000 500" version="1.1">
<g id="surface164">
<rect x="0" y="0" width="1000" height="500" style="fill:rgb(78.430176%,19.215393%,24.313354%);fill-opacity:1;stroke:none;"/>
<path style=" stroke:none;fill-rule:evenodd;fill:rgb(29.019165%,65.097046%,34.117126%);fill-opacity:1;" d="M 0 333.332031 L 1000 333.332031 L 1000 500 L 0 500 Z M 0 333.332031 "/>
<path style=" stroke:none;fill-rule:evenodd;fill:rgb(99.998474%,99.998474%,99.998474%);fill-opacity:1;" d="M 0 0 L 111.109375 0 L 111.109375 500 L 0 500 Z M 0 0 "/>
<path style=" stroke:none;fill-rule:evenodd;fill:rgb(78.430176%,19.215393%,24.313354%);fill-opacity:1;" d="M 19.324219 0 L 33.816406 0 L 33.816406 8.195312 L 38.644531 8.195312 L 38.644531 16.394531 L 43.480469 16.394531 L 43.480469 24.585938 L 48.308594 24.585938 L 48.308594 32.785156 L 53.140625 32.785156 L 53.140625 40.984375 L 48.308594 40.984375 L 48.308594 49.179688 L 43.480469 49.179688 L 43.480469 57.378906 L 38.644531 57.378906 L 38.644531 65.578125 L 33.816406 65.578125 L 33.816406 73.769531 L 28.988281 73.769531 L 28.988281 81.964844 L 24.152344 81.964844 L 24.152344 73.769531 L 19.324219 73.769531 L 19.324219 65.578125 L 14.492188 65.578125 L 14.492188 57.378906 L 9.664062 57.378906 L 9.664062 49.179688 L 4.828125 49.179688 L 4.828125 40.984375 L 0 40.984375 L 0 32.785156 L 4.828125 32.785156 L 4.828125 24.585938 L 9.664062 24.585938 L 9.664062 16.394531 L 14.492188 16.394531 L 14.492188 8.195312 L 19.324219 8.195312 Z M 24.152344 16.394531 L 28.988281 16.394531 L 28.988281 24.585938 L 33.816406 24.585938 L 33.816406 32.785156 L 38.644531 32.785156 L 38.644531 40.984375 L 33.816406 40.984375 L 33.816406 49.179688 L 28.988281 49.179688 L 28.988281 57.378906 L 24.152344 57.378906 L 24.152344 49.179688 L 19.324219 49.179688 L 19.324219 40.984375 L 14.492188 40.984375 L 14.492188 32.785156 L 19.324219 32.785156 L 19.324219 24.585938 L 24.152344 24.585938 Z M 24.152344 32.785156 L 28.988281 32.785156 L 28.988281 40.984375 L 24.152344 40.984375 Z M 0 8.195312 L 4.828125 8.195312 L 4.828125 16.394531 L 0 16.394531 Z M 0 57.378906 L 4.828125 57.378906 L 4.828125 65.578125 L 0 65.578125 Z M 53.140625 0 L 56.039062 0 L 56.039062 16.394531 L 53.140625 16.394531 Z M 53.140625 57.378906 L 56.039062 57.378906 L 56.039062 73.769531 L 53.140625 73.769531 Z M 9.664062 73.769531 L 14.492188 73.769531 L 14.492188 81.964844 L 19.324219 81.964844 L 19.324219 90.164062 L 24.152344 90.164062 L 24.152344 98.359375 L 19.324219 98.359375 L 19.324219 106.558594 L 14.492188 106.558594 L 14.492188 114.75 L 9.664062 114.75 L 9.664062 106.558594 L 4.828125 106.558594 L 4.828125 98.359375 L 0 98.359375 L 0 90.164062 L 4.828125 90.164062 L 4.828125 81.964844 L 9.664062 81.964844 Z M 9.664062 90.164062 L 14.492188 90.164062 L 14.492188 98.359375 L 9.664062 98.359375 Z M 38.644531 73.769531 L 43.480469 73.769531 L 43.480469 81.964844 L 48.308594 81.964844 L 48.308594 90.164062 L 53.140625 90.164062 L 53.140625 98.359375 L 48.308594 98.359375 L 48.308594 106.558594 L 43.480469 106.558594 L 43.480469 114.75 L 38.644531 114.75 L 38.644531 106.558594 L 33.816406 106.558594 L 33.816406 98.359375 L 28.988281 98.359375 L 28.988281 90.164062 L 33.816406 90.164062 L 33.816406 81.964844 L 38.644531 81.964844 Z M 38.644531 90.164062 L 43.480469 90.164062 L 43.480469 98.359375 L 38.644531 98.359375 Z M 0 122.949219 L 4.828125 122.949219 L 4.828125 131.148438 L 0 131.148438 Z M 53.140625 114.75 L 56.039062 114.75 L 56.039062 131.148438 L 53.140625 131.148438 Z M 53.140625 114.75 "/>
<path style=" stroke:none;fill-rule:evenodd;fill:rgb(78.430176%,19.215393%,24.313354%);fill-opacity:1;" d="M 0 147.542969 L 4.828125 147.542969 L 4.828125 139.34375 L 9.664062 139.34375 L 9.664062 131.148438 L 14.492188 131.148438 L 14.492188 122.949219 L 19.324219 122.949219 L 19.324219 114.75 L 24.152344 114.75 L 24.152344 106.558594 L 28.988281 106.558594 L 28.988281 114.75 L 33.816406 114.75 L 33.816406 122.949219 L 38.644531 122.949219 L 38.644531 131.148438 L 43.480469 131.148438 L 43.480469 139.34375 L 48.308594 139.34375 L 48.308594 147.542969 L 53.140625 147.542969 L 53.140625 155.742188 L 56.039062 155.742188 L 56.039062 188.523438 L 53.140625 188.523438 L 53.140625 196.722656 L 48.308594 196.722656 L 48.308594 204.914062 L 43.480469 204.914062 L 43.480469 213.113281 L 38.644531 213.113281 L 38.644531 221.3125 L 33.816406 221.3125 L 33.816406 229.507812 L 28.988281 229.507812 L 28.988281 250.820312 L 19.324219 250.820312 L 19.324219 245.902344 L 14.492188 245.902344 L 14.492188 237.707031 L 9.664062 237.707031 L 9.664062 229.507812 L 4.828125 229.507812 L 4.828125 221.3125 L 0 221.3125 L 0 196.722656 L 4.828125 196.722656 L 4.828125 204.914062 L 9.664062 204.914062 L 9.664062 213.113281 L 14.492188 213.113281 L 14.492188 221.3125 L 19.324219 221.3125 L 19.324219 213.113281 L 24.152344 213.113281 L 24.152344 204.914062 L 28.988281 204.914062 L 28.988281 196.722656 L 33.816406 196.722656 L 33.816406 188.523438 L 38.644531 188.523438 L 38.644531 180.328125 L 43.480469 180.328125 L 43.480469 172.128906 L 38.644531 172.128906 L 38.644531 163.933594 L 33.816406 163.933594 L 33.816406 155.742188 L 19.324219 155.742188 L 19.324219 163.933594 L 28.988281 163.933594 L 28.988281 172.128906 L 24.152344 172.128906 L 24.152344 180.328125 L 19.324219 180.328125 L 19.324219 188.523438 L 14.492188 188.523438 L 14.492188 180.328125 L 9.664062 180.328125 L 9.664062 172.128906 L 4.828125 172.128906 L 4.828125 163.933594 L 0 163.933594 Z M 0 180.328125 L 4.828125 180.328125 L 4.828125 188.523438 L 0 188.523438 Z M 53.140625 204.914062 L 56.039062 204.914062 L 56.039062 213.113281 L 53.140625 213.113281 Z M 43.480469 221.3125 L 48.308594 221.3125 L 48.308594 229.507812 L 53.140625 229.507812 L 53.140625 237.707031 L 56.039062 237.707031 L 56.039062 250.820312 L 53.140625 250.820312 L 53.140625 245.902344 L 48.308594 245.902344 L 48.308594 237.707031 L 43.480469 237.707031 Z M 33.816406 245.902344 L 38.644531 245.902344 L 38.644531 250.820312 L 33.816406 250.820312 Z M 33.816406 245.902344 "/>
<path style=" stroke:none;fill-rule:evenodd;fill:rgb(78.430176%,19.215393%,24.313354%);fill-opacity:1;" d="M 91.785156 0 L 77.292969 0 L 77.292969 8.195312 L 72.464844 8.195312 L 72.464844 16.394531 L 67.632812 16.394531 L 67.632812 24.585938 L 62.804688 24.585938 L 62.804688 32.785156 L 57.96875 32.785156 L 57.96875 40.984375 L 62.804688 40.984375 L 62.804688 49.179688 L 67.632812 49.179688 L 67.632812 57.378906 L 72.464844 57.378906 L 72.464844 65.578125 L 77.292969 65.578125 L 77.292969 73.769531 L 82.125 73.769531 L 82.125 81.964844 L 86.957031 81.964844 L 86.957031 73.769531 L 91.785156 73.769531 L 91.785156 65.578125 L 96.621094 65.578125 L 96.621094 57.378906 L 101.449219 57.378906 L 101.449219 49.179688 L 106.28125 49.179688 L 106.28125 40.984375 L 111.109375 40.984375 L 111.109375 32.785156 L 106.28125 32.785156 L 106.28125 24.585938 L 101.449219 24.585938 L 101.449219 16.394531 L 96.621094 16.394531 L 96.621094 8.195312 L 91.785156 8.195312 Z M 86.957031 16.394531 L 82.125 16.394531 L 82.125 24.585938 L 77.292969 24.585938 L 77.292969 32.785156 L 72.464844 32.785156 L 72.464844 40.984375 L 77.292969 40.984375 L 77.292969 49.179688 L 82.125 49.179688 L 82.125 57.378906 L 86.957031 57.378906 L 86.957031 49.179688 L 91.785156 49.179688 L 91.785156 40.984375 L 96.621094 40.984375 L 96.621094 32.785156 L 91.785156 32.785156 L 91.785156 24.585938 L 86.957031 24.585938 Z M 86.957031 32.785156 L 82.125 32.785156 L 82.125 40.984375 L 86.957031 40.984375 Z M 111.109375 8.195312 L 106.28125 8.195312 L 106.28125 16.394531 L 111.109375 16.394531 Z M 111.109375 57.378906 L 106.28125 57.378906 L 106.28125 65.578125 L 111.109375 65.578125 Z M 57.96875 0 L 55.070312 0 L 55.070312 16.394531 L 57.96875 16.394531 Z M 57.96875 57.378906 L 55.070312 57.378906 L 55.070312 73.769531 L 57.96875 73.769531 Z M 101.449219 73.769531 L 96.621094 73.769531 L 96.621094 81.964844 L 91.785156 81.964844 L 91.785156 90.164062 L 86.957031 90.164062 L 86.957031 98.359375 L 91.785156 98.359375 L 91.785156 106.558594 L 96.621094 106.558594 L 96.621094 114.75 L 101.449219 114.75 L 101.449219 106.558594 L 106.28125 106.558594 L 106.28125 98.359375 L 111.109375 98.359375 L 111.109375 90.164062 L 106.28125 90.164062 L 106.28125 81.964844 L 101.449219 81.964844 Z M 101.449219 90.164062 L 96.621094 90.164062 L 96.621094 98.359375 L 101.449219 98.359375 Z M 72.464844 73.769531 L 67.632812 73.769531 L 67.632812 81.964844 L 62.804688 81.964844 L 62.804688 90.164062 L 57.96875 90.164062 L 57.96875 98.359375 L 62.804688 98.359375 L 62.804688 106.558594 L 67.632812 106.558594 L 67.632812 114.75 L 72.464844 114.75 L 72.464844 106.558594 L 77.292969 106.558594 L 77.292969 98.359375 L 82.125 98.359375 L 82.125 90.164062 L 77.292969 90.164062 L 77.292969 81.964844 L 72.464844 81.964844 Z M 72.464844 90.164062 L 67.632812 90.164062 L 67.632812 98.359375 L 72.464844 98.359375 Z M 111.109375 122.949219 L 106.28125 122.949219 L 106.28125 131.148438 L 111.109375 131.148438 Z M 57.96875 114.75 L 55.070312 114.75 L 55.070312 131.148438 L 57.96875 131.148438 Z M 57.96875 114.75 "/>
<path style=" stroke:none;fill-rule:evenodd;fill:rgb(78.430176%,19.215393%,24.313354%);fill-opacity:1;" d="M 111.109375 147.542969 L 106.28125 147.542969 L 106.28125 139.34375 L 101.449219 139.34375 L 101.449219 131.148438 L 96.621094 131.148438 L 96.621094 122.949219 L 91.785156 122.949219 L 91.785156 114.75 L 86.957031 114.75 L 86.957031 106.558594 L 82.125 106.558594 L 82.125 114.75 L 77.292969 114.75 L 77.292969 122.949219 L 72.464844 122.949219 L 72.464844 131.148438 L 67.632812 131.148438 L 67.632812 139.34375 L 62.804688 139.34375 L 62.804688 147.542969 L 57.96875 147.542969 L 57.96875 155.742188 L 55.070312 155.742188 L 55.070312 188.523438 L 57.96875 188.523438 L 57.96875 196.722656 L 62.804688 196.722656 L 62.804688 204.914062 L 67.632812 204.914062 L 67.632812 213.113281 L 72.464844 213.113281 L 72.464844 221.3125 L 77.292969 221.3125 L 77.292969 229.507812 L 82.125 229.507812 L 82.125 250.820312 L 91.785156 250.820312 L 91.785156 245.902344 L 96.621094 245.902344 L 96.621094 237.707031 L 101.449219 237.707031 L 101.449219 229.507812 L 106.28125 229.507812 L 106.28125 221.3125 L 111.109375 221.3125 L 111.109375 196.722656 L 106.28125 196.722656 L 106.28125 204.914062 L 101.449219 204.914062 L 101.449219 213.113281 L 96.621094 213.113281 L 96.621094 221.3125 L 91.785156 221.3125 L 91.785156 213.113281 L 86.957031 213.113281 L 86.957031 204.914062 L 82.125 204.914062 L 82.125 196.722656 L 77.292969 196.722656 L 77.292969 188.523438 L 72.464844 188.523438 L 72.464844 180.328125 L 67.632812 180.328125 L 67.632812 172.128906 L 72.464844 172.128906 L 72.464844 163.933594 L 77.292969 163.933594 L 77.292969 155.742188 L 91.785156 155.742188 L 91.785156 163.933594 L 82.125 163.933594 L 82.125 172.128906 L 86.957031 172.128906 L 86.957031 180.328125 L 91.785156 180.328125 L 91.785156 188.523438 L 96.621094 188.523438 L 96.621094 180.328125 L 101.449219 180.328125 L 101.449219 172.128906 L 106.28125 172.128906 L 106.28125 163.933594 L 111.109375 163.933594 Z M 111.109375 180.328125 L 106.28125 180.328125 L 106.28125 188.523438 L 111.109375 188.523438 Z M 57.96875 204.914062 L 55.070312 204.914062 L 55.070312 213.113281 L 57.96875 213.113281 Z M 67.632812 221.3125 L 62.804688 221.3125 L 62.804688 229.507812 L 57.96875 229.507812 L 57.96875 237.707031 L 55.070312 237.707031 L 55.070312 250.820312 L 57.96875 250.820312 L 57.96875 245.902344 L 62.804688 245.902344 L 62.804688 237.707031 L 67.632812 237.707031 Z M 77.292969 245.902344 L 72.464844 245.902344 L 72.464844 250.820312 L 77.292969 250.820312 Z M 77.292969 245.902344 "/>
<path style=" stroke:none;fill-rule:evenodd;fill:rgb(78.430176%,19.215393%,24.313354%);fill-opacity:1;" d="M 19.324219 500 L 33.816406 500 L 33.816406 491.804688 L 38.644531 491.804688 L 38.644531 483.605469 L 43.480469 483.605469 L 43.480469 475.414062 L 48.308594 475.414062 L 48.308594 467.214844 L 53.140625 467.214844 L 53.140625 459.015625 L 48.308594 459.015625 L 48.308594 450.820312 L 43.480469 450.820312 L 43.480469 442.621094 L 38.644531 442.621094 L 38.644531 434.421875 L 33.816406 434.421875 L 33.816406 426.230469 L 28.988281 426.230469 L 28.988281 418.035156 L 24.152344 418.035156 L 24.152344 426.230469 L 19.324219 426.230469 L 19.324219 434.421875 L 14.492188 434.421875 L 14.492188 442.621094 L 9.664062 442.621094 L 9.664062 450.820312 L 4.828125 450.820312 L 4.828125 459.015625 L 0 459.015625 L 0 467.214844 L 4.828125 467.214844 L 4.828125 475.414062 L 9.664062 475.414062 L 9.664062 483.605469 L 14.492188 483.605469 L 14.492188 491.804688 L 19.324219 491.804688 Z M 24.152344 483.605469 L 28.988281 483.605469 L 28.988281 475.414062 L 33.816406 475.414062 L 33.816406 467.214844 L 38.644531 467.214844 L 38.644531 459.015625 L 33.816406 459.015625 L 33.816406 450.820312 L 28.988281 450.820312 L 28.988281 442.621094 L 24.152344 442.621094 L 24.152344 450.820312 L 19.324219 450.820312 L 19.324219 459.015625 L 14.492188 459.015625 L 14.492188 467.214844 L 19.324219 467.214844 L 19.324219 475.414062 L 24.152344 475.414062 Z M 24.152344 467.214844 L 28.988281 467.214844 L 28.988281 459.015625 L 24.152344 459.015625 Z M 0 491.804688 L 4.828125 491.804688 L 4.828125 483.605469 L 0 483.605469 Z M 0 442.621094 L 4.828125 442.621094 L 4.828125 434.421875 L 0 434.421875 Z M 53.140625 500 L 56.039062 500 L 56.039062 483.605469 L 53.140625 483.605469 Z M 53.140625 442.621094 L 56.039062 442.621094 L 56.039062 426.230469 L 53.140625 426.230469 Z M 9.664062 426.230469 L 14.492188 426.230469 L 14.492188 418.035156 L 19.324219 418.035156 L 19.324219 409.835938 L 24.152344 409.835938 L 24.152344 401.640625 L 19.324219 401.640625 L 19.324219 393.441406 L 14.492188 393.441406 L 14.492188 385.25 L 9.664062 385.25 L 9.664062 393.441406 L 4.828125 393.441406 L 4.828125 401.640625 L 0 401.640625 L 0 409.835938 L 4.828125 409.835938 L 4.828125 418.035156 L 9.664062 418.035156 Z M 9.664062 409.835938 L 14.492188 409.835938 L 14.492188 401.640625 L 9.664062 401.640625 Z M 38.644531 426.230469 L 43.480469 426.230469 L 43.480469 418.035156 L 48.308594 418.035156 L 48.308594 409.835938 L 53.140625 409.835938 L 53.140625 401.640625 L 48.308594 401.640625 L 48.308594 393.441406 L 43.480469 393.441406 L 43.480469 385.25 L 38.644531 385.25 L 38.644531 393.441406 L 33.816406 393.441406 L 33.816406 401.640625 L 28.988281 401.640625 L 28.988281 409.835938 L 33.816406 409.835938 L 33.816406 418.035156 L 38.644531 418.035156 Z M 38.644531 409.835938 L 43.480469 409.835938 L 43.480469 401.640625 L 38.644531 401.640625 Z M 0 377.050781 L 4.828125 377.050781 L 4.828125 368.851562 L 0 368.851562 Z M 53.140625 385.25 L 56.039062 385.25 L 56.039062 368.851562 L 53.140625 368.851562 Z M 53.140625 385.25 "/>
<path style=" stroke:none;fill-rule:evenodd;fill:rgb(78.430176%,19.215393%,24.313354%);fill-opacity:1;" d="M 0 352.457031 L 4.828125 352.457031 L 4.828125 360.65625 L 9.664062 360.65625 L 9.664062 368.851562 L 14.492188 368.851562 L 14.492188 377.050781 L 19.324219 377.050781 L 19.324219 385.25 L 24.152344 385.25 L 24.152344 393.441406 L 28.988281 393.441406 L 28.988281 385.25 L 33.816406 385.25 L 33.816406 377.050781 L 38.644531 377.050781 L 38.644531 368.851562 L 43.480469 368.851562 L 43.480469 360.65625 L 48.308594 360.65625 L 48.308594 352.457031 L 53.140625 352.457031 L 53.140625 344.257812 L 56.039062 344.257812 L 56.039062 311.476562 L 53.140625 311.476562 L 53.140625 303.277344 L 48.308594 303.277344 L 48.308594 295.085938 L 43.480469 295.085938 L 43.480469 286.886719 L 38.644531 286.886719 L 38.644531 278.6875 L 33.816406 278.6875 L 33.816406 270.492188 L 28.988281 270.492188 L 28.988281 249.179688 L 19.324219 249.179688 L 19.324219 254.097656 L 14.492188 254.097656 L 14.492188 262.292969 L 9.664062 262.292969 L 9.664062 270.492188 L 4.828125 270.492188 L 4.828125 278.6875 L 0 278.6875 L 0 303.277344 L 4.828125 303.277344 L 4.828125 295.085938 L 9.664062 295.085938 L 9.664062 286.886719 L 14.492188 286.886719 L 14.492188 278.6875 L 19.324219 278.6875 L 19.324219 286.886719 L 24.152344 286.886719 L 24.152344 295.085938 L 28.988281 295.085938 L 28.988281 303.277344 L 33.816406 303.277344 L 33.816406 311.476562 L 38.644531 311.476562 L 38.644531 319.671875 L 43.480469 319.671875 L 43.480469 327.871094 L 38.644531 327.871094 L 38.644531 336.066406 L 33.816406 336.066406 L 33.816406 344.257812 L 19.324219 344.257812 L 19.324219 336.066406 L 28.988281 336.066406 L 28.988281 327.871094 L 24.152344 327.871094 L 24.152344 319.671875 L 19.324219 319.671875 L 19.324219 311.476562 L 14.492188 311.476562 L 14.492188 319.671875 L 9.664062 319.671875 L 9.664062 327.871094 L 4.828125 327.871094 L 4.828125 336.066406 L 0 336.066406 Z M 0 319.671875 L 4.828125 319.671875 L 4.828125 311.476562 L 0 311.476562 Z M 53.140625 295.085938 L 56.039062 295.085938 L 56.039062 286.886719 L 53.140625 286.886719 Z M 43.480469 278.6875 L 48.308594 278.6875 L 48.308594 270.492188 L 53.140625 270.492188 L 53.140625 262.292969 L 56.039062 262.292969 L 56.039062 249.179688 L 53.140625 249.179688 L 53.140625 254.097656 L 48.308594 254.097656 L 48.308594 262.292969 L 43.480469 262.292969 Z M 33.816406 254.097656 L 38.644531 254.097656 L 38.644531 249.179688 L 33.816406 249.179688 Z M 33.816406 254.097656 "/>
<path style=" stroke:none;fill-rule:evenodd;fill:rgb(78.430176%,19.215393%,24.313354%);fill-opacity:1;" d="M 91.785156 500 L 77.292969 500 L 77.292969 491.804688 L 72.464844 491.804688 L 72.464844 483.605469 L 67.632812 483.605469 L 67.632812 475.414062 L 62.804688 475.414062 L 62.804688 467.214844 L 57.96875 467.214844 L 57.96875 459.015625 L 62.804688 459.015625 L 62.804688 450.820312 L 67.632812 450.820312 L 67.632812 442.621094 L 72.464844 442.621094 L 72.464844 434.421875 L 77.292969 434.421875 L 77.292969 426.230469 L 82.125 426.230469 L 82.125 418.035156 L 86.957031 418.035156 L 86.957031 426.230469 L 91.785156 426.230469 L 91.785156 434.421875 L 96.621094 434.421875 L 96.621094 442.621094 L 101.449219 442.621094 L 101.449219 450.820312 L 106.28125 450.820312 L 106.28125 459.015625 L 111.109375 459.015625 L 111.109375 467.214844 L 106.28125 467.214844 L 106.28125 475.414062 L 101.449219 475.414062 L 101.449219 483.605469 L 96.621094 483.605469 L 96.621094 491.804688 L 91.785156 491.804688 Z M 86.957031 483.605469 L 82.125 483.605469 L 82.125 475.414062 L 77.292969 475.414062 L 77.292969 467.214844 L 72.464844 467.214844 L 72.464844 459.015625 L 77.292969 459.015625 L 77.292969 450.820312 L 82.125 450.820312 L 82.125 442.621094 L 86.957031 442.621094 L 86.957031 450.820312 L 91.785156 450.820312 L 91.785156 459.015625 L 96.621094 459.015625 L 96.621094 467.214844 L 91.785156 467.214844 L 91.785156 475.414062 L 86.957031 475.414062 Z M 86.957031 467.214844 L 82.125 467.214844 L 82.125 459.015625 L 86.957031 459.015625 Z M 111.109375 491.804688 L 106.28125 491.804688 L 106.28125 483.605469 L 111.109375 483.605469 Z M 111.109375 442.621094 L 106.28125 442.621094 L 106.28125 434.421875 L 111.109375 434.421875 Z M 57.96875 500 L 55.070312 500 L 55.070312 483.605469 L 57.96875 483.605469 Z M 57.96875 442.621094 L 55.070312 442.621094 L 55.070312 426.230469 L 57.96875 426.230469 Z M 101.449219 426.230469 L 96.621094 426.230469 L 96.621094 418.035156 L 91.785156 418.035156 L 91.785156 409.835938 L 86.957031 409.835938 L 86.957031 401.640625 L 91.785156 401.640625 L 91.785156 393.441406 L 96.621094 393.441406 L 96.621094 385.25 L 101.449219 385.25 L 101.449219 393.441406 L 106.28125 393.441406 L 106.28125 401.640625 L 111.109375 401.640625 L 111.109375 409.835938 L 106.28125 409.835938 L 106.28125 418.035156 L 101.449219 418.035156 Z M 101.449219 409.835938 L 96.621094 409.835938 L 96.621094 401.640625 L 101.449219 401.640625 Z M 72.464844 426.230469 L 67.632812 426.230469 L 67.632812 418.035156 L 62.804688 418.035156 L 62.804688 409.835938 L 57.96875 409.835938 L 57.96875 401.640625 L 62.804688 401.640625 L 62.804688 393.441406 L 67.632812 393.441406 L 67.632812 385.25 L 72.464844 385.25 L 72.464844 393.441406 L 77.292969 393.441406 L 77.292969 401.640625 L 82.125 401.640625 L 82.125 409.835938 L 77.292969 409.835938 L 77.292969 418.035156 L 72.464844 418.035156 Z M 72.464844 409.835938 L 67.632812 409.835938 L 67.632812 401.640625 L 72.464844 401.640625 Z M 111.109375 377.050781 L 106.28125 377.050781 L 106.28125 368.851562 L 111.109375 368.851562 Z M 57.96875 385.25 L 55.070312 385.25 L 55.070312 368.851562 L 57.96875 368.851562 Z M 57.96875 385.25 "/>
<path style=" stroke:none;fill-rule:evenodd;fill:rgb(78.430176%,19.215393%,24.313354%);fill-opacity:1;" d="M 111.109375 352.457031 L 106.28125 352.457031 L 106.28125 360.65625 L 101.449219 360.65625 L 101.449219 368.851562 L 96.621094 368.851562 L 96.621094 377.050781 L 91.785156 377.050781 L 91.785156 385.25 L 86.957031 385.25 L 86.957031 393.441406 L 82.125 393.441406 L 82.125 385.25 L 77.292969 385.25 L 77.292969 377.050781 L 72.464844 377.050781 L 72.464844 368.851562 L 67.632812 368.851562 L 67.632812 360.65625 L 62.804688 360.65625 L 62.804688 352.457031 L 57.96875 352.457031 L 57.96875 344.257812 L 55.070312 344.257812 L 55.070312 311.476562 L 57.96875 311.476562 L 57.96875 303.277344 L 62.804688 303.277344 L 62.804688 295.085938 L 67.632812 295.085938 L 67.632812 286.886719 L 72.464844 286.886719 L 72.464844 278.6875 L 77.292969 278.6875 L 77.292969 270.492188 L 82.125 270.492188 L 82.125 249.179688 L 91.785156 249.179688 L 91.785156 254.097656 L 96.621094 254.097656 L 96.621094 262.292969 L 101.449219 262.292969 L 101.449219 270.492188 L 106.28125 270.492188 L 106.28125 278.6875 L 111.109375 278.6875 L 111.109375 303.277344 L 106.28125 303.277344 L 106.28125 295.085938 L 101.449219 295.085938 L 101.449219 286.886719 L 96.621094 286.886719 L 96.621094 278.6875 L 91.785156 278.6875 L 91.785156 286.886719 L 86.957031 286.886719 L 86.957031 295.085938 L 82.125 295.085938 L 82.125 303.277344 L 77.292969 303.277344 L 77.292969 311.476562 L 72.464844 311.476562 L 72.464844 319.671875 L 67.632812 319.671875 L 67.632812 327.871094 L 72.464844 327.871094 L 72.464844 336.066406 L 77.292969 336.066406 L 77.292969 344.257812 L 91.785156 344.257812 L 91.785156 336.066406 L 82.125 336.066406 L 82.125 327.871094 L 86.957031 327.871094 L 86.957031 319.671875 L 91.785156 319.671875 L 91.785156 311.476562 L 96.621094 311.476562 L 96.621094 319.671875 L 101.449219 319.671875 L 101.449219 327.871094 L 106.28125 327.871094 L 106.28125 336.066406 L 111.109375 336.066406 Z M 111.109375 319.671875 L 106.28125 319.671875 L 106.28125 311.476562 L 111.109375 311.476562 Z M 57.96875 295.085938 L 55.070312 295.085938 L 55.070312 286.886719 L 57.96875 286.886719 Z M 67.632812 278.6875 L 62.804688 278.6875 L 62.804688 270.492188 L 57.96875 270.492188 L 57.96875 262.292969 L 55.070312 262.292969 L 55.070312 249.179688 L 57.96875 249.179688 L 57.96875 254.097656 L 62.804688 254.097656 L 62.804688 262.292969 L 67.632812 262.292969 Z M 77.292969 254.097656 L 72.464844 254.097656 L 72.464844 249.179688 L 77.292969 249.179688 Z M 77.292969 254.097656 "/>
</g>
</svg>
