<?xml version="1.0" encoding="UTF-8"?>
<svg xmlns="http://www.w3.org/2000/svg" xmlns:xlink="http://www.w3.org/1999/xlink" viewBox="0 0 1000 867" version="1.1">
<defs>
<clipPath id="clip1">
  <path d="M 0 0 L 1000 0 L 1000 866.878906 L 0 866.878906 Z M 0 0 "/>
</clipPath>
<clipPath id="clip2">
  <path d="M 0 0 L 667 0 L 667 866.878906 L 0 866.878906 Z M 0 0 "/>
</clipPath>
<clipPath id="clip3">
  <path d="M 0 0 L 334 0 L 334 866.878906 L 0 866.878906 Z M 0 0 "/>
</clipPath>
</defs>
<g id="surface169">
<g clip-path="url(#clip1)" clip-rule="nonzero">
<path style=" stroke:none;fill-rule:evenodd;fill:rgb(92.939758%,16.078186%,22.3526%);fill-opacity:1;" d="M 0 866.667969 L 0 0 L 1000 0 L 1000 866.667969 Z M 0 866.667969 "/>
</g>
<g clip-path="url(#clip2)" clip-rule="nonzero">
<path style=" stroke:none;fill-rule:evenodd;fill:rgb(98.03772%,87.841797%,25.881958%);fill-opacity:1;" d="M 0 0 L 666.667969 0 L 666.667969 866.667969 L 0 866.667969 Z M 0 0 "/>
</g>
<g clip-path="url(#clip3)" clip-rule="nonzero">
<path style=" stroke:none;fill-rule:evenodd;fill:rgb(0%,0%,0%);fill-opacity:1;" d="M 0 0 L 333.332031 0 L 333.332031 866.667969 L 0 866.667969 Z M 0 0 "/>
</g>
</g>
</svg>
