<?xml version="1.0" encoding="UTF-8"?>
<svg xmlns="http://www.w3.org/2000/svg" xmlns:xlink="http://www.w3.org/1999/xlink" viewBox="0 0 1000 703" version="1.1">
<g id="surface219">
<path style=" stroke:none;fill-rule:evenodd;fill:rgb(0%,15.293884%,46.273804%);fill-opacity:1;" d="M 675 351.390625 C 675 448.039062 596.652344 526.386719 500 526.386719 C 403.347656 526.386719 325 448.039062 325 351.390625 C 325 254.738281 403.347656 176.390625 500 176.390625 C 596.652344 176.390625 675 254.738281 675 351.390625 Z M 675 351.390625 "/>
<path style=" stroke:none;fill-rule:evenodd;fill:rgb(99.998474%,99.998474%,99.998474%);fill-opacity:1;" d="M -24.996094 701.386719 C -24.996094 673.578125 -22.257812 645.757812 -16.832031 618.472656 C -11.40625 591.191406 -3.296875 564.445312 7.351562 538.75 C 28.640625 487.351562 60.140625 440.203125 99.480469 400.871094 C 138.8125 361.53125 185.960938 330.03125 237.359375 308.742188 C 263.0625 298.09375 289.800781 289.984375 317.085938 284.558594 C 344.367188 279.125 372.1875 276.386719 399.996094 276.386719 C 427.816406 276.386719 455.632812 279.125 482.910156 284.558594 C 510.191406 289.984375 536.9375 298.09375 562.640625 308.742188 C 614.042969 330.03125 661.179688 361.53125 700.519531 400.871094 C 739.859375 440.203125 771.363281 487.351562 792.648438 538.75 C 803.289062 564.445312 811.40625 591.191406 816.832031 618.472656 C 822.257812 645.757812 825 673.578125 825 701.386719 L 800 701.386719 C 800 675.210938 797.421875 649.03125 792.3125 623.351562 C 787.203125 597.675781 779.566406 572.5 769.550781 548.316406 C 749.511719 499.945312 719.871094 455.570312 682.839844 418.542969 C 645.820312 381.523438 601.449219 351.875 553.074219 331.839844 C 528.882812 321.816406 503.71875 314.179688 478.035156 309.074219 C 452.359375 303.96875 426.179688 301.390625 399.996094 301.390625 C 373.820312 301.390625 347.640625 303.96875 321.96875 309.074219 C 296.285156 314.179688 271.109375 321.816406 246.925781 331.839844 C 198.554688 351.875 154.183594 381.523438 117.160156 418.542969 C 80.132812 455.570312 50.484375 499.945312 30.449219 548.316406 C 20.425781 572.5 12.789062 597.675781 7.683594 623.351562 C 2.578125 649.03125 0 675.210938 0 701.386719 Z M -24.996094 701.386719 "/>
<path style=" stroke:none;fill-rule:evenodd;fill:rgb(0%,60.783386%,22.744751%);fill-opacity:1;" d="M 350.742188 300.238281 C 352.695312 299.992188 354.519531 298.867188 355.714844 297.164062 C 356.898438 295.464844 357.441406 293.21875 357.171875 291.046875 C 356.90625 288.886719 355.84375 286.828125 354.273438 285.46875 C 352.707031 284.105469 350.660156 283.453125 348.714844 283.6875 C 346.761719 283.933594 344.9375 285.0625 343.75 286.761719 C 342.554688 288.464844 342.019531 290.707031 342.285156 292.878906 C 342.550781 295.042969 343.613281 297.097656 345.179688 298.460938 C 346.75 299.824219 348.796875 300.472656 350.742188 300.238281 Z M 350.367188 297.164062 C 351.515625 297.023438 352.578125 296.324219 353.269531 295.261719 C 353.964844 294.203125 354.269531 292.792969 354.097656 291.425781 C 353.9375 290.0625 353.296875 288.769531 352.371094 287.90625 C 351.441406 287.046875 350.234375 286.625 349.085938 286.761719 C 347.949219 286.90625 346.875 287.601562 346.183594 288.667969 C 345.492188 289.726562 345.1875 291.136719 345.359375 292.5 C 345.527344 293.863281 346.164062 295.15625 347.085938 296.019531 C 348.015625 296.878906 349.222656 297.300781 350.367188 297.164062 Z M 350.367188 297.164062 "/>
<path style=" stroke:none;fill-rule:evenodd;fill:rgb(0%,60.783386%,22.744751%);fill-opacity:1;" d="M 364.328125 298.734375 L 367.410156 298.515625 L 366.984375 292.335938 L 373.628906 291.875 C 375 291.78125 376.324219 291.125 377.21875 290.085938 C 378.121094 289.046875 378.585938 287.652344 378.492188 286.28125 C 378.398438 284.917969 377.738281 283.59375 376.703125 282.691406 C 375.664062 281.796875 374.265625 281.328125 372.898438 281.425781 L 363.402344 282.089844 Z M 366.765625 289.25 L 373.175781 288.804688 C 373.738281 288.761719 374.273438 288.492188 374.648438 288.070312 C 375.015625 287.652344 375.203125 287.074219 375.164062 286.515625 C 375.128906 285.953125 374.859375 285.414062 374.4375 285.046875 C 374.011719 284.679688 373.441406 284.488281 372.875 284.523438 L 366.46875 284.980469 Z M 366.765625 289.25 "/>
<path style=" stroke:none;fill-rule:evenodd;fill:rgb(0%,60.783386%,22.744751%);fill-opacity:1;" d="M 378.457031 297.742188 C 378.289062 295.367188 377.921875 290.140625 374.363281 290.390625 L 369.851562 290.707031 C 375.074219 290.34375 375.441406 295.5625 375.609375 297.9375 Z M 378.457031 297.742188 "/>
<path style=" stroke:none;fill-rule:evenodd;fill:rgb(0%,60.783386%,22.744751%);fill-opacity:1;" d="M 385.453125 297.417969 L 393.304688 297.28125 C 395.175781 297.246094 397.019531 296.4375 398.316406 295.097656 C 399.617188 293.753906 400.351562 291.882812 400.324219 290.011719 L 400.28125 287.628906 C 400.25 285.757812 399.441406 283.914062 398.097656 282.617188 C 396.753906 281.316406 394.882812 280.582031 393.011719 280.609375 L 385.160156 280.753906 Z M 388.488281 294.261719 L 393.011719 294.1875 C 394.191406 294.167969 395.363281 293.660156 396.1875 292.804688 C 397.007812 291.957031 397.472656 290.769531 397.453125 289.582031 L 397.433594 288.160156 C 397.40625 286.972656 396.90625 285.804688 396.050781 284.980469 C 395.195312 284.15625 394.015625 283.6875 392.828125 283.710938 L 388.304688 283.792969 Z M 388.488281 294.261719 "/>
<path style=" stroke:none;fill-rule:evenodd;fill:rgb(0%,60.783386%,22.744751%);fill-opacity:1;" d="M 406.609375 297.207031 L 421.605469 297.726562 L 421.703125 294.636719 L 409.574219 294.214844 L 409.722656 289.929688 L 419.242188 290.261719 L 419.339844 287.40625 L 409.824219 287.074219 L 409.9375 283.746094 L 421.359375 284.144531 L 421.46875 281.050781 L 407.191406 280.550781 Z M 406.609375 297.207031 "/>
<path style=" stroke:none;fill-rule:evenodd;fill:rgb(0%,60.783386%,22.744751%);fill-opacity:1;" d="M 427.753906 298.109375 L 430.601562 298.359375 L 431.59375 286.972656 L 433.921875 298.644531 L 436.53125 298.875 L 440.84375 287.78125 L 439.851562 299.167969 L 442.695312 299.417969 L 444.152344 282.808594 L 439.996094 282.449219 L 435.683594 293.542969 L 433.355469 281.867188 L 429.207031 281.507812 Z M 427.753906 298.109375 "/>
<path style=" stroke:none;fill-rule:evenodd;fill:rgb(0%,60.783386%,22.744751%);fill-opacity:1;" d="M 462.285156 302 L 474.601562 304.117188 L 475.089844 301.300781 L 465.582031 299.667969 L 466.226562 295.917969 L 473.972656 297.246094 L 474.460938 294.433594 L 466.714844 293.09375 L 467.15625 290.519531 L 476.367188 292.097656 L 476.855469 289.285156 L 464.824219 287.21875 Z M 462.285156 302 "/>
<path style=" stroke:none;fill-rule:evenodd;fill:rgb(0%,60.783386%,22.744751%);fill-opacity:1;" d="M 493.9375 308.21875 L 496.925781 308.992188 L 498.480469 303 L 504.9375 304.664062 C 506.257812 305.011719 507.722656 304.808594 508.90625 304.109375 C 510.085938 303.417969 510.972656 302.238281 511.320312 300.90625 C 511.664062 299.578125 511.453125 298.121094 510.761719 296.941406 C 510.0625 295.753906 508.882812 294.875 507.554688 294.527344 L 498.339844 292.140625 Z M 499.253906 300 L 505.480469 301.613281 C 506.023438 301.757812 506.617188 301.667969 507.101562 301.382812 C 507.589844 301.097656 507.949219 300.617188 508.089844 300.074219 C 508.234375 299.53125 508.144531 298.9375 507.859375 298.453125 C 507.574219 297.964844 507.09375 297.605469 506.550781 297.464844 L 500.328125 295.855469 Z M 499.253906 300 "/>
<path style=" stroke:none;fill-rule:evenodd;fill:rgb(0%,60.783386%,22.744751%);fill-opacity:1;" d="M 514.382812 313.671875 L 517.332031 314.601562 L 519.199219 308.703125 L 525.554688 310.703125 C 526.863281 311.113281 528.332031 310.984375 529.546875 310.355469 C 530.761719 309.726562 531.710938 308.59375 532.125 307.28125 C 532.539062 305.972656 532.410156 304.511719 531.773438 303.289062 C 531.140625 302.074219 530.007812 301.125 528.707031 300.710938 L 519.621094 297.851562 Z M 520.128906 305.75 L 526.257812 307.683594 C 526.796875 307.847656 527.390625 307.796875 527.890625 307.542969 C 528.390625 307.277344 528.773438 306.816406 528.945312 306.28125 C 529.113281 305.746094 529.058594 305.148438 528.800781 304.644531 C 528.542969 304.152344 528.082031 303.765625 527.546875 303.59375 L 521.417969 301.660156 Z M 520.128906 305.75 "/>
<path style=" stroke:none;fill-rule:evenodd;fill:rgb(0%,60.783386%,22.744751%);fill-opacity:1;" d="M 527.890625 317.929688 C 528.609375 315.660156 530.1875 310.667969 526.78125 309.589844 L 522.460938 308.234375 C 527.457031 309.804688 525.886719 314.804688 525.167969 317.078125 Z M 527.890625 317.929688 "/>
<path style=" stroke:none;fill-rule:evenodd;fill:rgb(0%,60.783386%,22.744751%);fill-opacity:1;" d="M 541.546875 322.820312 C 543.382812 323.503906 545.527344 323.347656 547.363281 322.386719 C 549.207031 321.429688 550.71875 319.679688 551.484375 317.640625 C 552.253906 315.597656 552.253906 313.277344 551.492188 311.351562 C 550.734375 309.421875 549.222656 307.894531 547.375 307.207031 C 545.539062 306.515625 543.394531 306.671875 541.558594 307.636719 C 539.714844 308.59375 538.203125 310.34375 537.433594 312.382812 C 536.667969 314.429688 536.667969 316.746094 537.429688 318.675781 C 538.1875 320.601562 539.699219 322.128906 541.546875 322.820312 Z M 542.625 319.917969 C 543.707031 320.324219 544.976562 320.195312 546.082031 319.570312 C 547.1875 318.949219 548.109375 317.835938 548.582031 316.554688 C 549.066406 315.273438 549.097656 313.828125 548.671875 312.632812 C 548.25 311.441406 547.375 310.511719 546.292969 310.105469 C 545.214844 309.703125 543.945312 309.828125 542.839844 310.453125 C 541.734375 311.074219 540.8125 312.1875 540.335938 313.46875 C 539.855469 314.75 539.824219 316.195312 540.25 317.390625 C 540.671875 318.582031 541.546875 319.511719 542.625 319.917969 Z M 542.625 319.917969 "/>
<path style=" stroke:none;fill-rule:evenodd;fill:rgb(0%,60.783386%,22.744751%);fill-opacity:1;" d="M 561.164062 330.742188 C 562.960938 331.527344 565.109375 331.480469 566.996094 330.621094 C 568.890625 329.757812 570.488281 328.089844 571.363281 326.089844 C 572.230469 324.089844 572.355469 321.78125 571.695312 319.808594 C 571.039062 317.84375 569.609375 316.242188 567.8125 315.460938 C 566.007812 314.675781 563.855469 314.722656 561.96875 315.585938 C 560.078125 316.445312 558.480469 318.109375 557.605469 320.109375 C 556.734375 322.113281 556.613281 324.421875 557.269531 326.386719 C 557.929688 328.359375 559.359375 329.960938 561.164062 330.742188 Z M 562.398438 327.90625 C 563.449219 328.367188 564.730469 328.308594 565.863281 327.738281 C 566.996094 327.171875 567.980469 326.117188 568.523438 324.855469 C 569.070312 323.601562 569.179688 322.164062 568.820312 320.949219 C 568.453125 319.734375 567.625 318.757812 566.578125 318.296875 C 565.515625 317.835938 564.234375 317.898438 563.105469 318.460938 C 561.96875 319.03125 560.996094 320.085938 560.445312 321.34375 C 559.894531 322.605469 559.789062 324.042969 560.152344 325.253906 C 560.511719 326.46875 561.339844 327.445312 562.398438 327.90625 Z M 562.398438 327.90625 "/>
<path style=" stroke:none;fill-rule:evenodd;fill:rgb(0%,60.783386%,22.744751%);fill-opacity:1;" d="M 565.578125 323.574219 L 571.363281 326.089844 L 570.414062 328.273438 L 564.628906 325.757812 Z M 565.578125 323.574219 "/>
<path style=" stroke:none;fill-rule:evenodd;fill:rgb(0%,60.783386%,22.744751%);fill-opacity:1;" d="M 569.179688 325.140625 L 571.363281 326.089844 L 568.039062 333.734375 L 565.859375 332.78125 Z M 569.179688 325.140625 "/>
<path style=" stroke:none;fill-rule:evenodd;fill:rgb(0%,60.783386%,22.744751%);fill-opacity:1;" d="M 573.628906 336.34375 L 576.394531 337.71875 L 579.15625 332.179688 L 585.125 335.15625 C 586.351562 335.765625 587.824219 335.867188 589.125 335.433594 C 590.425781 335 591.539062 334.03125 592.148438 332.804688 C 592.761719 331.574219 592.859375 330.105469 592.425781 328.808594 C 591.992188 327.507812 591.023438 326.394531 589.796875 325.777344 L 581.277344 321.53125 Z M 580.539062 329.410156 L 586.289062 332.28125 C 586.792969 332.53125 587.394531 332.574219 587.929688 332.394531 C 588.460938 332.214844 588.914062 331.820312 589.164062 331.316406 C 589.417969 330.816406 589.457031 330.210938 589.28125 329.683594 C 589.105469 329.148438 588.703125 328.691406 588.203125 328.441406 L 582.453125 325.574219 Z M 580.539062 329.410156 "/>
<path style=" stroke:none;fill-rule:evenodd;fill:rgb(0%,60.783386%,22.744751%);fill-opacity:1;" d="M 586.304688 342.664062 C 587.367188 340.527344 589.703125 335.84375 586.507812 334.25 L 582.457031 332.234375 C 587.144531 334.566406 584.8125 339.25 583.746094 341.390625 Z M 586.304688 342.664062 "/>
<path style=" stroke:none;fill-rule:evenodd;fill:rgb(0%,60.783386%,22.744751%);fill-opacity:1;" d="M 592.496094 345.925781 L 605.550781 353.3125 L 607.078125 350.617188 L 596.503906 344.636719 L 598.613281 340.90625 L 606.90625 345.601562 L 608.3125 343.109375 L 600.023438 338.425781 L 601.664062 335.523438 L 611.613281 341.152344 L 613.132812 338.457031 L 600.703125 331.421875 Z M 592.496094 345.925781 "/>
<path style=" stroke:none;fill-rule:evenodd;fill:rgb(0%,60.783386%,22.744751%);fill-opacity:1;" d="M 616.808594 354.082031 C 615.914062 355.496094 616.820312 357.054688 618.828125 358.335938 C 620.835938 359.617188 622.207031 359.570312 622.78125 358.667969 C 624.605469 355.808594 614.066406 351.636719 617.316406 346.644531 C 620.117188 342.359375 624.910156 345.695312 626.714844 346.847656 C 628.527344 347.996094 631.421875 350.976562 629.171875 354.410156 L 626.105469 352.457031 C 627.066406 350.953125 626.011719 349.5 624.402344 348.476562 C 622.851562 347.484375 621.582031 347.039062 620.660156 348.488281 C 619.105469 350.816406 629.4375 355.210938 626.265625 360.179688 C 623.929688 363.84375 619.867188 362.242188 617.160156 360.519531 C 614.847656 359.046875 611.394531 355.578125 613.648438 352.070312 Z M 616.808594 354.082031 "/>
<path style=" stroke:none;fill-rule:evenodd;fill:rgb(0%,60.783386%,22.744751%);fill-opacity:1;" d="M 634.691406 365.910156 C 633.71875 367.265625 634.546875 368.875 636.480469 370.257812 C 638.421875 371.640625 639.792969 371.667969 640.414062 370.792969 C 642.390625 368.03125 632.078125 363.3125 635.585938 358.503906 C 638.605469 354.367188 643.214844 357.949219 644.957031 359.199219 C 646.707031 360.4375 649.449219 363.5625 647.015625 366.875 L 644.058594 364.765625 C 645.09375 363.3125 644.117188 361.8125 642.5625 360.710938 C 641.066406 359.640625 639.824219 359.117188 638.820312 360.519531 C 637.152344 362.765625 647.238281 367.695312 643.8125 372.488281 C 641.289062 376.03125 637.316406 374.21875 634.699219 372.355469 C 632.472656 370.761719 629.203125 367.117188 631.640625 363.726562 Z M 634.691406 365.910156 "/>
<path style=" stroke:none;fill-rule:evenodd;fill:rgb(0%,60.783386%,22.744751%);fill-opacity:1;" d="M 651.597656 385.082031 C 653.136719 386.304688 655.226562 386.820312 657.265625 386.472656 C 659.316406 386.132812 661.296875 384.941406 662.65625 383.230469 C 664.015625 381.523438 664.734375 379.324219 664.605469 377.25 C 664.484375 375.183594 663.515625 373.261719 661.972656 372.042969 C 660.441406 370.820312 658.351562 370.304688 656.304688 370.652344 C 654.257812 370.992188 652.277344 372.183594 650.921875 373.890625 C 649.558594 375.601562 648.84375 377.796875 648.96875 379.875 C 649.09375 381.941406 650.066406 383.863281 651.597656 385.082031 Z M 653.523438 382.660156 C 654.425781 383.378906 655.679688 383.652344 656.921875 383.402344 C 658.164062 383.152344 659.382812 382.375 660.238281 381.304688 C 661.085938 380.234375 661.566406 378.871094 661.53125 377.601562 C 661.5 376.335938 660.949219 375.183594 660.046875 374.464844 C 659.144531 373.746094 657.898438 373.472656 656.65625 373.722656 C 655.417969 373.972656 654.195312 374.75 653.339844 375.820312 C 652.484375 376.898438 652.011719 378.253906 652.046875 379.523438 C 652.078125 380.789062 652.621094 381.941406 653.523438 382.660156 Z M 653.523438 382.660156 "/>
<path style=" stroke:none;fill-rule:evenodd;fill:rgb(99.998474%,99.998474%,99.998474%);fill-opacity:1;" d="M 357.144531 312.457031 L 354.824219 319.59375 L 358.390625 320.75 Z M 357.144531 312.457031 "/>
<path style=" stroke:none;fill-rule:evenodd;fill:rgb(99.998474%,99.998474%,99.998474%);fill-opacity:1;" d="M 357.144531 312.457031 L 359.464844 319.59375 L 355.894531 320.75 Z M 357.144531 312.457031 "/>
<path style=" stroke:none;fill-rule:evenodd;fill:rgb(99.998474%,99.998474%,99.998474%);fill-opacity:1;" d="M 364.277344 317.644531 L 356.777344 317.644531 L 356.777344 321.390625 Z M 364.277344 317.644531 "/>
<path style=" stroke:none;fill-rule:evenodd;fill:rgb(99.998474%,99.998474%,99.998474%);fill-opacity:1;" d="M 364.277344 317.644531 L 358.207031 322.054688 L 356.003906 319.015625 Z M 364.277344 317.644531 "/>
<path style=" stroke:none;fill-rule:evenodd;fill:rgb(99.998474%,99.998474%,99.998474%);fill-opacity:1;" d="M 350.007812 317.644531 L 356.078125 322.054688 L 358.28125 319.015625 Z M 350.007812 317.644531 "/>
<path style=" stroke:none;fill-rule:evenodd;fill:rgb(99.998474%,99.998474%,99.998474%);fill-opacity:1;" d="M 350.007812 317.644531 L 357.511719 317.644531 L 357.511719 321.390625 Z M 350.007812 317.644531 "/>
<path style=" stroke:none;fill-rule:evenodd;fill:rgb(99.998474%,99.998474%,99.998474%);fill-opacity:1;" d="M 361.550781 326.027344 L 359.234375 318.894531 L 355.664062 320.054688 Z M 361.550781 326.027344 "/>
<path style=" stroke:none;fill-rule:evenodd;fill:rgb(99.998474%,99.998474%,99.998474%);fill-opacity:1;" d="M 361.550781 326.027344 L 355.484375 321.621094 L 357.6875 318.589844 Z M 361.550781 326.027344 "/>
<path style=" stroke:none;fill-rule:evenodd;fill:rgb(99.998474%,99.998474%,99.998474%);fill-opacity:1;" d="M 352.734375 326.027344 L 358.804688 321.621094 L 356.601562 318.589844 Z M 352.734375 326.027344 "/>
<path style=" stroke:none;fill-rule:evenodd;fill:rgb(99.998474%,99.998474%,99.998474%);fill-opacity:1;" d="M 352.734375 326.027344 L 355.054688 318.894531 L 358.613281 320.054688 Z M 352.734375 326.027344 "/>
<path style=" stroke:none;fill-rule:evenodd;fill:rgb(99.998474%,99.998474%,99.998474%);fill-opacity:1;" d="M 372.621094 386.03125 L 370.300781 393.167969 L 373.867188 394.328125 Z M 372.621094 386.03125 "/>
<path style=" stroke:none;fill-rule:evenodd;fill:rgb(99.998474%,99.998474%,99.998474%);fill-opacity:1;" d="M 372.621094 386.03125 L 374.9375 393.167969 L 371.371094 394.328125 Z M 372.621094 386.03125 "/>
<path style=" stroke:none;fill-rule:evenodd;fill:rgb(99.998474%,99.998474%,99.998474%);fill-opacity:1;" d="M 379.753906 391.214844 L 372.253906 391.214844 L 372.253906 394.964844 Z M 379.753906 391.214844 "/>
<path style=" stroke:none;fill-rule:evenodd;fill:rgb(99.998474%,99.998474%,99.998474%);fill-opacity:1;" d="M 379.753906 391.214844 L 373.683594 395.621094 L 371.480469 392.589844 Z M 379.753906 391.214844 "/>
<path style=" stroke:none;fill-rule:evenodd;fill:rgb(99.998474%,99.998474%,99.998474%);fill-opacity:1;" d="M 365.484375 391.214844 L 371.554688 395.621094 L 373.757812 392.589844 Z M 365.484375 391.214844 "/>
<path style=" stroke:none;fill-rule:evenodd;fill:rgb(99.998474%,99.998474%,99.998474%);fill-opacity:1;" d="M 365.484375 391.214844 L 372.984375 391.214844 L 372.984375 394.964844 Z M 365.484375 391.214844 "/>
<path style=" stroke:none;fill-rule:evenodd;fill:rgb(99.998474%,99.998474%,99.998474%);fill-opacity:1;" d="M 377.027344 399.601562 L 374.707031 392.46875 L 371.140625 393.628906 Z M 377.027344 399.601562 "/>
<path style=" stroke:none;fill-rule:evenodd;fill:rgb(99.998474%,99.998474%,99.998474%);fill-opacity:1;" d="M 377.027344 399.601562 L 370.957031 395.1875 L 373.160156 392.15625 Z M 377.027344 399.601562 "/>
<path style=" stroke:none;fill-rule:evenodd;fill:rgb(99.998474%,99.998474%,99.998474%);fill-opacity:1;" d="M 368.210938 399.601562 L 374.28125 395.1875 L 372.078125 392.15625 Z M 368.210938 399.601562 "/>
<path style=" stroke:none;fill-rule:evenodd;fill:rgb(99.998474%,99.998474%,99.998474%);fill-opacity:1;" d="M 368.210938 399.601562 L 370.53125 392.46875 L 374.097656 393.628906 Z M 368.210938 399.601562 "/>
<path style=" stroke:none;fill-rule:evenodd;fill:rgb(99.998474%,99.998474%,99.998474%);fill-opacity:1;" d="M 351.1875 402.992188 L 349.257812 408.941406 L 352.234375 409.90625 Z M 351.1875 402.992188 "/>
<path style=" stroke:none;fill-rule:evenodd;fill:rgb(99.998474%,99.998474%,99.998474%);fill-opacity:1;" d="M 351.1875 402.992188 L 353.121094 408.941406 L 350.152344 409.90625 Z M 351.1875 402.992188 "/>
<path style=" stroke:none;fill-rule:evenodd;fill:rgb(99.998474%,99.998474%,99.998474%);fill-opacity:1;" d="M 357.136719 407.3125 L 350.882812 407.3125 L 350.882812 410.4375 Z M 357.136719 407.3125 "/>
<path style=" stroke:none;fill-rule:evenodd;fill:rgb(99.998474%,99.998474%,99.998474%);fill-opacity:1;" d="M 357.136719 407.3125 L 352.078125 410.988281 L 350.238281 408.460938 Z M 357.136719 407.3125 "/>
<path style=" stroke:none;fill-rule:evenodd;fill:rgb(99.998474%,99.998474%,99.998474%);fill-opacity:1;" d="M 345.25 407.3125 L 350.300781 410.988281 L 352.140625 408.460938 Z M 345.25 407.3125 "/>
<path style=" stroke:none;fill-rule:evenodd;fill:rgb(99.998474%,99.998474%,99.998474%);fill-opacity:1;" d="M 345.25 407.3125 L 351.496094 407.3125 L 351.496094 410.4375 Z M 345.25 407.3125 "/>
<path style=" stroke:none;fill-rule:evenodd;fill:rgb(99.998474%,99.998474%,99.998474%);fill-opacity:1;" d="M 354.863281 414.304688 L 352.933594 408.359375 L 349.960938 409.320312 Z M 354.863281 414.304688 "/>
<path style=" stroke:none;fill-rule:evenodd;fill:rgb(99.998474%,99.998474%,99.998474%);fill-opacity:1;" d="M 354.863281 414.304688 L 349.804688 410.628906 L 351.644531 408.101562 Z M 354.863281 414.304688 "/>
<path style=" stroke:none;fill-rule:evenodd;fill:rgb(99.998474%,99.998474%,99.998474%);fill-opacity:1;" d="M 347.515625 414.304688 L 352.574219 410.628906 L 350.734375 408.101562 Z M 347.515625 414.304688 "/>
<path style=" stroke:none;fill-rule:evenodd;fill:rgb(99.998474%,99.998474%,99.998474%);fill-opacity:1;" d="M 347.515625 414.304688 L 349.445312 408.359375 L 352.417969 409.320312 Z M 347.515625 414.304688 "/>
<path style=" stroke:none;fill-rule:evenodd;fill:rgb(99.998474%,99.998474%,99.998474%);fill-opacity:1;" d="M 389.765625 379.246094 L 388.65625 382.640625 L 390.355469 383.199219 Z M 389.765625 379.246094 "/>
<path style=" stroke:none;fill-rule:evenodd;fill:rgb(99.998474%,99.998474%,99.998474%);fill-opacity:1;" d="M 389.765625 379.246094 L 390.863281 382.640625 L 389.167969 383.199219 Z M 389.765625 379.246094 "/>
<path style=" stroke:none;fill-rule:evenodd;fill:rgb(99.998474%,99.998474%,99.998474%);fill-opacity:1;" d="M 393.160156 381.710938 L 389.585938 381.710938 L 389.585938 383.503906 Z M 393.160156 381.710938 "/>
<path style=" stroke:none;fill-rule:evenodd;fill:rgb(99.998474%,99.998474%,99.998474%);fill-opacity:1;" d="M 393.160156 381.710938 L 390.273438 383.8125 L 389.21875 382.371094 Z M 393.160156 381.710938 "/>
<path style=" stroke:none;fill-rule:evenodd;fill:rgb(99.998474%,99.998474%,99.998474%);fill-opacity:1;" d="M 386.367188 381.710938 L 389.253906 383.8125 L 390.304688 382.371094 Z M 386.367188 381.710938 "/>
<path style=" stroke:none;fill-rule:evenodd;fill:rgb(99.998474%,99.998474%,99.998474%);fill-opacity:1;" d="M 386.367188 381.710938 L 389.9375 381.710938 L 389.9375 383.503906 Z M 386.367188 381.710938 "/>
<path style=" stroke:none;fill-rule:evenodd;fill:rgb(99.998474%,99.998474%,99.998474%);fill-opacity:1;" d="M 391.859375 385.707031 L 390.761719 382.308594 L 389.058594 382.859375 Z M 391.859375 385.707031 "/>
<path style=" stroke:none;fill-rule:evenodd;fill:rgb(99.998474%,99.998474%,99.998474%);fill-opacity:1;" d="M 391.859375 385.707031 L 388.96875 383.605469 L 390.019531 382.160156 Z M 391.859375 385.707031 "/>
<path style=" stroke:none;fill-rule:evenodd;fill:rgb(99.998474%,99.998474%,99.998474%);fill-opacity:1;" d="M 387.660156 385.707031 L 390.550781 383.605469 L 389.5 382.160156 Z M 387.660156 385.707031 "/>
<path style=" stroke:none;fill-rule:evenodd;fill:rgb(99.998474%,99.998474%,99.998474%);fill-opacity:1;" d="M 387.660156 385.707031 L 388.765625 382.308594 L 390.460938 382.859375 Z M 387.660156 385.707031 "/>
<path style=" stroke:none;fill-rule:evenodd;fill:rgb(99.998474%,99.998474%,99.998474%);fill-opacity:1;" d="M 409.050781 404.660156 L 407.117188 410.609375 L 410.089844 411.574219 Z M 409.050781 404.660156 "/>
<path style=" stroke:none;fill-rule:evenodd;fill:rgb(99.998474%,99.998474%,99.998474%);fill-opacity:1;" d="M 409.050781 404.660156 L 410.976562 410.609375 L 408.007812 411.574219 Z M 409.050781 404.660156 "/>
<path style=" stroke:none;fill-rule:evenodd;fill:rgb(99.998474%,99.998474%,99.998474%);fill-opacity:1;" d="M 414.992188 408.980469 L 408.738281 408.980469 L 408.738281 412.109375 Z M 414.992188 408.980469 "/>
<path style=" stroke:none;fill-rule:evenodd;fill:rgb(99.998474%,99.998474%,99.998474%);fill-opacity:1;" d="M 414.992188 408.980469 L 409.933594 412.65625 L 408.101562 410.128906 Z M 414.992188 408.980469 "/>
<path style=" stroke:none;fill-rule:evenodd;fill:rgb(99.998474%,99.998474%,99.998474%);fill-opacity:1;" d="M 403.105469 408.980469 L 408.164062 412.65625 L 409.992188 410.128906 Z M 403.105469 408.980469 "/>
<path style=" stroke:none;fill-rule:evenodd;fill:rgb(99.998474%,99.998474%,99.998474%);fill-opacity:1;" d="M 403.105469 408.980469 L 409.355469 408.980469 L 409.355469 412.109375 Z M 403.105469 408.980469 "/>
<path style=" stroke:none;fill-rule:evenodd;fill:rgb(99.998474%,99.998474%,99.998474%);fill-opacity:1;" d="M 412.71875 415.96875 L 410.785156 410.027344 L 407.816406 410.988281 Z M 412.71875 415.96875 "/>
<path style=" stroke:none;fill-rule:evenodd;fill:rgb(99.998474%,99.998474%,99.998474%);fill-opacity:1;" d="M 412.71875 415.96875 L 407.667969 412.296875 L 409.5 409.769531 Z M 412.71875 415.96875 "/>
<path style=" stroke:none;fill-rule:evenodd;fill:rgb(99.998474%,99.998474%,99.998474%);fill-opacity:1;" d="M 405.375 415.96875 L 410.425781 412.296875 L 408.597656 409.769531 Z M 405.375 415.96875 "/>
<path style=" stroke:none;fill-rule:evenodd;fill:rgb(99.998474%,99.998474%,99.998474%);fill-opacity:1;" d="M 405.375 415.96875 L 407.308594 410.027344 L 410.277344 410.988281 Z M 405.375 415.96875 "/>
<path style=" stroke:none;fill-rule:evenodd;fill:rgb(99.998474%,99.998474%,99.998474%);fill-opacity:1;" d="M 403.808594 423.292969 L 402.261719 428.050781 L 404.640625 428.816406 Z M 403.808594 423.292969 "/>
<path style=" stroke:none;fill-rule:evenodd;fill:rgb(99.998474%,99.998474%,99.998474%);fill-opacity:1;" d="M 403.808594 423.292969 L 405.355469 428.050781 L 402.972656 428.816406 Z M 403.808594 423.292969 "/>
<path style=" stroke:none;fill-rule:evenodd;fill:rgb(99.998474%,99.998474%,99.998474%);fill-opacity:1;" d="M 408.5625 426.75 L 403.5625 426.75 L 403.5625 429.246094 Z M 408.5625 426.75 "/>
<path style=" stroke:none;fill-rule:evenodd;fill:rgb(99.998474%,99.998474%,99.998474%);fill-opacity:1;" d="M 408.5625 426.75 L 404.519531 429.6875 L 403.046875 427.664062 Z M 408.5625 426.75 "/>
<path style=" stroke:none;fill-rule:evenodd;fill:rgb(99.998474%,99.998474%,99.998474%);fill-opacity:1;" d="M 399.054688 426.75 L 403.097656 429.6875 L 404.566406 427.664062 Z M 399.054688 426.75 "/>
<path style=" stroke:none;fill-rule:evenodd;fill:rgb(99.998474%,99.998474%,99.998474%);fill-opacity:1;" d="M 399.054688 426.75 L 404.050781 426.75 L 404.050781 429.246094 Z M 399.054688 426.75 "/>
<path style=" stroke:none;fill-rule:evenodd;fill:rgb(99.998474%,99.998474%,99.998474%);fill-opacity:1;" d="M 406.746094 432.339844 L 405.203125 427.582031 L 402.824219 428.359375 Z M 406.746094 432.339844 "/>
<path style=" stroke:none;fill-rule:evenodd;fill:rgb(99.998474%,99.998474%,99.998474%);fill-opacity:1;" d="M 406.746094 432.339844 L 402.703125 429.402344 L 404.175781 427.378906 Z M 406.746094 432.339844 "/>
<path style=" stroke:none;fill-rule:evenodd;fill:rgb(99.998474%,99.998474%,99.998474%);fill-opacity:1;" d="M 400.871094 432.339844 L 404.914062 429.402344 L 403.449219 427.378906 Z M 400.871094 432.339844 "/>
<path style=" stroke:none;fill-rule:evenodd;fill:rgb(99.998474%,99.998474%,99.998474%);fill-opacity:1;" d="M 400.871094 432.339844 L 402.417969 427.582031 L 404.792969 428.359375 Z M 400.871094 432.339844 "/>
<path style=" stroke:none;fill-rule:evenodd;fill:rgb(99.998474%,99.998474%,99.998474%);fill-opacity:1;" d="M 554.289062 289.605469 L 551.96875 296.738281 L 555.535156 297.898438 Z M 554.289062 289.605469 "/>
<path style=" stroke:none;fill-rule:evenodd;fill:rgb(99.998474%,99.998474%,99.998474%);fill-opacity:1;" d="M 554.289062 289.605469 L 556.605469 296.738281 L 553.039062 297.898438 Z M 554.289062 289.605469 "/>
<path style=" stroke:none;fill-rule:evenodd;fill:rgb(99.998474%,99.998474%,99.998474%);fill-opacity:1;" d="M 561.421875 294.785156 L 553.921875 294.785156 L 553.921875 298.535156 Z M 561.421875 294.785156 "/>
<path style=" stroke:none;fill-rule:evenodd;fill:rgb(99.998474%,99.998474%,99.998474%);fill-opacity:1;" d="M 561.421875 294.785156 L 555.351562 299.191406 L 553.148438 296.160156 Z M 561.421875 294.785156 "/>
<path style=" stroke:none;fill-rule:evenodd;fill:rgb(99.998474%,99.998474%,99.998474%);fill-opacity:1;" d="M 547.152344 294.785156 L 553.222656 299.191406 L 555.425781 296.160156 Z M 547.152344 294.785156 "/>
<path style=" stroke:none;fill-rule:evenodd;fill:rgb(99.998474%,99.998474%,99.998474%);fill-opacity:1;" d="M 547.152344 294.785156 L 554.652344 294.785156 L 554.652344 298.535156 Z M 547.152344 294.785156 "/>
<path style=" stroke:none;fill-rule:evenodd;fill:rgb(99.998474%,99.998474%,99.998474%);fill-opacity:1;" d="M 558.695312 303.171875 L 556.375 296.039062 L 552.808594 297.199219 Z M 558.695312 303.171875 "/>
<path style=" stroke:none;fill-rule:evenodd;fill:rgb(99.998474%,99.998474%,99.998474%);fill-opacity:1;" d="M 558.695312 303.171875 L 552.625 298.765625 L 554.828125 295.726562 Z M 558.695312 303.171875 "/>
<path style=" stroke:none;fill-rule:evenodd;fill:rgb(99.998474%,99.998474%,99.998474%);fill-opacity:1;" d="M 549.878906 303.171875 L 555.941406 298.765625 L 553.738281 295.726562 Z M 549.878906 303.171875 "/>
<path style=" stroke:none;fill-rule:evenodd;fill:rgb(99.998474%,99.998474%,99.998474%);fill-opacity:1;" d="M 549.878906 303.171875 L 552.191406 296.039062 L 555.757812 297.199219 Z M 549.878906 303.171875 "/>
<path style=" stroke:none;fill-rule:evenodd;fill:rgb(99.998474%,99.998474%,99.998474%);fill-opacity:1;" d="M 622.621094 405.320312 L 620.300781 412.449219 L 623.867188 413.605469 Z M 622.621094 405.320312 "/>
<path style=" stroke:none;fill-rule:evenodd;fill:rgb(99.998474%,99.998474%,99.998474%);fill-opacity:1;" d="M 622.621094 405.320312 L 624.9375 412.449219 L 621.371094 413.605469 Z M 622.621094 405.320312 "/>
<path style=" stroke:none;fill-rule:evenodd;fill:rgb(99.998474%,99.998474%,99.998474%);fill-opacity:1;" d="M 629.753906 410.5 L 622.253906 410.5 L 622.253906 414.25 Z M 629.753906 410.5 "/>
<path style=" stroke:none;fill-rule:evenodd;fill:rgb(99.998474%,99.998474%,99.998474%);fill-opacity:1;" d="M 629.753906 410.5 L 623.683594 414.90625 L 621.480469 411.875 Z M 629.753906 410.5 "/>
<path style=" stroke:none;fill-rule:evenodd;fill:rgb(99.998474%,99.998474%,99.998474%);fill-opacity:1;" d="M 615.484375 410.5 L 621.554688 414.90625 L 623.757812 411.875 Z M 615.484375 410.5 "/>
<path style=" stroke:none;fill-rule:evenodd;fill:rgb(99.998474%,99.998474%,99.998474%);fill-opacity:1;" d="M 615.484375 410.5 L 622.984375 410.5 L 622.984375 414.25 Z M 615.484375 410.5 "/>
<path style=" stroke:none;fill-rule:evenodd;fill:rgb(99.998474%,99.998474%,99.998474%);fill-opacity:1;" d="M 627.027344 418.882812 L 624.707031 411.753906 L 621.140625 412.90625 Z M 627.027344 418.882812 "/>
<path style=" stroke:none;fill-rule:evenodd;fill:rgb(99.998474%,99.998474%,99.998474%);fill-opacity:1;" d="M 627.027344 418.882812 L 620.957031 414.472656 L 623.160156 411.441406 Z M 627.027344 418.882812 "/>
<path style=" stroke:none;fill-rule:evenodd;fill:rgb(99.998474%,99.998474%,99.998474%);fill-opacity:1;" d="M 618.210938 418.882812 L 624.28125 414.472656 L 622.078125 411.441406 Z M 618.210938 418.882812 "/>
<path style=" stroke:none;fill-rule:evenodd;fill:rgb(99.998474%,99.998474%,99.998474%);fill-opacity:1;" d="M 618.210938 418.882812 L 620.53125 411.753906 L 624.097656 412.90625 Z M 618.210938 418.882812 "/>
<path style=" stroke:none;fill-rule:evenodd;fill:rgb(99.998474%,99.998474%,99.998474%);fill-opacity:1;" d="M 646.90625 409.484375 L 645.359375 414.238281 L 647.738281 415.011719 Z M 646.90625 409.484375 "/>
<path style=" stroke:none;fill-rule:evenodd;fill:rgb(99.998474%,99.998474%,99.998474%);fill-opacity:1;" d="M 646.90625 409.484375 L 648.453125 414.238281 L 646.070312 415.011719 Z M 646.90625 409.484375 "/>
<path style=" stroke:none;fill-rule:evenodd;fill:rgb(99.998474%,99.998474%,99.998474%);fill-opacity:1;" d="M 651.65625 412.941406 L 646.660156 412.941406 L 646.660156 415.4375 Z M 651.65625 412.941406 "/>
<path style=" stroke:none;fill-rule:evenodd;fill:rgb(99.998474%,99.998474%,99.998474%);fill-opacity:1;" d="M 651.65625 412.941406 L 647.617188 415.878906 L 646.144531 413.859375 Z M 651.65625 412.941406 "/>
<path style=" stroke:none;fill-rule:evenodd;fill:rgb(99.998474%,99.998474%,99.998474%);fill-opacity:1;" d="M 642.152344 412.941406 L 646.191406 415.878906 L 647.664062 413.859375 Z M 642.152344 412.941406 "/>
<path style=" stroke:none;fill-rule:evenodd;fill:rgb(99.998474%,99.998474%,99.998474%);fill-opacity:1;" d="M 642.152344 412.941406 L 647.148438 412.941406 L 647.148438 415.4375 Z M 642.152344 412.941406 "/>
<path style=" stroke:none;fill-rule:evenodd;fill:rgb(99.998474%,99.998474%,99.998474%);fill-opacity:1;" d="M 649.84375 418.53125 L 648.300781 413.777344 L 645.921875 414.546875 Z M 649.84375 418.53125 "/>
<path style=" stroke:none;fill-rule:evenodd;fill:rgb(99.998474%,99.998474%,99.998474%);fill-opacity:1;" d="M 649.84375 418.53125 L 645.796875 415.585938 L 647.269531 413.566406 Z M 649.84375 418.53125 "/>
<path style=" stroke:none;fill-rule:evenodd;fill:rgb(99.998474%,99.998474%,99.998474%);fill-opacity:1;" d="M 643.96875 418.53125 L 648.011719 415.585938 L 646.539062 413.566406 Z M 643.96875 418.53125 "/>
<path style=" stroke:none;fill-rule:evenodd;fill:rgb(99.998474%,99.998474%,99.998474%);fill-opacity:1;" d="M 643.96875 418.53125 L 645.507812 413.777344 L 647.890625 414.546875 Z M 643.96875 418.53125 "/>
<path style=" stroke:none;fill-rule:evenodd;fill:rgb(99.998474%,99.998474%,99.998474%);fill-opacity:1;" d="M 629.761719 422.042969 L 627.828125 427.992188 L 630.804688 428.953125 Z M 629.761719 422.042969 "/>
<path style=" stroke:none;fill-rule:evenodd;fill:rgb(99.998474%,99.998474%,99.998474%);fill-opacity:1;" d="M 629.761719 422.042969 L 631.691406 427.992188 L 628.722656 428.953125 Z M 629.761719 422.042969 "/>
<path style=" stroke:none;fill-rule:evenodd;fill:rgb(99.998474%,99.998474%,99.998474%);fill-opacity:1;" d="M 635.707031 426.363281 L 629.453125 426.363281 L 629.453125 429.488281 Z M 635.707031 426.363281 "/>
<path style=" stroke:none;fill-rule:evenodd;fill:rgb(99.998474%,99.998474%,99.998474%);fill-opacity:1;" d="M 635.707031 426.363281 L 630.648438 430.039062 L 628.8125 427.507812 Z M 635.707031 426.363281 "/>
<path style=" stroke:none;fill-rule:evenodd;fill:rgb(99.998474%,99.998474%,99.998474%);fill-opacity:1;" d="M 623.820312 426.363281 L 628.871094 430.039062 L 630.710938 427.507812 Z M 623.820312 426.363281 "/>
<path style=" stroke:none;fill-rule:evenodd;fill:rgb(99.998474%,99.998474%,99.998474%);fill-opacity:1;" d="M 623.820312 426.363281 L 630.066406 426.363281 L 630.066406 429.488281 Z M 623.820312 426.363281 "/>
<path style=" stroke:none;fill-rule:evenodd;fill:rgb(99.998474%,99.998474%,99.998474%);fill-opacity:1;" d="M 633.4375 433.347656 L 631.503906 427.40625 L 628.53125 428.371094 Z M 633.4375 433.347656 "/>
<path style=" stroke:none;fill-rule:evenodd;fill:rgb(99.998474%,99.998474%,99.998474%);fill-opacity:1;" d="M 633.4375 433.347656 L 628.375 429.679688 L 630.214844 427.148438 Z M 633.4375 433.347656 "/>
<path style=" stroke:none;fill-rule:evenodd;fill:rgb(99.998474%,99.998474%,99.998474%);fill-opacity:1;" d="M 626.085938 433.347656 L 631.144531 429.679688 L 629.304688 427.148438 Z M 626.085938 433.347656 "/>
<path style=" stroke:none;fill-rule:evenodd;fill:rgb(99.998474%,99.998474%,99.998474%);fill-opacity:1;" d="M 626.085938 433.347656 L 628.015625 427.40625 L 630.996094 428.371094 Z M 626.085938 433.347656 "/>
<path style=" stroke:none;fill-rule:evenodd;fill:rgb(99.998474%,99.998474%,99.998474%);fill-opacity:1;" d="M 587.621094 458.710938 L 585.6875 464.652344 L 588.65625 465.621094 Z M 587.621094 458.710938 "/>
<path style=" stroke:none;fill-rule:evenodd;fill:rgb(99.998474%,99.998474%,99.998474%);fill-opacity:1;" d="M 587.621094 458.710938 L 589.550781 464.652344 L 586.574219 465.621094 Z M 587.621094 458.710938 "/>
<path style=" stroke:none;fill-rule:evenodd;fill:rgb(99.998474%,99.998474%,99.998474%);fill-opacity:1;" d="M 593.5625 463.03125 L 587.3125 463.03125 L 587.3125 466.152344 Z M 593.5625 463.03125 "/>
<path style=" stroke:none;fill-rule:evenodd;fill:rgb(99.998474%,99.998474%,99.998474%);fill-opacity:1;" d="M 593.5625 463.03125 L 588.507812 466.703125 L 586.671875 464.175781 Z M 593.5625 463.03125 "/>
<path style=" stroke:none;fill-rule:evenodd;fill:rgb(99.998474%,99.998474%,99.998474%);fill-opacity:1;" d="M 581.671875 463.03125 L 586.730469 466.703125 L 588.570312 464.175781 Z M 581.671875 463.03125 "/>
<path style=" stroke:none;fill-rule:evenodd;fill:rgb(99.998474%,99.998474%,99.998474%);fill-opacity:1;" d="M 581.671875 463.03125 L 587.925781 463.03125 L 587.925781 466.152344 Z M 581.671875 463.03125 "/>
<path style=" stroke:none;fill-rule:evenodd;fill:rgb(99.998474%,99.998474%,99.998474%);fill-opacity:1;" d="M 591.296875 470.015625 L 589.363281 464.070312 L 586.390625 465.039062 Z M 591.296875 470.015625 "/>
<path style=" stroke:none;fill-rule:evenodd;fill:rgb(99.998474%,99.998474%,99.998474%);fill-opacity:1;" d="M 591.296875 470.015625 L 586.234375 466.339844 L 588.074219 463.8125 Z M 591.296875 470.015625 "/>
<path style=" stroke:none;fill-rule:evenodd;fill:rgb(99.998474%,99.998474%,99.998474%);fill-opacity:1;" d="M 583.945312 470.015625 L 589.003906 466.339844 L 587.164062 463.8125 Z M 583.945312 470.015625 "/>
<path style=" stroke:none;fill-rule:evenodd;fill:rgb(99.998474%,99.998474%,99.998474%);fill-opacity:1;" d="M 583.945312 470.015625 L 585.875 464.070312 L 588.847656 465.039062 Z M 583.945312 470.015625 "/>
<path style=" stroke:none;fill-rule:evenodd;fill:rgb(99.998474%,99.998474%,99.998474%);fill-opacity:1;" d="M 587.382812 477.578125 L 585.835938 482.332031 L 588.214844 483.105469 Z M 587.382812 477.578125 "/>
<path style=" stroke:none;fill-rule:evenodd;fill:rgb(99.998474%,99.998474%,99.998474%);fill-opacity:1;" d="M 587.382812 477.578125 L 588.929688 482.332031 L 586.546875 483.105469 Z M 587.382812 477.578125 "/>
<path style=" stroke:none;fill-rule:evenodd;fill:rgb(99.998474%,99.998474%,99.998474%);fill-opacity:1;" d="M 592.136719 481.035156 L 587.136719 481.035156 L 587.136719 483.53125 Z M 592.136719 481.035156 "/>
<path style=" stroke:none;fill-rule:evenodd;fill:rgb(99.998474%,99.998474%,99.998474%);fill-opacity:1;" d="M 592.136719 481.035156 L 588.09375 483.972656 L 586.625 481.953125 Z M 592.136719 481.035156 "/>
<path style=" stroke:none;fill-rule:evenodd;fill:rgb(99.998474%,99.998474%,99.998474%);fill-opacity:1;" d="M 582.628906 481.035156 L 586.671875 483.972656 L 588.140625 481.953125 Z M 582.628906 481.035156 "/>
<path style=" stroke:none;fill-rule:evenodd;fill:rgb(99.998474%,99.998474%,99.998474%);fill-opacity:1;" d="M 582.628906 481.035156 L 587.625 481.035156 L 587.625 483.53125 Z M 582.628906 481.035156 "/>
<path style=" stroke:none;fill-rule:evenodd;fill:rgb(99.998474%,99.998474%,99.998474%);fill-opacity:1;" d="M 590.316406 486.625 L 588.773438 481.871094 L 586.398438 482.644531 Z M 590.316406 486.625 "/>
<path style=" stroke:none;fill-rule:evenodd;fill:rgb(99.998474%,99.998474%,99.998474%);fill-opacity:1;" d="M 590.316406 486.625 L 586.277344 483.6875 L 587.742188 481.660156 Z M 590.316406 486.625 "/>
<path style=" stroke:none;fill-rule:evenodd;fill:rgb(99.998474%,99.998474%,99.998474%);fill-opacity:1;" d="M 584.4375 486.625 L 588.488281 483.6875 L 587.015625 481.660156 Z M 584.4375 486.625 "/>
<path style=" stroke:none;fill-rule:evenodd;fill:rgb(99.998474%,99.998474%,99.998474%);fill-opacity:1;" d="M 584.4375 486.625 L 585.984375 481.871094 L 588.363281 482.644531 Z M 584.4375 486.625 "/>
<path style=" stroke:none;fill-rule:evenodd;fill:rgb(99.998474%,99.998474%,99.998474%);fill-opacity:1;" d="M 605 446.152344 L 603.453125 450.90625 L 605.835938 451.679688 Z M 605 446.152344 "/>
<path style=" stroke:none;fill-rule:evenodd;fill:rgb(99.998474%,99.998474%,99.998474%);fill-opacity:1;" d="M 605 446.152344 L 606.546875 450.90625 L 604.167969 451.679688 Z M 605 446.152344 "/>
<path style=" stroke:none;fill-rule:evenodd;fill:rgb(99.998474%,99.998474%,99.998474%);fill-opacity:1;" d="M 609.753906 449.605469 L 604.757812 449.605469 L 604.757812 452.105469 Z M 609.753906 449.605469 "/>
<path style=" stroke:none;fill-rule:evenodd;fill:rgb(99.998474%,99.998474%,99.998474%);fill-opacity:1;" d="M 609.753906 449.605469 L 605.714844 452.546875 L 604.242188 450.519531 Z M 609.753906 449.605469 "/>
<path style=" stroke:none;fill-rule:evenodd;fill:rgb(99.998474%,99.998474%,99.998474%);fill-opacity:1;" d="M 600.246094 449.605469 L 604.289062 452.546875 L 605.761719 450.519531 Z M 600.246094 449.605469 "/>
<path style=" stroke:none;fill-rule:evenodd;fill:rgb(99.998474%,99.998474%,99.998474%);fill-opacity:1;" d="M 600.246094 449.605469 L 605.246094 449.605469 L 605.246094 452.105469 Z M 600.246094 449.605469 "/>
<path style=" stroke:none;fill-rule:evenodd;fill:rgb(99.998474%,99.998474%,99.998474%);fill-opacity:1;" d="M 607.9375 455.199219 L 606.390625 450.4375 L 604.015625 451.210938 Z M 607.9375 455.199219 "/>
<path style=" stroke:none;fill-rule:evenodd;fill:rgb(99.998474%,99.998474%,99.998474%);fill-opacity:1;" d="M 607.9375 455.199219 L 603.894531 452.253906 L 605.359375 450.234375 Z M 607.9375 455.199219 "/>
<path style=" stroke:none;fill-rule:evenodd;fill:rgb(99.998474%,99.998474%,99.998474%);fill-opacity:1;" d="M 602.0625 455.199219 L 606.105469 452.253906 L 604.636719 450.234375 Z M 602.0625 455.199219 "/>
<path style=" stroke:none;fill-rule:evenodd;fill:rgb(99.998474%,99.998474%,99.998474%);fill-opacity:1;" d="M 602.0625 455.199219 L 603.605469 450.4375 L 605.984375 451.210938 Z M 602.0625 455.199219 "/>
<path style=" stroke:none;fill-rule:evenodd;fill:rgb(99.998474%,99.998474%,99.998474%);fill-opacity:1;" d="M 619.046875 436.089844 L 617.113281 442.035156 L 620.089844 443 Z M 619.046875 436.089844 "/>
<path style=" stroke:none;fill-rule:evenodd;fill:rgb(99.998474%,99.998474%,99.998474%);fill-opacity:1;" d="M 619.046875 436.089844 L 620.980469 442.035156 L 618.007812 443 Z M 619.046875 436.089844 "/>
<path style=" stroke:none;fill-rule:evenodd;fill:rgb(99.998474%,99.998474%,99.998474%);fill-opacity:1;" d="M 624.992188 440.40625 L 618.742188 440.40625 L 618.742188 443.535156 Z M 624.992188 440.40625 "/>
<path style=" stroke:none;fill-rule:evenodd;fill:rgb(99.998474%,99.998474%,99.998474%);fill-opacity:1;" d="M 624.992188 440.40625 L 619.933594 444.082031 L 618.09375 441.554688 Z M 624.992188 440.40625 "/>
<path style=" stroke:none;fill-rule:evenodd;fill:rgb(99.998474%,99.998474%,99.998474%);fill-opacity:1;" d="M 613.105469 440.40625 L 618.15625 444.082031 L 619.996094 441.554688 Z M 613.105469 440.40625 "/>
<path style=" stroke:none;fill-rule:evenodd;fill:rgb(99.998474%,99.998474%,99.998474%);fill-opacity:1;" d="M 613.105469 440.40625 L 619.351562 440.40625 L 619.351562 443.535156 Z M 613.105469 440.40625 "/>
<path style=" stroke:none;fill-rule:evenodd;fill:rgb(99.998474%,99.998474%,99.998474%);fill-opacity:1;" d="M 622.722656 447.398438 L 620.789062 441.453125 L 617.816406 442.421875 Z M 622.722656 447.398438 "/>
<path style=" stroke:none;fill-rule:evenodd;fill:rgb(99.998474%,99.998474%,99.998474%);fill-opacity:1;" d="M 622.722656 447.398438 L 617.660156 443.722656 L 619.5 441.195312 Z M 622.722656 447.398438 "/>
<path style=" stroke:none;fill-rule:evenodd;fill:rgb(99.998474%,99.998474%,99.998474%);fill-opacity:1;" d="M 615.375 447.398438 L 620.429688 443.722656 L 618.59375 441.195312 Z M 615.375 447.398438 "/>
<path style=" stroke:none;fill-rule:evenodd;fill:rgb(99.998474%,99.998474%,99.998474%);fill-opacity:1;" d="M 615.375 447.398438 L 617.300781 441.453125 L 620.28125 442.421875 Z M 615.375 447.398438 "/>
<path style=" stroke:none;fill-rule:evenodd;fill:rgb(99.998474%,99.998474%,99.998474%);fill-opacity:1;" d="M 586.90625 442.816406 L 585.359375 447.570312 L 587.734375 448.34375 Z M 586.90625 442.816406 "/>
<path style=" stroke:none;fill-rule:evenodd;fill:rgb(99.998474%,99.998474%,99.998474%);fill-opacity:1;" d="M 586.90625 442.816406 L 588.445312 447.570312 L 586.074219 448.34375 Z M 586.90625 442.816406 "/>
<path style=" stroke:none;fill-rule:evenodd;fill:rgb(99.998474%,99.998474%,99.998474%);fill-opacity:1;" d="M 591.660156 446.273438 L 586.664062 446.273438 L 586.664062 448.769531 Z M 591.660156 446.273438 "/>
<path style=" stroke:none;fill-rule:evenodd;fill:rgb(99.998474%,99.998474%,99.998474%);fill-opacity:1;" d="M 591.660156 446.273438 L 587.613281 449.210938 L 586.148438 447.1875 Z M 591.660156 446.273438 "/>
<path style=" stroke:none;fill-rule:evenodd;fill:rgb(99.998474%,99.998474%,99.998474%);fill-opacity:1;" d="M 582.144531 446.273438 L 586.195312 449.210938 L 587.667969 447.1875 Z M 582.144531 446.273438 "/>
<path style=" stroke:none;fill-rule:evenodd;fill:rgb(99.998474%,99.998474%,99.998474%);fill-opacity:1;" d="M 582.144531 446.273438 L 587.152344 446.273438 L 587.152344 448.769531 Z M 582.144531 446.273438 "/>
<path style=" stroke:none;fill-rule:evenodd;fill:rgb(99.998474%,99.998474%,99.998474%);fill-opacity:1;" d="M 589.84375 451.863281 L 588.296875 447.109375 L 585.921875 447.882812 Z M 589.84375 451.863281 "/>
<path style=" stroke:none;fill-rule:evenodd;fill:rgb(99.998474%,99.998474%,99.998474%);fill-opacity:1;" d="M 589.84375 451.863281 L 585.800781 448.925781 L 587.265625 446.898438 Z M 589.84375 451.863281 "/>
<path style=" stroke:none;fill-rule:evenodd;fill:rgb(99.998474%,99.998474%,99.998474%);fill-opacity:1;" d="M 583.964844 451.863281 L 588.011719 448.925781 L 586.542969 446.898438 Z M 583.964844 451.863281 "/>
<path style=" stroke:none;fill-rule:evenodd;fill:rgb(99.998474%,99.998474%,99.998474%);fill-opacity:1;" d="M 583.964844 451.863281 L 585.511719 447.109375 L 587.890625 447.882812 Z M 583.964844 451.863281 "/>
<path style=" stroke:none;fill-rule:evenodd;fill:rgb(99.998474%,99.998474%,99.998474%);fill-opacity:1;" d="M 433.335938 352.28125 L 431.402344 358.226562 L 434.375 359.191406 Z M 433.335938 352.28125 "/>
<path style=" stroke:none;fill-rule:evenodd;fill:rgb(99.998474%,99.998474%,99.998474%);fill-opacity:1;" d="M 433.335938 352.28125 L 435.261719 358.226562 L 432.292969 359.191406 Z M 433.335938 352.28125 "/>
<path style=" stroke:none;fill-rule:evenodd;fill:rgb(99.998474%,99.998474%,99.998474%);fill-opacity:1;" d="M 439.277344 356.601562 L 433.023438 356.601562 L 433.023438 359.726562 Z M 439.277344 356.601562 "/>
<path style=" stroke:none;fill-rule:evenodd;fill:rgb(99.998474%,99.998474%,99.998474%);fill-opacity:1;" d="M 439.277344 356.601562 L 434.222656 360.277344 L 432.386719 357.746094 Z M 439.277344 356.601562 "/>
<path style=" stroke:none;fill-rule:evenodd;fill:rgb(99.998474%,99.998474%,99.998474%);fill-opacity:1;" d="M 427.390625 356.601562 L 432.449219 360.277344 L 434.285156 357.746094 Z M 427.390625 356.601562 "/>
<path style=" stroke:none;fill-rule:evenodd;fill:rgb(99.998474%,99.998474%,99.998474%);fill-opacity:1;" d="M 427.390625 356.601562 L 433.640625 356.601562 L 433.640625 359.726562 Z M 427.390625 356.601562 "/>
<path style=" stroke:none;fill-rule:evenodd;fill:rgb(99.998474%,99.998474%,99.998474%);fill-opacity:1;" d="M 437.003906 363.585938 L 435.078125 357.644531 L 432.101562 358.609375 Z M 437.003906 363.585938 "/>
<path style=" stroke:none;fill-rule:evenodd;fill:rgb(99.998474%,99.998474%,99.998474%);fill-opacity:1;" d="M 437.003906 363.585938 L 431.953125 359.917969 L 433.789062 357.386719 Z M 437.003906 363.585938 "/>
<path style=" stroke:none;fill-rule:evenodd;fill:rgb(99.998474%,99.998474%,99.998474%);fill-opacity:1;" d="M 429.660156 363.585938 L 434.714844 359.917969 L 432.882812 357.386719 Z M 429.660156 363.585938 "/>
<path style=" stroke:none;fill-rule:evenodd;fill:rgb(99.998474%,99.998474%,99.998474%);fill-opacity:1;" d="M 429.660156 363.585938 L 431.59375 357.644531 L 434.5625 358.609375 Z M 429.660156 363.585938 "/>
<path style=" stroke:none;fill-rule:evenodd;fill:rgb(99.998474%,99.998474%,99.998474%);fill-opacity:1;" d="M 547.621094 337.578125 L 546.074219 342.332031 L 548.449219 343.105469 Z M 547.621094 337.578125 "/>
<path style=" stroke:none;fill-rule:evenodd;fill:rgb(99.998474%,99.998474%,99.998474%);fill-opacity:1;" d="M 547.621094 337.578125 L 549.167969 342.332031 L 546.785156 343.105469 Z M 547.621094 337.578125 "/>
<path style=" stroke:none;fill-rule:evenodd;fill:rgb(99.998474%,99.998474%,99.998474%);fill-opacity:1;" d="M 552.375 341.035156 L 547.375 341.035156 L 547.375 343.53125 Z M 552.375 341.035156 "/>
<path style=" stroke:none;fill-rule:evenodd;fill:rgb(99.998474%,99.998474%,99.998474%);fill-opacity:1;" d="M 552.375 341.035156 L 548.328125 343.972656 L 546.859375 341.953125 Z M 552.375 341.035156 "/>
<path style=" stroke:none;fill-rule:evenodd;fill:rgb(99.998474%,99.998474%,99.998474%);fill-opacity:1;" d="M 542.867188 341.035156 L 546.910156 343.972656 L 548.378906 341.953125 Z M 542.867188 341.035156 "/>
<path style=" stroke:none;fill-rule:evenodd;fill:rgb(99.998474%,99.998474%,99.998474%);fill-opacity:1;" d="M 542.867188 341.035156 L 547.863281 341.035156 L 547.863281 343.53125 Z M 542.867188 341.035156 "/>
<path style=" stroke:none;fill-rule:evenodd;fill:rgb(99.998474%,99.998474%,99.998474%);fill-opacity:1;" d="M 550.558594 346.625 L 549.011719 341.871094 L 546.636719 342.640625 Z M 550.558594 346.625 "/>
<path style=" stroke:none;fill-rule:evenodd;fill:rgb(99.998474%,99.998474%,99.998474%);fill-opacity:1;" d="M 550.558594 346.625 L 546.515625 343.6875 L 547.980469 341.660156 Z M 550.558594 346.625 "/>
<path style=" stroke:none;fill-rule:evenodd;fill:rgb(99.998474%,99.998474%,99.998474%);fill-opacity:1;" d="M 544.675781 346.625 L 548.726562 343.6875 L 547.253906 341.660156 Z M 544.675781 346.625 "/>
<path style=" stroke:none;fill-rule:evenodd;fill:rgb(99.998474%,99.998474%,99.998474%);fill-opacity:1;" d="M 544.675781 346.625 L 546.222656 341.871094 L 548.605469 342.640625 Z M 544.675781 346.625 "/>
<path style=" stroke:none;fill-rule:evenodd;fill:rgb(99.998474%,99.998474%,99.998474%);fill-opacity:1;" d="M 500 422.464844 L 497.679688 429.59375 L 501.25 430.75 Z M 500 422.464844 "/>
<path style=" stroke:none;fill-rule:evenodd;fill:rgb(99.998474%,99.998474%,99.998474%);fill-opacity:1;" d="M 500 422.464844 L 502.320312 429.59375 L 498.75 430.75 Z M 500 422.464844 "/>
<path style=" stroke:none;fill-rule:evenodd;fill:rgb(99.998474%,99.998474%,99.998474%);fill-opacity:1;" d="M 507.132812 427.644531 L 499.632812 427.644531 L 499.632812 431.394531 Z M 507.132812 427.644531 "/>
<path style=" stroke:none;fill-rule:evenodd;fill:rgb(99.998474%,99.998474%,99.998474%);fill-opacity:1;" d="M 507.132812 427.644531 L 501.0625 432.050781 L 498.859375 429.015625 Z M 507.132812 427.644531 "/>
<path style=" stroke:none;fill-rule:evenodd;fill:rgb(99.998474%,99.998474%,99.998474%);fill-opacity:1;" d="M 492.867188 427.644531 L 498.9375 432.050781 L 501.140625 429.015625 Z M 492.867188 427.644531 "/>
<path style=" stroke:none;fill-rule:evenodd;fill:rgb(99.998474%,99.998474%,99.998474%);fill-opacity:1;" d="M 492.867188 427.644531 L 500.367188 427.644531 L 500.367188 431.394531 Z M 492.867188 427.644531 "/>
<path style=" stroke:none;fill-rule:evenodd;fill:rgb(99.998474%,99.998474%,99.998474%);fill-opacity:1;" d="M 504.40625 436.027344 L 502.089844 428.890625 L 498.519531 430.050781 Z M 504.40625 436.027344 "/>
<path style=" stroke:none;fill-rule:evenodd;fill:rgb(99.998474%,99.998474%,99.998474%);fill-opacity:1;" d="M 504.40625 436.027344 L 498.339844 431.617188 L 500.542969 428.585938 Z M 504.40625 436.027344 "/>
<path style=" stroke:none;fill-rule:evenodd;fill:rgb(99.998474%,99.998474%,99.998474%);fill-opacity:1;" d="M 495.59375 436.027344 L 501.660156 431.617188 L 499.457031 428.585938 Z M 495.59375 436.027344 "/>
<path style=" stroke:none;fill-rule:evenodd;fill:rgb(99.998474%,99.998474%,99.998474%);fill-opacity:1;" d="M 495.59375 436.027344 L 497.910156 428.890625 L 501.480469 430.050781 Z M 495.59375 436.027344 "/>
<path style=" stroke:none;fill-rule:evenodd;fill:rgb(99.998474%,99.998474%,99.998474%);fill-opacity:1;" d="M 520.234375 388.949219 L 518.304688 394.890625 L 521.28125 395.859375 Z M 520.234375 388.949219 "/>
<path style=" stroke:none;fill-rule:evenodd;fill:rgb(99.998474%,99.998474%,99.998474%);fill-opacity:1;" d="M 520.234375 388.949219 L 522.171875 394.890625 L 519.199219 395.859375 Z M 520.234375 388.949219 "/>
<path style=" stroke:none;fill-rule:evenodd;fill:rgb(99.998474%,99.998474%,99.998474%);fill-opacity:1;" d="M 526.183594 393.269531 L 519.929688 393.269531 L 519.929688 396.394531 Z M 526.183594 393.269531 "/>
<path style=" stroke:none;fill-rule:evenodd;fill:rgb(99.998474%,99.998474%,99.998474%);fill-opacity:1;" d="M 526.183594 393.269531 L 521.125 396.9375 L 519.285156 394.414062 Z M 526.183594 393.269531 "/>
<path style=" stroke:none;fill-rule:evenodd;fill:rgb(99.998474%,99.998474%,99.998474%);fill-opacity:1;" d="M 514.296875 393.269531 L 519.347656 396.9375 L 521.1875 394.414062 Z M 514.296875 393.269531 "/>
<path style=" stroke:none;fill-rule:evenodd;fill:rgb(99.998474%,99.998474%,99.998474%);fill-opacity:1;" d="M 514.296875 393.269531 L 520.542969 393.269531 L 520.542969 396.394531 Z M 514.296875 393.269531 "/>
<path style=" stroke:none;fill-rule:evenodd;fill:rgb(99.998474%,99.998474%,99.998474%);fill-opacity:1;" d="M 523.910156 400.253906 L 521.980469 394.3125 L 519.007812 395.277344 Z M 523.910156 400.253906 "/>
<path style=" stroke:none;fill-rule:evenodd;fill:rgb(99.998474%,99.998474%,99.998474%);fill-opacity:1;" d="M 523.910156 400.253906 L 518.851562 396.578125 L 520.691406 394.054688 Z M 523.910156 400.253906 "/>
<path style=" stroke:none;fill-rule:evenodd;fill:rgb(99.998474%,99.998474%,99.998474%);fill-opacity:1;" d="M 516.566406 400.253906 L 521.621094 396.578125 L 519.78125 394.054688 Z M 516.566406 400.253906 "/>
<path style=" stroke:none;fill-rule:evenodd;fill:rgb(99.998474%,99.998474%,99.998474%);fill-opacity:1;" d="M 516.566406 400.253906 L 518.492188 394.3125 L 521.46875 395.277344 Z M 516.566406 400.253906 "/>
<path style=" stroke:none;fill-rule:evenodd;fill:rgb(99.998474%,99.998474%,99.998474%);fill-opacity:1;" d="M 500 373.234375 L 498.066406 379.175781 L 501.039062 380.144531 Z M 500 373.234375 "/>
<path style=" stroke:none;fill-rule:evenodd;fill:rgb(99.998474%,99.998474%,99.998474%);fill-opacity:1;" d="M 500 373.234375 L 501.933594 379.175781 L 498.960938 380.144531 Z M 500 373.234375 "/>
<path style=" stroke:none;fill-rule:evenodd;fill:rgb(99.998474%,99.998474%,99.998474%);fill-opacity:1;" d="M 505.941406 377.554688 L 499.695312 377.554688 L 499.695312 380.675781 Z M 505.941406 377.554688 "/>
<path style=" stroke:none;fill-rule:evenodd;fill:rgb(99.998474%,99.998474%,99.998474%);fill-opacity:1;" d="M 505.941406 377.554688 L 500.890625 381.222656 L 499.050781 378.703125 Z M 505.941406 377.554688 "/>
<path style=" stroke:none;fill-rule:evenodd;fill:rgb(99.998474%,99.998474%,99.998474%);fill-opacity:1;" d="M 494.058594 377.554688 L 499.109375 381.222656 L 500.949219 378.703125 Z M 494.058594 377.554688 "/>
<path style=" stroke:none;fill-rule:evenodd;fill:rgb(99.998474%,99.998474%,99.998474%);fill-opacity:1;" d="M 494.058594 377.554688 L 500.304688 377.554688 L 500.304688 380.675781 Z M 494.058594 377.554688 "/>
<path style=" stroke:none;fill-rule:evenodd;fill:rgb(99.998474%,99.998474%,99.998474%);fill-opacity:1;" d="M 503.675781 384.539062 L 501.742188 378.597656 L 498.773438 379.5625 Z M 503.675781 384.539062 "/>
<path style=" stroke:none;fill-rule:evenodd;fill:rgb(99.998474%,99.998474%,99.998474%);fill-opacity:1;" d="M 503.675781 384.539062 L 498.617188 380.863281 L 500.453125 378.34375 Z M 503.675781 384.539062 "/>
<path style=" stroke:none;fill-rule:evenodd;fill:rgb(99.998474%,99.998474%,99.998474%);fill-opacity:1;" d="M 496.324219 384.539062 L 501.382812 380.863281 L 499.546875 378.34375 Z M 496.324219 384.539062 "/>
<path style=" stroke:none;fill-rule:evenodd;fill:rgb(99.998474%,99.998474%,99.998474%);fill-opacity:1;" d="M 496.324219 384.539062 L 498.257812 378.597656 L 501.226562 379.5625 Z M 496.324219 384.539062 "/>
<path style=" stroke:none;fill-rule:evenodd;fill:rgb(99.998474%,99.998474%,99.998474%);fill-opacity:1;" d="M 482.382812 390.195312 L 480.835938 394.949219 L 483.214844 395.722656 Z M 482.382812 390.195312 "/>
<path style=" stroke:none;fill-rule:evenodd;fill:rgb(99.998474%,99.998474%,99.998474%);fill-opacity:1;" d="M 482.382812 390.195312 L 483.925781 394.949219 L 481.546875 395.722656 Z M 482.382812 390.195312 "/>
<path style=" stroke:none;fill-rule:evenodd;fill:rgb(99.998474%,99.998474%,99.998474%);fill-opacity:1;" d="M 487.136719 393.65625 L 482.136719 393.65625 L 482.136719 396.152344 Z M 487.136719 393.65625 "/>
<path style=" stroke:none;fill-rule:evenodd;fill:rgb(99.998474%,99.998474%,99.998474%);fill-opacity:1;" d="M 487.136719 393.65625 L 483.09375 396.59375 L 481.621094 394.570312 Z M 487.136719 393.65625 "/>
<path style=" stroke:none;fill-rule:evenodd;fill:rgb(99.998474%,99.998474%,99.998474%);fill-opacity:1;" d="M 477.625 393.65625 L 481.667969 396.59375 L 483.140625 394.570312 Z M 477.625 393.65625 "/>
<path style=" stroke:none;fill-rule:evenodd;fill:rgb(99.998474%,99.998474%,99.998474%);fill-opacity:1;" d="M 477.625 393.65625 L 482.625 393.65625 L 482.625 396.152344 Z M 477.625 393.65625 "/>
<path style=" stroke:none;fill-rule:evenodd;fill:rgb(99.998474%,99.998474%,99.998474%);fill-opacity:1;" d="M 485.316406 399.242188 L 483.769531 394.488281 L 481.398438 395.261719 Z M 485.316406 399.242188 "/>
<path style=" stroke:none;fill-rule:evenodd;fill:rgb(99.998474%,99.998474%,99.998474%);fill-opacity:1;" d="M 485.316406 399.242188 L 481.277344 396.308594 L 482.746094 394.28125 Z M 485.316406 399.242188 "/>
<path style=" stroke:none;fill-rule:evenodd;fill:rgb(99.998474%,99.998474%,99.998474%);fill-opacity:1;" d="M 479.445312 399.242188 L 483.484375 396.308594 L 482.015625 394.28125 Z M 479.445312 399.242188 "/>
<path style=" stroke:none;fill-rule:evenodd;fill:rgb(99.998474%,99.998474%,99.998474%);fill-opacity:1;" d="M 479.445312 399.242188 L 480.984375 394.488281 L 483.363281 395.261719 Z M 479.445312 399.242188 "/>
<path style=" stroke:none;fill-rule:evenodd;fill:rgb(99.998474%,99.998474%,99.998474%);fill-opacity:1;" d="M 491.191406 403.765625 L 490.085938 407.164062 L 491.789062 407.71875 Z M 491.191406 403.765625 "/>
<path style=" stroke:none;fill-rule:evenodd;fill:rgb(99.998474%,99.998474%,99.998474%);fill-opacity:1;" d="M 491.191406 403.765625 L 492.296875 407.164062 L 490.59375 407.71875 Z M 491.191406 403.765625 "/>
<path style=" stroke:none;fill-rule:evenodd;fill:rgb(99.998474%,99.998474%,99.998474%);fill-opacity:1;" d="M 494.589844 406.234375 L 491.015625 406.234375 L 491.015625 408.027344 Z M 494.589844 406.234375 "/>
<path style=" stroke:none;fill-rule:evenodd;fill:rgb(99.998474%,99.998474%,99.998474%);fill-opacity:1;" d="M 494.589844 406.234375 L 491.699219 408.335938 L 490.648438 406.890625 Z M 494.589844 406.234375 "/>
<path style=" stroke:none;fill-rule:evenodd;fill:rgb(99.998474%,99.998474%,99.998474%);fill-opacity:1;" d="M 487.792969 406.234375 L 490.683594 408.335938 L 491.734375 406.890625 Z M 487.792969 406.234375 "/>
<path style=" stroke:none;fill-rule:evenodd;fill:rgb(99.998474%,99.998474%,99.998474%);fill-opacity:1;" d="M 487.792969 406.234375 L 491.367188 406.234375 L 491.367188 408.027344 Z M 487.792969 406.234375 "/>
<path style=" stroke:none;fill-rule:evenodd;fill:rgb(99.998474%,99.998474%,99.998474%);fill-opacity:1;" d="M 493.292969 410.230469 L 492.1875 406.832031 L 490.484375 407.386719 Z M 493.292969 410.230469 "/>
<path style=" stroke:none;fill-rule:evenodd;fill:rgb(99.998474%,99.998474%,99.998474%);fill-opacity:1;" d="M 493.292969 410.230469 L 490.398438 408.132812 L 491.449219 406.6875 Z M 493.292969 410.230469 "/>
<path style=" stroke:none;fill-rule:evenodd;fill:rgb(99.998474%,99.998474%,99.998474%);fill-opacity:1;" d="M 489.089844 410.230469 L 491.976562 408.132812 L 490.933594 406.6875 Z M 489.089844 410.230469 "/>
<path style=" stroke:none;fill-rule:evenodd;fill:rgb(99.998474%,99.998474%,99.998474%);fill-opacity:1;" d="M 489.089844 410.230469 L 490.195312 406.832031 L 491.894531 407.386719 Z M 489.089844 410.230469 "/>
<path style=" stroke:none;fill-rule:evenodd;fill:rgb(99.998474%,99.998474%,99.998474%);fill-opacity:1;" d="M 552.382812 463 L 550.449219 468.9375 L 553.421875 469.90625 Z M 552.382812 463 "/>
<path style=" stroke:none;fill-rule:evenodd;fill:rgb(99.998474%,99.998474%,99.998474%);fill-opacity:1;" d="M 552.382812 463 L 554.3125 468.9375 L 551.335938 469.90625 Z M 552.382812 463 "/>
<path style=" stroke:none;fill-rule:evenodd;fill:rgb(99.998474%,99.998474%,99.998474%);fill-opacity:1;" d="M 558.324219 467.316406 L 552.078125 467.316406 L 552.078125 470.4375 Z M 558.324219 467.316406 "/>
<path style=" stroke:none;fill-rule:evenodd;fill:rgb(99.998474%,99.998474%,99.998474%);fill-opacity:1;" d="M 558.324219 467.316406 L 553.269531 470.984375 L 551.433594 468.457031 Z M 558.324219 467.316406 "/>
<path style=" stroke:none;fill-rule:evenodd;fill:rgb(99.998474%,99.998474%,99.998474%);fill-opacity:1;" d="M 546.433594 467.316406 L 551.492188 470.984375 L 553.332031 468.457031 Z M 546.433594 467.316406 "/>
<path style=" stroke:none;fill-rule:evenodd;fill:rgb(99.998474%,99.998474%,99.998474%);fill-opacity:1;" d="M 546.433594 467.316406 L 552.6875 467.316406 L 552.6875 470.4375 Z M 546.433594 467.316406 "/>
<path style=" stroke:none;fill-rule:evenodd;fill:rgb(99.998474%,99.998474%,99.998474%);fill-opacity:1;" d="M 556.058594 474.300781 L 554.125 468.355469 L 551.15625 469.324219 Z M 556.058594 474.300781 "/>
<path style=" stroke:none;fill-rule:evenodd;fill:rgb(99.998474%,99.998474%,99.998474%);fill-opacity:1;" d="M 556.058594 474.300781 L 551 470.625 L 552.835938 468.097656 Z M 556.058594 474.300781 "/>
<path style=" stroke:none;fill-rule:evenodd;fill:rgb(99.998474%,99.998474%,99.998474%);fill-opacity:1;" d="M 548.707031 474.300781 L 553.765625 470.625 L 551.925781 468.097656 Z M 548.707031 474.300781 "/>
<path style=" stroke:none;fill-rule:evenodd;fill:rgb(99.998474%,99.998474%,99.998474%);fill-opacity:1;" d="M 548.707031 474.300781 L 550.640625 468.355469 L 553.609375 469.324219 Z M 548.707031 474.300781 "/>
<path style=" stroke:none;fill-rule:evenodd;fill:rgb(99.998474%,99.998474%,99.998474%);fill-opacity:1;" d="M 567.382812 448.769531 L 565.835938 453.523438 L 568.210938 454.296875 Z M 567.382812 448.769531 "/>
<path style=" stroke:none;fill-rule:evenodd;fill:rgb(99.998474%,99.998474%,99.998474%);fill-opacity:1;" d="M 567.382812 448.769531 L 568.929688 453.523438 L 566.546875 454.296875 Z M 567.382812 448.769531 "/>
<path style=" stroke:none;fill-rule:evenodd;fill:rgb(99.998474%,99.998474%,99.998474%);fill-opacity:1;" d="M 572.136719 452.222656 L 567.140625 452.222656 L 567.140625 454.722656 Z M 572.136719 452.222656 "/>
<path style=" stroke:none;fill-rule:evenodd;fill:rgb(99.998474%,99.998474%,99.998474%);fill-opacity:1;" d="M 572.136719 452.222656 L 568.089844 455.164062 L 566.625 453.144531 Z M 572.136719 452.222656 "/>
<path style=" stroke:none;fill-rule:evenodd;fill:rgb(99.998474%,99.998474%,99.998474%);fill-opacity:1;" d="M 562.628906 452.222656 L 566.671875 455.164062 L 568.140625 453.144531 Z M 562.628906 452.222656 "/>
<path style=" stroke:none;fill-rule:evenodd;fill:rgb(99.998474%,99.998474%,99.998474%);fill-opacity:1;" d="M 562.628906 452.222656 L 567.625 452.222656 L 567.625 454.722656 Z M 562.628906 452.222656 "/>
<path style=" stroke:none;fill-rule:evenodd;fill:rgb(99.998474%,99.998474%,99.998474%);fill-opacity:1;" d="M 570.320312 457.816406 L 568.773438 453.0625 L 566.398438 453.828125 Z M 570.320312 457.816406 "/>
<path style=" stroke:none;fill-rule:evenodd;fill:rgb(99.998474%,99.998474%,99.998474%);fill-opacity:1;" d="M 570.320312 457.816406 L 566.277344 454.875 L 567.742188 452.851562 Z M 570.320312 457.816406 "/>
<path style=" stroke:none;fill-rule:evenodd;fill:rgb(99.998474%,99.998474%,99.998474%);fill-opacity:1;" d="M 564.4375 457.816406 L 568.488281 454.875 L 567.015625 452.851562 Z M 564.4375 457.816406 "/>
<path style=" stroke:none;fill-rule:evenodd;fill:rgb(99.998474%,99.998474%,99.998474%);fill-opacity:1;" d="M 564.4375 457.816406 L 565.984375 453.0625 L 568.367188 453.828125 Z M 564.4375 457.816406 "/>
<path style=" stroke:none;fill-rule:evenodd;fill:rgb(99.998474%,99.998474%,99.998474%);fill-opacity:1;" d="M 538.574219 444.484375 L 537.027344 449.238281 L 539.402344 450.011719 Z M 538.574219 444.484375 "/>
<path style=" stroke:none;fill-rule:evenodd;fill:rgb(99.998474%,99.998474%,99.998474%);fill-opacity:1;" d="M 538.574219 444.484375 L 540.113281 449.238281 L 537.738281 450.011719 Z M 538.574219 444.484375 "/>
<path style=" stroke:none;fill-rule:evenodd;fill:rgb(99.998474%,99.998474%,99.998474%);fill-opacity:1;" d="M 543.328125 447.9375 L 538.328125 447.9375 L 538.328125 450.4375 Z M 543.328125 447.9375 "/>
<path style=" stroke:none;fill-rule:evenodd;fill:rgb(99.998474%,99.998474%,99.998474%);fill-opacity:1;" d="M 543.328125 447.9375 L 539.28125 450.878906 L 537.8125 448.859375 Z M 543.328125 447.9375 "/>
<path style=" stroke:none;fill-rule:evenodd;fill:rgb(99.998474%,99.998474%,99.998474%);fill-opacity:1;" d="M 533.8125 447.9375 L 537.863281 450.878906 L 539.332031 448.859375 Z M 533.8125 447.9375 "/>
<path style=" stroke:none;fill-rule:evenodd;fill:rgb(99.998474%,99.998474%,99.998474%);fill-opacity:1;" d="M 533.8125 447.9375 L 538.816406 447.9375 L 538.816406 450.4375 Z M 533.8125 447.9375 "/>
<path style=" stroke:none;fill-rule:evenodd;fill:rgb(99.998474%,99.998474%,99.998474%);fill-opacity:1;" d="M 541.511719 453.53125 L 539.964844 448.777344 L 537.589844 449.550781 Z M 541.511719 453.53125 "/>
<path style=" stroke:none;fill-rule:evenodd;fill:rgb(99.998474%,99.998474%,99.998474%);fill-opacity:1;" d="M 541.511719 453.53125 L 537.460938 450.585938 L 538.933594 448.566406 Z M 541.511719 453.53125 "/>
<path style=" stroke:none;fill-rule:evenodd;fill:rgb(99.998474%,99.998474%,99.998474%);fill-opacity:1;" d="M 535.628906 453.53125 L 539.679688 450.585938 L 538.207031 448.566406 Z M 535.628906 453.53125 "/>
<path style=" stroke:none;fill-rule:evenodd;fill:rgb(99.998474%,99.998474%,99.998474%);fill-opacity:1;" d="M 535.628906 453.53125 L 537.175781 448.777344 L 539.558594 449.550781 Z M 535.628906 453.53125 "/>
<path style=" stroke:none;fill-rule:evenodd;fill:rgb(99.998474%,99.998474%,99.998474%);fill-opacity:1;" d="M 429.761719 436.746094 L 427.441406 443.878906 L 431.011719 445.039062 Z M 429.761719 436.746094 "/>
<path style=" stroke:none;fill-rule:evenodd;fill:rgb(99.998474%,99.998474%,99.998474%);fill-opacity:1;" d="M 429.761719 436.746094 L 432.082031 443.878906 L 428.515625 445.039062 Z M 429.761719 436.746094 "/>
<path style=" stroke:none;fill-rule:evenodd;fill:rgb(99.998474%,99.998474%,99.998474%);fill-opacity:1;" d="M 436.894531 441.925781 L 429.394531 441.925781 L 429.394531 445.675781 Z M 436.894531 441.925781 "/>
<path style=" stroke:none;fill-rule:evenodd;fill:rgb(99.998474%,99.998474%,99.998474%);fill-opacity:1;" d="M 436.894531 441.925781 L 430.828125 446.335938 L 428.625 443.304688 Z M 436.894531 441.925781 "/>
<path style=" stroke:none;fill-rule:evenodd;fill:rgb(99.998474%,99.998474%,99.998474%);fill-opacity:1;" d="M 422.628906 441.925781 L 428.699219 446.335938 L 430.902344 443.304688 Z M 422.628906 441.925781 "/>
<path style=" stroke:none;fill-rule:evenodd;fill:rgb(99.998474%,99.998474%,99.998474%);fill-opacity:1;" d="M 422.628906 441.925781 L 430.128906 441.925781 L 430.128906 445.675781 Z M 422.628906 441.925781 "/>
<path style=" stroke:none;fill-rule:evenodd;fill:rgb(99.998474%,99.998474%,99.998474%);fill-opacity:1;" d="M 434.171875 450.316406 L 431.851562 443.183594 L 428.28125 444.34375 Z M 434.171875 450.316406 "/>
<path style=" stroke:none;fill-rule:evenodd;fill:rgb(99.998474%,99.998474%,99.998474%);fill-opacity:1;" d="M 434.171875 450.316406 L 428.101562 445.90625 L 430.304688 442.871094 Z M 434.171875 450.316406 "/>
<path style=" stroke:none;fill-rule:evenodd;fill:rgb(99.998474%,99.998474%,99.998474%);fill-opacity:1;" d="M 425.355469 450.316406 L 431.421875 445.90625 L 429.21875 442.871094 Z M 425.355469 450.316406 "/>
<path style=" stroke:none;fill-rule:evenodd;fill:rgb(99.998474%,99.998474%,99.998474%);fill-opacity:1;" d="M 425.355469 450.316406 L 427.671875 443.183594 L 431.242188 444.34375 Z M 425.355469 450.316406 "/>
<path style=" stroke:none;fill-rule:evenodd;fill:rgb(99.998474%,99.998474%,99.998474%);fill-opacity:1;" d="M 500 485.792969 L 499.226562 488.171875 L 500.414062 488.558594 Z M 500 485.792969 "/>
<path style=" stroke:none;fill-rule:evenodd;fill:rgb(99.998474%,99.998474%,99.998474%);fill-opacity:1;" d="M 500 485.792969 L 500.773438 488.171875 L 499.585938 488.558594 Z M 500 485.792969 "/>
<path style=" stroke:none;fill-rule:evenodd;fill:rgb(99.998474%,99.998474%,99.998474%);fill-opacity:1;" d="M 502.378906 487.519531 L 499.878906 487.519531 L 499.878906 488.765625 Z M 502.378906 487.519531 "/>
<path style=" stroke:none;fill-rule:evenodd;fill:rgb(99.998474%,99.998474%,99.998474%);fill-opacity:1;" d="M 502.378906 487.519531 L 500.351562 488.992188 L 499.621094 487.980469 Z M 502.378906 487.519531 "/>
<path style=" stroke:none;fill-rule:evenodd;fill:rgb(99.998474%,99.998474%,99.998474%);fill-opacity:1;" d="M 497.621094 487.519531 L 499.648438 488.992188 L 500.378906 487.980469 Z M 497.621094 487.519531 "/>
<path style=" stroke:none;fill-rule:evenodd;fill:rgb(99.998474%,99.998474%,99.998474%);fill-opacity:1;" d="M 497.621094 487.519531 L 500.121094 487.519531 L 500.121094 488.765625 Z M 497.621094 487.519531 "/>
<path style=" stroke:none;fill-rule:evenodd;fill:rgb(99.998474%,99.998474%,99.998474%);fill-opacity:1;" d="M 501.472656 490.3125 L 500.699219 487.941406 L 499.503906 488.328125 Z M 501.472656 490.3125 "/>
<path style=" stroke:none;fill-rule:evenodd;fill:rgb(99.998474%,99.998474%,99.998474%);fill-opacity:1;" d="M 501.472656 490.3125 L 499.445312 488.847656 L 500.183594 487.832031 Z M 501.472656 490.3125 "/>
<path style=" stroke:none;fill-rule:evenodd;fill:rgb(99.998474%,99.998474%,99.998474%);fill-opacity:1;" d="M 498.527344 490.3125 L 500.554688 488.847656 L 499.816406 487.832031 Z M 498.527344 490.3125 "/>
<path style=" stroke:none;fill-rule:evenodd;fill:rgb(99.998474%,99.998474%,99.998474%);fill-opacity:1;" d="M 498.527344 490.3125 L 499.300781 487.941406 L 500.496094 488.328125 Z M 498.527344 490.3125 "/>
<path style=" stroke:none;fill-rule:evenodd;fill:rgb(99.606323%,87.449646%,0%);fill-opacity:1;" d="M 85 351.390625 L 500 616.386719 L 915 351.390625 L 500 86.390625 Z M 675 351.390625 C 675 448.039062 596.652344 526.386719 500 526.386719 C 403.347656 526.386719 325 448.039062 325 351.390625 C 325 254.738281 403.347656 176.390625 500 176.390625 C 596.652344 176.390625 675 254.738281 675 351.390625 Z M 675 351.390625 "/>
<path style=" stroke:none;fill-rule:evenodd;fill:rgb(0%,60.783386%,22.744751%);fill-opacity:1;" d="M 0 1.390625 L 1000 1.390625 L 1000 701.386719 L 0 701.386719 Z M 85 351.390625 L 500 616.386719 L 915 351.390625 L 500 86.390625 Z M 85 351.390625 "/>
</g>
</svg>
