<?xml version="1.0" encoding="UTF-8"?>
<svg xmlns="http://www.w3.org/2000/svg" xmlns:xlink="http://www.w3.org/1999/xlink" viewBox="0 0 1000 500" version="1.1">
<g id="surface229">
<rect x="0" y="0" width="1000" height="500" style="fill:rgb(0%,14.117432%,49.01886%);fill-opacity:1;stroke:none;"/>
<path style="fill:none;stroke-width:1;stroke-linecap:square;stroke-linejoin:miter;stroke:rgb(0%,14.117432%,49.01886%);stroke-opacity:1;stroke-miterlimit:3.239307;" d="M 1000 500 L 1000 0 L 0 0 L 0 500 Z M 1000 500 "/>
<path style=" stroke:none;fill-rule:evenodd;fill:rgb(99.998474%,99.998474%,99.998474%);fill-opacity:1;" d="M 646.882812 120.054688 L 855.550781 119.28125 L 855.164062 305.109375 C 855.164062 305.109375 862.519531 333.371094 767.671875 376.34375 C 801.738281 372.859375 838.902344 336.46875 838.902344 336.46875 C 838.902344 336.46875 854.003906 317.109375 861.359375 327.949219 C 868.714844 338.789062 875.683594 344.210938 881.101562 348.46875 C 886.523438 352.726562 890.78125 364.339844 882.652344 372.859375 C 874.519531 381.375 861.746094 382.535156 858.261719 372.082031 C 852.839844 374.792969 819.546875 415.054688 751.410156 416.992188 C 682.113281 415.832031 644.171875 371.695312 644.171875 371.695312 C 644.171875 371.695312 634.882812 386.40625 621.71875 374.792969 C 608.945312 359.695312 618.621094 350.015625 618.621094 350.015625 C 618.621094 350.015625 629.460938 343.824219 632.558594 339.5625 C 637.59375 333.757812 639.140625 326.015625 647.65625 326.015625 C 657.722656 326.789062 661.59375 334.917969 661.59375 334.917969 C 661.59375 334.917969 696.4375 371.695312 733.988281 376.34375 C 649.207031 335.691406 646.109375 310.527344 646.496094 304.335938 Z M 646.882812 120.054688 "/>
<path style="fill-rule:evenodd;fill:rgb(0%,38.038635%,16.078186%);fill-opacity:1;stroke-width:1;stroke-linecap:square;stroke-linejoin:miter;stroke:rgb(0%,0%,0%);stroke-opacity:1;stroke-miterlimit:3.25;" d="M 651.917969 125.089844 L 850.90625 123.929688 L 850.90625 302.785156 C 851.292969 326.015625 812.191406 349.628906 751.023438 379.828125 C 687.921875 347.304688 651.527344 327.5625 651.140625 302.398438 Z M 651.917969 125.089844 "/>
<path style="fill:none;stroke-width:1;stroke-linecap:square;stroke-linejoin:miter;stroke:rgb(96.861267%,77.645874%,0%);stroke-opacity:1;stroke-miterlimit:3.25;" d="M 675.84375 322.167969 L 687.589844 304.917969 L 699.390625 322.203125 "/>
<path style="fill-rule:evenodd;fill:rgb(96.861267%,77.645874%,0%);fill-opacity:1;stroke-width:1;stroke-linecap:square;stroke-linejoin:miter;stroke:rgb(0%,0%,0%);stroke-opacity:1;stroke-miterlimit:3.25;" d="M 691.746094 317 C 691.746094 318.289062 690.703125 319.332031 689.414062 319.332031 C 688.125 319.332031 687.082031 318.289062 687.082031 317 C 687.082031 315.710938 688.125 314.664062 689.414062 314.664062 C 690.703125 314.664062 691.746094 315.710938 691.746094 317 Z M 691.746094 317 "/>
<path style="fill-rule:evenodd;fill:rgb(96.861267%,77.645874%,0%);fill-opacity:1;stroke-width:1;stroke-linecap:square;stroke-linejoin:miter;stroke:rgb(0%,0%,0%);stroke-opacity:1;stroke-miterlimit:3.25;" d="M 678.050781 334.910156 L 696.261719 334.960938 C 696.261719 334.960938 696.546875 332.597656 694.359375 331.160156 C 703.898438 329.851562 701.417969 321.4375 709.40625 320.960938 C 710.957031 321.199219 705.234375 324.539062 705.234375 324.539062 C 705.234375 324.539062 700.417969 327.9375 702.609375 329.664062 C 704.351562 331.035156 705.113281 328.828125 705.351562 327.160156 C 705.589844 325.492188 713.101562 324.417969 712.03125 319.648438 C 710.242188 315.714844 699.75 322.273438 699.75 322.273438 L 692.265625 322.230469 C 691.796875 321.390625 689.734375 318.023438 687.605469 318.007812 C 685.078125 318.097656 683.296875 322.273438 683.296875 322.273438 L 666.367188 322.273438 C 666.367188 322.273438 665.785156 326.617188 674.371094 327.449219 C 676.304688 329.976562 677.800781 330.679688 679.480469 331.332031 C 678.363281 332.265625 678.046875 333.394531 678.050781 334.910156 Z M 678.050781 334.910156 "/>
<path style="fill:none;stroke-width:1;stroke-linecap:square;stroke-linejoin:miter;stroke:rgb(0%,0%,0%);stroke-opacity:1;stroke-miterlimit:3.25;" d="M 679.363281 331.214844 L 694.53125 331.164062 "/>
<path style="fill:none;stroke-width:1;stroke-linecap:square;stroke-linejoin:miter;stroke:rgb(0%,0%,0%);stroke-opacity:1;stroke-miterlimit:3.25;" d="M 672.417969 322.269531 C 672.417969 322.269531 673.628906 329.367188 679.230469 331.046875 "/>
<path style="fill:none;stroke-width:1;stroke-linecap:square;stroke-linejoin:miter;stroke:rgb(0%,0%,0%);stroke-opacity:1;stroke-miterlimit:3.25;" d="M 671.484375 322.179688 C 672.042969 319.472656 673.070312 319.003906 674.191406 315.550781 C 674.375 312.191406 671.484375 312.5625 672.324219 310.417969 C 673.816406 308.085938 673.070312 305.84375 670.269531 304.070312 C 670.828125 307.152344 666.628906 310.042969 666.628906 312.5625 C 666.628906 315.085938 668.777344 314.523438 668.496094 318.351562 C 668.683594 320.589844 667.9375 320.03125 667.75 322.179688 L 671.484375 322.179688 "/>
<path style="fill-rule:evenodd;fill:rgb(96.861267%,77.645874%,0%);fill-opacity:1;stroke-width:1;stroke-linecap:square;stroke-linejoin:miter;stroke:rgb(0%,0%,0%);stroke-opacity:1;stroke-miterlimit:3.25;" d="M 689.78125 305.242188 C 689.78125 306.429688 688.820312 307.390625 687.632812 307.390625 C 686.449219 307.390625 685.488281 306.429688 685.488281 305.242188 C 685.488281 304.058594 686.449219 303.097656 687.632812 303.097656 C 688.820312 303.097656 689.78125 304.058594 689.78125 305.242188 Z M 689.78125 305.242188 "/>
<path style="fill:none;stroke-width:1;stroke-linecap:square;stroke-linejoin:miter;stroke:rgb(96.861267%,77.645874%,0%);stroke-opacity:1;stroke-miterlimit:3.25;" d="M 675.183594 286.660156 L 686.929688 269.410156 L 698.730469 286.695312 "/>
<path style="fill-rule:evenodd;fill:rgb(96.861267%,77.645874%,0%);fill-opacity:1;stroke-width:1;stroke-linecap:square;stroke-linejoin:miter;stroke:rgb(0%,0%,0%);stroke-opacity:1;stroke-miterlimit:3.25;" d="M 691.085938 281.492188 C 691.085938 282.777344 690.042969 283.824219 688.753906 283.824219 C 687.464844 283.824219 686.421875 282.777344 686.421875 281.492188 C 686.421875 280.203125 687.464844 279.15625 688.753906 279.15625 C 690.042969 279.15625 691.085938 280.203125 691.085938 281.492188 Z M 691.085938 281.492188 "/>
<path style="fill-rule:evenodd;fill:rgb(96.861267%,77.645874%,0%);fill-opacity:1;stroke-width:1;stroke-linecap:square;stroke-linejoin:miter;stroke:rgb(0%,0%,0%);stroke-opacity:1;stroke-miterlimit:3.25;" d="M 677.390625 299.402344 L 695.601562 299.453125 C 695.601562 299.453125 695.886719 297.089844 693.699219 295.652344 C 703.238281 294.34375 700.757812 285.929688 708.746094 285.453125 C 710.296875 285.691406 704.574219 289.03125 704.574219 289.03125 C 704.574219 289.03125 699.757812 292.429688 701.953125 294.15625 C 703.691406 295.527344 704.453125 293.320312 704.691406 291.652344 C 704.933594 289.984375 712.441406 288.910156 711.371094 284.140625 C 709.582031 280.207031 699.089844 286.765625 699.089844 286.765625 L 691.605469 286.722656 C 691.136719 285.882812 689.074219 282.511719 686.945312 282.496094 C 684.417969 282.589844 682.636719 286.765625 682.636719 286.765625 L 665.707031 286.765625 C 665.707031 286.765625 665.128906 291.109375 673.710938 291.941406 C 675.644531 294.464844 677.140625 295.171875 678.820312 295.824219 C 677.703125 296.757812 677.386719 297.886719 677.390625 299.402344 Z M 677.390625 299.402344 "/>
<path style="fill:none;stroke-width:1;stroke-linecap:square;stroke-linejoin:miter;stroke:rgb(0%,0%,0%);stroke-opacity:1;stroke-miterlimit:3.25;" d="M 678.703125 295.707031 L 693.871094 295.652344 "/>
<path style="fill:none;stroke-width:1;stroke-linecap:square;stroke-linejoin:miter;stroke:rgb(0%,0%,0%);stroke-opacity:1;stroke-miterlimit:3.25;" d="M 671.757812 286.761719 C 671.757812 286.761719 672.96875 293.855469 678.570312 295.539062 "/>
<path style="fill:none;stroke-width:1;stroke-linecap:square;stroke-linejoin:miter;stroke:rgb(0%,0%,0%);stroke-opacity:1;stroke-miterlimit:3.25;" d="M 670.824219 286.671875 C 671.382812 283.964844 672.410156 283.496094 673.53125 280.042969 C 673.714844 276.683594 670.824219 277.054688 671.664062 274.910156 C 673.15625 272.574219 672.410156 270.335938 669.609375 268.5625 C 670.167969 271.644531 665.96875 274.535156 665.96875 277.054688 C 665.96875 279.578125 668.117188 279.015625 667.835938 282.84375 C 668.023438 285.082031 667.277344 284.523438 667.089844 286.671875 L 670.824219 286.671875 "/>
<path style="fill-rule:evenodd;fill:rgb(96.861267%,77.645874%,0%);fill-opacity:1;stroke-width:1;stroke-linecap:square;stroke-linejoin:miter;stroke:rgb(0%,0%,0%);stroke-opacity:1;stroke-miterlimit:3.25;" d="M 689.121094 269.734375 C 689.121094 270.921875 688.160156 271.882812 686.972656 271.882812 C 685.789062 271.882812 684.828125 270.921875 684.828125 269.734375 C 684.828125 268.550781 685.789062 267.589844 686.972656 267.589844 C 688.160156 267.589844 689.121094 268.550781 689.121094 269.734375 Z M 689.121094 269.734375 "/>
<path style="fill:none;stroke-width:1;stroke-linecap:square;stroke-linejoin:miter;stroke:rgb(96.861267%,77.645874%,0%);stroke-opacity:1;stroke-miterlimit:3.25;" d="M 799.960938 254.382812 L 811.707031 237.132812 L 823.511719 254.417969 "/>
<path style="fill-rule:evenodd;fill:rgb(96.861267%,77.645874%,0%);fill-opacity:1;stroke-width:1;stroke-linecap:square;stroke-linejoin:miter;stroke:rgb(0%,0%,0%);stroke-opacity:1;stroke-miterlimit:3.25;" d="M 815.863281 249.214844 C 815.863281 250.5 814.820312 251.546875 813.53125 251.546875 C 812.242188 251.546875 811.199219 250.5 811.199219 249.214844 C 811.199219 247.925781 812.242188 246.878906 813.53125 246.878906 C 814.820312 246.878906 815.863281 247.925781 815.863281 249.214844 Z M 815.863281 249.214844 "/>
<path style="fill-rule:evenodd;fill:rgb(96.861267%,77.645874%,0%);fill-opacity:1;stroke-width:1;stroke-linecap:square;stroke-linejoin:miter;stroke:rgb(0%,0%,0%);stroke-opacity:1;stroke-miterlimit:3.25;" d="M 802.167969 267.125 L 820.378906 267.175781 C 820.378906 267.175781 820.664062 264.8125 818.476562 263.375 C 828.015625 262.066406 825.539062 253.652344 833.527344 253.175781 C 835.074219 253.414062 829.351562 256.753906 829.351562 256.753906 C 829.351562 256.753906 824.535156 260.152344 826.730469 261.878906 C 828.472656 263.25 829.234375 261.042969 829.472656 259.375 C 829.710938 257.707031 837.222656 256.632812 836.148438 251.863281 C 834.359375 247.929688 823.867188 254.488281 823.867188 254.488281 L 816.382812 254.445312 C 815.917969 253.605469 813.855469 250.238281 811.722656 250.222656 C 809.195312 250.3125 807.414062 254.488281 807.414062 254.488281 L 790.484375 254.488281 C 790.484375 254.488281 789.90625 258.832031 798.488281 259.664062 C 800.421875 262.1875 801.921875 262.894531 803.601562 263.546875 C 802.480469 264.480469 802.164062 265.609375 802.167969 267.125 Z M 802.167969 267.125 "/>
<path style="fill:none;stroke-width:1;stroke-linecap:square;stroke-linejoin:miter;stroke:rgb(0%,0%,0%);stroke-opacity:1;stroke-miterlimit:3.25;" d="M 803.480469 263.429688 L 818.648438 263.375 "/>
<path style="fill:none;stroke-width:1;stroke-linecap:square;stroke-linejoin:miter;stroke:rgb(0%,0%,0%);stroke-opacity:1;stroke-miterlimit:3.25;" d="M 796.535156 254.484375 C 796.535156 254.484375 797.746094 261.578125 803.347656 263.261719 "/>
<path style="fill:none;stroke-width:1;stroke-linecap:square;stroke-linejoin:miter;stroke:rgb(0%,0%,0%);stroke-opacity:1;stroke-miterlimit:3.25;" d="M 795.601562 254.394531 C 796.160156 251.6875 797.1875 251.21875 798.308594 247.765625 C 798.496094 244.40625 795.601562 244.777344 796.441406 242.632812 C 797.933594 240.300781 797.1875 238.058594 794.386719 236.285156 C 794.949219 239.367188 790.746094 242.257812 790.746094 244.777344 C 790.746094 247.300781 792.894531 246.738281 792.613281 250.566406 C 792.800781 252.804688 792.054688 252.246094 791.867188 254.394531 L 795.601562 254.394531 "/>
<path style="fill-rule:evenodd;fill:rgb(96.861267%,77.645874%,0%);fill-opacity:1;stroke-width:1;stroke-linecap:square;stroke-linejoin:miter;stroke:rgb(0%,0%,0%);stroke-opacity:1;stroke-miterlimit:3.25;" d="M 813.898438 237.457031 C 813.898438 238.644531 812.9375 239.605469 811.753906 239.605469 C 810.566406 239.605469 809.605469 238.644531 809.605469 237.457031 C 809.605469 236.273438 810.566406 235.3125 811.753906 235.3125 C 812.9375 235.3125 813.898438 236.273438 813.898438 237.457031 Z M 813.898438 237.457031 "/>
<path style="fill:none;stroke-width:1;stroke-linecap:square;stroke-linejoin:miter;stroke:rgb(96.861267%,77.645874%,0%);stroke-opacity:1;stroke-miterlimit:3.25;" d="M 678.085938 219.867188 L 689.832031 202.617188 L 701.636719 219.90625 "/>
<path style="fill-rule:evenodd;fill:rgb(96.861267%,77.645874%,0%);fill-opacity:1;stroke-width:1;stroke-linecap:square;stroke-linejoin:miter;stroke:rgb(0%,0%,0%);stroke-opacity:1;stroke-miterlimit:3.25;" d="M 693.988281 214.699219 C 693.992188 215.988281 692.945312 217.03125 691.65625 217.03125 C 690.367188 217.03125 689.324219 215.988281 689.324219 214.699219 C 689.324219 213.410156 690.367188 212.363281 691.65625 212.363281 C 692.945312 212.363281 693.992188 213.410156 693.988281 214.699219 Z M 693.988281 214.699219 "/>
<path style="fill-rule:evenodd;fill:rgb(96.861267%,77.645874%,0%);fill-opacity:1;stroke-width:1;stroke-linecap:square;stroke-linejoin:miter;stroke:rgb(0%,0%,0%);stroke-opacity:1;stroke-miterlimit:3.25;" d="M 680.296875 232.609375 L 698.503906 232.660156 C 698.503906 232.660156 698.789062 230.296875 696.601562 228.863281 C 706.140625 227.550781 703.664062 219.136719 711.652344 218.660156 C 713.199219 218.898438 707.476562 222.238281 707.476562 222.238281 C 707.476562 222.238281 702.660156 225.636719 704.855469 227.363281 C 706.597656 228.734375 707.359375 226.527344 707.597656 224.859375 C 707.835938 223.191406 715.347656 222.117188 714.273438 217.347656 C 712.484375 213.414062 701.992188 219.972656 701.992188 219.972656 L 694.507812 219.929688 C 694.042969 219.089844 691.980469 215.722656 689.847656 215.707031 C 687.320312 215.796875 685.542969 219.972656 685.542969 219.972656 L 668.613281 219.972656 C 668.613281 219.972656 668.03125 224.316406 676.613281 225.148438 C 678.546875 227.675781 680.046875 228.378906 681.726562 229.03125 C 680.605469 229.964844 680.289062 231.09375 680.296875 232.609375 Z M 680.296875 232.609375 "/>
<path style="fill:none;stroke-width:1;stroke-linecap:square;stroke-linejoin:miter;stroke:rgb(0%,0%,0%);stroke-opacity:1;stroke-miterlimit:3.25;" d="M 681.605469 228.914062 L 696.773438 228.863281 "/>
<path style="fill:none;stroke-width:1;stroke-linecap:square;stroke-linejoin:miter;stroke:rgb(0%,0%,0%);stroke-opacity:1;stroke-miterlimit:3.25;" d="M 674.660156 219.972656 C 674.660156 219.972656 675.875 227.066406 681.472656 228.746094 "/>
<path style="fill:none;stroke-width:1;stroke-linecap:square;stroke-linejoin:miter;stroke:rgb(0%,0%,0%);stroke-opacity:1;stroke-miterlimit:3.25;" d="M 673.726562 219.878906 C 674.285156 217.171875 675.3125 216.703125 676.433594 213.25 C 676.621094 209.890625 673.726562 210.265625 674.566406 208.117188 C 676.058594 205.785156 675.3125 203.542969 672.511719 201.769531 C 673.074219 204.851562 668.875 207.742188 668.875 210.265625 C 668.875 212.785156 671.019531 212.222656 670.738281 216.050781 C 670.925781 218.292969 670.179688 217.730469 669.992188 219.878906 L 673.726562 219.878906 "/>
<path style="fill-rule:evenodd;fill:rgb(96.861267%,77.645874%,0%);fill-opacity:1;stroke-width:1;stroke-linecap:square;stroke-linejoin:miter;stroke:rgb(0%,0%,0%);stroke-opacity:1;stroke-miterlimit:3.25;" d="M 692.023438 202.941406 C 692.023438 204.128906 691.0625 205.089844 689.878906 205.089844 C 688.691406 205.089844 687.730469 204.128906 687.730469 202.941406 C 687.730469 201.757812 688.691406 200.796875 689.878906 200.796875 C 691.0625 200.796875 692.023438 201.757812 692.023438 202.941406 Z M 692.023438 202.941406 "/>
<path style="fill:none;stroke-width:1;stroke-linecap:square;stroke-linejoin:miter;stroke:rgb(96.861267%,77.645874%,0%);stroke-opacity:1;stroke-miterlimit:3.25;" d="M 678.351562 185.945312 L 690.097656 168.691406 L 701.898438 185.980469 "/>
<path style="fill-rule:evenodd;fill:rgb(96.861267%,77.645874%,0%);fill-opacity:1;stroke-width:1;stroke-linecap:square;stroke-linejoin:miter;stroke:rgb(0%,0%,0%);stroke-opacity:1;stroke-miterlimit:3.25;" d="M 694.253906 180.773438 C 694.253906 182.0625 693.210938 183.105469 691.921875 183.105469 C 690.632812 183.105469 689.589844 182.0625 689.589844 180.773438 C 689.589844 179.484375 690.632812 178.441406 691.921875 178.441406 C 693.210938 178.441406 694.253906 179.484375 694.253906 180.773438 Z M 694.253906 180.773438 "/>
<path style="fill-rule:evenodd;fill:rgb(96.861267%,77.645874%,0%);fill-opacity:1;stroke-width:1;stroke-linecap:square;stroke-linejoin:miter;stroke:rgb(0%,0%,0%);stroke-opacity:1;stroke-miterlimit:3.25;" d="M 680.558594 198.683594 L 698.769531 198.738281 C 698.769531 198.738281 699.054688 196.375 696.867188 194.9375 C 706.40625 193.625 703.925781 185.214844 711.914062 184.734375 C 713.464844 184.976562 707.742188 188.3125 707.742188 188.3125 C 707.742188 188.3125 702.925781 191.710938 705.121094 193.4375 C 706.859375 194.8125 707.621094 192.605469 707.863281 190.9375 C 708.101562 189.265625 715.609375 188.195312 714.539062 183.425781 C 712.75 179.492188 702.257812 186.046875 702.257812 186.046875 L 694.773438 186.007812 C 694.304688 185.164062 692.242188 181.796875 690.113281 181.78125 C 687.585938 181.875 685.804688 186.046875 685.804688 186.046875 L 668.875 186.046875 C 668.875 186.046875 668.296875 190.390625 676.878906 191.226562 C 678.8125 193.75 680.308594 194.457031 681.988281 195.109375 C 680.871094 196.042969 680.554688 197.171875 680.558594 198.683594 Z M 680.558594 198.683594 "/>
<path style="fill:none;stroke-width:1;stroke-linecap:square;stroke-linejoin:miter;stroke:rgb(0%,0%,0%);stroke-opacity:1;stroke-miterlimit:3.25;" d="M 681.871094 194.988281 L 697.039062 194.9375 "/>
<path style="fill:none;stroke-width:1;stroke-linecap:square;stroke-linejoin:miter;stroke:rgb(0%,0%,0%);stroke-opacity:1;stroke-miterlimit:3.25;" d="M 674.925781 186.046875 C 674.925781 186.046875 676.136719 193.140625 681.738281 194.820312 "/>
<path style="fill:none;stroke-width:1;stroke-linecap:square;stroke-linejoin:miter;stroke:rgb(0%,0%,0%);stroke-opacity:1;stroke-miterlimit:3.25;" d="M 673.992188 185.953125 C 674.550781 183.246094 675.578125 182.78125 676.699219 179.328125 C 676.882812 175.964844 673.992188 176.339844 674.832031 174.191406 C 676.324219 171.859375 675.578125 169.621094 672.777344 167.847656 C 673.335938 170.925781 669.136719 173.820312 669.136719 176.339844 C 669.136719 178.859375 671.285156 178.300781 671.003906 182.125 C 671.191406 184.367188 670.445312 183.808594 670.257812 185.953125 L 673.992188 185.953125 "/>
<path style="fill-rule:evenodd;fill:rgb(96.861267%,77.645874%,0%);fill-opacity:1;stroke-width:1;stroke-linecap:square;stroke-linejoin:miter;stroke:rgb(0%,0%,0%);stroke-opacity:1;stroke-miterlimit:3.25;" d="M 692.289062 169.019531 C 692.289062 170.203125 691.328125 171.164062 690.140625 171.164062 C 688.957031 171.164062 687.996094 170.203125 687.996094 169.019531 C 687.996094 167.832031 688.957031 166.871094 690.140625 166.871094 C 691.328125 166.871094 692.289062 167.832031 692.289062 169.019531 Z M 692.289062 169.019531 "/>
<path style="fill:none;stroke-width:1;stroke-linecap:square;stroke-linejoin:miter;stroke:rgb(96.861267%,77.645874%,0%);stroke-opacity:1;stroke-miterlimit:3.25;" d="M 678.996094 151.523438 L 690.742188 134.273438 L 702.542969 151.558594 "/>
<path style="fill-rule:evenodd;fill:rgb(96.861267%,77.645874%,0%);fill-opacity:1;stroke-width:1;stroke-linecap:square;stroke-linejoin:miter;stroke:rgb(0%,0%,0%);stroke-opacity:1;stroke-miterlimit:3.25;" d="M 694.898438 146.355469 C 694.898438 147.644531 693.855469 148.6875 692.566406 148.6875 C 691.277344 148.6875 690.230469 147.644531 690.234375 146.355469 C 690.230469 145.066406 691.277344 144.019531 692.566406 144.019531 C 693.855469 144.019531 694.898438 145.066406 694.898438 146.355469 Z M 694.898438 146.355469 "/>
<path style="fill-rule:evenodd;fill:rgb(96.861267%,77.645874%,0%);fill-opacity:1;stroke-width:1;stroke-linecap:square;stroke-linejoin:miter;stroke:rgb(0%,0%,0%);stroke-opacity:1;stroke-miterlimit:3.25;" d="M 681.203125 164.265625 L 699.414062 164.316406 C 699.414062 164.316406 699.699219 161.953125 697.511719 160.519531 C 707.046875 159.207031 704.570312 150.792969 712.558594 150.316406 C 714.109375 150.554688 708.386719 153.894531 708.386719 153.894531 C 708.386719 153.894531 703.570312 157.292969 705.761719 159.019531 C 707.503906 160.390625 708.265625 158.183594 708.503906 156.515625 C 708.742188 154.847656 716.253906 153.773438 715.183594 149.003906 C 713.394531 145.070312 702.902344 151.628906 702.902344 151.628906 L 695.417969 151.585938 C 694.949219 150.746094 692.886719 147.378906 690.757812 147.363281 C 688.230469 147.453125 686.449219 151.628906 686.449219 151.628906 L 669.519531 151.628906 C 669.519531 151.628906 668.9375 155.972656 677.523438 156.804688 C 679.457031 159.332031 680.953125 160.035156 682.632812 160.6875 C 681.515625 161.621094 681.199219 162.75 681.203125 164.265625 Z M 681.203125 164.265625 "/>
<path style="fill:none;stroke-width:1;stroke-linecap:square;stroke-linejoin:miter;stroke:rgb(0%,0%,0%);stroke-opacity:1;stroke-miterlimit:3.25;" d="M 682.515625 160.570312 L 697.683594 160.519531 "/>
<path style="fill:none;stroke-width:1;stroke-linecap:square;stroke-linejoin:miter;stroke:rgb(0%,0%,0%);stroke-opacity:1;stroke-miterlimit:3.25;" d="M 675.566406 151.628906 C 675.566406 151.628906 676.78125 158.722656 682.382812 160.402344 "/>
<path style="fill:none;stroke-width:1;stroke-linecap:square;stroke-linejoin:miter;stroke:rgb(0%,0%,0%);stroke-opacity:1;stroke-miterlimit:3.25;" d="M 674.632812 151.535156 C 675.195312 148.828125 676.222656 148.359375 677.339844 144.90625 C 677.527344 141.546875 674.632812 141.921875 675.476562 139.773438 C 676.96875 137.441406 676.222656 135.199219 673.421875 133.425781 C 673.980469 136.507812 669.78125 139.398438 669.78125 141.921875 C 669.78125 144.441406 671.929688 143.878906 671.648438 147.707031 C 671.835938 149.945312 671.085938 149.386719 670.902344 151.535156 L 674.632812 151.535156 "/>
<path style="fill-rule:evenodd;fill:rgb(96.861267%,77.645874%,0%);fill-opacity:1;stroke-width:1;stroke-linecap:square;stroke-linejoin:miter;stroke:rgb(0%,0%,0%);stroke-opacity:1;stroke-miterlimit:3.25;" d="M 692.933594 134.597656 C 692.933594 135.785156 691.972656 136.746094 690.785156 136.746094 C 689.601562 136.746094 688.640625 135.785156 688.640625 134.597656 C 688.640625 133.414062 689.601562 132.453125 690.785156 132.453125 C 691.972656 132.453125 692.933594 133.414062 692.933594 134.597656 Z M 692.933594 134.597656 "/>
<path style="fill:none;stroke-width:1;stroke-linecap:square;stroke-linejoin:miter;stroke:rgb(96.861267%,77.645874%,0%);stroke-opacity:1;stroke-miterlimit:3.25;" d="M 800.894531 152.085938 L 812.640625 134.832031 L 824.445312 152.121094 "/>
<path style="fill-rule:evenodd;fill:rgb(96.861267%,77.645874%,0%);fill-opacity:1;stroke-width:1;stroke-linecap:square;stroke-linejoin:miter;stroke:rgb(0%,0%,0%);stroke-opacity:1;stroke-miterlimit:3.25;" d="M 816.796875 146.914062 C 816.796875 148.203125 815.753906 149.246094 814.464844 149.246094 C 813.175781 149.246094 812.132812 148.203125 812.132812 146.914062 C 812.132812 145.625 813.175781 144.582031 814.464844 144.582031 C 815.753906 144.582031 816.796875 145.625 816.796875 146.914062 Z M 816.796875 146.914062 "/>
<path style="fill-rule:evenodd;fill:rgb(96.861267%,77.645874%,0%);fill-opacity:1;stroke-width:1;stroke-linecap:square;stroke-linejoin:miter;stroke:rgb(0%,0%,0%);stroke-opacity:1;stroke-miterlimit:3.25;" d="M 803.101562 164.824219 L 821.3125 164.878906 C 821.3125 164.878906 821.597656 162.515625 819.410156 161.078125 C 828.949219 159.765625 826.472656 151.351562 834.457031 150.875 C 836.007812 151.113281 830.285156 154.453125 830.285156 154.453125 C 830.285156 154.453125 825.46875 157.851562 827.664062 159.578125 C 829.40625 160.953125 830.167969 158.746094 830.40625 157.074219 C 830.644531 155.40625 838.15625 154.335938 837.082031 149.566406 C 835.292969 145.628906 824.800781 152.1875 824.800781 152.1875 L 817.316406 152.144531 C 816.851562 151.304688 814.785156 147.9375 812.65625 147.921875 C 810.128906 148.015625 808.347656 152.1875 808.347656 152.1875 L 791.417969 152.1875 C 791.417969 152.1875 790.839844 156.53125 799.421875 157.367188 C 801.355469 159.890625 802.855469 160.59375 804.535156 161.25 C 803.414062 162.183594 803.097656 163.3125 803.101562 164.824219 Z M 803.101562 164.824219 "/>
<path style="fill:none;stroke-width:1;stroke-linecap:square;stroke-linejoin:miter;stroke:rgb(0%,0%,0%);stroke-opacity:1;stroke-miterlimit:3.25;" d="M 804.414062 161.128906 L 819.582031 161.078125 "/>
<path style="fill:none;stroke-width:1;stroke-linecap:square;stroke-linejoin:miter;stroke:rgb(0%,0%,0%);stroke-opacity:1;stroke-miterlimit:3.25;" d="M 797.46875 152.1875 C 797.46875 152.1875 798.679688 159.28125 804.28125 160.960938 "/>
<path style="fill:none;stroke-width:1;stroke-linecap:square;stroke-linejoin:miter;stroke:rgb(0%,0%,0%);stroke-opacity:1;stroke-miterlimit:3.25;" d="M 796.535156 152.09375 C 797.09375 149.386719 798.121094 148.921875 799.242188 145.46875 C 799.429688 142.105469 796.535156 142.480469 797.375 140.332031 C 798.867188 138 798.121094 135.761719 795.320312 133.988281 C 795.882812 137.066406 791.679688 139.960938 791.679688 142.480469 C 791.679688 145 793.828125 144.441406 793.546875 148.265625 C 793.734375 150.507812 792.988281 149.949219 792.800781 152.09375 L 796.535156 152.09375 "/>
<path style="fill-rule:evenodd;fill:rgb(96.861267%,77.645874%,0%);fill-opacity:1;stroke-width:1;stroke-linecap:square;stroke-linejoin:miter;stroke:rgb(0%,0%,0%);stroke-opacity:1;stroke-miterlimit:3.25;" d="M 814.832031 135.160156 C 814.832031 136.34375 813.871094 137.304688 812.6875 137.304688 C 811.5 137.304688 810.539062 136.34375 810.539062 135.160156 C 810.539062 133.972656 811.5 133.011719 812.6875 133.011719 C 813.871094 133.011719 814.832031 133.972656 814.832031 135.160156 Z M 814.832031 135.160156 "/>
<path style="fill:none;stroke-width:1;stroke-linecap:square;stroke-linejoin:miter;stroke:rgb(96.861267%,77.645874%,0%);stroke-opacity:1;stroke-miterlimit:3.25;" d="M 799.773438 185.871094 L 811.519531 168.621094 L 823.324219 185.910156 "/>
<path style="fill-rule:evenodd;fill:rgb(96.861267%,77.645874%,0%);fill-opacity:1;stroke-width:1;stroke-linecap:square;stroke-linejoin:miter;stroke:rgb(0%,0%,0%);stroke-opacity:1;stroke-miterlimit:3.25;" d="M 815.679688 180.703125 C 815.679688 181.992188 814.632812 183.035156 813.34375 183.035156 C 812.058594 183.035156 811.011719 181.992188 811.011719 180.703125 C 811.011719 179.414062 812.058594 178.371094 813.34375 178.371094 C 814.632812 178.371094 815.679688 179.414062 815.679688 180.703125 Z M 815.679688 180.703125 "/>
<path style="fill-rule:evenodd;fill:rgb(96.861267%,77.645874%,0%);fill-opacity:1;stroke-width:1;stroke-linecap:square;stroke-linejoin:miter;stroke:rgb(0%,0%,0%);stroke-opacity:1;stroke-miterlimit:3.25;" d="M 801.984375 198.613281 L 820.191406 198.667969 C 820.191406 198.667969 820.476562 196.304688 818.289062 194.867188 C 827.828125 193.554688 825.351562 185.140625 833.339844 184.664062 C 834.886719 184.902344 829.164062 188.242188 829.164062 188.242188 C 829.164062 188.242188 824.351562 191.640625 826.542969 193.367188 C 828.285156 194.738281 829.046875 192.535156 829.285156 190.863281 C 829.523438 189.195312 837.035156 188.121094 835.960938 183.355469 C 834.171875 179.417969 823.683594 185.976562 823.683594 185.976562 L 816.195312 185.933594 C 815.730469 185.09375 813.667969 181.726562 811.535156 181.710938 C 809.007812 181.800781 807.230469 185.976562 807.230469 185.976562 L 790.300781 185.976562 C 790.300781 185.976562 789.71875 190.320312 798.304688 191.15625 C 800.234375 193.679688 801.734375 194.382812 803.414062 195.039062 C 802.292969 195.972656 801.976562 197.101562 801.984375 198.613281 Z M 801.984375 198.613281 "/>
<path style="fill:none;stroke-width:1;stroke-linecap:square;stroke-linejoin:miter;stroke:rgb(0%,0%,0%);stroke-opacity:1;stroke-miterlimit:3.25;" d="M 803.292969 194.917969 L 818.460938 194.867188 "/>
<path style="fill:none;stroke-width:1;stroke-linecap:square;stroke-linejoin:miter;stroke:rgb(0%,0%,0%);stroke-opacity:1;stroke-miterlimit:3.25;" d="M 796.347656 185.976562 C 796.347656 185.976562 797.5625 193.070312 803.160156 194.75 "/>
<path style="fill:none;stroke-width:1;stroke-linecap:square;stroke-linejoin:miter;stroke:rgb(0%,0%,0%);stroke-opacity:1;stroke-miterlimit:3.25;" d="M 795.414062 185.882812 C 795.972656 183.175781 797 182.710938 798.121094 179.253906 C 798.308594 175.894531 795.414062 176.269531 796.253906 174.121094 C 797.746094 171.789062 797 169.546875 794.199219 167.773438 C 794.761719 170.855469 790.5625 173.75 790.5625 176.269531 C 790.5625 178.789062 792.707031 178.230469 792.425781 182.054688 C 792.613281 184.296875 791.867188 183.734375 791.679688 185.882812 L 795.414062 185.882812 "/>
<path style="fill-rule:evenodd;fill:rgb(96.861267%,77.645874%,0%);fill-opacity:1;stroke-width:1;stroke-linecap:square;stroke-linejoin:miter;stroke:rgb(0%,0%,0%);stroke-opacity:1;stroke-miterlimit:3.25;" d="M 813.710938 168.949219 C 813.710938 170.132812 812.75 171.09375 811.566406 171.09375 C 810.378906 171.09375 809.417969 170.132812 809.421875 168.949219 C 809.417969 167.761719 810.378906 166.800781 811.566406 166.800781 C 812.75 166.800781 813.710938 167.761719 813.710938 168.949219 Z M 813.710938 168.949219 "/>
<path style="fill:none;stroke-width:1;stroke-linecap:square;stroke-linejoin:miter;stroke:rgb(96.861267%,77.645874%,0%);stroke-opacity:1;stroke-miterlimit:3.25;" d="M 798.28125 220.40625 L 810.027344 203.15625 L 821.832031 220.445312 "/>
<path style="fill-rule:evenodd;fill:rgb(96.861267%,77.645874%,0%);fill-opacity:1;stroke-width:1;stroke-linecap:square;stroke-linejoin:miter;stroke:rgb(0%,0%,0%);stroke-opacity:1;stroke-miterlimit:3.25;" d="M 814.183594 215.238281 C 814.183594 216.527344 813.140625 217.570312 811.851562 217.570312 C 810.5625 217.570312 809.519531 216.527344 809.519531 215.238281 C 809.519531 213.949219 810.5625 212.90625 811.851562 212.90625 C 813.140625 212.90625 814.183594 213.949219 814.183594 215.238281 Z M 814.183594 215.238281 "/>
<path style="fill-rule:evenodd;fill:rgb(96.861267%,77.645874%,0%);fill-opacity:1;stroke-width:1;stroke-linecap:square;stroke-linejoin:miter;stroke:rgb(0%,0%,0%);stroke-opacity:1;stroke-miterlimit:3.25;" d="M 800.488281 233.148438 L 818.699219 233.203125 C 818.699219 233.203125 818.984375 230.839844 816.796875 229.402344 C 826.335938 228.089844 823.855469 219.675781 831.84375 219.199219 C 833.394531 219.4375 827.671875 222.777344 827.671875 222.777344 C 827.671875 222.777344 822.855469 226.175781 825.050781 227.902344 C 826.789062 229.273438 827.554688 227.070312 827.792969 225.398438 C 828.03125 223.730469 835.542969 222.65625 834.46875 217.890625 C 832.679688 213.953125 822.1875 220.511719 822.1875 220.511719 L 814.703125 220.46875 C 814.238281 219.628906 812.171875 216.261719 810.042969 216.246094 C 807.515625 216.339844 805.734375 220.511719 805.734375 220.511719 L 788.804688 220.511719 C 788.804688 220.511719 788.226562 224.855469 796.808594 225.691406 C 798.742188 228.214844 800.242188 228.917969 801.921875 229.574219 C 800.800781 230.507812 800.484375 231.636719 800.488281 233.148438 Z M 800.488281 233.148438 "/>
<path style="fill:none;stroke-width:1;stroke-linecap:square;stroke-linejoin:miter;stroke:rgb(0%,0%,0%);stroke-opacity:1;stroke-miterlimit:3.25;" d="M 801.800781 229.453125 L 816.96875 229.402344 "/>
<path style="fill:none;stroke-width:1;stroke-linecap:square;stroke-linejoin:miter;stroke:rgb(0%,0%,0%);stroke-opacity:1;stroke-miterlimit:3.25;" d="M 794.855469 220.511719 C 794.855469 220.511719 796.066406 227.605469 801.667969 229.285156 "/>
<path style="fill:none;stroke-width:1;stroke-linecap:square;stroke-linejoin:miter;stroke:rgb(0%,0%,0%);stroke-opacity:1;stroke-miterlimit:3.25;" d="M 793.921875 220.417969 C 794.480469 217.710938 795.507812 217.246094 796.628906 213.789062 C 796.816406 210.429688 793.921875 210.804688 794.761719 208.65625 C 796.253906 206.324219 795.507812 204.082031 792.707031 202.308594 C 793.269531 205.390625 789.066406 208.285156 789.066406 210.804688 C 789.066406 213.324219 791.214844 212.765625 790.933594 216.589844 C 791.121094 218.832031 790.375 218.269531 790.1875 220.417969 L 793.921875 220.417969 "/>
<path style="fill-rule:evenodd;fill:rgb(96.861267%,77.645874%,0%);fill-opacity:1;stroke-width:1;stroke-linecap:square;stroke-linejoin:miter;stroke:rgb(0%,0%,0%);stroke-opacity:1;stroke-miterlimit:3.25;" d="M 812.21875 203.484375 C 812.21875 204.667969 811.257812 205.628906 810.070312 205.628906 C 808.886719 205.628906 807.925781 204.667969 807.925781 203.484375 C 807.925781 202.296875 808.886719 201.335938 810.070312 201.335938 C 811.257812 201.335938 812.21875 202.296875 812.21875 203.484375 Z M 812.21875 203.484375 "/>
<path style="fill:none;stroke-width:1;stroke-linecap:square;stroke-linejoin:miter;stroke:rgb(96.861267%,77.645874%,0%);stroke-opacity:1;stroke-miterlimit:3.25;" d="M 799.773438 322.519531 L 811.519531 305.269531 L 823.324219 322.554688 "/>
<path style="fill-rule:evenodd;fill:rgb(96.861267%,77.645874%,0%);fill-opacity:1;stroke-width:1;stroke-linecap:square;stroke-linejoin:miter;stroke:rgb(0%,0%,0%);stroke-opacity:1;stroke-miterlimit:3.25;" d="M 813.878906 316.070312 C 813.878906 317.359375 812.835938 318.402344 811.546875 318.402344 C 810.257812 318.402344 809.214844 317.359375 809.214844 316.070312 C 809.214844 314.78125 810.257812 313.738281 811.546875 313.738281 C 812.835938 313.738281 813.878906 314.78125 813.878906 316.070312 Z M 813.878906 316.070312 "/>
<path style="fill-rule:evenodd;fill:rgb(96.861267%,77.645874%,0%);fill-opacity:1;stroke-width:1;stroke-linecap:square;stroke-linejoin:miter;stroke:rgb(0%,0%,0%);stroke-opacity:1;stroke-miterlimit:3.25;" d="M 801.984375 335.261719 L 820.191406 335.3125 C 820.191406 335.3125 820.476562 332.949219 818.289062 331.515625 C 827.828125 330.203125 825.351562 321.789062 833.339844 321.3125 C 834.886719 321.550781 829.164062 324.890625 829.164062 324.890625 C 829.164062 324.890625 824.351562 328.289062 826.542969 330.015625 C 828.285156 331.386719 829.046875 329.179688 829.285156 327.511719 C 829.523438 325.84375 837.035156 324.769531 835.960938 320 C 834.171875 316.066406 823.683594 322.625 823.683594 322.625 L 816.195312 322.582031 C 815.730469 321.742188 813.667969 318.375 811.535156 318.359375 C 809.007812 318.449219 807.230469 322.625 807.230469 322.625 L 790.300781 322.625 C 790.300781 322.625 789.71875 326.96875 798.304688 327.800781 C 800.234375 330.328125 801.734375 331.03125 803.414062 331.683594 C 802.292969 332.617188 801.976562 333.746094 801.984375 335.261719 Z M 801.984375 335.261719 "/>
<path style="fill:none;stroke-width:1;stroke-linecap:square;stroke-linejoin:miter;stroke:rgb(0%,0%,0%);stroke-opacity:1;stroke-miterlimit:3.25;" d="M 803.292969 331.566406 L 818.460938 331.515625 "/>
<path style="fill:none;stroke-width:1;stroke-linecap:square;stroke-linejoin:miter;stroke:rgb(0%,0%,0%);stroke-opacity:1;stroke-miterlimit:3.25;" d="M 796.347656 322.625 C 796.347656 322.625 797.5625 329.71875 803.160156 331.398438 "/>
<path style="fill:none;stroke-width:1;stroke-linecap:square;stroke-linejoin:miter;stroke:rgb(0%,0%,0%);stroke-opacity:1;stroke-miterlimit:3.25;" d="M 795.414062 322.53125 C 795.972656 319.824219 797 319.355469 798.121094 315.902344 C 798.308594 312.542969 795.414062 312.917969 796.253906 310.769531 C 797.746094 308.4375 797 306.195312 794.199219 304.421875 C 794.761719 307.503906 790.5625 310.394531 790.5625 312.917969 C 790.5625 315.4375 792.707031 314.875 792.425781 318.703125 C 792.613281 320.941406 791.867188 320.382812 791.679688 322.53125 L 795.414062 322.53125 "/>
<path style="fill-rule:evenodd;fill:rgb(96.861267%,77.645874%,0%);fill-opacity:1;stroke-width:1;stroke-linecap:square;stroke-linejoin:miter;stroke:rgb(0%,0%,0%);stroke-opacity:1;stroke-miterlimit:3.25;" d="M 813.691406 305.710938 C 813.691406 306.894531 812.730469 307.855469 811.546875 307.855469 C 810.363281 307.855469 809.402344 306.894531 809.402344 305.710938 C 809.402344 304.523438 810.363281 303.5625 811.546875 303.5625 C 812.730469 303.5625 813.691406 304.523438 813.691406 305.710938 Z M 813.691406 305.710938 "/>
<path style="fill:none;stroke-width:1;stroke-linecap:square;stroke-linejoin:miter;stroke:rgb(96.861267%,77.645874%,0%);stroke-opacity:1;stroke-miterlimit:3.25;" d="M 799.589844 288.359375 L 811.335938 271.109375 L 823.136719 288.394531 "/>
<path style="fill-rule:evenodd;fill:rgb(96.861267%,77.645874%,0%);fill-opacity:1;stroke-width:1;stroke-linecap:square;stroke-linejoin:miter;stroke:rgb(0%,0%,0%);stroke-opacity:1;stroke-miterlimit:3.25;" d="M 815.492188 283.1875 C 815.492188 284.476562 814.445312 285.523438 813.160156 285.523438 C 811.871094 285.523438 810.824219 284.476562 810.824219 283.1875 C 810.824219 281.898438 811.871094 280.855469 813.160156 280.855469 C 814.445312 280.855469 815.492188 281.898438 815.492188 283.1875 Z M 815.492188 283.1875 "/>
<path style="fill-rule:evenodd;fill:rgb(96.861267%,77.645874%,0%);fill-opacity:1;stroke-width:1;stroke-linecap:square;stroke-linejoin:miter;stroke:rgb(0%,0%,0%);stroke-opacity:1;stroke-miterlimit:3.25;" d="M 801.796875 301.101562 L 820.007812 301.152344 C 820.007812 301.152344 820.292969 298.789062 818.105469 297.351562 C 827.640625 296.039062 825.164062 287.628906 833.152344 287.152344 C 834.703125 287.390625 828.980469 290.726562 828.980469 290.726562 C 828.980469 290.726562 824.164062 294.125 826.355469 295.855469 C 828.097656 297.226562 828.859375 295.019531 829.097656 293.351562 C 829.335938 291.679688 836.847656 290.609375 835.773438 285.839844 C 833.988281 281.90625 823.496094 288.460938 823.496094 288.460938 L 816.011719 288.421875 C 815.542969 287.582031 813.480469 284.210938 811.351562 284.195312 C 808.824219 284.289062 807.042969 288.460938 807.042969 288.460938 L 790.113281 288.460938 C 790.113281 288.460938 789.53125 292.804688 798.117188 293.640625 C 800.050781 296.164062 801.546875 296.871094 803.226562 297.523438 C 802.105469 298.457031 801.792969 299.585938 801.796875 301.101562 Z M 801.796875 301.101562 "/>
<path style="fill:none;stroke-width:1;stroke-linecap:square;stroke-linejoin:miter;stroke:rgb(0%,0%,0%);stroke-opacity:1;stroke-miterlimit:3.25;" d="M 803.109375 297.402344 L 818.273438 297.351562 "/>
<path style="fill:none;stroke-width:1;stroke-linecap:square;stroke-linejoin:miter;stroke:rgb(0%,0%,0%);stroke-opacity:1;stroke-miterlimit:3.25;" d="M 796.160156 288.460938 C 796.160156 288.460938 797.375 295.554688 802.976562 297.234375 "/>
<path style="fill:none;stroke-width:1;stroke-linecap:square;stroke-linejoin:miter;stroke:rgb(0%,0%,0%);stroke-opacity:1;stroke-miterlimit:3.25;" d="M 795.226562 288.367188 C 795.789062 285.660156 796.816406 285.195312 797.933594 281.742188 C 798.121094 278.382812 795.226562 278.753906 796.066406 276.609375 C 797.5625 274.273438 796.816406 272.035156 794.015625 270.261719 C 794.574219 273.339844 790.375 276.234375 790.375 278.753906 C 790.375 281.273438 792.519531 280.714844 792.242188 284.542969 C 792.425781 286.78125 791.679688 286.222656 791.496094 288.367188 L 795.226562 288.367188 "/>
<path style="fill-rule:evenodd;fill:rgb(96.861267%,77.645874%,0%);fill-opacity:1;stroke-width:1;stroke-linecap:square;stroke-linejoin:miter;stroke:rgb(0%,0%,0%);stroke-opacity:1;stroke-miterlimit:3.25;" d="M 813.523438 271.433594 C 813.527344 272.617188 812.566406 273.578125 811.378906 273.578125 C 810.195312 273.578125 809.234375 272.617188 809.234375 271.433594 C 809.234375 270.246094 810.195312 269.285156 811.378906 269.285156 C 812.566406 269.285156 813.527344 270.246094 813.523438 271.433594 Z M 813.523438 271.433594 "/>
<path style="fill:none;stroke-width:1;stroke-linecap:square;stroke-linejoin:miter;stroke:rgb(96.861267%,77.645874%,0%);stroke-opacity:1;stroke-miterlimit:3.25;" d="M 700.351562 256.605469 L 712.097656 239.355469 L 723.898438 256.644531 "/>
<path style="fill-rule:evenodd;fill:rgb(96.861267%,77.645874%,0%);fill-opacity:1;stroke-width:1;stroke-linecap:square;stroke-linejoin:miter;stroke:rgb(0%,0%,0%);stroke-opacity:1;stroke-miterlimit:3.25;" d="M 716.253906 251.4375 C 716.253906 252.726562 715.207031 253.769531 713.921875 253.769531 C 712.632812 253.769531 711.585938 252.726562 711.585938 251.4375 C 711.585938 250.148438 712.632812 249.101562 713.921875 249.101562 C 715.207031 249.101562 716.253906 250.148438 716.253906 251.4375 Z M 716.253906 251.4375 "/>
<path style="fill-rule:evenodd;fill:rgb(96.861267%,77.645874%,0%);fill-opacity:1;stroke-width:1;stroke-linecap:square;stroke-linejoin:miter;stroke:rgb(0%,0%,0%);stroke-opacity:1;stroke-miterlimit:3.25;" d="M 702.558594 269.347656 L 720.769531 269.398438 C 720.769531 269.398438 721.054688 267.035156 718.867188 265.601562 C 728.402344 264.289062 725.925781 255.875 733.914062 255.398438 C 735.464844 255.636719 729.742188 258.976562 729.742188 258.976562 C 729.742188 258.976562 724.925781 262.375 727.117188 264.101562 C 728.859375 265.472656 729.621094 263.269531 729.859375 261.597656 C 730.097656 259.929688 737.609375 258.855469 736.539062 254.085938 C 734.75 250.152344 724.257812 256.710938 724.257812 256.710938 L 716.773438 256.667969 C 716.304688 255.828125 714.242188 252.460938 712.113281 252.445312 C 709.585938 252.535156 707.804688 256.710938 707.804688 256.710938 L 690.875 256.710938 C 690.875 256.710938 690.292969 261.054688 698.878906 261.890625 C 700.8125 264.414062 702.308594 265.117188 703.988281 265.773438 C 702.871094 266.703125 702.554688 267.835938 702.558594 269.347656 Z M 702.558594 269.347656 "/>
<path style="fill:none;stroke-width:1;stroke-linecap:square;stroke-linejoin:miter;stroke:rgb(0%,0%,0%);stroke-opacity:1;stroke-miterlimit:3.25;" d="M 703.871094 265.652344 L 719.039062 265.601562 "/>
<path style="fill:none;stroke-width:1;stroke-linecap:square;stroke-linejoin:miter;stroke:rgb(0%,0%,0%);stroke-opacity:1;stroke-miterlimit:3.25;" d="M 696.921875 256.710938 C 696.921875 256.710938 698.136719 263.804688 703.738281 265.484375 "/>
<path style="fill:none;stroke-width:1;stroke-linecap:square;stroke-linejoin:miter;stroke:rgb(0%,0%,0%);stroke-opacity:1;stroke-miterlimit:3.25;" d="M 695.988281 256.617188 C 696.550781 253.910156 697.578125 253.441406 698.695312 249.988281 C 698.882812 246.628906 695.988281 247.003906 696.832031 244.855469 C 698.324219 242.523438 697.578125 240.28125 694.777344 238.507812 C 695.335938 241.589844 691.136719 244.484375 691.136719 247.003906 C 691.136719 249.523438 693.285156 248.964844 693.003906 252.789062 C 693.191406 255.03125 692.441406 254.46875 692.257812 256.617188 L 695.988281 256.617188 "/>
<path style="fill-rule:evenodd;fill:rgb(96.861267%,77.645874%,0%);fill-opacity:1;stroke-width:1;stroke-linecap:square;stroke-linejoin:miter;stroke:rgb(0%,0%,0%);stroke-opacity:1;stroke-miterlimit:3.25;" d="M 714.289062 239.679688 C 714.289062 240.867188 713.328125 241.828125 712.140625 241.828125 C 710.957031 241.828125 709.996094 240.867188 709.996094 239.679688 C 709.996094 238.496094 710.957031 237.535156 712.140625 237.535156 C 713.328125 237.535156 714.289062 238.496094 714.289062 239.679688 Z M 714.289062 239.679688 "/>
<path style="fill-rule:evenodd;fill:rgb(96.861267%,77.645874%,0%);fill-opacity:1;stroke-width:1;stroke-linecap:square;stroke-linejoin:miter;stroke:rgb(0%,0%,0%);stroke-opacity:1;stroke-miterlimit:3.25;" d="M 763.203125 338.59375 C 763.203125 338.59375 767.953125 349.550781 773.367188 342.820312 C 778.777344 336.085938 776.800781 333.183594 776.800781 333.183594 L 764.65625 326.582031 L 761.089844 334.105469 Z M 763.203125 338.59375 "/>
<path style="fill-rule:evenodd;fill:rgb(99.998474%,77.645874%,70.979309%);fill-opacity:1;stroke-width:1;stroke-linecap:square;stroke-linejoin:miter;stroke:rgb(0%,0%,0%);stroke-opacity:1;stroke-miterlimit:3.25;" d="M 773.632812 337.144531 C 773.632812 337.144531 774.421875 337.277344 775.082031 336.085938 C 775.742188 334.898438 773.632812 334.371094 772.707031 333.050781 L 771.652344 335.164062 Z M 773.632812 337.144531 "/>
<path style="fill-rule:evenodd;fill:rgb(99.998474%,77.645874%,70.979309%);fill-opacity:1;stroke-width:1;stroke-linecap:square;stroke-linejoin:miter;stroke:rgb(0%,0%,0%);stroke-opacity:1;stroke-miterlimit:3.25;" d="M 746.175781 334.238281 L 735.484375 340.046875 C 735.484375 340.046875 730.203125 341.101562 729.808594 340.046875 C 729.410156 338.992188 729.9375 338.066406 732.710938 337.933594 C 735.484375 337.804688 743.007812 330.9375 743.007812 330.9375 Z M 746.175781 334.238281 "/>
<path style="fill-rule:evenodd;fill:rgb(99.998474%,77.645874%,70.979309%);fill-opacity:1;stroke-width:1;stroke-linecap:square;stroke-linejoin:miter;stroke:rgb(0%,0%,0%);stroke-opacity:1;stroke-miterlimit:3.25;" d="M 746.308594 144.289062 C 746.308594 144.289062 746.570312 146.796875 746.703125 148.117188 C 746.835938 149.4375 744.589844 152.210938 744.457031 152.078125 C 744.328125 151.945312 743.269531 152.210938 743.402344 153.003906 C 743.535156 153.792969 745.117188 154.058594 745.117188 154.058594 C 745.117188 154.058594 744.457031 156.832031 745.117188 156.960938 C 745.777344 157.09375 743.402344 160.527344 745.117188 161.449219 C 746.835938 162.375 749.738281 163.5625 751.058594 163.296875 C 752.378906 163.035156 751.058594 168.445312 751.058594 168.445312 L 747.363281 176.367188 L 767.691406 174.253906 L 763.464844 167.523438 C 763.464844 167.523438 761.488281 166.203125 762.015625 162.375 C 762.542969 158.546875 761.75 141.253906 761.75 141.253906 L 747.230469 139.273438 Z M 746.308594 144.289062 "/>
<path style="fill-rule:evenodd;fill:rgb(99.998474%,77.645874%,70.979309%);fill-opacity:1;stroke-width:1;stroke-linecap:square;stroke-linejoin:miter;stroke:rgb(0%,0%,0%);stroke-opacity:1;stroke-miterlimit:3.25;" d="M 742.609375 174.386719 C 742.609375 174.386719 736.011719 177.421875 736.273438 185.605469 C 734.558594 193.527344 733.632812 201.445312 733.632812 201.445312 C 733.632812 201.445312 725.847656 210.289062 723.472656 213.457031 C 721.09375 216.628906 717.53125 223.09375 716.210938 224.8125 C 714.890625 226.527344 709.742188 232.203125 709.875 234.316406 C 710.007812 236.425781 708.6875 245.800781 713.835938 246.855469 C 715.15625 247.382812 719.378906 236.03125 719.378906 236.03125 C 719.378906 236.03125 719.644531 231.148438 718.191406 230.222656 C 716.738281 229.300781 721.359375 226.132812 721.359375 226.132812 C 721.359375 226.132812 730.203125 219.664062 732.183594 218.078125 C 734.164062 216.496094 739.574219 210.421875 739.574219 210.421875 Z M 742.609375 174.386719 "/>
<path style="fill-rule:evenodd;fill:rgb(99.998474%,99.998474%,99.998474%);fill-opacity:1;stroke-width:1;stroke-linecap:square;stroke-linejoin:miter;stroke:rgb(0%,0%,0%);stroke-opacity:1;stroke-miterlimit:3.25;" d="M 750.132812 168.183594 C 750.132812 168.183594 751.851562 172.804688 755.679688 172.011719 C 759.507812 171.21875 763.996094 167.65625 763.996094 167.65625 C 763.996094 167.65625 767.558594 167.523438 768.085938 168.050781 C 768.613281 168.578125 777.722656 177.421875 777.457031 180.195312 C 777.195312 182.96875 773.234375 182.175781 771.78125 184.023438 C 770.332031 185.871094 767.953125 190.492188 768.613281 193.921875 C 769.273438 197.355469 771.253906 201.84375 770.992188 203.558594 C 770.726562 205.273438 769.273438 205.804688 769.273438 206.726562 C 769.273438 207.652344 770.460938 209.234375 770.460938 210.949219 C 770.460938 212.667969 768.878906 215.175781 769.144531 216.890625 C 769.40625 218.605469 769.539062 223.621094 769.539062 223.621094 L 769.144531 246.855469 C 769.144531 246.855469 770.460938 247.648438 770.59375 248.96875 C 770.726562 250.285156 779.570312 288.699219 779.570312 288.699219 C 779.570312 288.699219 779.175781 289.886719 778.25 289.753906 C 777.328125 289.625 781.816406 295.695312 781.945312 297.410156 C 782.078125 299.128906 786.566406 312.589844 786.433594 314.4375 C 786.304688 316.289062 785.644531 320.378906 785.246094 320.511719 C 784.851562 320.644531 788.152344 328.960938 787.621094 330.28125 C 787.09375 331.597656 781.683594 331.46875 781.683594 331.46875 L 780.230469 331.203125 C 780.230469 331.203125 780.363281 332.917969 779.308594 333.050781 C 778.25 333.183594 770.460938 332.65625 770.460938 332.65625 C 770.460938 332.65625 768.21875 336.085938 766.898438 335.957031 C 765.578125 335.824219 763.863281 333.449219 763.464844 333.84375 C 763.070312 334.238281 764.65625 336.484375 764.257812 337.144531 C 763.863281 337.804688 757.128906 339.253906 755.8125 336.085938 C 754.492188 332.917969 756.601562 333.710938 756.207031 333.050781 C 755.8125 332.390625 752.773438 330.675781 751.851562 331.203125 C 750.925781 331.730469 754.226562 332.523438 754.09375 333.84375 C 753.960938 335.164062 751.191406 337.144531 750.132812 337.144531 C 749.078125 337.144531 746.570312 332.257812 742.875 332.789062 C 739.179688 333.316406 736.800781 334.238281 736.800781 334.238281 C 736.800781 334.238281 732.445312 336.085938 730.597656 335.691406 C 728.75 335.296875 727.957031 333.84375 727.957031 333.050781 C 727.957031 332.257812 729.277344 328.828125 729.148438 327.769531 C 729.015625 326.714844 727.957031 325.660156 727.957031 324.074219 C 727.957031 322.492188 730.996094 317.078125 730.996094 317.078125 L 730.863281 292.792969 C 730.863281 292.792969 728.089844 292.792969 727.957031 291.074219 C 727.828125 289.359375 732.183594 252.664062 732.84375 250.285156 C 733.503906 247.910156 735.21875 239.464844 735.21875 239.464844 C 735.21875 239.464844 733.238281 240.386719 733.105469 239.464844 C 732.976562 238.539062 739.046875 217.550781 739.046875 217.550781 C 739.046875 217.550781 740.101562 207.121094 740.101562 204.351562 C 740.101562 201.578125 739.574219 197.75 739.574219 197.75 C 739.574219 197.75 734.15625 195.457031 734.03125 191.941406 C 733.535156 186.351562 739.179688 183.230469 739.839844 181.382812 C 740.5 179.535156 742.480469 173.992188 742.480469 173.992188 C 742.480469 173.992188 745.382812 168.976562 750.132812 168.183594 Z M 750.132812 168.183594 "/>
<path style="fill-rule:evenodd;fill:rgb(96.861267%,77.645874%,0%);fill-opacity:1;stroke-width:1;stroke-linecap:square;stroke-linejoin:miter;stroke:rgb(0%,0%,0%);stroke-opacity:1;stroke-miterlimit:3.25;" d="M 748.15625 335.824219 C 748.15625 335.824219 735.351562 342.554688 733.503906 343.082031 C 731.65625 343.613281 730.464844 340.839844 732.316406 340.3125 C 734.164062 339.785156 737.066406 339.519531 737.066406 339.519531 C 737.066406 339.519531 732.710938 336.085938 732.84375 335.957031 C 732.976562 335.824219 738.78125 333.710938 738.914062 333.710938 C 739.046875 333.710938 740.761719 337.144531 741.949219 336.878906 C 743.140625 336.617188 746.570312 333.976562 746.570312 333.976562 C 746.570312 333.976562 748.417969 336.085938 748.15625 335.824219 Z M 748.15625 335.824219 "/>
<path style="fill-rule:evenodd;fill:rgb(99.998474%,77.645874%,70.979309%);fill-opacity:1;stroke-width:1;stroke-linecap:square;stroke-linejoin:miter;stroke:rgb(0%,0%,0%);stroke-opacity:1;stroke-miterlimit:3.25;" d="M 766.195312 339.519531 C 767.402344 341.082031 767.878906 343.789062 770.648438 342.203125 C 773.421875 340.621094 769.230469 337.679688 769.230469 337.679688 Z M 766.195312 339.519531 "/>
<path style="fill-rule:evenodd;fill:rgb(99.998474%,77.645874%,70.979309%);fill-opacity:1;stroke-width:1;stroke-linecap:square;stroke-linejoin:miter;stroke:rgb(0%,0%,0%);stroke-opacity:1;stroke-miterlimit:3.25;" d="M 771.253906 339.253906 C 771.253906 339.253906 772.574219 340.3125 773.761719 339.125 C 774.949219 337.933594 771.386719 335.425781 771.386719 335.425781 L 769.671875 337.40625 Z M 771.253906 339.253906 "/>
<path style="fill:none;stroke-width:1;stroke-linecap:square;stroke-linejoin:miter;stroke:rgb(0%,0%,0%);stroke-opacity:1;stroke-miterlimit:3.25;" d="M 767.292969 173.332031 C 767.292969 173.332031 755.546875 180.855469 755.8125 183.496094 "/>
<path style="fill:none;stroke-width:1;stroke-linecap:square;stroke-linejoin:miter;stroke:rgb(0%,0%,0%);stroke-opacity:1;stroke-miterlimit:3.25;" d="M 769.933594 174.652344 C 769.933594 174.652344 767.292969 177.554688 767.164062 177.554688 "/>
<path style="fill:none;stroke-width:1;stroke-linecap:square;stroke-linejoin:miter;stroke:rgb(0%,0%,0%);stroke-opacity:1;stroke-miterlimit:3.25;" d="M 773.5 177.820312 C 773.5 177.820312 767.691406 182.570312 768.613281 185.605469 "/>
<path style="fill:none;stroke-width:1;stroke-linecap:square;stroke-linejoin:miter;stroke:rgb(0%,0%,0%);stroke-opacity:1;stroke-miterlimit:3.25;" d="M 746.042969 172.671875 C 746.042969 172.671875 744.328125 176.234375 744.722656 177.421875 C 745.117188 178.609375 748.023438 183.097656 748.417969 185.871094 C 748.816406 188.644531 748.417969 190.621094 748.417969 190.621094 "/>
<path style="fill:none;stroke-width:1;stroke-linecap:square;stroke-linejoin:miter;stroke:rgb(0%,0%,0%);stroke-opacity:1;stroke-miterlimit:3.25;" d="M 743.007812 179.269531 C 743.007812 179.269531 743.535156 183.496094 744.328125 184.285156 C 745.117188 185.078125 747.230469 188.644531 747.496094 190.09375 "/>
<path style="fill:none;stroke-width:1;stroke-linecap:square;stroke-linejoin:miter;stroke:rgb(0%,0%,0%);stroke-opacity:1;stroke-miterlimit:3.25;" d="M 741.949219 196.828125 C 741.949219 196.828125 745.382812 198.542969 748.550781 191.941406 "/>
<path style="fill:none;stroke-width:1;stroke-linecap:square;stroke-linejoin:miter;stroke:rgb(0%,0%,0%);stroke-opacity:1;stroke-miterlimit:3.25;" d="M 753.699219 187.324219 C 753.566406 187.324219 751.191406 193.789062 755.414062 196.167969 C 759.640625 198.542969 762.808594 198.277344 764.65625 197.617188 C 766.503906 196.957031 768.484375 195.769531 768.484375 195.769531 "/>
<path style="fill:none;stroke-width:1;stroke-linecap:square;stroke-linejoin:miter;stroke:rgb(0%,0%,0%);stroke-opacity:1;stroke-miterlimit:3.25;" d="M 751.851562 195.242188 C 751.851562 195.242188 752.113281 203.953125 764.917969 212.535156 "/>
<path style="fill:none;stroke-width:1;stroke-linecap:square;stroke-linejoin:miter;stroke:rgb(0%,0%,0%);stroke-opacity:1;stroke-miterlimit:3.25;" d="M 752.378906 203.425781 C 752.378906 203.425781 752.246094 211.082031 757.261719 214.515625 "/>
<path style="fill:none;stroke-width:1;stroke-linecap:square;stroke-linejoin:miter;stroke:rgb(0%,0%,0%);stroke-opacity:1;stroke-miterlimit:3.25;" d="M 749.738281 194.449219 C 749.738281 194.449219 745.910156 205.804688 742.875 206.992188 "/>
<path style="fill:none;stroke-width:1;stroke-linecap:square;stroke-linejoin:miter;stroke:rgb(0%,0%,0%);stroke-opacity:1;stroke-miterlimit:3.25;" d="M 748.550781 202.765625 C 748.550781 202.765625 748.417969 210.949219 747.363281 213.855469 "/>
<path style="fill:none;stroke-width:1;stroke-linecap:square;stroke-linejoin:miter;stroke:rgb(0%,0%,0%);stroke-opacity:1;stroke-miterlimit:3.25;" d="M 746.308594 215.835938 C 746.308594 215.835938 748.945312 219.136719 751.851562 218.871094 C 754.753906 218.605469 755.941406 215.175781 757.921875 215.703125 C 759.902344 216.230469 761.75 217.816406 766.371094 217.417969 "/>
<path style="fill:none;stroke-width:1;stroke-linecap:square;stroke-linejoin:miter;stroke:rgb(0%,0%,0%);stroke-opacity:1;stroke-miterlimit:3.25;" d="M 759.769531 220.851562 C 759.769531 220.851562 759.769531 227.582031 760.957031 228.242188 C 762.148438 228.902344 761.617188 235.105469 761.617188 235.105469 "/>
<path style="fill:none;stroke-width:1;stroke-linecap:square;stroke-linejoin:miter;stroke:rgb(0%,0%,0%);stroke-opacity:1;stroke-miterlimit:3.25;" d="M 743.667969 217.683594 C 743.667969 217.683594 743.535156 224.019531 742.742188 226.261719 C 741.949219 228.507812 740.367188 232.335938 740.628906 235.636719 "/>
<path style="fill:none;stroke-width:1;stroke-linecap:square;stroke-linejoin:miter;stroke:rgb(0%,0%,0%);stroke-opacity:1;stroke-miterlimit:3.25;" d="M 735.613281 239.332031 C 736.273438 239.066406 738.519531 237.085938 738.519531 237.085938 "/>
<path style="fill:none;stroke-width:1;stroke-linecap:square;stroke-linejoin:miter;stroke:rgb(0%,0%,0%);stroke-opacity:1;stroke-miterlimit:3.25;" d="M 739.707031 238.539062 C 739.707031 238.539062 734.03125 262.828125 735.613281 277.347656 "/>
<path style="fill:none;stroke-width:1;stroke-linecap:square;stroke-linejoin:miter;stroke:rgb(0%,0%,0%);stroke-opacity:1;stroke-miterlimit:3.25;" d="M 741.027344 239.726562 C 741.027344 239.726562 738.121094 257.941406 739.441406 261.375 "/>
<path style="fill:none;stroke-width:1;stroke-linecap:square;stroke-linejoin:miter;stroke:rgb(0%,0%,0%);stroke-opacity:1;stroke-miterlimit:3.25;" d="M 739.574219 239.199219 C 739.707031 239.199219 750.664062 239.992188 750.664062 239.992188 "/>
<path style="fill:none;stroke-width:1;stroke-linecap:square;stroke-linejoin:miter;stroke:rgb(0%,0%,0%);stroke-opacity:1;stroke-miterlimit:3.25;" d="M 752.246094 238.539062 C 752.246094 238.539062 755.28125 240.121094 759.507812 239.859375 "/>
<path style="fill:none;stroke-width:1;stroke-linecap:square;stroke-linejoin:miter;stroke:rgb(0%,0%,0%);stroke-opacity:1;stroke-miterlimit:3.25;" d="M 750.925781 247.382812 C 750.925781 247.382812 750.398438 278.535156 749.605469 285.398438 "/>
<path style="fill:none;stroke-width:1;stroke-linecap:square;stroke-linejoin:miter;stroke:rgb(0%,0%,0%);stroke-opacity:1;stroke-miterlimit:3.25;" d="M 767.164062 254.511719 C 767.164062 254.511719 770.59375 281.835938 772.574219 284.34375 "/>
<path style="fill:none;stroke-width:1;stroke-linecap:square;stroke-linejoin:miter;stroke:rgb(0%,0%,0%);stroke-opacity:1;stroke-miterlimit:3.25;" d="M 760.5625 257.941406 C 760.5625 257.941406 762.675781 282.097656 763.863281 284.210938 "/>
<path style="fill:none;stroke-width:1;stroke-linecap:square;stroke-linejoin:miter;stroke:rgb(0%,0%,0%);stroke-opacity:1;stroke-miterlimit:3.25;" d="M 730.597656 292.660156 C 730.597656 292.660156 734.691406 291.339844 738.386719 287.378906 C 742.609375 293.054688 749.078125 287.644531 749.078125 287.644531 C 749.078125 287.644531 759.109375 294.507812 763.597656 286.851562 C 770.460938 291.339844 773.894531 286.191406 773.894531 286.191406 C 773.894531 286.191406 776.402344 290.019531 778.25 289.625 "/>
<path style="fill:none;stroke-width:1;stroke-linecap:square;stroke-linejoin:miter;stroke:rgb(0%,0%,0%);stroke-opacity:1;stroke-miterlimit:3.25;" d="M 767.292969 292.261719 C 767.292969 292.261719 772.441406 316.417969 780.097656 323.285156 "/>
<path style="fill:none;stroke-width:1;stroke-linecap:square;stroke-linejoin:miter;stroke:rgb(0%,0%,0%);stroke-opacity:1;stroke-miterlimit:3.25;" d="M 740.761719 289.753906 C 740.761719 289.753906 741.421875 309.953125 742.609375 324.207031 "/>
<path style="fill:none;stroke-width:1;stroke-linecap:square;stroke-linejoin:miter;stroke:rgb(0%,0%,0%);stroke-opacity:1;stroke-miterlimit:3.25;" d="M 739.839844 312.589844 C 739.839844 312.589844 739.179688 325.792969 738.386719 326.714844 "/>
<path style="fill:none;stroke-width:1;stroke-linecap:square;stroke-linejoin:miter;stroke:rgb(0%,0%,0%);stroke-opacity:1;stroke-miterlimit:3.25;" d="M 732.050781 328.035156 C 732.050781 328.035156 733.503906 333.710938 740.761719 328.429688 C 748.023438 323.152344 748.15625 330.410156 748.417969 331.203125 C 748.683594 331.996094 749.871094 337.671875 752.644531 332.917969 "/>
<path style="fill:none;stroke-width:1;stroke-linecap:square;stroke-linejoin:miter;stroke:rgb(0%,0%,0%);stroke-opacity:1;stroke-miterlimit:3.25;" d="M 758.449219 325.132812 C 758.449219 325.132812 757.261719 336.878906 767.691406 328.300781 C 778.117188 319.71875 779.835938 328.167969 780.097656 330.808594 "/>
<path style="fill-rule:evenodd;fill:rgb(61.175537%,31.764221%,0%);fill-opacity:1;stroke-width:1;stroke-linecap:square;stroke-linejoin:miter;stroke:rgb(0%,0%,0%);stroke-opacity:1;stroke-miterlimit:3.25;" d="M 745.910156 143.5 C 745.910156 143.5 748.816406 143.894531 750.398438 142.96875 C 751.984375 142.046875 753.832031 141.652344 755.152344 143.5 C 756.472656 145.347656 757.394531 145.214844 757.394531 145.214844 C 757.394531 145.214844 755.414062 150.097656 757.394531 150.625 C 759.375 151.15625 760.296875 151.15625 760.429688 151.816406 C 760.5625 152.476562 758.714844 153.925781 759.242188 154.585938 C 759.769531 155.246094 760.695312 156.039062 760.828125 156.566406 C 760.957031 157.09375 759.640625 159.339844 760.035156 159.867188 C 760.429688 160.394531 761.617188 162.507812 762.410156 162.507812 C 763.203125 162.507812 762.675781 165.808594 765.050781 165.015625 C 767.425781 164.222656 767.292969 162.109375 767.292969 162.109375 C 767.292969 162.109375 769.804688 161.714844 770.460938 159.472656 C 771.121094 157.226562 772.707031 156.699219 772.707031 156.699219 C 772.707031 156.699219 775.875 154.984375 771.652344 152.34375 C 771.652344 133.863281 759.507812 135.84375 759.507812 135.84375 C 759.507812 135.84375 758.054688 132.542969 755.679688 132.9375 C 753.304688 133.335938 753.171875 136.105469 751.453125 135.84375 C 749.738281 135.578125 749.34375 134.390625 749.210938 134.523438 C 749.078125 134.65625 747.625 137.292969 747.625 137.953125 C 747.625 138.613281 743.007812 137.03125 743.402344 140.460938 C 743.796875 143.894531 746.042969 143.761719 745.910156 143.5 Z M 745.910156 143.5 "/>
<path style="fill:none;stroke-width:1;stroke-linecap:square;stroke-linejoin:miter;stroke:rgb(0%,0%,0%);stroke-opacity:1;stroke-miterlimit:3.25;" d="M 758.582031 139.011719 C 758.582031 139.011719 757.660156 144.820312 763.863281 144.289062 C 763.070312 147.457031 765.445312 148.515625 765.445312 148.515625 "/>
<path style="fill:none;stroke-width:1;stroke-linecap:square;stroke-linejoin:miter;stroke:rgb(0%,0%,0%);stroke-opacity:1;stroke-miterlimit:3.25;" d="M 770.066406 152.078125 C 770.199219 152.078125 772.839844 153.792969 769.933594 155.90625 "/>
<path style="fill:none;stroke-width:1;stroke-linecap:square;stroke-linejoin:miter;stroke:rgb(0%,0%,0%);stroke-opacity:1;stroke-miterlimit:3.25;" d="M 761.089844 156.699219 C 761.089844 156.699219 762.410156 158.28125 763.863281 157.886719 C 765.316406 157.492188 767.691406 159.339844 767.691406 159.339844 C 767.691406 159.339844 769.671875 160 769.933594 159.601562 "/>
<path style="fill:none;stroke-width:1;stroke-linecap:square;stroke-linejoin:miter;stroke:rgb(0%,0%,0%);stroke-opacity:1;stroke-miterlimit:3.25;" d="M 753.039062 161.714844 C 753.039062 161.714844 757.527344 163.429688 760.429688 156.304688 "/>
<path style="fill:none;stroke-width:1;stroke-linecap:square;stroke-linejoin:miter;stroke:rgb(0%,0%,0%);stroke-opacity:1;stroke-miterlimit:3.25;" d="M 744.722656 154.191406 L 747.363281 154.324219 "/>
<path style="fill:none;stroke-width:1;stroke-linecap:square;stroke-linejoin:miter;stroke:rgb(0%,0%,0%);stroke-opacity:1;stroke-miterlimit:3.25;" d="M 745.117188 156.832031 L 747.496094 156.832031 L 745.382812 157.753906 "/>
<path style="fill:none;stroke-width:1;stroke-linecap:square;stroke-linejoin:miter;stroke:rgb(0%,0%,0%);stroke-opacity:1;stroke-miterlimit:3.25;" d="M 748.417969 149.4375 C 748.816406 149.4375 750.265625 148.910156 750.53125 149.308594 C 750.792969 149.703125 748.945312 149.964844 748.417969 149.4375 "/>
<path style="fill-rule:evenodd;fill:rgb(99.998474%,77.645874%,70.979309%);fill-opacity:1;stroke-width:1;stroke-linecap:square;stroke-linejoin:miter;stroke:rgb(0%,0%,0%);stroke-opacity:1;stroke-miterlimit:3.25;" d="M 776.929688 180.800781 C 777.0625 180.800781 781.285156 193.867188 781.816406 197.167969 C 782.34375 200.46875 784.058594 213.667969 783.398438 215.515625 C 782.738281 217.363281 776.007812 226.207031 775.214844 228.453125 C 774.421875 230.695312 769.671875 239.277344 769.671875 239.277344 C 769.671875 239.277344 768.484375 247.722656 767.953125 248.121094 C 767.425781 248.515625 769.316406 250.589844 769.144531 251.289062 C 768.882812 252.074219 765.316406 255.777344 763.730469 255.378906 C 762.148438 254.984375 759.640625 253.136719 759.507812 251.421875 C 759.375 249.703125 759.640625 244.027344 760.828125 242.578125 C 762.015625 241.125 768.21875 226.472656 768.613281 225.546875 C 769.011719 224.625 774.289062 213.140625 774.421875 211.160156 C 774.554688 209.179688 772.78125 204.601562 770.914062 202.921875 C 766.757812 190.695312 768.390625 183.320312 776.929688 180.800781 Z M 776.929688 180.800781 "/>
<path style="fill:none;stroke-width:1;stroke-linecap:square;stroke-linejoin:miter;stroke:rgb(0%,0%,0%);stroke-opacity:1;stroke-miterlimit:3.25;" d="M 715.4375 237.4375 L 715.644531 243.222656 "/>
<path style="fill:none;stroke-width:1;stroke-linecap:square;stroke-linejoin:miter;stroke:rgb(0%,0%,0%);stroke-opacity:1;stroke-miterlimit:3.25;" d="M 710.011719 237.007812 C 710.011719 237.007812 713.71875 243.210938 713.410156 246.515625 "/>
<path style="fill:none;stroke-width:1;stroke-linecap:square;stroke-linejoin:miter;stroke:rgb(0%,0%,0%);stroke-opacity:1;stroke-miterlimit:3.25;" d="M 759.722656 249.96875 C 759.722656 249.96875 762.496094 249.675781 762.40625 254.304688 C 764.175781 248.554688 767.777344 248.417969 767.777344 248.417969 "/>
<path style="fill-rule:evenodd;fill:rgb(96.861267%,77.645874%,0%);fill-opacity:1;stroke-width:1;stroke-linecap:square;stroke-linejoin:miter;stroke:rgb(0%,0%,0%);stroke-opacity:1;stroke-miterlimit:3.25;" d="M 750.25 382.148438 C 805.996094 380.601562 842 340.339844 841.613281 339.949219 C 841.226562 339.5625 848.96875 328.722656 855.164062 330.273438 C 861.359375 331.820312 870.261719 350.015625 881.101562 353.886719 C 886.523438 362.40625 879.554688 370.148438 877.230469 371.695312 C 874.90625 373.246094 864.457031 377.503906 862.90625 371.308594 C 861.359375 365.113281 858.261719 366.277344 858.261719 366.277344 C 858.261719 366.277344 808.707031 414.667969 751.410156 412.734375 C 692.179688 413.121094 643.398438 366.277344 643.398438 366.277344 L 639.140625 370.921875 C 639.140625 370.921875 634.496094 375.953125 632.171875 375.566406 C 629.847656 375.179688 619.785156 368.597656 619.007812 362.019531 C 618.234375 355.4375 625.203125 351.179688 625.203125 351.179688 C 625.203125 351.179688 642.238281 338.015625 644.171875 331.046875 C 648.042969 327.175781 655.398438 333.757812 655.398438 333.757812 C 655.398438 333.757812 700.308594 385.246094 750.25 382.148438 Z M 750.25 382.148438 "/>
<path style="fill:none;stroke-width:1;stroke-linecap:square;stroke-linejoin:miter;stroke:rgb(0%,0%,0%);stroke-opacity:1;stroke-miterlimit:3.25;" d="M 624.046875 352.203125 C 624.046875 352.203125 628.652344 350.976562 630.34375 352.894531 C 632.03125 354.816406 643.625 366.179688 643.625 366.179688 "/>
<path style="fill:none;stroke-width:1;stroke-linecap:square;stroke-linejoin:miter;stroke:rgb(0%,0%,0%);stroke-opacity:1;stroke-miterlimit:3.25;" d="M 634.566406 357.578125 L 629.957031 361.035156 C 629.957031 361.035156 641.550781 363.335938 638.941406 370.9375 "/>
<path style="fill:none;stroke-width:1;stroke-linecap:square;stroke-linejoin:miter;stroke:rgb(0%,0%,0%);stroke-opacity:1;stroke-miterlimit:3.25;" d="M 876.945312 351.820312 C 876.945312 351.820312 874.644531 350.59375 871.035156 353.28125 C 867.425781 355.96875 858.289062 366.179688 858.289062 366.179688 "/>
<path style="fill:none;stroke-width:1;stroke-linecap:square;stroke-linejoin:miter;stroke:rgb(0%,0%,0%);stroke-opacity:1;stroke-miterlimit:3.25;" d="M 866.582031 357.273438 L 871.574219 361.109375 C 871.574219 361.109375 861.132812 361.800781 863.433594 371.707031 "/>
<path style=" stroke:none;fill-rule:evenodd;fill:rgb(99.998474%,99.998474%,99.998474%);fill-opacity:1;" d="M 0 0 L 0 27.949219 L 444.097656 250 L 500 250 L 500 222.050781 L 55.902344 0 Z M 500 0 L 500 27.949219 L 55.902344 250 L 0 250 L 0 222.046875 L 444.097656 0 Z M 500 0 "/>
<path style=" stroke:none;fill-rule:evenodd;fill:rgb(81.175232%,7.843018%,16.862488%);fill-opacity:1;" d="M 0 250 L 166.667969 166.667969 L 203.933594 166.667969 L 37.269531 250 Z M 0 0 L 166.667969 83.332031 L 129.398438 83.332031 L 0 18.632812 Z M 296.066406 83.332031 L 462.734375 0 L 500 0 L 333.332031 83.332031 Z M 500 250 L 333.332031 166.667969 L 370.601562 166.667969 L 500 231.367188 Z M 500 250 "/>
<path style=" stroke:none;fill-rule:evenodd;fill:rgb(0%,0%,0%);fill-opacity:1;" d="M 683.054688 364.496094 L 682.71875 364.96875 C 682.019531 364.621094 681.21875 364.558594 680.324219 364.773438 C 679.664062 364.945312 678.421875 365.5625 676.601562 366.628906 L 661.261719 375.574219 L 660.839844 375.273438 L 664.707031 357.339844 C 665.171875 355.179688 665.386719 353.867188 665.34375 353.402344 C 665.3125 352.945312 664.988281 352.4375 664.375 351.882812 L 664.710938 351.414062 L 672.980469 357.3125 L 672.644531 357.78125 L 672.363281 357.582031 C 671.617188 357.050781 671.042969 356.78125 670.636719 356.773438 C 670.351562 356.761719 670.121094 356.878906 669.945312 357.125 C 669.835938 357.277344 669.738281 357.484375 669.65625 357.742188 C 669.578125 357.996094 669.414062 358.714844 669.15625 359.898438 L 666.707031 371.109375 L 675.570312 365.894531 C 676.636719 365.261719 677.328125 364.820312 677.644531 364.574219 C 677.960938 364.324219 678.199219 364.09375 678.355469 363.871094 C 678.539062 363.617188 678.628906 363.34375 678.632812 363.050781 C 678.636719 362.761719 678.542969 362.46875 678.351562 362.179688 C 678.089844 361.777344 677.660156 361.359375 677.058594 360.929688 L 677.394531 360.460938 Z M 688.5625 391.152344 L 688.285156 391.660156 L 678.566406 386.34375 L 678.84375 385.835938 L 679.460938 386.171875 C 680 386.46875 680.484375 386.609375 680.917969 386.597656 C 681.226562 386.601562 681.53125 386.480469 681.828125 386.238281 C 682.046875 386.074219 682.414062 385.527344 682.921875 384.59375 L 689.609375 372.367188 C 690.128906 371.414062 690.40625 370.792969 690.433594 370.5 C 690.464844 370.210938 690.371094 369.890625 690.15625 369.546875 C 689.953125 369.199219 689.59375 368.882812 689.070312 368.597656 L 688.453125 368.261719 L 688.730469 367.753906 L 698.453125 373.070312 L 698.175781 373.578125 L 697.558594 373.238281 C 697.019531 372.945312 696.53125 372.804688 696.097656 372.816406 C 695.789062 372.8125 695.480469 372.929688 695.175781 373.164062 C 694.953125 373.328125 694.589844 373.878906 694.078125 374.808594 L 687.390625 387.039062 C 686.871094 387.988281 686.597656 388.609375 686.570312 388.902344 C 686.546875 389.199219 686.640625 389.523438 686.839844 389.871094 C 687.054688 390.214844 687.425781 390.527344 687.945312 390.8125 Z M 724.070312 382.824219 L 721.566406 389.859375 L 721.019531 389.664062 C 721.046875 387.507812 720.582031 385.695312 719.625 384.226562 C 718.664062 382.753906 717.40625 381.742188 715.847656 381.1875 C 714.355469 380.65625 712.960938 380.636719 711.671875 381.125 C 710.382812 381.609375 709.265625 382.527344 708.316406 383.878906 C 707.371094 385.234375 706.617188 386.703125 706.054688 388.28125 C 705.371094 390.195312 705 391.953125 704.9375 393.558594 C 704.875 395.160156 705.222656 396.480469 705.984375 397.511719 C 706.753906 398.550781 707.828125 399.3125 709.214844 399.808594 C 709.695312 399.976562 710.203125 400.105469 710.738281 400.183594 C 711.285156 400.257812 711.859375 400.292969 712.460938 400.285156 L 713.9375 396.132812 C 714.21875 395.347656 714.34375 394.824219 714.316406 394.558594 C 714.292969 394.285156 714.144531 393.992188 713.867188 393.683594 C 713.597656 393.378906 713.222656 393.140625 712.742188 392.96875 L 712.226562 392.785156 L 712.421875 392.242188 L 722.121094 395.695312 L 721.929688 396.242188 C 721.175781 396.027344 720.621094 395.949219 720.273438 396 C 719.9375 396.046875 719.625 396.21875 719.34375 396.515625 C 719.1875 396.671875 718.980469 397.109375 718.722656 397.835938 L 717.246094 401.988281 C 715.765625 402.101562 714.285156 402.054688 712.800781 401.847656 C 711.320312 401.652344 709.839844 401.292969 708.359375 400.761719 C 706.464844 400.089844 704.980469 399.273438 703.90625 398.316406 C 702.84375 397.351562 701.984375 396.28125 701.320312 395.105469 C 700.667969 393.921875 700.257812 392.707031 700.09375 391.464844 C 699.886719 389.867188 700.085938 388.230469 700.683594 386.550781 C 701.753906 383.546875 703.710938 381.386719 706.558594 380.070312 C 709.40625 378.75 712.429688 378.660156 715.628906 379.800781 C 716.617188 380.152344 717.484375 380.546875 718.222656 380.988281 C 718.625 381.222656 719.242188 381.695312 720.070312 382.410156 C 720.914062 383.121094 721.421875 383.503906 721.597656 383.570312 C 721.875 383.667969 722.164062 383.660156 722.46875 383.546875 C 722.777344 383.425781 723.128906 383.117188 723.527344 382.628906 Z M 739.03125 406.835938 L 738.945312 407.40625 L 727.992188 405.746094 L 728.078125 405.175781 L 728.773438 405.28125 C 729.378906 405.371094 729.886719 405.339844 730.289062 405.179688 C 730.578125 405.074219 730.820312 404.859375 731.019531 404.53125 C 731.167969 404.300781 731.324219 403.660156 731.484375 402.609375 L 733.570312 388.828125 C 733.734375 387.757812 733.777344 387.082031 733.707031 386.796875 C 733.632812 386.511719 733.4375 386.242188 733.117188 385.996094 C 732.808594 385.738281 732.359375 385.5625 731.773438 385.476562 L 731.078125 385.371094 L 731.164062 384.796875 L 742.117188 386.457031 L 742.03125 387.027344 L 741.335938 386.921875 C 740.726562 386.832031 740.222656 386.867188 739.816406 387.027344 C 739.527344 387.128906 739.28125 387.34375 739.074219 387.671875 C 738.921875 387.902344 738.765625 388.542969 738.609375 389.59375 L 736.519531 403.371094 C 736.359375 404.445312 736.3125 405.121094 736.386719 405.40625 C 736.46875 405.691406 736.664062 405.964844 736.972656 406.222656 C 737.292969 406.472656 737.746094 406.640625 738.335938 406.730469 Z M 767.460938 399.929688 L 767.042969 407.394531 L 748.257812 408.355469 L 748.226562 407.777344 L 748.929688 407.742188 C 749.542969 407.710938 750.03125 407.574219 750.394531 407.339844 C 750.660156 407.179688 750.855469 406.917969 750.980469 406.558594 C 751.082031 406.300781 751.105469 405.644531 751.050781 404.582031 L 750.34375 390.664062 C 750.289062 389.582031 750.195312 388.90625 750.066406 388.644531 C 749.9375 388.378906 749.691406 388.15625 749.328125 387.976562 C 748.976562 387.785156 748.5 387.707031 747.910156 387.738281 L 747.207031 387.773438 L 747.175781 387.195312 L 758.460938 386.621094 L 758.488281 387.195312 L 757.566406 387.242188 C 756.953125 387.273438 756.464844 387.410156 756.101562 387.648438 C 755.839844 387.804688 755.640625 388.066406 755.5 388.429688 C 755.398438 388.683594 755.375 389.34375 755.429688 390.402344 L 756.117188 403.886719 C 756.171875 404.96875 756.269531 405.65625 756.410156 405.953125 C 756.550781 406.238281 756.804688 406.441406 757.175781 406.570312 C 757.441406 406.648438 758.074219 406.664062 759.074219 406.613281 L 760.835938 406.523438 C 761.960938 406.464844 762.886719 406.222656 763.613281 405.789062 C 764.34375 405.355469 764.957031 404.695312 765.453125 403.816406 C 765.960938 402.933594 766.417969 401.648438 766.820312 399.960938 Z M 788.015625 396.363281 L 780.84375 398.503906 L 780.578125 400.734375 C 780.496094 401.476562 780.519531 402.0625 780.648438 402.492188 C 780.816406 403.0625 781.171875 403.414062 781.710938 403.542969 C 782.03125 403.625 782.730469 403.546875 783.8125 403.308594 L 783.976562 403.863281 L 777.222656 405.878906 L 777.058594 405.328125 C 777.753906 405 778.265625 404.519531 778.585938 403.890625 C 778.90625 403.253906 779.179688 402.054688 779.40625 400.304688 L 781.828125 381.933594 L 782.113281 381.851562 L 794.40625 396.3125 C 795.578125 397.679688 796.449219 398.5 797.019531 398.777344 C 797.449219 398.984375 797.984375 399.019531 798.617188 398.886719 L 798.78125 399.441406 L 788.960938 402.375 L 788.796875 401.820312 L 789.199219 401.699219 C 789.988281 401.464844 790.511719 401.1875 790.765625 400.875 C 790.9375 400.648438 790.976562 400.386719 790.886719 400.085938 C 790.832031 399.90625 790.75 399.730469 790.632812 399.558594 C 790.585938 399.476562 790.324219 399.144531 789.847656 398.570312 Z M 787.171875 395.40625 L 782.0625 389.316406 L 781.035156 397.238281 Z M 814.25 367.816406 L 816.964844 372.867188 L 816.46875 373.132812 C 815.550781 372.125 814.777344 371.464844 814.144531 371.152344 C 813.511719 370.832031 812.800781 370.6875 812.015625 370.71875 C 811.578125 370.742188 810.921875 370.988281 810.050781 371.457031 L 808.660156 372.203125 L 816.402344 386.597656 C 816.914062 387.554688 817.285156 388.121094 817.515625 388.308594 C 817.753906 388.488281 818.074219 388.585938 818.472656 388.605469 C 818.878906 388.613281 819.347656 388.472656 819.878906 388.1875 L 820.5 387.855469 L 820.773438 388.363281 L 811.003906 393.617188 L 810.730469 393.109375 L 811.347656 392.773438 C 811.890625 392.484375 812.273438 392.152344 812.5 391.785156 C 812.667969 391.527344 812.738281 391.207031 812.710938 390.820312 C 812.691406 390.546875 812.433594 389.941406 811.929688 389.003906 L 804.1875 374.609375 L 802.839844 375.335938 C 801.582031 376.011719 800.8125 376.765625 800.53125 377.605469 C 800.132812 378.777344 800.199219 380.109375 800.726562 381.597656 L 800.203125 381.878906 L 797.488281 376.828125 Z M 826.960938 360.28125 L 832.152344 367.167969 L 832.488281 366.914062 C 833.5625 366.101562 834.085938 365.179688 834.0625 364.144531 C 834.035156 363.105469 833.59375 361.878906 832.734375 360.464844 L 833.207031 360.109375 L 839.890625 368.964844 L 839.414062 369.320312 C 838.589844 368.433594 837.78125 367.800781 836.992188 367.429688 C 836.210938 367.054688 835.53125 366.921875 834.949219 367.035156 C 834.363281 367.136719 833.664062 367.492188 832.859375 368.101562 L 836.453125 372.867188 C 837.15625 373.796875 837.625 374.339844 837.855469 374.492188 C 838.09375 374.636719 838.375 374.695312 838.691406 374.664062 C 839.007812 374.632812 839.40625 374.4375 839.886719 374.074219 L 840.898438 373.3125 C 842.476562 372.121094 843.464844 370.800781 843.863281 369.351562 C 844.265625 367.898438 844.113281 366.269531 843.398438 364.457031 L 843.859375 364.109375 L 847.15625 370.058594 L 832.535156 381.085938 L 832.1875 380.625 L 832.75 380.203125 C 833.238281 379.832031 833.570312 379.445312 833.734375 379.046875 C 833.863281 378.765625 833.878906 378.441406 833.785156 378.070312 C 833.722656 377.804688 833.375 377.246094 832.734375 376.394531 L 824.34375 365.269531 C 823.765625 364.503906 823.390625 364.050781 823.214844 363.90625 C 822.914062 363.679688 822.589844 363.570312 822.246094 363.582031 C 821.753906 363.585938 821.234375 363.796875 820.6875 364.210938 L 820.125 364.632812 L 819.777344 364.171875 L 833.933594 353.492188 L 837.707031 358.496094 L 837.234375 358.851562 C 836.070312 357.8125 835.066406 357.191406 834.226562 356.992188 C 833.390625 356.785156 832.480469 356.859375 831.496094 357.210938 C 830.917969 357.414062 829.988281 357.996094 828.707031 358.964844 Z M 826.960938 360.28125 "/>
<path style="fill:none;stroke-width:1;stroke-linecap:square;stroke-linejoin:miter;stroke:rgb(0%,0%,0%);stroke-opacity:1;stroke-miterlimit:3.25;" d="M 648.84375 366.085938 C 718.089844 422.253906 785.960938 423.285156 852.371094 366.085938 "/>
<path style="fill-rule:nonzero;fill:rgb(99.998474%,99.998474%,99.998474%);fill-opacity:1;stroke-width:1;stroke-linecap:square;stroke-linejoin:miter;stroke:rgb(99.998474%,99.998474%,99.998474%);stroke-opacity:1;stroke-miterlimit:3.25;" d="M 208.332031 0 L 208.332031 250 L 291.667969 250 L 291.667969 0 Z M 208.332031 0 "/>
<path style="fill-rule:nonzero;fill:rgb(99.998474%,99.998474%,99.998474%);fill-opacity:1;stroke-width:1;stroke-linecap:square;stroke-linejoin:miter;stroke:rgb(99.998474%,99.998474%,99.998474%);stroke-opacity:1;stroke-miterlimit:3.25;" d="M 0 83.335938 L 0 166.667969 L 500 166.667969 L 500 83.335938 Z M 0 83.335938 "/>
<path style="fill-rule:nonzero;fill:rgb(81.175232%,7.843018%,16.862488%);fill-opacity:1;stroke-width:1;stroke-linecap:square;stroke-linejoin:miter;stroke:rgb(81.175232%,7.843018%,16.862488%);stroke-opacity:1;stroke-miterlimit:3.25;" d="M 225 0 L 225 250 L 275 250 L 275 0 Z M 225 0 "/>
<path style="fill-rule:nonzero;fill:rgb(81.175232%,7.843018%,16.862488%);fill-opacity:1;stroke-width:1;stroke-linecap:square;stroke-linejoin:miter;stroke:rgb(81.175232%,7.843018%,16.862488%);stroke-opacity:1;stroke-miterlimit:3.25;" d="M 0 100 L 0 150 L 500 150 L 500 100 Z M 0 100 "/>
</g>
</svg>
