<?xml version="1.0" encoding="UTF-8"?>
<svg xmlns="http://www.w3.org/2000/svg" xmlns:xlink="http://www.w3.org/1999/xlink" viewBox="0 0 1000 642" version="1.1">
<g id="surface254">
<path style=" stroke:none;fill-rule:evenodd;fill:rgb(87.841797%,0%,14.509583%);fill-opacity:1;" d="M 0 160.621094 L 1000 160.621094 L 1000 480.625 L 0 480.625 Z M 0 160.621094 "/>
<path style=" stroke:none;fill-rule:evenodd;fill:rgb(1.176453%,18.03894%,63.136292%);fill-opacity:1;" d="M 0 0.625 L 1000 0.625 L 1000 160.621094 L 0 160.621094 Z M 0 0.625 "/>
<path style=" stroke:none;fill-rule:evenodd;fill:rgb(1.176453%,18.03894%,63.136292%);fill-opacity:1;" d="M 0 480.625 L 1000 480.625 L 1000 640.625 L 0 640.625 Z M 0 480.625 "/>
<path style="fill-rule:evenodd;fill:rgb(99.998474%,99.998474%,99.998474%);fill-opacity:1;stroke-width:1.2;stroke-linecap:butt;stroke-linejoin:miter;stroke:rgb(0%,0%,0%);stroke-opacity:1;stroke-miterlimit:4;" d="M 496.234375 195.609375 C 496.234375 195.609375 496 189.027344 499.835938 188.953125 C 503.667969 189.027344 503.4375 195.609375 503.4375 195.609375 Z M 496.234375 195.609375 "/>
<path style="fill-rule:evenodd;fill:rgb(99.998474%,99.998474%,99.998474%);fill-opacity:1;stroke-width:1.2;stroke-linecap:butt;stroke-linejoin:miter;stroke:rgb(0%,0%,0%);stroke-opacity:1;stroke-miterlimit:4;" d="M 654.585938 367.625 L 654.585938 334.792969 C 655.652344 330.628906 659.1875 326.945312 661.847656 326.210938 L 661.847656 295.417969 C 657.832031 295.417969 655.859375 300.65625 655.859375 300.65625 L 649.023438 330.75 L 649.023438 367.375 Z M 654.585938 367.625 "/>
<path style="fill-rule:evenodd;fill:rgb(99.998474%,99.998474%,99.998474%);fill-opacity:1;stroke-width:1.292147;stroke-linecap:round;stroke-linejoin:round;stroke:rgb(0%,0%,0%);stroke-opacity:1;stroke-miterlimit:4;" d="M 585.078125 302.273438 L 594.933594 302.273438 L 594.933594 323.160156 L 585.078125 323.160156 Z M 585.078125 302.273438 "/>
<path style="fill-rule:evenodd;fill:rgb(99.998474%,99.998474%,99.998474%);fill-opacity:1;stroke-width:1.2;stroke-linecap:butt;stroke-linejoin:round;stroke:rgb(0%,0%,0%);stroke-opacity:1;stroke-miterlimit:4;" d="M 409.867188 302.273438 L 591.949219 302.273438 L 591.949219 372.335938 L 409.867188 372.335938 Z M 409.867188 302.273438 "/>
<path style="fill-rule:evenodd;fill:rgb(99.998474%,99.998474%,99.998474%);fill-opacity:1;stroke-width:1.2;stroke-linecap:butt;stroke-linejoin:miter;stroke:rgb(0%,0%,0%);stroke-opacity:1;stroke-miterlimit:4;" d="M 345.722656 367.5 L 345.722656 334.792969 C 344.652344 330.628906 341.117188 326.945312 338.457031 326.210938 L 338.457031 297.421875 L 344.445312 300.65625 L 351.28125 330.75 L 351.28125 367.5 Z M 345.722656 367.5 "/>
<path style="fill-rule:evenodd;fill:rgb(99.998474%,99.998474%,99.998474%);fill-opacity:1;stroke-width:1.2;stroke-linecap:butt;stroke-linejoin:miter;stroke:rgb(0%,0%,0%);stroke-opacity:1;stroke-miterlimit:4;" d="M 345.722656 367.625 L 345.722656 334.792969 C 344.652344 330.628906 341.117188 326.945312 338.457031 326.210938 L 338.457031 295.417969 C 342.480469 295.417969 344.445312 300.65625 344.445312 300.65625 L 351.28125 330.75 L 351.28125 367.375 Z M 345.722656 367.625 "/>
<path style="fill-rule:evenodd;fill:rgb(99.998474%,99.998474%,99.998474%);fill-opacity:1;stroke-width:1.2;stroke-linecap:butt;stroke-linejoin:miter;stroke:rgb(0%,0%,0%);stroke-opacity:1;stroke-miterlimit:4;" d="M 338.640625 376.007812 C 341.460938 374.574219 344.671875 371.234375 345.722656 367.5 L 654.644531 367.5 C 655.695312 371.234375 658.90625 374.574219 661.726562 376.007812 Z M 338.640625 376.007812 "/>
<path style="fill-rule:evenodd;fill:rgb(99.998474%,99.998474%,99.998474%);fill-opacity:1;stroke-width:1.2;stroke-linecap:round;stroke-linejoin:round;stroke:rgb(0%,0%,0%);stroke-opacity:1;stroke-miterlimit:4;" d="M 582.542969 340.953125 L 588.28125 340.953125 L 588.28125 367.34375 L 582.542969 367.34375 Z M 582.542969 340.953125 "/>
<path style="fill-rule:evenodd;fill:rgb(99.998474%,99.998474%,99.998474%);fill-opacity:1;stroke-width:1.2;stroke-linecap:butt;stroke-linejoin:round;stroke:rgb(0%,0%,0%);stroke-opacity:1;stroke-miterlimit:4;" d="M 409.867188 327.914062 L 591.949219 327.914062 L 591.949219 336.054688 L 409.867188 336.054688 Z M 409.867188 327.914062 "/>
<path style="fill-rule:evenodd;fill:rgb(99.998474%,99.998474%,99.998474%);fill-opacity:1;stroke-width:1.2;stroke-linecap:butt;stroke-linejoin:round;stroke:rgb(0%,0%,0%);stroke-opacity:1;stroke-miterlimit:4;" d="M 409.867188 316.871094 L 591.949219 316.871094 L 591.949219 324.054688 L 409.867188 324.054688 Z M 409.867188 316.871094 "/>
<path style="fill-rule:evenodd;fill:rgb(99.998474%,99.998474%,99.998474%);fill-opacity:1;stroke-width:1.181816;stroke-linecap:butt;stroke-linejoin:round;stroke:rgb(0%,0%,0%);stroke-opacity:1;stroke-miterlimit:4;" d="M 409.867188 305.851562 L 591.949219 305.851562 L 591.949219 312.8125 L 409.867188 312.8125 Z M 409.867188 305.851562 "/>
<path style="fill-rule:evenodd;fill:rgb(99.998474%,99.998474%,99.998474%);fill-opacity:1;stroke-width:1.292147;stroke-linecap:round;stroke-linejoin:round;stroke:rgb(0%,0%,0%);stroke-opacity:1;stroke-miterlimit:4;" d="M 585.078125 302.273438 L 594.933594 302.273438 L 594.933594 323.160156 L 585.078125 323.160156 Z M 585.078125 302.273438 "/>
<path style="fill-rule:evenodd;fill:rgb(99.998474%,99.998474%,99.998474%);fill-opacity:1;stroke-width:1.2;stroke-linecap:butt;stroke-linejoin:miter;stroke:rgb(0%,0%,0%);stroke-opacity:1;stroke-miterlimit:4;" d="M 658.570312 376.007812 C 655.804688 374.757812 651.777344 371.339844 651.777344 367.898438 L 651.777344 327.023438 L 653.667969 323.648438 L 584.03125 323.648438 L 586.75 327.023438 L 586.75 367.898438 C 586.75 371.339844 583.984375 374.757812 581.21875 376.007812 Z M 658.570312 376.007812 "/>
<path style="fill-rule:evenodd;fill:rgb(99.998474%,99.998474%,99.998474%);fill-opacity:1;stroke-width:1.2;stroke-linecap:round;stroke-linejoin:round;stroke:rgb(0%,0%,0%);stroke-opacity:1;stroke-miterlimit:4;" d="M 457.792969 340.953125 L 463.53125 340.953125 L 463.53125 367.34375 L 457.792969 367.34375 Z M 457.792969 340.953125 "/>
<path style="fill-rule:evenodd;fill:rgb(99.998474%,99.998474%,99.998474%);fill-opacity:1;stroke-width:1.2;stroke-linecap:round;stroke-linejoin:round;stroke:rgb(0%,0%,0%);stroke-opacity:1;stroke-miterlimit:4;" d="M 536.179688 340.953125 L 541.917969 340.953125 L 541.917969 367.34375 L 536.179688 367.34375 Z M 536.179688 340.953125 "/>
<path style="fill-rule:evenodd;fill:rgb(99.998474%,99.998474%,99.998474%);fill-opacity:1;stroke-width:1.2;stroke-linecap:butt;stroke-linejoin:miter;stroke:rgb(0%,0%,0%);stroke-opacity:1;stroke-miterlimit:4;" d="M 545.78125 376.007812 C 542.535156 374.757812 537.816406 371.339844 537.816406 367.898438 L 537.816406 329.019531 L 542.039062 323.648438 L 457.597656 323.648438 L 461.644531 329.019531 L 461.644531 367.898438 C 461.644531 371.339844 458.40625 374.757812 455.15625 376.007812 Z M 545.78125 376.007812 "/>
<path style="fill-rule:evenodd;fill:rgb(99.998474%,99.998474%,99.998474%);fill-opacity:1;stroke-width:1.2;stroke-linecap:round;stroke-linejoin:round;stroke:rgb(0%,0%,0%);stroke-opacity:1;stroke-miterlimit:4;" d="M 472.613281 340.953125 L 478.351562 340.953125 L 478.351562 367.34375 L 472.613281 367.34375 Z M 472.613281 340.953125 "/>
<path style="fill-rule:evenodd;fill:rgb(99.998474%,99.998474%,99.998474%);fill-opacity:1;stroke-width:1.2;stroke-linecap:round;stroke-linejoin:round;stroke:rgb(0%,0%,0%);stroke-opacity:1;stroke-miterlimit:4;" d="M 521.117188 340.953125 L 526.855469 340.953125 L 526.855469 367.34375 L 521.117188 367.34375 Z M 521.117188 340.953125 "/>
<path style="fill-rule:evenodd;fill:rgb(99.998474%,99.998474%,99.998474%);fill-opacity:1;stroke-width:1.2;stroke-linecap:butt;stroke-linejoin:miter;stroke:rgb(0%,0%,0%);stroke-opacity:1;stroke-miterlimit:4;" d="M 456.085938 279.410156 L 456.085938 323.652344 L 542.523438 323.652344 L 542.523438 314.125 L 542.644531 279.410156 C 539.109375 280.796875 538.488281 284 538.488281 284 L 538.488281 302.847656 L 460.492188 302.847656 L 460.492188 284 C 460.492188 284 459.617188 280.796875 456.085938 279.410156 Z M 456.085938 279.410156 "/>
<path style="fill-rule:evenodd;fill:rgb(99.998474%,99.998474%,99.998474%);fill-opacity:1;stroke-width:1.2;stroke-linecap:butt;stroke-linejoin:miter;stroke:rgb(0%,0%,0%);stroke-opacity:1;stroke-miterlimit:4;" d="M 530.792969 376.007812 C 527.964844 374.757812 521.8125 371.339844 521.8125 367.898438 L 521.8125 324.390625 C 522.417969 321.960938 525.714844 320.527344 527.832031 319.015625 L 470.515625 319.015625 C 473.242188 320.460938 476.28125 321.65625 477.375 324.390625 L 477.375 367.898438 C 477.375 371.339844 472.503906 374.757812 469.683594 376.007812 Z M 530.792969 376.007812 "/>
<path style="fill-rule:evenodd;fill:rgb(99.998474%,99.998474%,99.998474%);fill-opacity:1;stroke-width:1.2;stroke-linecap:butt;stroke-linejoin:miter;stroke:rgb(0%,0%,0%);stroke-opacity:1;stroke-miterlimit:4;" d="M 538.484375 319.484375 L 538.484375 288.144531 L 530.628906 288.144531 L 530.628906 285.09375 L 468.480469 285.09375 L 468.480469 288.144531 L 460.625 288.144531 L 460.625 319.484375 Z M 538.484375 319.484375 "/>
<path style="fill-rule:evenodd;fill:rgb(99.998474%,99.998474%,99.998474%);fill-opacity:1;stroke-width:1.2;stroke-linecap:round;stroke-linejoin:round;stroke:rgb(0%,0%,0%);stroke-opacity:1;stroke-miterlimit:4;" d="M 411.304688 340.953125 L 417.046875 340.953125 L 417.046875 367.34375 L 411.304688 367.34375 Z M 411.304688 340.953125 "/>
<path style="fill-rule:evenodd;fill:rgb(99.998474%,99.998474%,99.998474%);fill-opacity:1;stroke-width:1.2;stroke-linecap:butt;stroke-linejoin:miter;stroke:rgb(0%,0%,0%);stroke-opacity:1;stroke-miterlimit:4;" d="M 341.46875 376.007812 C 344.238281 374.757812 348.265625 371.339844 348.265625 367.898438 L 348.265625 327.023438 L 346.367188 323.648438 L 416.007812 323.648438 L 413.289062 327.023438 L 413.289062 367.898438 C 413.289062 371.339844 416.058594 374.757812 418.824219 376.007812 Z M 341.46875 376.007812 "/>
<path style="fill-rule:evenodd;fill:rgb(99.998474%,99.998474%,99.998474%);fill-opacity:1;stroke-width:1.2;stroke-linecap:round;stroke-linejoin:round;stroke:rgb(0%,0%,0%);stroke-opacity:1;stroke-miterlimit:4;" d="M 348.925781 296.445312 L 355.359375 296.445312 L 355.359375 320.285156 L 348.925781 320.285156 Z M 348.925781 296.445312 "/>
<path style="fill-rule:evenodd;fill:rgb(99.998474%,99.998474%,99.998474%);fill-opacity:1;stroke-width:1.2;stroke-linecap:round;stroke-linejoin:round;stroke:rgb(0%,0%,0%);stroke-opacity:1;stroke-miterlimit:4;" d="M 348.890625 291.347656 L 355.316406 291.347656 L 355.316406 296.371094 L 348.890625 296.371094 Z M 348.890625 291.347656 "/>
<path style="fill-rule:evenodd;fill:rgb(99.998474%,99.998474%,99.998474%);fill-opacity:1;stroke-width:1.2;stroke-linecap:butt;stroke-linejoin:miter;stroke:rgb(0%,0%,0%);stroke-opacity:1;stroke-miterlimit:4;" d="M 404.765625 376.007812 C 402 374.757812 397.96875 371.339844 397.96875 367.898438 L 397.96875 329.023438 L 403.757812 323.648438 L 356.421875 323.648438 L 362.207031 329.023438 L 362.207031 367.898438 C 362.207031 371.339844 358.179688 374.757812 355.414062 376.007812 Z M 404.765625 376.007812 "/>
<path style="fill-rule:evenodd;fill:rgb(99.998474%,99.998474%,99.998474%);fill-opacity:1;stroke-width:1.2;stroke-linecap:butt;stroke-linejoin:miter;stroke:rgb(0%,0%,0%);stroke-opacity:1;stroke-miterlimit:4;" d="M 398.140625 376.007812 C 395.367188 374.757812 391.339844 371.339844 391.339844 367.898438 L 391.339844 332.753906 L 395.128906 327.375 L 365.050781 327.375 L 368.84375 332.753906 L 368.84375 367.898438 C 368.84375 371.339844 364.8125 374.757812 362.042969 376.007812 Z M 398.140625 376.007812 "/>
<path style="fill-rule:evenodd;fill:rgb(99.998474%,99.998474%,99.998474%);fill-opacity:1;stroke-width:1.2;stroke-linecap:butt;stroke-linejoin:miter;stroke:rgb(0%,0%,0%);stroke-opacity:1;stroke-miterlimit:4;" d="M 644.410156 376.007812 C 641.644531 374.757812 637.617188 371.339844 637.617188 367.898438 L 637.617188 329.023438 L 643.402344 323.648438 L 596.0625 323.648438 L 601.855469 329.023438 L 601.855469 367.898438 C 601.855469 371.339844 597.820312 374.757812 595.054688 376.007812 Z M 644.410156 376.007812 "/>
<path style="fill-rule:evenodd;fill:rgb(99.998474%,99.998474%,99.998474%);fill-opacity:1;stroke-width:1.2;stroke-linecap:butt;stroke-linejoin:miter;stroke:rgb(0%,0%,0%);stroke-opacity:1;stroke-miterlimit:4;" d="M 637.78125 376.007812 C 635.007812 374.757812 630.980469 371.339844 630.980469 367.898438 L 630.980469 332.753906 L 634.773438 327.375 L 604.695312 327.375 L 608.484375 332.753906 L 608.484375 367.898438 C 608.484375 371.339844 604.457031 374.757812 601.683594 376.007812 Z M 637.78125 376.007812 "/>
<path style="fill-rule:evenodd;fill:rgb(99.998474%,99.998474%,99.998474%);fill-opacity:1;stroke-width:1.2;stroke-linecap:butt;stroke-linejoin:miter;stroke:rgb(0%,0%,0%);stroke-opacity:1;stroke-miterlimit:4;" d="M 372.90625 327.375 L 387.273438 327.375 L 387.273438 376.007812 L 372.90625 376.007812 Z M 372.90625 327.375 "/>
<path style="fill-rule:evenodd;fill:rgb(99.998474%,99.998474%,99.998474%);fill-opacity:1;stroke-width:1.2;stroke-linecap:butt;stroke-linejoin:miter;stroke:rgb(0%,0%,0%);stroke-opacity:1;stroke-miterlimit:4;" d="M 518.40625 376.007812 C 515.644531 374.757812 511.609375 371.339844 511.609375 367.898438 L 511.609375 330.75 L 513.886719 327.375 L 485.578125 327.375 L 487.855469 330.75 L 487.855469 367.898438 C 487.855469 371.339844 483.820312 374.757812 481.054688 376.007812 Z M 518.40625 376.007812 "/>
<path style="fill-rule:evenodd;fill:rgb(99.998474%,99.998474%,99.998474%);fill-opacity:1;stroke-width:1.226222;stroke-linecap:butt;stroke-linejoin:miter;stroke:rgb(0%,0%,0%);stroke-opacity:1;stroke-miterlimit:4;" d="M 492.558594 327.394531 L 506.902344 327.394531 L 506.902344 375.996094 L 492.558594 375.996094 Z M 492.558594 327.394531 "/>
<path style="fill-rule:evenodd;fill:rgb(99.998474%,99.998474%,99.998474%);fill-opacity:1;stroke-width:1.2;stroke-linecap:butt;stroke-linejoin:miter;stroke:rgb(0%,0%,0%);stroke-opacity:1;stroke-miterlimit:4;" d="M 612.546875 327.375 L 626.914062 327.375 L 626.914062 376.007812 L 612.546875 376.007812 Z M 612.546875 327.375 "/>
<path style="fill-rule:evenodd;fill:rgb(99.998474%,99.998474%,99.998474%);fill-opacity:1;stroke-width:1.2;stroke-linecap:butt;stroke-linejoin:round;stroke:rgb(0%,0%,0%);stroke-opacity:1;stroke-miterlimit:4;" d="M 485.339844 308.90625 L 514.128906 308.90625 L 514.128906 319.515625 L 485.339844 319.515625 Z M 485.339844 308.90625 "/>
<path style="fill-rule:evenodd;fill:rgb(99.998474%,99.998474%,99.998474%);fill-opacity:1;stroke-width:1.2;stroke-linecap:butt;stroke-linejoin:round;stroke:rgb(0%,0%,0%);stroke-opacity:1;stroke-miterlimit:4;" d="M 514.441406 316.695312 C 514.476562 313.496094 523.78125 313.351562 528.570312 310.621094 L 471.046875 310.621094 C 475.835938 313.351562 484.929688 313.578125 484.929688 316.695312 L 486.878906 322.910156 L 510.6875 323.859375 Z M 514.441406 316.695312 "/>
<path style="fill-rule:evenodd;fill:rgb(99.998474%,99.998474%,99.998474%);fill-opacity:1;stroke-width:1.2;stroke-linecap:butt;stroke-linejoin:miter;stroke:rgb(0%,0%,0%);stroke-opacity:1;stroke-miterlimit:4;" d="M 525.683594 282.875 C 525.683594 275.039062 526.011719 272.015625 528.421875 272.015625 L 528.421875 296.945312 C 522.515625 299.085938 518.304688 306.625 518.304688 306.625 L 481.164062 306.625 C 481.164062 306.625 476.945312 299.085938 471.046875 296.945312 L 471.046875 272.015625 C 474.011719 272.015625 474.03125 275.171875 474.03125 282.875 Z M 525.683594 282.875 "/>
<path style="fill-rule:evenodd;fill:rgb(99.998474%,99.998474%,99.998474%);fill-opacity:1;stroke-width:1.2;stroke-linecap:butt;stroke-linejoin:miter;stroke:rgb(0%,0%,0%);stroke-opacity:1;stroke-miterlimit:4;" d="M 481.714844 287.519531 C 486.5 293.265625 486.054688 303.003906 486 308.75 L 513.75 308.75 C 513.695312 303.003906 513.25 293.265625 518.035156 287.519531 Z M 481.714844 287.519531 "/>
<path style="fill-rule:evenodd;fill:rgb(99.998474%,99.998474%,99.998474%);fill-opacity:1;stroke-width:1.2;stroke-linecap:round;stroke-linejoin:round;stroke:rgb(0%,0%,0%);stroke-opacity:1;stroke-miterlimit:4;" d="M 353.351562 340.953125 L 359.089844 340.953125 L 359.089844 367.34375 L 353.351562 367.34375 Z M 353.351562 340.953125 "/>
<path style="fill-rule:evenodd;fill:rgb(99.998474%,99.998474%,99.998474%);fill-opacity:1;stroke-width:1.2;stroke-linecap:round;stroke-linejoin:round;stroke:rgb(0%,0%,0%);stroke-opacity:1;stroke-miterlimit:4;" d="M 644.875 296.445312 L 651.300781 296.445312 L 651.300781 320.285156 L 644.875 320.285156 Z M 644.875 296.445312 "/>
<path style="fill:none;stroke-width:1.2;stroke-linecap:butt;stroke-linejoin:miter;stroke:rgb(0%,0%,0%);stroke-opacity:1;stroke-miterlimit:4;" d="M 338.640625 376.007812 C 341.460938 374.574219 344.671875 371.234375 345.722656 367.5 L 654.644531 367.5 C 655.695312 371.234375 658.90625 374.574219 661.726562 376.007812 Z M 338.640625 376.007812 "/>
<path style="fill-rule:evenodd;fill:rgb(99.998474%,99.998474%,99.998474%);fill-opacity:1;stroke-width:1.2;stroke-linecap:round;stroke-linejoin:round;stroke:rgb(0%,0%,0%);stroke-opacity:1;stroke-miterlimit:4;" d="M 402.550781 340.953125 L 408.289062 340.953125 L 408.289062 367.34375 L 402.550781 367.34375 Z M 402.550781 340.953125 "/>
<path style="fill-rule:evenodd;fill:rgb(99.998474%,99.998474%,99.998474%);fill-opacity:1;stroke-width:1.2;stroke-linecap:butt;stroke-linejoin:miter;stroke:rgb(0%,0%,0%);stroke-opacity:1;stroke-miterlimit:4;" d="M 344.429688 288.320312 L 344.429688 323.648438 L 348.445312 323.648438 L 348.445312 288.234375 C 346.996094 287.503906 345.636719 287.386719 344.429688 288.320312 Z M 344.429688 288.320312 "/>
<path style="fill-rule:evenodd;fill:rgb(99.998474%,99.998474%,99.998474%);fill-opacity:1;stroke-width:1.2;stroke-linecap:butt;stroke-linejoin:miter;stroke:rgb(0%,0%,0%);stroke-opacity:1;stroke-miterlimit:4;" d="M 344.554688 311.179688 C 349.535156 313.722656 354.46875 316.671875 355.710938 323.648438 L 344.554688 323.648438 Z M 344.554688 311.179688 "/>
<path style="fill-rule:evenodd;fill:rgb(99.998474%,99.998474%,99.998474%);fill-opacity:1;stroke-width:1.292147;stroke-linecap:round;stroke-linejoin:round;stroke:rgb(0%,0%,0%);stroke-opacity:1;stroke-miterlimit:4;" d="M 405.296875 302.273438 L 415.15625 302.273438 L 415.15625 323.160156 L 405.296875 323.160156 Z M 405.296875 302.273438 "/>
<path style="fill-rule:evenodd;fill:rgb(99.998474%,99.998474%,99.998474%);fill-opacity:1;stroke-width:1.2;stroke-linecap:butt;stroke-linejoin:miter;stroke:rgb(0%,0%,0%);stroke-opacity:1;stroke-miterlimit:4;" d="M 413.625 300.59375 L 413.625 323.648438 L 416.875 323.648438 L 416.875 300.539062 C 415.863281 300.0625 414.472656 299.992188 413.625 300.59375 Z M 413.625 300.59375 "/>
<path style="fill-rule:evenodd;fill:rgb(99.998474%,99.998474%,99.998474%);fill-opacity:1;stroke-width:1.2;stroke-linecap:butt;stroke-linejoin:miter;stroke:rgb(0%,0%,0%);stroke-opacity:1;stroke-miterlimit:4;" d="M 476.246094 282.875 L 476.246094 274.019531 C 476.117188 269.589844 471.832031 269.273438 471.703125 266.042969 C 471.703125 266.042969 471.148438 261.195312 472.425781 258.988281 C 474.164062 265.460938 477.3125 264.273438 477.3125 261.609375 C 477.3125 259.285156 475.53125 257.125 471.863281 251.480469 C 470.691406 249.679688 471.417969 244.027344 473.058594 242.007812 C 473.695312 246.921875 474.425781 249.269531 476.53125 249.269531 C 477.820312 249.269531 478.871094 248.433594 478.871094 245.96875 C 478.871094 242.84375 476.75 241.261719 475.707031 238.414062 C 474.492188 235.085938 475.328125 231.699219 477.351562 229.804688 C 478.21875 234.652344 477.960938 236.582031 480.109375 236.582031 C 484.453125 235.207031 480.113281 228.925781 479.1875 227.339844 C 478.117188 225.492188 480.621094 221.804688 480.621094 221.804688 C 482 226.109375 482.441406 226.453125 483.929688 226.058594 C 485.808594 225.558594 485.566406 222.769531 483.277344 220.515625 C 481.828125 219.09375 481.984375 216.976562 483.53125 215.28125 C 485.09375 218.332031 487.089844 218.140625 487.285156 216.335938 L 486.03125 209.304688 L 513.636719 209.304688 L 512.269531 216.101562 C 511.878906 218.050781 514.5 218.472656 516.132812 215.28125 C 517.6875 216.976562 517.839844 219.09375 516.394531 220.515625 C 514.097656 222.769531 513.859375 225.558594 515.734375 226.058594 C 517.222656 226.453125 517.671875 226.109375 519.046875 221.804688 C 519.046875 221.804688 521.296875 224.320312 520.484375 227.339844 C 519.554688 228.925781 515.214844 235.207031 519.554688 236.582031 C 521.710938 236.582031 521.453125 234.652344 522.320312 229.804688 C 524.339844 231.699219 525.175781 235.085938 523.960938 238.414062 C 522.917969 241.261719 520.796875 242.84375 520.796875 245.96875 C 520.796875 248.433594 521.851562 249.269531 523.132812 249.269531 C 525.242188 249.269531 525.96875 246.921875 526.609375 242.007812 C 528.253906 244.027344 528.972656 249.679688 527.808594 251.480469 C 524.140625 257.125 522.351562 259.285156 522.351562 261.609375 C 522.351562 264.273438 525.507812 265.460938 527.242188 258.988281 C 528.515625 261.195312 527.964844 266.042969 527.964844 266.042969 C 527.835938 269.273438 523.546875 269.589844 523.425781 274.019531 L 523.425781 282.875 Z M 476.246094 282.875 "/>
<path style="fill:none;stroke-width:1;stroke-linecap:butt;stroke-linejoin:miter;stroke:rgb(0%,0%,0%);stroke-opacity:1;stroke-miterlimit:4;" d="M 486.371094 217.726562 L 513.773438 217.726562 "/>
<path style="fill-rule:evenodd;fill:rgb(99.998474%,99.998474%,99.998474%);fill-opacity:1;stroke-width:1.2;stroke-linecap:butt;stroke-linejoin:miter;stroke:rgb(0%,0%,0%);stroke-opacity:1;stroke-miterlimit:4;" d="M 497.3125 221.710938 L 493.511719 219.753906 L 493.511719 214.15625 C 495.070312 214.625 496.8125 214.816406 496.976562 217.292969 C 497.523438 213.757812 498.5 213.929688 500.03125 212.550781 C 501.5625 213.929688 502.539062 213.757812 503.082031 217.292969 C 503.253906 214.816406 505 214.625 506.546875 214.15625 L 506.546875 219.753906 L 502.746094 221.710938 Z M 497.3125 221.710938 "/>
<path style="fill:none;stroke-width:1;stroke-linecap:butt;stroke-linejoin:miter;stroke:rgb(0%,0%,0%);stroke-opacity:1;stroke-miterlimit:4;" d="M 483.117188 226.285156 L 516.59375 226.285156 "/>
<path style="fill-rule:evenodd;fill:rgb(99.998474%,99.998474%,99.998474%);fill-opacity:1;stroke-width:1.2;stroke-linecap:butt;stroke-linejoin:miter;stroke:rgb(0%,0%,0%);stroke-opacity:1;stroke-miterlimit:4;" d="M 497.058594 230.898438 L 490.746094 226.558594 L 490.746094 221.402344 C 492.960938 221.914062 495.445312 222.121094 495.691406 224.835938 C 496.460938 220.960938 497.851562 218.953125 500.03125 217.445312 C 502.214844 218.953125 503.609375 220.960938 504.375 224.835938 C 504.621094 222.121094 507.105469 221.914062 509.320312 221.402344 L 509.320312 226.558594 L 503.003906 230.898438 Z M 497.058594 230.898438 "/>
<path style="fill:none;stroke-width:1;stroke-linecap:butt;stroke-linejoin:miter;stroke:rgb(0%,0%,0%);stroke-opacity:1;stroke-miterlimit:4;" d="M 479.875 236.664062 L 519.726562 236.664062 "/>
<path style="fill-rule:evenodd;fill:rgb(99.998474%,99.998474%,99.998474%);fill-opacity:1;stroke-width:1.2;stroke-linecap:butt;stroke-linejoin:miter;stroke:rgb(0%,0%,0%);stroke-opacity:1;stroke-miterlimit:4;" d="M 496.613281 245.203125 L 489.355469 238.832031 L 489.355469 231.253906 C 491.898438 232.007812 494.757812 232.3125 495.039062 236.304688 C 495.921875 230.609375 497.523438 227.664062 500.03125 225.449219 C 502.546875 227.664062 504.136719 230.609375 505.03125 236.304688 C 505.304688 232.3125 508.167969 232.007812 510.710938 231.253906 L 510.710938 238.832031 L 503.449219 245.203125 Z M 496.613281 245.203125 "/>
<path style="fill-rule:evenodd;fill:rgb(99.998474%,99.998474%,99.998474%);fill-opacity:1;stroke-width:1.2;stroke-linecap:butt;stroke-linejoin:miter;stroke:rgb(0%,0%,0%);stroke-opacity:1;stroke-miterlimit:4;" d="M 509.996094 253.675781 L 503.4375 262.757812 L 496 262.757812 L 489.433594 253.675781 Z M 509.996094 253.675781 "/>
<path style="fill-rule:evenodd;fill:rgb(99.998474%,99.998474%,99.998474%);fill-opacity:1;stroke-width:1.2;stroke-linecap:butt;stroke-linejoin:miter;stroke:rgb(0%,0%,0%);stroke-opacity:1;stroke-miterlimit:4;" d="M 485.65625 268.917969 C 488.941406 270.710938 490.15625 274.289062 490.503906 281 L 508.984375 281 C 509.332031 274.289062 510.546875 270.710938 513.832031 268.917969 Z M 485.65625 268.917969 "/>
<path style="fill:none;stroke-width:1;stroke-linecap:butt;stroke-linejoin:miter;stroke:rgb(0%,0%,0%);stroke-opacity:1;stroke-miterlimit:4;" d="M 476.476562 249.355469 L 523.734375 249.355469 "/>
<path style="fill:none;stroke-width:1;stroke-linecap:butt;stroke-linejoin:miter;stroke:rgb(0%,0%,0%);stroke-opacity:1;stroke-miterlimit:4;" d="M 475.390625 263.8125 L 524.070312 263.8125 "/>
<path style="fill-rule:evenodd;fill:rgb(99.998474%,99.998474%,99.998474%);fill-opacity:1;stroke-width:1.2;stroke-linecap:butt;stroke-linejoin:round;stroke:rgb(0%,0%,0%);stroke-opacity:1;stroke-miterlimit:4;" d="M 514.105469 253.675781 L 514.105469 244.550781 C 510.984375 245.414062 508.964844 247.261719 508.0625 249.765625 C 508.0625 246.738281 504.078125 239.753906 499.730469 236.28125 C 495.375 240.171875 491.320312 246.488281 491.398438 249.765625 C 490.660156 247.378906 488.484375 245.414062 485.359375 244.550781 L 485.359375 253.675781 Z M 514.105469 253.675781 "/>
<path style="fill-rule:evenodd;fill:rgb(99.998474%,99.998474%,99.998474%);fill-opacity:1;stroke-width:1.2;stroke-linecap:butt;stroke-linejoin:round;stroke:rgb(0%,0%,0%);stroke-opacity:1;stroke-miterlimit:4;" d="M 515.484375 268.917969 L 515.484375 259.796875 C 512.066406 260.652344 509.851562 262.503906 508.863281 265.011719 C 508.863281 261.976562 504.5 254.996094 499.730469 251.523438 C 494.953125 255.410156 490.507812 261.726562 490.601562 265.011719 C 489.789062 262.617188 487.398438 260.652344 483.976562 259.796875 L 483.976562 268.917969 Z M 515.484375 268.917969 "/>
<path style="fill-rule:evenodd;fill:rgb(99.998474%,99.998474%,99.998474%);fill-opacity:1;stroke-width:1.2;stroke-linecap:butt;stroke-linejoin:round;stroke:rgb(0%,0%,0%);stroke-opacity:1;stroke-miterlimit:4;" d="M 519.328125 287.640625 L 519.328125 277.121094 C 515.074219 278.210938 512.433594 281.363281 511.097656 283.199219 C 511.097656 277.5 504.664062 268.8125 499.730469 265.96875 C 494.679688 268.886719 488.375 277.867188 488.375 283.199219 C 486.992188 281.375 484.386719 278.210938 480.132812 277.121094 L 480.132812 287.640625 Z M 519.328125 287.640625 "/>
<path style="fill-rule:evenodd;fill:rgb(99.998474%,99.998474%,99.998474%);fill-opacity:1;stroke-width:1.2;stroke-linecap:butt;stroke-linejoin:round;stroke:rgb(0%,0%,0%);stroke-opacity:1;stroke-miterlimit:4;" d="M 517.027344 311 L 517.027344 300.179688 C 513.273438 301.648438 512.152344 305.269531 510.96875 307.730469 C 511.429688 296.753906 504.789062 284.957031 499.730469 281.96875 C 494.671875 284.957031 487.902344 297.007812 488.496094 307.730469 C 487.28125 305.289062 486.1875 301.648438 482.433594 300.179688 L 482.433594 311 Z M 517.027344 311 "/>
<path style="fill-rule:evenodd;fill:rgb(99.998474%,99.998474%,99.998474%);fill-opacity:1;stroke-width:1.2;stroke-linecap:round;stroke-linejoin:round;stroke:rgb(0%,0%,0%);stroke-opacity:1;stroke-miterlimit:4;" d="M 644.914062 291.347656 L 651.34375 291.347656 L 651.34375 296.371094 L 644.914062 296.371094 Z M 644.914062 291.347656 "/>
<path style="fill-rule:evenodd;fill:rgb(99.998474%,99.998474%,99.998474%);fill-opacity:1;stroke-width:1.2;stroke-linecap:round;stroke-linejoin:round;stroke:rgb(0%,0%,0%);stroke-opacity:1;stroke-miterlimit:4;" d="M 591.839844 340.953125 L 597.578125 340.953125 L 597.578125 367.34375 L 591.839844 367.34375 Z M 591.839844 340.953125 "/>
<path style="fill-rule:evenodd;fill:rgb(99.998474%,99.998474%,99.998474%);fill-opacity:1;stroke-width:1.2;stroke-linecap:round;stroke-linejoin:round;stroke:rgb(0%,0%,0%);stroke-opacity:1;stroke-miterlimit:4;" d="M 641.035156 340.953125 L 646.773438 340.953125 L 646.773438 367.34375 L 641.035156 367.34375 Z M 641.035156 340.953125 "/>
<path style="fill:none;stroke-width:1.2;stroke-linecap:butt;stroke-linejoin:miter;stroke:rgb(0%,0%,0%);stroke-opacity:1;stroke-miterlimit:4;" d="M 460.625 311 L 538.484375 311 "/>
<path style="fill:none;stroke-width:1.2;stroke-linecap:butt;stroke-linejoin:miter;stroke:rgb(0%,0%,0%);stroke-opacity:1;stroke-miterlimit:4;" d="M 485.339844 311.011719 L 514.195312 311.011719 L 514.195312 321.613281 L 485.339844 321.613281 Z M 485.339844 311.011719 "/>
<path style="fill-rule:evenodd;fill:rgb(99.998474%,99.998474%,99.998474%);fill-opacity:1;stroke-width:1.2;stroke-linecap:butt;stroke-linejoin:miter;stroke:rgb(0%,0%,0%);stroke-opacity:1;stroke-miterlimit:4;" d="M 514.398438 327.375 L 514.398438 316.5625 C 510.460938 317.496094 510.222656 318.949219 508.972656 321.371094 C 509.4375 314.816406 504.789062 307.339844 499.730469 304.347656 C 494.671875 307.339844 490.03125 314.816406 490.496094 321.371094 C 489.246094 318.949219 489.085938 317.496094 485.0625 316.5625 L 485.0625 327.375 Z M 514.398438 327.375 "/>
<path style="fill-rule:evenodd;fill:rgb(99.998474%,99.998474%,99.998474%);fill-opacity:1;stroke-width:1.2;stroke-linecap:butt;stroke-linejoin:miter;stroke:rgb(0%,0%,0%);stroke-opacity:1;stroke-miterlimit:4;" d="M 416.875 311.179688 C 411.894531 313.722656 406.964844 316.671875 405.71875 323.648438 L 416.875 323.648438 Z M 416.875 311.179688 "/>
<path style="fill-rule:evenodd;fill:rgb(99.998474%,99.998474%,99.998474%);fill-opacity:1;stroke-width:1.2;stroke-linecap:round;stroke-linejoin:round;stroke:rgb(0%,0%,0%);stroke-opacity:1;stroke-miterlimit:4;" d="M 348.445312 296.445312 L 355.359375 296.445312 L 355.359375 323.5 L 348.445312 323.5 Z M 348.445312 296.445312 "/>
<path style="fill-rule:evenodd;fill:rgb(99.998474%,99.998474%,99.998474%);fill-opacity:1;stroke-width:1.2;stroke-linecap:round;stroke-linejoin:round;stroke:rgb(0%,0%,0%);stroke-opacity:1;stroke-miterlimit:4;" d="M 348.445312 291.347656 L 355.316406 291.347656 L 355.316406 296.371094 L 348.445312 296.371094 Z M 348.445312 291.347656 "/>
<path style="fill-rule:evenodd;fill:rgb(99.998474%,99.998474%,99.998474%);fill-opacity:1;stroke-width:1.292147;stroke-linecap:round;stroke-linejoin:round;stroke:rgb(0%,0%,0%);stroke-opacity:1;stroke-miterlimit:4;" d="M 405.296875 302.273438 L 415.15625 302.273438 L 415.15625 323.160156 L 405.296875 323.160156 Z M 405.296875 302.273438 "/>
<path style="fill-rule:evenodd;fill:rgb(99.998474%,99.998474%,99.998474%);fill-opacity:1;stroke-width:1.2;stroke-linecap:butt;stroke-linejoin:miter;stroke:rgb(0%,0%,0%);stroke-opacity:1;stroke-miterlimit:4;" d="M 355.261719 323.292969 L 355.261719 276.984375 C 357.234375 276.984375 357.53125 283.773438 362.054688 283.773438 C 364.410156 283.773438 364.160156 280.960938 362.84375 278.671875 C 361.671875 276.644531 360.21875 273.84375 362.1875 268.625 C 363.539062 272.617188 367.167969 273.886719 366.5 271.382812 C 365.34375 267.078125 362.023438 266.371094 364.515625 259.695312 C 365.382812 265.265625 368.953125 265.023438 368.085938 261.78125 C 367.109375 258.140625 365.085938 256.644531 367.578125 251.5 C 368.976562 257.339844 370.863281 256.996094 370.863281 253.371094 C 370.863281 248.019531 370.65625 242.246094 377.585938 240.097656 C 377.585938 240.097656 377.984375 235.1875 380.488281 235.1875 C 382.984375 235.1875 383.386719 240.097656 383.386719 240.097656 C 390.3125 242.246094 390.113281 248.019531 390.113281 253.371094 C 390.113281 256.996094 392 257.339844 393.394531 251.5 C 395.886719 256.644531 393.867188 258.140625 392.890625 261.78125 C 392.023438 265.023438 395.59375 265.265625 396.460938 259.695312 C 398.949219 266.371094 395.628906 267.078125 394.476562 271.382812 C 393.804688 273.886719 397.4375 272.617188 398.785156 268.625 C 400.75 273.84375 399.304688 276.644531 398.132812 278.671875 C 396.8125 280.960938 396.5625 283.773438 398.914062 283.773438 C 403.4375 283.773438 403.742188 276.984375 405.710938 276.984375 L 405.710938 323.292969 Z M 355.261719 323.292969 "/>
<path style="fill-rule:evenodd;fill:rgb(99.998474%,99.998474%,99.998474%);fill-opacity:1;stroke-width:1.2;stroke-linecap:butt;stroke-linejoin:miter;stroke:rgb(0%,0%,0%);stroke-opacity:1;stroke-miterlimit:4;" d="M 383.953125 257.15625 L 386.859375 254.71875 L 386.859375 251.59375 C 385.796875 251.699219 385.21875 252.066406 384.429688 253.089844 C 383.765625 251.023438 382.300781 249.40625 380.335938 248.398438 C 378.363281 249.40625 376.898438 250.949219 376.234375 253.015625 C 375.445312 251.992188 374.867188 251.699219 373.804688 251.59375 L 373.804688 254.71875 L 376.710938 257.15625 Z M 383.953125 257.15625 "/>
<path style="fill-rule:evenodd;fill:rgb(99.998474%,99.998474%,99.998474%);fill-opacity:1;stroke-width:1.2;stroke-linecap:butt;stroke-linejoin:miter;stroke:rgb(0%,0%,0%);stroke-opacity:1;stroke-miterlimit:4;" d="M 385.511719 264.992188 L 386.859375 262.070312 L 386.859375 258.011719 C 385.796875 258.113281 385.21875 258.484375 384.429688 259.53125 C 383.765625 257.425781 382.300781 255.789062 380.335938 254.769531 C 378.363281 255.789062 376.898438 257.351562 376.234375 259.449219 C 375.445312 258.414062 374.867188 258.113281 373.804688 258.011719 L 373.804688 262.070312 L 375.152344 264.992188 Z M 385.511719 264.992188 "/>
<path style="fill-rule:evenodd;fill:rgb(99.998474%,99.998474%,99.998474%);fill-opacity:1;stroke-width:1.2;stroke-linecap:butt;stroke-linejoin:miter;stroke:rgb(0%,0%,0%);stroke-opacity:1;stroke-miterlimit:4;" d="M 385.710938 275.589844 L 390.027344 270.328125 L 390.027344 265.140625 C 388.445312 265.316406 387.585938 265.945312 386.421875 267.710938 C 385.429688 264.15625 383.25 263.375 380.335938 261.65625 C 377.410156 263.375 375.230469 264.027344 374.242188 267.585938 C 373.078125 265.816406 372.21875 265.316406 370.636719 265.140625 L 370.636719 270.328125 L 374.953125 275.589844 Z M 385.710938 275.589844 "/>
<path style="fill-rule:evenodd;fill:rgb(99.998474%,99.998474%,99.998474%);fill-opacity:1;stroke-width:1.2;stroke-linecap:butt;stroke-linejoin:miter;stroke:rgb(0%,0%,0%);stroke-opacity:1;stroke-miterlimit:4;" d="M 386.976562 286.007812 C 386.976562 286.007812 392 281.625 392.296875 279.21875 L 392.296875 273.671875 C 390.351562 273.898438 388.507812 274.40625 387.074219 276.6875 C 385.84375 272.089844 383.9375 270.808594 380.335938 268.585938 C 376.726562 270.808594 374.816406 272.089844 373.589844 276.6875 C 372.15625 274.40625 370.3125 273.898438 368.367188 273.671875 L 368.367188 279.21875 C 369 281.625 373.6875 286.007812 373.6875 286.007812 Z M 386.976562 286.007812 "/>
<path style="fill-rule:evenodd;fill:rgb(99.998474%,99.998474%,99.998474%);fill-opacity:1;stroke-width:1.2;stroke-linecap:butt;stroke-linejoin:miter;stroke:rgb(0%,0%,0%);stroke-opacity:1;stroke-miterlimit:4;" d="M 389.117188 305.246094 C 389.117188 305.246094 396 297.621094 396.160156 294.65625 L 396.160156 286.007812 C 393.585938 286.359375 391.144531 288.136719 389.246094 291.6875 C 387.628906 284.53125 385.101562 279.539062 380.335938 276.0625 C 375.5625 279.539062 373.035156 284.53125 371.417969 291.6875 C 369.519531 288.136719 367.085938 286.359375 364.507812 286.007812 L 364.507812 294.65625 C 365.003906 297.621094 371.546875 305.246094 371.546875 305.246094 Z M 389.117188 305.246094 "/>
<path style="fill-rule:evenodd;fill:rgb(99.998474%,99.998474%,99.998474%);fill-opacity:1;stroke-width:1.2;stroke-linecap:butt;stroke-linejoin:miter;stroke:rgb(0%,0%,0%);stroke-opacity:1;stroke-miterlimit:4;" d="M 389.117188 316.609375 C 389.117188 316.609375 395 310.621094 396.160156 308.027344 L 396.160156 299.375 C 393.585938 299.734375 391.144531 301.503906 389.246094 305.054688 C 387.628906 297.898438 385.101562 293.800781 380.335938 290.328125 C 375.5625 293.800781 373.035156 297.898438 371.417969 305.054688 C 369.519531 301.503906 367.085938 299.734375 364.507812 299.375 L 364.507812 308.027344 C 365.996094 310.621094 371.546875 316.609375 371.546875 316.609375 Z M 389.117188 316.609375 "/>
<path style="fill-rule:evenodd;fill:rgb(99.998474%,99.998474%,99.998474%);fill-opacity:1;stroke-width:1.2;stroke-linecap:butt;stroke-linejoin:miter;stroke:rgb(0%,0%,0%);stroke-opacity:1;stroke-miterlimit:4;" d="M 391.492188 323.234375 C 389.777344 315.761719 388.300781 310.226562 380.03125 304.605469 C 371.765625 310.226562 370.289062 315.761719 368.574219 323.234375 Z M 391.492188 323.234375 "/>
<path style="fill-rule:evenodd;fill:rgb(99.998474%,99.998474%,99.998474%);fill-opacity:1;stroke-width:1.2;stroke-linecap:butt;stroke-linejoin:miter;stroke:rgb(0%,0%,0%);stroke-opacity:1;stroke-miterlimit:4;" d="M 395.746094 327.375 L 395.746094 316.5625 C 391.992188 318.03125 388.597656 320.210938 387.347656 322.632812 C 385.949219 316.628906 383.257812 313.980469 379.902344 310.347656 C 376.550781 313.980469 374.304688 316.628906 372.90625 322.632812 C 371.65625 320.210938 368.261719 318.03125 364.507812 316.5625 L 364.507812 327.375 Z M 395.746094 327.375 "/>
<path style="fill-rule:evenodd;fill:rgb(99.998474%,99.998474%,99.998474%);fill-opacity:1;stroke-width:1.2;stroke-linecap:butt;stroke-linejoin:miter;stroke:rgb(0%,0%,0%);stroke-opacity:1;stroke-miterlimit:4;" d="M 344.429688 288.320312 L 344.429688 323.648438 L 348.445312 323.648438 L 348.445312 288.234375 C 346.996094 287.503906 345.636719 287.386719 344.429688 288.320312 Z M 344.429688 288.320312 "/>
<path style="fill-rule:evenodd;fill:rgb(99.998474%,99.998474%,99.998474%);fill-opacity:1;stroke-width:1.2;stroke-linecap:butt;stroke-linejoin:miter;stroke:rgb(0%,0%,0%);stroke-opacity:1;stroke-miterlimit:4;" d="M 344.554688 311.179688 C 349.535156 313.722656 354.46875 316.671875 355.710938 323.648438 L 344.554688 323.648438 Z M 344.554688 311.179688 "/>
<path style="fill-rule:evenodd;fill:rgb(99.998474%,99.998474%,99.998474%);fill-opacity:1;stroke-width:1.2;stroke-linecap:butt;stroke-linejoin:miter;stroke:rgb(0%,0%,0%);stroke-opacity:1;stroke-miterlimit:4;" d="M 413.625 300.59375 L 413.625 323.648438 L 416.875 323.648438 L 416.875 300.539062 C 415.863281 300.0625 414.472656 299.992188 413.625 300.59375 Z M 413.625 300.59375 "/>
<path style="fill-rule:evenodd;fill:rgb(99.998474%,99.998474%,99.998474%);fill-opacity:1;stroke-width:1.2;stroke-linecap:butt;stroke-linejoin:miter;stroke:rgb(0%,0%,0%);stroke-opacity:1;stroke-miterlimit:4;" d="M 416.875 311 C 411.894531 313.546875 406.964844 316.492188 405.71875 323.46875 L 416.875 323.46875 Z M 416.875 311 "/>
<path style="fill-rule:evenodd;fill:rgb(99.998474%,99.998474%,99.998474%);fill-opacity:1;stroke-width:1.2;stroke-linecap:butt;stroke-linejoin:miter;stroke:rgb(0%,0%,0%);stroke-opacity:1;stroke-miterlimit:4;" d="M 655.804688 288.320312 L 655.804688 323.648438 L 651.78125 323.648438 L 651.78125 288.234375 C 653.234375 287.503906 654.589844 287.386719 655.804688 288.320312 Z M 655.804688 288.320312 "/>
<path style="fill-rule:evenodd;fill:rgb(99.998474%,99.998474%,99.998474%);fill-opacity:1;stroke-width:1.2;stroke-linecap:butt;stroke-linejoin:miter;stroke:rgb(0%,0%,0%);stroke-opacity:1;stroke-miterlimit:4;" d="M 594.75 323.292969 L 594.75 276.984375 C 596.722656 276.984375 597.027344 283.773438 601.550781 283.773438 C 603.90625 283.773438 603.65625 280.960938 602.332031 278.671875 C 601.164062 276.644531 599.710938 273.84375 601.683594 268.625 C 603.03125 272.617188 606.664062 273.886719 605.992188 271.382812 C 604.839844 267.078125 601.519531 266.371094 604.007812 259.695312 C 604.875 265.265625 608.445312 265.023438 607.582031 261.78125 C 606.605469 258.140625 604.585938 256.644531 607.074219 251.5 C 608.472656 257.339844 610.359375 256.996094 610.359375 253.371094 C 610.359375 248.019531 610.148438 242.246094 617.085938 240.097656 C 617.085938 240.097656 617.480469 235.1875 619.984375 235.1875 C 622.480469 235.1875 622.882812 240.097656 622.882812 240.097656 C 629.808594 242.246094 629.609375 248.019531 629.609375 253.371094 C 629.609375 256.996094 631.492188 257.339844 632.886719 251.5 C 635.382812 256.644531 633.363281 258.140625 632.386719 261.78125 C 631.519531 265.023438 635.089844 265.265625 635.957031 259.695312 C 638.441406 266.371094 635.125 267.078125 633.972656 271.382812 C 633.300781 273.886719 636.933594 272.617188 638.28125 268.625 C 640.246094 273.84375 638.800781 276.644531 637.628906 278.671875 C 636.304688 280.960938 636.054688 283.773438 638.410156 283.773438 C 642.933594 283.773438 643.238281 276.984375 645.210938 276.984375 L 645.210938 323.292969 Z M 594.75 323.292969 "/>
<path style="fill-rule:evenodd;fill:rgb(99.998474%,99.998474%,99.998474%);fill-opacity:1;stroke-width:1.2;stroke-linecap:butt;stroke-linejoin:miter;stroke:rgb(0%,0%,0%);stroke-opacity:1;stroke-miterlimit:4;" d="M 623.449219 257.15625 L 626.355469 254.71875 L 626.355469 251.59375 C 625.292969 251.699219 624.710938 252.066406 623.925781 253.089844 C 623.261719 251.023438 621.796875 249.40625 619.824219 248.398438 C 617.859375 249.40625 616.394531 250.949219 615.726562 253.015625 C 614.941406 251.992188 614.359375 251.699219 613.300781 251.59375 L 613.300781 254.71875 L 616.203125 257.15625 Z M 623.449219 257.15625 "/>
<path style="fill-rule:evenodd;fill:rgb(99.998474%,99.998474%,99.998474%);fill-opacity:1;stroke-width:1.2;stroke-linecap:butt;stroke-linejoin:miter;stroke:rgb(0%,0%,0%);stroke-opacity:1;stroke-miterlimit:4;" d="M 625 264.992188 L 626.355469 262.070312 L 626.355469 258.011719 C 625.292969 258.113281 624.710938 258.484375 623.925781 259.53125 C 623.261719 257.425781 621.796875 255.789062 619.824219 254.769531 C 617.859375 255.789062 616.394531 257.351562 615.726562 259.449219 C 614.941406 258.414062 614.359375 258.113281 613.300781 258.011719 L 613.300781 262.070312 L 614.648438 264.992188 Z M 625 264.992188 "/>
<path style="fill-rule:evenodd;fill:rgb(99.998474%,99.998474%,99.998474%);fill-opacity:1;stroke-width:1.2;stroke-linecap:butt;stroke-linejoin:miter;stroke:rgb(0%,0%,0%);stroke-opacity:1;stroke-miterlimit:4;" d="M 625.207031 275.589844 L 629.523438 270.328125 L 629.523438 265.140625 C 627.941406 265.316406 627.082031 265.945312 625.914062 267.710938 C 624.925781 264.15625 622.75 263.375 619.824219 261.65625 C 616.90625 263.375 614.726562 264.027344 613.738281 267.585938 C 612.574219 265.816406 611.710938 265.316406 610.132812 265.140625 L 610.132812 270.328125 L 614.445312 275.589844 Z M 625.207031 275.589844 "/>
<path style="fill-rule:evenodd;fill:rgb(99.998474%,99.998474%,99.998474%);fill-opacity:1;stroke-width:1.2;stroke-linecap:butt;stroke-linejoin:miter;stroke:rgb(0%,0%,0%);stroke-opacity:1;stroke-miterlimit:4;" d="M 626.46875 286.007812 C 626.46875 286.007812 631.492188 281.625 631.792969 279.21875 L 631.792969 273.671875 C 629.847656 273.898438 628.003906 274.40625 626.5625 276.6875 C 625.34375 272.089844 623.429688 270.808594 619.824219 268.585938 C 616.222656 270.808594 614.3125 272.089844 613.085938 276.6875 C 611.652344 274.40625 609.808594 273.898438 607.859375 273.671875 L 607.859375 279.21875 C 608.496094 281.625 613.183594 286.007812 613.183594 286.007812 Z M 626.46875 286.007812 "/>
<path style="fill-rule:evenodd;fill:rgb(99.998474%,99.998474%,99.998474%);fill-opacity:1;stroke-width:1.2;stroke-linecap:butt;stroke-linejoin:miter;stroke:rgb(0%,0%,0%);stroke-opacity:1;stroke-miterlimit:4;" d="M 628.613281 305.246094 C 628.613281 305.246094 635.492188 297.621094 635.648438 294.65625 L 635.648438 286.007812 C 633.074219 286.359375 630.640625 288.136719 628.742188 291.6875 C 627.125 284.53125 624.597656 279.539062 619.824219 276.0625 C 615.058594 279.539062 612.53125 284.53125 610.914062 291.6875 C 609.015625 288.136719 606.574219 286.359375 604 286.007812 L 604 294.65625 C 604.492188 297.621094 611.039062 305.246094 611.039062 305.246094 Z M 628.613281 305.246094 "/>
<path style="fill-rule:evenodd;fill:rgb(99.998474%,99.998474%,99.998474%);fill-opacity:1;stroke-width:1.2;stroke-linecap:butt;stroke-linejoin:miter;stroke:rgb(0%,0%,0%);stroke-opacity:1;stroke-miterlimit:4;" d="M 628.613281 316.609375 C 628.613281 316.609375 634.496094 310.621094 635.648438 308.027344 L 635.648438 299.375 C 633.074219 299.734375 630.640625 301.503906 628.742188 305.054688 C 627.125 297.898438 624.597656 293.800781 619.824219 290.328125 C 615.058594 293.800781 612.53125 297.898438 610.914062 305.054688 C 609.015625 301.503906 606.574219 299.734375 604 299.375 L 604 308.027344 C 605.492188 310.621094 611.039062 316.609375 611.039062 316.609375 Z M 628.613281 316.609375 "/>
<path style="fill-rule:evenodd;fill:rgb(99.998474%,99.998474%,99.998474%);fill-opacity:1;stroke-width:1.2;stroke-linecap:butt;stroke-linejoin:miter;stroke:rgb(0%,0%,0%);stroke-opacity:1;stroke-miterlimit:4;" d="M 630.988281 323.234375 C 629.273438 315.761719 627.796875 310.226562 619.523438 304.605469 C 611.261719 310.226562 609.785156 315.761719 608.070312 323.234375 Z M 630.988281 323.234375 "/>
<path style="fill-rule:evenodd;fill:rgb(99.998474%,99.998474%,99.998474%);fill-opacity:1;stroke-width:1.2;stroke-linecap:butt;stroke-linejoin:miter;stroke:rgb(0%,0%,0%);stroke-opacity:1;stroke-miterlimit:4;" d="M 655.675781 311.179688 C 650.695312 313.722656 646.300781 316.671875 645.050781 323.648438 L 655.675781 323.648438 Z M 655.675781 311.179688 "/>
<path style="fill-rule:evenodd;fill:rgb(99.998474%,99.998474%,99.998474%);fill-opacity:1;stroke-width:1.2;stroke-linecap:butt;stroke-linejoin:miter;stroke:rgb(0%,0%,0%);stroke-opacity:1;stroke-miterlimit:4;" d="M 586.609375 300.59375 L 586.609375 323.648438 L 583.351562 323.648438 L 583.351562 300.539062 C 584.367188 300.0625 585.761719 299.992188 586.609375 300.59375 Z M 586.609375 300.59375 "/>
<path style="fill-rule:evenodd;fill:rgb(99.998474%,99.998474%,99.998474%);fill-opacity:1;stroke-width:1.2;stroke-linecap:butt;stroke-linejoin:miter;stroke:rgb(0%,0%,0%);stroke-opacity:1;stroke-miterlimit:4;" d="M 583.351562 311.179688 C 588.328125 313.722656 593.261719 316.671875 594.511719 323.648438 L 583.351562 323.648438 Z M 583.351562 311.179688 "/>
<path style="fill-rule:evenodd;fill:rgb(99.998474%,99.998474%,99.998474%);fill-opacity:1;stroke-width:1.2;stroke-linecap:butt;stroke-linejoin:miter;stroke:rgb(0%,0%,0%);stroke-opacity:1;stroke-miterlimit:4;" d="M 586.609375 300.59375 L 586.609375 323.648438 L 583.351562 323.648438 L 583.351562 300.539062 C 584.367188 300.0625 585.761719 299.992188 586.609375 300.59375 Z M 586.609375 300.59375 "/>
<path style="fill-rule:evenodd;fill:rgb(99.998474%,99.998474%,99.998474%);fill-opacity:1;stroke-width:1.2;stroke-linecap:butt;stroke-linejoin:miter;stroke:rgb(0%,0%,0%);stroke-opacity:1;stroke-miterlimit:4;" d="M 583.351562 311.179688 C 588.328125 313.722656 593.261719 316.671875 594.511719 323.648438 L 583.351562 323.648438 Z M 583.351562 311.179688 "/>
<path style="fill-rule:evenodd;fill:rgb(99.998474%,99.998474%,99.998474%);fill-opacity:1;stroke-width:1.2;stroke-linecap:butt;stroke-linejoin:miter;stroke:rgb(0%,0%,0%);stroke-opacity:1;stroke-miterlimit:4;" d="M 528.421875 279.664062 C 528.421875 270.675781 536.179688 269.664062 536.179688 269.664062 L 536.179688 277.664062 C 533.226562 277.535156 531.804688 280.191406 531.804688 284.132812 C 531.804688 288.082031 534.1875 288.144531 534.1875 288.144531 L 534.1875 310.847656 L 528.421875 310.847656 Z M 528.421875 279.664062 "/>
<path style="fill-rule:evenodd;fill:rgb(99.998474%,99.998474%,99.998474%);fill-opacity:1;stroke-width:1.2;stroke-linecap:butt;stroke-linejoin:miter;stroke:rgb(0%,0%,0%);stroke-opacity:1;stroke-miterlimit:4;" d="M 471.074219 279.664062 C 471.074219 270.675781 463.316406 269.664062 463.316406 269.664062 L 463.316406 277.664062 C 466.273438 277.535156 467.695312 280.191406 467.695312 284.132812 C 467.695312 288.082031 465.3125 288.144531 465.3125 288.144531 L 465.3125 310.847656 L 471.074219 310.847656 Z M 471.074219 279.664062 "/>
<path style="fill-rule:evenodd;fill:rgb(99.998474%,99.998474%,99.998474%);fill-opacity:1;stroke-width:1.2;stroke-linecap:butt;stroke-linejoin:miter;stroke:rgb(0%,0%,0%);stroke-opacity:1;stroke-miterlimit:4;" d="M 635.371094 327.253906 L 635.371094 316.433594 C 631.617188 317.90625 628.222656 320.082031 626.972656 322.507812 C 625.574219 316.5 622.882812 313.851562 619.523438 310.21875 C 616.167969 313.851562 613.921875 316.5 612.523438 322.507812 C 611.273438 320.082031 607.878906 317.90625 604.125 316.433594 L 604.125 327.253906 Z M 635.371094 327.253906 "/>
<path style="fill-rule:evenodd;fill:rgb(99.998474%,99.998474%,99.998474%);fill-opacity:1;stroke-width:1.2;stroke-linecap:butt;stroke-linejoin:miter;stroke:rgb(0%,0%,0%);stroke-opacity:1;stroke-miterlimit:4;" d="M 303.734375 415.535156 L 696.257812 415.535156 L 696.265625 435.585938 L 303.742188 435.585938 Z M 303.734375 415.535156 "/>
<path style="fill-rule:evenodd;fill:rgb(99.998474%,99.998474%,99.998474%);fill-opacity:1;stroke-width:1.2;stroke-linecap:butt;stroke-linejoin:miter;stroke:rgb(0%,0%,0%);stroke-opacity:1;stroke-miterlimit:4;" d="M 293.390625 435.554688 L 706.605469 435.554688 L 706.609375 455.574219 L 293.394531 455.574219 Z M 293.390625 435.554688 "/>
<path style="fill-rule:evenodd;fill:rgb(99.998474%,99.998474%,99.998474%);fill-opacity:1;stroke-width:1.2;stroke-linecap:butt;stroke-linejoin:miter;stroke:rgb(0%,0%,0%);stroke-opacity:1;stroke-miterlimit:4;" d="M 324.351562 385.550781 L 675.648438 385.550781 L 675.648438 398.519531 L 324.351562 398.519531 Z M 324.351562 385.550781 "/>
<path style="fill-rule:evenodd;fill:rgb(99.998474%,99.998474%,99.998474%);fill-opacity:1;stroke-width:1.2;stroke-linecap:butt;stroke-linejoin:miter;stroke:rgb(0%,0%,0%);stroke-opacity:1;stroke-miterlimit:4;" d="M 314.082031 398.433594 L 685.921875 398.433594 L 685.921875 415.425781 L 314.082031 415.425781 Z M 314.082031 398.433594 "/>
<path style="fill-rule:evenodd;fill:rgb(99.998474%,99.998474%,99.998474%);fill-opacity:1;stroke-width:1.2;stroke-linecap:butt;stroke-linejoin:miter;stroke:rgb(0%,0%,0%);stroke-opacity:1;stroke-miterlimit:4;" d="M 330.488281 375.570312 L 669.515625 375.570312 L 669.515625 385.453125 L 330.488281 385.453125 Z M 330.488281 375.570312 "/>
<path style="fill-rule:evenodd;fill:rgb(99.998474%,99.998474%,99.998474%);fill-opacity:1;stroke-width:1.305695;stroke-linecap:butt;stroke-linejoin:miter;stroke:rgb(0%,0%,0%);stroke-opacity:1;stroke-miterlimit:4;" d="M 367.285156 375.625 L 392.894531 375.625 L 392.894531 455.519531 L 367.285156 455.519531 Z M 367.285156 375.625 "/>
<path style="fill-rule:evenodd;fill:rgb(99.998474%,99.998474%,99.998474%);fill-opacity:1;stroke-width:1.303675;stroke-linecap:butt;stroke-linejoin:miter;stroke:rgb(0%,0%,0%);stroke-opacity:1;stroke-miterlimit:4;" d="M 372.953125 375.625 L 387.226562 375.625 L 387.226562 455.519531 L 372.953125 455.519531 Z M 372.953125 375.625 "/>
<path style="fill:none;stroke-width:1.2;stroke-linecap:butt;stroke-linejoin:miter;stroke:rgb(0%,0%,0%);stroke-opacity:1;stroke-miterlimit:4;" d="M 372.691406 385.484375 L 387.480469 385.484375 "/>
<path style="fill:none;stroke-width:1.2;stroke-linecap:butt;stroke-linejoin:miter;stroke:rgb(0%,0%,0%);stroke-opacity:1;stroke-miterlimit:4;" d="M 372.691406 395.480469 L 387.480469 395.480469 "/>
<path style="fill:none;stroke-width:1.2;stroke-linecap:butt;stroke-linejoin:miter;stroke:rgb(0%,0%,0%);stroke-opacity:1;stroke-miterlimit:4;" d="M 372.691406 405.484375 L 387.480469 405.484375 "/>
<path style="fill:none;stroke-width:1.2;stroke-linecap:butt;stroke-linejoin:miter;stroke:rgb(0%,0%,0%);stroke-opacity:1;stroke-miterlimit:4;" d="M 372.691406 415.480469 L 387.480469 415.480469 "/>
<path style="fill:none;stroke-width:1.2;stroke-linecap:butt;stroke-linejoin:miter;stroke:rgb(0%,0%,0%);stroke-opacity:1;stroke-miterlimit:4;" d="M 372.691406 425.476562 L 387.480469 425.476562 "/>
<path style="fill:none;stroke-width:1.2;stroke-linecap:butt;stroke-linejoin:miter;stroke:rgb(0%,0%,0%);stroke-opacity:1;stroke-miterlimit:4;" d="M 372.691406 435.484375 L 387.480469 435.484375 "/>
<path style="fill:none;stroke-width:1.2;stroke-linecap:butt;stroke-linejoin:miter;stroke:rgb(0%,0%,0%);stroke-opacity:1;stroke-miterlimit:4;" d="M 372.691406 445.480469 L 387.480469 445.480469 "/>
<path style="fill-rule:evenodd;fill:rgb(99.998474%,99.998474%,99.998474%);fill-opacity:1;stroke-width:1.305695;stroke-linecap:butt;stroke-linejoin:miter;stroke:rgb(0%,0%,0%);stroke-opacity:1;stroke-miterlimit:4;" d="M 486.75 375.625 L 512.359375 375.625 L 512.359375 455.519531 L 486.75 455.519531 Z M 486.75 375.625 "/>
<path style="fill-rule:evenodd;fill:rgb(99.998474%,99.998474%,99.998474%);fill-opacity:1;stroke-width:1.303675;stroke-linecap:butt;stroke-linejoin:miter;stroke:rgb(0%,0%,0%);stroke-opacity:1;stroke-miterlimit:4;" d="M 492.597656 375.625 L 506.867188 375.625 L 506.867188 455.519531 L 492.597656 455.519531 Z M 492.597656 375.625 "/>
<path style="fill:none;stroke-width:1.2;stroke-linecap:butt;stroke-linejoin:miter;stroke:rgb(0%,0%,0%);stroke-opacity:1;stroke-miterlimit:4;" d="M 492.671875 385.464844 L 506.4375 385.464844 "/>
<path style="fill:none;stroke-width:1.2;stroke-linecap:butt;stroke-linejoin:miter;stroke:rgb(0%,0%,0%);stroke-opacity:1;stroke-miterlimit:4;" d="M 492.671875 395.472656 L 506.4375 395.472656 "/>
<path style="fill:none;stroke-width:1.2;stroke-linecap:butt;stroke-linejoin:miter;stroke:rgb(0%,0%,0%);stroke-opacity:1;stroke-miterlimit:4;" d="M 492.671875 405.476562 L 506.4375 405.476562 "/>
<path style="fill:none;stroke-width:1.2;stroke-linecap:butt;stroke-linejoin:miter;stroke:rgb(0%,0%,0%);stroke-opacity:1;stroke-miterlimit:4;" d="M 492.671875 415.480469 L 506.4375 415.480469 "/>
<path style="fill:none;stroke-width:1.2;stroke-linecap:butt;stroke-linejoin:miter;stroke:rgb(0%,0%,0%);stroke-opacity:1;stroke-miterlimit:4;" d="M 492.671875 425.484375 L 506.4375 425.484375 "/>
<path style="fill:none;stroke-width:1.2;stroke-linecap:butt;stroke-linejoin:miter;stroke:rgb(0%,0%,0%);stroke-opacity:1;stroke-miterlimit:4;" d="M 492.671875 435.492188 L 506.4375 435.492188 "/>
<path style="fill:none;stroke-width:1.2;stroke-linecap:butt;stroke-linejoin:miter;stroke:rgb(0%,0%,0%);stroke-opacity:1;stroke-miterlimit:4;" d="M 492.671875 445.5 L 506.4375 445.5 "/>
<path style="fill-rule:evenodd;fill:rgb(99.998474%,99.998474%,99.998474%);fill-opacity:1;stroke-width:1.305695;stroke-linecap:butt;stroke-linejoin:miter;stroke:rgb(0%,0%,0%);stroke-opacity:1;stroke-miterlimit:4;" d="M 606.929688 375.625 L 632.539062 375.625 L 632.539062 455.519531 L 606.929688 455.519531 Z M 606.929688 375.625 "/>
<path style="fill-rule:evenodd;fill:rgb(99.998474%,99.998474%,99.998474%);fill-opacity:1;stroke-width:1.303675;stroke-linecap:butt;stroke-linejoin:miter;stroke:rgb(0%,0%,0%);stroke-opacity:1;stroke-miterlimit:4;" d="M 612.597656 375.625 L 626.867188 375.625 L 626.867188 455.519531 L 612.597656 455.519531 Z M 612.597656 375.625 "/>
<path style="fill:none;stroke-width:1.2;stroke-linecap:butt;stroke-linejoin:miter;stroke:rgb(0%,0%,0%);stroke-opacity:1;stroke-miterlimit:4;" d="M 612.339844 385.484375 L 627.128906 385.484375 "/>
<path style="fill:none;stroke-width:1.2;stroke-linecap:butt;stroke-linejoin:miter;stroke:rgb(0%,0%,0%);stroke-opacity:1;stroke-miterlimit:4;" d="M 612.339844 395.480469 L 627.128906 395.480469 "/>
<path style="fill:none;stroke-width:1.2;stroke-linecap:butt;stroke-linejoin:miter;stroke:rgb(0%,0%,0%);stroke-opacity:1;stroke-miterlimit:4;" d="M 612.339844 405.484375 L 627.128906 405.484375 "/>
<path style="fill:none;stroke-width:1.2;stroke-linecap:butt;stroke-linejoin:miter;stroke:rgb(0%,0%,0%);stroke-opacity:1;stroke-miterlimit:4;" d="M 612.339844 415.480469 L 627.128906 415.480469 "/>
<path style="fill:none;stroke-width:1.2;stroke-linecap:butt;stroke-linejoin:miter;stroke:rgb(0%,0%,0%);stroke-opacity:1;stroke-miterlimit:4;" d="M 612.339844 425.476562 L 627.128906 425.476562 "/>
<path style="fill:none;stroke-width:1.2;stroke-linecap:butt;stroke-linejoin:miter;stroke:rgb(0%,0%,0%);stroke-opacity:1;stroke-miterlimit:4;" d="M 612.339844 435.484375 L 627.128906 435.484375 "/>
<path style="fill:none;stroke-width:1.2;stroke-linecap:butt;stroke-linejoin:miter;stroke:rgb(0%,0%,0%);stroke-opacity:1;stroke-miterlimit:4;" d="M 612.339844 445.480469 L 627.128906 445.480469 "/>
<path style="fill-rule:evenodd;fill:rgb(99.998474%,99.998474%,99.998474%);fill-opacity:1;stroke-width:1.2;stroke-linecap:round;stroke-linejoin:round;stroke:rgb(0%,0%,0%);stroke-opacity:1;stroke-miterlimit:4;" d="M 422.546875 340.953125 L 428.289062 340.953125 L 428.289062 367.34375 L 422.546875 367.34375 Z M 422.546875 340.953125 "/>
<path style="fill-rule:evenodd;fill:rgb(99.998474%,99.998474%,99.998474%);fill-opacity:1;stroke-width:1.2;stroke-linecap:round;stroke-linejoin:round;stroke:rgb(0%,0%,0%);stroke-opacity:1;stroke-miterlimit:4;" d="M 434.546875 340.953125 L 440.289062 340.953125 L 440.289062 367.34375 L 434.546875 367.34375 Z M 434.546875 340.953125 "/>
<path style="fill-rule:evenodd;fill:rgb(99.998474%,99.998474%,99.998474%);fill-opacity:1;stroke-width:1.2;stroke-linecap:round;stroke-linejoin:round;stroke:rgb(0%,0%,0%);stroke-opacity:1;stroke-miterlimit:4;" d="M 446.550781 340.953125 L 452.289062 340.953125 L 452.289062 367.34375 L 446.550781 367.34375 Z M 446.550781 340.953125 "/>
<path style="fill-rule:evenodd;fill:rgb(99.998474%,99.998474%,99.998474%);fill-opacity:1;stroke-width:1.2;stroke-linecap:round;stroke-linejoin:round;stroke:rgb(0%,0%,0%);stroke-opacity:1;stroke-miterlimit:4;" d="M 547.050781 340.953125 L 552.789062 340.953125 L 552.789062 367.34375 L 547.050781 367.34375 Z M 547.050781 340.953125 "/>
<path style="fill-rule:evenodd;fill:rgb(99.998474%,99.998474%,99.998474%);fill-opacity:1;stroke-width:1.2;stroke-linecap:round;stroke-linejoin:round;stroke:rgb(0%,0%,0%);stroke-opacity:1;stroke-miterlimit:4;" d="M 559.050781 340.953125 L 564.796875 340.953125 L 564.796875 367.34375 L 559.050781 367.34375 Z M 559.050781 340.953125 "/>
<path style="fill-rule:evenodd;fill:rgb(99.998474%,99.998474%,99.998474%);fill-opacity:1;stroke-width:1.2;stroke-linecap:round;stroke-linejoin:round;stroke:rgb(0%,0%,0%);stroke-opacity:1;stroke-miterlimit:4;" d="M 571.050781 340.953125 L 576.796875 340.953125 L 576.796875 367.34375 L 571.050781 367.34375 Z M 571.050781 340.953125 "/>
<path style="fill-rule:evenodd;fill:rgb(99.998474%,99.998474%,99.998474%);fill-opacity:1;stroke-width:1.2;stroke-linecap:butt;stroke-linejoin:miter;stroke:rgb(0%,0%,0%);stroke-opacity:1;stroke-miterlimit:4;" d="M 487.796875 209.238281 L 487.164062 204.238281 L 512.507812 204.238281 L 511.871094 209.238281 Z M 487.796875 209.238281 "/>
<path style="fill-rule:evenodd;fill:rgb(99.998474%,99.998474%,99.998474%);fill-opacity:1;stroke-width:1.2;stroke-linecap:butt;stroke-linejoin:miter;stroke:rgb(0%,0%,0%);stroke-opacity:1;stroke-miterlimit:4;" d="M 489.496094 204.140625 L 488.953125 200.03125 L 510.71875 200.03125 L 510.175781 204.140625 Z M 489.496094 204.140625 "/>
<path style="fill-rule:evenodd;fill:rgb(99.998474%,99.998474%,99.998474%);fill-opacity:1;stroke-width:1.2;stroke-linecap:butt;stroke-linejoin:miter;stroke:rgb(0%,0%,0%);stroke-opacity:1;stroke-miterlimit:4;" d="M 492.949219 199.878906 L 492.589844 195.765625 L 507.078125 195.765625 L 506.71875 199.878906 Z M 492.949219 199.878906 "/>
</g>
</svg>
