<?xml version="1.0" encoding="UTF-8"?>
<svg xmlns="http://www.w3.org/2000/svg" xmlns:xlink="http://www.w3.org/1999/xlink" viewBox="0 0 1000 500" version="1.1">
<g id="surface264">
<rect x="0" y="0" width="1000" height="500" style="fill:rgb(99.998474%,0%,0%);fill-opacity:1;stroke:none;"/>
<path style=" stroke:none;fill-rule:evenodd;fill:rgb(99.998474%,99.998474%,99.998474%);fill-opacity:1;" d="M 250 0 L 750 0 L 750 500 L 250 500 Z M 250 0 "/>
<path style=" stroke:none;fill-rule:evenodd;fill:rgb(99.998474%,0%,0%);fill-opacity:1;" d="M 499.988281 46.875 L 465.878906 110.496094 C 462.007812 117.417969 455.074219 116.773438 448.140625 112.910156 L 423.441406 100.121094 L 441.847656 197.851562 C 445.71875 215.703125 433.300781 215.703125 427.167969 207.984375 L 384.066406 159.730469 L 377.070312 184.238281 C 376.265625 187.457031 372.714844 190.835938 367.390625 190.027344 L 312.890625 178.570312 L 327.207031 230.613281 C 330.273438 242.199219 332.660156 246.992188 324.109375 250.042969 L 304.6875 259.175781 L 398.511719 335.382812 C 402.222656 338.265625 404.097656 343.453125 402.777344 348.144531 L 394.566406 375.09375 C 426.871094 371.367188 455.816406 365.765625 488.136719 362.316406 C 490.984375 362.011719 495.765625 366.71875 495.746094 370.023438 L 491.464844 468.75 L 507.171875 468.75 L 504.699219 370.238281 C 504.675781 366.933594 509.015625 362.011719 511.863281 362.316406 C 544.183594 365.765625 573.128906 371.367188 605.433594 375.09375 L 597.222656 348.144531 C 595.902344 343.453125 597.777344 338.265625 601.488281 335.382812 L 695.3125 259.175781 L 675.890625 250.042969 C 667.339844 246.992188 669.726562 242.199219 672.792969 230.613281 L 687.109375 178.570312 L 632.609375 190.027344 C 627.285156 190.835938 623.734375 187.457031 622.929688 184.238281 L 615.933594 159.730469 L 572.832031 207.984375 C 566.699219 215.703125 554.28125 215.703125 558.152344 197.851562 L 576.558594 100.121094 L 551.859375 112.910156 C 544.925781 116.773438 537.992188 117.417969 534.121094 110.496094 Z M 499.988281 46.875 "/>
</g>
</svg>
