<?xml version="1.0" encoding="UTF-8"?>
<svg xmlns="http://www.w3.org/2000/svg" xmlns:xlink="http://www.w3.org/1999/xlink" viewBox="0 0 1000 588" version="1.1">
<g id="surface269">
<rect x="0" y="0" width="1000" height="588" style="fill:rgb(0%,21.960449%,57.646179%);fill-opacity:1;stroke:none;"/>
<path style=" stroke:none;fill-rule:evenodd;fill:rgb(99.998474%,99.998474%,99.998474%);fill-opacity:1;" d="M 0 294.117188 L 1000 294.117188 L 1000 441.175781 L 0 441.175781 Z M 0 294.117188 "/>
<path style=" stroke:none;fill-rule:evenodd;fill:rgb(80.783081%,6.666565%,14.901733%);fill-opacity:1;" d="M 0 343.136719 L 1000 343.136719 L 1000 392.15625 L 0 392.15625 Z M 0 343.136719 "/>
<path style=" stroke:none;fill-rule:evenodd;fill:rgb(99.998474%,79.998779%,0%);fill-opacity:1;" d="M 375 191.175781 L 365.914062 219.152344 L 379.902344 223.691406 Z M 375 191.175781 "/>
<path style=" stroke:none;fill-rule:evenodd;fill:rgb(99.998474%,79.998779%,0%);fill-opacity:1;" d="M 375 191.175781 L 384.085938 219.152344 L 370.097656 223.691406 Z M 375 191.175781 "/>
<path style=" stroke:none;fill-rule:evenodd;fill:rgb(99.998474%,79.998779%,0%);fill-opacity:1;" d="M 402.976562 211.503906 L 373.5625 211.503906 L 373.5625 226.207031 Z M 402.976562 211.503906 "/>
<path style=" stroke:none;fill-rule:evenodd;fill:rgb(99.998474%,79.998779%,0%);fill-opacity:1;" d="M 402.976562 211.503906 L 379.175781 228.785156 L 370.539062 216.890625 Z M 402.976562 211.503906 "/>
<path style=" stroke:none;fill-rule:evenodd;fill:rgb(99.998474%,79.998779%,0%);fill-opacity:1;" d="M 392.292969 244.378906 L 383.195312 216.414062 L 369.21875 220.949219 Z M 392.292969 244.378906 "/>
<path style=" stroke:none;fill-rule:evenodd;fill:rgb(99.998474%,79.998779%,0%);fill-opacity:1;" d="M 392.292969 244.378906 L 368.488281 227.097656 L 377.136719 215.199219 Z M 392.292969 244.378906 "/>
<path style=" stroke:none;fill-rule:evenodd;fill:rgb(99.998474%,79.998779%,0%);fill-opacity:1;" d="M 357.707031 244.378906 L 381.511719 227.097656 L 372.863281 215.199219 Z M 357.707031 244.378906 "/>
<path style=" stroke:none;fill-rule:evenodd;fill:rgb(99.998474%,79.998779%,0%);fill-opacity:1;" d="M 357.707031 244.378906 L 366.804688 216.414062 L 380.78125 220.949219 Z M 357.707031 244.378906 "/>
<path style=" stroke:none;fill-rule:evenodd;fill:rgb(99.998474%,79.998779%,0%);fill-opacity:1;" d="M 347.023438 211.503906 L 370.824219 228.785156 L 379.460938 216.890625 Z M 347.023438 211.503906 "/>
<path style=" stroke:none;fill-rule:evenodd;fill:rgb(99.998474%,79.998779%,0%);fill-opacity:1;" d="M 347.023438 211.503906 L 376.4375 211.503906 L 376.4375 226.207031 Z M 347.023438 211.503906 "/>
<path style=" stroke:none;fill-rule:evenodd;fill:rgb(99.998474%,79.998779%,0%);fill-opacity:1;" d="M 288.5625 219.257812 L 279.476562 247.222656 L 293.464844 251.773438 Z M 288.5625 219.257812 "/>
<path style=" stroke:none;fill-rule:evenodd;fill:rgb(99.998474%,79.998779%,0%);fill-opacity:1;" d="M 288.5625 219.257812 L 297.660156 247.222656 L 283.671875 251.773438 Z M 288.5625 219.257812 "/>
<path style=" stroke:none;fill-rule:evenodd;fill:rgb(99.998474%,79.998779%,0%);fill-opacity:1;" d="M 316.539062 239.574219 L 287.128906 239.574219 L 287.128906 254.28125 Z M 316.539062 239.574219 "/>
<path style=" stroke:none;fill-rule:evenodd;fill:rgb(99.998474%,79.998779%,0%);fill-opacity:1;" d="M 316.539062 239.574219 L 292.746094 256.863281 L 284.101562 244.964844 Z M 316.539062 239.574219 "/>
<path style=" stroke:none;fill-rule:evenodd;fill:rgb(99.998474%,79.998779%,0%);fill-opacity:1;" d="M 305.855469 272.460938 L 296.769531 244.484375 L 282.78125 249.03125 Z M 305.855469 272.460938 "/>
<path style=" stroke:none;fill-rule:evenodd;fill:rgb(99.998474%,79.998779%,0%);fill-opacity:1;" d="M 305.855469 272.460938 L 282.0625 255.167969 L 290.707031 243.28125 Z M 305.855469 272.460938 "/>
<path style=" stroke:none;fill-rule:evenodd;fill:rgb(99.998474%,79.998779%,0%);fill-opacity:1;" d="M 271.285156 272.460938 L 295.074219 255.167969 L 286.429688 243.28125 Z M 271.285156 272.460938 "/>
<path style=" stroke:none;fill-rule:evenodd;fill:rgb(99.998474%,79.998779%,0%);fill-opacity:1;" d="M 271.285156 272.460938 L 280.371094 244.484375 L 294.359375 249.03125 Z M 271.285156 272.460938 "/>
<path style=" stroke:none;fill-rule:evenodd;fill:rgb(99.998474%,79.998779%,0%);fill-opacity:1;" d="M 260.597656 239.574219 L 284.390625 256.863281 L 293.035156 244.964844 Z M 260.597656 239.574219 "/>
<path style=" stroke:none;fill-rule:evenodd;fill:rgb(99.998474%,79.998779%,0%);fill-opacity:1;" d="M 260.597656 239.574219 L 290.011719 239.574219 L 290.011719 254.28125 Z M 260.597656 239.574219 "/>
<path style=" stroke:none;fill-rule:evenodd;fill:rgb(99.998474%,79.998779%,0%);fill-opacity:1;" d="M 461.4375 219.257812 L 452.339844 247.222656 L 466.328125 251.773438 Z M 461.4375 219.257812 "/>
<path style=" stroke:none;fill-rule:evenodd;fill:rgb(99.998474%,79.998779%,0%);fill-opacity:1;" d="M 461.4375 219.257812 L 470.523438 247.222656 L 456.535156 251.773438 Z M 461.4375 219.257812 "/>
<path style=" stroke:none;fill-rule:evenodd;fill:rgb(99.998474%,79.998779%,0%);fill-opacity:1;" d="M 489.402344 239.574219 L 459.988281 239.574219 L 459.988281 254.28125 Z M 489.402344 239.574219 "/>
<path style=" stroke:none;fill-rule:evenodd;fill:rgb(99.998474%,79.998779%,0%);fill-opacity:1;" d="M 489.402344 239.574219 L 465.609375 256.863281 L 456.964844 244.964844 Z M 489.402344 239.574219 "/>
<path style=" stroke:none;fill-rule:evenodd;fill:rgb(99.998474%,79.998779%,0%);fill-opacity:1;" d="M 478.714844 272.460938 L 469.628906 244.484375 L 455.640625 249.03125 Z M 478.714844 272.460938 "/>
<path style=" stroke:none;fill-rule:evenodd;fill:rgb(99.998474%,79.998779%,0%);fill-opacity:1;" d="M 478.714844 272.460938 L 454.925781 255.167969 L 463.570312 243.28125 Z M 478.714844 272.460938 "/>
<path style=" stroke:none;fill-rule:evenodd;fill:rgb(99.998474%,79.998779%,0%);fill-opacity:1;" d="M 444.144531 272.460938 L 467.9375 255.167969 L 459.292969 243.28125 Z M 444.144531 272.460938 "/>
<path style=" stroke:none;fill-rule:evenodd;fill:rgb(99.998474%,79.998779%,0%);fill-opacity:1;" d="M 444.144531 272.460938 L 453.230469 244.484375 L 467.21875 249.03125 Z M 444.144531 272.460938 "/>
<path style=" stroke:none;fill-rule:evenodd;fill:rgb(99.998474%,79.998779%,0%);fill-opacity:1;" d="M 433.460938 239.574219 L 457.253906 256.863281 L 465.898438 244.964844 Z M 433.460938 239.574219 "/>
<path style=" stroke:none;fill-rule:evenodd;fill:rgb(99.998474%,79.998779%,0%);fill-opacity:1;" d="M 433.460938 239.574219 L 462.871094 239.574219 L 462.871094 254.28125 Z M 433.460938 239.574219 "/>
<path style=" stroke:none;fill-rule:evenodd;fill:rgb(99.998474%,79.998779%,0%);fill-opacity:1;" d="M 514.859375 292.785156 L 505.773438 320.753906 L 519.761719 325.300781 Z M 514.859375 292.785156 "/>
<path style=" stroke:none;fill-rule:evenodd;fill:rgb(99.998474%,79.998779%,0%);fill-opacity:1;" d="M 514.859375 292.785156 L 523.953125 320.753906 L 509.964844 325.300781 Z M 514.859375 292.785156 "/>
<path style=" stroke:none;fill-rule:evenodd;fill:rgb(99.998474%,79.998779%,0%);fill-opacity:1;" d="M 542.835938 313.101562 L 513.425781 313.101562 L 513.425781 327.808594 Z M 542.835938 313.101562 "/>
<path style=" stroke:none;fill-rule:evenodd;fill:rgb(99.998474%,79.998779%,0%);fill-opacity:1;" d="M 542.835938 313.101562 L 519.042969 330.394531 L 510.398438 318.492188 Z M 542.835938 313.101562 "/>
<path style=" stroke:none;fill-rule:evenodd;fill:rgb(99.998474%,79.998779%,0%);fill-opacity:1;" d="M 532.148438 345.988281 L 523.0625 318.015625 L 509.074219 322.5625 Z M 532.148438 345.988281 "/>
<path style=" stroke:none;fill-rule:evenodd;fill:rgb(99.998474%,79.998779%,0%);fill-opacity:1;" d="M 532.148438 345.988281 L 508.359375 328.699219 L 517.003906 316.808594 Z M 532.148438 345.988281 "/>
<path style=" stroke:none;fill-rule:evenodd;fill:rgb(99.998474%,79.998779%,0%);fill-opacity:1;" d="M 497.578125 345.988281 L 521.371094 328.699219 L 512.722656 316.808594 Z M 497.578125 345.988281 "/>
<path style=" stroke:none;fill-rule:evenodd;fill:rgb(99.998474%,79.998779%,0%);fill-opacity:1;" d="M 497.578125 345.988281 L 506.664062 318.015625 L 520.652344 322.5625 Z M 497.578125 345.988281 "/>
<path style=" stroke:none;fill-rule:evenodd;fill:rgb(99.998474%,79.998779%,0%);fill-opacity:1;" d="M 486.890625 313.101562 L 510.683594 330.394531 L 519.332031 318.492188 Z M 486.890625 313.101562 "/>
<path style=" stroke:none;fill-rule:evenodd;fill:rgb(99.998474%,79.998779%,0%);fill-opacity:1;" d="M 486.890625 313.101562 L 516.304688 313.101562 L 516.304688 327.808594 Z M 486.890625 313.101562 "/>
<path style=" stroke:none;fill-rule:evenodd;fill:rgb(99.998474%,79.998779%,0%);fill-opacity:1;" d="M 514.859375 383.683594 L 505.773438 411.660156 L 519.761719 416.207031 Z M 514.859375 383.683594 "/>
<path style=" stroke:none;fill-rule:evenodd;fill:rgb(99.998474%,79.998779%,0%);fill-opacity:1;" d="M 514.859375 383.683594 L 523.953125 411.660156 L 509.964844 416.207031 Z M 514.859375 383.683594 "/>
<path style=" stroke:none;fill-rule:evenodd;fill:rgb(99.998474%,79.998779%,0%);fill-opacity:1;" d="M 542.835938 404.011719 L 513.425781 404.011719 L 513.425781 418.714844 Z M 542.835938 404.011719 "/>
<path style=" stroke:none;fill-rule:evenodd;fill:rgb(99.998474%,79.998779%,0%);fill-opacity:1;" d="M 542.835938 404.011719 L 519.042969 421.300781 L 510.398438 409.398438 Z M 542.835938 404.011719 "/>
<path style=" stroke:none;fill-rule:evenodd;fill:rgb(99.998474%,79.998779%,0%);fill-opacity:1;" d="M 532.148438 436.898438 L 523.0625 408.921875 L 509.074219 413.46875 Z M 532.148438 436.898438 "/>
<path style=" stroke:none;fill-rule:evenodd;fill:rgb(99.998474%,79.998779%,0%);fill-opacity:1;" d="M 532.148438 436.898438 L 508.359375 419.605469 L 517.003906 407.707031 Z M 532.148438 436.898438 "/>
<path style=" stroke:none;fill-rule:evenodd;fill:rgb(99.998474%,79.998779%,0%);fill-opacity:1;" d="M 497.578125 436.898438 L 521.371094 419.605469 L 512.722656 407.707031 Z M 497.578125 436.898438 "/>
<path style=" stroke:none;fill-rule:evenodd;fill:rgb(99.998474%,79.998779%,0%);fill-opacity:1;" d="M 497.578125 436.898438 L 506.664062 408.921875 L 520.652344 413.46875 Z M 497.578125 436.898438 "/>
<path style=" stroke:none;fill-rule:evenodd;fill:rgb(99.998474%,79.998779%,0%);fill-opacity:1;" d="M 486.890625 404.011719 L 510.683594 421.300781 L 519.332031 409.398438 Z M 486.890625 404.011719 "/>
<path style=" stroke:none;fill-rule:evenodd;fill:rgb(99.998474%,79.998779%,0%);fill-opacity:1;" d="M 486.890625 404.011719 L 516.304688 404.011719 L 516.304688 418.714844 Z M 486.890625 404.011719 "/>
<path style=" stroke:none;fill-rule:evenodd;fill:rgb(99.998474%,79.998779%,0%);fill-opacity:1;" d="M 461.4375 457.214844 L 452.339844 485.1875 L 466.328125 489.734375 Z M 461.4375 457.214844 "/>
<path style=" stroke:none;fill-rule:evenodd;fill:rgb(99.998474%,79.998779%,0%);fill-opacity:1;" d="M 461.4375 457.214844 L 470.523438 485.1875 L 456.535156 489.734375 Z M 461.4375 457.214844 "/>
<path style=" stroke:none;fill-rule:evenodd;fill:rgb(99.998474%,79.998779%,0%);fill-opacity:1;" d="M 489.402344 477.539062 L 459.988281 477.539062 L 459.988281 492.246094 Z M 489.402344 477.539062 "/>
<path style=" stroke:none;fill-rule:evenodd;fill:rgb(99.998474%,79.998779%,0%);fill-opacity:1;" d="M 489.402344 477.539062 L 465.609375 494.832031 L 456.964844 482.929688 Z M 489.402344 477.539062 "/>
<path style=" stroke:none;fill-rule:evenodd;fill:rgb(99.998474%,79.998779%,0%);fill-opacity:1;" d="M 478.714844 510.425781 L 469.628906 482.449219 L 455.640625 486.996094 Z M 478.714844 510.425781 "/>
<path style=" stroke:none;fill-rule:evenodd;fill:rgb(99.998474%,79.998779%,0%);fill-opacity:1;" d="M 478.714844 510.425781 L 454.925781 493.136719 L 463.570312 481.234375 Z M 478.714844 510.425781 "/>
<path style=" stroke:none;fill-rule:evenodd;fill:rgb(99.998474%,79.998779%,0%);fill-opacity:1;" d="M 444.144531 510.425781 L 467.9375 493.136719 L 459.292969 481.234375 Z M 444.144531 510.425781 "/>
<path style=" stroke:none;fill-rule:evenodd;fill:rgb(99.998474%,79.998779%,0%);fill-opacity:1;" d="M 444.144531 510.425781 L 453.230469 482.449219 L 467.21875 486.996094 Z M 444.144531 510.425781 "/>
<path style=" stroke:none;fill-rule:evenodd;fill:rgb(99.998474%,79.998779%,0%);fill-opacity:1;" d="M 433.460938 477.539062 L 457.253906 494.832031 L 465.898438 482.929688 Z M 433.460938 477.539062 "/>
<path style=" stroke:none;fill-rule:evenodd;fill:rgb(99.998474%,79.998779%,0%);fill-opacity:1;" d="M 433.460938 477.539062 L 462.871094 477.539062 L 462.871094 492.246094 Z M 433.460938 477.539062 "/>
<path style=" stroke:none;fill-rule:evenodd;fill:rgb(99.998474%,79.998779%,0%);fill-opacity:1;" d="M 375 485.292969 L 365.914062 513.269531 L 379.902344 517.808594 Z M 375 485.292969 "/>
<path style=" stroke:none;fill-rule:evenodd;fill:rgb(99.998474%,79.998779%,0%);fill-opacity:1;" d="M 375 485.292969 L 384.085938 513.269531 L 370.097656 517.808594 Z M 375 485.292969 "/>
<path style=" stroke:none;fill-rule:evenodd;fill:rgb(99.998474%,79.998779%,0%);fill-opacity:1;" d="M 402.976562 505.621094 L 373.5625 505.621094 L 373.5625 520.324219 Z M 402.976562 505.621094 "/>
<path style=" stroke:none;fill-rule:evenodd;fill:rgb(99.998474%,79.998779%,0%);fill-opacity:1;" d="M 402.976562 505.621094 L 379.175781 522.902344 L 370.539062 511.011719 Z M 402.976562 505.621094 "/>
<path style=" stroke:none;fill-rule:evenodd;fill:rgb(99.998474%,79.998779%,0%);fill-opacity:1;" d="M 392.292969 538.496094 L 383.195312 510.53125 L 369.21875 515.070312 Z M 392.292969 538.496094 "/>
<path style=" stroke:none;fill-rule:evenodd;fill:rgb(99.998474%,79.998779%,0%);fill-opacity:1;" d="M 392.292969 538.496094 L 368.488281 521.214844 L 377.136719 509.316406 Z M 392.292969 538.496094 "/>
<path style=" stroke:none;fill-rule:evenodd;fill:rgb(99.998474%,79.998779%,0%);fill-opacity:1;" d="M 357.707031 538.496094 L 381.511719 521.214844 L 372.863281 509.316406 Z M 357.707031 538.496094 "/>
<path style=" stroke:none;fill-rule:evenodd;fill:rgb(99.998474%,79.998779%,0%);fill-opacity:1;" d="M 357.707031 538.496094 L 366.804688 510.53125 L 380.78125 515.070312 Z M 357.707031 538.496094 "/>
<path style=" stroke:none;fill-rule:evenodd;fill:rgb(99.998474%,79.998779%,0%);fill-opacity:1;" d="M 347.023438 505.621094 L 370.824219 522.902344 L 379.460938 511.011719 Z M 347.023438 505.621094 "/>
<path style=" stroke:none;fill-rule:evenodd;fill:rgb(99.998474%,79.998779%,0%);fill-opacity:1;" d="M 347.023438 505.621094 L 376.4375 505.621094 L 376.4375 520.324219 Z M 347.023438 505.621094 "/>
<path style=" stroke:none;fill-rule:evenodd;fill:rgb(99.998474%,79.998779%,0%);fill-opacity:1;" d="M 288.5625 457.214844 L 279.476562 485.1875 L 293.464844 489.734375 Z M 288.5625 457.214844 "/>
<path style=" stroke:none;fill-rule:evenodd;fill:rgb(99.998474%,79.998779%,0%);fill-opacity:1;" d="M 288.5625 457.214844 L 297.660156 485.1875 L 283.671875 489.734375 Z M 288.5625 457.214844 "/>
<path style=" stroke:none;fill-rule:evenodd;fill:rgb(99.998474%,79.998779%,0%);fill-opacity:1;" d="M 316.539062 477.539062 L 287.128906 477.539062 L 287.128906 492.246094 Z M 316.539062 477.539062 "/>
<path style=" stroke:none;fill-rule:evenodd;fill:rgb(99.998474%,79.998779%,0%);fill-opacity:1;" d="M 316.539062 477.539062 L 292.746094 494.832031 L 284.101562 482.929688 Z M 316.539062 477.539062 "/>
<path style=" stroke:none;fill-rule:evenodd;fill:rgb(99.998474%,79.998779%,0%);fill-opacity:1;" d="M 305.855469 510.425781 L 296.769531 482.449219 L 282.78125 486.996094 Z M 305.855469 510.425781 "/>
<path style=" stroke:none;fill-rule:evenodd;fill:rgb(99.998474%,79.998779%,0%);fill-opacity:1;" d="M 305.855469 510.425781 L 282.0625 493.136719 L 290.707031 481.234375 Z M 305.855469 510.425781 "/>
<path style=" stroke:none;fill-rule:evenodd;fill:rgb(99.998474%,79.998779%,0%);fill-opacity:1;" d="M 271.285156 510.425781 L 295.074219 493.136719 L 286.429688 481.234375 Z M 271.285156 510.425781 "/>
<path style=" stroke:none;fill-rule:evenodd;fill:rgb(99.998474%,79.998779%,0%);fill-opacity:1;" d="M 271.285156 510.425781 L 280.371094 482.449219 L 294.359375 486.996094 Z M 271.285156 510.425781 "/>
<path style=" stroke:none;fill-rule:evenodd;fill:rgb(99.998474%,79.998779%,0%);fill-opacity:1;" d="M 260.597656 477.539062 L 284.390625 494.832031 L 293.035156 482.929688 Z M 260.597656 477.539062 "/>
<path style=" stroke:none;fill-rule:evenodd;fill:rgb(99.998474%,79.998779%,0%);fill-opacity:1;" d="M 260.597656 477.539062 L 290.011719 477.539062 L 290.011719 492.246094 Z M 260.597656 477.539062 "/>
<path style=" stroke:none;fill-rule:evenodd;fill:rgb(99.998474%,79.998779%,0%);fill-opacity:1;" d="M 235.140625 383.683594 L 226.046875 411.660156 L 240.035156 416.207031 Z M 235.140625 383.683594 "/>
<path style=" stroke:none;fill-rule:evenodd;fill:rgb(99.998474%,79.998779%,0%);fill-opacity:1;" d="M 235.140625 383.683594 L 244.226562 411.660156 L 230.238281 416.207031 Z M 235.140625 383.683594 "/>
<path style=" stroke:none;fill-rule:evenodd;fill:rgb(99.998474%,79.998779%,0%);fill-opacity:1;" d="M 263.109375 404.011719 L 233.695312 404.011719 L 233.695312 418.714844 Z M 263.109375 404.011719 "/>
<path style=" stroke:none;fill-rule:evenodd;fill:rgb(99.998474%,79.998779%,0%);fill-opacity:1;" d="M 263.109375 404.011719 L 239.316406 421.300781 L 230.667969 409.398438 Z M 263.109375 404.011719 "/>
<path style=" stroke:none;fill-rule:evenodd;fill:rgb(99.998474%,79.998779%,0%);fill-opacity:1;" d="M 252.421875 436.898438 L 243.335938 408.921875 L 229.347656 413.46875 Z M 252.421875 436.898438 "/>
<path style=" stroke:none;fill-rule:evenodd;fill:rgb(99.998474%,79.998779%,0%);fill-opacity:1;" d="M 252.421875 436.898438 L 228.628906 419.605469 L 237.277344 407.707031 Z M 252.421875 436.898438 "/>
<path style=" stroke:none;fill-rule:evenodd;fill:rgb(99.998474%,79.998779%,0%);fill-opacity:1;" d="M 217.851562 436.898438 L 241.640625 419.605469 L 232.996094 407.707031 Z M 217.851562 436.898438 "/>
<path style=" stroke:none;fill-rule:evenodd;fill:rgb(99.998474%,79.998779%,0%);fill-opacity:1;" d="M 217.851562 436.898438 L 226.9375 408.921875 L 240.925781 413.46875 Z M 217.851562 436.898438 "/>
<path style=" stroke:none;fill-rule:evenodd;fill:rgb(99.998474%,79.998779%,0%);fill-opacity:1;" d="M 207.164062 404.011719 L 230.957031 421.300781 L 239.601562 409.398438 Z M 207.164062 404.011719 "/>
<path style=" stroke:none;fill-rule:evenodd;fill:rgb(99.998474%,79.998779%,0%);fill-opacity:1;" d="M 207.164062 404.011719 L 236.574219 404.011719 L 236.574219 418.714844 Z M 207.164062 404.011719 "/>
<path style=" stroke:none;fill-rule:evenodd;fill:rgb(99.998474%,79.998779%,0%);fill-opacity:1;" d="M 235.140625 292.785156 L 226.046875 320.753906 L 240.035156 325.300781 Z M 235.140625 292.785156 "/>
<path style=" stroke:none;fill-rule:evenodd;fill:rgb(99.998474%,79.998779%,0%);fill-opacity:1;" d="M 235.140625 292.785156 L 244.226562 320.753906 L 230.238281 325.300781 Z M 235.140625 292.785156 "/>
<path style=" stroke:none;fill-rule:evenodd;fill:rgb(99.998474%,79.998779%,0%);fill-opacity:1;" d="M 263.109375 313.101562 L 233.695312 313.101562 L 233.695312 327.808594 Z M 263.109375 313.101562 "/>
<path style=" stroke:none;fill-rule:evenodd;fill:rgb(99.998474%,79.998779%,0%);fill-opacity:1;" d="M 263.109375 313.101562 L 239.316406 330.394531 L 230.667969 318.492188 Z M 263.109375 313.101562 "/>
<path style=" stroke:none;fill-rule:evenodd;fill:rgb(99.998474%,79.998779%,0%);fill-opacity:1;" d="M 252.421875 345.988281 L 243.335938 318.015625 L 229.347656 322.5625 Z M 252.421875 345.988281 "/>
<path style=" stroke:none;fill-rule:evenodd;fill:rgb(99.998474%,79.998779%,0%);fill-opacity:1;" d="M 252.421875 345.988281 L 228.628906 328.699219 L 237.277344 316.808594 Z M 252.421875 345.988281 "/>
<path style=" stroke:none;fill-rule:evenodd;fill:rgb(99.998474%,79.998779%,0%);fill-opacity:1;" d="M 217.851562 345.988281 L 241.640625 328.699219 L 232.996094 316.808594 Z M 217.851562 345.988281 "/>
<path style=" stroke:none;fill-rule:evenodd;fill:rgb(99.998474%,79.998779%,0%);fill-opacity:1;" d="M 217.851562 345.988281 L 226.9375 318.015625 L 240.925781 322.5625 Z M 217.851562 345.988281 "/>
<path style=" stroke:none;fill-rule:evenodd;fill:rgb(99.998474%,79.998779%,0%);fill-opacity:1;" d="M 207.164062 313.101562 L 230.957031 330.394531 L 239.601562 318.492188 Z M 207.164062 313.101562 "/>
<path style=" stroke:none;fill-rule:evenodd;fill:rgb(99.998474%,79.998779%,0%);fill-opacity:1;" d="M 207.164062 313.101562 L 236.574219 313.101562 L 236.574219 327.808594 Z M 207.164062 313.101562 "/>
</g>
</svg>
