<?xml version="1.0" encoding="UTF-8"?>
<svg xmlns="http://www.w3.org/2000/svg" xmlns:xlink="http://www.w3.org/1999/xlink" viewBox="0 0 1000 502" version="1.1">
<g id="surface304">
<path style=" stroke:none;fill-rule:evenodd;fill:rgb(0%,50.195312%,0%);fill-opacity:1;" d="M 0 2.082031 L 1000 2.082031 L 1000 502.082031 L 0 502.082031 Z M 0 2.082031 "/>
<path style=" stroke:none;fill-rule:evenodd;fill:rgb(99.998474%,87.841797%,0%);fill-opacity:1;" d="M 280.09375 147.917969 C 280.09375 208 231.378906 256.714844 171.296875 256.714844 C 111.207031 256.714844 62.5 208 62.5 147.917969 C 62.5 87.832031 111.207031 39.117188 171.296875 39.117188 C 231.378906 39.117188 280.09375 87.832031 280.09375 147.917969 Z M 280.09375 147.917969 "/>
<path style="fill-rule:evenodd;fill:rgb(50.195312%,12.548828%,0%);fill-opacity:1;stroke-width:2.314815;stroke-linecap:butt;stroke-linejoin:miter;stroke:rgb(48.234558%,19.215393%,0%);stroke-opacity:1;stroke-miterlimit:4;" d="M 164.097656 230.199219 L 191.351562 230.199219 C 191.351562 230.199219 192.578125 227.703125 191.074219 226.457031 C 189.566406 225.203125 183.707031 224.933594 185.289062 220.515625 C 188.542969 211.433594 188.996094 214.234375 191.039062 192.660156 C 193.082031 171.085938 194.066406 137.257812 194.066406 137.257812 L 190.136719 137.257812 C 190.136719 137.257812 190.894531 147.777344 188.621094 161.476562 C 186.351562 175.179688 185.667969 176.382812 183.171875 186.90625 C 180.671875 197.429688 180.296875 198.339844 178.027344 204.46875 C 175.757812 210.597656 175.527344 210.902344 171.972656 216.578125 C 168.410156 222.257812 169.703125 220.132812 167.734375 223.542969 C 166.746094 225.242188 165.535156 224.789062 164.878906 226.035156 C 164.207031 227.269531 164.097656 230.199219 164.097656 230.199219 Z M 164.097656 230.199219 "/>
<path style=" stroke:none;fill-rule:evenodd;fill:rgb(99.998474%,87.841797%,0%);fill-opacity:1;" d="M 750 383.03125 L 756.886719 404.453125 L 777.921875 396.484375 L 765.480469 415.21875 L 784.824219 426.699219 L 762.410156 428.644531 L 765.496094 450.925781 L 750 434.628906 L 734.503906 450.925781 L 737.589844 428.644531 L 715.175781 426.699219 L 734.519531 415.21875 L 722.078125 396.484375 L 743.113281 404.453125 Z M 750 383.03125 "/>
<path style=" stroke:none;fill-rule:evenodd;fill:rgb(99.998474%,87.841797%,0%);fill-opacity:1;" d="M 750 49.699219 L 756.886719 71.117188 L 777.921875 63.148438 L 765.480469 81.886719 L 784.824219 93.367188 L 762.410156 95.3125 L 765.496094 117.59375 L 750 101.292969 L 734.503906 117.59375 L 737.589844 95.3125 L 715.175781 93.367188 L 734.519531 81.886719 L 722.078125 63.148438 L 743.113281 71.117188 Z M 750 49.699219 "/>
<path style=" stroke:none;fill-rule:evenodd;fill:rgb(99.998474%,87.841797%,0%);fill-opacity:1;" d="M 625 185.113281 L 631.886719 206.535156 L 652.921875 198.566406 L 640.480469 217.300781 L 659.824219 228.785156 L 637.410156 230.730469 L 640.496094 253.011719 L 625 236.710938 L 609.503906 253.011719 L 612.589844 230.730469 L 590.175781 228.785156 L 609.519531 217.300781 L 597.078125 198.566406 L 618.113281 206.535156 Z M 625 185.113281 "/>
<path style=" stroke:none;fill-rule:evenodd;fill:rgb(99.998474%,87.841797%,0%);fill-opacity:1;" d="M 861.109375 151.78125 L 868.003906 173.203125 L 889.027344 165.234375 L 876.585938 183.96875 L 895.929688 195.449219 L 873.527344 197.394531 L 876.609375 219.675781 L 861.109375 203.378906 L 845.613281 219.675781 L 848.699219 197.394531 L 826.292969 195.449219 L 845.628906 183.96875 L 833.1875 165.234375 L 854.222656 173.203125 Z M 861.109375 151.78125 "/>
<path style=" stroke:none;fill-rule:evenodd;fill:rgb(99.998474%,87.841797%,0%);fill-opacity:1;" d="M 800 252.082031 L 805.445312 265.429688 L 819.816406 266.480469 L 808.804688 275.78125 L 812.246094 289.769531 L 800 282.175781 L 787.753906 289.769531 L 791.195312 275.78125 L 780.183594 266.480469 L 794.554688 265.429688 Z M 800 252.082031 "/>
<path style=" stroke:none;fill-rule:evenodd;fill:rgb(99.998474%,87.841797%,0%);fill-opacity:1;" d="M 500 147.917969 C 442.496094 147.917969 395.832031 194.578125 395.832031 252.082031 C 395.832031 309.585938 442.496094 356.25 500 356.25 C 526.960938 356.25 551.300781 345.726562 569.808594 328.90625 C 568.441406 329.574219 567.230469 330.484375 565.828125 331.078125 C 560.703125 333.242188 555.347656 334.929688 549.773438 336.066406 C 544.191406 337.207031 538.394531 337.800781 532.480469 337.800781 C 526.5625 337.800781 520.769531 337.207031 515.195312 336.066406 C 509.609375 334.929688 504.257812 333.242188 499.128906 331.078125 C 494.003906 328.90625 489.152344 326.203125 484.59375 323.121094 C 480.027344 320.035156 475.738281 316.578125 471.859375 312.703125 C 467.984375 308.820312 464.453125 304.535156 461.367188 299.964844 C 458.292969 295.410156 455.65625 290.558594 453.484375 285.433594 C 451.320312 280.304688 449.632812 274.953125 448.492188 269.367188 C 447.355469 263.792969 446.761719 258 446.761719 252.082031 C 446.761719 246.167969 447.355469 240.371094 448.492188 234.796875 C 449.632812 229.214844 451.320312 223.859375 453.484375 218.734375 C 455.65625 213.605469 458.292969 208.757812 461.367188 204.199219 C 464.453125 199.632812 467.984375 195.347656 471.859375 191.460938 C 475.738281 187.589844 480.027344 184.132812 484.59375 181.046875 C 489.152344 177.960938 494.003906 175.261719 499.128906 173.085938 C 504.257812 170.921875 509.609375 169.238281 515.195312 168.097656 C 520.769531 166.960938 526.5625 166.363281 532.480469 166.363281 C 538.394531 166.363281 544.191406 166.960938 549.773438 168.097656 C 555.347656 169.238281 560.703125 170.921875 565.828125 173.085938 C 567.230469 173.679688 568.441406 174.59375 569.808594 175.261719 C 551.300781 158.441406 526.960938 147.917969 500 147.917969 Z M 500 147.917969 "/>
<path style=" stroke:none;fill-rule:evenodd;fill:rgb(0%,50.195312%,0%);fill-opacity:1;" d="M 184.894531 68.417969 C 185.121094 72.648438 184.699219 78.253906 182.941406 82.8125 C 181.160156 87.890625 179.230469 92.960938 179.328125 98.21875 C 176.496094 99.183594 173.582031 92.097656 170.867188 96.265625 C 172.910156 102.027344 177.628906 106.582031 180.867188 111.765625 C 181.414062 113.371094 186.066406 117.570312 183.375 118.546875 C 176.578125 116.21875 174.925781 107.601562 170.710938 102.367188 C 165.8125 93.5625 156.679688 87.347656 146.5 86.914062 C 142.683594 87.011719 130.257812 85.972656 133.488281 92.511719 C 138.246094 95.742188 144.117188 97.859375 148.820312 101.488281 C 152.320312 101.824219 158.675781 107.667969 158.300781 109.878906 C 152.140625 107.382812 149.261719 104.394531 142.617188 101.765625 C 133.628906 98.292969 121.183594 100.382812 116.203125 109.308594 C 115.273438 111.628906 113.910156 118.410156 116.828125 119.050781 C 120.238281 113.730469 125.113281 107.769531 132.347656 109.375 C 138.027344 109.816406 126.007812 119.953125 130.605469 117.914062 C 132.066406 117.269531 135.425781 115.054688 137.761719 114.828125 C 140.085938 114.601562 141.398438 116.339844 143.164062 116.585938 C 146.703125 117.066406 147.679688 118.554688 147.355469 119.417969 C 146.964844 120.433594 145.839844 119.566406 142.242188 120.703125 C 140.4375 121.273438 139.503906 122.859375 137.402344 123.582031 C 135.300781 124.308594 130.941406 124.355469 129.304688 123.714844 C 123.601562 121.230469 114.234375 121.664062 112.457031 128.816406 C 112.457031 131.964844 109.660156 128.476562 108.367188 129.832031 C 107.390625 133.269531 107.144531 136.792969 102.050781 136.476562 C 98.957031 139.722656 95.792969 143.074219 91.871094 145.386719 C 94.171875 150.667969 103.296875 140.078125 102.871094 144.539062 C 98.886719 149.984375 104.921875 151.132812 107.570312 146.941406 C 112.042969 142.210938 117.578125 136.457031 124.261719 141.226562 C 127.433594 144.214844 129.28125 139.640625 131.582031 139.886719 C 133.03125 143.605469 134.855469 140.070312 136.5 139.019531 C 139.191406 138.679688 138.433594 142.382812 141.632812 140.105469 C 148.015625 135.882812 155.859375 139.429688 162.09375 135.320312 C 168.726562 132.300781 163.027344 137.761719 161.199219 139.890625 C 158.285156 145.539062 160.808594 152.960938 154.484375 156.46875 C 151.945312 163.207031 157.488281 172.085938 151.839844 177.066406 C 151.015625 180.191406 159.105469 179.832031 161.367188 181.117188 C 165.347656 181.273438 161.199219 172.011719 165.144531 170.777344 C 170.441406 174.046875 170.191406 164.917969 169.101562 162.101562 C 169.613281 155.695312 169.972656 148.699219 173.152344 142.894531 C 176.539062 135.785156 179.671875 145.792969 175.886719 148.601562 C 173.730469 155.144531 170.597656 163.324219 175.488281 169.398438 C 176.902344 169.71875 178.058594 173.136719 179.882812 174.183594 C 181.714844 175.234375 184.203125 173.917969 184.660156 170.808594 C 187.003906 161.449219 185.824219 151.375 189.160156 142.277344 C 191.519531 139.453125 194.773438 141.820312 196.238281 144.410156 C 200.925781 149.855469 204.222656 156.65625 209.894531 161.132812 C 215.0625 163.550781 219.628906 167.203125 222.003906 172.523438 C 221.972656 176.628906 233.660156 177.253906 230.167969 172.699219 C 226.816406 168.253906 229.027344 163.820312 232.421875 160.863281 C 234.238281 161.3125 233.699219 158.054688 232.273438 159.339844 C 229.996094 158.804688 229.851562 154.632812 233.023438 156.617188 C 238.363281 158.339844 232.601562 152.75 230.671875 152.578125 C 226.15625 149.78125 220.972656 146.558594 218.75 141.699219 C 224.625 141.757812 230.730469 144.929688 236.734375 142.960938 C 241.550781 140.488281 246.433594 143.164062 248.121094 147.414062 C 251.839844 146.820312 250.253906 143.082031 248.121094 141.835938 C 250.835938 140.714844 252.726562 138.386719 249.421875 136.335938 C 247.679688 134.058594 251.757812 130.175781 246.746094 130.335938 C 246.910156 126.507812 245.402344 122.996094 241.21875 121.679688 C 237.035156 118.132812 224.757812 126.894531 225.113281 118.914062 C 223.878906 114.558594 230.101562 118.328125 231.84375 116.164062 C 233.640625 111.582031 223.273438 112.027344 226.699219 108.472656 C 228.929688 107.03125 239.414062 104.972656 231.195312 103.425781 C 227.089844 104.554688 223.566406 103.71875 220.347656 101.691406 C 217.398438 106.617188 209 99.023438 210.496094 107.769531 C 209.339844 111.066406 201.839844 119.628906 199.804688 113.070312 C 201.527344 107.925781 210.433594 106.242188 207.675781 99.308594 C 207.25 94.980469 203.664062 100.066406 201.96875 99.738281 C 201.113281 97.046875 204.558594 93.871094 206.957031 93.230469 C 211.726562 96.890625 211.863281 88.605469 216.398438 89.28125 C 219.710938 88.542969 215.332031 87.125 214.414062 86.5 C 215.316406 84.082031 220.394531 82.847656 215.414062 80.738281 C 211.019531 77.472656 207.765625 83.984375 204.132812 84.332031 C 200.660156 80.402344 207.300781 78.515625 209.132812 76.449219 C 209.230469 74.902344 205.257812 75.984375 206.453125 74.640625 C 207.488281 72.785156 214.519531 72.648438 211.230469 69.863281 C 206.265625 68.164062 199.878906 68.585938 195.117188 70.792969 C 192.121094 71.761719 191.242188 78.539062 188.65625 78.253906 C 187.445312 75.234375 189.054688 69.289062 184.894531 68.417969 Z M 208.332031 134.601562 C 212.109375 133.96875 208.414062 140.339844 206.601562 140.25 C 206.753906 137.957031 201.132812 138.175781 204.621094 136.179688 C 205.753906 135.449219 207.015625 134.894531 208.332031 134.601562 Z M 208.332031 134.601562 "/>
</g>
</svg>
