<?xml version="1.0" encoding="UTF-8"?>
<svg xmlns="http://www.w3.org/2000/svg" xmlns:xlink="http://www.w3.org/1999/xlink" viewBox="0 0 1000 501" version="1.1">
<g id="surface319">
<path style=" stroke:none;fill-rule:evenodd;fill:rgb(0%,14.117432%,49.01886%);fill-opacity:1;" d="M 0 500 L 0 0 L 1000 0 L 1000 500 Z M 0 500 "/>
<path style=" stroke:none;fill-rule:evenodd;fill:rgb(99.998474%,99.998474%,99.998474%);fill-opacity:1;" d="M 0 0 L 0 27.949219 L 444.097656 250 L 500 250 L 500 222.050781 L 55.902344 0 Z M 500 0 L 500 27.949219 L 55.902344 250 L 0 250 L 0 222.046875 L 444.097656 0 Z M 500 0 "/>
<path style=" stroke:none;fill-rule:evenodd;fill:rgb(81.175232%,7.843018%,16.862488%);fill-opacity:1;" d="M 0 250 L 166.664062 166.664062 L 203.933594 166.664062 L 37.265625 250 Z M 0 0 L 166.664062 83.335938 L 129.398438 83.335938 L 0 18.632812 Z M 296.066406 83.335938 L 462.734375 0 L 500 0 L 333.335938 83.335938 Z M 500 250 L 333.335938 166.664062 L 370.601562 166.664062 L 500 231.367188 Z M 500 250 "/>
<path style="fill-rule:nonzero;fill:rgb(99.998474%,99.998474%,99.998474%);fill-opacity:1;stroke-width:1;stroke-linecap:square;stroke-linejoin:miter;stroke:rgb(99.998474%,99.998474%,99.998474%);stroke-opacity:1;stroke-miterlimit:3.239307;" d="M 208.335938 0 L 208.335938 250 L 291.664062 250 L 291.664062 0 Z M 208.335938 0 "/>
<path style="fill-rule:nonzero;fill:rgb(99.998474%,99.998474%,99.998474%);fill-opacity:1;stroke-width:1;stroke-linecap:square;stroke-linejoin:miter;stroke:rgb(99.998474%,99.998474%,99.998474%);stroke-opacity:1;stroke-miterlimit:3.239307;" d="M 0 83.335938 L 0 166.664062 L 500 166.664062 L 500 83.335938 Z M 0 83.335938 "/>
<path style="fill-rule:nonzero;fill:rgb(81.175232%,7.843018%,16.862488%);fill-opacity:1;stroke-width:1;stroke-linecap:square;stroke-linejoin:miter;stroke:rgb(81.175232%,7.843018%,16.862488%);stroke-opacity:1;stroke-miterlimit:3.239307;" d="M 0 100 L 0 150 L 500 150 L 500 100 Z M 0 100 "/>
<path style="fill-rule:nonzero;fill:rgb(81.175232%,7.843018%,16.862488%);fill-opacity:1;stroke-width:1;stroke-linecap:square;stroke-linejoin:miter;stroke:rgb(81.175232%,7.843018%,16.862488%);stroke-opacity:1;stroke-miterlimit:3.239307;" d="M 225 0 L 225 250 L 275 250 L 275 0 Z M 225 0 "/>
<path style=" stroke:none;fill-rule:evenodd;fill:rgb(99.998474%,99.998474%,99.998474%);fill-opacity:1;" d="M 761.199219 43.75 L 749.609375 79.410156 L 768.628906 85.597656 Z M 761.199219 43.75 "/>
<path style=" stroke:none;fill-rule:evenodd;fill:rgb(99.998474%,99.998474%,99.998474%);fill-opacity:1;" d="M 761.199219 43.75 L 772.789062 79.410156 L 753.769531 85.597656 Z M 761.199219 43.75 "/>
<path style=" stroke:none;fill-rule:evenodd;fill:rgb(99.998474%,99.998474%,99.998474%);fill-opacity:1;" d="M 796.859375 69.660156 L 759.359375 69.660156 L 759.359375 89.664062 Z M 796.859375 69.660156 "/>
<path style=" stroke:none;fill-rule:evenodd;fill:rgb(99.998474%,99.998474%,99.998474%);fill-opacity:1;" d="M 796.859375 69.660156 L 766.527344 91.707031 L 754.769531 75.519531 Z M 796.859375 69.660156 "/>
<path style=" stroke:none;fill-rule:evenodd;fill:rgb(99.998474%,99.998474%,99.998474%);fill-opacity:1;" d="M 783.242188 111.585938 L 771.65625 75.917969 L 752.628906 82.105469 Z M 783.242188 111.585938 "/>
<path style=" stroke:none;fill-rule:evenodd;fill:rgb(99.998474%,99.998474%,99.998474%);fill-opacity:1;" d="M 783.242188 111.585938 L 752.90625 89.542969 L 764.65625 73.363281 Z M 783.242188 111.585938 "/>
<path style=" stroke:none;fill-rule:evenodd;fill:rgb(99.998474%,99.998474%,99.998474%);fill-opacity:1;" d="M 739.152344 111.585938 L 769.488281 89.542969 L 757.738281 73.363281 Z M 739.152344 111.585938 "/>
<path style=" stroke:none;fill-rule:evenodd;fill:rgb(99.998474%,99.998474%,99.998474%);fill-opacity:1;" d="M 739.152344 111.585938 L 750.738281 75.917969 L 769.765625 82.105469 Z M 739.152344 111.585938 "/>
<path style=" stroke:none;fill-rule:evenodd;fill:rgb(99.998474%,99.998474%,99.998474%);fill-opacity:1;" d="M 725.539062 69.660156 L 755.867188 91.707031 L 767.628906 75.519531 Z M 725.539062 69.660156 "/>
<path style=" stroke:none;fill-rule:evenodd;fill:rgb(99.998474%,99.998474%,99.998474%);fill-opacity:1;" d="M 725.539062 69.660156 L 763.039062 69.660156 L 763.039062 89.664062 Z M 725.539062 69.660156 "/>
<path style=" stroke:none;fill-rule:evenodd;fill:rgb(99.998474%,99.998474%,99.998474%);fill-opacity:1;" d="M 845.597656 61.683594 L 820.5 89.558594 L 835.367188 102.9375 Z M 845.597656 61.683594 "/>
<path style=" stroke:none;fill-rule:evenodd;fill:rgb(99.998474%,99.998474%,99.998474%);fill-opacity:1;" d="M 845.597656 61.683594 L 841.675781 98.984375 L 821.785156 96.890625 Z M 845.597656 61.683594 "/>
<path style=" stroke:none;fill-rule:evenodd;fill:rgb(99.998474%,99.998474%,99.998474%);fill-opacity:1;" d="M 867.636719 99.867188 L 833.382812 84.609375 L 825.242188 102.890625 Z M 867.636719 99.867188 "/>
<path style=" stroke:none;fill-rule:evenodd;fill:rgb(99.998474%,99.998474%,99.998474%);fill-opacity:1;" d="M 867.636719 99.867188 L 830.957031 107.667969 L 826.796875 88.101562 Z M 867.636719 99.867188 "/>
<path style=" stroke:none;fill-rule:evenodd;fill:rgb(99.998474%,99.998474%,99.998474%);fill-opacity:1;" d="M 838.144531 132.625 L 842.058594 95.335938 L 822.167969 93.246094 Z M 838.144531 132.625 "/>
<path style=" stroke:none;fill-rule:evenodd;fill:rgb(99.998474%,99.998474%,99.998474%);fill-opacity:1;" d="M 838.144531 132.625 L 819.394531 100.152344 L 836.710938 90.152344 Z M 838.144531 132.625 "/>
<path style=" stroke:none;fill-rule:evenodd;fill:rgb(99.998474%,99.998474%,99.998474%);fill-opacity:1;" d="M 797.867188 114.699219 L 834.546875 106.898438 L 830.386719 87.335938 Z M 797.867188 114.699219 "/>
<path style=" stroke:none;fill-rule:evenodd;fill:rgb(99.998474%,99.998474%,99.998474%);fill-opacity:1;" d="M 797.867188 114.699219 L 822.957031 86.832031 L 837.824219 100.210938 Z M 797.867188 114.699219 "/>
<path style=" stroke:none;fill-rule:evenodd;fill:rgb(99.998474%,99.998474%,99.998474%);fill-opacity:1;" d="M 802.476562 70.859375 L 821.226562 103.328125 L 838.542969 93.328125 Z M 802.476562 70.859375 "/>
<path style=" stroke:none;fill-rule:evenodd;fill:rgb(99.998474%,99.998474%,99.998474%);fill-opacity:1;" d="M 802.476562 70.859375 L 836.734375 86.109375 L 828.597656 104.378906 Z M 802.476562 70.859375 "/>
<path style=" stroke:none;fill-rule:evenodd;fill:rgb(99.998474%,99.998474%,99.998474%);fill-opacity:1;" d="M 915.398438 112.402344 L 881.144531 127.660156 L 889.273438 145.929688 Z M 915.398438 112.402344 "/>
<path style=" stroke:none;fill-rule:evenodd;fill:rgb(99.998474%,99.998474%,99.998474%);fill-opacity:1;" d="M 915.398438 112.402344 L 896.648438 144.882812 L 879.328125 134.878906 Z M 915.398438 112.402344 "/>
<path style=" stroke:none;fill-rule:evenodd;fill:rgb(99.998474%,99.998474%,99.998474%);fill-opacity:1;" d="M 920.011719 156.25 L 894.914062 128.378906 L 880.054688 141.765625 Z M 920.011719 156.25 "/>
<path style=" stroke:none;fill-rule:evenodd;fill:rgb(99.998474%,99.998474%,99.998474%);fill-opacity:1;" d="M 920.011719 156.25 L 883.324219 148.453125 L 887.484375 128.890625 Z M 920.011719 156.25 "/>
<path style=" stroke:none;fill-rule:evenodd;fill:rgb(99.998474%,99.998474%,99.998474%);fill-opacity:1;" d="M 879.734375 174.175781 L 898.484375 141.699219 L 881.167969 131.707031 Z M 879.734375 174.175781 "/>
<path style=" stroke:none;fill-rule:evenodd;fill:rgb(99.998474%,99.998474%,99.998474%);fill-opacity:1;" d="M 879.734375 174.175781 L 875.816406 136.882812 L 895.703125 134.789062 Z M 879.734375 174.175781 "/>
<path style=" stroke:none;fill-rule:evenodd;fill:rgb(99.998474%,99.998474%,99.998474%);fill-opacity:1;" d="M 850.234375 141.414062 L 886.921875 149.210938 L 891.082031 129.652344 Z M 850.234375 141.414062 "/>
<path style=" stroke:none;fill-rule:evenodd;fill:rgb(99.998474%,99.998474%,99.998474%);fill-opacity:1;" d="M 850.234375 141.414062 L 884.496094 126.164062 L 892.628906 144.433594 Z M 850.234375 141.414062 "/>
<path style=" stroke:none;fill-rule:evenodd;fill:rgb(99.998474%,99.998474%,99.998474%);fill-opacity:1;" d="M 872.28125 103.238281 L 876.195312 140.535156 L 896.09375 138.445312 Z M 872.28125 103.238281 "/>
<path style=" stroke:none;fill-rule:evenodd;fill:rgb(99.998474%,99.998474%,99.998474%);fill-opacity:1;" d="M 872.28125 103.238281 L 897.371094 131.113281 L 882.511719 144.488281 Z M 872.28125 103.238281 "/>
<path style=" stroke:none;fill-rule:evenodd;fill:rgb(99.998474%,99.998474%,99.998474%);fill-opacity:1;" d="M 958.546875 187.125 L 921.046875 187.125 L 921.046875 207.128906 Z M 958.546875 187.125 "/>
<path style=" stroke:none;fill-rule:evenodd;fill:rgb(99.998474%,99.998474%,99.998474%);fill-opacity:1;" d="M 958.546875 187.125 L 928.207031 209.171875 L 916.449219 192.992188 Z M 958.546875 187.125 "/>
<path style=" stroke:none;fill-rule:evenodd;fill:rgb(99.998474%,99.998474%,99.998474%);fill-opacity:1;" d="M 944.921875 229.050781 L 933.332031 193.390625 L 914.304688 199.570312 Z M 944.921875 229.050781 "/>
<path style=" stroke:none;fill-rule:evenodd;fill:rgb(99.998474%,99.998474%,99.998474%);fill-opacity:1;" d="M 944.921875 229.050781 L 914.582031 207.015625 L 926.335938 190.835938 Z M 944.921875 229.050781 "/>
<path style=" stroke:none;fill-rule:evenodd;fill:rgb(99.998474%,99.998474%,99.998474%);fill-opacity:1;" d="M 900.835938 229.050781 L 931.175781 207.015625 L 919.417969 190.835938 Z M 900.835938 229.050781 "/>
<path style=" stroke:none;fill-rule:evenodd;fill:rgb(99.998474%,99.998474%,99.998474%);fill-opacity:1;" d="M 900.835938 229.050781 L 912.425781 193.390625 L 931.445312 199.570312 Z M 900.835938 229.050781 "/>
<path style=" stroke:none;fill-rule:evenodd;fill:rgb(99.998474%,99.998474%,99.998474%);fill-opacity:1;" d="M 887.214844 187.125 L 917.554688 209.171875 L 929.304688 192.992188 Z M 887.214844 187.125 "/>
<path style=" stroke:none;fill-rule:evenodd;fill:rgb(99.998474%,99.998474%,99.998474%);fill-opacity:1;" d="M 887.214844 187.125 L 924.714844 187.125 L 924.714844 207.128906 Z M 887.214844 187.125 "/>
<path style=" stroke:none;fill-rule:evenodd;fill:rgb(99.998474%,99.998474%,99.998474%);fill-opacity:1;" d="M 922.875 161.214844 L 911.289062 196.882812 L 930.316406 203.058594 Z M 922.875 161.214844 "/>
<path style=" stroke:none;fill-rule:evenodd;fill:rgb(99.998474%,99.998474%,99.998474%);fill-opacity:1;" d="M 922.875 161.214844 L 934.464844 196.882812 L 915.445312 203.058594 Z M 922.875 161.214844 "/>
<path style=" stroke:none;fill-rule:evenodd;fill:rgb(99.998474%,99.998474%,99.998474%);fill-opacity:1;" d="M 967.5625 272.941406 L 933.300781 257.691406 L 925.171875 275.960938 Z M 967.5625 272.941406 "/>
<path style=" stroke:none;fill-rule:evenodd;fill:rgb(99.998474%,99.998474%,99.998474%);fill-opacity:1;" d="M 967.5625 272.941406 L 930.882812 280.738281 L 926.726562 261.171875 Z M 967.5625 272.941406 "/>
<path style=" stroke:none;fill-rule:evenodd;fill:rgb(99.998474%,99.998474%,99.998474%);fill-opacity:1;" d="M 938.0625 305.695312 L 941.984375 268.410156 L 922.09375 266.316406 Z M 938.0625 305.695312 "/>
<path style=" stroke:none;fill-rule:evenodd;fill:rgb(99.998474%,99.998474%,99.998474%);fill-opacity:1;" d="M 938.0625 305.695312 L 919.3125 273.226562 L 936.636719 263.226562 Z M 938.0625 305.695312 "/>
<path style=" stroke:none;fill-rule:evenodd;fill:rgb(99.998474%,99.998474%,99.998474%);fill-opacity:1;" d="M 897.792969 287.769531 L 934.472656 279.972656 L 930.316406 260.410156 Z M 897.792969 287.769531 "/>
<path style=" stroke:none;fill-rule:evenodd;fill:rgb(99.998474%,99.998474%,99.998474%);fill-opacity:1;" d="M 897.792969 287.769531 L 922.882812 259.902344 L 937.742188 273.285156 Z M 897.792969 287.769531 "/>
<path style=" stroke:none;fill-rule:evenodd;fill:rgb(99.998474%,99.998474%,99.998474%);fill-opacity:1;" d="M 902.398438 243.929688 L 921.148438 276.398438 L 938.46875 266.40625 Z M 902.398438 243.929688 "/>
<path style=" stroke:none;fill-rule:evenodd;fill:rgb(99.998474%,99.998474%,99.998474%);fill-opacity:1;" d="M 902.398438 243.929688 L 936.652344 259.179688 L 928.523438 277.449219 Z M 902.398438 243.929688 "/>
<path style=" stroke:none;fill-rule:evenodd;fill:rgb(99.998474%,99.998474%,99.998474%);fill-opacity:1;" d="M 945.515625 234.765625 L 920.425781 262.628906 L 935.289062 276.007812 Z M 945.515625 234.765625 "/>
<path style=" stroke:none;fill-rule:evenodd;fill:rgb(99.998474%,99.998474%,99.998474%);fill-opacity:1;" d="M 945.515625 234.765625 L 941.601562 272.054688 L 921.710938 269.960938 Z M 945.515625 234.765625 "/>
<path style=" stroke:none;fill-rule:evenodd;fill:rgb(99.998474%,99.998474%,99.998474%);fill-opacity:1;" d="M 940.902344 354.996094 L 915.804688 327.132812 L 900.945312 340.511719 Z M 940.902344 354.996094 "/>
<path style=" stroke:none;fill-rule:evenodd;fill:rgb(99.998474%,99.998474%,99.998474%);fill-opacity:1;" d="M 940.902344 354.996094 L 904.214844 347.199219 L 908.375 327.636719 Z M 940.902344 354.996094 "/>
<path style=" stroke:none;fill-rule:evenodd;fill:rgb(99.998474%,99.998474%,99.998474%);fill-opacity:1;" d="M 900.628906 372.933594 L 919.378906 340.453125 L 902.058594 330.453125 Z M 900.628906 372.933594 "/>
<path style=" stroke:none;fill-rule:evenodd;fill:rgb(99.998474%,99.998474%,99.998474%);fill-opacity:1;" d="M 900.628906 372.933594 L 896.703125 335.636719 L 916.59375 333.546875 Z M 900.628906 372.933594 "/>
<path style=" stroke:none;fill-rule:evenodd;fill:rgb(99.998474%,99.998474%,99.998474%);fill-opacity:1;" d="M 871.128906 340.167969 L 907.804688 347.964844 L 911.960938 328.402344 Z M 871.128906 340.167969 "/>
<path style=" stroke:none;fill-rule:evenodd;fill:rgb(99.998474%,99.998474%,99.998474%);fill-opacity:1;" d="M 871.128906 340.167969 L 905.386719 324.917969 L 913.515625 343.1875 Z M 871.128906 340.167969 "/>
<path style=" stroke:none;fill-rule:evenodd;fill:rgb(99.998474%,99.998474%,99.998474%);fill-opacity:1;" d="M 893.171875 301.992188 L 897.085938 339.289062 L 916.976562 337.199219 Z M 893.171875 301.992188 "/>
<path style=" stroke:none;fill-rule:evenodd;fill:rgb(99.998474%,99.998474%,99.998474%);fill-opacity:1;" d="M 893.171875 301.992188 L 918.261719 329.859375 L 903.402344 343.246094 Z M 893.171875 301.992188 "/>
<path style=" stroke:none;fill-rule:evenodd;fill:rgb(99.998474%,99.998474%,99.998474%);fill-opacity:1;" d="M 936.289062 311.15625 L 902.035156 326.410156 L 910.164062 344.675781 Z M 936.289062 311.15625 "/>
<path style=" stroke:none;fill-rule:evenodd;fill:rgb(99.998474%,99.998474%,99.998474%);fill-opacity:1;" d="M 936.289062 311.15625 L 917.539062 343.636719 L 900.21875 333.636719 Z M 936.289062 311.15625 "/>
<path style=" stroke:none;fill-rule:evenodd;fill:rgb(99.998474%,99.998474%,99.998474%);fill-opacity:1;" d="M 883.164062 419.125 L 871.574219 383.457031 L 852.554688 389.640625 Z M 883.164062 419.125 "/>
<path style=" stroke:none;fill-rule:evenodd;fill:rgb(99.998474%,99.998474%,99.998474%);fill-opacity:1;" d="M 883.164062 419.125 L 852.824219 397.078125 L 864.582031 380.898438 Z M 883.164062 419.125 "/>
<path style=" stroke:none;fill-rule:evenodd;fill:rgb(99.998474%,99.998474%,99.998474%);fill-opacity:1;" d="M 839.078125 419.125 L 869.417969 397.078125 L 857.660156 380.898438 Z M 839.078125 419.125 "/>
<path style=" stroke:none;fill-rule:evenodd;fill:rgb(99.998474%,99.998474%,99.998474%);fill-opacity:1;" d="M 839.078125 419.125 L 850.667969 383.457031 L 869.683594 389.640625 Z M 839.078125 419.125 "/>
<path style=" stroke:none;fill-rule:evenodd;fill:rgb(99.998474%,99.998474%,99.998474%);fill-opacity:1;" d="M 825.457031 377.199219 L 855.792969 399.234375 L 867.554688 383.054688 Z M 825.457031 377.199219 "/>
<path style=" stroke:none;fill-rule:evenodd;fill:rgb(99.998474%,99.998474%,99.998474%);fill-opacity:1;" d="M 825.457031 377.199219 L 862.957031 377.199219 L 862.957031 397.191406 Z M 825.457031 377.199219 "/>
<path style=" stroke:none;fill-rule:evenodd;fill:rgb(99.998474%,99.998474%,99.998474%);fill-opacity:1;" d="M 861.125 351.285156 L 849.535156 386.945312 L 868.554688 393.132812 Z M 861.125 351.285156 "/>
<path style=" stroke:none;fill-rule:evenodd;fill:rgb(99.998474%,99.998474%,99.998474%);fill-opacity:1;" d="M 861.125 351.285156 L 872.710938 386.945312 L 853.6875 393.132812 Z M 861.125 351.285156 "/>
<path style=" stroke:none;fill-rule:evenodd;fill:rgb(99.998474%,99.998474%,99.998474%);fill-opacity:1;" d="M 896.785156 377.199219 L 859.285156 377.199219 L 859.285156 397.191406 Z M 896.785156 377.199219 "/>
<path style=" stroke:none;fill-rule:evenodd;fill:rgb(99.998474%,99.998474%,99.998474%);fill-opacity:1;" d="M 896.785156 377.199219 L 866.449219 399.234375 L 854.695312 383.054688 Z M 896.785156 377.199219 "/>
<path style=" stroke:none;fill-rule:evenodd;fill:rgb(99.998474%,99.998474%,99.998474%);fill-opacity:1;" d="M 804.335938 454.214844 L 808.261719 416.917969 L 788.371094 414.828125 Z M 804.335938 454.214844 "/>
<path style=" stroke:none;fill-rule:evenodd;fill:rgb(99.998474%,99.998474%,99.998474%);fill-opacity:1;" d="M 804.335938 454.214844 L 785.585938 421.738281 L 802.914062 411.742188 Z M 804.335938 454.214844 "/>
<path style=" stroke:none;fill-rule:evenodd;fill:rgb(99.998474%,99.998474%,99.998474%);fill-opacity:1;" d="M 764.070312 436.289062 L 800.746094 428.492188 L 796.589844 408.925781 Z M 764.070312 436.289062 "/>
<path style=" stroke:none;fill-rule:evenodd;fill:rgb(99.998474%,99.998474%,99.998474%);fill-opacity:1;" d="M 764.070312 436.289062 L 789.160156 408.414062 L 804.019531 421.800781 Z M 764.070312 436.289062 "/>
<path style=" stroke:none;fill-rule:evenodd;fill:rgb(99.998474%,99.998474%,99.998474%);fill-opacity:1;" d="M 768.675781 392.441406 L 787.425781 424.917969 L 804.742188 414.917969 Z M 768.675781 392.441406 "/>
<path style=" stroke:none;fill-rule:evenodd;fill:rgb(99.998474%,99.998474%,99.998474%);fill-opacity:1;" d="M 768.675781 392.441406 L 802.929688 407.699219 L 794.800781 425.96875 Z M 768.675781 392.441406 "/>
<path style=" stroke:none;fill-rule:evenodd;fill:rgb(99.998474%,99.998474%,99.998474%);fill-opacity:1;" d="M 811.792969 383.277344 L 786.703125 411.148438 L 801.5625 424.527344 Z M 811.792969 383.277344 "/>
<path style=" stroke:none;fill-rule:evenodd;fill:rgb(99.998474%,99.998474%,99.998474%);fill-opacity:1;" d="M 811.792969 383.277344 L 807.878906 420.574219 L 787.988281 418.480469 Z M 811.792969 383.277344 "/>
<path style=" stroke:none;fill-rule:evenodd;fill:rgb(99.998474%,99.998474%,99.998474%);fill-opacity:1;" d="M 833.835938 421.453125 L 799.578125 406.203125 L 791.449219 424.472656 Z M 833.835938 421.453125 "/>
<path style=" stroke:none;fill-rule:evenodd;fill:rgb(99.998474%,99.998474%,99.998474%);fill-opacity:1;" d="M 833.835938 421.453125 L 797.160156 429.246094 L 793.003906 409.691406 Z M 833.835938 421.453125 "/>
<path style=" stroke:none;fill-rule:evenodd;fill:rgb(99.998474%,99.998474%,99.998474%);fill-opacity:1;" d="M 718.058594 454.214844 L 736.808594 421.738281 L 719.484375 411.742188 Z M 718.058594 454.214844 "/>
<path style=" stroke:none;fill-rule:evenodd;fill:rgb(99.998474%,99.998474%,99.998474%);fill-opacity:1;" d="M 718.058594 454.214844 L 714.136719 416.917969 L 734.023438 414.828125 Z M 718.058594 454.214844 "/>
<path style=" stroke:none;fill-rule:evenodd;fill:rgb(99.998474%,99.998474%,99.998474%);fill-opacity:1;" d="M 688.558594 421.453125 L 725.234375 429.246094 L 729.394531 409.691406 Z M 688.558594 421.453125 "/>
<path style=" stroke:none;fill-rule:evenodd;fill:rgb(99.998474%,99.998474%,99.998474%);fill-opacity:1;" d="M 688.558594 421.453125 L 722.820312 406.203125 L 730.949219 424.472656 Z M 688.558594 421.453125 "/>
<path style=" stroke:none;fill-rule:evenodd;fill:rgb(99.998474%,99.998474%,99.998474%);fill-opacity:1;" d="M 710.605469 383.277344 L 714.519531 420.574219 L 734.410156 418.480469 Z M 710.605469 383.277344 "/>
<path style=" stroke:none;fill-rule:evenodd;fill:rgb(99.998474%,99.998474%,99.998474%);fill-opacity:1;" d="M 710.605469 383.277344 L 735.695312 411.148438 L 720.832031 424.527344 Z M 710.605469 383.277344 "/>
<path style=" stroke:none;fill-rule:evenodd;fill:rgb(99.998474%,99.998474%,99.998474%);fill-opacity:1;" d="M 753.71875 392.441406 L 719.464844 407.699219 L 727.597656 425.96875 Z M 753.71875 392.441406 "/>
<path style=" stroke:none;fill-rule:evenodd;fill:rgb(99.998474%,99.998474%,99.998474%);fill-opacity:1;" d="M 753.71875 392.441406 L 734.96875 424.917969 L 717.652344 414.917969 Z M 753.71875 392.441406 "/>
<path style=" stroke:none;fill-rule:evenodd;fill:rgb(99.998474%,99.998474%,99.998474%);fill-opacity:1;" d="M 758.324219 436.289062 L 733.234375 408.414062 L 718.375 421.800781 Z M 758.324219 436.289062 "/>
<path style=" stroke:none;fill-rule:evenodd;fill:rgb(99.998474%,99.998474%,99.998474%);fill-opacity:1;" d="M 758.324219 436.289062 L 721.648438 428.492188 L 725.804688 408.925781 Z M 758.324219 436.289062 "/>
<path style=" stroke:none;fill-rule:evenodd;fill:rgb(99.998474%,99.998474%,99.998474%);fill-opacity:1;" d="M 639.234375 419.125 L 669.574219 397.078125 L 657.8125 380.898438 Z M 639.234375 419.125 "/>
<path style=" stroke:none;fill-rule:evenodd;fill:rgb(99.998474%,99.998474%,99.998474%);fill-opacity:1;" d="M 639.234375 419.125 L 650.824219 383.457031 L 669.839844 389.640625 Z M 639.234375 419.125 "/>
<path style=" stroke:none;fill-rule:evenodd;fill:rgb(99.998474%,99.998474%,99.998474%);fill-opacity:1;" d="M 625.609375 377.199219 L 655.949219 399.234375 L 667.699219 383.054688 Z M 625.609375 377.199219 "/>
<path style=" stroke:none;fill-rule:evenodd;fill:rgb(99.998474%,99.998474%,99.998474%);fill-opacity:1;" d="M 625.609375 377.199219 L 663.109375 377.199219 L 663.109375 397.191406 Z M 625.609375 377.199219 "/>
<path style=" stroke:none;fill-rule:evenodd;fill:rgb(99.998474%,99.998474%,99.998474%);fill-opacity:1;" d="M 661.269531 351.285156 L 649.683594 386.945312 L 668.707031 393.132812 Z M 661.269531 351.285156 "/>
<path style=" stroke:none;fill-rule:evenodd;fill:rgb(99.998474%,99.998474%,99.998474%);fill-opacity:1;" d="M 661.269531 351.285156 L 672.859375 386.945312 L 653.839844 393.132812 Z M 661.269531 351.285156 "/>
<path style=" stroke:none;fill-rule:evenodd;fill:rgb(99.998474%,99.998474%,99.998474%);fill-opacity:1;" d="M 696.941406 377.199219 L 659.441406 377.199219 L 659.441406 397.191406 Z M 696.941406 377.199219 "/>
<path style=" stroke:none;fill-rule:evenodd;fill:rgb(99.998474%,99.998474%,99.998474%);fill-opacity:1;" d="M 696.941406 377.199219 L 666.601562 399.234375 L 654.839844 383.054688 Z M 696.941406 377.199219 "/>
<path style=" stroke:none;fill-rule:evenodd;fill:rgb(99.998474%,99.998474%,99.998474%);fill-opacity:1;" d="M 683.316406 419.125 L 671.730469 383.457031 L 652.710938 389.640625 Z M 683.316406 419.125 "/>
<path style=" stroke:none;fill-rule:evenodd;fill:rgb(99.998474%,99.998474%,99.998474%);fill-opacity:1;" d="M 683.316406 419.125 L 652.980469 397.078125 L 664.738281 380.898438 Z M 683.316406 419.125 "/>
<path style=" stroke:none;fill-rule:evenodd;fill:rgb(99.998474%,99.998474%,99.998474%);fill-opacity:1;" d="M 581.492188 354.996094 L 618.179688 347.199219 L 614.019531 327.636719 Z M 581.492188 354.996094 "/>
<path style=" stroke:none;fill-rule:evenodd;fill:rgb(99.998474%,99.998474%,99.998474%);fill-opacity:1;" d="M 581.492188 354.996094 L 606.589844 327.132812 L 621.453125 340.511719 Z M 581.492188 354.996094 "/>
<path style=" stroke:none;fill-rule:evenodd;fill:rgb(99.998474%,99.998474%,99.998474%);fill-opacity:1;" d="M 586.109375 311.15625 L 604.859375 343.636719 L 622.175781 333.636719 Z M 586.109375 311.15625 "/>
<path style=" stroke:none;fill-rule:evenodd;fill:rgb(99.998474%,99.998474%,99.998474%);fill-opacity:1;" d="M 586.109375 311.15625 L 620.359375 326.410156 L 612.230469 344.675781 Z M 586.109375 311.15625 "/>
<path style=" stroke:none;fill-rule:evenodd;fill:rgb(99.998474%,99.998474%,99.998474%);fill-opacity:1;" d="M 629.222656 301.992188 L 604.132812 329.859375 L 618.992188 343.246094 Z M 629.222656 301.992188 "/>
<path style=" stroke:none;fill-rule:evenodd;fill:rgb(99.998474%,99.998474%,99.998474%);fill-opacity:1;" d="M 629.222656 301.992188 L 625.308594 339.289062 L 605.421875 337.199219 Z M 629.222656 301.992188 "/>
<path style=" stroke:none;fill-rule:evenodd;fill:rgb(99.998474%,99.998474%,99.998474%);fill-opacity:1;" d="M 651.269531 340.167969 L 617.007812 324.917969 L 608.878906 343.1875 Z M 651.269531 340.167969 "/>
<path style=" stroke:none;fill-rule:evenodd;fill:rgb(99.998474%,99.998474%,99.998474%);fill-opacity:1;" d="M 651.269531 340.167969 L 614.589844 347.964844 L 610.433594 328.402344 Z M 651.269531 340.167969 "/>
<path style=" stroke:none;fill-rule:evenodd;fill:rgb(99.998474%,99.998474%,99.998474%);fill-opacity:1;" d="M 621.769531 372.933594 L 625.691406 335.636719 L 605.800781 333.546875 Z M 621.769531 372.933594 "/>
<path style=" stroke:none;fill-rule:evenodd;fill:rgb(99.998474%,99.998474%,99.998474%);fill-opacity:1;" d="M 621.769531 372.933594 L 603.019531 340.453125 L 620.335938 330.453125 Z M 621.769531 372.933594 "/>
<path style=" stroke:none;fill-rule:evenodd;fill:rgb(99.998474%,99.998474%,99.998474%);fill-opacity:1;" d="M 554.832031 272.941406 L 591.511719 280.738281 L 595.671875 261.171875 Z M 554.832031 272.941406 "/>
<path style=" stroke:none;fill-rule:evenodd;fill:rgb(99.998474%,99.998474%,99.998474%);fill-opacity:1;" d="M 554.832031 272.941406 L 589.097656 257.691406 L 597.226562 275.960938 Z M 554.832031 272.941406 "/>
<path style=" stroke:none;fill-rule:evenodd;fill:rgb(99.998474%,99.998474%,99.998474%);fill-opacity:1;" d="M 576.878906 234.765625 L 580.792969 272.054688 L 600.683594 269.960938 Z M 576.878906 234.765625 "/>
<path style=" stroke:none;fill-rule:evenodd;fill:rgb(99.998474%,99.998474%,99.998474%);fill-opacity:1;" d="M 576.878906 234.765625 L 601.96875 262.628906 L 587.109375 276.007812 Z M 576.878906 234.765625 "/>
<path style=" stroke:none;fill-rule:evenodd;fill:rgb(99.998474%,99.998474%,99.998474%);fill-opacity:1;" d="M 619.996094 243.929688 L 585.742188 259.179688 L 593.871094 277.449219 Z M 619.996094 243.929688 "/>
<path style=" stroke:none;fill-rule:evenodd;fill:rgb(99.998474%,99.998474%,99.998474%);fill-opacity:1;" d="M 619.996094 243.929688 L 601.246094 276.398438 L 583.925781 266.40625 Z M 619.996094 243.929688 "/>
<path style=" stroke:none;fill-rule:evenodd;fill:rgb(99.998474%,99.998474%,99.998474%);fill-opacity:1;" d="M 624.601562 287.769531 L 599.511719 259.902344 L 584.652344 273.285156 Z M 624.601562 287.769531 "/>
<path style=" stroke:none;fill-rule:evenodd;fill:rgb(99.998474%,99.998474%,99.998474%);fill-opacity:1;" d="M 624.601562 287.769531 L 587.921875 279.972656 L 592.082031 260.410156 Z M 624.601562 287.769531 "/>
<path style=" stroke:none;fill-rule:evenodd;fill:rgb(99.998474%,99.998474%,99.998474%);fill-opacity:1;" d="M 584.332031 305.695312 L 603.082031 273.226562 L 585.757812 263.226562 Z M 584.332031 305.695312 "/>
<path style=" stroke:none;fill-rule:evenodd;fill:rgb(99.998474%,99.998474%,99.998474%);fill-opacity:1;" d="M 584.332031 305.695312 L 580.414062 268.410156 L 600.300781 266.316406 Z M 584.332031 305.695312 "/>
<path style=" stroke:none;fill-rule:evenodd;fill:rgb(99.998474%,99.998474%,99.998474%);fill-opacity:1;" d="M 563.851562 187.125 L 594.191406 209.171875 L 605.949219 192.992188 Z M 563.851562 187.125 "/>
<path style=" stroke:none;fill-rule:evenodd;fill:rgb(99.998474%,99.998474%,99.998474%);fill-opacity:1;" d="M 563.851562 187.125 L 601.351562 187.125 L 601.351562 207.128906 Z M 563.851562 187.125 "/>
<path style=" stroke:none;fill-rule:evenodd;fill:rgb(99.998474%,99.998474%,99.998474%);fill-opacity:1;" d="M 599.519531 161.214844 L 587.929688 196.882812 L 606.949219 203.058594 Z M 599.519531 161.214844 "/>
<path style=" stroke:none;fill-rule:evenodd;fill:rgb(99.998474%,99.998474%,99.998474%);fill-opacity:1;" d="M 599.519531 161.214844 L 611.109375 196.882812 L 592.082031 203.058594 Z M 599.519531 161.214844 "/>
<path style=" stroke:none;fill-rule:evenodd;fill:rgb(99.998474%,99.998474%,99.998474%);fill-opacity:1;" d="M 635.179688 187.125 L 597.679688 187.125 L 597.679688 207.128906 Z M 635.179688 187.125 "/>
<path style=" stroke:none;fill-rule:evenodd;fill:rgb(99.998474%,99.998474%,99.998474%);fill-opacity:1;" d="M 635.179688 187.125 L 604.839844 209.171875 L 593.089844 192.992188 Z M 635.179688 187.125 "/>
<path style=" stroke:none;fill-rule:evenodd;fill:rgb(99.998474%,99.998474%,99.998474%);fill-opacity:1;" d="M 621.558594 229.050781 L 609.96875 193.390625 L 590.949219 199.570312 Z M 621.558594 229.050781 "/>
<path style=" stroke:none;fill-rule:evenodd;fill:rgb(99.998474%,99.998474%,99.998474%);fill-opacity:1;" d="M 621.558594 229.050781 L 591.21875 207.015625 L 602.980469 190.835938 Z M 621.558594 229.050781 "/>
<path style=" stroke:none;fill-rule:evenodd;fill:rgb(99.998474%,99.998474%,99.998474%);fill-opacity:1;" d="M 577.476562 229.050781 L 607.8125 207.015625 L 596.058594 190.835938 Z M 577.476562 229.050781 "/>
<path style=" stroke:none;fill-rule:evenodd;fill:rgb(99.998474%,99.998474%,99.998474%);fill-opacity:1;" d="M 577.476562 229.050781 L 589.0625 193.390625 L 608.089844 199.570312 Z M 577.476562 229.050781 "/>
<path style=" stroke:none;fill-rule:evenodd;fill:rgb(99.998474%,99.998474%,99.998474%);fill-opacity:1;" d="M 606.996094 112.402344 L 625.746094 144.882812 L 643.066406 134.878906 Z M 606.996094 112.402344 "/>
<path style=" stroke:none;fill-rule:evenodd;fill:rgb(99.998474%,99.998474%,99.998474%);fill-opacity:1;" d="M 606.996094 112.402344 L 641.253906 127.660156 L 633.121094 145.929688 Z M 606.996094 112.402344 "/>
<path style=" stroke:none;fill-rule:evenodd;fill:rgb(99.998474%,99.998474%,99.998474%);fill-opacity:1;" d="M 650.113281 103.238281 L 625.023438 131.113281 L 639.886719 144.488281 Z M 650.113281 103.238281 "/>
<path style=" stroke:none;fill-rule:evenodd;fill:rgb(99.998474%,99.998474%,99.998474%);fill-opacity:1;" d="M 650.113281 103.238281 L 646.199219 140.535156 L 626.300781 138.445312 Z M 650.113281 103.238281 "/>
<path style=" stroke:none;fill-rule:evenodd;fill:rgb(99.998474%,99.998474%,99.998474%);fill-opacity:1;" d="M 672.160156 141.414062 L 637.898438 126.164062 L 629.769531 144.433594 Z M 672.160156 141.414062 "/>
<path style=" stroke:none;fill-rule:evenodd;fill:rgb(99.998474%,99.998474%,99.998474%);fill-opacity:1;" d="M 672.160156 141.414062 L 635.472656 149.210938 L 631.316406 129.652344 Z M 672.160156 141.414062 "/>
<path style=" stroke:none;fill-rule:evenodd;fill:rgb(99.998474%,99.998474%,99.998474%);fill-opacity:1;" d="M 642.660156 174.175781 L 646.582031 136.882812 L 626.691406 134.789062 Z M 642.660156 174.175781 "/>
<path style=" stroke:none;fill-rule:evenodd;fill:rgb(99.998474%,99.998474%,99.998474%);fill-opacity:1;" d="M 642.660156 174.175781 L 623.910156 141.699219 L 641.226562 131.707031 Z M 642.660156 174.175781 "/>
<path style=" stroke:none;fill-rule:evenodd;fill:rgb(99.998474%,99.998474%,99.998474%);fill-opacity:1;" d="M 602.386719 156.25 L 639.070312 148.453125 L 634.914062 128.890625 Z M 602.386719 156.25 "/>
<path style=" stroke:none;fill-rule:evenodd;fill:rgb(99.998474%,99.998474%,99.998474%);fill-opacity:1;" d="M 602.386719 156.25 L 627.480469 128.378906 L 642.339844 141.765625 Z M 602.386719 156.25 "/>
<path style=" stroke:none;fill-rule:evenodd;fill:rgb(99.998474%,99.998474%,99.998474%);fill-opacity:1;" d="M 676.796875 61.683594 L 680.722656 98.984375 L 700.609375 96.890625 Z M 676.796875 61.683594 "/>
<path style=" stroke:none;fill-rule:evenodd;fill:rgb(99.998474%,99.998474%,99.998474%);fill-opacity:1;" d="M 676.796875 61.683594 L 701.894531 89.558594 L 687.027344 102.9375 Z M 676.796875 61.683594 "/>
<path style=" stroke:none;fill-rule:evenodd;fill:rgb(99.998474%,99.998474%,99.998474%);fill-opacity:1;" d="M 719.921875 70.859375 L 685.660156 86.109375 L 693.796875 104.378906 Z M 719.921875 70.859375 "/>
<path style=" stroke:none;fill-rule:evenodd;fill:rgb(99.998474%,99.998474%,99.998474%);fill-opacity:1;" d="M 719.921875 70.859375 L 701.171875 103.328125 L 683.855469 93.328125 Z M 719.921875 70.859375 "/>
<path style=" stroke:none;fill-rule:evenodd;fill:rgb(99.998474%,99.998474%,99.998474%);fill-opacity:1;" d="M 724.527344 114.699219 L 699.4375 86.832031 L 684.570312 100.210938 Z M 724.527344 114.699219 "/>
<path style=" stroke:none;fill-rule:evenodd;fill:rgb(99.998474%,99.998474%,99.998474%);fill-opacity:1;" d="M 724.527344 114.699219 L 687.851562 106.898438 L 692.007812 87.335938 Z M 724.527344 114.699219 "/>
<path style=" stroke:none;fill-rule:evenodd;fill:rgb(99.998474%,99.998474%,99.998474%);fill-opacity:1;" d="M 684.253906 132.625 L 703.003906 100.152344 L 685.683594 90.152344 Z M 684.253906 132.625 "/>
<path style=" stroke:none;fill-rule:evenodd;fill:rgb(99.998474%,99.998474%,99.998474%);fill-opacity:1;" d="M 684.253906 132.625 L 680.335938 95.335938 L 700.226562 93.246094 Z M 684.253906 132.625 "/>
<path style=" stroke:none;fill-rule:evenodd;fill:rgb(99.998474%,99.998474%,99.998474%);fill-opacity:1;" d="M 654.761719 99.867188 L 691.441406 107.667969 L 695.597656 88.101562 Z M 654.761719 99.867188 "/>
<path style=" stroke:none;fill-rule:evenodd;fill:rgb(99.998474%,99.998474%,99.998474%);fill-opacity:1;" d="M 654.761719 99.867188 L 689.015625 84.609375 L 697.152344 102.890625 Z M 654.761719 99.867188 "/>
</g>
</svg>
