<?xml version="1.0" encoding="UTF-8"?>
<svg xmlns="http://www.w3.org/2000/svg" xmlns:xlink="http://www.w3.org/1999/xlink" viewBox="0 0 1000 667" version="1.1">
<defs>
<clipPath id="clip1">
  <path d="M 0 0 L 1000 0 L 1000 666.71875 L 0 666.71875 Z M 0 0 "/>
</clipPath>
</defs>
<g id="surface339">
<g clip-path="url(#clip1)" clip-rule="nonzero">
<path style=" stroke:none;fill-rule:evenodd;fill:rgb(0%,16.862488%,49.803162%);fill-opacity:1;" d="M 0 666.667969 L 0 0 L 1000 0 L 1000 666.667969 Z M 0 666.667969 "/>
</g>
<path style=" stroke:none;fill-rule:evenodd;fill:rgb(97.645569%,90.979004%,7.843018%);fill-opacity:1;" d="M 0 416.667969 L 1000 416.667969 L 1000 500 L 0 500 Z M 0 416.667969 "/>
<path style=" stroke:none;fill-rule:evenodd;fill:rgb(99.998474%,99.998474%,99.998474%);fill-opacity:1;" d="M 222.222656 148.148438 L 199.332031 218.597656 L 234.554688 230.039062 Z M 222.222656 148.148438 "/>
<path style=" stroke:none;fill-rule:evenodd;fill:rgb(99.998474%,99.998474%,99.998474%);fill-opacity:1;" d="M 222.222656 148.148438 L 245.109375 218.597656 L 209.890625 230.039062 Z M 222.222656 148.148438 "/>
<path style=" stroke:none;fill-rule:evenodd;fill:rgb(99.998474%,99.998474%,99.998474%);fill-opacity:1;" d="M 292.671875 199.332031 L 218.597656 199.332031 L 218.597656 236.371094 Z M 292.671875 199.332031 "/>
<path style=" stroke:none;fill-rule:evenodd;fill:rgb(99.998474%,99.998474%,99.998474%);fill-opacity:1;" d="M 292.671875 199.332031 L 232.742188 242.871094 L 210.976562 212.90625 Z M 292.671875 199.332031 "/>
<path style=" stroke:none;fill-rule:evenodd;fill:rgb(99.998474%,99.998474%,99.998474%);fill-opacity:1;" d="M 151.773438 199.332031 L 211.703125 242.871094 L 233.46875 212.90625 Z M 151.773438 199.332031 "/>
<path style=" stroke:none;fill-rule:evenodd;fill:rgb(99.998474%,99.998474%,99.998474%);fill-opacity:1;" d="M 151.773438 199.332031 L 225.847656 199.332031 L 225.847656 236.371094 Z M 151.773438 199.332031 "/>
<path style=" stroke:none;fill-rule:evenodd;fill:rgb(99.998474%,99.998474%,99.998474%);fill-opacity:1;" d="M 265.761719 282.148438 L 242.871094 211.703125 L 207.648438 223.144531 Z M 265.761719 282.148438 "/>
<path style=" stroke:none;fill-rule:evenodd;fill:rgb(99.998474%,99.998474%,99.998474%);fill-opacity:1;" d="M 265.761719 282.148438 L 205.832031 238.613281 L 227.605469 208.648438 Z M 265.761719 282.148438 "/>
<path style=" stroke:none;fill-rule:evenodd;fill:rgb(99.998474%,99.998474%,99.998474%);fill-opacity:1;" d="M 178.683594 282.148438 L 238.613281 238.613281 L 216.839844 208.648438 Z M 178.683594 282.148438 "/>
<path style=" stroke:none;fill-rule:evenodd;fill:rgb(99.998474%,99.998474%,99.998474%);fill-opacity:1;" d="M 178.683594 282.148438 L 201.574219 211.703125 L 236.792969 223.144531 Z M 178.683594 282.148438 "/>
<path style=" stroke:none;fill-rule:evenodd;fill:rgb(99.998474%,99.998474%,99.998474%);fill-opacity:1;" d="M 111.109375 55.554688 L 93.945312 108.394531 L 120.359375 116.976562 Z M 111.109375 55.554688 "/>
<path style=" stroke:none;fill-rule:evenodd;fill:rgb(99.998474%,99.998474%,99.998474%);fill-opacity:1;" d="M 111.109375 55.554688 L 128.277344 108.394531 L 101.859375 116.976562 Z M 111.109375 55.554688 "/>
<path style=" stroke:none;fill-rule:evenodd;fill:rgb(99.998474%,99.998474%,99.998474%);fill-opacity:1;" d="M 163.949219 93.945312 L 108.394531 93.945312 L 108.394531 121.722656 Z M 163.949219 93.945312 "/>
<path style=" stroke:none;fill-rule:evenodd;fill:rgb(99.998474%,99.998474%,99.998474%);fill-opacity:1;" d="M 163.949219 93.945312 L 119 126.601562 L 102.675781 104.125 Z M 163.949219 93.945312 "/>
<path style=" stroke:none;fill-rule:evenodd;fill:rgb(99.998474%,99.998474%,99.998474%);fill-opacity:1;" d="M 58.273438 93.945312 L 103.222656 126.601562 L 119.546875 104.125 Z M 58.273438 93.945312 "/>
<path style=" stroke:none;fill-rule:evenodd;fill:rgb(99.998474%,99.998474%,99.998474%);fill-opacity:1;" d="M 58.273438 93.945312 L 113.828125 93.945312 L 113.828125 121.722656 Z M 58.273438 93.945312 "/>
<path style=" stroke:none;fill-rule:evenodd;fill:rgb(99.998474%,99.998474%,99.998474%);fill-opacity:1;" d="M 143.765625 156.054688 L 126.601562 103.222656 L 100.179688 111.804688 Z M 143.765625 156.054688 "/>
<path style=" stroke:none;fill-rule:evenodd;fill:rgb(99.998474%,99.998474%,99.998474%);fill-opacity:1;" d="M 143.765625 156.054688 L 98.820312 123.398438 L 115.148438 100.929688 Z M 143.765625 156.054688 "/>
<path style=" stroke:none;fill-rule:evenodd;fill:rgb(99.998474%,99.998474%,99.998474%);fill-opacity:1;" d="M 78.457031 156.054688 L 123.398438 123.398438 L 107.074219 100.929688 Z M 78.457031 156.054688 "/>
<path style=" stroke:none;fill-rule:evenodd;fill:rgb(99.998474%,99.998474%,99.998474%);fill-opacity:1;" d="M 78.457031 156.054688 L 95.621094 103.222656 L 122.042969 111.804688 Z M 78.457031 156.054688 "/>
</g>
</svg>
