<?xml version="1.0" encoding="UTF-8"?>
<svg xmlns="http://www.w3.org/2000/svg" xmlns:xlink="http://www.w3.org/1999/xlink" viewBox="0 0 1000 667" version="1.1">
<defs>
<clipPath id="clip1">
  <path d="M 0 0 L 1000 0 L 1000 666.71875 L 0 666.71875 Z M 0 0 "/>
</clipPath>
</defs>
<g id="surface344">
<g clip-path="url(#clip1)" clip-rule="nonzero">
<path style=" stroke:none;fill-rule:evenodd;fill:rgb(99.998474%,99.998474%,99.998474%);fill-opacity:1;" d="M 0 666.667969 L 0 0 L 1000 0 L 1000 666.667969 Z M 0 666.667969 "/>
</g>
<path style=" stroke:none;fill-rule:evenodd;fill:rgb(18.431091%,27.842712%,7.058716%);fill-opacity:1;" d="M 483.109375 553.613281 C 482.910156 553.515625 482.867188 553.476562 482.726562 553.335938 L 482.585938 553.207031 C 482.226562 552.878906 481.628906 552.292969 480.828125 551.382812 C 479.351562 549.703125 477.367188 547.238281 475.617188 545.066406 C 472.15625 540.75 469.296875 537.035156 468.753906 536.332031 L 467.875 535.1875 L 466.996094 536.332031 C 466.457031 537.039062 463.597656 540.753906 460.132812 545.066406 C 458.386719 547.238281 456.402344 549.703125 454.925781 551.382812 C 454.125 552.292969 453.527344 552.878906 453.167969 553.207031 L 453.027344 553.335938 C 452.878906 553.476562 452.835938 553.515625 452.710938 553.582031 L 452.566406 553.589844 L 450.339844 553.375 L 451.417969 552.539062 L 452.414062 553.171875 C 452.367188 553.058594 452.277344 552.859375 452.125 552.636719 C 451.871094 552.273438 451.507812 551.820312 451.089844 551.367188 C 450.191406 550.378906 448.910156 549.195312 447.894531 548.273438 C 445.621094 546.207031 443.332031 544.304688 443.3125 544.28125 L 443.289062 544.265625 L 459.246094 532.53125 L 452.945312 529.589844 L 456.308594 525.804688 L 467.875 530.757812 L 479.441406 525.804688 L 482.808594 529.589844 L 476.507812 532.53125 L 492.464844 544.265625 L 492.453125 544.277344 C 492.421875 544.304688 490.132812 546.207031 487.859375 548.273438 C 486.84375 549.195312 485.5625 550.378906 484.664062 551.367188 C 484.246094 551.816406 483.875 552.269531 483.625 552.632812 C 483.476562 552.859375 483.386719 553.058594 483.351562 553.15625 L 484.335938 552.539062 L 485.410156 553.375 L 483.226562 553.582031 L 483.128906 553.601562 Z M 511.925781 535.8125 C 499.808594 535.8125 491.558594 530.375 491.292969 530.195312 C 501.8125 525.203125 510.925781 522.671875 518.371094 522.671875 L 518.5 522.671875 C 524.789062 522.695312 528.679688 524.585938 530.832031 526.171875 C 532.996094 527.761719 533.945312 529.453125 534.039062 529.621094 L 534.027344 529.628906 C 526.894531 533.742188 519.460938 535.816406 511.925781 535.816406 Z M 423.84375 535.8125 C 416.3125 535.808594 408.875 533.730469 401.742188 529.628906 L 401.730469 529.621094 L 401.734375 529.609375 C 401.734375 529.609375 402.667969 527.832031 404.933594 526.171875 C 407.089844 524.585938 410.980469 522.695312 417.265625 522.671875 L 417.394531 522.671875 C 424.84375 522.671875 433.953125 525.203125 444.476562 530.195312 C 444.121094 530.429688 435.859375 535.8125 423.851562 535.8125 L 423.859375 535.824219 Z M 544.542969 528.574219 C 543.328125 528.574219 542.277344 527.960938 541.9375 527.046875 C 541.605469 526.144531 541.710938 525 542.242188 523.640625 C 543.132812 521.386719 545.1875 519.027344 547.792969 518.816406 C 547.839844 518.816406 547.894531 518.808594 547.949219 518.808594 L 548.300781 518.820312 C 548.859375 518.835938 549.457031 518.972656 550.039062 519.214844 C 550.039062 519.222656 550.234375 521.554688 549.648438 523.898438 C 549.300781 525.265625 548.785156 526.3125 548.0625 527.101562 C 547.191406 528.054688 545.941406 528.585938 544.542969 528.585938 Z M 391.210938 528.574219 C 389.816406 528.574219 388.570312 528.046875 387.691406 527.09375 C 386.96875 526.3125 386.453125 525.265625 386.109375 523.898438 C 385.546875 521.660156 385.703125 519.429688 385.722656 519.210938 C 386.300781 518.964844 386.898438 518.832031 387.457031 518.820312 L 387.582031 518.816406 C 390.371094 518.816406 392.566406 521.242188 393.511719 523.640625 C 394.042969 525 394.144531 526.144531 393.816406 527.046875 C 393.480469 527.945312 392.4375 528.5625 391.214844 528.5625 Z M 487.121094 521.914062 C 499.753906 498 512.878906 495.414062 517.9375 495.414062 C 519.640625 495.421875 520.773438 495.691406 520.980469 495.746094 L 520.992188 495.804688 C 520.992188 495.8125 521.75 501.105469 518.054688 506.824219 C 514.59375 512.191406 506.417969 519.164062 487.128906 521.917969 L 487.117188 521.917969 Z M 448.632812 521.921875 C 429.347656 519.167969 421.167969 512.195312 417.707031 506.832031 C 414.015625 501.105469 414.773438 495.816406 414.777344 495.761719 L 414.785156 495.746094 L 414.800781 495.742188 C 414.804688 495.742188 415.976562 495.425781 417.75 495.414062 C 422.882812 495.414062 436.007812 498 448.640625 521.90625 L 448.648438 521.921875 L 448.621094 521.914062 Z M 526.664062 518.097656 C 522.832031 518.097656 518.515625 517.785156 513.859375 517.164062 L 513.855469 517.160156 L 513.859375 517.15625 C 524.082031 507.253906 533.765625 505.175781 540.09375 505.175781 C 540.585938 505.175781 541.015625 505.1875 541.4375 505.207031 C 546.46875 505.441406 549.84375 506.9375 550.070312 507.042969 C 550.058594 507.15625 549.953125 508.117188 549.410156 509.289062 C 548.851562 510.492188 547.6875 512.261719 545.3125 513.871094 C 541.179688 516.679688 534.90625 518.097656 526.671875 518.097656 L 526.660156 518.109375 Z M 409.097656 518.097656 C 400.863281 518.097656 394.585938 516.679688 390.453125 513.871094 C 388.074219 512.261719 386.914062 510.492188 386.355469 509.289062 C 385.835938 508.164062 385.714844 507.226562 385.699219 507.042969 C 385.914062 506.945312 389.289062 505.445312 394.324219 505.207031 C 394.753906 505.1875 395.183594 505.175781 395.632812 505.175781 C 401.996094 505.175781 411.679688 507.253906 421.902344 517.15625 L 421.914062 517.164062 L 421.902344 517.164062 C 417.234375 517.773438 412.921875 518.097656 409.085938 518.097656 Z M 565.890625 516.570312 C 561.164062 516.492188 557.816406 515.738281 555.953125 514.320312 C 555.066406 513.65625 554.628906 512.765625 554.777344 511.9375 C 554.957031 510.941406 555.746094 509.933594 557.199219 508.84375 C 561.160156 505.875 567.023438 504.304688 574.640625 504.171875 C 575.128906 504.160156 575.625 504.15625 576.113281 504.15625 C 576.535156 504.15625 576.957031 504.160156 577.371094 504.171875 C 586.464844 504.390625 594.542969 506.441406 594.625 506.460938 L 594.640625 506.464844 L 594.625 506.484375 C 587.191406 513.921875 575.25 516.574219 566.5625 516.574219 L 565.894531 516.574219 Z M 369.199219 516.570312 C 360.507812 516.570312 348.574219 513.917969 341.128906 506.472656 L 341.125 506.460938 L 341.144531 506.457031 C 341.222656 506.433594 349.300781 504.382812 358.394531 504.167969 C 358.9375 504.148438 359.476562 504.144531 360.03125 504.144531 C 368.179688 504.144531 374.414062 505.722656 378.5625 508.835938 C 380.019531 509.921875 380.8125 510.9375 380.984375 511.929688 C 381.136719 512.761719 380.695312 513.648438 379.8125 514.316406 C 377.945312 515.734375 374.597656 516.480469 369.875 516.558594 L 369.207031 516.582031 Z M 594.722656 502.121094 C 593.703125 502.121094 592.941406 501.441406 592.726562 500.769531 C 592.453125 499.941406 592.511719 498.984375 592.917969 497.839844 C 593.316406 496.730469 593.984375 495.6875 594.796875 494.898438 C 595.410156 494.3125 596.390625 493.613281 597.589844 493.613281 C 598.171875 493.625 598.628906 493.726562 599.027344 493.917969 C 599.039062 494.03125 599.164062 496.007812 598.707031 498.019531 C 598.433594 499.25 598.035156 500.140625 597.476562 500.824219 C 596.796875 501.632812 595.789062 502.109375 594.722656 502.109375 Z M 341.042969 502.121094 C 339.972656 502.121094 338.972656 501.648438 338.292969 500.824219 C 337.726562 500.140625 337.335938 499.25 337.0625 498.023438 C 336.59375 495.96875 336.734375 493.960938 336.734375 493.941406 L 336.734375 493.921875 C 337.140625 493.726562 337.589844 493.625 338.089844 493.613281 C 339.378906 493.613281 340.359375 494.3125 340.964844 494.898438 C 341.785156 495.6875 342.445312 496.730469 342.84375 497.839844 C 343.25 498.984375 343.316406 499.945312 343.042969 500.769531 C 342.820312 501.425781 342.066406 502.117188 341.042969 502.117188 Z M 529.6875 500.65625 C 528.472656 500.65625 527.425781 500.039062 527.082031 499.121094 C 526.753906 498.226562 526.855469 497.078125 527.386719 495.714844 C 528.269531 493.46875 530.328125 491.101562 532.9375 490.894531 C 532.984375 490.890625 533.039062 490.890625 533.089844 490.890625 L 533.441406 490.894531 C 534.003906 490.914062 534.601562 491.046875 535.179688 491.292969 C 535.179688 491.296875 535.378906 493.628906 534.789062 495.980469 C 534.445312 497.347656 533.929688 498.390625 533.207031 499.175781 C 532.328125 500.128906 531.078125 500.652344 529.6875 500.652344 Z M 406.078125 500.65625 C 404.6875 500.65625 403.433594 500.128906 402.554688 499.175781 C 401.832031 498.390625 401.316406 497.347656 400.976562 495.976562 C 400.417969 493.734375 400.570312 491.503906 400.585938 491.292969 C 401.171875 491.046875 401.765625 490.914062 402.320312 490.894531 L 402.445312 490.894531 C 405.234375 490.894531 407.433594 493.316406 408.375 495.714844 C 408.910156 497.078125 409.015625 498.226562 408.679688 499.121094 C 408.351562 500.03125 407.292969 500.644531 406.082031 500.644531 Z M 374.398438 499.34375 C 356.914062 498.730469 347.839844 493.761719 343.304688 489.695312 C 340.753906 487.410156 339.332031 485.144531 338.597656 483.644531 C 337.894531 482.226562 337.636719 481.148438 337.585938 480.933594 L 337.609375 480.925781 C 337.613281 480.925781 339.265625 480.332031 341.929688 480.285156 L 342.332031 480.277344 C 348.230469 480.277344 360.238281 482.753906 374.390625 499.335938 L 374.390625 499.347656 Z M 561.367188 499.332031 C 575.097656 483.246094 586.835938 480.492188 592.609375 480.277344 C 592.785156 480.273438 592.957031 480.269531 593.121094 480.269531 C 593.359375 480.269531 593.585938 480.273438 593.808594 480.277344 C 596.386719 480.328125 598.015625 480.875 598.179688 480.929688 L 598.179688 480.933594 C 598.179688 480.933594 597.933594 482.085938 597.167969 483.644531 C 596.425781 485.140625 595.007812 487.410156 592.457031 489.691406 C 587.921875 493.753906 578.847656 498.726562 561.359375 499.34375 L 561.371094 499.332031 Z M 393.386719 497.582031 C 379.316406 495.4375 371.347656 489.398438 367.144531 484.707031 C 362.726562 479.789062 361.410156 475.210938 361.351562 474.996094 C 361.375 474.988281 363.097656 474.539062 365.683594 474.472656 C 365.871094 474.46875 366.0625 474.46875 366.265625 474.46875 C 366.464844 474.46875 366.671875 474.46875 366.878906 474.472656 C 373.953125 474.628906 386.804688 477.832031 393.386719 497.570312 L 393.398438 497.570312 Z M 542.378906 497.582031 C 548.957031 477.835938 561.8125 474.628906 568.886719 474.480469 C 569.089844 474.472656 569.296875 474.46875 569.5 474.46875 C 569.699219 474.46875 569.894531 474.472656 570.085938 474.480469 C 572.671875 474.542969 574.390625 474.988281 574.410156 474.996094 L 574.414062 475 C 574.402344 475.039062 573.117188 479.699219 568.625 484.707031 C 564.398438 489.394531 556.433594 495.441406 542.367188 497.574219 Z M 614.601562 490.820312 C 606.769531 490.820312 601.191406 489.265625 601.140625 489.246094 L 601.125 489.242188 L 601.140625 489.21875 C 601.191406 489.144531 607.265625 480.304688 618.964844 477.96875 C 622.03125 477.355469 625.234375 477.046875 628.484375 477.046875 C 628.753906 477.046875 629.023438 477.046875 629.292969 477.050781 C 636.023438 477.152344 640.894531 478.519531 640.945312 478.539062 L 640.960938 478.585938 C 640.957031 478.585938 641.015625 479.089844 640.917969 479.730469 C 640.820312 480.375 640.539062 481.390625 639.769531 482.546875 C 638.417969 484.582031 635.253906 487.398438 627.890625 489.234375 C 623.703125 490.292969 619.238281 490.828125 614.625 490.828125 Z M 321.164062 490.820312 C 316.558594 490.820312 312.082031 490.289062 307.878906 489.234375 C 300.507812 487.398438 297.351562 484.582031 295.996094 482.546875 C 295.226562 481.390625 294.949219 480.375 294.851562 479.730469 C 294.757812 479.113281 294.808594 478.617188 294.820312 478.539062 L 294.851562 478.527344 C 294.867188 478.519531 299.738281 477.152344 306.476562 477.050781 C 306.742188 477.046875 307.007812 477.046875 307.28125 477.046875 C 310.535156 477.046875 313.738281 477.355469 316.796875 477.96875 C 328.503906 480.304688 334.578125 489.144531 334.636719 489.230469 L 334.640625 489.242188 L 334.625 489.246094 C 334.558594 489.257812 328.980469 490.828125 321.160156 490.828125 Z M 581.945312 478.957031 C 580.730469 478.957031 579.71875 478.351562 579.378906 477.417969 C 579.03125 476.503906 579.125 475.371094 579.644531 474.050781 C 580.535156 471.804688 582.589844 469.4375 585.195312 469.226562 C 585.242188 469.226562 585.296875 469.222656 585.347656 469.222656 L 585.699219 469.234375 C 586.261719 469.25 586.859375 469.382812 587.433594 469.628906 C 587.433594 469.632812 587.636719 471.941406 587.042969 474.277344 C 586.695312 475.683594 586.175781 476.742188 585.464844 477.507812 C 584.601562 478.449219 583.355469 478.964844 581.945312 478.964844 Z M 353.824219 478.957031 C 352.414062 478.957031 351.160156 478.441406 350.296875 477.507812 C 349.585938 476.742188 349.070312 475.683594 348.71875 474.273438 C 348.15625 472.039062 348.3125 469.828125 348.328125 469.625 C 348.914062 469.378906 349.511719 469.242188 350.066406 469.234375 L 350.191406 469.226562 C 352.972656 469.226562 355.175781 471.652344 356.121094 474.050781 C 356.640625 475.371094 356.734375 476.503906 356.390625 477.417969 C 356.046875 478.351562 355.035156 478.957031 353.824219 478.957031 Z M 329.265625 475.589844 C 329.160156 475.5625 322.625 473.882812 315.972656 469.78125 C 309.808594 465.988281 302.273438 459.285156 301.355469 448.859375 L 301.355469 448.855469 L 301.371094 448.851562 C 301.371094 448.851562 301.941406 448.714844 302.789062 448.683594 C 302.910156 448.675781 303.035156 448.671875 303.164062 448.671875 C 305.003906 448.671875 308.765625 449.191406 313.324219 452.652344 C 319.125 457.082031 324.480469 464.789062 329.269531 475.601562 Z M 606.5 475.589844 C 611.285156 464.777344 616.644531 457.0625 622.445312 452.652344 C 626.546875 449.535156 629.992188 448.769531 632.160156 448.683594 C 632.296875 448.675781 632.429688 448.671875 632.554688 448.671875 C 632.699219 448.671875 632.84375 448.675781 632.980469 448.683594 C 633.820312 448.714844 634.390625 448.851562 634.414062 448.855469 L 634.414062 448.875 C 633.492188 459.285156 625.960938 465.996094 619.796875 469.78125 C 613.15625 473.859375 606.628906 475.546875 606.488281 475.585938 Z M 345.300781 475 C 345.257812 474.984375 340.601562 473.117188 334.777344 468.242188 C 329.355469 463.691406 321.730469 455.507812 316.207031 442.316406 C 316.210938 442.316406 317.476562 441.640625 319.414062 441.519531 C 319.527344 441.515625 319.640625 441.507812 319.753906 441.507812 C 319.917969 441.507812 320.089844 441.515625 320.269531 441.519531 C 322.945312 441.597656 327.023438 442.707031 331.546875 447.589844 C 336.746094 453.195312 341.382812 462.414062 345.328125 474.976562 L 345.339844 475.015625 L 345.308594 475.003906 Z M 590.445312 474.96875 C 594.390625 462.417969 599.023438 453.203125 604.222656 447.589844 C 608.746094 442.714844 612.824219 441.601562 615.453125 441.523438 C 615.679688 441.519531 615.847656 441.515625 616.015625 441.515625 C 616.132812 441.515625 616.242188 441.515625 616.355469 441.523438 C 618.210938 441.640625 619.449219 442.265625 619.5625 442.324219 C 614.039062 455.511719 606.417969 463.699219 600.992188 468.246094 C 595.171875 473.121094 590.511719 474.988281 590.46875 475.003906 L 590.429688 475.023438 L 590.441406 474.960938 Z M 632.007812 473.789062 C 629.976562 473.789062 628.65625 473.335938 628.09375 472.433594 C 627.371094 471.292969 628.238281 469.828125 628.527344 469.40625 C 629.953125 467.285156 633.285156 465.140625 637.503906 465.140625 L 637.691406 465.140625 C 638.574219 465.152344 639.496094 465.277344 640.355469 465.488281 L 640.355469 465.5 C 640.359375 465.527344 640.628906 467.566406 639.742188 469.632812 C 639.199219 470.875 637.363281 473.789062 632.007812 473.789062 Z M 303.753906 473.789062 C 298.398438 473.789062 296.566406 470.882812 296.023438 469.632812 C 295.140625 467.578125 295.410156 465.535156 295.410156 465.515625 L 295.414062 465.496094 C 296.277344 465.277344 297.195312 465.152344 298.078125 465.140625 L 298.257812 465.140625 C 302.484375 465.140625 305.816406 467.285156 307.242188 469.414062 C 307.523438 469.828125 308.394531 471.292969 307.675781 472.433594 C 307.097656 473.335938 305.789062 473.789062 303.753906 473.789062 Z M 643.878906 458.820312 C 640.710938 458.820312 638.632812 458.621094 638.613281 458.621094 L 638.605469 458.617188 C 638.613281 458.589844 638.726562 454.6875 642.171875 450.929688 C 645.421875 447.382812 652.386719 443.070312 667.148438 442.644531 L 667.160156 442.636719 L 667.15625 442.660156 C 667.15625 442.675781 666.714844 446.050781 665.160156 449.585938 C 663.730469 452.835938 661.027344 456.894531 656.253906 457.765625 C 651.441406 458.621094 646.878906 458.804688 643.878906 458.804688 Z M 291.890625 458.820312 C 288.898438 458.820312 284.320312 458.636719 279.507812 457.765625 C 274.738281 456.894531 272.03125 452.835938 270.605469 449.59375 C 269.054688 446.050781 268.613281 442.675781 268.609375 442.644531 L 268.621094 442.644531 C 283.382812 443.078125 290.347656 447.390625 293.597656 450.929688 C 296.953125 454.585938 297.152344 458.375 297.164062 458.621094 L 297.152344 458.621094 C 297.128906 458.621094 295.054688 458.820312 291.882812 458.820312 Z M 628.5 443.46875 C 628.488281 443.386719 627.675781 435.019531 627.675781 426.703125 C 627.675781 418.398438 636.527344 415.070312 636.902344 414.9375 L 636.917969 414.929688 C 636.890625 415.097656 636.484375 417.96875 636.082031 421.328125 C 635.769531 423.941406 635.242188 428.65625 635.242188 430.910156 C 635.242188 433.226562 633.625 436.0625 631.878906 438.773438 C 630.214844 441.363281 628.527344 443.445312 628.507812 443.46875 L 628.503906 443.484375 L 628.515625 443.472656 Z M 307.253906 443.46875 C 307.238281 443.441406 305.550781 441.355469 303.882812 438.769531 C 302.136719 436.050781 300.519531 433.21875 300.519531 430.898438 C 300.519531 428.65625 299.996094 423.9375 299.679688 421.320312 C 299.285156 418.007812 298.882812 415.164062 298.84375 414.925781 L 298.859375 414.929688 C 299.234375 415.066406 308.09375 418.386719 308.09375 426.699219 C 308.09375 435.015625 307.269531 443.378906 307.265625 443.460938 L 307.265625 443.472656 L 307.253906 443.472656 Z M 639.992188 442.675781 C 639.804688 442.675781 639.648438 442.644531 639.507812 442.578125 C 639.339844 442.496094 639.171875 442.296875 639.078125 442.078125 C 638.859375 441.554688 638.910156 440.976562 639.074219 440.097656 C 639.359375 438.554688 640.078125 436.523438 641.324219 433.710938 C 643.3125 429.242188 645.867188 424.640625 646.117188 424.191406 L 646.144531 424.164062 C 646.175781 424.121094 649.683594 419.707031 654.140625 415.304688 C 656.726562 412.753906 659.152344 410.699219 661.355469 409.179688 C 664.140625 407.257812 666.292969 406.351562 668.136719 406.320312 L 668.148438 406.320312 C 668.753906 406.320312 669.238281 406.394531 669.679688 406.539062 L 669.695312 406.542969 L 669.695312 406.554688 C 669.695312 406.554688 670.101562 410.144531 669.785156 414.5 C 669.367188 420.359375 667.917969 424.738281 665.480469 427.535156 C 662.796875 430.59375 658.214844 434.066406 652.566406 437.296875 C 647.484375 440.21875 642.882812 442.21875 640.261719 442.652344 C 640.175781 442.652344 640.085938 442.664062 639.984375 442.664062 Z M 295.777344 442.675781 C 295.6875 442.675781 295.59375 442.671875 295.503906 442.652344 C 292.882812 442.21875 288.28125 440.21875 283.195312 437.296875 C 277.550781 434.066406 272.964844 430.59375 270.285156 427.535156 C 267.84375 424.738281 266.394531 420.359375 265.972656 414.5 C 265.679688 410.351562 266.03125 406.890625 266.070312 406.542969 C 266.53125 406.390625 267.015625 406.320312 267.535156 406.320312 C 269.492188 406.351562 271.582031 407.230469 274.410156 409.179688 C 276.609375 410.691406 279.035156 412.761719 281.621094 415.304688 C 286.078125 419.707031 289.582031 424.121094 289.621094 424.164062 L 289.652344 424.207031 C 289.945312 424.734375 292.476562 429.285156 294.4375 433.710938 C 295.6875 436.527344 296.402344 438.558594 296.691406 440.097656 C 296.851562 440.976562 296.902344 441.558594 296.683594 442.078125 C 296.59375 442.296875 296.425781 442.496094 296.257812 442.578125 C 296.097656 442.644531 295.945312 442.675781 295.769531 442.675781 Z M 295.777344 442.675781 "/>
<path style=" stroke:none;fill-rule:evenodd;fill:rgb(99.998474%,67.842102%,17.64679%);fill-opacity:1;" d="M 776.476562 106.082031 L 773.859375 107.128906 L 772.835938 107.535156 L 769.667969 107.363281 L 766.695312 108.789062 L 761.425781 112.386719 L 761.195312 112.554688 L 759.234375 113.0625 L 757.410156 112.277344 L 756.375 112.75 L 756.015625 114.882812 L 755.027344 116.417969 L 753.820312 117.269531 L 749.617188 117.695312 L 746.070312 119.527344 L 741.460938 118.289062 L 739.316406 119.128906 L 734.757812 123.230469 L 732.433594 124.332031 L 731.621094 124.289062 L 728.53125 124.125 L 727.230469 124.554688 L 725.28125 126.4375 L 721.605469 126.71875 L 720.453125 127.515625 L 718.660156 131.140625 L 716.710938 133.148438 L 715.59375 133.382812 L 714.386719 132.941406 L 713.476562 133.101562 L 713.0625 135.417969 L 712.183594 136.386719 L 709.722656 137.238281 L 707.746094 138.878906 L 706.023438 139.769531 L 703.707031 139.707031 L 703.171875 139.707031 L 700.867188 140.984375 L 696.527344 141.363281 L 694.722656 143.082031 L 694.324219 143.453125 L 693.484375 143.960938 L 692.105469 144.78125 L 691.769531 144.988281 L 690.105469 144.6875 L 688.164062 145.457031 L 687.375 144.25 L 686.027344 145.058594 L 684.25 145.132812 L 682.027344 144.144531 L 680.339844 143.390625 L 679.101562 143.570312 L 678.667969 145.730469 L 678.625 145.957031 L 677.328125 147.6875 L 674.902344 149.160156 L 674.570312 149.585938 L 671.808594 153.152344 L 666.5625 158.667969 L 662.125 160.921875 L 657.523438 162.320312 L 654.308594 164.96875 L 645.867188 169.152344 L 632.535156 175.78125 L 629.8125 176.652344 L 625.898438 177.277344 L 618.921875 179.851562 L 612.429688 181.808594 L 611.207031 182.179688 L 602.535156 184.804688 L 598.492188 184.378906 L 596.105469 185.25 L 589.875 184.554688 L 585.546875 184.640625 L 582.800781 185.210938 L 577.652344 187.683594 L 568.957031 191.863281 L 566.082031 194.492188 L 561.605469 196.828125 L 556.371094 198.484375 L 556.378906 196.285156 L 556.347656 196.191406 L 554.53125 196.765625 L 553.214844 197.179688 L 548.96875 197.835938 L 546.605469 197.835938 L 545.140625 197.40625 L 544.910156 197.484375 L 536.226562 200.347656 L 526.535156 201.28125 L 521.683594 202.835938 L 518.066406 202.777344 L 515.796875 203.457031 L 511.359375 203.992188 L 509.777344 203.570312 L 509.417969 203.472656 L 496.359375 204.042969 L 490.390625 203.371094 L 487.542969 204.015625 L 482.769531 202.410156 L 475.804688 201.601562 L 474.175781 201.113281 L 470.519531 200.027344 L 468.859375 200.980469 L 467.621094 201.113281 L 464.660156 200.039062 L 463.589844 200.011719 L 461.144531 200.894531 L 459.734375 200.539062 L 458.425781 199.492188 L 455.359375 199.035156 L 453.488281 197.464844 L 443.042969 198.851562 L 440.210938 198.015625 L 430.707031 195.246094 L 429.195312 195.324219 L 427.3125 196.734375 L 424.480469 197.769531 L 422.019531 198.40625 L 418.671875 198.523438 L 414.789062 197.503906 L 410.78125 195.5625 L 409.296875 195.210938 L 405.996094 195.539062 L 404.984375 195.632812 L 398.910156 192.378906 L 391.085938 187.484375 L 385.78125 184.933594 L 383.785156 184.609375 L 383.519531 185.558594 L 384.503906 188.671875 L 384.839844 191.753906 L 384.738281 194.601562 L 384.683594 196.367188 L 385.183594 197.949219 L 387.097656 200.078125 L 387.894531 202.207031 L 388.480469 208.078125 L 388.476562 214.035156 L 387.542969 223.535156 L 387.230469 224.984375 L 386.117188 229.902344 L 385.101562 234.429688 L 381.164062 246.460938 L 380.078125 247.953125 L 377.417969 249.765625 L 371.402344 253.867188 L 366.972656 256.421875 L 365.566406 257.003906 L 361.960938 257.273438 L 359.722656 257.160156 L 356.933594 255.648438 L 354.1875 254.941406 L 350.597656 252.359375 L 346.605469 251.535156 L 342.226562 249 L 341.085938 247.632812 L 338.699219 247.40625 L 335.394531 246.414062 L 335.394531 246.410156 L 334.179688 246.042969 L 333.34375 245.800781 L 329.125 245.6875 L 325.191406 243.871094 L 323.121094 243.371094 L 320.289062 243.230469 L 317.328125 244.601562 L 317.328125 244.597656 L 315.828125 245.296875 L 313.933594 244.542969 L 312.558594 244.628906 L 311.003906 246.976562 L 310.769531 247.347656 L 309.699219 247.910156 L 308.367188 247.890625 L 307.324219 247.863281 L 306.195312 248.355469 L 304.675781 249.019531 L 303.332031 249.605469 L 302.675781 249.890625 L 302.664062 249.875 L 302.261719 249.957031 L 301.546875 250.082031 L 300.65625 250.253906 L 299.089844 249.335938 L 298.257812 248.84375 L 296.859375 248.5625 L 296.109375 249.105469 L 295.957031 251.660156 L 295.273438 253.195312 L 293.09375 255.121094 L 290.878906 257.070312 L 289.339844 259.34375 L 285.253906 268.667969 L 282.691406 272.429688 L 281.902344 273.300781 L 279.222656 276.253906 L 276.851562 278.097656 L 271.382812 282.335938 L 266.207031 284.273438 L 261.746094 285.183594 L 259.578125 285.1875 L 255.46875 284.640625 L 251.777344 283.511719 L 247.722656 280.972656 L 243.277344 277.398438 L 236.835938 271.039062 L 235.925781 270.492188 L 235.734375 270.367188 L 233.707031 269.070312 L 232.207031 269.109375 L 231.613281 270.078125 L 231.292969 271.484375 L 231.023438 272.726562 L 230.285156 279.800781 L 230.339844 280.214844 L 230.722656 283.121094 L 235.617188 289.957031 L 237.125 293.585938 L 237.371094 294 L 238.378906 295.695312 L 239.148438 296.988281 L 239.226562 297.121094 L 240.894531 302.105469 L 239.726562 304.921875 L 240.316406 306.808594 L 238.828125 307.957031 L 238.558594 309.585938 L 242.945312 315.09375 L 243.90625 317.519531 L 242.839844 320.882812 L 241.128906 322.742188 L 240.652344 323.246094 L 240.890625 324.667969 L 242.914062 326.484375 L 246.34375 329.542969 L 248.179688 334.082031 L 249.566406 335.304688 L 251.1875 334.957031 L 252.082031 335.644531 L 253.449219 335.617188 L 254.789062 336.960938 L 255.660156 337.378906 L 257.035156 338.070312 L 258.121094 339.480469 L 258.359375 343.828125 L 260.382812 349.222656 L 260.417969 352.152344 L 260.429688 352.570312 L 261.6875 354.734375 L 262.082031 356.445312 L 261.410156 360.964844 L 263.015625 362.414062 L 264.757812 362.0625 L 265.878906 362.238281 L 267.6875 363.742188 L 269.878906 367.078125 L 272.015625 366.765625 L 273.371094 367.414062 L 279.933594 373.347656 L 281.417969 374.09375 L 281.5 374.144531 L 282.574219 374.679688 L 283.902344 376.019531 L 285.964844 374.652344 L 286.191406 374.628906 L 288.433594 374.429688 L 289.421875 375.089844 L 291.3125 376.371094 L 293.792969 376.339844 L 299.175781 377.988281 L 301.53125 378.589844 L 306.265625 381.53125 L 308.277344 382.78125 L 309.472656 383.746094 L 311.050781 385.039062 L 314.214844 386.398438 L 316.929688 387.042969 L 318.390625 387.398438 L 319.5 387.820312 L 319.527344 387.75 L 319.542969 387.753906 L 319.515625 387.824219 L 325.382812 390.078125 L 328.5625 390.816406 L 331.511719 391.898438 L 333.648438 392.679688 L 335.222656 392.707031 L 337.445312 390.835938 L 339.59375 390.710938 L 341.382812 391.15625 L 343.125 390.871094 L 345.886719 389.164062 L 346.429688 388.367188 L 348.382812 387.433594 L 354.992188 386.617188 L 356.917969 387.238281 L 361.875 385.085938 L 365.195312 386.007812 L 368.136719 384.964844 L 374.554688 386.394531 L 376.265625 387.589844 L 378.167969 389.777344 L 378.402344 389.789062 L 380.527344 389.828125 L 379.640625 391.308594 L 382.441406 394.25 L 384.976562 398.074219 L 385.144531 398.582031 L 386.992188 403.988281 L 388.355469 405.902344 L 389.3125 408.570312 L 389.359375 410.3125 L 387.875 411.453125 L 387.628906 412.097656 L 387.542969 412.335938 L 387.847656 413.0625 L 388.40625 412.761719 L 389.480469 412.167969 L 390.769531 411.96875 L 393.066406 412.210938 L 394.585938 412.371094 L 396.976562 411.183594 L 398.5625 410.394531 L 401.113281 411.492188 L 403.910156 411.457031 L 405.089844 411.984375 L 408.414062 413.492188 L 410.113281 413.648438 L 410.742188 413.238281 L 411.144531 412.289062 L 410.9375 411.183594 L 409.664062 409.710938 L 406.851562 406.445312 L 405.703125 404.769531 L 404.824219 402.339844 L 404.550781 399.234375 L 404.355469 397.140625 L 404.710938 394.390625 L 405.464844 393.410156 L 406.015625 391.222656 L 406.027344 391.222656 L 406.167969 390.648438 L 407.730469 388.574219 L 411.871094 385.914062 L 416.3125 381.933594 L 419.828125 379.617188 L 423.453125 378.046875 L 423.546875 377.609375 L 423.953125 377.773438 L 433.164062 374.640625 L 433.316406 374.621094 L 437.417969 373.910156 L 465.109375 375.855469 L 466.132812 375.546875 L 466.140625 375.542969 L 467.0625 372.953125 L 467.558594 372.472656 L 467.886719 372.15625 L 470.929688 370.816406 L 472.359375 370.617188 L 476.308594 371.59375 L 477.921875 371.988281 L 480.519531 370.539062 L 482.351562 370.566406 L 486.148438 368.496094 L 488.5 368.554688 L 489.386719 368.195312 L 493.957031 364.914062 L 498.355469 363.65625 L 499.5 363.042969 L 499.910156 362.824219 L 504.417969 360.445312 L 507.28125 358.242188 L 509.753906 356.929688 L 512.460938 356.226562 L 519.554688 355.730469 L 520.980469 353.351562 L 524.027344 352.945312 L 525.867188 350.867188 L 527.972656 350.011719 L 529.484375 347.835938 L 530.75 346.011719 L 532.519531 344.988281 L 538.183594 344.632812 L 544.898438 345.464844 L 545.789062 344.929688 L 547.308594 339.507812 L 548.898438 338.492188 L 553.171875 332.257812 L 553.191406 329.984375 L 553.195312 328.085938 L 553.894531 325.382812 L 553.417969 320.507812 L 553.988281 315.566406 L 556.644531 309.289062 L 558.992188 306.753906 L 562.769531 304.199219 L 564.691406 303.363281 L 567.410156 302.910156 L 567.410156 302.898438 L 567.8125 302.832031 L 568.503906 302.710938 L 577.875 302.582031 C 578.003906 302.484375 581.28125 302.539062 581.28125 302.539062 L 584.40625 302.496094 L 592.3125 303.902344 L 592.871094 304 L 595.546875 304.867188 L 598.628906 307.257812 L 601.886719 310.449219 L 602.5 311.039062 L 604.617188 311.929688 L 605.25 312.210938 L 607 311.929688 L 609.484375 310.640625 L 611.359375 309.054688 L 613.917969 307.65625 L 613.980469 307.566406 L 615.417969 305.402344 L 615.460938 305.359375 L 615.496094 305.367188 L 615.496094 305.355469 L 615.472656 305.351562 L 616.039062 304.484375 L 620.980469 302.5625 L 626.789062 302.226562 L 627.445312 301.871094 L 627.808594 301.675781 L 629.347656 299.871094 L 630.785156 299.859375 L 634.265625 301.117188 L 636.714844 300.632812 L 638.660156 301.410156 L 640.167969 301.230469 L 643.023438 300.894531 L 646.082031 303.046875 L 647.863281 303.277344 L 654.148438 306.957031 L 654.476562 307.003906 L 654.644531 307.035156 L 655.007812 307.097656 L 655.75 306.875 L 656.863281 306.554688 L 657.007812 306.511719 L 657.144531 306.707031 L 657.859375 307.714844 L 658.84375 307.851562 L 660.003906 306.304688 L 659.542969 305.605469 L 659.363281 305.34375 L 657.125 304.890625 L 655.105469 301.441406 L 657.027344 299.375 L 654.015625 295.683594 L 653.507812 295.066406 L 653.339844 294.808594 L 652.300781 293.222656 L 647.027344 285.1875 L 640.160156 279.703125 L 640.160156 279.710938 L 637.75 277.785156 L 637.734375 277.773438 L 636.890625 277.109375 L 633.226562 273.378906 L 630.605469 269.898438 L 630.261719 269.152344 L 629.71875 267.972656 L 628.152344 264.550781 L 625.414062 262.445312 L 623.1875 260.007812 L 623.074219 259.867188 L 618.480469 253.617188 L 617.71875 252.566406 L 616.632812 251.941406 L 614.339844 251.925781 L 614.121094 251.707031 L 613.992188 251.574219 L 614.074219 251.492188 L 615.175781 250.394531 L 616.402344 250.085938 L 616.929688 248.875 L 614.589844 242.097656 L 614.570312 241.855469 L 614.398438 239.691406 L 616.304688 229.855469 L 616.546875 228.65625 L 619.804688 222.03125 L 621.820312 220.382812 L 624.019531 216.058594 L 625.90625 213.292969 L 627.707031 211.535156 L 628.023438 211.351562 L 631.28125 209.375 L 634.023438 208.992188 L 636.632812 208.621094 L 641.1875 210.027344 L 645.519531 209.945312 L 646.367188 209.851562 L 648.335938 209.628906 L 651.566406 208.609375 L 653.09375 207.667969 L 653.882812 206.453125 L 655.539062 200.910156 L 656.070312 199.148438 L 657.089844 197.234375 L 662.984375 190.445312 L 667.441406 186.320312 L 677.460938 178.976562 L 682.367188 176.042969 L 684.875 174.542969 L 707.230469 164.605469 L 713.046875 158.710938 L 716.074219 155.652344 L 721.429688 152.054688 L 727.695312 149.492188 L 733.089844 145.222656 L 734.265625 143.738281 L 735.753906 138.960938 L 736.992188 138.660156 L 738.109375 136.242188 L 738.421875 135.558594 L 742.828125 132.453125 L 743.320312 132.207031 L 760.421875 123.640625 L 762.90625 123.980469 L 764.234375 121.988281 L 769.210938 121.152344 L 770.128906 121 L 771.355469 120.390625 L 772.394531 118.609375 L 772.394531 118.257812 L 772.539062 113.507812 L 773.601562 112.230469 L 774.179688 109.097656 L 774.722656 108.375 L 775.292969 107.628906 L 776.703125 106.632812 L 776.460938 106.042969 Z M 776.476562 106.082031 "/>
</g>
</svg>
