<?xml version="1.0" encoding="UTF-8"?>
<svg xmlns="http://www.w3.org/2000/svg" xmlns:xlink="http://www.w3.org/1999/xlink" viewBox="0 0 1000 500" version="1.1">
<g id="surface369">
<rect x="0" y="0" width="1000" height="500" style="fill:rgb(0%,41.960144%,24.705505%);fill-opacity:1;stroke:none;"/>
<path style=" stroke:none;fill-rule:evenodd;fill:rgb(99.998474%,99.998474%,99.998474%);fill-opacity:1;" d="M 0 270.832031 L 1000 270.832031 L 1000 312.5 L 0 312.5 Z M 0 270.832031 "/>
<path style=" stroke:none;fill-rule:evenodd;fill:rgb(0%,0%,0%);fill-opacity:1;" d="M 0 229.167969 L 1000 229.167969 L 1000 270.832031 L 0 270.832031 Z M 0 229.167969 "/>
<path style=" stroke:none;fill-rule:evenodd;fill:rgb(98.822021%,81.959534%,8.627319%);fill-opacity:1;" d="M 0 187.5 L 1000 187.5 L 1000 229.167969 L 0 229.167969 Z M 0 187.5 "/>
<path style=" stroke:none;fill-rule:evenodd;fill:rgb(98.822021%,81.959534%,8.627319%);fill-opacity:1;" d="M 437.5 0 L 479.167969 0 L 479.167969 500 L 437.5 500 Z M 437.5 0 "/>
<path style=" stroke:none;fill-rule:evenodd;fill:rgb(0%,0%,0%);fill-opacity:1;" d="M 479.167969 0 L 520.832031 0 L 520.832031 500 L 479.167969 500 Z M 479.167969 0 "/>
<path style=" stroke:none;fill-rule:evenodd;fill:rgb(99.998474%,99.998474%,99.998474%);fill-opacity:1;" d="M 520.832031 0 L 562.5 0 L 562.5 500 L 520.832031 500 Z M 520.832031 0 "/>
<path style=" stroke:none;fill-rule:evenodd;fill:rgb(83.135986%,10.980225%,18.823242%);fill-opacity:1;" d="M 625 250 C 625.128906 266.449219 621.980469 282.910156 615.777344 298.144531 C 609.578125 313.378906 600.332031 327.367188 588.746094 339.046875 C 577.164062 350.726562 563.257812 360.082031 548.070312 366.40625 C 532.886719 372.730469 516.449219 376.015625 500 376.015625 C 483.550781 376.015625 467.113281 372.730469 451.929688 366.40625 C 436.742188 360.082031 422.835938 350.726562 411.253906 339.046875 C 399.667969 327.367188 390.421875 313.378906 384.222656 298.144531 C 378.019531 282.910156 374.871094 266.449219 375 250 C 374.871094 233.550781 378.019531 217.082031 384.222656 201.847656 C 390.421875 186.613281 399.667969 172.632812 411.253906 160.953125 C 422.835938 149.273438 436.742188 139.917969 451.929688 133.59375 C 467.113281 127.261719 483.550781 123.976562 500 123.976562 C 516.449219 123.976562 532.886719 127.261719 548.070312 133.59375 C 563.257812 139.917969 577.164062 149.273438 588.746094 160.953125 C 600.332031 172.632812 609.578125 186.613281 615.777344 201.847656 C 621.980469 217.082031 625.128906 233.550781 625 250 Z M 625 250 "/>
<path style="fill-rule:evenodd;fill:rgb(0%,41.960144%,24.705505%);fill-opacity:1;stroke-width:0.833333;stroke-linecap:butt;stroke-linejoin:miter;stroke:rgb(0%,0%,0%);stroke-opacity:1;stroke-miterlimit:4;" d="M 495.988281 151.328125 C 495.988281 151.140625 500 139.890625 500 139.890625 L 503.636719 151.140625 C 503.636719 151.140625 515.851562 151.507812 515.851562 151.328125 C 515.851562 151.140625 506.195312 158.699219 506.195312 158.699219 C 506.195312 158.699219 510.75 171.605469 510.5625 171.238281 C 510.382812 170.875 500 163.5 500 163.5 C 500 163.5 489.4375 170.875 489.617188 170.875 C 489.800781 170.875 493.628906 158.699219 493.628906 158.699219 L 484.148438 151.507812 Z M 495.988281 151.328125 "/>
<path style="fill-rule:evenodd;fill:rgb(0%,41.960144%,24.705505%);fill-opacity:1;stroke-width:0.833333;stroke-linecap:butt;stroke-linejoin:miter;stroke:rgb(0%,0%,0%);stroke-opacity:1;stroke-miterlimit:4;" d="M 504.011719 348.957031 C 504.011719 349.144531 500 360.390625 500 360.390625 L 496.363281 349.144531 C 496.363281 349.144531 484.148438 348.769531 484.148438 348.957031 C 484.148438 349.144531 493.804688 341.585938 493.804688 341.585938 C 493.804688 341.585938 489.25 328.679688 489.4375 329.042969 C 489.617188 329.410156 500 336.792969 500 336.792969 C 500 336.792969 510.5625 329.410156 510.382812 329.410156 C 510.199219 329.410156 506.371094 341.585938 506.371094 341.585938 L 515.851562 348.769531 Z M 504.011719 348.957031 "/>
<path style="fill-rule:evenodd;fill:rgb(0%,41.960144%,24.705505%);fill-opacity:1;stroke-width:0.833333;stroke-linecap:butt;stroke-linejoin:miter;stroke:rgb(0%,0%,0%);stroke-opacity:1;stroke-miterlimit:4;" d="M 558.097656 179.550781 C 558.097656 179.734375 554.09375 190.984375 554.09375 190.984375 L 550.441406 179.734375 C 550.441406 179.734375 538.238281 179.371094 538.238281 179.550781 C 538.238281 179.734375 547.890625 172.175781 547.890625 172.175781 C 547.890625 172.175781 543.34375 159.269531 543.523438 159.636719 C 543.703125 160.003906 554.09375 167.375 554.09375 167.375 C 554.09375 167.375 564.65625 160.003906 564.476562 160.003906 C 564.289062 160.003906 560.464844 172.175781 560.464844 172.175781 L 569.9375 179.371094 Z M 558.097656 179.550781 "/>
<path style="fill-rule:evenodd;fill:rgb(0%,41.960144%,24.705505%);fill-opacity:1;stroke-width:0.833333;stroke-linecap:butt;stroke-linejoin:miter;stroke:rgb(0%,0%,0%);stroke-opacity:1;stroke-miterlimit:4;" d="M 593.171875 282.085938 C 593.171875 282.273438 589.167969 293.523438 589.167969 293.523438 L 585.523438 282.273438 C 585.523438 282.273438 573.316406 281.910156 573.316406 282.085938 C 573.316406 282.273438 582.976562 274.714844 582.976562 274.714844 C 582.976562 274.714844 578.417969 261.808594 578.597656 262.175781 C 578.785156 262.542969 589.167969 269.914062 589.167969 269.914062 C 589.167969 269.914062 599.730469 262.542969 599.550781 262.542969 C 599.371094 262.542969 595.539062 274.714844 595.539062 274.714844 L 605.011719 281.910156 Z M 593.171875 282.085938 "/>
<path style="fill-rule:evenodd;fill:rgb(0%,41.960144%,24.705505%);fill-opacity:1;stroke-width:0.833333;stroke-linecap:butt;stroke-linejoin:miter;stroke:rgb(0%,0%,0%);stroke-opacity:1;stroke-miterlimit:4;" d="M 414.828125 285.023438 C 414.828125 285.203125 410.816406 296.453125 410.816406 296.453125 L 407.175781 285.203125 C 407.175781 285.203125 394.972656 284.832031 394.972656 285.023438 C 394.972656 285.203125 404.621094 277.644531 404.621094 277.644531 C 404.621094 277.644531 400.066406 264.730469 400.253906 265.113281 C 400.429688 265.480469 410.816406 272.851562 410.816406 272.851562 C 410.816406 272.851562 421.386719 265.480469 421.199219 265.480469 C 421.019531 265.480469 417.195312 277.644531 417.195312 277.644531 L 426.667969 284.832031 Z M 414.828125 285.023438 "/>
<path style="fill-rule:evenodd;fill:rgb(0%,41.960144%,24.705505%);fill-opacity:1;stroke-width:0.833333;stroke-linecap:butt;stroke-linejoin:miter;stroke:rgb(0%,0%,0%);stroke-opacity:1;stroke-miterlimit:4;" d="M 447.207031 180.753906 C 447.207031 180.933594 443.195312 192.179688 443.195312 192.179688 L 439.550781 180.933594 C 439.550781 180.933594 427.351562 180.566406 427.351562 180.753906 C 427.351562 180.933594 437.003906 173.371094 437.003906 173.371094 C 437.003906 173.371094 432.445312 160.464844 432.632812 160.832031 C 432.804688 161.199219 443.195312 168.570312 443.195312 168.570312 C 443.195312 168.570312 453.769531 161.199219 453.582031 161.199219 C 453.402344 161.199219 449.578125 173.371094 449.578125 173.371094 L 459.050781 180.566406 Z M 447.207031 180.753906 "/>
<path style="fill-rule:evenodd;fill:rgb(0%,41.960144%,24.705505%);fill-opacity:1;stroke-width:0.833333;stroke-linecap:butt;stroke-linejoin:miter;stroke:rgb(0%,0%,0%);stroke-opacity:1;stroke-miterlimit:4;" d="M 406.105469 218.210938 C 406.105469 218.035156 410.109375 206.789062 410.109375 206.789062 L 413.753906 218.035156 C 413.753906 218.035156 425.960938 218.398438 425.960938 218.210938 C 425.960938 218.035156 416.300781 225.59375 416.300781 225.59375 C 416.300781 225.59375 420.859375 238.5 420.679688 238.136719 C 420.492188 237.769531 410.109375 230.394531 410.109375 230.394531 C 410.109375 230.394531 399.542969 237.769531 399.722656 237.769531 C 399.902344 237.769531 403.734375 225.59375 403.734375 225.59375 L 394.253906 218.398438 Z M 406.105469 218.210938 "/>
<path style="fill-rule:evenodd;fill:rgb(0%,41.960144%,24.705505%);fill-opacity:1;stroke-width:0.833333;stroke-linecap:butt;stroke-linejoin:miter;stroke:rgb(0%,0%,0%);stroke-opacity:1;stroke-miterlimit:4;" d="M 440.949219 320.574219 C 440.949219 320.386719 444.953125 309.140625 444.953125 309.140625 L 448.601562 320.386719 C 448.601562 320.386719 460.808594 320.761719 460.808594 320.574219 C 460.808594 320.386719 451.15625 327.945312 451.15625 327.945312 C 451.15625 327.945312 455.703125 340.859375 455.523438 340.488281 C 455.335938 340.121094 444.953125 332.738281 444.953125 332.738281 C 444.953125 332.738281 434.390625 340.121094 434.578125 340.121094 C 434.757812 340.121094 438.582031 327.945312 438.582031 327.945312 L 429.109375 320.761719 Z M 440.949219 320.574219 "/>
<path style="fill-rule:evenodd;fill:rgb(0%,41.960144%,24.705505%);fill-opacity:1;stroke-width:0.833333;stroke-linecap:butt;stroke-linejoin:miter;stroke:rgb(0%,0%,0%);stroke-opacity:1;stroke-miterlimit:4;" d="M 584.519531 215.496094 C 584.519531 215.300781 588.535156 204.058594 588.535156 204.058594 L 592.171875 215.300781 C 592.171875 215.300781 604.386719 215.671875 604.386719 215.496094 C 604.386719 215.300781 594.726562 222.867188 594.726562 222.867188 C 594.726562 222.867188 599.285156 235.773438 599.097656 235.398438 C 598.917969 235.035156 588.535156 227.660156 588.535156 227.660156 C 588.535156 227.660156 577.972656 235.035156 578.148438 235.035156 C 578.335938 235.035156 582.164062 222.867188 582.164062 222.867188 L 572.679688 215.671875 Z M 584.519531 215.496094 "/>
<path style="fill-rule:evenodd;fill:rgb(0%,41.960144%,24.705505%);fill-opacity:1;stroke-width:0.833333;stroke-linecap:butt;stroke-linejoin:miter;stroke:rgb(0%,0%,0%);stroke-opacity:1;stroke-miterlimit:4;" d="M 552.042969 319.605469 C 552.042969 319.425781 556.046875 308.179688 556.046875 308.179688 L 559.691406 319.425781 C 559.691406 319.425781 571.898438 319.792969 571.898438 319.605469 C 571.898438 319.425781 562.238281 326.984375 562.238281 326.984375 C 562.238281 326.984375 566.796875 339.890625 566.617188 339.527344 C 566.429688 339.152344 556.046875 331.777344 556.046875 331.777344 C 556.046875 331.777344 545.484375 339.152344 545.671875 339.152344 C 545.851562 339.152344 549.675781 326.984375 549.675781 326.984375 L 540.203125 319.792969 Z M 552.042969 319.605469 "/>
<path style=" stroke:none;fill-rule:evenodd;fill:rgb(0%,41.960144%,24.705505%);fill-opacity:1;" d="M 524.570312 282.292969 C 526.015625 302.578125 523.859375 319.378906 519.757812 319.800781 C 515.660156 320.230469 511.148438 304.125 509.699219 283.835938 C 508.253906 263.550781 510.410156 246.753906 514.511719 246.320312 C 518.621094 245.898438 523.121094 261.996094 524.570312 282.292969 Z M 524.570312 282.292969 "/>
<path style="fill:none;stroke-width:0.518175;stroke-linecap:butt;stroke-linejoin:miter;stroke:rgb(0%,0%,0%);stroke-opacity:1;stroke-miterlimit:4;" d="M 524.566406 282.292969 C 526.015625 302.578125 523.859375 319.375 519.757812 319.800781 C 515.660156 320.230469 511.148438 304.125 509.699219 283.839844 C 508.253906 263.550781 510.410156 246.753906 514.511719 246.320312 C 518.617188 245.898438 523.121094 261.996094 524.566406 282.292969 Z M 524.566406 282.292969 "/>
<path style=" stroke:none;fill-rule:evenodd;fill:rgb(0%,41.960144%,24.705505%);fill-opacity:1;" d="M 532.332031 282.167969 C 533.789062 302.457031 531.453125 319.269531 527.109375 319.71875 C 522.769531 320.175781 518.066406 304.09375 516.609375 283.796875 C 515.152344 263.507812 517.488281 246.695312 521.832031 246.246094 C 526.171875 245.792969 530.875 261.871094 532.332031 282.167969 Z M 532.332031 282.167969 "/>
<path style="fill:none;stroke-width:0.529996;stroke-linecap:butt;stroke-linejoin:miter;stroke:rgb(0%,0%,0%);stroke-opacity:1;stroke-miterlimit:4;" d="M 532.332031 282.167969 C 533.789062 302.457031 531.453125 319.269531 527.105469 319.71875 C 522.769531 320.175781 518.066406 304.09375 516.609375 283.796875 C 515.152344 263.507812 517.488281 246.695312 521.835938 246.246094 C 526.171875 245.792969 530.875 261.875 532.332031 282.167969 Z M 532.332031 282.167969 "/>
<path style=" stroke:none;fill-rule:evenodd;fill:rgb(0%,41.960144%,24.705505%);fill-opacity:1;" d="M 527.289062 284.285156 C 528.851562 306.714844 527.300781 325.195312 523.828125 325.5625 C 520.355469 325.933594 516.273438 308.046875 514.707031 285.621094 C 513.144531 263.183594 514.699219 244.703125 518.164062 244.335938 C 521.640625 243.96875 525.726562 261.855469 527.289062 284.285156 Z M 527.289062 284.285156 "/>
<path style="fill:none;stroke-width:0.51325;stroke-linecap:butt;stroke-linejoin:miter;stroke:rgb(0%,0%,0%);stroke-opacity:1;stroke-miterlimit:4;" d="M 527.285156 284.285156 C 528.847656 306.714844 527.300781 325.195312 523.828125 325.5625 C 520.351562 325.9375 516.277344 308.046875 514.707031 285.621094 C 513.140625 263.183594 514.699219 244.703125 518.164062 244.335938 C 521.636719 243.96875 525.722656 261.855469 527.285156 284.285156 Z M 527.285156 284.285156 "/>
<path style=" stroke:none;fill-rule:evenodd;fill:rgb(61.175537%,29.019165%,0%);fill-opacity:1;" d="M 463.160156 302.140625 C 469.539062 301.871094 466.765625 298.453125 469.988281 296.640625 C 473.210938 294.824219 477.792969 296.027344 479.167969 298.300781 C 480.542969 300.5625 479.445312 302.792969 481.207031 302.824219 C 482.984375 302.855469 531.152344 300.828125 532.886719 302.734375 C 534.617188 304.640625 534.914062 308.382812 533.113281 309.839844 C 531.304688 311.3125 470.417969 311.996094 468.320312 310.457031 C 466.21875 308.933594 463.148438 302.515625 463.160156 302.140625 Z M 463.160156 302.140625 "/>
<path style="fill:none;stroke-width:0.546723;stroke-linecap:butt;stroke-linejoin:miter;stroke:rgb(0%,0%,0%);stroke-opacity:1;stroke-miterlimit:4;" d="M 463.160156 302.140625 C 469.539062 301.871094 466.765625 298.453125 469.988281 296.640625 C 473.210938 294.824219 477.792969 296.027344 479.167969 298.300781 C 480.542969 300.5625 479.441406 302.792969 481.210938 302.824219 C 482.984375 302.855469 531.152344 300.828125 532.886719 302.734375 C 534.617188 304.636719 534.914062 308.382812 533.113281 309.839844 C 531.308594 311.3125 470.417969 311.996094 468.320312 310.457031 C 466.21875 308.933594 463.148438 302.515625 463.160156 302.140625 Z M 463.160156 302.140625 "/>
<path style=" stroke:none;fill-rule:evenodd;fill:rgb(98.822021%,81.959534%,8.627319%);fill-opacity:1;" d="M 497.183594 306.828125 C 497.070312 311.644531 504.191406 310.277344 504.289062 314.296875 C 504.070312 318.5625 492.351562 314.558594 492.234375 306.761719 C 492.726562 298.976562 504.199219 295.125 504.335938 299.578125 C 504.445312 303.269531 497.296875 302.019531 497.183594 306.828125 Z M 497.183594 306.828125 "/>
<path style="fill:none;stroke-width:0.526593;stroke-linecap:butt;stroke-linejoin:miter;stroke:rgb(0%,0%,0%);stroke-opacity:1;stroke-miterlimit:4;" d="M 497.183594 306.828125 C 497.070312 311.644531 504.191406 310.277344 504.289062 314.300781 C 504.066406 318.5625 492.351562 314.558594 492.234375 306.761719 C 492.726562 298.972656 504.199219 295.125 504.335938 299.578125 C 504.445312 303.273438 497.300781 302.019531 497.183594 306.828125 Z M 497.183594 306.828125 "/>
<path style=" stroke:none;fill-rule:evenodd;fill:rgb(98.822021%,81.959534%,8.627319%);fill-opacity:1;" d="M 501.382812 306.886719 C 501.269531 311.695312 508.390625 310.335938 508.488281 314.355469 C 508.277344 318.613281 496.550781 314.617188 496.433594 306.820312 C 496.921875 299.03125 508.398438 295.183594 508.546875 299.632812 C 508.640625 303.328125 501.507812 302.074219 501.382812 306.886719 Z M 501.382812 306.886719 "/>
<path style="fill:none;stroke-width:0.526593;stroke-linecap:butt;stroke-linejoin:miter;stroke:rgb(0%,0%,0%);stroke-opacity:1;stroke-miterlimit:4;" d="M 501.382812 306.886719 C 501.269531 311.695312 508.390625 310.335938 508.488281 314.355469 C 508.277344 318.613281 496.550781 314.617188 496.433594 306.820312 C 496.925781 299.03125 508.398438 295.183594 508.546875 299.632812 C 508.640625 303.328125 501.503906 302.074219 501.382812 306.886719 Z M 501.382812 306.886719 "/>
<path style=" stroke:none;fill-rule:evenodd;fill:rgb(98.822021%,81.959534%,8.627319%);fill-opacity:1;" d="M 505.890625 306.714844 C 505.777344 311.53125 512.898438 310.164062 512.996094 314.183594 C 512.777344 318.449219 501.058594 314.445312 500.945312 306.648438 C 501.433594 298.859375 512.90625 295.011719 513.046875 299.460938 C 513.148438 303.160156 506.007812 301.902344 505.890625 306.714844 Z M 505.890625 306.714844 "/>
<path style="fill:none;stroke-width:0.526593;stroke-linecap:butt;stroke-linejoin:miter;stroke:rgb(0%,0%,0%);stroke-opacity:1;stroke-miterlimit:4;" d="M 505.894531 306.714844 C 505.777344 311.53125 512.898438 310.164062 512.996094 314.183594 C 512.777344 318.449219 501.058594 314.445312 500.945312 306.648438 C 501.433594 298.863281 512.90625 295.011719 513.042969 299.464844 C 513.152344 303.15625 506.007812 301.902344 505.894531 306.714844 Z M 505.894531 306.714844 "/>
<path style=" stroke:none;fill-rule:evenodd;fill:rgb(98.822021%,81.959534%,8.627319%);fill-opacity:1;" d="M 510.089844 306.769531 C 509.976562 311.582031 517.097656 310.222656 517.195312 314.242188 C 516.976562 318.496094 505.257812 314.503906 505.144531 306.707031 C 505.632812 298.917969 517.105469 295.070312 517.242188 299.519531 C 517.351562 303.214844 510.203125 301.960938 510.089844 306.769531 Z M 510.089844 306.769531 "/>
<path style="fill:none;stroke-width:0.526593;stroke-linecap:butt;stroke-linejoin:miter;stroke:rgb(0%,0%,0%);stroke-opacity:1;stroke-miterlimit:4;" d="M 510.089844 306.769531 C 509.976562 311.582031 517.097656 310.222656 517.195312 314.242188 C 516.976562 318.496094 505.257812 314.503906 505.144531 306.707031 C 505.632812 298.917969 517.105469 295.066406 517.246094 299.519531 C 517.347656 303.214844 510.203125 301.960938 510.089844 306.769531 Z M 510.089844 306.769531 "/>
<path style=" stroke:none;fill-rule:evenodd;fill:rgb(61.175537%,29.019165%,0%);fill-opacity:1;" d="M 534.195312 306.214844 C 534.148438 308.496094 532.285156 310.320312 530.046875 310.277344 C 527.800781 310.246094 526.015625 308.375 526.066406 306.097656 C 526.113281 303.816406 527.972656 302.003906 530.214844 302.035156 C 532.460938 302.066406 534.246094 303.941406 534.195312 306.214844 Z M 534.195312 306.214844 "/>
<path style="fill:none;stroke-width:0.469203;stroke-linecap:butt;stroke-linejoin:miter;stroke:rgb(0%,0%,0%);stroke-opacity:1;stroke-miterlimit:4;" d="M 534.195312 306.21875 C 534.148438 308.496094 532.285156 310.316406 530.046875 310.277344 C 527.796875 310.246094 526.015625 308.371094 526.066406 306.097656 C 526.113281 303.816406 527.96875 302.003906 530.214844 302.035156 C 532.464844 302.066406 534.246094 303.9375 534.195312 306.21875 Z M 534.195312 306.21875 "/>
<path style=" stroke:none;fill-rule:evenodd;fill:rgb(0%,41.960144%,24.705505%);fill-opacity:1;" d="M 509.320312 291.804688 C 509.78125 296.199219 508.550781 300 506.566406 300.300781 C 504.582031 300.601562 502.585938 297.28125 502.117188 292.886719 C 501.652344 288.5 502.882812 284.699219 504.867188 284.398438 C 506.851562 284.097656 508.847656 287.417969 509.320312 291.804688 Z M 509.320312 291.804688 "/>
<path style="fill:none;stroke-width:0.627931;stroke-linecap:butt;stroke-linejoin:miter;stroke:rgb(0%,0%,0%);stroke-opacity:1;stroke-miterlimit:4;" d="M 509.316406 291.804688 C 509.78125 296.199219 508.550781 300 506.566406 300.300781 C 504.582031 300.601562 502.585938 297.28125 502.117188 292.886719 C 501.652344 288.5 502.878906 284.699219 504.867188 284.398438 C 506.851562 284.097656 508.847656 287.417969 509.316406 291.804688 Z M 509.316406 291.804688 "/>
<path style=" stroke:none;fill-rule:evenodd;fill:rgb(0%,41.960144%,24.705505%);fill-opacity:1;" d="M 503.179688 291.324219 C 503.652344 295.710938 502.425781 299.511719 500.441406 299.8125 C 498.453125 300.113281 496.460938 296.800781 495.988281 292.40625 C 495.515625 288.019531 496.753906 284.210938 498.738281 283.910156 C 500.726562 283.617188 502.71875 286.929688 503.179688 291.324219 Z M 503.179688 291.324219 "/>
<path style="fill:none;stroke-width:0.627931;stroke-linecap:butt;stroke-linejoin:miter;stroke:rgb(0%,0%,0%);stroke-opacity:1;stroke-miterlimit:4;" d="M 503.183594 291.324219 C 503.652344 295.710938 502.425781 299.511719 500.4375 299.8125 C 498.453125 300.113281 496.460938 296.800781 495.988281 292.40625 C 495.515625 288.019531 496.753906 284.210938 498.738281 283.910156 C 500.722656 283.617188 502.71875 286.929688 503.183594 291.324219 Z M 503.183594 291.324219 "/>
<path style=" stroke:none;fill-rule:evenodd;fill:rgb(0%,41.960144%,24.705505%);fill-opacity:1;" d="M 498.796875 283.472656 C 499.265625 287.867188 498.03125 291.667969 496.046875 291.96875 C 494.058594 292.269531 492.066406 288.949219 491.601562 284.5625 C 491.128906 280.167969 492.359375 276.367188 494.34375 276.066406 C 496.328125 275.765625 498.324219 279.085938 498.796875 283.472656 Z M 498.796875 283.472656 "/>
<path style="fill:none;stroke-width:0.62793;stroke-linecap:butt;stroke-linejoin:miter;stroke:rgb(0%,0%,0%);stroke-opacity:1;stroke-miterlimit:4;" d="M 498.796875 283.472656 C 499.269531 287.867188 498.03125 291.667969 496.042969 291.96875 C 494.058594 292.269531 492.066406 288.949219 491.601562 284.5625 C 491.128906 280.167969 492.359375 276.367188 494.34375 276.066406 C 496.328125 275.765625 498.324219 279.085938 498.796875 283.472656 Z M 498.796875 283.472656 "/>
<path style=" stroke:none;fill-rule:evenodd;fill:rgb(0%,41.960144%,24.705505%);fill-opacity:1;" d="M 504.867188 283.128906 C 505.386719 287.972656 504.257812 292.144531 502.34375 292.449219 C 500.429688 292.75 498.472656 289.070312 497.949219 284.222656 C 497.4375 279.378906 498.566406 275.203125 500.480469 274.902344 C 502.390625 274.601562 504.355469 278.289062 504.867188 283.128906 Z M 504.867188 283.128906 "/>
<path style="fill:none;stroke-width:0.656764;stroke-linecap:butt;stroke-linejoin:miter;stroke:rgb(0%,0%,0%);stroke-opacity:1;stroke-miterlimit:4;" d="M 504.867188 283.128906 C 505.386719 287.972656 504.257812 292.148438 502.34375 292.449219 C 500.429688 292.75 498.46875 289.070312 497.949219 284.21875 C 497.4375 279.378906 498.566406 275.203125 500.480469 274.902344 C 502.390625 274.601562 504.355469 278.285156 504.867188 283.128906 Z M 504.867188 283.128906 "/>
<path style=" stroke:none;fill-rule:evenodd;fill:rgb(0%,58.430481%,26.274109%);fill-opacity:1;" d="M 513.445312 283.21875 C 513.933594 287.761719 512.769531 291.683594 510.863281 291.976562 C 508.953125 292.277344 507.007812 288.835938 506.527344 284.285156 C 506.039062 279.742188 507.195312 275.824219 509.105469 275.527344 C 511.019531 275.234375 512.964844 278.679688 513.445312 283.21875 Z M 513.445312 283.21875 "/>
<path style="fill:none;stroke-width:0.631402;stroke-linecap:butt;stroke-linejoin:miter;stroke:rgb(0%,0%,0%);stroke-opacity:1;stroke-miterlimit:4;" d="M 513.445312 283.21875 C 513.933594 287.761719 512.769531 291.683594 510.863281 291.976562 C 508.953125 292.277344 507.007812 288.832031 506.527344 284.285156 C 506.039062 279.742188 507.195312 275.820312 509.105469 275.527344 C 511.019531 275.238281 512.964844 278.679688 513.445312 283.21875 Z M 513.445312 283.21875 "/>
<path style=" stroke:none;fill-rule:evenodd;fill:rgb(0%,58.430481%,26.274109%);fill-opacity:1;" d="M 508.730469 280.378906 C 509.222656 284.921875 508.054688 288.84375 506.152344 289.136719 C 504.238281 289.4375 502.296875 285.992188 501.816406 281.453125 C 501.328125 276.902344 502.480469 272.988281 504.394531 272.691406 C 506.304688 272.394531 508.253906 275.835938 508.730469 280.378906 Z M 508.730469 280.378906 "/>
<path style="fill:none;stroke-width:0.631402;stroke-linecap:butt;stroke-linejoin:miter;stroke:rgb(0%,0%,0%);stroke-opacity:1;stroke-miterlimit:4;" d="M 508.734375 280.378906 C 509.222656 284.921875 508.054688 288.84375 506.152344 289.136719 C 504.242188 289.4375 502.296875 285.992188 501.816406 281.453125 C 501.328125 276.902344 502.484375 272.988281 504.394531 272.6875 C 506.308594 272.398438 508.25 275.839844 508.734375 280.378906 Z M 508.734375 280.378906 "/>
<path style=" stroke:none;fill-rule:evenodd;fill:rgb(0%,58.430481%,26.274109%);fill-opacity:1;" d="M 502.792969 276.285156 C 503.269531 280.828125 502.117188 284.75 500.203125 285.042969 C 498.292969 285.335938 496.355469 281.894531 495.867188 277.351562 C 495.386719 272.808594 496.542969 268.886719 498.453125 268.597656 C 500.367188 268.300781 502.300781 271.746094 502.792969 276.285156 Z M 502.792969 276.285156 "/>
<path style="fill:none;stroke-width:0.631402;stroke-linecap:butt;stroke-linejoin:miter;stroke:rgb(0%,0%,0%);stroke-opacity:1;stroke-miterlimit:4;" d="M 502.792969 276.285156 C 503.269531 280.828125 502.117188 284.75 500.203125 285.042969 C 498.292969 285.335938 496.355469 281.894531 495.867188 277.351562 C 495.386719 272.808594 496.542969 268.886719 498.453125 268.597656 C 500.367188 268.300781 502.304688 271.746094 502.792969 276.285156 Z M 502.792969 276.285156 "/>
<path style=" stroke:none;fill-rule:evenodd;fill:rgb(0%,41.960144%,24.705505%);fill-opacity:1;" d="M 497.28125 273.804688 C 497.769531 278.34375 496.613281 282.265625 494.703125 282.558594 C 492.789062 282.855469 490.84375 279.410156 490.363281 274.871094 C 489.878906 270.328125 491.039062 266.40625 492.945312 266.113281 C 494.855469 265.820312 496.800781 269.261719 497.28125 273.804688 Z M 497.28125 273.804688 "/>
<path style="fill:none;stroke-width:0.631402;stroke-linecap:butt;stroke-linejoin:miter;stroke:rgb(0%,0%,0%);stroke-opacity:1;stroke-miterlimit:4;" d="M 497.28125 273.804688 C 497.769531 278.34375 496.613281 282.269531 494.703125 282.558594 C 492.789062 282.851562 490.84375 279.410156 490.363281 274.871094 C 489.875 270.328125 491.039062 266.40625 492.945312 266.113281 C 494.859375 265.820312 496.800781 269.261719 497.28125 273.804688 Z M 497.28125 273.804688 "/>
<path style=" stroke:none;fill-rule:evenodd;fill:rgb(58.03833%,38.038635%,78.822327%);fill-opacity:1;" d="M 487.71875 206.097656 C 487.71875 206.097656 475.511719 216.691406 476.878906 245.378906 C 478.417969 274.234375 503.871094 287.792969 503.871094 287.792969 C 503.871094 287.792969 510.359375 279.605469 509.609375 256.421875 C 507.789062 222.535156 495.769531 207.558594 495.769531 207.558594 Z M 487.71875 206.097656 "/>
<path style="fill:none;stroke-width:0.464005;stroke-linecap:butt;stroke-linejoin:miter;stroke:rgb(0%,0%,0%);stroke-opacity:1;stroke-miterlimit:4;" d="M 487.71875 206.097656 C 487.71875 206.097656 475.511719 216.691406 476.878906 245.378906 C 478.417969 274.234375 503.871094 287.792969 503.871094 287.792969 C 503.871094 287.792969 510.359375 279.605469 509.613281 256.421875 C 507.789062 222.53125 495.765625 207.5625 495.765625 207.5625 Z M 487.71875 206.097656 "/>
<path style=" stroke:none;fill-rule:evenodd;fill:rgb(0%,41.960144%,24.705505%);fill-opacity:1;" d="M 518.863281 293.375 C 518.546875 297.789062 516.660156 301.300781 514.648438 301.246094 C 512.636719 301.1875 511.269531 297.566406 511.585938 293.164062 C 511.914062 288.761719 513.800781 285.238281 515.804688 285.292969 C 517.816406 285.359375 519.179688 288.972656 518.863281 293.375 Z M 518.863281 293.375 "/>
<path style="fill:none;stroke-width:0.56208;stroke-linecap:butt;stroke-linejoin:miter;stroke:rgb(0%,0%,0%);stroke-opacity:1;stroke-miterlimit:4;" d="M 518.863281 293.375 C 518.546875 297.789062 516.660156 301.300781 514.648438 301.246094 C 512.640625 301.1875 511.273438 297.566406 511.589844 293.164062 C 511.914062 288.761719 513.800781 285.238281 515.804688 285.292969 C 517.8125 285.359375 519.179688 288.972656 518.863281 293.375 Z M 518.863281 293.375 "/>
<path style=" stroke:none;fill-rule:evenodd;fill:rgb(0%,41.960144%,24.705505%);fill-opacity:1;" d="M 512.914062 291.8125 C 512.597656 296.214844 510.710938 299.738281 508.699219 299.683594 C 506.691406 299.617188 505.324219 296.003906 505.648438 291.59375 C 505.964844 287.191406 507.855469 283.667969 509.863281 283.730469 C 511.871094 283.789062 513.238281 287.410156 512.914062 291.8125 Z M 512.914062 291.8125 "/>
<path style="fill:none;stroke-width:0.56208;stroke-linecap:butt;stroke-linejoin:miter;stroke:rgb(0%,0%,0%);stroke-opacity:1;stroke-miterlimit:4;" d="M 512.914062 291.8125 C 512.597656 296.214844 510.710938 299.742188 508.699219 299.683594 C 506.6875 299.617188 505.324219 296.003906 505.648438 291.59375 C 505.964844 287.191406 507.851562 283.667969 509.863281 283.730469 C 511.875 283.789062 513.238281 287.410156 512.914062 291.8125 Z M 512.914062 291.8125 "/>
<path style=" stroke:none;fill-rule:evenodd;fill:rgb(0%,41.960144%,24.705505%);fill-opacity:1;" d="M 509.992188 283.308594 C 509.675781 287.710938 507.789062 291.234375 505.777344 291.179688 C 503.769531 291.113281 502.398438 287.5 502.726562 283.089844 C 503.042969 278.6875 504.929688 275.164062 506.941406 275.226562 C 508.953125 275.285156 510.320312 278.90625 509.992188 283.308594 Z M 509.992188 283.308594 "/>
<path style="fill:none;stroke-width:0.56208;stroke-linecap:butt;stroke-linejoin:miter;stroke:rgb(0%,0%,0%);stroke-opacity:1;stroke-miterlimit:4;" d="M 509.992188 283.308594 C 509.675781 287.710938 507.789062 291.234375 505.777344 291.179688 C 503.769531 291.113281 502.402344 287.5 502.726562 283.089844 C 503.042969 278.6875 504.929688 275.160156 506.941406 275.226562 C 508.949219 275.285156 510.320312 278.90625 509.992188 283.308594 Z M 509.992188 283.308594 "/>
<path style=" stroke:none;fill-rule:evenodd;fill:rgb(0%,41.960144%,24.705505%);fill-opacity:1;" d="M 516.039062 284.050781 C 515.679688 288.910156 513.828125 292.816406 511.890625 292.765625 C 509.953125 292.726562 508.675781 288.753906 509.035156 283.894531 C 509.390625 279.039062 511.246094 275.128906 513.183594 275.179688 C 515.113281 275.21875 516.390625 279.191406 516.039062 284.050781 Z M 516.039062 284.050781 "/>
<path style="fill:none;stroke-width:0.570464;stroke-linecap:butt;stroke-linejoin:miter;stroke:rgb(0%,0%,0%);stroke-opacity:1;stroke-miterlimit:4;" d="M 516.039062 284.046875 C 515.683594 288.90625 513.828125 292.8125 511.890625 292.765625 C 509.953125 292.726562 508.675781 288.753906 509.035156 283.894531 C 509.390625 279.035156 511.246094 275.128906 513.183594 275.179688 C 515.113281 275.21875 516.390625 279.191406 516.039062 284.046875 Z M 516.039062 284.046875 "/>
<path style=" stroke:none;fill-rule:evenodd;fill:rgb(0%,41.960144%,24.705505%);fill-opacity:1;" d="M 524.453125 285.667969 C 524.121094 290.21875 522.289062 293.871094 520.355469 293.824219 C 518.425781 293.773438 517.121094 290.039062 517.457031 285.480469 C 517.789062 280.933594 519.628906 277.277344 521.558594 277.328125 C 523.492188 277.378906 524.789062 281.113281 524.453125 285.667969 Z M 524.453125 285.667969 "/>
<path style="fill:none;stroke-width:0.556424;stroke-linecap:butt;stroke-linejoin:miter;stroke:rgb(0%,0%,0%);stroke-opacity:1;stroke-miterlimit:4;" d="M 524.453125 285.667969 C 524.121094 290.21875 522.289062 293.871094 520.351562 293.824219 C 518.425781 293.773438 517.121094 290.039062 517.457031 285.484375 C 517.789062 280.933594 519.628906 277.28125 521.558594 277.328125 C 523.492188 277.378906 524.789062 281.113281 524.453125 285.667969 Z M 524.453125 285.667969 "/>
<path style=" stroke:none;fill-rule:evenodd;fill:rgb(0%,41.960144%,24.705505%);fill-opacity:1;" d="M 520.328125 282.03125 C 519.996094 286.585938 518.15625 290.242188 516.226562 290.195312 C 514.289062 290.144531 512.996094 286.410156 513.328125 281.851562 C 513.664062 277.296875 515.496094 273.640625 517.429688 273.699219 C 519.367188 273.746094 520.664062 277.476562 520.328125 282.03125 Z M 520.328125 282.03125 "/>
<path style="fill:none;stroke-width:0.556424;stroke-linecap:butt;stroke-linejoin:miter;stroke:rgb(0%,0%,0%);stroke-opacity:1;stroke-miterlimit:4;" d="M 520.328125 282.03125 C 519.996094 286.585938 518.15625 290.242188 516.226562 290.191406 C 514.289062 290.144531 512.996094 286.410156 513.328125 281.851562 C 513.664062 277.292969 515.492188 273.640625 517.433594 273.699219 C 519.367188 273.746094 520.664062 277.472656 520.328125 282.03125 Z M 520.328125 282.03125 "/>
<path style=" stroke:none;fill-rule:evenodd;fill:rgb(0%,41.960144%,24.705505%);fill-opacity:1;" d="M 515.210938 276.945312 C 514.878906 281.503906 513.039062 285.148438 511.109375 285.101562 C 509.171875 285.050781 507.878906 281.316406 508.210938 276.765625 C 508.546875 272.207031 510.375 268.554688 512.3125 268.605469 C 514.242188 268.652344 515.542969 272.386719 515.210938 276.945312 Z M 515.210938 276.945312 "/>
<path style="fill:none;stroke-width:0.556424;stroke-linecap:butt;stroke-linejoin:miter;stroke:rgb(0%,0%,0%);stroke-opacity:1;stroke-miterlimit:4;" d="M 515.210938 276.945312 C 514.875 281.503906 513.039062 285.148438 511.109375 285.101562 C 509.171875 285.050781 507.878906 281.316406 508.210938 276.765625 C 508.542969 272.210938 510.375 268.554688 512.3125 268.605469 C 514.242188 268.652344 515.542969 272.386719 515.210938 276.945312 Z M 515.210938 276.945312 "/>
<path style=" stroke:none;fill-rule:evenodd;fill:rgb(0%,41.960144%,24.705505%);fill-opacity:1;" d="M 510.238281 273.519531 C 509.902344 278.078125 508.066406 281.730469 506.128906 281.679688 C 504.199219 281.632812 502.90625 277.898438 503.230469 273.339844 C 503.566406 268.785156 505.402344 265.128906 507.339844 265.183594 C 509.269531 265.234375 510.570312 268.960938 510.238281 273.519531 Z M 510.238281 273.519531 "/>
<path style="fill:none;stroke-width:0.556424;stroke-linecap:butt;stroke-linejoin:miter;stroke:rgb(0%,0%,0%);stroke-opacity:1;stroke-miterlimit:4;" d="M 510.238281 273.519531 C 509.902344 278.078125 508.066406 281.730469 506.128906 281.679688 C 504.199219 281.632812 502.90625 277.898438 503.230469 273.339844 C 503.5625 268.78125 505.402344 265.128906 507.339844 265.1875 C 509.269531 265.234375 510.570312 268.960938 510.238281 273.519531 Z M 510.238281 273.519531 "/>
<path style=" stroke:none;fill-rule:evenodd;fill:rgb(83.135986%,10.980225%,18.823242%);fill-opacity:1;" d="M 523.234375 251.667969 C 530.117188 267.734375 531.394531 282.414062 526.089844 284.457031 C 520.785156 286.507812 510.894531 275.152344 504.011719 259.097656 C 497.128906 243.035156 495.839844 228.359375 501.15625 226.308594 C 506.460938 224.261719 516.339844 235.613281 523.234375 251.667969 Z M 523.234375 251.667969 "/>
<path style="fill:none;stroke-width:0.182738;stroke-linecap:butt;stroke-linejoin:miter;stroke:rgb(0%,0%,0%);stroke-opacity:1;stroke-miterlimit:4;" d="M 523.234375 251.667969 C 530.121094 267.734375 531.394531 282.414062 526.089844 284.457031 C 520.785156 286.507812 510.898438 275.152344 504.011719 259.097656 C 497.128906 243.035156 495.839844 228.359375 501.15625 226.308594 C 506.460938 224.257812 516.339844 235.613281 523.234375 251.667969 Z M 523.234375 251.667969 "/>
<path style=" stroke:none;fill-rule:evenodd;fill:rgb(0%,58.430481%,26.274109%);fill-opacity:1;" d="M 510.191406 225.738281 C 510.148438 227.929688 508.105469 229.671875 505.621094 229.632812 C 503.140625 229.582031 501.164062 227.773438 501.203125 225.578125 C 501.238281 223.390625 503.289062 221.648438 505.769531 221.695312 C 508.253906 221.738281 510.230469 223.550781 510.191406 225.738281 Z M 510.191406 225.738281 "/>
<path style="fill:none;stroke-width:0.525671;stroke-linecap:butt;stroke-linejoin:miter;stroke:rgb(0%,0%,0%);stroke-opacity:1;stroke-miterlimit:4;" d="M 510.191406 225.742188 C 510.148438 227.929688 508.105469 229.671875 505.621094 229.628906 C 503.140625 229.582031 501.164062 227.773438 501.203125 225.578125 C 501.238281 223.390625 503.289062 221.648438 505.769531 221.695312 C 508.25 221.734375 510.226562 223.550781 510.191406 225.742188 Z M 510.191406 225.742188 "/>
<path style=" stroke:none;fill-rule:evenodd;fill:rgb(0%,58.430481%,26.274109%);fill-opacity:1;" d="M 513.101562 220.125 C 513.0625 222.316406 511.230469 224.054688 509 224.015625 C 506.777344 223.976562 505.003906 222.167969 505.046875 219.980469 C 505.085938 217.789062 506.917969 216.039062 509.148438 216.082031 C 511.367188 216.121094 513.136719 217.925781 513.101562 220.125 Z M 513.101562 220.125 "/>
<path style="fill:none;stroke-width:0.524604;stroke-linecap:butt;stroke-linejoin:miter;stroke:rgb(0%,0%,0%);stroke-opacity:1;stroke-miterlimit:4;" d="M 513.101562 220.125 C 513.0625 222.3125 511.230469 224.054688 509 224.015625 C 506.777344 223.972656 505.003906 222.167969 505.042969 219.976562 C 505.085938 217.789062 506.917969 216.039062 509.148438 216.082031 C 511.371094 216.121094 513.136719 217.929688 513.101562 220.125 Z M 513.101562 220.125 "/>
<path style=" stroke:none;fill-rule:evenodd;fill:rgb(0%,58.430481%,26.274109%);fill-opacity:1;" d="M 507.667969 220.027344 C 507.632812 222.214844 505.792969 223.957031 503.574219 223.917969 C 501.351562 223.886719 499.578125 222.070312 499.617188 219.882812 C 499.660156 217.691406 501.488281 215.941406 503.710938 215.984375 C 505.941406 216.023438 507.707031 217.832031 507.667969 220.027344 Z M 507.667969 220.027344 "/>
<path style="fill:none;stroke-width:0.524604;stroke-linecap:butt;stroke-linejoin:miter;stroke:rgb(0%,0%,0%);stroke-opacity:1;stroke-miterlimit:4;" d="M 507.664062 220.027344 C 507.632812 222.21875 505.792969 223.957031 503.570312 223.917969 C 501.351562 223.886719 499.578125 222.070312 499.617188 219.882812 C 499.660156 217.691406 501.488281 215.941406 503.710938 215.980469 C 505.941406 216.023438 507.707031 217.828125 507.664062 220.027344 Z M 507.664062 220.027344 "/>
<path style=" stroke:none;fill-rule:evenodd;fill:rgb(0%,41.960144%,24.705505%);fill-opacity:1;" d="M 509.058594 215.917969 C 509.015625 217.976562 507.105469 219.613281 504.777344 219.574219 C 502.449219 219.523438 500.59375 217.824219 500.628906 215.769531 C 500.667969 213.710938 502.578125 212.078125 504.90625 212.117188 C 507.234375 212.160156 509.089844 213.859375 509.058594 215.917969 Z M 509.058594 215.917969 "/>
<path style="fill:none;stroke-width:0.525655;stroke-linecap:butt;stroke-linejoin:miter;stroke:rgb(0%,0%,0%);stroke-opacity:1;stroke-miterlimit:4;" d="M 509.058594 215.917969 C 509.015625 217.976562 507.105469 219.613281 504.777344 219.570312 C 502.449219 219.523438 500.59375 217.824219 500.625 215.769531 C 500.667969 213.710938 502.582031 212.078125 504.90625 212.117188 C 507.234375 212.160156 509.089844 213.859375 509.058594 215.917969 Z M 509.058594 215.917969 "/>
<path style=" stroke:none;fill-rule:evenodd;fill:rgb(0%,41.960144%,24.705505%);fill-opacity:1;" d="M 508.578125 211.214844 C 508.539062 213.273438 506.625 214.898438 504.296875 214.859375 C 501.96875 214.820312 500.113281 213.117188 500.144531 211.058594 C 500.1875 209.007812 502.101562 207.371094 504.425781 207.414062 C 506.753906 207.453125 508.609375 209.15625 508.578125 211.214844 Z M 508.578125 211.214844 "/>
<path style="fill:none;stroke-width:0.525655;stroke-linecap:butt;stroke-linejoin:miter;stroke:rgb(0%,0%,0%);stroke-opacity:1;stroke-miterlimit:4;" d="M 508.578125 211.214844 C 508.535156 213.273438 506.625 214.902344 504.296875 214.859375 C 501.96875 214.820312 500.113281 213.117188 500.144531 211.058594 C 500.1875 209.007812 502.097656 207.371094 504.425781 207.414062 C 506.753906 207.453125 508.609375 209.15625 508.578125 211.214844 Z M 508.578125 211.214844 "/>
<path style=" stroke:none;fill-rule:evenodd;fill:rgb(0%,41.960144%,24.705505%);fill-opacity:1;" d="M 502.480469 216.855469 C 502.441406 219.042969 500.609375 220.792969 498.382812 220.753906 C 496.160156 220.710938 494.394531 218.902344 494.425781 216.707031 C 494.464844 214.519531 496.304688 212.777344 498.527344 212.816406 C 500.746094 212.859375 502.523438 214.664062 502.480469 216.855469 Z M 502.480469 216.855469 "/>
<path style="fill:none;stroke-width:0.524604;stroke-linecap:butt;stroke-linejoin:miter;stroke:rgb(0%,0%,0%);stroke-opacity:1;stroke-miterlimit:4;" d="M 502.484375 216.855469 C 502.441406 219.042969 500.609375 220.792969 498.378906 220.753906 C 496.15625 220.710938 494.394531 218.90625 494.425781 216.707031 C 494.464844 214.519531 496.304688 212.777344 498.527344 212.816406 C 500.75 212.859375 502.523438 214.664062 502.484375 216.855469 Z M 502.484375 216.855469 "/>
<path style=" stroke:none;fill-rule:evenodd;fill:rgb(0%,41.960144%,24.705505%);fill-opacity:1;" d="M 503.695312 211.773438 C 503.652344 213.917969 501.824219 215.625 499.601562 215.582031 C 497.378906 215.550781 495.605469 213.777344 495.644531 211.628906 C 495.679688 209.480469 497.519531 207.769531 499.738281 207.8125 C 501.960938 207.855469 503.734375 209.628906 503.695312 211.773438 Z M 503.695312 211.773438 "/>
<path style="fill:none;stroke-width:0.524823;stroke-linecap:butt;stroke-linejoin:miter;stroke:rgb(0%,0%,0%);stroke-opacity:1;stroke-miterlimit:4;" d="M 503.695312 211.777344 C 503.652344 213.917969 501.824219 215.625 499.601562 215.582031 C 497.378906 215.550781 495.605469 213.777344 495.644531 211.628906 C 495.679688 209.480469 497.519531 207.769531 499.738281 207.8125 C 501.960938 207.855469 503.734375 209.625 503.695312 211.777344 Z M 503.695312 211.777344 "/>
<path style=" stroke:none;fill-rule:evenodd;fill:rgb(0%,41.960144%,24.705505%);fill-opacity:1;" d="M 497.511719 211.90625 C 497.46875 214.097656 495.425781 215.835938 492.945312 215.796875 C 490.460938 215.746094 488.484375 213.941406 488.523438 211.742188 C 488.566406 209.554688 490.609375 207.8125 493.089844 207.859375 C 495.574219 207.902344 497.550781 209.714844 497.511719 211.90625 Z M 497.511719 211.90625 "/>
<path style="fill:none;stroke-width:0.525671;stroke-linecap:butt;stroke-linejoin:miter;stroke:rgb(0%,0%,0%);stroke-opacity:1;stroke-miterlimit:4;" d="M 497.507812 211.90625 C 497.46875 214.09375 495.425781 215.835938 492.945312 215.796875 C 490.464844 215.746094 488.484375 213.941406 488.527344 211.742188 C 488.566406 209.554688 490.609375 207.8125 493.089844 207.863281 C 495.574219 207.902344 497.550781 209.71875 497.507812 211.90625 Z M 497.507812 211.90625 "/>
<path style=" stroke:none;fill-rule:evenodd;fill:rgb(0%,41.960144%,24.705505%);fill-opacity:1;" d="M 505.492188 205.324219 C 505.460938 207.382812 503.539062 209.015625 501.210938 208.976562 C 498.894531 208.933594 497.027344 207.234375 497.070312 205.175781 C 497.101562 203.117188 499.023438 201.480469 501.351562 201.519531 C 503.679688 201.570312 505.535156 203.269531 505.492188 205.324219 Z M 505.492188 205.324219 "/>
<path style="fill:none;stroke-width:0.525655;stroke-linecap:butt;stroke-linejoin:miter;stroke:rgb(0%,0%,0%);stroke-opacity:1;stroke-miterlimit:4;" d="M 505.492188 205.324219 C 505.460938 207.382812 503.539062 209.015625 501.210938 208.976562 C 498.894531 208.933594 497.027344 207.234375 497.070312 205.175781 C 497.101562 203.117188 499.023438 201.480469 501.351562 201.523438 C 503.679688 201.570312 505.535156 203.269531 505.492188 205.324219 Z M 505.492188 205.324219 "/>
<path style=" stroke:none;fill-rule:evenodd;fill:rgb(0%,41.960144%,24.705505%);fill-opacity:1;" d="M 499.675781 206.03125 C 499.640625 208.179688 497.800781 209.886719 495.582031 209.847656 C 493.359375 209.804688 491.585938 208.03125 491.625 205.890625 C 491.667969 203.742188 493.496094 202.035156 495.71875 202.074219 C 497.941406 202.117188 499.714844 203.882812 499.675781 206.03125 Z M 499.675781 206.03125 "/>
<path style="fill:none;stroke-width:0.524823;stroke-linecap:butt;stroke-linejoin:miter;stroke:rgb(0%,0%,0%);stroke-opacity:1;stroke-miterlimit:4;" d="M 499.675781 206.03125 C 499.640625 208.179688 497.804688 209.886719 495.582031 209.847656 C 493.359375 209.804688 491.585938 208.03125 491.625 205.890625 C 491.667969 203.742188 493.496094 202.035156 495.71875 202.074219 C 497.941406 202.117188 499.714844 203.882812 499.675781 206.03125 Z M 499.675781 206.03125 "/>
<path style=" stroke:none;fill-rule:evenodd;fill:rgb(0%,41.960144%,24.705505%);fill-opacity:1;" d="M 491.136719 212.117188 C 491.097656 214.304688 489.265625 216.054688 487.042969 216.015625 C 484.824219 215.976562 483.046875 214.167969 483.089844 211.972656 C 483.128906 209.78125 484.960938 208.039062 487.183594 208.082031 C 489.402344 208.113281 491.179688 209.929688 491.136719 212.117188 Z M 491.136719 212.117188 "/>
<path style="fill:none;stroke-width:0.524604;stroke-linecap:butt;stroke-linejoin:miter;stroke:rgb(0%,0%,0%);stroke-opacity:1;stroke-miterlimit:4;" d="M 491.136719 212.117188 C 491.097656 214.308594 489.265625 216.054688 487.042969 216.015625 C 484.820312 215.976562 483.050781 214.167969 483.089844 211.96875 C 483.128906 209.78125 484.960938 208.039062 487.183594 208.082031 C 489.40625 208.113281 491.175781 209.929688 491.136719 212.117188 Z M 491.136719 212.117188 "/>
<path style=" stroke:none;fill-rule:evenodd;fill:rgb(0%,41.960144%,24.705505%);fill-opacity:1;" d="M 492.539062 209.15625 C 492.496094 211.304688 490.667969 213.011719 488.445312 212.972656 C 486.222656 212.929688 484.449219 211.15625 484.488281 209.015625 C 484.519531 206.867188 486.359375 205.160156 488.582031 205.199219 C 490.804688 205.242188 492.578125 207.007812 492.539062 209.15625 Z M 492.539062 209.15625 "/>
<path style="fill:none;stroke-width:0.524823;stroke-linecap:butt;stroke-linejoin:miter;stroke:rgb(0%,0%,0%);stroke-opacity:1;stroke-miterlimit:4;" d="M 492.539062 209.15625 C 492.496094 211.304688 490.667969 213.011719 488.441406 212.972656 C 486.222656 212.929688 484.449219 211.15625 484.488281 209.015625 C 484.519531 206.867188 486.359375 205.160156 488.582031 205.199219 C 490.804688 205.242188 492.578125 207.007812 492.539062 209.15625 Z M 492.539062 209.15625 "/>
<path style=" stroke:none;fill-rule:evenodd;fill:rgb(0%,41.960144%,24.705505%);fill-opacity:1;" d="M 494.246094 205.882812 C 494.207031 208.03125 492.375 209.742188 490.152344 209.699219 C 487.929688 209.660156 486.15625 207.886719 486.199219 205.746094 C 486.230469 203.597656 488.070312 201.886719 490.292969 201.929688 C 492.511719 201.96875 494.289062 203.734375 494.246094 205.882812 Z M 494.246094 205.882812 "/>
<path style="fill:none;stroke-width:0.524823;stroke-linecap:butt;stroke-linejoin:miter;stroke:rgb(0%,0%,0%);stroke-opacity:1;stroke-miterlimit:4;" d="M 494.246094 205.882812 C 494.207031 208.03125 492.375 209.742188 490.152344 209.699219 C 487.929688 209.660156 486.15625 207.886719 486.199219 205.746094 C 486.230469 203.597656 488.070312 201.886719 490.289062 201.929688 C 492.511719 201.96875 494.285156 203.734375 494.246094 205.882812 Z M 494.246094 205.882812 "/>
<path style=" stroke:none;fill-rule:evenodd;fill:rgb(0%,41.960144%,24.705505%);fill-opacity:1;" d="M 528.949219 246.101562 C 537.167969 265.226562 538.304688 282.675781 531.503906 285.074219 C 524.691406 287.484375 512.515625 273.925781 504.296875 254.808594 C 496.078125 235.683594 494.9375 218.238281 501.742188 215.835938 C 508.546875 213.433594 520.726562 226.984375 528.949219 246.101562 Z M 528.949219 246.101562 "/>
<path style="fill:none;stroke-width:0.414194;stroke-linecap:butt;stroke-linejoin:miter;stroke:rgb(0%,0%,0%);stroke-opacity:1;stroke-miterlimit:4;" d="M 528.949219 246.101562 C 537.167969 265.226562 538.304688 282.671875 531.503906 285.074219 C 524.691406 287.484375 512.515625 273.925781 504.296875 254.808594 C 496.078125 235.683594 494.9375 218.238281 501.742188 215.835938 C 508.546875 213.4375 520.726562 226.984375 528.949219 246.101562 Z M 528.949219 246.101562 "/>
<path style=" stroke:none;fill-rule:evenodd;fill:rgb(0%,41.960144%,24.705505%);fill-opacity:1;" d="M 529.652344 255.421875 C 531.429688 259.398438 531.851562 263.109375 530.589844 263.710938 C 529.328125 264.304688 526.863281 261.574219 525.082031 257.59375 C 523.308594 253.613281 522.882812 249.902344 524.144531 249.300781 C 525.40625 248.699219 527.871094 251.441406 529.652344 255.421875 Z M 529.652344 255.421875 "/>
<path style="fill:none;stroke-width:0.385752;stroke-linecap:butt;stroke-linejoin:miter;stroke:rgb(0%,0%,0%);stroke-opacity:1;stroke-miterlimit:4;" d="M 529.65625 255.417969 C 531.429688 259.398438 531.851562 263.113281 530.589844 263.710938 C 529.328125 264.304688 526.863281 261.570312 525.082031 257.59375 C 523.308594 253.613281 522.882812 249.902344 524.144531 249.300781 C 525.40625 248.699219 527.871094 251.441406 529.65625 255.417969 Z M 529.65625 255.417969 "/>
<path style=" stroke:none;fill-rule:evenodd;fill:rgb(0%,41.960144%,24.705505%);fill-opacity:1;" d="M 526.222656 256.503906 C 536.898438 269.496094 535.546875 277.75 534.429688 284.734375 C 531.078125 276.683594 529.246094 271.613281 518.570312 258.609375 C 507.894531 245.613281 513.226562 236.492188 513.957031 231.679688 C 515.558594 235.839844 515.542969 243.496094 526.222656 256.503906 Z M 526.222656 256.503906 "/>
<path style="fill:none;stroke-width:0.401986;stroke-linecap:butt;stroke-linejoin:miter;stroke:rgb(0%,0%,0%);stroke-opacity:1;stroke-miterlimit:4;" d="M 526.21875 256.503906 C 536.898438 269.5 535.546875 277.75 534.433594 284.734375 C 531.078125 276.683594 529.25 271.613281 518.570312 258.609375 C 507.894531 245.613281 513.226562 236.492188 513.957031 231.683594 C 515.558594 235.839844 515.542969 243.496094 526.21875 256.503906 Z M 526.21875 256.503906 "/>
<path style=" stroke:none;fill-rule:evenodd;fill:rgb(0%,41.960144%,24.705505%);fill-opacity:1;" d="M 527.179688 267 C 537.859375 279.996094 536.507812 288.246094 535.390625 295.230469 C 532.039062 287.183594 530.207031 282.113281 519.53125 269.109375 C 508.855469 256.113281 514.183594 246.988281 514.917969 242.179688 C 516.519531 246.347656 516.503906 253.996094 527.179688 267 Z M 527.179688 267 "/>
<path style="fill:none;stroke-width:0.401986;stroke-linecap:butt;stroke-linejoin:miter;stroke:rgb(0%,0%,0%);stroke-opacity:1;stroke-miterlimit:4;" d="M 527.179688 267 C 537.859375 279.996094 536.507812 288.25 535.390625 295.230469 C 532.039062 287.183594 530.207031 282.113281 519.53125 269.109375 C 508.855469 256.113281 514.183594 246.988281 514.917969 242.179688 C 516.519531 246.347656 516.503906 253.996094 527.179688 267 Z M 527.179688 267 "/>
<path style=" stroke:none;fill-rule:evenodd;fill:rgb(0%,41.960144%,24.705505%);fill-opacity:1;" d="M 527.496094 275.457031 C 538.433594 288.226562 537.257812 296.5 536.277344 303.507812 C 532.765625 295.53125 530.835938 290.503906 519.898438 277.726562 C 508.960938 264.957031 514.109375 255.730469 514.746094 250.902344 C 516.429688 255.027344 516.570312 262.6875 527.496094 275.457031 Z M 527.496094 275.457031 "/>
<path style="fill:none;stroke-width:0.384398;stroke-linecap:butt;stroke-linejoin:miter;stroke:rgb(0%,0%,0%);stroke-opacity:1;stroke-miterlimit:4;" d="M 527.5 275.457031 C 538.4375 288.226562 537.253906 296.5 536.28125 303.507812 C 532.765625 295.53125 530.832031 290.503906 519.894531 277.726562 C 508.960938 264.957031 514.113281 255.730469 514.746094 250.902344 C 516.429688 255.027344 516.570312 262.6875 527.5 275.457031 Z M 527.5 275.457031 "/>
<path style=" stroke:none;fill-rule:evenodd;fill:rgb(0%,41.960144%,24.705505%);fill-opacity:1;" d="M 524.445312 243.101562 C 527.578125 250.1875 528.089844 256.453125 525.59375 257.085938 C 523.097656 257.722656 518.523438 252.488281 515.390625 245.402344 C 512.257812 238.304688 511.742188 232.046875 514.242188 231.402344 C 516.738281 230.769531 521.3125 236.003906 524.445312 243.101562 Z M 524.445312 243.101562 "/>
<path style="fill:none;stroke-width:0.459149;stroke-linecap:butt;stroke-linejoin:miter;stroke:rgb(0%,0%,0%);stroke-opacity:1;stroke-miterlimit:4;" d="M 524.445312 243.097656 C 527.578125 250.1875 528.09375 256.453125 525.59375 257.085938 C 523.097656 257.722656 518.523438 252.488281 515.390625 245.402344 C 512.253906 238.304688 511.742188 232.046875 514.242188 231.402344 C 516.738281 230.769531 521.3125 236.003906 524.445312 243.097656 Z M 524.445312 243.097656 "/>
<path style=" stroke:none;fill-rule:evenodd;fill:rgb(0%,41.960144%,24.705505%);fill-opacity:1;" d="M 519.75 250.765625 C 522.191406 256.640625 522.339844 261.710938 520.09375 262.09375 C 517.835938 262.484375 514.046875 258.039062 511.605469 252.164062 C 509.171875 246.296875 509.015625 241.226562 511.261719 240.835938 C 513.515625 240.453125 517.316406 244.898438 519.75 250.765625 Z M 519.75 250.765625 "/>
<path style="fill:none;stroke-width:0.481083;stroke-linecap:butt;stroke-linejoin:miter;stroke:rgb(0%,0%,0%);stroke-opacity:1;stroke-miterlimit:4;" d="M 519.75 250.765625 C 522.191406 256.640625 522.339844 261.710938 520.09375 262.09375 C 517.839844 262.484375 514.046875 258.039062 511.605469 252.164062 C 509.171875 246.296875 509.015625 241.226562 511.261719 240.835938 C 513.515625 240.453125 517.316406 244.898438 519.75 250.765625 Z M 519.75 250.765625 "/>
<path style=" stroke:none;fill-rule:evenodd;fill:rgb(0%,41.960144%,24.705505%);fill-opacity:1;" d="M 514.707031 255.761719 C 517.015625 261.675781 517.066406 266.757812 514.808594 267.089844 C 512.546875 267.429688 508.847656 262.90625 506.535156 256.988281 C 504.214844 251.066406 504.175781 245.996094 506.429688 245.652344 C 508.683594 245.3125 512.394531 249.835938 514.707031 255.761719 Z M 514.707031 255.761719 "/>
<path style="fill:none;stroke-width:0.488441;stroke-linecap:butt;stroke-linejoin:miter;stroke:rgb(0%,0%,0%);stroke-opacity:1;stroke-miterlimit:4;" d="M 514.707031 255.761719 C 517.015625 261.675781 517.0625 266.753906 514.8125 267.089844 C 512.550781 267.433594 508.84375 262.90625 506.535156 256.988281 C 504.214844 251.066406 504.175781 245.996094 506.429688 245.652344 C 508.683594 245.3125 512.394531 249.835938 514.707031 255.761719 Z M 514.707031 255.761719 "/>
<path style=" stroke:none;fill-rule:evenodd;fill:rgb(0%,41.960144%,24.705505%);fill-opacity:1;" d="M 518.101562 238.003906 C 520.199219 242.382812 520.417969 246.199219 518.605469 246.535156 C 516.78125 246.867188 513.605469 243.585938 511.515625 239.214844 C 509.421875 234.839844 509.195312 231.023438 511.019531 230.6875 C 512.832031 230.355469 516.007812 233.636719 518.101562 238.003906 Z M 518.101562 238.003906 "/>
<path style="fill:none;stroke-width:0.471906;stroke-linecap:butt;stroke-linejoin:miter;stroke:rgb(0%,0%,0%);stroke-opacity:1;stroke-miterlimit:4;" d="M 518.101562 238.003906 C 520.199219 242.382812 520.417969 246.199219 518.601562 246.53125 C 516.78125 246.867188 513.605469 243.585938 511.515625 239.21875 C 509.421875 234.839844 509.195312 231.023438 511.019531 230.6875 C 512.832031 230.355469 516.007812 233.636719 518.101562 238.003906 Z M 518.101562 238.003906 "/>
<path style=" stroke:none;fill-rule:evenodd;fill:rgb(0%,41.960144%,24.705505%);fill-opacity:1;" d="M 513.84375 241.480469 C 515.660156 245.960938 515.648438 249.78125 513.808594 250.015625 C 511.972656 250.253906 509.007812 246.800781 507.195312 242.324219 C 505.378906 237.839844 505.386719 234.015625 507.226562 233.78125 C 509.066406 233.550781 512.027344 236.996094 513.84375 241.480469 Z M 513.84375 241.480469 "/>
<path style="fill:none;stroke-width:0.492791;stroke-linecap:butt;stroke-linejoin:miter;stroke:rgb(0%,0%,0%);stroke-opacity:1;stroke-miterlimit:4;" d="M 513.84375 241.480469 C 515.65625 245.960938 515.648438 249.78125 513.808594 250.015625 C 511.972656 250.253906 509.007812 246.800781 507.195312 242.324219 C 505.378906 237.84375 505.386719 234.015625 507.226562 233.78125 C 509.066406 233.550781 512.027344 236.996094 513.84375 241.480469 Z M 513.84375 241.480469 "/>
<path style=" stroke:none;fill-rule:evenodd;fill:rgb(0%,41.960144%,24.705505%);fill-opacity:1;" d="M 507.183594 236.855469 C 510.34375 244.574219 511.621094 251.507812 510.035156 252.34375 C 508.449219 253.171875 504.605469 247.589844 501.449219 239.878906 Z M 507.183594 236.855469 "/>
<path style="fill:none;stroke-width:0.394827;stroke-linecap:butt;stroke-linejoin:miter;stroke:rgb(0%,0%,0%);stroke-opacity:1;stroke-miterlimit:4;" d="M 507.1875 236.855469 C 510.34375 244.570312 511.621094 251.503906 510.035156 252.34375 C 508.445312 253.175781 504.605469 247.59375 501.449219 239.875 "/>
<path style=" stroke:none;fill-rule:evenodd;fill:rgb(0%,41.960144%,24.705505%);fill-opacity:1;" d="M 513.324219 232.421875 C 515.144531 236.898438 515.128906 240.722656 513.289062 240.957031 C 511.449219 241.1875 508.488281 237.742188 506.671875 233.261719 C 504.859375 228.773438 504.875 224.957031 506.707031 224.722656 C 508.546875 224.488281 511.507812 227.9375 513.324219 232.421875 Z M 513.324219 232.421875 "/>
<path style="fill:none;stroke-width:0.492791;stroke-linecap:butt;stroke-linejoin:miter;stroke:rgb(0%,0%,0%);stroke-opacity:1;stroke-miterlimit:4;" d="M 513.324219 232.421875 C 515.144531 236.898438 515.128906 240.722656 513.289062 240.960938 C 511.453125 241.1875 508.488281 237.746094 506.671875 233.261719 C 504.859375 228.777344 504.875 224.960938 506.707031 224.722656 C 508.546875 224.488281 511.507812 227.9375 513.324219 232.421875 Z M 513.324219 232.421875 "/>
<path style=" stroke:none;fill-rule:evenodd;fill:rgb(0%,41.960144%,24.705505%);fill-opacity:1;" d="M 508.046875 235.023438 C 509.765625 239.542969 509.667969 243.367188 507.820312 243.5625 C 505.980469 243.757812 503.101562 240.257812 501.382812 235.742188 C 499.667969 231.226562 499.765625 227.398438 501.605469 227.207031 C 503.449219 227.011719 506.332031 230.511719 508.046875 235.023438 Z M 508.046875 235.023438 "/>
<path style="fill:none;stroke-width:0.499293;stroke-linecap:butt;stroke-linejoin:miter;stroke:rgb(0%,0%,0%);stroke-opacity:1;stroke-miterlimit:4;" d="M 508.046875 235.027344 C 509.765625 239.542969 509.667969 243.367188 507.820312 243.5625 C 505.980469 243.757812 503.101562 240.257812 501.382812 235.742188 C 499.664062 231.226562 499.765625 227.402344 501.605469 227.203125 C 503.449219 227.011719 506.332031 230.511719 508.046875 235.027344 Z M 508.046875 235.027344 "/>
<path style=" stroke:none;fill-rule:evenodd;fill:rgb(0%,41.960144%,24.705505%);fill-opacity:1;" d="M 501.683594 226.382812 C 504.753906 231.601562 506.402344 236.464844 505.371094 237.246094 C 504.335938 238.039062 501.015625 234.441406 497.949219 229.230469 Z M 501.683594 226.382812 "/>
<path style="fill:none;stroke-width:0.322258;stroke-linecap:butt;stroke-linejoin:miter;stroke:rgb(0%,0%,0%);stroke-opacity:1;stroke-miterlimit:4;" d="M 501.683594 226.382812 C 504.753906 231.597656 506.40625 236.46875 505.371094 237.246094 C 504.335938 238.039062 501.015625 234.441406 497.949219 229.230469 "/>
<path style=" stroke:none;fill-rule:evenodd;fill:rgb(0%,41.960144%,24.705505%);fill-opacity:1;" d="M 503.808594 222.933594 C 506.878906 228.140625 508.527344 233.007812 507.496094 233.796875 C 506.460938 234.578125 503.132812 230.988281 500.074219 225.773438 Z M 503.808594 222.933594 "/>
<path style="fill:none;stroke-width:0.322258;stroke-linecap:butt;stroke-linejoin:miter;stroke:rgb(0%,0%,0%);stroke-opacity:1;stroke-miterlimit:4;" d="M 503.808594 222.933594 C 506.875 228.144531 508.53125 233.007812 507.496094 233.796875 C 506.460938 234.578125 503.132812 230.988281 500.074219 225.773438 "/>
<path style=" stroke:none;fill-rule:evenodd;fill:rgb(0%,41.960144%,24.705505%);fill-opacity:1;" d="M 513.347656 223.65625 C 517.617188 230.777344 519.914062 237.425781 518.472656 238.5 C 517.035156 239.574219 512.402344 234.667969 508.128906 227.554688 Z M 513.347656 223.65625 "/>
<path style="fill:none;stroke-width:0.321931;stroke-linecap:butt;stroke-linejoin:miter;stroke:rgb(0%,0%,0%);stroke-opacity:1;stroke-miterlimit:4;" d="M 513.347656 223.660156 C 517.617188 230.78125 519.914062 237.425781 518.472656 238.5 C 517.03125 239.574219 512.402344 234.667969 508.128906 227.554688 "/>
<path style=" stroke:none;fill-rule:evenodd;fill:rgb(0%,41.960144%,24.705505%);fill-opacity:1;" d="M 507.046875 219.929688 C 510.121094 225.683594 511.785156 231.054688 510.75 231.917969 C 509.726562 232.777344 506.386719 228.816406 503.3125 223.0625 Z M 507.046875 219.929688 "/>
<path style="fill:none;stroke-width:0.32375;stroke-linecap:butt;stroke-linejoin:miter;stroke:rgb(0%,0%,0%);stroke-opacity:1;stroke-miterlimit:4;" d="M 507.046875 219.929688 C 510.121094 225.683594 511.785156 231.054688 510.75 231.917969 C 509.726562 232.78125 506.386719 228.816406 503.3125 223.0625 "/>
<path style=" stroke:none;fill-rule:evenodd;fill:rgb(58.03833%,38.038635%,78.822327%);fill-opacity:1;" d="M 506.769531 211.597656 C 504.722656 213.664062 506.730469 217.527344 508.609375 218.929688 C 510.71875 220.839844 522.558594 233.332031 530.917969 222.820312 C 524.21875 222.699219 511.726562 206.984375 506.769531 211.597656 Z M 506.769531 211.597656 "/>
<path style="fill:none;stroke-width:0.493251;stroke-linecap:butt;stroke-linejoin:miter;stroke:rgb(0%,0%,0%);stroke-opacity:1;stroke-miterlimit:4;" d="M 506.769531 211.597656 C 504.71875 213.664062 506.730469 217.53125 508.609375 218.929688 C 510.71875 220.84375 522.558594 233.332031 530.917969 222.820312 C 524.21875 222.695312 511.726562 206.980469 506.769531 211.597656 Z M 506.769531 211.597656 "/>
<path style=" stroke:none;fill-rule:evenodd;fill:rgb(58.03833%,38.038635%,78.822327%);fill-opacity:1;" d="M 505.304688 205.425781 C 503.253906 207.496094 505.265625 211.367188 507.144531 212.761719 C 509.253906 214.671875 521.09375 227.164062 529.453125 216.660156 C 522.761719 216.539062 510.261719 200.824219 505.304688 205.425781 Z M 505.304688 205.425781 "/>
<path style="fill:none;stroke-width:0.493251;stroke-linecap:butt;stroke-linejoin:miter;stroke:rgb(0%,0%,0%);stroke-opacity:1;stroke-miterlimit:4;" d="M 505.304688 205.429688 C 503.253906 207.496094 505.265625 211.371094 507.144531 212.757812 C 509.253906 214.671875 521.09375 227.164062 529.453125 216.660156 C 522.761719 216.535156 510.261719 200.820312 505.304688 205.429688 Z M 505.304688 205.429688 "/>
<path style="fill-rule:evenodd;fill:rgb(58.03833%,38.038635%,78.822327%);fill-opacity:1;stroke-width:0.493251;stroke-linecap:butt;stroke-linejoin:miter;stroke:rgb(0%,0%,0%);stroke-opacity:1;stroke-miterlimit:4;" d="M 503.433594 199.519531 C 501.382812 201.585938 503.394531 205.453125 505.273438 206.851562 C 507.382812 208.765625 519.222656 221.257812 527.578125 210.75 C 520.882812 210.628906 508.390625 194.914062 503.433594 199.519531 Z M 503.433594 199.519531 "/>
<path style=" stroke:none;fill-rule:evenodd;fill:rgb(58.03833%,38.038635%,78.822327%);fill-opacity:1;" d="M 499.363281 192.757812 C 497.316406 194.832031 499.324219 198.699219 501.203125 200.097656 C 503.3125 202.011719 515.160156 214.503906 523.511719 203.988281 C 516.820312 203.863281 504.320312 188.148438 499.363281 192.757812 Z M 499.363281 192.757812 "/>
<path style="fill:none;stroke-width:0.493251;stroke-linecap:butt;stroke-linejoin:miter;stroke:rgb(0%,0%,0%);stroke-opacity:1;stroke-miterlimit:4;" d="M 499.367188 192.757812 C 497.3125 194.832031 499.324219 198.695312 501.203125 200.097656 C 503.3125 202.011719 515.160156 214.5 523.511719 203.988281 C 516.820312 203.863281 504.320312 188.152344 499.367188 192.757812 Z M 499.367188 192.757812 "/>
<path style=" stroke:none;fill-rule:evenodd;fill:rgb(58.03833%,38.038635%,78.822327%);fill-opacity:1;" d="M 484.773438 186.296875 C 489.007812 183.144531 496.785156 182.226562 502.839844 185.308594 C 507.886719 187.777344 516.300781 197.867188 522.613281 200.253906 C 518.171875 201.050781 515.460938 200.375 512.621094 199.007812 C 507.007812 203.078125 505.003906 203.6875 499.273438 204.484375 C 491.316406 205.632812 484.707031 203.566406 482.390625 199.414062 C 480.019531 195.492188 481.046875 189.207031 484.773438 186.296875 Z M 484.773438 186.296875 "/>
<path style="fill:none;stroke-width:0.502325;stroke-linecap:butt;stroke-linejoin:miter;stroke:rgb(0%,0%,0%);stroke-opacity:1;stroke-miterlimit:4;" d="M 484.773438 186.296875 C 489.007812 183.144531 496.785156 182.226562 502.839844 185.3125 C 507.886719 187.777344 516.300781 197.867188 522.617188 200.253906 C 518.171875 201.050781 515.460938 200.375 512.621094 199.007812 C 507.007812 203.074219 505.003906 203.6875 499.277344 204.484375 C 491.316406 205.632812 484.707031 203.5625 482.390625 199.414062 C 480.019531 195.492188 481.046875 189.210938 484.773438 186.296875 Z M 484.773438 186.296875 "/>
<path style=" stroke:none;fill-rule:evenodd;fill:rgb(83.135986%,10.980225%,18.823242%);fill-opacity:1;" d="M 497.394531 192.644531 C 497.378906 193.804688 495.726562 194.726562 493.714844 194.683594 C 491.699219 194.652344 490.085938 193.675781 490.105469 192.511719 C 490.128906 191.339844 491.773438 190.421875 493.792969 190.460938 C 495.800781 190.496094 497.421875 191.472656 497.394531 192.644531 Z M 497.394531 192.644531 "/>
<path style="fill:none;stroke-width:0.481932;stroke-linecap:butt;stroke-linejoin:miter;stroke:rgb(0%,0%,0%);stroke-opacity:1;stroke-miterlimit:4;" d="M 497.394531 192.644531 C 497.378906 193.804688 495.726562 194.726562 493.71875 194.683594 C 491.699219 194.652344 490.085938 193.675781 490.105469 192.511719 C 490.128906 191.339844 491.773438 190.421875 493.792969 190.460938 C 495.800781 190.496094 497.421875 191.472656 497.394531 192.644531 Z M 497.394531 192.644531 "/>
<path style=" stroke:none;fill-rule:evenodd;fill:rgb(98.822021%,81.959534%,8.627319%);fill-opacity:1;" d="M 487.394531 199.355469 C 487.988281 200.96875 486.34375 203.058594 483.707031 204.039062 C 481.078125 205.011719 478.464844 204.507812 477.871094 202.90625 C 477.277344 201.300781 478.921875 199.210938 481.558594 198.226562 C 484.1875 197.25 486.800781 197.753906 487.394531 199.355469 Z M 487.394531 199.355469 "/>
<path style="fill:none;stroke-width:0.42598;stroke-linecap:butt;stroke-linejoin:miter;stroke:rgb(0%,0%,0%);stroke-opacity:1;stroke-miterlimit:4;" d="M 487.394531 199.355469 C 487.988281 200.96875 486.34375 203.058594 483.707031 204.035156 C 481.078125 205.011719 478.46875 204.507812 477.871094 202.90625 C 477.277344 201.300781 478.921875 199.210938 481.558594 198.226562 C 484.1875 197.25 486.800781 197.753906 487.394531 199.355469 Z M 487.394531 199.355469 "/>
<path style=" stroke:none;fill-rule:evenodd;fill:rgb(0%,0%,0%);fill-opacity:1;" d="M 494.882812 192.457031 C 494.863281 193.082031 494.269531 193.578125 493.546875 193.570312 C 492.824219 193.554688 492.242188 193.035156 492.261719 192.40625 C 492.269531 191.789062 492.863281 191.285156 493.585938 191.300781 C 494.3125 191.316406 494.890625 191.828125 494.882812 192.457031 Z M 494.882812 192.457031 "/>
<path style=" stroke:none;fill-rule:evenodd;fill:rgb(98.822021%,81.959534%,8.627319%);fill-opacity:1;" d="M 485.726562 195.402344 C 486.058594 197.027344 484.855469 199.226562 482.242188 200 C 479.582031 201.097656 477.5625 203.605469 476.398438 207.691406 C 472.347656 198.371094 474.917969 194.425781 479.222656 193.464844 C 482.917969 192.285156 485.148438 192.441406 485.726562 195.402344 Z M 485.726562 195.402344 "/>
<path style="fill:none;stroke-width:0.601732;stroke-linecap:butt;stroke-linejoin:miter;stroke:rgb(0%,0%,0%);stroke-opacity:1;stroke-miterlimit:4;" d="M 485.726562 195.402344 C 486.058594 197.03125 484.855469 199.226562 482.242188 200 C 479.582031 201.097656 477.5625 203.605469 476.398438 207.691406 C 472.347656 198.371094 474.917969 194.425781 479.222656 193.464844 C 482.917969 192.285156 485.148438 192.441406 485.726562 195.402344 Z M 485.726562 195.402344 "/>
<path style=" stroke:none;fill-rule:evenodd;fill:rgb(0%,0%,0%);fill-opacity:1;" d="M 482.746094 196.058594 C 482.777344 196.589844 482.382812 197.027344 481.878906 197.0625 C 481.363281 197.085938 480.925781 196.6875 480.890625 196.160156 C 480.867188 195.636719 481.257812 195.191406 481.769531 195.167969 C 482.285156 195.132812 482.714844 195.539062 482.746094 196.058594 Z M 482.746094 196.058594 "/>
</g>
</svg>
