<?xml version="1.0" encoding="UTF-8"?>
<svg xmlns="http://www.w3.org/2000/svg" xmlns:xlink="http://www.w3.org/1999/xlink" viewBox="0 0 1000 667" version="1.1">
<defs>
<clipPath id="clip1">
  <path d="M 0 441 L 1000 441 L 1000 666.71875 L 0 666.71875 Z M 0 441 "/>
</clipPath>
</defs>
<g id="surface389">
<g clip-path="url(#clip1)" clip-rule="nonzero">
<path style=" stroke:none;fill-rule:evenodd;fill:rgb(0%,0%,0%);fill-opacity:1;" d="M 0 666.667969 L 1000 666.667969 L 1000 441.109375 L 0 441.109375 Z M 0 666.667969 "/>
</g>
<path style=" stroke:none;fill-rule:evenodd;fill:rgb(80.79834%,6.700134%,14.900208%);fill-opacity:1;" d="M 0 219.628906 L 1000 219.628906 L 1000 0 L 0 0 Z M 0 219.628906 "/>
<path style="fill-rule:evenodd;fill:rgb(99.998474%,99.998474%,99.998474%);fill-opacity:1;stroke-width:2.546667;stroke-linecap:round;stroke-linejoin:round;stroke:rgb(75.299072%,57.598877%,0%);stroke-opacity:1;stroke-miterlimit:3.239307;" d="M 497.90625 434.34375 C 520.089844 434.34375 541.3125 432.59375 553.757812 429.085938 C 559.023438 428.132812 559.023438 425.421875 559.023438 421.914062 C 564.292969 420.160156 561.578125 413.945312 565.246094 413.945312 C 561.578125 414.90625 560.78125 407.730469 556.3125 408.6875 C 556.3125 402.46875 550.089844 401.675781 544.824219 403.425781 C 534.289062 406.933594 515.621094 407.730469 497.910156 407.730469 C 480.195312 406.933594 461.683594 406.933594 450.992188 403.425781 C 445.730469 401.675781 439.507812 402.46875 439.507812 408.6875 C 435.039062 407.730469 434.242188 414.90625 430.570312 413.945312 C 434.242188 413.945312 431.527344 420.160156 436.792969 421.914062 C 436.792969 425.421875 436.792969 428.132812 442.21875 429.085938 C 454.503906 432.59375 475.730469 434.34375 497.90625 434.34375 Z M 497.90625 434.34375 "/>
<path style="fill-rule:evenodd;fill:rgb(99.998474%,99.998474%,99.998474%);fill-opacity:1;stroke-width:1.361111;stroke-linecap:round;stroke-linejoin:round;stroke:rgb(75.299072%,57.598877%,0%);stroke-opacity:1;stroke-miterlimit:3.239307;" d="M 498.804688 332.78125 L 574.980469 403.421875 L 569.554688 275.125 C 568.757812 255.679688 551.84375 260.140625 539.558594 267.15625 C 527.109375 275.125 512.910156 275.125 497.910156 269.863281 C 482.910156 275.125 468.707031 275.125 456.261719 267.15625 C 443.976562 260.140625 427.0625 255.679688 426.261719 275.125 L 420.835938 403.421875 Z M 498.804688 332.78125 "/>
<path style=" stroke:none;fill-rule:evenodd;fill:rgb(75.299072%,57.598877%,0%);fill-opacity:1;" d="M 520.085938 292.019531 L 522.644531 353.859375 L 529.820312 360.875 L 527.109375 292.816406 C 525.355469 292.816406 520.886719 292.816406 520.085938 292.019531 Z M 520.085938 292.019531 "/>
<path style="fill-rule:evenodd;fill:rgb(75.299072%,57.598877%,0%);fill-opacity:1;stroke-width:1.15;stroke-linecap:square;stroke-linejoin:miter;stroke:rgb(75.299072%,57.598877%,0%);stroke-opacity:1;stroke-miterlimit:4;" d="M 501.417969 346.84375 L 512.109375 395.460938 L 508.597656 398.964844 L 504.929688 396.253906 L 498.863281 352.902344 L 501.417969 396.253906 L 497.90625 400.714844 L 494.394531 396.253906 L 496.949219 352.902344 L 490.886719 396.253906 L 487.214844 398.964844 L 483.707031 395.460938 L 494.394531 346.84375 Z M 501.417969 346.84375 "/>
<path style=" stroke:none;fill-rule:evenodd;fill:rgb(75.299072%,57.598877%,0%);fill-opacity:1;" d="M 435.035156 270.660156 L 429.769531 395.457031 L 420.835938 403.421875 L 426.261719 275.125 C 428.8125 273.371094 433.28125 270.660156 435.035156 270.660156 Z M 435.035156 270.660156 "/>
<path style=" stroke:none;fill-rule:evenodd;fill:rgb(75.299072%,57.598877%,0%);fill-opacity:1;" d="M 445.726562 279.585938 L 441.257812 383.980469 L 432.324219 393.113281 L 437.75 272.574219 C 439.507812 274.328125 444.773438 278.628906 445.726562 279.585938 Z M 445.726562 279.585938 "/>
<path style=" stroke:none;fill-rule:evenodd;fill:rgb(75.299072%,57.598877%,0%);fill-opacity:1;" d="M 455.460938 287.554688 L 451.953125 374.625 L 444.773438 381.632812 L 449.242188 282.296875 C 450.992188 284.050781 454.503906 286.597656 455.460938 287.554688 Z M 455.460938 287.554688 "/>
<path style=" stroke:none;fill-rule:evenodd;fill:rgb(75.299072%,57.598877%,0%);fill-opacity:1;" d="M 465.992188 292.019531 L 462.484375 366.222656 L 455.460938 371.914062 L 458.972656 289.308594 C 460.726562 290.105469 464.238281 292.019531 465.992188 292.019531 Z M 465.992188 292.019531 "/>
<path style=" stroke:none;fill-rule:evenodd;fill:rgb(75.299072%,57.598877%,0%);fill-opacity:1;" d="M 475.730469 292.019531 L 473.171875 353.859375 L 465.996094 360.875 L 468.707031 292.816406 C 470.460938 292.816406 474.929688 292.816406 475.730469 292.019531 Z M 475.730469 292.019531 "/>
<path style=" stroke:none;fill-rule:evenodd;fill:rgb(75.299072%,57.598877%,0%);fill-opacity:1;" d="M 560.773438 270.660156 L 566.039062 395.457031 L 574.976562 403.421875 L 569.550781 275.125 C 567 273.371094 562.53125 270.660156 560.773438 270.660156 Z M 560.773438 270.660156 "/>
<path style=" stroke:none;fill-rule:evenodd;fill:rgb(75.299072%,57.598877%,0%);fill-opacity:1;" d="M 550.089844 279.585938 L 554.558594 383.980469 L 563.492188 393.113281 L 558.066406 272.574219 C 556.3125 274.328125 551.042969 278.628906 550.089844 279.585938 Z M 550.089844 279.585938 "/>
<path style=" stroke:none;fill-rule:evenodd;fill:rgb(75.299072%,57.598877%,0%);fill-opacity:1;" d="M 540.355469 287.554688 L 543.867188 374.625 L 551.046875 381.632812 L 546.578125 282.296875 C 544.824219 284.050781 541.316406 286.597656 540.355469 287.554688 Z M 540.355469 287.554688 "/>
<path style=" stroke:none;fill-rule:evenodd;fill:rgb(75.299072%,57.598877%,0%);fill-opacity:1;" d="M 529.820312 292.019531 L 533.332031 366.222656 L 540.351562 371.914062 L 536.84375 289.308594 C 535.085938 290.105469 531.578125 292.019531 529.820312 292.019531 Z M 529.820312 292.019531 "/>
<path style="fill-rule:evenodd;fill:rgb(99.998474%,99.998474%,99.998474%);fill-opacity:1;stroke-width:1.273333;stroke-linecap:round;stroke-linejoin:round;stroke:rgb(75.299072%,57.598877%,0%);stroke-opacity:1;stroke-miterlimit:4;" d="M 473.972656 325.488281 L 452.75 400.71875 L 481.953125 405.179688 L 494.398438 348.597656 Z M 473.972656 325.488281 "/>
<path style="fill-rule:evenodd;fill:rgb(99.998474%,99.998474%,99.998474%);fill-opacity:1;stroke-width:1.273333;stroke-linecap:round;stroke-linejoin:round;stroke:rgb(75.299072%,57.598877%,0%);stroke-opacity:1;stroke-miterlimit:4;" d="M 521.84375 325.488281 L 543.066406 400.71875 L 513.867188 405.179688 L 501.417969 348.597656 Z M 521.84375 325.488281 "/>
<path style="fill:none;stroke-width:1.361111;stroke-linecap:round;stroke-linejoin:round;stroke:rgb(75.299072%,57.598877%,0%);stroke-opacity:1;stroke-miterlimit:4;" d="M 528.859375 351.148438 L 526.304688 357.363281 L 512.507812 344.199219 "/>
<path style="fill:none;stroke-width:1.361111;stroke-linecap:round;stroke-linejoin:round;stroke:rgb(75.299072%,57.598877%,0%);stroke-opacity:1;stroke-miterlimit:4;" d="M 504.25 366.0625 L 513.945312 380.773438 "/>
<path style="fill:none;stroke-width:1.361111;stroke-linecap:round;stroke-linejoin:round;stroke:rgb(75.299072%,57.598877%,0%);stroke-opacity:1;stroke-miterlimit:4;" d="M 510.921875 395.457031 L 514.023438 380.792969 L 516.734375 365.878906 L 523.230469 374.667969 L 526.078125 364.535156 L 535.171875 373.851562 L 530.546875 390.796875 L 524.167969 380.3125 L 520.65625 390.996094 L 514.105469 380.8125 "/>
<path style="fill:none;stroke-width:1.361111;stroke-linecap:round;stroke-linejoin:round;stroke:rgb(75.299072%,57.598877%,0%);stroke-opacity:1;stroke-miterlimit:4;" d="M 466.949219 351.148438 L 469.503906 357.363281 L 483.300781 344.199219 "/>
<path style="fill:none;stroke-width:1.361111;stroke-linecap:round;stroke-linejoin:round;stroke:rgb(75.299072%,57.598877%,0%);stroke-opacity:1;stroke-miterlimit:4;" d="M 476.511719 335.574219 L 479.398438 362.625 L 488.171875 351.148438 "/>
<path style="fill:none;stroke-width:1.361111;stroke-linecap:round;stroke-linejoin:round;stroke:rgb(75.299072%,57.598877%,0%);stroke-opacity:1;stroke-miterlimit:4;" d="M 484.664062 355.613281 L 489.457031 372.140625 "/>
<path style="fill:none;stroke-width:1.361111;stroke-linecap:round;stroke-linejoin:round;stroke:rgb(75.299072%,57.598877%,0%);stroke-opacity:1;stroke-miterlimit:4;" d="M 491.335938 366.0625 L 481.636719 380.773438 "/>
<path style="fill:none;stroke-width:1.361111;stroke-linecap:round;stroke-linejoin:round;stroke:rgb(75.299072%,57.598877%,0%);stroke-opacity:1;stroke-miterlimit:4;" d="M 484.664062 395.457031 L 481.558594 380.792969 L 478.851562 365.878906 L 472.355469 374.667969 L 469.503906 364.535156 L 460.414062 373.851562 L 465.039062 390.796875 L 471.417969 380.3125 L 474.929688 390.996094 L 481.480469 380.8125 "/>
<path style="fill:none;stroke-width:1.361111;stroke-linecap:round;stroke-linejoin:round;stroke:rgb(75.299072%,57.598877%,0%);stroke-opacity:1;stroke-miterlimit:4;" d="M 458.972656 398.964844 L 464.867188 390.695312 L 468.707031 403.421875 L 473.972656 394.5 L 477.484375 405.179688 "/>
<path style="fill:none;stroke-width:1.361111;stroke-linecap:round;stroke-linejoin:round;stroke:rgb(75.299072%,57.598877%,0%);stroke-opacity:1;stroke-miterlimit:4;" d="M 537.082031 398.964844 L 531.1875 390.695312 L 527.347656 403.421875 L 522.082031 394.5 L 518.566406 405.179688 "/>
<path style="fill-rule:evenodd;fill:rgb(99.998474%,99.998474%,99.998474%);fill-opacity:1;stroke-width:1.361111;stroke-linecap:round;stroke-linejoin:round;stroke:rgb(75.299072%,57.598877%,0%);stroke-opacity:1;stroke-miterlimit:4;" d="M 467.75 400.714844 C 474.929688 401.671875 482.90625 402.46875 489.132812 401.671875 C 492.640625 401.671875 495.195312 407.730469 488.171875 408.6875 C 481.953125 409.480469 472.21875 408.6875 466.953125 407.730469 C 462.484375 406.933594 452.75 405.179688 446.523438 403.421875 C 440.304688 400.714844 444.773438 395.457031 448.28125 396.253906 C 453.707031 398.007812 460.726562 399.761719 467.75 400.714844 Z M 467.75 400.714844 "/>
<path style="fill-rule:evenodd;fill:rgb(99.998474%,99.998474%,99.998474%);fill-opacity:1;stroke-width:1.361111;stroke-linecap:round;stroke-linejoin:round;stroke:rgb(75.299072%,57.598877%,0%);stroke-opacity:1;stroke-miterlimit:4;" d="M 528.066406 400.714844 C 520.882812 401.671875 512.910156 402.46875 506.84375 401.671875 C 503.171875 401.671875 500.621094 407.730469 507.640625 408.6875 C 513.867188 409.480469 523.597656 408.6875 528.859375 407.730469 C 533.332031 406.933594 543.066406 405.179688 549.285156 403.421875 C 555.511719 400.714844 551.042969 395.457031 547.53125 396.253906 C 542.105469 398.007812 535.085938 399.761719 528.066406 400.714844 Z M 528.066406 400.714844 "/>
<path style="fill-rule:evenodd;fill:rgb(99.998474%,99.998474%,99.998474%);fill-opacity:1;stroke-width:1.361111;stroke-linecap:round;stroke-linejoin:round;stroke:rgb(75.299072%,57.598877%,0%);stroke-opacity:1;stroke-miterlimit:4;" d="M 445.726562 397.210938 C 440.300781 396.253906 437.75 402.46875 439.503906 405.976562 C 440.304688 404.222656 443.972656 404.222656 444.773438 402.46875 C 445.726562 399.761719 443.972656 399.761719 445.726562 397.210938 Z M 445.726562 397.210938 "/>
<path style="fill-rule:evenodd;fill:rgb(99.998474%,99.998474%,99.998474%);fill-opacity:1;stroke-width:1.361111;stroke-linecap:round;stroke-linejoin:round;stroke:rgb(75.299072%,57.598877%,0%);stroke-opacity:1;stroke-miterlimit:4;" d="M 466.949219 413.511719 C 466.949219 410.007812 470.460938 410.4375 470.460938 406.933594 C 470.460938 405.179688 469.503906 402.46875 467.75 402.46875 C 465.992188 402.46875 464.238281 404.222656 464.238281 405.972656 C 463.4375 409.480469 466.949219 410.007812 466.949219 413.511719 Z M 466.949219 413.511719 "/>
<path style="fill-rule:evenodd;fill:rgb(99.998474%,99.998474%,99.998474%);fill-opacity:1;stroke-width:1.361111;stroke-linecap:round;stroke-linejoin:round;stroke:rgb(75.299072%,57.598877%,0%);stroke-opacity:1;stroke-miterlimit:4;" d="M 492.210938 403.421875 C 497.472656 403.421875 496.949219 410.4375 494.394531 413.945312 C 494.394531 411.394531 489.929688 410.4375 489.929688 408.6875 C 489.929688 405.972656 493.960938 405.972656 492.210938 403.421875 Z M 492.210938 403.421875 "/>
<path style="fill-rule:evenodd;fill:rgb(99.998474%,99.998474%,99.998474%);fill-opacity:1;stroke-width:1.361111;stroke-linecap:round;stroke-linejoin:round;stroke:rgb(75.299072%,57.598877%,0%);stroke-opacity:1;stroke-miterlimit:4;" d="M 550.085938 397.210938 C 555.511719 396.253906 558.066406 402.46875 556.3125 405.976562 C 555.511719 404.222656 551.84375 404.222656 551.046875 402.46875 C 550.085938 399.761719 551.84375 399.761719 550.085938 397.210938 Z M 550.085938 397.210938 "/>
<path style="fill-rule:evenodd;fill:rgb(99.998474%,99.998474%,99.998474%);fill-opacity:1;stroke-width:1.361111;stroke-linecap:round;stroke-linejoin:round;stroke:rgb(75.299072%,57.598877%,0%);stroke-opacity:1;stroke-miterlimit:4;" d="M 528.863281 413.511719 C 528.863281 410.007812 525.355469 410.4375 525.355469 406.933594 C 525.355469 405.179688 526.3125 402.46875 528.066406 402.46875 C 529.820312 402.46875 531.578125 404.222656 531.578125 405.972656 C 532.375 409.480469 528.863281 410.007812 528.863281 413.511719 Z M 528.863281 413.511719 "/>
<path style="fill-rule:evenodd;fill:rgb(99.998474%,99.998474%,99.998474%);fill-opacity:1;stroke-width:1.361111;stroke-linecap:round;stroke-linejoin:round;stroke:rgb(75.299072%,57.598877%,0%);stroke-opacity:1;stroke-miterlimit:4;" d="M 503.605469 403.421875 C 498.34375 403.421875 498.863281 410.4375 501.417969 413.945312 C 501.417969 411.394531 505.882812 410.4375 505.882812 408.6875 C 505.882812 405.972656 501.851562 405.972656 503.605469 403.421875 Z M 503.605469 403.421875 "/>
<path style="fill:none;stroke-width:0.955556;stroke-linecap:round;stroke-linejoin:round;stroke:rgb(75.299072%,57.598877%,0%);stroke-opacity:1;stroke-miterlimit:4;" d="M 447.484375 398.964844 C 449.242188 398.964844 451.953125 399.761719 452.75 400.714844 Z M 447.484375 398.964844 "/>
<path style="fill:none;stroke-width:0.955556;stroke-linecap:round;stroke-linejoin:round;stroke:rgb(75.299072%,57.598877%,0%);stroke-opacity:1;stroke-miterlimit:4;" d="M 456.257812 401.671875 C 457.21875 401.671875 460.726562 402.46875 462.484375 403.421875 Z M 456.257812 401.671875 "/>
<path style="fill:none;stroke-width:0.955556;stroke-linecap:round;stroke-linejoin:round;stroke:rgb(75.299072%,57.598877%,0%);stroke-opacity:1;stroke-miterlimit:4;" d="M 488.171875 405.179688 C 486.417969 405.179688 482.90625 405.179688 481.953125 405.972656 Z M 488.171875 405.179688 "/>
<path style="fill:none;stroke-width:0.955556;stroke-linecap:round;stroke-linejoin:round;stroke:rgb(75.299072%,57.598877%,0%);stroke-opacity:1;stroke-miterlimit:4;" d="M 478.4375 405.179688 C 477.484375 404.222656 473.972656 404.222656 472.21875 405.179688 Z M 478.4375 405.179688 "/>
<path style="fill-rule:evenodd;fill:rgb(99.998474%,99.998474%,99.998474%);fill-opacity:1;stroke-width:0.955556;stroke-linecap:round;stroke-linejoin:round;stroke:rgb(75.299072%,57.598877%,0%);stroke-opacity:1;stroke-miterlimit:4;" d="M 548.332031 398.964844 C 546.578125 398.964844 544.023438 399.761719 543.066406 400.714844 Z M 548.332031 398.964844 "/>
<path style="fill-rule:evenodd;fill:rgb(99.998474%,99.998474%,99.998474%);fill-opacity:1;stroke-width:0.955556;stroke-linecap:round;stroke-linejoin:round;stroke:rgb(75.299072%,57.598877%,0%);stroke-opacity:1;stroke-miterlimit:4;" d="M 539.554688 401.671875 C 538.601562 401.671875 535.089844 402.46875 533.332031 403.421875 Z M 539.554688 401.671875 "/>
<path style="fill-rule:evenodd;fill:rgb(99.998474%,99.998474%,99.998474%);fill-opacity:1;stroke-width:0.955556;stroke-linecap:round;stroke-linejoin:round;stroke:rgb(75.299072%,57.598877%,0%);stroke-opacity:1;stroke-miterlimit:4;" d="M 507.640625 405.179688 C 509.398438 405.179688 512.910156 405.179688 513.867188 405.972656 Z M 507.640625 405.179688 "/>
<path style="fill-rule:evenodd;fill:rgb(99.998474%,99.998474%,99.998474%);fill-opacity:1;stroke-width:0.955556;stroke-linecap:round;stroke-linejoin:round;stroke:rgb(75.299072%,57.598877%,0%);stroke-opacity:1;stroke-miterlimit:4;" d="M 517.375 405.179688 C 518.332031 404.222656 521.84375 404.222656 523.597656 405.179688 Z M 517.375 405.179688 "/>
<path style="fill:none;stroke-width:1.361111;stroke-linecap:round;stroke-linejoin:round;stroke:rgb(75.299072%,57.598877%,0%);stroke-opacity:1;stroke-miterlimit:4;" d="M 519.476562 335.574219 L 516.589844 362.625 L 507.8125 351.148438 "/>
<path style="fill-rule:evenodd;fill:rgb(99.998474%,99.998474%,99.998474%);fill-opacity:1;stroke-width:1.232222;stroke-linecap:butt;stroke-linejoin:miter;stroke:rgb(75.299072%,57.598877%,0%);stroke-opacity:1;stroke-miterlimit:4;" d="M 497.886719 360.363281 C 534.191406 332.46875 531.078125 291.605469 531.078125 291.605469 C 530.121094 291.796875 529.210938 291.890625 528.253906 291.890625 C 520.636719 291.890625 502.472656 287.539062 498.234375 282.011719 C 493.695312 287.015625 475.132812 291.890625 467.566406 291.890625 C 466.605469 291.890625 465.648438 291.796875 464.738281 291.605469 C 464.738281 291.605469 461.578125 332.46875 497.886719 360.363281 Z M 497.886719 360.363281 "/>
<path style=" stroke:none;fill-rule:evenodd;fill:rgb(99.998474%,99.998474%,99.998474%);fill-opacity:1;" d="M 528.1875 294.597656 C 527.875 294.617188 527.5625 294.628906 527.246094 294.628906 C 520.34375 294.628906 504.3125 291.089844 498.132812 285.785156 C 491.660156 290.6875 475.363281 294.628906 468.574219 294.628906 C 468.253906 294.628906 467.9375 294.589844 467.628906 294.53125 C 467.613281 296.078125 467.691406 297.679688 467.789062 299.136719 C 468.148438 304.582031 469.105469 310.046875 470.554688 315.304688 C 475.125 331.855469 484.476562 345.917969 497.886719 356.585938 C 511.308594 345.910156 520.667969 331.832031 525.25 315.269531 C 526.703125 310.011719 527.660156 304.546875 528.023438 299.105469 C 528.121094 297.675781 528.199219 296.113281 528.1875 294.597656 Z M 528.1875 294.597656 "/>
<path style="fill:none;stroke-width:1.361111;stroke-linecap:round;stroke-linejoin:round;stroke:rgb(75.299072%,57.598877%,0%);stroke-opacity:1;stroke-miterlimit:4;" d="M 510.804688 355.613281 L 506.007812 372.140625 "/>
<path style=" stroke:none;fill-rule:evenodd;fill:rgb(75.299072%,57.598877%,0%);fill-opacity:1;" d="M 446.003906 412.972656 C 445.410156 412.859375 445.101562 412.390625 445.25 411.832031 C 445.429688 411.15625 445.972656 410.769531 446.488281 410.953125 C 446.8125 411.066406 447.410156 411.667969 447.410156 411.882812 C 447.414062 412.132812 447.101562 412.71875 446.964844 412.722656 C 446.90625 412.722656 446.8125 412.773438 446.761719 412.835938 C 446.652344 412.964844 446.300781 413.03125 446.003906 412.972656 Z M 446.003906 412.972656 "/>
<path style=" stroke:none;fill-rule:evenodd;fill:rgb(75.299072%,57.598877%,0%);fill-opacity:1;" d="M 507.097656 417.332031 C 506.875 417.25 506.523438 416.757812 506.523438 416.527344 C 506.527344 416.097656 507.164062 415.394531 507.558594 415.390625 C 507.753906 415.390625 508.285156 415.667969 508.484375 415.875 C 508.847656 416.25 508.769531 416.867188 508.3125 417.21875 C 508.089844 417.390625 507.425781 417.453125 507.097656 417.332031 Z M 507.097656 417.332031 "/>
<path style=" stroke:none;fill-rule:evenodd;fill:rgb(75.299072%,57.598877%,0%);fill-opacity:1;" d="M 507.5 420.085938 C 507.035156 419.929688 506.863281 419.699219 506.824219 419.183594 C 506.785156 418.644531 506.839844 418.558594 507.410156 418.25 L 507.816406 418.027344 L 508.199219 418.199219 C 508.734375 418.4375 508.972656 418.695312 508.992188 419.050781 C 509.011719 419.4375 508.722656 419.832031 508.277344 420.03125 C 507.886719 420.207031 507.863281 420.210938 507.5 420.085938 Z M 507.5 420.085938 "/>
<path style=" stroke:none;fill-rule:evenodd;fill:rgb(75.299072%,57.598877%,0%);fill-opacity:1;" d="M 456.527344 421.570312 C 456.277344 421.488281 455.65625 421.335938 455.148438 421.242188 C 453.980469 421.015625 452.167969 420.609375 451.675781 420.457031 C 451.46875 420.394531 451.09375 420.296875 450.839844 420.242188 C 450.375 420.136719 450.136719 420.070312 449.375 419.8125 C 449.144531 419.734375 448.582031 419.578125 448.121094 419.464844 C 447.660156 419.355469 447.121094 419.195312 446.925781 419.113281 C 446.726562 419.03125 446.496094 418.964844 446.40625 418.964844 C 446.320312 418.96875 446.121094 418.902344 445.96875 418.820312 C 445.816406 418.738281 445.453125 418.648438 445.15625 418.621094 C 444.539062 418.566406 444.082031 418.351562 443.820312 417.992188 C 443.597656 417.6875 443.59375 417.453125 443.796875 417.03125 C 443.882812 416.855469 443.957031 416.648438 443.957031 416.570312 C 443.957031 416.492188 444.03125 416.367188 444.125 416.289062 C 444.214844 416.214844 444.289062 416.117188 444.289062 416.074219 C 444.285156 415.980469 444.675781 415.417969 444.902344 415.183594 C 445.203125 414.871094 445.824219 414.570312 446.179688 414.570312 C 446.382812 414.566406 446.566406 414.511719 446.65625 414.425781 C 446.753906 414.328125 446.980469 414.269531 447.382812 414.238281 L 447.964844 414.191406 L 448.191406 413.789062 C 448.316406 413.566406 448.417969 413.277344 448.421875 413.144531 C 448.421875 413.015625 448.480469 412.796875 448.550781 412.664062 C 448.621094 412.53125 448.730469 412.207031 448.792969 411.941406 C 449.023438 410.941406 449.191406 410.382812 449.292969 410.285156 C 449.4375 410.144531 449.421875 410.082031 449.171875 409.773438 C 449.035156 409.605469 448.878906 409.503906 448.765625 409.503906 C 448.484375 409.507812 448.03125 409.671875 447.886719 409.820312 C 447.601562 410.121094 447.222656 410.320312 446.933594 410.320312 C 446.539062 410.324219 446.027344 410.042969 445.839844 409.710938 C 445.691406 409.453125 445.691406 409.4375 445.863281 409.085938 C 445.976562 408.859375 446.125 408.695312 446.269531 408.636719 C 446.617188 408.507812 447.5 408.574219 447.703125 408.746094 C 447.847656 408.871094 447.953125 408.882812 448.417969 408.828125 C 448.714844 408.796875 448.980469 408.738281 449 408.703125 C 449.023438 408.667969 449.207031 408.613281 449.410156 408.582031 C 449.613281 408.550781 449.800781 408.472656 449.824219 408.414062 C 449.847656 408.351562 449.996094 408.273438 450.160156 408.246094 C 450.320312 408.214844 450.496094 408.136719 450.546875 408.078125 C 450.597656 408.015625 450.75 407.964844 450.878906 407.960938 C 451.0625 407.960938 451.148438 408.015625 451.261719 408.214844 C 451.382812 408.441406 451.390625 408.53125 451.300781 408.996094 C 451.246094 409.28125 451.132812 409.652344 451.046875 409.816406 C 450.964844 409.980469 450.898438 410.253906 450.898438 410.425781 C 450.902344 410.621094 450.839844 410.804688 450.738281 410.921875 C 450.648438 411.023438 450.574219 411.191406 450.574219 411.289062 C 450.574219 411.390625 450.519531 411.53125 450.449219 411.597656 C 450.378906 411.667969 450.28125 411.949219 450.234375 412.226562 C 450.1875 412.503906 450.101562 412.800781 450.046875 412.890625 C 449.992188 412.980469 449.921875 413.21875 449.894531 413.425781 C 449.867188 413.632812 449.789062 413.84375 449.722656 413.894531 C 449.65625 413.949219 449.605469 414.109375 449.605469 414.246094 C 449.605469 414.386719 449.539062 414.632812 449.457031 414.792969 C 449.371094 414.957031 449.28125 415.28125 449.25 415.511719 C 449.222656 415.746094 449.148438 416.011719 449.089844 416.101562 C 449.035156 416.1875 448.960938 416.441406 448.929688 416.660156 C 448.898438 416.882812 448.820312 417.144531 448.753906 417.246094 C 448.644531 417.410156 448.648438 417.449219 448.800781 417.652344 C 449.050781 417.980469 449.773438 418.214844 450.511719 418.207031 C 451.085938 418.203125 451.117188 418.1875 451.324219 417.9375 C 451.449219 417.78125 451.558594 417.515625 451.59375 417.292969 C 451.621094 417.085938 451.699219 416.8125 451.765625 416.691406 C 451.828125 416.570312 451.878906 416.265625 451.875 416.015625 C 451.871094 415.59375 451.851562 415.546875 451.574219 415.332031 C 451.300781 415.117188 451.285156 415.085938 451.375 414.886719 C 451.46875 414.6875 451.847656 414.511719 452.203125 414.507812 C 452.277344 414.507812 452.429688 414.4375 452.535156 414.355469 C 452.644531 414.273438 452.816406 414.179688 452.914062 414.148438 C 453.011719 414.117188 453.238281 413.964844 453.410156 413.808594 C 453.773438 413.484375 454 413.476562 454.183594 413.78125 C 454.300781 413.976562 454.296875 414.035156 454.171875 414.382812 C 454.09375 414.59375 454.035156 414.929688 454.035156 415.125 C 454.039062 415.316406 453.988281 415.535156 453.925781 415.605469 C 453.863281 415.675781 453.773438 415.894531 453.730469 416.09375 C 453.683594 416.289062 453.589844 416.597656 453.523438 416.773438 C 453.453125 416.953125 453.398438 417.242188 453.398438 417.417969 C 453.398438 417.597656 453.324219 417.882812 453.234375 418.058594 C 452.996094 418.515625 453.027344 418.792969 453.328125 418.925781 C 453.398438 418.957031 453.546875 419.03125 453.664062 419.09375 C 453.777344 419.15625 454.023438 419.207031 454.207031 419.207031 C 454.390625 419.210938 454.703125 419.277344 454.902344 419.359375 C 455.101562 419.445312 455.5 419.535156 455.789062 419.558594 C 456.308594 419.605469 456.324219 419.601562 456.554688 419.347656 C 456.699219 419.1875 456.828125 418.914062 456.890625 418.632812 C 456.949219 418.382812 457.015625 418.097656 457.042969 418 C 457.121094 417.695312 456.988281 417.292969 456.726562 417.054688 C 456.269531 416.632812 456.460938 416.066406 457.0625 416.058594 C 457.320312 416.054688 458.027344 415.773438 458.210938 415.601562 C 458.714844 415.125 459.027344 415.003906 459.332031 415.15625 C 459.574219 415.277344 459.652344 415.609375 459.503906 415.875 C 459.441406 415.984375 459.335938 416.292969 459.277344 416.554688 C 459.214844 416.820312 459.089844 417.292969 458.996094 417.605469 C 458.90625 417.917969 458.773438 418.460938 458.703125 418.808594 C 458.632812 419.160156 458.503906 419.65625 458.421875 419.917969 C 458.335938 420.179688 458.265625 420.460938 458.265625 420.546875 C 458.269531 420.628906 458.191406 420.878906 458.09375 421.097656 C 457.816406 421.738281 457.398438 421.867188 456.527344 421.570312 Z M 456.527344 421.570312 "/>
<path style=" stroke:none;fill-rule:evenodd;fill:rgb(75.299072%,57.598877%,0%);fill-opacity:1;" d="M 445.765625 421.613281 C 445.214844 421.09375 445.300781 420.71875 446.121094 420.109375 C 446.46875 419.851562 446.679688 419.878906 447.078125 420.242188 C 447.695312 420.804688 447.71875 421.15625 447.175781 421.636719 C 446.90625 421.875 446.789062 421.921875 446.476562 421.925781 C 446.152344 421.929688 446.058594 421.890625 445.765625 421.613281 Z M 445.765625 421.613281 "/>
<path style=" stroke:none;fill-rule:evenodd;fill:rgb(75.299072%,57.598877%,0%);fill-opacity:1;" d="M 449.15625 422.644531 C 448.617188 422.507812 448.304688 421.96875 448.464844 421.433594 C 448.605469 420.953125 448.6875 420.902344 449.398438 420.898438 C 450.191406 420.890625 450.347656 421.023438 450.355469 421.722656 C 450.359375 422.113281 450.328125 422.207031 450.132812 422.386719 C 449.902344 422.601562 449.460938 422.71875 449.15625 422.644531 Z M 449.15625 422.644531 "/>
<path style=" stroke:none;fill-rule:evenodd;fill:rgb(75.299072%,57.598877%,0%);fill-opacity:1;" d="M 548.265625 422.730469 C 548.011719 422.519531 547.960938 422.425781 547.957031 422.15625 C 547.957031 421.703125 548.21875 421.367188 548.789062 421.109375 C 549.546875 420.765625 549.855469 420.8125 550.140625 421.316406 C 550.523438 421.984375 550.503906 422.253906 550.046875 422.707031 C 549.796875 422.953125 549.75 422.96875 549.175781 422.976562 C 548.609375 422.976562 548.546875 422.960938 548.265625 422.730469 Z M 548.265625 422.730469 "/>
<path style=" stroke:none;fill-rule:evenodd;fill:rgb(75.299072%,57.598877%,0%);fill-opacity:1;" d="M 453.660156 424.003906 C 453.253906 423.898438 453.046875 423.59375 453.039062 423.109375 C 453.035156 422.738281 453.0625 422.679688 453.320312 422.476562 C 453.488281 422.34375 453.757812 422.234375 453.964844 422.203125 C 454.261719 422.164062 454.371094 422.1875 454.609375 422.355469 C 455.222656 422.785156 455.351562 423.210938 454.996094 423.625 C 454.621094 424.066406 454.261719 424.167969 453.660156 424.003906 Z M 453.660156 424.003906 "/>
<path style=" stroke:none;fill-rule:evenodd;fill:rgb(75.299072%,57.598877%,0%);fill-opacity:1;" d="M 478.039062 425.097656 L 477.726562 424.828125 L 477.765625 424.160156 C 477.792969 423.792969 477.863281 423.347656 477.933594 423.167969 C 478 422.992188 478.054688 422.589844 478.050781 422.273438 C 478.050781 421.953125 478.101562 421.539062 478.167969 421.351562 C 478.230469 421.160156 478.335938 420.457031 478.402344 419.78125 C 478.46875 419.109375 478.558594 418.46875 478.601562 418.355469 C 478.644531 418.242188 478.675781 417.949219 478.671875 417.699219 C 478.667969 417.445312 478.734375 417.007812 478.820312 416.71875 C 478.914062 416.382812 478.96875 415.917969 478.96875 415.4375 C 478.964844 415.019531 479.003906 414.554688 479.050781 414.398438 C 479.097656 414.246094 479.132812 414.035156 479.132812 413.929688 C 479.128906 413.734375 479.417969 413.277344 479.542969 413.273438 C 479.585938 413.273438 479.753906 413.464844 479.917969 413.699219 C 480.085938 413.9375 480.421875 414.3125 480.664062 414.535156 C 481.734375 415.523438 481.683594 415.433594 481.335938 415.761719 C 481.210938 415.882812 481.070312 415.980469 481.023438 415.980469 C 480.976562 415.980469 480.839844 416.082031 480.714844 416.207031 C 480.53125 416.394531 480.496094 416.507812 480.496094 416.867188 C 480.496094 417.109375 480.441406 417.449219 480.367188 417.625 C 480.253906 417.917969 480.132812 418.996094 480.089844 420.148438 C 480.082031 420.390625 480.039062 420.644531 479.996094 420.710938 C 479.953125 420.777344 479.902344 421.355469 479.882812 421.996094 C 479.863281 422.632812 479.8125 423.210938 479.773438 423.277344 C 479.730469 423.339844 479.691406 423.535156 479.6875 423.710938 C 479.675781 424.363281 479.535156 424.953125 479.339844 425.15625 C 479.183594 425.316406 479.0625 425.359375 478.746094 425.363281 C 478.410156 425.367188 478.300781 425.324219 478.039062 425.097656 Z M 478.039062 425.097656 "/>
<path style=" stroke:none;fill-rule:evenodd;fill:rgb(75.299072%,57.598877%,0%);fill-opacity:1;" d="M 507.816406 426.085938 C 507.640625 425.84375 507.632812 425.789062 507.714844 425.347656 C 507.761719 425.085938 507.808594 424.636719 507.8125 424.351562 C 507.816406 424.0625 507.867188 423.75 507.917969 423.65625 C 507.972656 423.558594 508.015625 423.359375 508.011719 423.210938 C 508.011719 423 508.085938 422.871094 508.339844 422.625 C 508.523438 422.449219 508.671875 422.269531 508.671875 422.222656 C 508.667969 422.117188 509.320312 421.617188 509.457031 421.613281 C 509.511719 421.613281 509.621094 421.539062 509.703125 421.449219 C 509.785156 421.363281 509.953125 421.289062 510.078125 421.289062 C 510.203125 421.285156 510.402344 421.203125 510.519531 421.101562 C 510.726562 420.925781 510.738281 420.875 510.734375 420.222656 C 510.730469 419.800781 510.671875 419.382812 510.589844 419.160156 C 510.519531 418.957031 510.464844 418.714844 510.472656 418.617188 C 510.484375 418.523438 510.460938 418.066406 510.417969 417.605469 C 510.351562 416.855469 510.320312 416.742188 510.125 416.546875 C 510.007812 416.425781 509.863281 416.328125 509.804688 416.328125 C 509.699219 416.332031 509.308594 415.875 509.363281 415.8125 C 509.9375 415.199219 510.960938 414.238281 511.074219 414.199219 C 511.308594 414.125 511.664062 414.285156 511.753906 414.503906 C 511.796875 414.613281 511.859375 415.089844 511.890625 415.566406 C 511.921875 416.039062 511.988281 416.644531 512.035156 416.90625 C 512.082031 417.171875 512.164062 418 512.21875 418.746094 C 512.273438 419.492188 512.351562 420.230469 512.398438 420.382812 C 512.445312 420.539062 512.511719 421.222656 512.550781 421.902344 C 512.585938 422.585938 512.65625 423.28125 512.703125 423.449219 C 512.859375 424.035156 513.53125 424.382812 514.011719 424.132812 C 514.089844 424.09375 514.445312 424.011719 514.800781 423.953125 C 515.632812 423.820312 515.648438 423.796875 515.574219 422.613281 C 515.523438 421.792969 515.496094 421.679688 515.296875 421.429688 C 515.171875 421.28125 514.980469 421.136719 514.867188 421.109375 C 514.636719 421.058594 514.496094 420.863281 514.492188 420.605469 C 514.488281 420.421875 514.921875 419.988281 515.191406 419.90625 C 515.285156 419.875 515.53125 419.710938 515.742188 419.539062 C 516.214844 419.15625 516.527344 419.125 516.816406 419.441406 C 517.003906 419.640625 517.027344 419.746094 517.089844 420.816406 C 517.136719 421.644531 517.195312 422.042969 517.292969 422.214844 C 517.394531 422.390625 517.433594 422.675781 517.4375 423.265625 C 517.445312 423.816406 517.492188 424.167969 517.582031 424.371094 C 517.699219 424.632812 517.703125 424.699219 517.597656 424.921875 C 517.53125 425.058594 517.457031 425.253906 517.425781 425.351562 C 517.359375 425.574219 517.230469 425.609375 516.464844 425.632812 C 516.121094 425.640625 515.691406 425.6875 515.507812 425.738281 C 515.324219 425.789062 514.835938 425.839844 514.421875 425.851562 C 512.664062 425.894531 510.253906 426.097656 510.125 426.214844 C 510.027344 426.300781 509.746094 426.332031 509 426.335938 L 508.003906 426.347656 Z M 507.816406 426.085938 "/>
<path style=" stroke:none;fill-rule:evenodd;fill:rgb(75.299072%,57.598877%,0%);fill-opacity:1;" d="M 472.835938 427.40625 C 472.710938 427.363281 472.605469 427.304688 472.605469 427.269531 C 472.605469 427.195312 471.8125 426.710938 471.691406 426.710938 C 471.640625 426.710938 471.578125 426.613281 471.550781 426.492188 C 471.523438 426.371094 471.425781 426.039062 471.328125 425.75 C 471.160156 425.242188 471.164062 424.855469 471.335938 424.75 C 471.460938 424.675781 471.414062 424.425781 471.25 424.289062 C 471.148438 424.203125 470.886719 424.140625 470.519531 424.117188 C 469.734375 424.066406 469.644531 424.042969 469.367188 423.8125 C 469.171875 423.648438 469.117188 423.519531 469.054688 423.089844 C 469.011719 422.785156 468.921875 422.503906 468.835938 422.414062 C 468.683594 422.257812 468.421875 422.214844 468.347656 422.335938 C 468.320312 422.375 468.1875 422.429688 468.050781 422.457031 C 467.878906 422.492188 467.769531 422.574219 467.714844 422.714844 C 467.671875 422.832031 467.539062 423.046875 467.421875 423.199219 C 467.214844 423.464844 467.183594 423.476562 466.671875 423.484375 C 466.375 423.484375 466.011719 423.4375 465.859375 423.378906 C 465.527344 423.253906 465.167969 423.195312 464.261719 423.136719 C 462.960938 423.046875 462.359375 423.144531 462.257812 423.457031 C 462.117188 423.894531 461.066406 424.792969 460.609375 424.867188 C 460.425781 424.898438 460.113281 424.972656 459.917969 425.039062 C 459.71875 425.105469 459.519531 425.136719 459.476562 425.109375 C 459.433594 425.082031 458.992188 425.015625 458.5 424.953125 C 457.570312 424.839844 457.226562 424.683594 457.226562 424.371094 C 457.222656 424.183594 457.792969 423.894531 458.011719 423.976562 C 458.25 424.0625 458.640625 424.058594 458.640625 423.96875 C 458.636719 423.925781 458.839844 423.851562 459.089844 423.800781 C 459.339844 423.746094 459.585938 423.652344 459.640625 423.589844 C 459.695312 423.523438 459.847656 423.46875 459.980469 423.46875 C 460.175781 423.46875 460.265625 423.398438 460.464844 423.089844 C 460.601562 422.878906 460.710938 422.660156 460.710938 422.597656 C 460.707031 422.539062 460.78125 422.394531 460.871094 422.28125 C 460.96875 422.160156 461.035156 421.957031 461.035156 421.777344 C 461.03125 421.613281 461.085938 421.320312 461.15625 421.128906 C 461.273438 420.796875 461.269531 420.742188 461.089844 420.21875 C 460.984375 419.910156 460.851562 419.632812 460.792969 419.601562 C 460.734375 419.566406 460.644531 419.414062 460.589844 419.261719 C 460.441406 418.851562 460.597656 418.488281 461.191406 417.855469 C 461.253906 417.789062 461.328125 417.617188 461.359375 417.476562 C 461.417969 417.203125 461.605469 417.054688 461.886719 417.050781 C 462.09375 417.046875 462.488281 417.480469 462.492188 417.710938 C 462.492188 417.808594 462.554688 417.96875 462.628906 418.070312 C 462.710938 418.179688 462.792969 418.539062 462.84375 418.984375 C 462.921875 419.746094 463.058594 420.527344 463.15625 420.824219 C 463.242188 421.078125 463.699219 421.433594 463.945312 421.433594 C 464.0625 421.433594 464.382812 421.484375 464.660156 421.542969 C 464.9375 421.605469 465.378906 421.652344 465.644531 421.652344 C 466.125 421.648438 466.125 421.648438 466.617188 421.152344 C 466.890625 420.882812 467.109375 420.621094 467.105469 420.570312 C 467.09375 420.25 466.019531 419.671875 465.15625 419.523438 C 464.855469 419.46875 464.640625 419.097656 464.707031 418.742188 C 464.761719 418.4375 465.167969 417.910156 465.558594 417.625 C 465.710938 417.515625 466.207031 417.324219 466.667969 417.195312 L 467.5 416.960938 L 467.734375 416.511719 C 468.171875 415.65625 469.097656 414.976562 469.835938 414.96875 C 470.203125 414.96875 470.285156 415.007812 470.578125 415.375 C 470.660156 415.476562 470.816406 415.667969 470.921875 415.800781 C 471.246094 416.203125 471.433594 416.679688 471.382812 416.992188 C 471.335938 417.289062 471.460938 417.753906 471.585938 417.753906 C 471.703125 417.75 472.917969 418.933594 472.976562 419.101562 C 473.003906 419.1875 473.0625 419.257812 473.105469 419.257812 C 473.207031 419.257812 473.355469 419.792969 473.363281 420.175781 C 473.367188 420.75 473.242188 420.832031 472.351562 420.851562 C 471.925781 420.859375 471.40625 420.914062 471.203125 420.976562 L 470.828125 421.085938 L 470.808594 421.53125 C 470.78125 422.128906 470.933594 422.296875 471.585938 422.394531 C 471.859375 422.433594 472.121094 422.5 472.167969 422.546875 C 472.214844 422.589844 472.351562 422.625 472.472656 422.625 C 472.589844 422.621094 472.761719 422.671875 472.851562 422.734375 C 473 422.835938 473.015625 422.949219 473.027344 423.871094 L 473.039062 424.898438 L 473.308594 424.980469 C 473.460938 425.023438 473.628906 425.105469 473.683594 425.15625 C 473.878906 425.339844 474.140625 425.261719 474.246094 424.984375 C 474.300781 424.84375 474.375 424.652344 474.414062 424.5625 C 474.453125 424.476562 474.519531 423.933594 474.5625 423.363281 C 474.605469 422.789062 474.691406 422.175781 474.753906 422 C 474.816406 421.824219 474.90625 421.25 474.949219 420.722656 C 474.996094 420.195312 475.074219 419.71875 475.125 419.65625 C 475.175781 419.597656 475.234375 419.09375 475.253906 418.519531 C 475.285156 417.699219 475.320312 417.460938 475.4375 417.335938 C 475.558594 417.203125 475.578125 417.019531 475.570312 416.1875 L 475.558594 415.191406 L 475.222656 414.917969 C 475 414.730469 474.886719 414.574219 474.886719 414.4375 C 474.882812 414.152344 474.960938 414.066406 475.378906 413.914062 C 475.585938 413.839844 475.902344 413.722656 476.085938 413.65625 C 476.269531 413.589844 476.453125 413.492188 476.5 413.4375 C 476.644531 413.273438 477.109375 412.976562 477.230469 412.976562 C 477.292969 412.976562 477.40625 413.039062 477.484375 413.121094 C 477.664062 413.304688 477.679688 414.066406 477.511719 414.382812 C 477.4375 414.519531 477.390625 414.832031 477.394531 415.144531 C 477.398438 415.4375 477.34375 415.832031 477.273438 416.027344 C 477.199219 416.226562 477.109375 416.957031 477.058594 417.738281 C 477.011719 418.484375 476.925781 419.179688 476.871094 419.273438 C 476.816406 419.371094 476.777344 419.695312 476.777344 419.996094 C 476.78125 420.296875 476.726562 420.847656 476.660156 421.222656 C 476.59375 421.597656 476.503906 422.226562 476.460938 422.621094 C 476.421875 423.015625 476.335938 423.460938 476.269531 423.613281 C 476.207031 423.765625 476.132812 424.144531 476.105469 424.457031 C 476.082031 424.773438 475.988281 425.152344 475.90625 425.308594 C 475.824219 425.460938 475.757812 425.652344 475.757812 425.730469 C 475.761719 425.933594 475.328125 426.671875 475.207031 426.675781 C 475.152344 426.675781 475.070312 426.746094 475.023438 426.828125 C 474.980469 426.910156 474.828125 427 474.691406 427.03125 C 474.550781 427.058594 474.335938 427.152344 474.210938 427.234375 C 473.941406 427.421875 473.164062 427.515625 472.835938 427.40625 Z M 472.835938 427.40625 "/>
<path style=" stroke:none;fill-rule:evenodd;fill:rgb(75.299072%,57.598877%,0%);fill-opacity:1;" d="M 524.382812 427.492188 C 524.285156 427.402344 524.316406 427.007812 524.425781 426.921875 C 524.480469 426.878906 524.621094 426.8125 524.734375 426.78125 C 524.851562 426.746094 525 426.671875 525.066406 426.613281 C 525.136719 426.558594 525.378906 426.484375 525.609375 426.449219 C 526.429688 426.328125 527.148438 425.675781 527.152344 425.046875 C 527.15625 424.871094 527.125 424.691406 527.09375 424.644531 C 527 424.5 525.558594 424.589844 524.78125 424.78125 C 524.59375 424.828125 524.503906 424.792969 524.277344 424.582031 L 524 424.320312 L 523.960938 423.144531 L 523.921875 421.964844 L 524.28125 421.570312 C 524.480469 421.351562 524.730469 421.03125 524.839844 420.855469 C 524.949219 420.679688 525.0625 420.527344 525.089844 420.515625 C 525.121094 420.5 525.289062 420.363281 525.464844 420.203125 C 525.8125 419.894531 526.390625 419.578125 526.777344 419.484375 C 526.914062 419.453125 527.0625 419.375 527.109375 419.308594 C 527.160156 419.242188 527.308594 419.179688 527.441406 419.171875 C 527.644531 419.152344 527.714844 419.203125 527.917969 419.507812 C 528.046875 419.703125 528.15625 419.972656 528.164062 420.105469 C 528.167969 420.238281 528.234375 420.488281 528.300781 420.664062 C 528.371094 420.839844 528.453125 421.191406 528.484375 421.441406 C 528.519531 421.695312 528.585938 421.953125 528.636719 422.011719 C 528.765625 422.160156 529.773438 422.230469 529.949219 422.101562 C 530.046875 422.03125 530.089844 421.816406 530.117188 421.277344 C 530.136719 420.855469 530.207031 420.4375 530.277344 420.292969 C 530.347656 420.15625 530.429688 419.925781 530.457031 419.785156 C 530.539062 419.390625 531.199219 418.480469 531.589844 418.21875 C 531.78125 418.089844 531.984375 417.945312 532.042969 417.890625 C 532.101562 417.839844 532.230469 417.769531 532.332031 417.738281 C 532.582031 417.660156 532.640625 417.558594 532.640625 417.203125 C 532.636719 416.898438 532.382812 416.546875 531.855469 416.125 C 531.730469 416.019531 531.625 415.875 531.625 415.796875 C 531.621094 415.570312 531.867188 415.140625 532.25 414.691406 C 532.445312 414.460938 532.609375 414.246094 532.609375 414.207031 C 532.609375 414.171875 532.742188 414.058594 532.902344 413.960938 C 533.128906 413.820312 533.234375 413.796875 533.398438 413.855469 C 533.621094 413.933594 533.683594 414.042969 533.890625 414.726562 C 534.164062 415.632812 534.226562 415.898438 534.292969 416.410156 C 534.332031 416.699219 534.386719 416.976562 534.417969 417.023438 C 534.449219 417.070312 534.816406 417.183594 535.238281 417.273438 C 535.65625 417.363281 536.078125 417.484375 536.175781 417.542969 C 536.277344 417.597656 536.449219 417.671875 536.5625 417.703125 C 536.847656 417.785156 537.238281 418.0625 537.238281 418.1875 C 537.238281 418.246094 537.269531 418.292969 537.308594 418.292969 C 537.398438 418.292969 537.820312 418.902344 538.207031 419.597656 C 538.640625 420.378906 538.617188 420.359375 539.308594 420.355469 C 539.867188 420.351562 539.933594 420.332031 540.089844 420.136719 C 540.183594 420.019531 540.257812 419.824219 540.257812 419.703125 C 540.253906 419.453125 540.46875 419.160156 540.992188 418.695312 C 541.195312 418.519531 541.4375 418.300781 541.535156 418.210938 C 541.859375 417.917969 542.230469 417.683594 542.371094 417.683594 C 542.449219 417.683594 542.859375 417.824219 543.289062 418 C 543.917969 418.257812 544.109375 418.378906 544.296875 418.632812 C 544.710938 419.191406 545.59375 419.421875 546.03125 419.085938 C 546.144531 418.996094 546.28125 418.921875 546.332031 418.921875 C 546.382812 418.921875 546.421875 418.867188 546.421875 418.800781 C 546.417969 418.632812 546.078125 417.707031 545.976562 417.589844 C 545.929688 417.539062 545.851562 417.214844 545.804688 416.871094 C 545.753906 416.53125 545.640625 416.089844 545.542969 415.894531 C 545.429688 415.652344 545.355469 415.285156 545.320312 414.777344 C 545.292969 414.359375 545.191406 413.75 545.101562 413.425781 C 545.011719 413.097656 544.9375 412.730469 544.933594 412.605469 C 544.925781 412.015625 544.425781 411.238281 543.917969 411.03125 C 543.800781 410.980469 543.613281 410.890625 543.496094 410.828125 C 543.195312 410.664062 542.796875 410.6875 542.621094 410.878906 C 542.539062 410.96875 542.394531 411.042969 542.296875 411.042969 C 542.121094 411.042969 541.585938 411.476562 541.585938 411.613281 C 541.585938 411.65625 541.464844 411.691406 541.3125 411.695312 C 541.089844 411.695312 540.988281 411.636719 540.769531 411.363281 C 540.617188 411.179688 540.496094 410.992188 540.496094 410.945312 C 540.496094 410.902344 540.34375 410.738281 540.160156 410.585938 C 539.886719 410.359375 539.820312 410.257812 539.820312 410.023438 C 539.816406 409.792969 539.859375 409.714844 540.023438 409.640625 C 540.136719 409.589844 540.230469 409.511719 540.230469 409.46875 C 540.230469 409.425781 540.367188 409.367188 540.539062 409.335938 C 540.714844 409.308594 541.152344 409.203125 541.519531 409.109375 C 542.441406 408.871094 544.097656 408.859375 544.503906 409.085938 C 544.652344 409.167969 544.871094 409.257812 544.988281 409.285156 C 545.261719 409.34375 545.984375 410.007812 546.132812 410.339844 C 546.195312 410.480469 546.28125 410.613281 546.324219 410.636719 C 546.367188 410.664062 546.429688 410.835938 546.460938 411.023438 C 546.496094 411.207031 546.574219 411.46875 546.636719 411.601562 C 546.730469 411.796875 546.855469 412.621094 546.984375 413.878906 C 547.007812 414.101562 547.175781 414.871094 547.308594 415.355469 C 547.355469 415.53125 547.449219 415.9375 547.519531 416.257812 C 547.585938 416.582031 547.699219 416.90625 547.773438 416.984375 C 547.84375 417.058594 547.90625 417.183594 547.90625 417.261719 C 547.910156 417.574219 548.773438 418.097656 549.273438 418.09375 C 549.710938 418.089844 550.367188 417.792969 550.773438 417.417969 C 551.007812 417.203125 551.289062 417.003906 551.398438 416.976562 C 551.621094 416.921875 551.988281 417.09375 552.117188 417.316406 C 552.277344 417.589844 552.539062 417.832031 552.890625 418.027344 C 553.265625 418.234375 553.402344 418.511719 553.261719 418.773438 C 553.210938 418.863281 553.109375 418.9375 553.03125 418.9375 C 552.953125 418.9375 552.6875 419.03125 552.441406 419.144531 C 552.199219 419.253906 551.929688 419.347656 551.84375 419.347656 C 551.757812 419.347656 551.285156 419.480469 550.792969 419.636719 C 550.296875 419.796875 549.425781 420.023438 548.855469 420.144531 C 547.84375 420.351562 546.484375 420.726562 546.320312 420.84375 C 546.273438 420.878906 546.085938 420.929688 545.902344 420.960938 C 545.335938 421.058594 545.285156 421.089844 545.234375 421.382812 C 545.167969 421.742188 544.402344 422.539062 543.835938 422.839844 C 543.445312 423.046875 543.367188 423.058594 542.390625 423.058594 C 541.820312 423.054688 541.289062 423.039062 541.207031 423.011719 C 541.125 422.988281 541.03125 422.863281 541 422.734375 C 540.96875 422.605469 540.828125 422.421875 540.691406 422.332031 C 540.425781 422.152344 540.121094 422.160156 539.441406 422.351562 L 539.136719 422.4375 L 539.085938 423.226562 C 539.058594 423.664062 538.988281 424.105469 538.925781 424.207031 C 538.867188 424.3125 538.777344 424.472656 538.734375 424.558594 C 538.691406 424.648438 538.464844 424.882812 538.230469 425.085938 C 537.996094 425.285156 537.65625 425.585938 537.472656 425.753906 C 537.097656 426.097656 536.777344 426.148438 536.550781 425.902344 C 536.464844 425.808594 536.300781 425.742188 536.164062 425.746094 C 535.882812 425.75 535.234375 425.484375 534.824219 425.195312 C 534.574219 425.023438 534.050781 424.167969 534.046875 423.929688 C 534.046875 423.882812 533.972656 423.773438 533.878906 423.6875 C 533.746094 423.5625 533.601562 423.53125 533.1875 423.539062 C 532.902344 423.542969 532.5 423.585938 532.292969 423.628906 C 532.085938 423.675781 531.585938 423.753906 531.175781 423.800781 C 530.769531 423.847656 530.316406 423.9375 530.171875 424 C 530.023438 424.058594 529.746094 424.136719 529.550781 424.171875 C 529.039062 424.257812 528.882812 424.445312 528.886719 424.96875 C 528.890625 425.246094 528.847656 425.433594 528.773438 425.496094 C 528.707031 425.546875 528.632812 425.691406 528.605469 425.816406 C 528.535156 426.140625 527.851562 426.800781 527.367188 427.019531 C 527.136719 427.121094 526.8125 427.277344 526.644531 427.363281 C 526.390625 427.496094 526.171875 427.527344 525.390625 427.535156 C 524.867188 427.539062 524.414062 427.519531 524.382812 427.492188 Z M 524.382812 427.492188 "/>
<path style=" stroke:none;fill-rule:evenodd;fill:rgb(75.299072%,57.598877%,0%);fill-opacity:1;" d="M 517.761719 428.210938 L 517.574219 428.082031 L 517.742188 427.851562 C 517.832031 427.722656 518.046875 427.574219 518.21875 427.519531 C 518.800781 427.328125 519.191406 427.09375 519.667969 426.640625 C 519.929688 426.394531 520.140625 426.128906 520.140625 426.054688 C 520.140625 425.980469 520.242188 425.800781 520.363281 425.652344 C 520.582031 425.402344 520.589844 425.355469 520.574219 424.546875 C 520.558594 423.71875 520.515625 423.546875 520.207031 423.070312 C 520.058594 422.84375 519.558594 422.480469 519.054688 422.234375 C 518.71875 422.070312 518.597656 421.738281 518.769531 421.453125 C 518.84375 421.335938 519.074219 420.894531 519.28125 420.476562 C 519.492188 420.054688 519.707031 419.621094 519.761719 419.511719 C 519.914062 419.207031 520.285156 419.191406 520.539062 419.476562 C 520.777344 419.746094 521.164062 420.425781 521.164062 420.578125 C 521.164062 420.640625 521.238281 420.753906 521.324219 420.832031 C 521.515625 421 521.929688 421.703125 521.929688 421.867188 C 521.929688 421.929688 522.027344 422.136719 522.148438 422.332031 C 522.300781 422.570312 522.371094 422.804688 522.378906 423.0625 C 522.386719 423.273438 522.445312 423.578125 522.511719 423.742188 C 522.714844 424.21875 522.648438 425.816406 522.410156 426.261719 C 522.308594 426.453125 522.199219 426.605469 522.167969 426.609375 C 522.132812 426.609375 521.996094 426.757812 521.859375 426.9375 C 521.601562 427.28125 520.71875 427.902344 520.484375 427.902344 C 520.410156 427.902344 520.292969 427.984375 520.226562 428.085938 C 520.109375 428.253906 520.035156 428.269531 519.027344 428.304688 C 518.136719 428.332031 517.921875 428.316406 517.761719 428.210938 Z M 517.761719 428.210938 "/>
<path style=" stroke:none;fill-rule:evenodd;fill:rgb(75.299072%,57.598877%,0%);fill-opacity:1;" d="M 510.148438 428.707031 C 509.878906 428.429688 509.820312 428.3125 509.816406 428.039062 C 509.816406 427.765625 509.867188 427.65625 510.132812 427.390625 C 510.617188 426.898438 510.855469 426.886719 511.699219 427.3125 C 512.503906 427.714844 512.773438 427.753906 512.847656 427.464844 C 512.917969 427.1875 513.378906 426.933594 513.820312 426.933594 C 514.097656 426.929688 514.253906 426.984375 514.476562 427.15625 C 514.757812 427.375 514.769531 427.410156 514.777344 427.914062 C 514.78125 428.429688 514.777344 428.445312 514.453125 428.730469 C 514.148438 429.003906 514.097656 429.019531 513.714844 428.980469 C 513.230469 428.933594 512.9375 428.710938 512.859375 428.328125 C 512.800781 428.050781 512.703125 427.980469 512.628906 428.171875 C 512.605469 428.230469 512.488281 428.308594 512.363281 428.335938 C 512.136719 428.394531 511.753906 428.636719 511.480469 428.894531 C 511.375 428.988281 511.195312 429.035156 510.902344 429.039062 C 510.507812 429.042969 510.453125 429.019531 510.148438 428.707031 Z M 510.148438 428.707031 "/>
<path style=" stroke:none;fill-rule:evenodd;fill:rgb(75.299072%,57.598877%,0%);fill-opacity:1;" d="M 495.984375 429.359375 C 495.984375 429.320312 495.777344 429.191406 495.519531 429.074219 C 495.03125 428.851562 494.609375 428.511719 494.351562 428.132812 C 494.171875 427.867188 493.960938 427.195312 493.957031 426.871094 C 493.957031 426.710938 493.902344 426.640625 493.765625 426.609375 C 493.199219 426.484375 491.757812 426.328125 490.695312 426.277344 C 490.03125 426.242188 488.785156 426.144531 487.925781 426.0625 C 486.0625 425.875 485.351562 425.902344 485.101562 426.164062 C 485.007812 426.261719 484.890625 426.460938 484.839844 426.601562 C 484.792969 426.746094 484.609375 427.050781 484.4375 427.28125 C 484.261719 427.511719 484.121094 427.738281 484.121094 427.785156 C 484.121094 427.832031 484.085938 427.867188 484.039062 427.867188 C 483.992188 427.871094 483.890625 427.933594 483.804688 428.011719 C 483.59375 428.210938 483.164062 428.507812 482.945312 428.605469 C 482.839844 428.652344 482.664062 428.742188 482.546875 428.804688 C 482.25 428.976562 480.164062 428.996094 479.824219 428.832031 C 479.695312 428.765625 479.472656 428.714844 479.332031 428.71875 C 479.191406 428.71875 479.003906 428.667969 478.914062 428.609375 C 478.78125 428.515625 478.765625 428.460938 478.832031 428.269531 C 478.929688 428 479.210938 427.929688 480.285156 427.910156 C 480.886719 427.902344 481.0625 427.867188 481.410156 427.6875 C 481.828125 427.46875 482.542969 426.945312 482.597656 426.816406 C 482.617188 426.777344 482.699219 426.6875 482.785156 426.613281 C 482.871094 426.542969 482.960938 426.359375 482.988281 426.203125 C 483.015625 426.046875 483.113281 425.777344 483.199219 425.605469 C 483.386719 425.242188 483.363281 425.023438 483.046875 424.121094 C 482.722656 423.191406 482.609375 422.984375 482.238281 422.671875 C 481.773438 422.28125 481.785156 422.09375 482.304688 421.5625 C 482.53125 421.332031 482.851562 420.945312 483.015625 420.703125 C 483.28125 420.3125 483.339844 420.269531 483.570312 420.289062 C 483.792969 420.308594 483.867188 420.375 484.070312 420.75 C 484.382812 421.324219 484.8125 422.320312 484.816406 422.476562 C 484.816406 422.542969 484.871094 422.710938 484.9375 422.847656 C 485.003906 422.984375 485.101562 423.230469 485.15625 423.390625 C 485.289062 423.789062 485.363281 423.828125 486.054688 423.886719 C 486.777344 423.949219 486.785156 423.9375 486.851562 422.964844 C 486.875 422.59375 486.933594 422.253906 486.980469 422.210938 C 487.027344 422.164062 487.0625 422.054688 487.0625 421.96875 C 487.058594 421.773438 486.644531 420.632812 486.539062 420.527344 C 486.398438 420.390625 486.453125 419.984375 486.664062 419.628906 C 486.777344 419.4375 486.902344 419.28125 486.941406 419.28125 C 486.976562 419.28125 487.152344 419.183594 487.324219 419.070312 C 487.761719 418.78125 488.410156 418.710938 488.691406 418.921875 C 488.871094 419.058594 488.898438 419.15625 488.941406 419.78125 C 488.980469 420.417969 489.007812 420.503906 489.207031 420.667969 C 489.328125 420.769531 489.519531 420.851562 489.628906 420.851562 C 489.742188 420.851562 489.898438 420.910156 489.984375 420.980469 C 490.109375 421.085938 490.402344 421.109375 491.742188 421.121094 C 493.59375 421.136719 494.628906 421.183594 494.761719 421.265625 C 494.8125 421.296875 495.136719 421.320312 495.480469 421.316406 C 495.824219 421.3125 496.574219 421.339844 497.148438 421.371094 C 498.152344 421.429688 498.199219 421.441406 498.445312 421.671875 L 498.695312 421.910156 L 498.714844 422.972656 C 498.738281 424.203125 498.808594 424.359375 499.347656 424.355469 C 499.820312 424.351562 499.953125 424.207031 499.988281 423.660156 C 500.007812 423.402344 500.070312 423.152344 500.128906 423.105469 C 500.1875 423.058594 500.292969 422.890625 500.359375 422.730469 C 500.5 422.394531 501.082031 421.8125 501.351562 421.730469 C 501.449219 421.699219 501.605469 421.609375 501.695312 421.53125 C 501.785156 421.453125 501.972656 421.367188 502.113281 421.339844 C 502.710938 421.230469 503.371094 421.007812 503.527344 420.867188 C 503.636719 420.769531 503.835938 420.707031 504.085938 420.695312 C 504.40625 420.683594 504.503906 420.710938 504.644531 420.871094 C 504.84375 421.09375 504.878906 421.265625 504.960938 422.363281 C 504.992188 422.816406 505.058594 423.285156 505.109375 423.402344 C 505.160156 423.519531 505.226562 424.082031 505.253906 424.65625 L 505.300781 425.695312 L 505.042969 426.039062 L 504.78125 426.378906 L 502.082031 426.402344 C 500.597656 426.414062 499.253906 426.449219 499.097656 426.480469 C 498.78125 426.539062 498.707031 426.703125 498.714844 427.320312 C 498.71875 427.511719 498.660156 427.667969 498.558594 427.757812 C 498.472656 427.832031 498.378906 427.984375 498.355469 428.089844 C 498.304688 428.289062 497.75 428.707031 497.394531 428.8125 C 497.28125 428.847656 497.132812 428.921875 497.066406 428.976562 C 496.871094 429.128906 496.242188 429.425781 496.105469 429.429688 C 496.039062 429.429688 495.984375 429.398438 495.984375 429.359375 Z M 495.984375 429.359375 "/>
<path style="fill:none;stroke-width:0.981111;stroke-linecap:butt;stroke-linejoin:miter;stroke:rgb(75.299072%,57.598877%,0%);stroke-opacity:1;stroke-miterlimit:4;" d="M 528.1875 294.597656 C 527.875 294.617188 527.5625 294.628906 527.246094 294.628906 C 520.34375 294.628906 504.3125 291.089844 498.132812 285.785156 C 491.660156 290.6875 475.363281 294.628906 468.574219 294.628906 C 468.253906 294.628906 467.9375 294.589844 467.628906 294.53125 C 467.613281 296.078125 467.691406 297.679688 467.789062 299.136719 C 468.148438 304.582031 469.105469 310.046875 470.554688 315.304688 C 475.125 331.855469 484.476562 345.917969 497.886719 356.585938 C 511.308594 345.910156 520.667969 331.832031 525.25 315.269531 C 526.703125 310.011719 527.660156 304.546875 528.023438 299.105469 C 528.121094 297.675781 528.199219 296.113281 528.1875 294.597656 Z M 528.1875 294.597656 "/>
<path style="fill-rule:evenodd;fill:rgb(99.998474%,99.998474%,99.998474%);fill-opacity:1;stroke-width:1.361111;stroke-linecap:round;stroke-linejoin:round;stroke:rgb(75.299072%,57.598877%,0%);stroke-opacity:1;stroke-miterlimit:4;" d="M 511.976562 277.710938 C 512.714844 277.753906 510.972656 273.746094 510.972656 273.746094 C 512.933594 275.75 520.347656 276.230469 520.347656 276.230469 C 515.898438 274.269531 511.453125 259.457031 511.976562 247.652344 C 512.457031 235.804688 510.273438 231.144531 508.53125 229.402344 C 506.304688 227.179688 499.15625 225.21875 494.445312 224.957031 C 491.785156 224.828125 492.21875 226.960938 492.21875 226.960938 C 487.292969 225.699219 482.367188 225.21875 480.140625 226.699219 C 478.046875 228.09375 477.613281 235.0625 479.136719 233.84375 C 482.84375 230.882812 486.074219 233.582031 488.296875 236.804688 C 490.257812 239.636719 490.128906 247.652344 487.292969 257.019531 C 484.328125 266.863281 476.21875 276.707031 476.21875 276.707031 C 480.621094 276.707031 486.8125 272.789062 486.8125 272.789062 L 485.332031 278.929688 C 489.996094 276.707031 493.703125 273.265625 493.703125 273.265625 L 498.152344 277.929688 C 499.632812 275.96875 502.597656 273.265625 502.597656 273.265625 C 502.597656 273.265625 506.304688 277.1875 511.976562 277.710938 Z M 511.976562 277.710938 "/>
<path style="fill-rule:evenodd;fill:rgb(99.998474%,99.998474%,99.998474%);fill-opacity:1;stroke-width:1.361111;stroke-linecap:round;stroke-linejoin:round;stroke:rgb(75.299072%,57.598877%,0%);stroke-opacity:1;stroke-miterlimit:4;" d="M 493.964844 249.351562 C 493.964844 249.351562 491.480469 267.605469 486.8125 272.789062 Z M 493.964844 249.351562 "/>
<path style="fill-rule:evenodd;fill:rgb(99.998474%,99.998474%,99.998474%);fill-opacity:1;stroke-width:1.361111;stroke-linecap:round;stroke-linejoin:round;stroke:rgb(75.299072%,57.598877%,0%);stroke-opacity:1;stroke-miterlimit:4;" d="M 497.890625 248.871094 C 497.890625 248.871094 496.929688 267.34375 493.703125 273.265625 Z M 497.890625 248.871094 "/>
<path style="fill-rule:evenodd;fill:rgb(99.998474%,99.998474%,99.998474%);fill-opacity:1;stroke-width:1.361111;stroke-linecap:round;stroke-linejoin:round;stroke:rgb(75.299072%,57.598877%,0%);stroke-opacity:1;stroke-miterlimit:4;" d="M 501.378906 249.613281 C 501.378906 249.613281 501.378906 269.828125 502.601562 273.269531 Z M 501.378906 249.613281 "/>
<path style="fill-rule:evenodd;fill:rgb(99.998474%,99.998474%,99.998474%);fill-opacity:1;stroke-width:1.361111;stroke-linecap:round;stroke-linejoin:round;stroke:rgb(75.299072%,57.598877%,0%);stroke-opacity:1;stroke-miterlimit:4;" d="M 505.78125 250.613281 C 505.78125 250.613281 506.785156 267.605469 510.972656 273.746094 Z M 505.78125 250.613281 "/>
<path style=" stroke:none;fill-rule:evenodd;fill:rgb(75.299072%,57.598877%,0%);fill-opacity:1;" d="M 489.472656 240.507812 C 489.257812 238.898438 488.863281 237.632812 488.296875 236.804688 C 486.074219 233.582031 482.847656 230.882812 479.140625 233.84375 C 479.140625 233.84375 480.402344 229.921875 483.105469 229.792969 C 485.199219 229.664062 489.953125 231.359375 494.140625 238.503906 C 494.140625 238.503906 491.042969 237.808594 490.304688 238.460938 C 488.90625 239.679688 489.472656 240.507812 489.472656 240.507812 Z M 489.472656 240.507812 "/>
<path style="fill-rule:evenodd;fill:rgb(75.299072%,57.598877%,0%);fill-opacity:1;stroke-width:1.361111;stroke-linecap:round;stroke-linejoin:round;stroke:rgb(75.299072%,57.598877%,0%);stroke-opacity:1;stroke-miterlimit:4;" d="M 478.746094 229.007812 C 479.050781 228.007812 479.53125 227.089844 480.140625 226.699219 C 482.367188 225.21875 487.292969 225.699219 492.222656 226.960938 C 492.222656 226.960938 491.785156 224.828125 494.445312 224.957031 C 499.15625 225.21875 506.304688 227.179688 508.53125 229.402344 C 509.054688 229.964844 509.664062 230.792969 510.1875 232.058594 L 510.101562 232.058594 C 509.011719 230.53125 505.914062 230.621094 505.171875 230.707031 C 503.996094 230.839844 503.253906 230.792969 501.683594 231.1875 C 500.941406 231.359375 499.808594 231.578125 499.199219 232.058594 C 498.71875 232.449219 498.328125 233.886719 497.585938 233.886719 C 496.40625 233.886719 496.496094 233.582031 496.1875 233.234375 C 495.796875 232.753906 495.578125 232.058594 495.1875 232.101562 C 493.964844 232.320312 492.003906 231.359375 489.519531 229.402344 C 487.03125 227.441406 486.070312 226.960938 482.84375 227.179688 C 479.664062 227.441406 478.660156 229.226562 478.660156 229.226562 Z M 478.746094 229.007812 "/>
<path style=" stroke:none;fill-rule:evenodd;fill:rgb(99.998474%,99.998474%,99.998474%);fill-opacity:1;" d="M 496.972656 231.882812 C 497.714844 231.882812 498.28125 231.316406 498.28125 230.578125 C 498.28125 229.835938 497.714844 229.269531 496.972656 229.269531 C 496.277344 229.269531 495.667969 229.835938 495.667969 230.578125 C 495.667969 231.316406 496.277344 231.882812 496.972656 231.882812 Z M 496.972656 231.882812 "/>
<path style=" stroke:none;fill-rule:evenodd;fill:rgb(75.299072%,57.598877%,0%);fill-opacity:1;" d="M 485.5 291.394531 C 479.269531 293.371094 472.40625 294.628906 468.574219 294.628906 C 468.253906 294.628906 467.9375 294.589844 467.628906 294.53125 C 467.613281 296.074219 467.691406 297.679688 467.789062 299.136719 C 468.148438 304.582031 469.105469 310.046875 470.554688 315.304688 C 473.574219 326.242188 478.695312 336.085938 485.5 344.589844 Z M 485.5 291.394531 "/>
<path style=" stroke:none;fill-rule:evenodd;fill:rgb(75.299072%,57.598877%,0%);fill-opacity:1;" d="M 510.40625 291.914062 L 510.40625 343.410156 C 517.601562 335.191406 522.371094 325.769531 525.25 315.363281 C 526.703125 310.105469 527.660156 304.640625 528.023438 299.195312 C 528.117188 297.769531 528.199219 296.203125 528.1875 294.691406 C 527.875 294.710938 527.5625 294.71875 527.246094 294.71875 C 523.53125 294.71875 517.175781 293.6875 510.40625 291.914062 Z M 510.40625 291.914062 "/>
<path style=" stroke:none;fill-rule:evenodd;fill:rgb(99.998474%,99.998474%,99.998474%);fill-opacity:1;" d="M 470.25 419.484375 C 470.46875 419.332031 470.488281 419.125 470.285156 419.074219 C 470.027344 419.007812 469.820312 418.652344 469.800781 418.25 C 469.769531 417.523438 469.429688 417.480469 468.792969 418.128906 C 468.609375 418.3125 468.332031 418.5625 468.175781 418.683594 L 467.890625 418.902344 L 468.097656 419.113281 C 468.445312 419.464844 468.835938 419.601562 469.480469 419.605469 C 469.886719 419.609375 470.121094 419.570312 470.25 419.484375 Z M 470.25 419.484375 "/>
<path style=" stroke:none;fill-rule:evenodd;fill:rgb(99.998474%,99.998474%,99.998474%);fill-opacity:1;" d="M 447.152344 416.679688 C 447.4375 416.433594 447.441406 416.183594 447.164062 416.0625 C 446.988281 415.988281 446.886719 416.007812 446.539062 416.171875 C 446.191406 416.339844 446.128906 416.402344 446.148438 416.570312 C 446.171875 416.757812 446.320312 416.824219 446.839844 416.871094 C 446.886719 416.871094 447.027344 416.789062 447.152344 416.679688 Z M 447.152344 416.679688 "/>
<path style=" stroke:none;fill-rule:evenodd;fill:rgb(99.998474%,99.998474%,99.998474%);fill-opacity:1;" d="M 510.351562 424.359375 L 510.785156 424.230469 L 510.757812 423.816406 L 510.726562 423.398438 L 510.378906 423.378906 C 510.089844 423.363281 509.996094 423.398438 509.816406 423.585938 C 509.496094 423.921875 509.457031 424.164062 509.703125 424.339844 C 509.8125 424.421875 509.90625 424.484375 509.910156 424.488281 C 509.914062 424.488281 510.113281 424.429688 510.351562 424.359375 Z M 510.351562 424.359375 "/>
<path style=" stroke:none;fill-rule:evenodd;fill:rgb(99.998474%,99.998474%,99.998474%);fill-opacity:1;" d="M 543.019531 421.101562 C 543.539062 420.882812 543.683594 420.609375 543.480469 420.242188 C 543.308594 419.925781 543.054688 419.804688 542.636719 419.832031 C 542.160156 419.863281 541.765625 420.175781 541.769531 420.527344 C 541.773438 420.753906 541.828125 420.835938 542.128906 421.03125 C 542.324219 421.160156 542.511719 421.269531 542.546875 421.273438 C 542.582031 421.277344 542.792969 421.199219 543.019531 421.101562 Z M 543.019531 421.101562 "/>
<path style=" stroke:none;fill-rule:evenodd;fill:rgb(99.998474%,99.998474%,99.998474%);fill-opacity:1;" d="M 536.363281 421.164062 C 536.71875 421 536.761719 420.953125 536.761719 420.714844 C 536.761719 420.351562 536.433594 419.925781 535.945312 419.65625 C 535.429688 419.371094 535.242188 419.375 535.011719 419.683594 C 534.832031 419.921875 534.832031 419.941406 534.960938 420.296875 C 535.035156 420.5 535.097656 420.71875 535.097656 420.785156 C 535.097656 420.945312 535.605469 421.34375 535.804688 421.34375 C 535.890625 421.347656 536.140625 421.265625 536.363281 421.164062 Z M 536.363281 421.164062 "/>
<path style=" stroke:none;fill-rule:evenodd;fill:rgb(99.998474%,99.998474%,99.998474%);fill-opacity:1;" d="M 533.398438 421.445312 C 533.425781 421.308594 533.421875 420.996094 533.386719 420.753906 C 533.339844 420.402344 533.273438 420.265625 533.074219 420.09375 C 532.769531 419.835938 532.617188 419.859375 532.257812 420.222656 C 532.027344 420.453125 531.996094 420.546875 531.988281 420.964844 C 531.972656 421.621094 532.0625 421.707031 532.777344 421.699219 C 533.34375 421.695312 533.34375 421.695312 533.398438 421.445312 Z M 533.398438 421.445312 "/>
<path style=" stroke:none;fill-rule:evenodd;fill:rgb(99.998474%,99.998474%,99.998474%);fill-opacity:1;" d="M 526.769531 422.683594 C 527.058594 422.535156 527.125 422.378906 527.054688 422.023438 C 526.941406 421.492188 526.273438 421.332031 525.949219 421.765625 C 525.847656 421.894531 525.769531 422.035156 525.769531 422.078125 C 525.769531 422.117188 525.714844 422.195312 525.648438 422.25 C 525.550781 422.328125 525.546875 422.386719 525.621094 422.519531 C 525.675781 422.613281 525.757812 422.714844 525.808594 422.75 C 525.964844 422.847656 526.523438 422.808594 526.769531 422.683594 Z M 526.769531 422.683594 "/>
<path style=" stroke:none;fill-rule:evenodd;fill:rgb(99.998474%,99.998474%,99.998474%);fill-opacity:1;" d="M 537.316406 423.632812 C 537.546875 423.453125 537.566406 423.199219 537.363281 423.019531 C 537.121094 422.808594 536.675781 422.8125 536.222656 423.027344 C 535.953125 423.15625 535.875 423.238281 535.878906 423.394531 C 535.878906 423.527344 535.941406 423.617188 536.066406 423.664062 C 536.347656 423.769531 537.164062 423.75 537.316406 423.636719 Z M 537.316406 423.632812 "/>
<path style=" stroke:none;fill-rule:evenodd;fill:rgb(99.998474%,99.998474%,99.998474%);fill-opacity:1;" d="M 503.132812 424.378906 C 503.316406 424.308594 503.355469 424.253906 503.316406 424.125 C 503.289062 424.03125 503.222656 423.785156 503.171875 423.578125 C 503.089844 423.25 503.050781 423.199219 502.871094 423.199219 C 502.679688 423.199219 502.328125 423.402344 502.007812 423.6875 C 501.847656 423.832031 501.75 424.175781 501.835938 424.292969 C 502.023438 424.550781 502.582031 424.585938 503.132812 424.378906 Z M 503.132812 424.378906 "/>
<path style=" stroke:none;fill-rule:evenodd;fill:rgb(99.998474%,99.998474%,99.998474%);fill-opacity:1;" d="M 496.691406 426.796875 C 496.875 426.65625 496.878906 426.617188 496.871094 425.152344 L 496.863281 423.644531 L 496.640625 423.449219 C 496.425781 423.261719 496.347656 423.25 494.808594 423.191406 C 493.929688 423.15625 493.0625 423.085938 492.882812 423.027344 C 492.652344 422.957031 492.445312 422.949219 492.140625 423.007812 C 491.867188 423.054688 491.539062 423.054688 491.203125 423.003906 C 489.957031 422.808594 489.125 422.960938 488.824219 423.449219 C 488.683594 423.675781 488.683594 423.703125 488.816406 423.917969 C 488.894531 424.042969 489.054688 424.160156 489.171875 424.183594 C 489.285156 424.203125 489.554688 424.269531 489.769531 424.332031 C 490.003906 424.402344 490.511719 424.445312 491.0625 424.445312 C 491.5625 424.445312 492.398438 424.46875 492.929688 424.503906 C 493.457031 424.535156 494.191406 424.570312 494.558594 424.578125 C 495.042969 424.589844 495.296875 424.636719 495.46875 424.742188 L 495.707031 424.886719 L 495.65625 425.660156 C 495.609375 426.402344 495.617188 426.441406 495.804688 426.601562 C 496.027344 426.792969 496.296875 426.941406 496.417969 426.941406 C 496.460938 426.941406 496.585938 426.875 496.691406 426.796875 Z M 496.691406 426.796875 "/>
</g>
</svg>
