<?xml version="1.0" encoding="UTF-8"?>
<svg xmlns="http://www.w3.org/2000/svg" xmlns:xlink="http://www.w3.org/1999/xlink" viewBox="0 0 1000 667" version="1.1">
<defs>
<clipPath id="clip1">
  <path d="M 0 0 L 1000 0 L 1000 666.71875 L 0 666.71875 Z M 0 0 "/>
</clipPath>
<clipPath id="clip2">
  <path d="M 0 0 L 250 0 L 250 666.71875 L 0 666.71875 Z M 0 0 "/>
</clipPath>
</defs>
<g id="surface399">
<g clip-path="url(#clip1)" clip-rule="nonzero">
<path style=" stroke:none;fill-rule:evenodd;fill:rgb(89.01825%,12.940979%,9.411621%);fill-opacity:1;" d="M 0 666.667969 L 0 0 L 1000 0 L 1000 666.667969 Z M 0 666.667969 "/>
</g>
<path style=" stroke:none;fill-rule:evenodd;fill:rgb(99.998474%,99.998474%,99.998474%);fill-opacity:1;" d="M 0 0 L 1000 0 L 1000 444.445312 L 0 444.445312 Z M 0 0 "/>
<path style=" stroke:none;fill-rule:evenodd;fill:rgb(24.313354%,60.391235%,0%);fill-opacity:1;" d="M 0 0 L 1000 0 L 1000 222.222656 L 0 222.222656 Z M 0 0 "/>
<g clip-path="url(#clip2)" clip-rule="nonzero">
<path style=" stroke:none;fill-rule:evenodd;fill:rgb(0%,45.097351%,80.783081%);fill-opacity:1;" d="M 0 0 L 0 666.667969 L 250 333.332031 Z M 0 0 "/>
</g>
<path style="fill-rule:evenodd;fill:rgb(99.998474%,99.998474%,99.998474%);fill-opacity:1;stroke-width:0.972222;stroke-linecap:butt;stroke-linejoin:miter;stroke:rgb(0%,0%,0%);stroke-opacity:1;stroke-miterlimit:4;" d="M 563.058594 375.558594 L 570 385.554688 L 576.386719 376.109375 L 571.945312 368.054688 Z M 563.058594 375.558594 "/>
<path style="fill-rule:evenodd;fill:rgb(99.998474%,99.998474%,99.998474%);fill-opacity:1;stroke-width:0.972222;stroke-linecap:butt;stroke-linejoin:miter;stroke:rgb(0%,0%,0%);stroke-opacity:1;stroke-miterlimit:4;" d="M 518.886719 404.722656 L 519.445312 414.722656 C 519.445312 414.722656 522.222656 414.722656 524.722656 413.886719 C 526.945312 413.058594 528.890625 411.390625 528.890625 411.390625 L 528.609375 406.113281 Z M 518.886719 404.722656 "/>
<path style="fill-rule:evenodd;fill:rgb(99.998474%,99.998474%,99.998474%);fill-opacity:1;stroke-width:0.972222;stroke-linecap:butt;stroke-linejoin:miter;stroke:rgb(0%,0%,0%);stroke-opacity:1;stroke-miterlimit:4;" d="M 481.664062 404.722656 L 481.113281 414.445312 C 481.113281 414.445312 478.609375 414.445312 476.109375 413.886719 C 473.890625 413.335938 471.945312 411.941406 471.945312 411.941406 L 469.164062 405.277344 Z M 481.664062 404.722656 "/>
<path style="fill-rule:evenodd;fill:rgb(99.998474%,99.998474%,99.998474%);fill-opacity:1;stroke-width:1.333333;stroke-linecap:butt;stroke-linejoin:miter;stroke:rgb(0%,0%,0%);stroke-opacity:1;stroke-miterlimit:4;" d="M 446.667969 266.332031 L 553.054688 266.332031 L 553.054688 377.777344 C 553.054688 415.277344 504.167969 386.390625 500 406.386719 C 492.777344 385.832031 446.945312 415.554688 446.945312 375.558594 C 446.945312 336.664062 446.667969 266.332031 446.667969 266.332031 Z M 446.667969 266.332031 "/>
<path style="fill-rule:evenodd;fill:rgb(99.998474%,99.998474%,99.998474%);fill-opacity:1;stroke-width:0.972222;stroke-linecap:butt;stroke-linejoin:miter;stroke:rgb(0%,0%,0%);stroke-opacity:1;stroke-miterlimit:4;" d="M 436.941406 375.558594 L 429.722656 385.554688 L 421.945312 372.777344 L 427.777344 366.667969 Z M 436.941406 375.558594 "/>
<path style="fill-rule:evenodd;fill:rgb(99.998474%,84.312439%,0%);fill-opacity:1;stroke-width:0.972222;stroke-linecap:butt;stroke-linejoin:miter;stroke:rgb(0%,0%,0%);stroke-opacity:1;stroke-miterlimit:4;" d="M 496.390625 250.71875 L 490.277344 251 L 487.222656 256.472656 L 483.890625 251.25 L 477.777344 251.5 L 480.554688 246 L 477.222656 240.777344 L 483.609375 240.5 L 486.390625 235.027344 L 489.722656 240.25 L 495.832031 239.996094 L 493.054688 245.5 Z M 496.390625 250.71875 "/>
<path style="fill-rule:evenodd;fill:rgb(99.998474%,84.312439%,0%);fill-opacity:1;stroke-width:0.972222;stroke-linecap:butt;stroke-linejoin:miter;stroke:rgb(0%,0%,0%);stroke-opacity:1;stroke-miterlimit:4;" d="M 470.277344 252.75 L 464.167969 254.246094 L 462.5 260.167969 L 458.054688 255.722656 L 452.222656 257.164062 L 453.890625 251.25 L 449.722656 246.75 L 455.554688 245.277344 L 457.222656 239.335938 L 461.664062 243.777344 L 467.777344 242.335938 L 465.832031 248.277344 Z M 470.277344 252.75 "/>
<path style="fill-rule:evenodd;fill:rgb(99.998474%,84.312439%,0%);fill-opacity:1;stroke-width:0.972222;stroke-linecap:butt;stroke-linejoin:miter;stroke:rgb(0%,0%,0%);stroke-opacity:1;stroke-miterlimit:4;" d="M 445 257.941406 L 439.445312 260.695312 L 439.167969 266.863281 L 433.890625 263.472656 L 428.332031 266.195312 L 428.890625 260.027344 L 423.613281 256.613281 L 429.167969 253.832031 L 429.722656 247.667969 L 434.722656 251.054688 L 440.277344 248.332031 L 439.996094 254.5 Z M 445 257.941406 "/>
<path style="fill-rule:evenodd;fill:rgb(99.998474%,84.312439%,0%);fill-opacity:1;stroke-width:0.972222;stroke-linecap:butt;stroke-linejoin:miter;stroke:rgb(0%,0%,0%);stroke-opacity:1;stroke-miterlimit:4;" d="M 504.445312 250.71875 L 510.554688 251 L 513.335938 256.472656 L 516.667969 251.25 L 522.777344 251.5 L 520 246 L 523.332031 240.777344 L 517.222656 240.5 L 514.167969 235.027344 L 510.832031 240.25 L 504.722656 239.996094 L 507.5 245.5 Z M 504.445312 250.71875 "/>
<path style="fill-rule:evenodd;fill:rgb(99.998474%,84.312439%,0%);fill-opacity:1;stroke-width:0.972222;stroke-linecap:butt;stroke-linejoin:miter;stroke:rgb(0%,0%,0%);stroke-opacity:1;stroke-miterlimit:4;" d="M 530.554688 252.75 L 536.390625 254.246094 L 538.058594 260.167969 L 542.5 255.722656 L 548.332031 257.164062 L 546.667969 251.25 L 551.109375 246.75 L 545 245.277344 L 543.335938 239.335938 L 538.886719 243.777344 L 533.054688 242.335938 L 534.722656 248.277344 Z M 530.554688 252.75 "/>
<path style="fill-rule:evenodd;fill:rgb(99.998474%,84.312439%,0%);fill-opacity:1;stroke-width:0.972222;stroke-linecap:butt;stroke-linejoin:miter;stroke:rgb(0%,0%,0%);stroke-opacity:1;stroke-miterlimit:4;" d="M 555.554688 257.941406 L 561.113281 260.695312 L 561.390625 266.863281 L 566.667969 263.472656 L 572.222656 266.195312 L 571.945312 260.027344 L 576.945312 256.613281 L 571.390625 253.832031 L 571.109375 247.667969 L 565.832031 251.054688 L 560.277344 248.332031 L 560.832031 254.5 Z M 555.554688 257.941406 "/>
<path style="fill-rule:evenodd;fill:rgb(99.998474%,99.998474%,99.998474%);fill-opacity:1;stroke-width:0.972222;stroke-linecap:butt;stroke-linejoin:miter;stroke:rgb(0%,0%,0%);stroke-opacity:1;stroke-miterlimit:4;" d="M 471.667969 411.390625 L 471.667969 424.722656 C 471.667969 434.167969 528.890625 434.167969 528.890625 424.722656 L 528.890625 411.390625 C 528.890625 418.335938 471.667969 416.945312 471.667969 411.390625 Z M 471.667969 411.390625 "/>
<path style="fill-rule:evenodd;fill:rgb(99.998474%,99.998474%,99.998474%);fill-opacity:1;stroke-width:0.972222;stroke-linecap:butt;stroke-linejoin:miter;stroke:rgb(0%,0%,0%);stroke-opacity:1;stroke-miterlimit:4;" d="M 420.554688 393.886719 C 425.558594 419.445312 471.667969 420 471.667969 420 L 471.667969 411.390625 C 470.554688 408.054688 472.503906 406.945312 480 405.835938 C 483.054688 405.554688 481.664062 401.109375 481.664062 401.109375 C 481.664062 401.109375 461.664062 404.722656 447.503906 399.164062 C 428.332031 391.390625 425.558594 376.386719 425.558594 376.386719 C 425.558594 376.386719 424.164062 388.058594 420.554688 393.886719 Z M 420.554688 393.886719 "/>
<path style="fill-rule:evenodd;fill:rgb(99.998474%,99.998474%,99.998474%);fill-opacity:1;stroke-width:0.972222;stroke-linecap:butt;stroke-linejoin:miter;stroke:rgb(0%,0%,0%);stroke-opacity:1;stroke-miterlimit:4;" d="M 579.722656 393.886719 C 575 419.445312 528.890625 420 528.890625 420 L 528.890625 411.390625 C 529.722656 408.054688 527.777344 406.945312 520.277344 405.835938 C 517.222656 405.554688 518.886719 401.109375 518.886719 401.109375 C 518.886719 401.109375 538.886719 404.722656 553.054688 399.164062 C 571.945312 391.390625 574.164062 376.386719 574.164062 376.386719 C 574.164062 376.386719 576.109375 388.058594 579.722656 393.886719 Z M 579.722656 393.886719 "/>
<path style="fill-rule:evenodd;fill:rgb(99.998474%,99.998474%,99.998474%);fill-opacity:1;stroke-width:0.972222;stroke-linecap:butt;stroke-linejoin:miter;stroke:rgb(0%,0%,0%);stroke-opacity:1;stroke-miterlimit:4;" d="M 424.164062 384.167969 C 411.390625 377.222656 421.390625 370 422.503906 349.441406 C 424.441406 361.941406 438.609375 367.222656 436.941406 375.277344 C 431.113281 375.558594 428.332031 366.667969 425.558594 376.386719 Z M 424.164062 384.167969 "/>
<path style="fill-rule:evenodd;fill:rgb(99.998474%,99.998474%,99.998474%);fill-opacity:1;stroke-width:0.972222;stroke-linecap:butt;stroke-linejoin:miter;stroke:rgb(0%,0%,0%);stroke-opacity:1;stroke-miterlimit:4;" d="M 576.109375 384.167969 C 588.886719 376.945312 578.332031 370 577.222656 349.441406 C 575.277344 361.941406 561.390625 367.222656 563.058594 375.277344 C 568.613281 375.558594 571.390625 366.667969 574.164062 376.386719 L 576.109375 383.890625 Z M 576.109375 384.167969 "/>
<path style=" stroke:none;fill-rule:evenodd;fill:rgb(0%,0%,0%);fill-opacity:1;" d="M 489.167969 428.054688 L 489.167969 419.164062 L 494.164062 419.164062 C 494.722656 419.445312 495.277344 419.722656 495.554688 420 C 495.832031 420.554688 496.109375 421.109375 496.109375 421.667969 C 496.109375 422.222656 495.832031 422.777344 495.832031 423.054688 C 495.554688 423.613281 495.277344 423.890625 495 424.164062 C 494.722656 424.164062 494.445312 424.441406 494.164062 424.441406 C 493.613281 424.441406 493.054688 424.722656 492.222656 424.722656 L 491.109375 424.722656 L 491.109375 428.054688 Z M 491.109375 420.554688 L 491.109375 423.054688 L 493.335938 423.054688 C 493.613281 422.777344 493.886719 422.777344 493.886719 422.503906 C 494.164062 422.222656 494.164062 422.222656 494.164062 421.945312 C 494.164062 421.390625 494.164062 421.109375 493.886719 421.109375 C 493.613281 420.832031 493.335938 420.554688 493.054688 420.554688 Z M 504.722656 428.054688 L 502.777344 428.054688 L 501.945312 425.835938 L 498.332031 425.835938 L 497.503906 428.054688 L 495.554688 428.054688 L 499.164062 419.164062 L 501.109375 419.164062 Z M 501.386719 424.441406 L 500 421.109375 L 498.890625 424.441406 Z M 504.722656 428.054688 L 504.722656 426.386719 L 509.445312 420.554688 L 505.277344 420.554688 L 505.277344 419.164062 L 511.941406 419.164062 L 511.941406 420.554688 L 506.945312 426.386719 L 511.941406 426.386719 L 511.941406 428.054688 Z M 504.722656 428.054688 "/>
<path style="fill-rule:evenodd;fill:rgb(45.097351%,27.058411%,16.862488%);fill-opacity:1;stroke-width:0.277778;stroke-linecap:butt;stroke-linejoin:miter;stroke:rgb(0%,0%,0%);stroke-opacity:1;stroke-miterlimit:4;" d="M 507.5 388.609375 C 507.5 388.609375 506.113281 389.996094 503.609375 388.886719 C 501.109375 387.777344 500.835938 317.5 500.835938 317.5 C 506.386719 311.390625 510.832031 309.445312 510.832031 309.445312 L 514.167969 312.222656 C 501.667969 318.613281 502.777344 327.777344 503.890625 343.613281 C 504.167969 349.441406 504.167969 356.945312 505.554688 364.167969 C 507.5 373.332031 511.390625 381.113281 511.664062 386.941406 C 511.941406 390.554688 507.5 388.609375 507.5 388.609375 Z M 507.5 388.609375 "/>
<path style="fill-rule:evenodd;fill:rgb(45.097351%,27.058411%,16.862488%);fill-opacity:1;stroke-width:0.277778;stroke-linecap:butt;stroke-linejoin:miter;stroke:rgb(0%,0%,0%);stroke-opacity:1;stroke-miterlimit:4;" d="M 498.890625 307.777344 L 503.890625 307.777344 C 499.722656 348.054688 503.332031 371.945312 503.332031 383.609375 C 503.332031 387.5 505.554688 388.886719 505.277344 388.886719 C 500.277344 394.445312 497.777344 388.609375 497.777344 388.609375 Z M 498.890625 307.777344 "/>
<path style=" stroke:none;fill-rule:evenodd;fill:rgb(63.920593%,39.99939%,16.078186%);fill-opacity:1;" d="M 491.109375 388.609375 C 486.390625 390.832031 485.832031 386.390625 486.113281 385.832031 C 496.390625 364.996094 500.835938 319.164062 491.390625 314.167969 L 491.945312 309.722656 C 495.554688 310.832031 498.890625 315.554688 498.890625 315.554688 C 500.277344 366.945312 498.890625 388.058594 498.054688 388.886719 C 493.054688 394.164062 491.109375 388.058594 490.832031 387.5 Z M 491.109375 388.609375 "/>
<path style="fill:none;stroke-width:0.277778;stroke-linecap:butt;stroke-linejoin:miter;stroke:rgb(0%,0%,0%);stroke-opacity:1;stroke-miterlimit:4;" d="M 491.109375 388.609375 C 486.390625 390.832031 485.832031 386.390625 486.113281 385.832031 C 496.390625 364.996094 500.835938 319.164062 491.390625 314.167969 L 491.945312 309.722656 C 495.554688 310.832031 498.890625 315.554688 498.890625 315.554688 C 500.277344 366.945312 498.890625 388.058594 498.054688 388.886719 C 493.054688 394.164062 491.109375 388.058594 490.832031 387.5 "/>
<path style="fill:none;stroke-width:0.277778;stroke-linecap:butt;stroke-linejoin:miter;stroke:rgb(0%,0%,0%);stroke-opacity:1;stroke-miterlimit:4;" d="M 490.832031 387.777344 C 489.996094 383.332031 498.054688 371.945312 497.503906 360.003906 "/>
<path style="fill:none;stroke-width:0.277778;stroke-linecap:butt;stroke-linejoin:miter;stroke:rgb(0%,0%,0%);stroke-opacity:1;stroke-miterlimit:4;" d="M 504.445312 369.722656 C 506.945312 376.667969 508.054688 382.777344 507.5 388.609375 "/>
<path style="fill-rule:evenodd;fill:rgb(0%,60.391235%,23.136902%);fill-opacity:1;stroke-width:0.277778;stroke-linecap:butt;stroke-linejoin:miter;stroke:rgb(0%,0%,0%);stroke-opacity:1;stroke-miterlimit:4;" d="M 515.277344 288.886719 C 516.945312 286.941406 516.945312 286.941406 520 286.941406 C 520.554688 282.777344 527.496094 282.777344 528.054688 288.058594 C 533.609375 286.941406 534.722656 290.277344 532.5 293.613281 C 537.777344 292.222656 542.5 293.613281 541.109375 299.722656 C 550.558594 302.222656 546.945312 308.890625 542.777344 310.277344 C 542.222656 314.445312 538.335938 315.832031 533.054688 314.167969 C 526.386719 318.886719 522.503906 317.222656 519.445312 312.5 C 511.941406 313.609375 511.390625 311.941406 508.054688 307.777344 C 502.222656 310.277344 501.109375 310.277344 496.109375 307.222656 C 495.832031 311.113281 494.445312 310.003906 491.945312 309.722656 C 492.222656 314.722656 490.277344 316.945312 485.832031 315.277344 C 489.167969 322.222656 480.554688 325.277344 476.386719 319.445312 C 472.503906 319.722656 472.222656 318.613281 470.277344 317.222656 C 468.613281 322.777344 462.5 321.945312 461.390625 318.886719 C 453.609375 317.777344 454.445312 313.609375 460.832031 313.335938 C 461.390625 308.890625 465.277344 309.722656 467.777344 310.277344 C 468.054688 307.5 469.722656 308.054688 471.109375 308.609375 C 470.277344 306.664062 470.832031 305.554688 473.332031 305 C 469.722656 300.277344 471.945312 298.613281 475.558594 296.945312 C 473.613281 292.5 476.945312 292.777344 479.445312 292.5 C 479.167969 287.777344 480.554688 286.941406 485.554688 286.390625 C 485.003906 284.722656 485.832031 283.332031 488.609375 283.332031 C 486.941406 278.609375 489.167969 277.527344 494.164062 278.332031 C 495 271.472656 509.722656 274.722656 508.609375 284.167969 C 512.777344 284.722656 514.167969 285.554688 515.277344 288.886719 Z M 515.277344 288.886719 "/>
<path style="fill:none;stroke-width:0.277778;stroke-linecap:butt;stroke-linejoin:miter;stroke:rgb(0%,0%,0%);stroke-opacity:1;stroke-miterlimit:4;" d="M 485.554688 286.390625 C 486.664062 286.941406 488.058594 286.390625 488.335938 289.445312 C 490.554688 285.554688 493.335938 287.777344 493.335938 292.222656 "/>
<path style="fill:none;stroke-width:0.277778;stroke-linecap:butt;stroke-linejoin:miter;stroke:rgb(0%,0%,0%);stroke-opacity:1;stroke-miterlimit:4;" d="M 508.609375 284.167969 C 507.5 285.832031 503.332031 285.832031 503.890625 290.277344 C 502.496094 288.335938 499.722656 287.777344 498.613281 289.722656 "/>
<path style="fill:none;stroke-width:0.277778;stroke-linecap:butt;stroke-linejoin:miter;stroke:rgb(0%,0%,0%);stroke-opacity:1;stroke-miterlimit:4;" d="M 515.277344 288.886719 C 515.277344 289.996094 514.996094 293.335938 513.886719 295 "/>
<path style="fill:none;stroke-width:0.277778;stroke-linecap:butt;stroke-linejoin:miter;stroke:rgb(0%,0%,0%);stroke-opacity:1;stroke-miterlimit:4;" d="M 532.5 293.613281 C 532.777344 293.886719 528.609375 293.613281 526.667969 295 "/>
<path style="fill:none;stroke-width:0.277778;stroke-linecap:butt;stroke-linejoin:miter;stroke:rgb(0%,0%,0%);stroke-opacity:1;stroke-miterlimit:4;" d="M 542.777344 310.277344 C 541.667969 309.722656 539.445312 308.332031 537.777344 310.554688 C 537.777344 309.445312 537.777344 306.386719 534.722656 306.386719 "/>
<path style="fill:none;stroke-width:0.277778;stroke-linecap:butt;stroke-linejoin:miter;stroke:rgb(0%,0%,0%);stroke-opacity:1;stroke-miterlimit:4;" d="M 533.054688 314.167969 C 533.054688 311.390625 532.5 310.554688 531.945312 309.722656 "/>
<path style="fill:none;stroke-width:0.277778;stroke-linecap:butt;stroke-linejoin:miter;stroke:rgb(0%,0%,0%);stroke-opacity:1;stroke-miterlimit:4;" d="M 523.890625 310.277344 C 521.667969 308.609375 519.445312 311.113281 519.445312 312.5 "/>
<path style="fill:none;stroke-width:0.277778;stroke-linecap:butt;stroke-linejoin:miter;stroke:rgb(0%,0%,0%);stroke-opacity:1;stroke-miterlimit:4;" d="M 507.777344 307.777344 C 507.777344 306.664062 506.945312 304.445312 508.890625 303.609375 "/>
<path style="fill:none;stroke-width:0.277778;stroke-linecap:butt;stroke-linejoin:miter;stroke:rgb(0%,0%,0%);stroke-opacity:1;stroke-miterlimit:4;" d="M 476.109375 319.445312 C 476.667969 316.667969 478.609375 316.667969 478.332031 315.277344 C 478.054688 313.058594 475.558594 311.113281 472.503906 314.167969 "/>
<path style="fill:none;stroke-width:0.277778;stroke-linecap:butt;stroke-linejoin:miter;stroke:rgb(0%,0%,0%);stroke-opacity:1;stroke-miterlimit:4;" d="M 478.332031 315.277344 C 480 314.722656 481.664062 314.996094 482.222656 315.832031 "/>
<path style="fill:none;stroke-width:0.277778;stroke-linecap:butt;stroke-linejoin:miter;stroke:rgb(0%,0%,0%);stroke-opacity:1;stroke-miterlimit:4;" d="M 473.613281 305 C 474.722656 303.890625 477.496094 304.167969 479.167969 305 "/>
<path style="fill:none;stroke-width:0.277778;stroke-linecap:butt;stroke-linejoin:miter;stroke:rgb(0%,0%,0%);stroke-opacity:1;stroke-miterlimit:4;" d="M 479.167969 298.332031 C 480.554688 298.332031 483.054688 297.777344 483.890625 300.277344 C 486.941406 295.554688 489.167969 296.109375 489.722656 297.222656 "/>
<path style="fill:none;stroke-width:0.277778;stroke-linecap:butt;stroke-linejoin:miter;stroke:rgb(0%,0%,0%);stroke-opacity:1;stroke-miterlimit:4;" d="M 495.277344 296.667969 C 497.503906 295.832031 501.386719 298.054688 503.609375 301.945312 C 504.722656 298.890625 506.386719 299.441406 508.054688 299.164062 "/>
<path style="fill:none;stroke-width:0.277778;stroke-linecap:butt;stroke-linejoin:miter;stroke:rgb(0%,0%,0%);stroke-opacity:1;stroke-miterlimit:4;" d="M 518.613281 301.945312 C 522.222656 300.277344 524.441406 303.609375 525.558594 305 C 527.222656 302.777344 528.609375 302.777344 530.277344 302.777344 "/>
<path style="fill:none;stroke-width:0.277778;stroke-linecap:butt;stroke-linejoin:miter;stroke:rgb(0%,0%,0%);stroke-opacity:1;stroke-miterlimit:4;" d="M 485.003906 308.609375 C 485.832031 307.222656 487.777344 306.945312 489.167969 307.777344 C 488.886719 305.277344 490.554688 304.167969 491.667969 304.722656 "/>
<path style=" stroke:none;fill-rule:evenodd;fill:rgb(0%,0%,0%);fill-opacity:1;" d="M 431.945312 393.613281 L 433.332031 394.722656 L 430.277344 398.054688 C 429.722656 398.613281 429.445312 399.164062 429.445312 399.164062 C 429.167969 399.722656 429.167969 400 429.167969 400.277344 C 429.167969 400.558594 429.445312 400.835938 429.722656 401.109375 C 430 401.667969 430.554688 401.667969 430.835938 401.667969 C 431.113281 401.667969 431.386719 401.667969 431.664062 401.386719 C 431.945312 401.386719 432.222656 401.109375 432.5 400.558594 L 435.832031 396.945312 L 436.941406 398.054688 L 434.167969 401.386719 L 432.5 403.054688 C 432.222656 403.332031 431.945312 403.332031 431.386719 403.332031 L 430.277344 403.332031 C 429.722656 403.054688 429.445312 402.777344 428.890625 402.496094 C 428.332031 401.945312 427.777344 401.386719 427.777344 400.835938 C 427.496094 400.558594 427.496094 400 427.496094 399.722656 C 427.496094 399.441406 427.496094 398.890625 427.777344 398.613281 C 427.777344 398.332031 428.332031 397.777344 428.890625 396.945312 Z M 432.777344 405.554688 L 437.5 398.332031 L 438.886719 399.164062 L 438.609375 405.835938 L 441.667969 401.109375 L 443.054688 401.945312 L 438.609375 409.167969 L 436.941406 408.332031 L 437.222656 401.667969 L 434.167969 406.386719 Z M 439.996094 410.003906 L 443.886719 402.222656 L 445.277344 403.054688 L 441.667969 410.554688 Z M 446.109375 403.332031 L 448.890625 404.445312 C 449.722656 404.722656 450 405 450.277344 405.277344 C 450.835938 405.554688 451.109375 405.835938 451.386719 406.386719 C 451.667969 406.945312 451.667969 407.222656 451.667969 407.777344 C 451.667969 408.609375 451.386719 409.167969 451.109375 410.003906 C 451.109375 410.554688 450.835938 411.113281 450.277344 411.390625 C 450 411.941406 449.441406 412.5 448.890625 412.5 C 448.613281 412.777344 448.054688 412.777344 447.777344 412.777344 C 447.222656 412.777344 446.667969 412.777344 446.109375 412.5 L 443.054688 411.390625 Z M 447.222656 405.277344 L 445.277344 410.554688 L 446.390625 411.113281 C 446.945312 411.113281 447.222656 411.390625 447.503906 411.390625 L 448.332031 411.390625 C 448.332031 411.113281 448.613281 410.832031 448.890625 410.554688 C 449.164062 410.277344 449.441406 409.722656 449.441406 409.167969 C 449.722656 408.609375 450 408.054688 450 407.777344 C 450 407.5 450 406.945312 449.722656 406.945312 C 449.722656 406.664062 449.441406 406.386719 449.164062 406.113281 C 448.890625 406.113281 448.613281 405.835938 447.777344 405.554688 Z M 458.890625 415.554688 L 456.945312 415.277344 L 456.664062 413.335938 L 453.332031 412.5 L 452.222656 414.445312 L 450.277344 413.886719 L 455.277344 406.386719 L 456.945312 406.664062 Z M 456.386719 411.664062 L 455.835938 408.332031 L 454.167969 411.390625 Z M 460.003906 407.222656 L 463.335938 407.222656 C 463.886719 407.5 464.445312 407.5 464.722656 407.5 C 465.277344 407.777344 465.832031 408.054688 466.109375 408.332031 C 466.390625 408.890625 466.667969 409.167969 466.667969 409.722656 C 466.945312 410.277344 466.945312 411.113281 466.945312 411.941406 C 466.945312 412.5 466.945312 413.058594 466.667969 413.609375 C 466.390625 414.167969 466.109375 414.722656 465.554688 414.996094 C 465.277344 415.277344 464.996094 415.554688 464.445312 415.832031 L 462.777344 415.832031 L 459.722656 415.554688 Z M 461.664062 408.609375 L 461.390625 414.445312 L 463.886719 414.445312 C 464.167969 414.167969 464.167969 414.167969 464.445312 414.167969 C 464.722656 413.886719 464.722656 413.609375 464.996094 413.335938 C 464.996094 412.777344 465.277344 412.222656 465.277344 411.664062 C 465.277344 411.113281 465.277344 410.554688 464.996094 410.277344 C 464.996094 409.722656 464.996094 409.445312 464.722656 409.445312 C 464.445312 409.167969 464.167969 408.890625 463.886719 408.890625 L 462.5 408.890625 Z M 461.664062 408.609375 "/>
<path style=" stroke:none;fill-rule:evenodd;fill:rgb(0%,0%,0%);fill-opacity:1;" d="M 532.777344 409.167969 L 534.445312 408.890625 L 535.277344 413.886719 L 535.277344 415.554688 C 535.003906 416.109375 534.722656 416.390625 534.445312 416.945312 C 534.167969 417.222656 533.609375 417.5 532.777344 417.5 C 531.945312 417.5 531.386719 417.5 530.835938 416.945312 C 530.277344 416.667969 530 416.109375 530 414.996094 L 531.386719 414.722656 C 531.664062 415.277344 531.664062 415.554688 531.945312 415.832031 C 531.945312 416.109375 532.222656 416.109375 532.777344 416.109375 C 533.054688 416.109375 533.332031 415.832031 533.332031 415.554688 C 533.609375 415.277344 533.609375 414.996094 533.609375 414.167969 L 532.777344 408.890625 Z M 535.554688 408.609375 L 537.222656 408.332031 L 538.058594 412.777344 C 538.335938 413.335938 538.335938 413.886719 538.335938 414.167969 C 538.609375 414.445312 538.886719 414.722656 539.167969 414.722656 C 539.445312 414.996094 539.722656 414.996094 540.277344 414.722656 C 540.832031 414.722656 541.109375 414.445312 541.109375 414.445312 C 541.390625 414.167969 541.667969 413.886719 541.390625 413.609375 L 541.390625 412.222656 L 540.277344 407.777344 L 541.945312 407.5 L 542.777344 411.664062 C 543.054688 412.5 543.054688 413.335938 543.054688 413.609375 C 543.054688 414.167969 543.054688 414.445312 542.777344 414.722656 C 542.777344 414.996094 542.5 415.277344 542.222656 415.554688 C 541.667969 415.832031 541.109375 416.109375 540.554688 416.109375 C 539.722656 416.390625 539.167969 416.390625 538.886719 416.390625 C 538.335938 416.109375 538.058594 416.109375 537.777344 415.832031 L 536.941406 414.996094 C 536.941406 414.445312 536.664062 413.886719 536.390625 413.058594 Z M 544.164062 412.5 L 545.554688 411.941406 C 545.832031 412.5 546.109375 412.777344 546.667969 412.777344 C 546.945312 413.058594 547.503906 413.058594 547.777344 412.777344 C 548.332031 412.777344 548.613281 412.5 548.890625 412.222656 C 549.164062 411.941406 549.164062 411.664062 549.164062 411.390625 C 548.890625 411.113281 548.890625 411.113281 548.890625 410.832031 L 546.667969 410.832031 C 545.832031 410.832031 545 410.832031 544.722656 410.554688 C 544.164062 410.277344 543.613281 409.722656 543.335938 409.167969 L 543.335938 408.054688 C 543.613281 407.5 543.886719 407.222656 544.164062 406.945312 C 544.445312 406.664062 545 406.386719 545.554688 406.113281 C 546.667969 405.835938 547.503906 405.835938 548.054688 406.113281 C 548.613281 406.386719 549.164062 406.945312 549.441406 407.5 L 547.777344 408.054688 C 547.503906 407.777344 547.503906 407.5 547.222656 407.5 C 546.945312 407.222656 546.390625 407.222656 546.109375 407.5 C 545.554688 407.5 545.277344 407.777344 545 408.054688 L 545 408.609375 C 545 408.890625 545 408.890625 545.277344 409.167969 L 548.890625 409.167969 C 549.164062 409.167969 549.722656 409.445312 550 409.722656 C 550.277344 410.003906 550.558594 410.277344 550.558594 410.832031 C 550.835938 411.390625 550.835938 411.664062 550.558594 412.222656 C 550.558594 412.777344 550.277344 413.058594 550 413.335938 L 548.332031 414.167969 C 547.222656 414.445312 546.390625 414.445312 545.832031 414.167969 C 545 413.886719 544.445312 413.335938 544.164062 412.5 Z M 554.445312 411.941406 L 551.667969 405.554688 L 549.441406 406.664062 L 548.890625 405.277344 L 555 402.777344 L 555.554688 403.890625 L 553.332031 405 L 555.835938 411.113281 Z M 559.167969 409.722656 L 555.277344 402.496094 L 556.664062 401.667969 L 560.554688 408.890625 Z M 564.722656 403.054688 L 566.390625 402.496094 C 566.667969 403.332031 566.667969 404.167969 566.390625 404.722656 C 566.109375 405.554688 565.832031 406.113281 564.996094 406.664062 C 563.886719 407.222656 563.058594 407.222656 561.941406 406.945312 C 561.113281 406.664062 560.277344 406.113281 559.445312 405 C 558.890625 403.890625 558.609375 402.777344 558.890625 401.667969 C 558.890625 400.835938 559.445312 400 560.554688 399.164062 C 561.390625 398.890625 562.222656 398.613281 563.058594 398.890625 C 563.609375 398.890625 564.167969 399.164062 564.722656 399.722656 L 563.335938 400.835938 C 563.058594 400.558594 562.777344 400.277344 562.222656 400.277344 C 561.941406 400.277344 561.664062 400.277344 561.113281 400.558594 C 560.554688 400.835938 560.277344 401.386719 560.277344 401.945312 C 560.277344 402.496094 560.554688 403.054688 560.832031 403.890625 C 561.390625 405 561.941406 405.277344 562.5 405.554688 C 563.058594 405.835938 563.609375 405.554688 564.167969 405.277344 L 564.996094 404.445312 C 564.996094 403.890625 564.996094 403.609375 564.722656 403.054688 Z M 568.886719 403.890625 L 563.886719 397.222656 L 565.277344 396.109375 L 570.277344 402.777344 Z M 576.945312 396.945312 L 575.558594 398.054688 L 573.890625 397.222656 L 571.390625 399.441406 L 572.222656 401.109375 L 570.832031 402.496094 L 567.777344 394.164062 L 569.164062 393.054688 Z M 572.503906 396.390625 L 569.722656 395 L 570.832031 398.054688 Z M 572.503906 396.390625 "/>
</g>
</svg>
