<?xml version="1.0" encoding="UTF-8"?>
<svg xmlns="http://www.w3.org/2000/svg" xmlns:xlink="http://www.w3.org/1999/xlink" viewBox="0 0 1000 500" version="1.1">
<g id="surface404">
<rect x="0" y="0" width="1000" height="500" style="fill:rgb(91.763306%,1.568604%,21.568298%);fill-opacity:1;stroke:none;"/>
<path style=" stroke:none;fill-rule:evenodd;fill:rgb(25.489807%,53.72467%,86.665344%);fill-opacity:1;" d="M 0 500 L 1000 500 L 1000 250 Z M 0 500 "/>
<path style=" stroke:none;fill-rule:evenodd;fill:rgb(7.058716%,67.842102%,16.862488%);fill-opacity:1;" d="M 0 0 L 1000 0 L 1000 250 Z M 0 0 "/>
<path style=" stroke:none;fill-rule:evenodd;fill:rgb(99.998474%,78.038025%,14.901733%);fill-opacity:1;" d="M 230.25 369.160156 C 219.4375 372.148438 213.242188 380.53125 213.398438 388.449219 L 266.609375 388.234375 C 267.089844 379.730469 260.09375 371.863281 249.445312 368.769531 C 301.542969 367.691406 346.800781 348.179688 355.023438 335.660156 C 346.886719 332.125 337.476562 337.808594 330.765625 336.5 C 346.695312 329.140625 394.414062 298.253906 386.65625 265.140625 C 380.625 283.53125 362.359375 298.75 354.574219 302.835938 C 372.402344 275.765625 396.742188 247.585938 375.625 225.765625 C 376.691406 238.414062 367.585938 252.332031 363.570312 253.378906 C 373.90625 224.78125 383.773438 188.871094 361.371094 165.199219 C 364.3125 173.753906 363.125 197.890625 359.074219 198.976562 C 357.828125 179.527344 354.507812 138.621094 334.023438 139.203125 C 340.53125 144.996094 343.378906 160.800781 343.519531 176.765625 C 338.851562 165.828125 333.550781 157.59375 322.203125 149.519531 C 313.027344 131.917969 296.695312 117.332031 280.359375 106.886719 C 282.199219 119.699219 283.714844 129.804688 301.601562 143.097656 C 292.273438 142.515625 282.949219 124.832031 272.984375 124.339844 C 265.054688 123.960938 258.832031 131.527344 245.875 127.171875 C 247.308594 131.449219 253.355469 133.34375 254.628906 136.507812 C 251.855469 138.421875 245.269531 136.207031 239.789062 133.355469 C 247.324219 143.617188 259 149.652344 268.910156 147.617188 C 280.699219 145.351562 293.335938 146.546875 305.386719 153.410156 C 302.308594 154.988281 290.328125 154.980469 282.636719 154.015625 C 289.628906 161.09375 294.316406 165.78125 306.46875 165.703125 C 317.324219 165.636719 323.011719 159.914062 325.800781 163.457031 C 332.609375 171.523438 337.191406 179.589844 342.886719 189.085938 C 330.308594 190.472656 334.097656 174.859375 320.085938 166.871094 C 312.214844 183.164062 329.140625 202.476562 340.664062 210.507812 C 340.820312 222.753906 342.613281 232.996094 347.800781 242.324219 C 351.308594 248.894531 355.835938 255.625 354.125 270.464844 C 347.226562 265.441406 340.488281 248.496094 342.96875 235.046875 C 334.335938 237.402344 330.960938 252.582031 335.027344 260.226562 C 338.066406 266.046875 340.097656 277.175781 336.589844 282.152344 C 333.171875 286.792969 332.816406 286.269531 332.859375 296.222656 C 332.984375 302.175781 329.660156 309.21875 324.238281 314.132812 C 325.371094 309.9375 326.660156 302.714844 325.40625 298.203125 C 321.121094 305.46875 310.382812 312.988281 306.996094 320.796875 C 303.671875 328.628906 302.832031 342.1875 286.746094 345.316406 C 266.066406 349.417969 258.925781 353.007812 245.613281 358.453125 C 244.136719 348.34375 248.558594 327.261719 257.011719 328.460938 C 265.269531 329.929688 290.292969 319.839844 281.335938 298.753906 C 279.570312 305.398438 273.671875 311.886719 267.296875 312.171875 C 274.183594 303.234375 286.480469 293.980469 280.492188 279 C 277.164062 285.367188 271.929688 293.007812 263.988281 297.308594 C 272.5 280.996094 264.980469 276.117188 254.871094 289.550781 C 251.054688 294.730469 248.75 305.117188 246.324219 318.304688 C 242.355469 307.578125 242.617188 293.460938 237.914062 281.992188 C 232.996094 269.59375 244.433594 266.324219 249.820312 267.316406 C 262.992188 270.835938 285.015625 270.828125 283.378906 249.0625 C 277.683594 256.425781 267.710938 258.703125 256.929688 256.050781 C 269.035156 247.210938 278.589844 230.585938 265.101562 221.902344 C 264.652344 231.113281 257.527344 241.429688 248.023438 246.1875 C 245.796875 238.417969 245.796875 230.175781 247.703125 221.136719 C 242.390625 226.730469 238.515625 238.359375 235.429688 251.582031 C 235.199219 238.511719 237.671875 229.097656 239.503906 222.066406 C 242.28125 211.796875 249.191406 218.476562 259.765625 219.234375 C 269.945312 219.816406 283.96875 214.183594 281.289062 200.375 C 277.8125 205.839844 270.671875 207.964844 263.382812 207.386719 C 272.164062 202.070312 287.457031 192.617188 279.066406 178.082031 C 275.546875 183.582031 274.402344 188.296875 264.203125 189.984375 C 266.875 183.835938 267.320312 175.152344 275.234375 171.707031 C 261.113281 168.894531 253.027344 178.164062 248.917969 192.679688 C 247.25 182.617188 245.269531 178.910156 244.871094 171.550781 C 252.503906 163.070312 253.304688 146.484375 236.777344 142.777344 C 235.796875 151.332031 236.089844 153.367188 237.96875 160.335938 C 230.210938 155.726562 219.277344 153.183594 211.996094 159.703125 C 216.929688 165.023438 224.558594 169.710938 236.328125 163.90625 C 233.550781 172.996094 226.320312 171.441406 216.386719 167.972656 C 222.460938 179.378906 230.121094 181.40625 238.578125 180.09375 C 243.003906 191.761719 243.199219 200.636719 230.265625 217.632812 C 230.859375 207.070312 230.109375 199.199219 221.714844 190.660156 C 214.519531 183.613281 208.675781 190.957031 219.917969 206.621094 C 213.101562 201.597656 205.382812 191.40625 203.054688 181.214844 C 200.808594 193.804688 202.832031 208.640625 209.804688 216.957031 C 206.507812 220.484375 202.757812 216.585938 197.214844 207.96875 C 199.3125 235.546875 211.078125 240.863281 226.890625 234.714844 C 227.339844 249.855469 227.339844 263.867188 228.238281 282.152344 C 219.019531 268.890625 207.328125 259 200.808594 256.527344 C 198.789062 263.945312 206.429688 273.609375 210.703125 279.003906 C 204.183594 277.65625 190.019531 266.863281 190.019531 266.863281 C 188.59375 279.15625 204.484375 290.546875 214.75 295.640625 C 202.683594 295.117188 197.363281 290.546875 189.570312 283.050781 C 189.722656 317.148438 226.515625 311.226562 233.410156 305.980469 C 234.304688 322.769531 235.589844 342.171875 236.488281 358.960938 C 226.089844 357.144531 226.902344 354.015625 218.003906 353.195312 C 193.304688 352.230469 173.710938 323.539062 167.222656 302.4375 C 165.359375 305.910156 166.835938 309.546875 165.132812 313.808594 C 161.121094 303.453125 156 290.074219 149.132812 283.847656 C 150.878906 289.886719 151.066406 296.023438 150.453125 307.308594 C 148.097656 299.996094 145.902344 297.753906 145.746094 289.171875 C 145.898438 282.578125 152.105469 277.71875 151.757812 268.449219 C 151.503906 261.679688 145.332031 247.011719 144.421875 235.660156 C 141.433594 247.34375 139.558594 259.664062 134.980469 266.898438 C 137.257812 254.417969 136.527344 245.804688 140.375 237.40625 C 144.824219 228.566406 148.605469 220.667969 145.640625 211.742188 C 142.800781 215.191406 143.777344 218.324219 136.648438 226.699219 C 135.097656 217.59375 145.867188 203.011719 156.324219 197.152344 C 163.691406 193.269531 172.988281 179.378906 166.933594 169.855469 C 160 174.832031 156.890625 181.5625 147.09375 193.054688 C 154.082031 165.753906 172.226562 158.605469 193.953125 158.511719 C 198.765625 158.492188 208.457031 156.753906 211.175781 150.390625 C 205.054688 152.753906 197.8125 153.054688 191.367188 151.765625 C 196.058594 144.882812 205.9375 145.777344 215.136719 145.738281 C 222.359375 145.703125 233.628906 144.722656 238.183594 134.445312 C 229.375 138.257812 215.644531 139.050781 206.996094 136.347656 C 220.746094 129.222656 242.289062 128.457031 253.335938 119.105469 C 240.742188 109.707031 209.234375 121.292969 189.332031 134.945312 C 194.890625 129.859375 203.6875 120.835938 208.535156 113.550781 C 197.652344 108.328125 170.121094 138.828125 160.640625 156.949219 C 151.632812 162.035156 148.027344 170.011719 144.53125 175.578125 C 149.332031 159.355469 149.839844 147.585938 153.84375 134.234375 C 122.964844 144.863281 135.800781 201.914062 129.082031 215.5625 C 129.871094 200.492188 129.234375 181.132812 123.027344 171.152344 C 113.519531 178.410156 112.75 221.113281 121.679688 256.664062 C 118.457031 247.148438 112.367188 238.265625 110.421875 226.691406 C 96.34375 252.359375 118.667969 282.644531 137.339844 306.566406 C 123.28125 299.246094 109.386719 283.5 100.257812 270.300781 C 102.777344 316.25 150.757812 325.796875 158.207031 337.085938 C 148.097656 332.382812 128.769531 323.066406 120.566406 332.828125 C 133.921875 335.910156 144.570312 339.472656 153.152344 345.097656 C 165.605469 360.644531 189.183594 367.445312 230.25 369.160156 Z M 230.25 369.160156 "/>
</g>
</svg>
