<?xml version="1.0" encoding="UTF-8"?>
<svg xmlns="http://www.w3.org/2000/svg" xmlns:xlink="http://www.w3.org/1999/xlink" viewBox="0 0 1000 667" version="1.1">
<defs>
<clipPath id="clip1">
  <path d="M 0 0 L 1000 0 L 1000 666.71875 L 0 666.71875 Z M 0 0 "/>
</clipPath>
</defs>
<g id="surface1140">
<g clip-path="url(#clip1)" clip-rule="nonzero">
<path style=" stroke:none;fill-rule:evenodd;fill:rgb(24.313354%,36.862183%,72.547913%);fill-opacity:1;" d="M 0 0 L 999.984375 0 L 999.984375 666.667969 L 0 666.667969 Z M 0 0 "/>
</g>
<path style=" stroke:none;fill-rule:evenodd;fill:rgb(99.998474%,85.096741%,0%);fill-opacity:1;" d="M 0 119.042969 L 999.984375 119.042969 L 999.984375 547.617188 L 0 547.617188 Z M 0 119.042969 "/>
<path style=" stroke:none;fill-rule:evenodd;fill:rgb(69.410706%,4.705811%,4.705811%);fill-opacity:1;" d="M 0 166.667969 L 999.984375 166.667969 L 999.984375 499.992188 L 0 499.992188 Z M 0 166.667969 "/>
<path style="fill-rule:evenodd;fill:rgb(99.998474%,85.096741%,0%);fill-opacity:1;stroke-width:1.799431;stroke-linecap:butt;stroke-linejoin:miter;stroke:rgb(0%,0%,0%);stroke-opacity:1;stroke-miterlimit:4;" d="M 106.730469 326.195312 L 902.148438 326.195312 C 906.054688 326.195312 909.1875 329.378906 909.1875 333.332031 C 909.1875 337.296875 906.054688 340.480469 902.148438 340.480469 L 106.730469 340.480469 C 102.824219 340.480469 99.691406 337.296875 99.691406 333.332031 C 99.691406 329.378906 102.824219 326.195312 106.730469 326.195312 Z M 106.730469 326.195312 "/>
<path style="fill-rule:evenodd;fill:rgb(99.998474%,99.998474%,99.998474%);fill-opacity:1;stroke-width:1.679869;stroke-linecap:butt;stroke-linejoin:miter;stroke:rgb(0%,0%,0%);stroke-opacity:1;stroke-miterlimit:4;" d="M 821.410156 257.144531 L 780.933594 271.425781 L 821.410156 285.710938 L 861.890625 271.425781 Z M 821.410156 257.144531 "/>
<path style=" stroke:none;fill-rule:evenodd;fill:rgb(99.998474%,85.096741%,0%);fill-opacity:1;" d="M 209.929688 266.667969 L 794.800781 266.667969 C 797.671875 266.667969 799.976562 268.792969 799.976562 271.425781 C 799.976562 274.066406 797.671875 276.1875 794.800781 276.1875 L 209.929688 276.1875 C 207.066406 276.1875 204.753906 274.066406 204.753906 271.425781 C 204.753906 268.792969 207.066406 266.667969 209.929688 266.667969 Z M 209.929688 266.667969 "/>
<path style="fill:none;stroke-width:1.67987;stroke-linecap:butt;stroke-linejoin:miter;stroke:rgb(0%,0%,0%);stroke-opacity:1;stroke-miterlimit:4;" d="M 209.929688 266.667969 L 794.800781 266.667969 C 797.671875 266.667969 799.972656 268.792969 799.972656 271.425781 C 799.972656 274.066406 797.671875 276.1875 794.800781 276.1875 L 209.929688 276.1875 C 207.0625 276.1875 204.75 274.066406 204.75 271.425781 C 204.75 268.792969 207.0625 266.667969 209.929688 266.667969 Z M 209.929688 266.667969 "/>
<path style="fill:none;stroke-width:1.67987;stroke-linecap:butt;stroke-linejoin:miter;stroke:rgb(0%,0%,0%);stroke-opacity:1;stroke-miterlimit:4;" d="M 785.726562 276.1875 C 788.101562 276.1875 790.488281 273.804688 790.488281 271.425781 C 790.488281 269.042969 788.101562 266.667969 785.726562 266.667969 "/>
<path style="fill:none;stroke-width:1.67987;stroke-linecap:butt;stroke-linejoin:miter;stroke:rgb(0%,0%,0%);stroke-opacity:1;stroke-miterlimit:4;" d="M 780.964844 276.1875 C 783.339844 276.1875 785.726562 273.804688 785.726562 271.425781 C 785.726562 269.042969 783.339844 266.667969 780.964844 266.667969 "/>
<path style="fill:none;stroke-width:1.67987;stroke-linecap:butt;stroke-linejoin:miter;stroke:rgb(0%,0%,0%);stroke-opacity:1;stroke-miterlimit:4;" d="M 776.203125 276.1875 C 778.582031 276.1875 780.964844 273.804688 780.964844 271.425781 C 780.964844 269.042969 778.582031 266.667969 776.203125 266.667969 "/>
<path style="fill-rule:evenodd;fill:rgb(99.998474%,99.998474%,99.998474%);fill-opacity:1;stroke-width:1.679869;stroke-linecap:butt;stroke-linejoin:miter;stroke:rgb(0%,0%,0%);stroke-opacity:1;stroke-miterlimit:4;" d="M 783.316406 285.710938 L 742.835938 300 L 783.316406 314.28125 L 823.796875 300 Z M 783.316406 285.710938 "/>
<path style="fill-rule:evenodd;fill:rgb(99.998474%,85.096741%,0%);fill-opacity:1;stroke-width:1.67987;stroke-linecap:butt;stroke-linejoin:miter;stroke:rgb(0%,0%,0%);stroke-opacity:1;stroke-miterlimit:4;" d="M 171.832031 295.238281 L 756.707031 295.238281 C 759.578125 295.238281 761.882812 297.363281 761.882812 300 C 761.882812 302.636719 759.578125 304.761719 756.707031 304.761719 L 171.832031 304.761719 C 168.96875 304.761719 166.660156 302.636719 166.660156 300 C 166.660156 297.363281 168.96875 295.238281 171.832031 295.238281 Z M 171.832031 295.238281 "/>
<path style="fill:none;stroke-width:1.67987;stroke-linecap:butt;stroke-linejoin:miter;stroke:rgb(0%,0%,0%);stroke-opacity:1;stroke-miterlimit:4;" d="M 747.632812 304.761719 C 750.007812 304.761719 752.390625 302.375 752.390625 300 C 752.390625 297.617188 750.007812 295.230469 747.632812 295.230469 "/>
<path style="fill:none;stroke-width:1.67987;stroke-linecap:butt;stroke-linejoin:miter;stroke:rgb(0%,0%,0%);stroke-opacity:1;stroke-miterlimit:4;" d="M 742.871094 304.761719 C 745.246094 304.761719 747.632812 302.375 747.632812 300 C 747.632812 297.617188 745.246094 295.230469 742.871094 295.230469 "/>
<path style="fill:none;stroke-width:1.67987;stroke-linecap:butt;stroke-linejoin:miter;stroke:rgb(0%,0%,0%);stroke-opacity:1;stroke-miterlimit:4;" d="M 738.109375 304.761719 C 740.488281 304.761719 742.871094 302.375 742.871094 300 C 742.871094 297.617188 740.488281 295.230469 738.109375 295.230469 "/>
<path style=" stroke:none;fill-rule:evenodd;fill:rgb(23.921204%,36.470032%,65.489197%);fill-opacity:1;" d="M 852.253906 327.660156 C 845.042969 340.152344 857.796875 323.503906 888.898438 344.417969 C 894.664062 348.308594 899.699219 358.570312 899.699219 365.679688 C 898.234375 364.707031 897.152344 362.523438 895.539062 361.109375 C 893.285156 363.371094 897.699219 373.738281 898.339844 378.636719 C 893.472656 375.917969 893.945312 374.632812 892.324219 371.289062 C 892.652344 375.324219 891.496094 386.464844 893.425781 390.753906 C 889.589844 389.65625 889.851562 386.574219 887.851562 385.953125 C 889.207031 390.804688 886.664062 396.085938 887.335938 401.546875 C 885.101562 399.324219 882.707031 397.589844 881.671875 396.695312 C 881.492188 399.292969 877.359375 406.121094 877.269531 408.578125 C 875.367188 407.429688 874.855469 405.640625 874.535156 404.433594 C 872.175781 407.40625 863.777344 418.367188 863.238281 421.710938 C 856.769531 416 840.203125 402.082031 838.046875 394.703125 C 836.132812 398.894531 833.375 400.308594 827.921875 403.367188 C 825.765625 391.660156 817.707031 378.507812 822.011719 368.472656 C 818.960938 370.289062 816.449219 372.09375 813.394531 374.324219 C 816.285156 357.382812 831.039062 337.5 852.253906 327.660156 Z M 852.253906 327.660156 "/>
<path style="fill:none;stroke-width:1.425298;stroke-linecap:butt;stroke-linejoin:miter;stroke:rgb(0%,0%,0%);stroke-opacity:1;stroke-miterlimit:4;" d="M 852.253906 327.660156 C 845.042969 340.152344 857.796875 323.503906 888.898438 344.417969 C 894.664062 348.308594 899.699219 358.570312 899.699219 365.683594 C 898.234375 364.707031 897.152344 362.523438 895.539062 361.109375 C 893.285156 363.371094 897.699219 373.738281 898.339844 378.636719 C 893.472656 375.917969 893.945312 374.632812 892.324219 371.289062 C 892.652344 375.324219 891.496094 386.464844 893.425781 390.753906 C 889.589844 389.65625 889.851562 386.574219 887.851562 385.953125 C 889.207031 390.804688 886.664062 396.085938 887.335938 401.546875 C 885.101562 399.324219 882.707031 397.589844 881.671875 396.695312 C 881.492188 399.292969 877.359375 406.121094 877.269531 408.578125 C 875.367188 407.429688 874.855469 405.640625 874.535156 404.433594 C 872.175781 407.40625 863.777344 418.367188 863.238281 421.710938 C 856.769531 416 840.203125 402.082031 838.046875 394.703125 C 836.132812 398.894531 833.375 400.308594 827.921875 403.367188 C 825.765625 391.660156 817.707031 378.507812 822.011719 368.472656 C 818.960938 370.289062 816.449219 372.09375 813.394531 374.324219 C 816.285156 357.378906 831.039062 337.5 852.253906 327.660156 Z M 852.253906 327.660156 "/>
<path style=" stroke:none;fill-rule:evenodd;fill:rgb(65.489197%,0%,0%);fill-opacity:1;" d="M 825.339844 389.535156 C 828.335938 383.546875 831.097656 381.648438 833.03125 377.792969 C 836.449219 371.019531 836.9375 365.625 839.917969 366.421875 C 842.894531 367.210938 842.886719 369.988281 839.027344 376.644531 C 835.171875 383.308594 833.339844 384.734375 825.339844 389.535156 Z M 825.339844 389.535156 "/>
<path style=" stroke:none;fill-rule:evenodd;fill:rgb(65.489197%,0%,0%);fill-opacity:1;" d="M 845.597656 403.792969 C 845.214844 399.234375 846.535156 397.332031 846.289062 394.394531 C 845.882812 389.234375 843.765625 385.683594 846.515625 385.433594 C 849.261719 385.179688 850.546875 386.945312 850.554688 392.144531 C 850.5625 397.355469 849.757812 398.722656 845.597656 403.792969 Z M 845.597656 403.792969 "/>
<path style=" stroke:none;fill-rule:evenodd;fill:rgb(65.489197%,0%,0%);fill-opacity:1;" d="M 860.972656 412.726562 C 859.765625 406.363281 860.667969 403.546875 859.894531 399.445312 C 858.558594 392.230469 855.917969 387.484375 858.460938 386.824219 C 861.011719 386.164062 862.542969 388.5 863.507812 395.808594 C 864.46875 403.125 863.964844 405.136719 860.972656 412.726562 Z M 860.972656 412.726562 "/>
<path style=" stroke:none;fill-rule:evenodd;fill:rgb(65.489197%,0%,0%);fill-opacity:1;" d="M 876.953125 368.140625 C 873.203125 365.292969 871.003906 365.105469 868.585938 363.273438 C 864.324219 360.058594 862.167969 356.625 860.800781 358.324219 C 859.421875 360.035156 860.398438 361.898438 864.867188 364.867188 C 869.335938 367.832031 870.839844 368.066406 876.953125 368.140625 Z M 876.953125 368.140625 "/>
<path style=" stroke:none;fill-rule:evenodd;fill:rgb(65.489197%,0%,0%);fill-opacity:1;" d="M 874.300781 389.273438 C 872.324219 385.164062 870.238281 384.121094 868.960938 381.476562 C 866.699219 376.832031 866.699219 372.808594 864.242188 373.84375 C 861.792969 374.878906 861.597656 376.976562 864.214844 381.476562 C 866.847656 385.972656 868.210938 386.785156 874.300781 389.273438 Z M 874.300781 389.273438 "/>
<path style=" stroke:none;fill-rule:evenodd;fill:rgb(23.921204%,36.470032%,65.489197%);fill-opacity:1;" d="M 134.636719 339.699219 C 134.238281 336.058594 135.011719 335.628906 132.769531 332.886719 C 136.035156 334.246094 136.15625 337.867188 140.121094 335.292969 C 141.578125 334.546875 142.203125 334.519531 140.4375 330.476562 C 144.574219 330.671875 158.097656 335.308594 160.261719 335.417969 C 165.957031 335.675781 176.34375 329.445312 183.546875 337.109375 C 190.460938 344.109375 188.160156 351.359375 188.160156 361.042969 C 185.375 359.714844 186.710938 359.058594 183.765625 355.601562 C 185.980469 364.0625 183.640625 379.320312 183.640625 388.304688 C 182.511719 386.140625 182.675781 387.078125 181.566406 384.839844 C 178.621094 393.035156 175.082031 394.71875 175.082031 404.402344 C 174.015625 400.601562 175.046875 401.410156 173.859375 399.40625 C 170.996094 405.632812 151.757812 410.945312 159.171875 417.222656 C 152.480469 413.296875 149.550781 413.710938 146.515625 410.179688 C 145.207031 411.027344 144.164062 412.621094 142.953125 414.808594 C 131.195312 409.398438 135.398438 397.730469 126.1875 389.933594 C 124.59375 393.195312 125.316406 392.726562 123.589844 398.046875 C 121.730469 390.660156 121.214844 385.960938 119.117188 380.523438 C 117.308594 383.539062 117.472656 382.382812 114.183594 386.9375 C 112.824219 377.9375 110.613281 375.804688 111.484375 369.855469 C 107.992188 372.316406 110.277344 371.320312 106.789062 374.355469 C 110.101562 351.285156 124.382812 334.246094 134.636719 339.699219 Z M 134.636719 339.699219 "/>
<path style="fill:none;stroke-width:1.778106;stroke-linecap:butt;stroke-linejoin:miter;stroke:rgb(0%,0%,0%);stroke-opacity:1;stroke-miterlimit:4;" d="M 134.636719 339.695312 C 134.238281 336.058594 135.011719 335.628906 132.769531 332.886719 C 136.035156 334.246094 136.15625 337.867188 140.121094 335.292969 C 141.578125 334.546875 142.203125 334.519531 140.4375 330.476562 C 144.574219 330.671875 158.097656 335.3125 160.261719 335.417969 C 165.957031 335.675781 176.34375 329.445312 183.546875 337.109375 C 190.460938 344.109375 188.160156 351.359375 188.160156 361.042969 C 185.375 359.714844 186.710938 359.058594 183.765625 355.597656 C 185.980469 364.0625 183.640625 379.320312 183.640625 388.304688 C 182.511719 386.140625 182.675781 387.078125 181.566406 384.839844 C 178.621094 393.03125 175.082031 394.71875 175.082031 404.402344 C 174.015625 400.601562 175.046875 401.410156 173.859375 399.40625 C 170.996094 405.628906 151.757812 410.945312 159.171875 417.21875 C 152.480469 413.296875 149.550781 413.710938 146.515625 410.179688 C 145.207031 411.027344 144.164062 412.621094 142.953125 414.8125 C 131.195312 409.398438 135.398438 397.730469 126.1875 389.933594 C 124.59375 393.195312 125.316406 392.726562 123.589844 398.046875 C 121.730469 390.65625 121.214844 385.960938 119.117188 380.527344 C 117.308594 383.535156 117.472656 382.382812 114.183594 386.9375 C 112.824219 377.9375 110.613281 375.804688 111.484375 369.855469 C 107.992188 372.3125 110.277344 371.320312 106.789062 374.359375 C 110.101562 351.285156 124.382812 334.246094 134.636719 339.695312 Z M 134.636719 339.695312 "/>
<path style=" stroke:none;fill-rule:evenodd;fill:rgb(65.489197%,0%,0%);fill-opacity:1;" d="M 120.167969 377.34375 C 123.203125 369.921875 125.925781 367.585938 127.890625 362.808594 C 131.347656 354.402344 131.910156 347.691406 134.816406 348.714844 C 137.71875 349.730469 137.671875 353.199219 133.789062 361.449219 C 129.898438 369.710938 128.078125 371.460938 120.167969 377.34375 Z M 120.167969 377.34375 "/>
<path style=" stroke:none;fill-rule:evenodd;fill:rgb(65.489197%,0%,0%);fill-opacity:1;" d="M 131.640625 395.929688 C 132.855469 389.265625 134.773438 386.839844 135.5625 382.558594 C 136.960938 375.015625 136.179688 369.398438 138.882812 369.695312 C 141.578125 369.996094 142.1875 372.835938 140.398438 380.335938 C 138.597656 387.839844 137.355469 389.617188 131.640625 395.929688 Z M 131.640625 395.929688 "/>
<path style=" stroke:none;fill-rule:evenodd;fill:rgb(65.489197%,0%,0%);fill-opacity:1;" d="M 145.359375 408.847656 C 145.703125 402.390625 147.214844 399.871094 147.445312 395.710938 C 147.851562 388.402344 146.445312 383.164062 149.023438 383.136719 C 151.597656 383.105469 152.515625 385.734375 151.726562 393.058594 C 150.933594 400.375 149.984375 402.207031 145.359375 408.847656 Z M 145.359375 408.847656 "/>
<path style=" stroke:none;fill-rule:evenodd;fill:rgb(65.489197%,0%,0%);fill-opacity:1;" d="M 174.835938 366.632812 C 169.199219 361.019531 165.789062 359.96875 162.160156 356.363281 C 155.753906 350.015625 152.660156 344.066406 150.382812 346.175781 C 148.105469 348.292969 149.472656 351.449219 156.214844 357.488281 C 162.957031 363.515625 165.300781 364.394531 174.835938 366.632812 Z M 174.835938 366.632812 "/>
<path style=" stroke:none;fill-rule:evenodd;fill:rgb(65.489197%,0%,0%);fill-opacity:1;" d="M 171.410156 388.328125 C 167.742188 382.699219 165.046875 381.234375 162.671875 377.613281 C 158.496094 371.230469 157.066406 365.753906 154.6875 367.113281 C 152.320312 368.472656 152.847656 371.328125 157.382812 377.507812 C 161.90625 383.691406 163.730469 384.824219 171.410156 388.328125 Z M 171.410156 388.328125 "/>
<path style="fill-rule:evenodd;fill:rgb(99.998474%,99.998474%,99.998474%);fill-opacity:1;stroke-width:1.679868;stroke-linecap:butt;stroke-linejoin:miter;stroke:rgb(0%,0%,0%);stroke-opacity:1;stroke-miterlimit:4;" d="M 738.085938 333.332031 C 690.472656 380.949219 626.96875 476.1875 499.992188 476.1875 C 388.882812 476.1875 309.519531 380.949219 261.898438 333.332031 C 309.519531 285.710938 388.882812 190.480469 499.992188 190.480469 C 626.96875 190.480469 690.472656 285.710938 738.085938 333.332031 Z M 738.085938 333.332031 "/>
<path style=" stroke:none;fill-rule:evenodd;fill:rgb(0%,0%,0%);fill-opacity:1;" d="M 483.375 240.167969 C 496.046875 254.417969 485.464844 260.164062 498.878906 261.101562 C 513.011719 262.132812 504.996094 276.15625 516.894531 276.644531 C 525.210938 277.003906 516.066406 310.230469 524.074219 321.191406 C 532.226562 332.617188 539.054688 324.535156 539.191406 332.796875 C 539.339844 341.332031 517 340.472656 516.609375 366.78125 C 515.957031 381.941406 497.761719 382.910156 496.890625 392.660156 C 495.816406 401.839844 532.738281 406.988281 532.242188 415.203125 C 531.738281 423.390625 492.375 422.109375 490.667969 431.445312 C 489.789062 439.835938 544.742188 446.710938 549.152344 470.972656 C 540.957031 473.648438 517.628906 476.171875 499.992188 476.1875 C 388.898438 476.269531 309.527344 380.941406 261.90625 333.324219 C 309.527344 285.710938 388.890625 190.472656 500 190.472656 C 500 190.472656 467.015625 220.605469 483.382812 240.160156 Z M 483.375 240.167969 "/>
<path style=" stroke:none;fill-rule:evenodd;fill:rgb(99.998474%,99.998474%,99.998474%);fill-opacity:1;" d="M 350.789062 282.535156 L 362.328125 282.535156 L 362.328125 320.628906 L 350.789062 320.628906 Z M 350.789062 282.535156 "/>
<path style=" stroke:none;fill-rule:evenodd;fill:rgb(99.998474%,99.998474%,99.998474%);fill-opacity:1;" d="M 350.789062 346.027344 L 362.328125 346.027344 L 362.328125 384.121094 L 350.789062 384.121094 Z M 350.789062 346.027344 "/>
<path style=" stroke:none;fill-rule:evenodd;fill:rgb(99.998474%,99.998474%,99.998474%);fill-opacity:1;" d="M 373.878906 282.535156 L 385.417969 282.535156 L 385.417969 320.628906 L 373.878906 320.628906 Z M 373.878906 282.535156 "/>
<path style=" stroke:none;fill-rule:evenodd;fill:rgb(99.998474%,99.998474%,99.998474%);fill-opacity:1;" d="M 373.878906 346.027344 L 385.417969 346.027344 L 385.417969 384.121094 L 373.878906 384.121094 Z M 373.878906 346.027344 "/>
<path style=" stroke:none;fill-rule:evenodd;fill:rgb(99.998474%,99.998474%,99.998474%);fill-opacity:1;" d="M 396.957031 282.535156 L 408.503906 282.535156 L 408.503906 320.628906 L 396.957031 320.628906 Z M 396.957031 282.535156 "/>
<path style=" stroke:none;fill-rule:evenodd;fill:rgb(99.998474%,99.998474%,99.998474%);fill-opacity:1;" d="M 396.957031 346.027344 L 408.503906 346.027344 L 408.503906 384.121094 L 396.957031 384.121094 Z M 396.957031 346.027344 "/>
<path style=" stroke:none;fill-rule:evenodd;fill:rgb(99.998474%,99.998474%,99.998474%);fill-opacity:1;" d="M 420.050781 282.535156 L 431.589844 282.535156 L 431.589844 320.628906 L 420.050781 320.628906 Z M 420.050781 282.535156 "/>
<path style=" stroke:none;fill-rule:evenodd;fill:rgb(99.998474%,99.998474%,99.998474%);fill-opacity:1;" d="M 420.050781 346.027344 L 431.589844 346.027344 L 431.589844 384.121094 L 420.050781 384.121094 Z M 420.050781 346.027344 "/>
<path style=" stroke:none;fill-rule:evenodd;fill:rgb(99.998474%,99.998474%,99.998474%);fill-opacity:1;" d="M 443.140625 282.535156 L 454.679688 282.535156 L 454.679688 320.628906 L 443.140625 320.628906 Z M 443.140625 282.535156 "/>
<path style=" stroke:none;fill-rule:evenodd;fill:rgb(99.998474%,99.998474%,99.998474%);fill-opacity:1;" d="M 443.140625 346.027344 L 454.679688 346.027344 L 454.679688 384.121094 L 443.140625 384.121094 Z M 443.140625 346.027344 "/>
<path style=" stroke:none;fill-rule:evenodd;fill:rgb(99.998474%,99.998474%,99.998474%);fill-opacity:1;" d="M 466.21875 282.535156 L 477.765625 282.535156 L 477.765625 320.628906 L 466.21875 320.628906 Z M 466.21875 282.535156 "/>
<path style=" stroke:none;fill-rule:evenodd;fill:rgb(99.998474%,99.998474%,99.998474%);fill-opacity:1;" d="M 466.21875 346.027344 L 477.765625 346.027344 L 477.765625 384.121094 L 466.21875 384.121094 Z M 466.21875 346.027344 "/>
<path style=" stroke:none;fill-rule:evenodd;fill:rgb(0%,0%,0%);fill-opacity:1;" d="M 525.390625 282.535156 L 536.929688 282.535156 L 536.929688 320.628906 L 525.390625 320.628906 Z M 525.390625 282.535156 "/>
<path style=" stroke:none;fill-rule:evenodd;fill:rgb(0%,0%,0%);fill-opacity:1;" d="M 525.390625 346.027344 L 536.929688 346.027344 L 536.929688 384.121094 L 525.390625 384.121094 Z M 525.390625 346.027344 "/>
<path style=" stroke:none;fill-rule:evenodd;fill:rgb(0%,0%,0%);fill-opacity:1;" d="M 548.472656 282.535156 L 560.019531 282.535156 L 560.019531 320.628906 L 548.472656 320.628906 Z M 548.472656 282.535156 "/>
<path style=" stroke:none;fill-rule:evenodd;fill:rgb(0%,0%,0%);fill-opacity:1;" d="M 548.472656 346.027344 L 560.019531 346.027344 L 560.019531 384.121094 L 548.472656 384.121094 Z M 548.472656 346.027344 "/>
<path style=" stroke:none;fill-rule:evenodd;fill:rgb(0%,0%,0%);fill-opacity:1;" d="M 571.558594 282.535156 L 583.105469 282.535156 L 583.105469 320.628906 L 571.558594 320.628906 Z M 571.558594 282.535156 "/>
<path style=" stroke:none;fill-rule:evenodd;fill:rgb(0%,0%,0%);fill-opacity:1;" d="M 571.558594 346.027344 L 583.105469 346.027344 L 583.105469 384.121094 L 571.558594 384.121094 Z M 571.558594 346.027344 "/>
<path style=" stroke:none;fill-rule:evenodd;fill:rgb(0%,0%,0%);fill-opacity:1;" d="M 594.652344 282.535156 L 606.195312 282.535156 L 606.195312 320.628906 L 594.652344 320.628906 Z M 594.652344 282.535156 "/>
<path style=" stroke:none;fill-rule:evenodd;fill:rgb(0%,0%,0%);fill-opacity:1;" d="M 594.652344 346.027344 L 606.195312 346.027344 L 606.195312 384.121094 L 594.652344 384.121094 Z M 594.652344 346.027344 "/>
<path style=" stroke:none;fill-rule:evenodd;fill:rgb(0%,0%,0%);fill-opacity:1;" d="M 617.734375 282.535156 L 629.28125 282.535156 L 629.28125 320.628906 L 617.734375 320.628906 Z M 617.734375 282.535156 "/>
<path style=" stroke:none;fill-rule:evenodd;fill:rgb(0%,0%,0%);fill-opacity:1;" d="M 617.734375 346.027344 L 629.28125 346.027344 L 629.28125 384.121094 L 617.734375 384.121094 Z M 617.734375 346.027344 "/>
<path style=" stroke:none;fill-rule:evenodd;fill:rgb(0%,0%,0%);fill-opacity:1;" d="M 640.820312 282.535156 L 652.367188 282.535156 L 652.367188 320.628906 L 640.820312 320.628906 Z M 640.820312 282.535156 "/>
<path style=" stroke:none;fill-rule:evenodd;fill:rgb(0%,0%,0%);fill-opacity:1;" d="M 640.820312 346.027344 L 652.367188 346.027344 L 652.367188 384.121094 L 640.820312 384.121094 Z M 640.820312 346.027344 "/>
<path style=" stroke:none;fill-rule:evenodd;fill:rgb(23.921204%,36.470032%,65.489197%);fill-opacity:1;" d="M 422.996094 215.835938 C 416.398438 228.597656 434.546875 211.597656 462.996094 232.949219 C 468.261719 236.914062 475.824219 252.597656 475.824219 259.863281 C 469.765625 258.570312 459.042969 252.597656 459.042969 252.597656 C 459.042969 252.597656 471.621094 265.203125 471.621094 279.734375 C 467.179688 276.953125 464.957031 277.367188 463.476562 273.957031 C 463.476562 278.664062 467.429688 281.65625 467.429688 288.925781 C 464.214844 286.367188 461.507812 284.660156 458.789062 283.164062 C 462.980469 290.421875 451.140625 304.523438 457.066406 309.230469 C 446.703125 307.730469 436.101562 301.105469 431.910156 293.839844 C 429.679688 295.335938 429.445312 297.691406 429.355469 300.203125 C 429.679688 300.472656 413.582031 288.246094 415.054688 283.550781 C 412.898438 286.582031 412.589844 288.246094 412.101562 291.667969 C 406.183594 285.832031 400.765625 279.996094 398.796875 272.453125 C 396.160156 275.871094 395.996094 275.871094 393.367188 279.289062 C 391.398438 267.332031 391.398438 267.757812 395.347656 257.519531 C 392.546875 259.367188 390.25 261.214844 387.453125 263.492188 C 390.105469 246.183594 403.589844 225.886719 422.996094 215.835938 Z M 422.996094 215.835938 "/>
<path style="fill:none;stroke-width:1.37736;stroke-linecap:butt;stroke-linejoin:miter;stroke:rgb(0%,0%,0%);stroke-opacity:1;stroke-miterlimit:4;" d="M 422.996094 215.835938 C 416.398438 228.597656 434.546875 211.597656 462.996094 232.953125 C 468.261719 236.914062 475.824219 252.597656 475.824219 259.863281 C 469.765625 258.570312 459.042969 252.597656 459.042969 252.597656 C 459.042969 252.597656 471.621094 265.203125 471.621094 279.734375 C 467.179688 276.953125 464.957031 277.367188 463.476562 273.957031 C 463.476562 278.664062 467.429688 281.65625 467.429688 288.925781 C 464.214844 286.371094 461.507812 284.660156 458.789062 283.160156 C 462.980469 290.421875 451.140625 304.527344 457.066406 309.230469 C 446.703125 307.730469 436.101562 301.105469 431.910156 293.839844 C 429.679688 295.335938 429.445312 297.6875 429.355469 300.203125 C 429.679688 300.472656 413.582031 288.25 415.054688 283.554688 C 412.898438 286.582031 412.589844 288.25 412.101562 291.667969 C 406.183594 285.832031 400.765625 279.996094 398.796875 272.453125 C 396.160156 275.871094 395.996094 275.871094 393.367188 279.289062 C 391.398438 267.332031 391.398438 267.757812 395.347656 257.519531 C 392.546875 259.367188 390.25 261.214844 387.453125 263.492188 C 390.105469 246.183594 403.589844 225.886719 422.996094 215.835938 Z M 422.996094 215.835938 "/>
<path style=" stroke:none;fill-rule:evenodd;fill:rgb(65.489197%,0%,0%);fill-opacity:1;" d="M 406.730469 278.171875 C 407.777344 269.386719 410.082031 266.074219 410.765625 260.410156 C 411.996094 250.449219 410.539062 243.171875 414.070312 243.359375 C 417.59375 243.539062 418.613281 247.214844 416.871094 257.152344 C 415.128906 267.082031 413.65625 269.496094 406.730469 278.171875 Z M 406.730469 278.171875 "/>
<path style=" stroke:none;fill-rule:evenodd;fill:rgb(65.489197%,0%,0%);fill-opacity:1;" d="M 425.152344 294.269531 C 424.4375 286.851562 425.804688 283.691406 425.351562 278.914062 C 424.570312 270.507812 421.972656 264.808594 425.046875 264.289062 C 428.125 263.769531 429.679688 266.585938 430.011719 275.074219 C 430.335938 283.558594 429.515625 285.824219 425.152344 294.269531 Z M 425.152344 294.269531 "/>
<path style=" stroke:none;fill-rule:evenodd;fill:rgb(65.489197%,0%,0%);fill-opacity:1;" d="M 453.898438 307.398438 C 450.773438 300.984375 448.085938 299.074219 446.070312 294.9375 C 442.503906 287.679688 441.757812 281.746094 439.015625 282.820312 C 436.261719 283.894531 436.410156 286.960938 440.382812 294.074219 C 444.351562 301.179688 446.148438 302.628906 453.898438 307.398438 Z M 453.898438 307.398438 "/>
<path style=" stroke:none;fill-rule:evenodd;fill:rgb(65.489197%,0%,0%);fill-opacity:1;" d="M 463.84375 249.917969 C 455.875 245.726562 451.789062 245.679688 446.65625 242.984375 C 437.621094 238.257812 432.355469 232.925781 430.492188 235.855469 C 428.621094 238.792969 431.121094 241.714844 440.429688 246.011719 C 449.746094 250.300781 452.613281 250.503906 463.84375 249.917969 Z M 463.84375 249.917969 "/>
<path style=" stroke:none;fill-rule:evenodd;fill:rgb(65.489197%,0%,0%);fill-opacity:1;" d="M 466.757812 273.925781 C 460.960938 269.101562 457.535156 268.390625 453.792969 265.292969 C 447.199219 259.847656 443.929688 254.5 441.722656 256.664062 C 439.527344 258.828125 440.992188 261.695312 447.910156 266.828125 C 454.824219 271.957031 457.183594 272.589844 466.757812 273.925781 Z M 466.757812 273.925781 "/>
</g>
</svg>
