<?xml version="1.0" encoding="UTF-8"?>
<svg xmlns="http://www.w3.org/2000/svg" xmlns:xlink="http://www.w3.org/1999/xlink" viewBox="0 0 1000 500" version="1.1">
<g id="surface414">
<rect x="0" y="0" width="1000" height="500" style="fill:rgb(85.488892%,7.058716%,10.195923%);fill-opacity:1;stroke:none;"/>
<path style=" stroke:none;fill-rule:evenodd;fill:rgb(98.822021%,86.665344%,3.529358%);fill-opacity:1;" d="M 0 0 L 1000 0 L 1000 333.332031 L 0 333.332031 Z M 0 0 "/>
<path style=" stroke:none;fill-rule:evenodd;fill:rgb(2.745056%,53.72467%,18.823242%);fill-opacity:1;" d="M 0 0 L 1000 0 L 1000 166.667969 L 0 166.667969 Z M 0 0 "/>
<path style=" stroke:none;fill-rule:evenodd;fill:rgb(5.882263%,27.842712%,68.626404%);fill-opacity:1;" d="M 666.667969 250 C 666.667969 342.050781 592.050781 416.667969 500 416.667969 C 407.949219 416.667969 333.332031 342.050781 333.332031 250 C 333.332031 157.949219 407.949219 83.332031 500 83.332031 C 592.050781 83.332031 666.667969 157.949219 666.667969 250 Z M 666.667969 250 "/>
<path style=" stroke:none;fill-rule:evenodd;fill:rgb(98.822021%,86.665344%,3.529358%);fill-opacity:1;" d="M 373.195312 208.28125 L 470.066406 208.28125 L 491.96875 140.867188 L 497.808594 158.847656 L 465.980469 256.808594 L 456.527344 249.941406 L 466.457031 219.386719 L 388.484375 219.386719 Z M 421.628906 357.347656 L 451.5625 265.21875 L 394.222656 223.554688 L 413.121094 223.554688 L 496.457031 284.101562 L 487.003906 290.964844 L 461.015625 272.085938 L 436.921875 346.242188 Z M 578.371094 357.347656 L 500 300.410156 L 442.65625 342.074219 L 448.5 324.097656 L 531.832031 263.550781 L 535.441406 274.664062 L 509.453125 293.542969 L 572.53125 339.371094 Z M 626.804688 208.28125 L 548.4375 265.21875 L 570.339844 332.628906 L 555.046875 321.519531 L 523.21875 223.554688 L 534.898438 223.554688 L 544.824219 254.109375 L 607.90625 208.28125 Z M 500 116.148438 L 529.933594 208.28125 L 600.8125 208.28125 L 585.523438 219.386719 L 482.519531 219.386719 L 486.128906 208.28125 L 518.253906 208.28125 L 494.15625 134.128906 Z M 500 116.148438 "/>
<path style=" stroke:none;fill-rule:evenodd;fill:rgb(0%,0%,0%);fill-opacity:1;" d="M 500 311.113281 L 500 383.332031 Z M 441.878906 268.882812 L 373.195312 291.203125 Z M 464.078125 200.5625 L 421.632812 142.128906 Z M 535.921875 200.5625 L 578.371094 142.128906 Z M 558.121094 268.882812 L 626.804688 291.203125 Z M 558.121094 268.882812 "/>
<path style="fill:none;stroke-width:5.555554;stroke-linecap:butt;stroke-linejoin:miter;stroke:rgb(98.822021%,86.665344%,3.529358%);stroke-opacity:1;stroke-miterlimit:4;" d="M 500 311.113281 L 500 383.332031 "/>
<path style="fill:none;stroke-width:5.555554;stroke-linecap:butt;stroke-linejoin:miter;stroke:rgb(98.822021%,86.665344%,3.529358%);stroke-opacity:1;stroke-miterlimit:4;" d="M 441.878906 268.882812 L 373.195312 291.203125 "/>
<path style="fill:none;stroke-width:5.555554;stroke-linecap:butt;stroke-linejoin:miter;stroke:rgb(98.822021%,86.665344%,3.529358%);stroke-opacity:1;stroke-miterlimit:4;" d="M 464.078125 200.5625 L 421.632812 142.128906 "/>
<path style="fill:none;stroke-width:5.555554;stroke-linecap:butt;stroke-linejoin:miter;stroke:rgb(98.822021%,86.665344%,3.529358%);stroke-opacity:1;stroke-miterlimit:4;" d="M 535.921875 200.5625 L 578.371094 142.128906 "/>
<path style="fill:none;stroke-width:5.555554;stroke-linecap:butt;stroke-linejoin:miter;stroke:rgb(98.822021%,86.665344%,3.529358%);stroke-opacity:1;stroke-miterlimit:4;" d="M 558.121094 268.882812 L 626.804688 291.203125 Z M 558.121094 268.882812 "/>
</g>
</svg>
