<?xml version="1.0" encoding="UTF-8"?>
<svg xmlns="http://www.w3.org/2000/svg" xmlns:xlink="http://www.w3.org/1999/xlink" viewBox="0 0 1000 667" version="1.1">
<defs>
<clipPath id="clip1">
  <path d="M 0 0 L 1000 0 L 1000 666.71875 L 0 666.71875 Z M 0 0 "/>
</clipPath>
</defs>
<g id="surface455">
<g clip-path="url(#clip1)" clip-rule="nonzero">
<path style=" stroke:none;fill-rule:evenodd;fill:rgb(80.783081%,6.666565%,14.901733%);fill-opacity:1;" d="M 0 666.667969 L 0 0 L 1000 0 L 1000 666.667969 Z M 0 666.667969 "/>
</g>
<path style=" stroke:none;fill-rule:evenodd;fill:rgb(99.998474%,99.998474%,99.998474%);fill-opacity:1;" d="M 0 166.667969 L 1000 166.667969 L 1000 500 L 0 500 Z M 0 166.667969 "/>
<path style="fill-rule:evenodd;fill:rgb(3.137207%,23.921204%,61.175537%);fill-opacity:1;stroke-width:3.427621;stroke-linecap:butt;stroke-linejoin:miter;stroke:rgb(3.137207%,23.921204%,61.175537%);stroke-opacity:1;stroke-miterlimit:4;" d="M 466.453125 459.007812 C 456.160156 459.59375 445.898438 466.539062 441.097656 470.265625 C 449.722656 474.039062 458.945312 476.984375 468.75 479.011719 C 484.375 481.632812 500 481.617188 515.625 481.617188 C 518.171875 481.292969 520.703125 480.933594 523.175781 480.515625 L 556.097656 469.425781 C 556.097656 469.425781 540.257812 458.976562 527.710938 459.421875 C 515.152344 459.878906 506.679688 472.160156 496.566406 471.246094 C 486.441406 470.347656 482.390625 459.007812 467.816406 459.007812 C 467.359375 459.007812 466.910156 458.984375 466.453125 459.007812 Z M 466.453125 459.007812 "/>
<path style="fill-rule:evenodd;fill:rgb(3.137207%,23.921204%,61.175537%);fill-opacity:1;stroke-width:3.219848;stroke-linecap:butt;stroke-linejoin:miter;stroke:rgb(3.137207%,23.921204%,61.175537%);stroke-opacity:1;stroke-miterlimit:4;" d="M 406.679688 450.511719 L 593.726562 451.308594 C 593.726562 451.308594 577.53125 434.105469 558.503906 433.707031 C 539.46875 433.308594 544.734375 441.707031 530.160156 442.914062 C 515.582031 444.109375 511.9375 434.105469 498.582031 434.503906 C 485.222656 434.902344 477.53125 442.914062 467.40625 443.308594 C 457.292969 443.707031 444.335938 433.308594 436.636719 433.707031 C 428.949219 434.105469 401.417969 445.710938 401.417969 445.710938 Z M 406.679688 450.511719 "/>
<path style="fill-rule:evenodd;fill:rgb(3.137207%,23.921204%,61.175537%);fill-opacity:1;stroke-width:3.219848;stroke-linecap:butt;stroke-linejoin:miter;stroke:rgb(3.137207%,23.921204%,61.175537%);stroke-opacity:1;stroke-miterlimit:4;" d="M 382.796875 428.507812 L 613.558594 429.304688 C 617.203125 424.105469 602.222656 411.703125 588.460938 410.496094 C 577.125 410.894531 569.027344 422.101562 559.714844 422.503906 C 550.40625 422.898438 539.878906 410.894531 529.355469 411.304688 C 518.824219 411.703125 507.894531 422.503906 497.371094 422.503906 C 486.839844 422.503906 479.148438 410.894531 465.789062 410.894531 C 452.433594 410.894531 446.355469 423.707031 436.238281 422.898438 C 426.113281 422.101562 417.203125 410.101562 407.488281 410.101562 C 397.777344 410.101562 381.582031 424.503906 378.34375 423.707031 C 375.105469 422.898438 382.390625 429.703125 382.796875 428.507812 Z M 382.796875 428.507812 "/>
<path style="fill-rule:evenodd;fill:rgb(80.783081%,6.666565%,14.901733%);fill-opacity:1;stroke-width:3.219848;stroke-linecap:butt;stroke-linejoin:miter;stroke:rgb(38.822937%,3.137207%,6.274414%);stroke-opacity:1;stroke-miterlimit:4;" d="M 471.453125 301.667969 L 524.496094 315.671875 L 524.496094 240.851562 C 500.203125 242.050781 479.964844 195.238281 522.875 192.035156 C 480.769531 186.035156 475.914062 196.832031 471.050781 208.441406 Z M 471.453125 301.667969 "/>
<path style=" stroke:none;fill-rule:evenodd;fill:rgb(38.822937%,3.137207%,6.274414%);fill-opacity:1;" d="M 437.859375 356.085938 L 557.691406 356.484375 Z M 437.859375 356.085938 "/>
<path style="fill:none;stroke-width:4.652673;stroke-linecap:butt;stroke-linejoin:miter;stroke:rgb(38.822937%,3.137207%,6.274414%);stroke-opacity:1;stroke-miterlimit:4;" d="M 437.859375 356.085938 L 557.691406 356.484375 "/>
<path style=" stroke:none;fill-rule:evenodd;fill:rgb(38.822937%,3.137207%,6.274414%);fill-opacity:1;" d="M 443.523438 327.675781 L 457.691406 346.484375 Z M 443.523438 327.675781 "/>
<path style="fill:none;stroke-width:4.652673;stroke-linecap:butt;stroke-linejoin:miter;stroke:rgb(38.822937%,3.137207%,6.274414%);stroke-opacity:1;stroke-miterlimit:4;" d="M 443.523438 327.679688 L 457.691406 346.484375 "/>
<path style=" stroke:none;fill-rule:evenodd;fill:rgb(38.822937%,3.137207%,6.274414%);fill-opacity:1;" d="M 443.523438 346.484375 L 458.910156 328.078125 Z M 443.523438 346.484375 "/>
<path style="fill:none;stroke-width:4.652673;stroke-linecap:butt;stroke-linejoin:miter;stroke:rgb(38.822937%,3.137207%,6.274414%);stroke-opacity:1;stroke-miterlimit:4;" d="M 443.523438 346.484375 L 458.910156 328.074219 "/>
<path style=" stroke:none;fill-rule:evenodd;fill:rgb(38.822937%,3.137207%,6.274414%);fill-opacity:1;" d="M 451.617188 326.472656 L 451.210938 338.078125 Z M 451.617188 326.472656 "/>
<path style="fill:none;stroke-width:4.652673;stroke-linecap:butt;stroke-linejoin:miter;stroke:rgb(38.822937%,3.137207%,6.274414%);stroke-opacity:1;stroke-miterlimit:4;" d="M 451.617188 326.472656 L 451.210938 338.078125 "/>
<path style=" stroke:none;fill-rule:evenodd;fill:rgb(38.822937%,3.137207%,6.274414%);fill-opacity:1;" d="M 466.195312 327.675781 L 480.363281 346.484375 Z M 466.195312 327.675781 "/>
<path style="fill:none;stroke-width:4.652673;stroke-linecap:butt;stroke-linejoin:miter;stroke:rgb(38.822937%,3.137207%,6.274414%);stroke-opacity:1;stroke-miterlimit:4;" d="M 466.195312 327.679688 L 480.363281 346.484375 "/>
<path style=" stroke:none;fill-rule:evenodd;fill:rgb(38.822937%,3.137207%,6.274414%);fill-opacity:1;" d="M 466.195312 346.484375 L 481.582031 328.078125 Z M 466.195312 346.484375 "/>
<path style="fill:none;stroke-width:4.652673;stroke-linecap:butt;stroke-linejoin:miter;stroke:rgb(38.822937%,3.137207%,6.274414%);stroke-opacity:1;stroke-miterlimit:4;" d="M 466.195312 346.484375 L 481.582031 328.074219 "/>
<path style=" stroke:none;fill-rule:evenodd;fill:rgb(38.822937%,3.137207%,6.274414%);fill-opacity:1;" d="M 474.292969 326.472656 L 473.886719 338.078125 Z M 474.292969 326.472656 "/>
<path style="fill:none;stroke-width:4.652673;stroke-linecap:butt;stroke-linejoin:miter;stroke:rgb(38.822937%,3.137207%,6.274414%);stroke-opacity:1;stroke-miterlimit:4;" d="M 474.292969 326.472656 L 473.886719 338.078125 "/>
<path style=" stroke:none;fill-rule:evenodd;fill:rgb(38.822937%,3.137207%,6.274414%);fill-opacity:1;" d="M 489.273438 327.675781 L 503.441406 346.484375 Z M 489.273438 327.675781 "/>
<path style="fill:none;stroke-width:4.652673;stroke-linecap:butt;stroke-linejoin:miter;stroke:rgb(38.822937%,3.137207%,6.274414%);stroke-opacity:1;stroke-miterlimit:4;" d="M 489.273438 327.679688 L 503.441406 346.484375 "/>
<path style=" stroke:none;fill-rule:evenodd;fill:rgb(38.822937%,3.137207%,6.274414%);fill-opacity:1;" d="M 489.273438 346.484375 L 504.652344 328.078125 Z M 489.273438 346.484375 "/>
<path style="fill:none;stroke-width:4.652673;stroke-linecap:butt;stroke-linejoin:miter;stroke:rgb(38.822937%,3.137207%,6.274414%);stroke-opacity:1;stroke-miterlimit:4;" d="M 489.273438 346.484375 L 504.652344 328.074219 "/>
<path style=" stroke:none;fill-rule:evenodd;fill:rgb(38.822937%,3.137207%,6.274414%);fill-opacity:1;" d="M 497.371094 326.472656 L 496.964844 338.078125 Z M 497.371094 326.472656 "/>
<path style="fill:none;stroke-width:4.652673;stroke-linecap:butt;stroke-linejoin:miter;stroke:rgb(38.822937%,3.137207%,6.274414%);stroke-opacity:1;stroke-miterlimit:4;" d="M 497.371094 326.472656 L 496.964844 338.078125 "/>
<path style=" stroke:none;fill-rule:evenodd;fill:rgb(38.822937%,3.137207%,6.274414%);fill-opacity:1;" d="M 513.160156 327.675781 L 527.328125 346.484375 Z M 513.160156 327.675781 "/>
<path style="fill:none;stroke-width:4.652673;stroke-linecap:butt;stroke-linejoin:miter;stroke:rgb(38.822937%,3.137207%,6.274414%);stroke-opacity:1;stroke-miterlimit:4;" d="M 513.160156 327.679688 L 527.328125 346.484375 "/>
<path style=" stroke:none;fill-rule:evenodd;fill:rgb(38.822937%,3.137207%,6.274414%);fill-opacity:1;" d="M 513.160156 346.484375 L 528.539062 328.078125 Z M 513.160156 346.484375 "/>
<path style="fill:none;stroke-width:4.652673;stroke-linecap:butt;stroke-linejoin:miter;stroke:rgb(38.822937%,3.137207%,6.274414%);stroke-opacity:1;stroke-miterlimit:4;" d="M 513.160156 346.484375 L 528.539062 328.074219 "/>
<path style=" stroke:none;fill-rule:evenodd;fill:rgb(38.822937%,3.137207%,6.274414%);fill-opacity:1;" d="M 521.257812 326.472656 L 520.851562 338.078125 Z M 521.257812 326.472656 "/>
<path style="fill:none;stroke-width:4.652673;stroke-linecap:butt;stroke-linejoin:miter;stroke:rgb(38.822937%,3.137207%,6.274414%);stroke-opacity:1;stroke-miterlimit:4;" d="M 521.257812 326.472656 L 520.851562 338.078125 "/>
<path style=" stroke:none;fill-rule:evenodd;fill:rgb(38.822937%,3.137207%,6.274414%);fill-opacity:1;" d="M 536.230469 327.675781 L 550.40625 346.484375 Z M 536.230469 327.675781 "/>
<path style="fill:none;stroke-width:4.652673;stroke-linecap:butt;stroke-linejoin:miter;stroke:rgb(38.822937%,3.137207%,6.274414%);stroke-opacity:1;stroke-miterlimit:4;" d="M 536.230469 327.679688 L 550.40625 346.484375 "/>
<path style=" stroke:none;fill-rule:evenodd;fill:rgb(38.822937%,3.137207%,6.274414%);fill-opacity:1;" d="M 536.230469 346.484375 L 551.617188 328.078125 Z M 536.230469 346.484375 "/>
<path style="fill:none;stroke-width:4.652673;stroke-linecap:butt;stroke-linejoin:miter;stroke:rgb(38.822937%,3.137207%,6.274414%);stroke-opacity:1;stroke-miterlimit:4;" d="M 536.230469 346.484375 L 551.617188 328.074219 "/>
<path style=" stroke:none;fill-rule:evenodd;fill:rgb(38.822937%,3.137207%,6.274414%);fill-opacity:1;" d="M 544.328125 326.472656 L 543.929688 338.078125 Z M 544.328125 326.472656 "/>
<path style="fill:none;stroke-width:4.652673;stroke-linecap:butt;stroke-linejoin:miter;stroke:rgb(38.822937%,3.137207%,6.274414%);stroke-opacity:1;stroke-miterlimit:4;" d="M 544.328125 326.472656 L 543.929688 338.078125 "/>
<path style=" stroke:none;fill-rule:evenodd;fill:rgb(99.998474%,61.175537%,6.274414%);fill-opacity:1;" d="M 357.292969 357.285156 L 408.300781 357.683594 L 408.300781 326.074219 L 350 323.273438 Z M 357.292969 357.285156 "/>
<path style=" stroke:none;fill-rule:evenodd;fill:rgb(99.998474%,61.175537%,6.274414%);fill-opacity:1;" d="M 354.859375 313.671875 L 409.105469 318.871094 L 408.707031 296.46875 L 355.671875 275.660156 Z M 354.859375 313.671875 "/>
<path style=" stroke:none;fill-rule:evenodd;fill:rgb(99.998474%,61.175537%,6.274414%);fill-opacity:1;" d="M 365.789062 268.855469 L 407.488281 288.867188 L 413.445312 282.722656 C 413.445312 282.722656 409.609375 280.109375 409.796875 277.710938 C 409.871094 275.277344 413.65625 274.910156 413.730469 272.273438 C 413.800781 269.839844 409.441406 269.546875 409.390625 267.113281 C 409.105469 264.476562 412.753906 261.652344 412.753906 261.652344 L 375.105469 229.246094 Z M 365.789062 268.855469 "/>
<path style=" stroke:none;fill-rule:evenodd;fill:rgb(99.998474%,61.175537%,6.274414%);fill-opacity:1;" d="M 639.46875 357.683594 L 585.628906 357.683594 L 585.222656 326.878906 L 644.328125 322.476562 Z M 639.46875 357.683594 "/>
<path style=" stroke:none;fill-rule:evenodd;fill:rgb(99.998474%,61.175537%,6.274414%);fill-opacity:1;" d="M 640.777344 313.175781 C 640.105469 308.179688 639.386719 303.191406 638.234375 298.285156 C 636.675781 291.714844 634.691406 285.253906 632.292969 278.953125 C 632.113281 278.492188 631.851562 278.070312 631.664062 277.605469 L 585.628906 296.875 L 586.042969 319.683594 Z M 640.777344 313.175781 "/>
<path style=" stroke:none;fill-rule:evenodd;fill:rgb(99.998474%,61.175537%,6.274414%);fill-opacity:1;" d="M 609.328125 239.109375 L 581.769531 259.945312 C 581.753906 259.96875 581.730469 260.035156 581.722656 260.050781 C 581.714844 260.058594 581.722656 260.101562 581.722656 260.109375 C 581.714844 260.113281 581.722656 260.148438 581.722656 260.15625 C 581.722656 260.164062 581.722656 260.199219 581.722656 260.203125 C 581.722656 260.222656 581.722656 260.253906 581.722656 260.261719 C 581.722656 260.277344 581.714844 260.34375 581.722656 260.367188 C 581.957031 261.554688 584.390625 264.503906 584.742188 266.667969 C 584.554688 269.960938 581.730469 271.417969 581.25 272.867188 C 581.242188 272.898438 581.207031 272.980469 581.203125 273.023438 C 581.195312 273.046875 581.203125 273.105469 581.203125 273.128906 C 581.195312 273.160156 581.203125 273.242188 581.203125 273.285156 C 581.203125 273.308594 581.195312 273.363281 581.203125 273.390625 C 581.203125 273.414062 581.195312 273.472656 581.203125 273.484375 C 581.203125 273.511719 581.242188 273.566406 581.25 273.589844 C 581.285156 273.671875 581.304688 273.777344 581.355469 273.851562 C 582.113281 275 584.789062 275.667969 584.789062 278.078125 C 584.789062 280.695312 582.339844 282.257812 582.03125 282.445312 C 585.203125 284.546875 585.785156 287.09375 586.457031 289.691406 L 627.710938 268.230469 C 622.789062 257.867188 616.660156 248.054688 609.328125 239.109375 Z M 609.328125 239.109375 "/>
<path style=" stroke:none;fill-rule:evenodd;fill:rgb(99.998474%,61.175537%,6.274414%);fill-opacity:1;" d="M 532.59375 319.074219 L 555.671875 318.074219 L 556.070312 308.871094 Z M 532.59375 319.074219 "/>
<path style=" stroke:none;fill-rule:evenodd;fill:rgb(99.998474%,61.175537%,6.274414%);fill-opacity:1;" d="M 462.148438 318.375 L 437.859375 317.675781 L 437.859375 308.074219 Z M 462.148438 318.375 "/>
<path style=" stroke:none;fill-rule:evenodd;fill:rgb(99.998474%,61.175537%,6.274414%);fill-opacity:1;" d="M 462.042969 315.578125 L 437.859375 303.269531 L 437.859375 287.265625 C 437.859375 287.265625 435.019531 287.664062 435.425781 284.464844 C 435.5625 277.792969 453.207031 296.632812 462.246094 302.765625 Z M 462.042969 315.578125 "/>
<path style=" stroke:none;fill-rule:evenodd;fill:rgb(99.998474%,61.175537%,6.274414%);fill-opacity:1;" d="M 532.59375 314.070312 L 532.496094 303.671875 C 532.496094 303.671875 554.355469 284.164062 559.007812 280.566406 C 559.007812 284.5625 556.476562 287.664062 556.476562 287.664062 L 556.476562 302.871094 Z M 532.59375 314.070312 "/>
<path style=" stroke:none;fill-rule:evenodd;fill:rgb(99.998474%,61.175537%,6.274414%);fill-opacity:1;" d="M 390.894531 226.449219 C 391.292969 226.847656 415.421875 253.34375 415.421875 253.34375 C 416.097656 250.835938 421.664062 250.457031 427.328125 250.855469 C 433 251.253906 437.515625 250.480469 437.515625 254.476562 C 437.515625 258.480469 434.636719 257.910156 434.636719 260.710938 C 434.636719 263.515625 438.949219 263.28125 438.949219 266.878906 C 438.949219 270.476562 435.824219 269.742188 435.808594 272.535156 C 435.800781 274.835938 439.070312 274.957031 439.070312 274.957031 L 462.042969 296.964844 L 462.140625 273.460938 L 414.777344 200.042969 Z M 390.894531 226.449219 "/>
<path style=" stroke:none;fill-rule:evenodd;fill:rgb(99.998474%,61.175537%,6.274414%);fill-opacity:1;" d="M 428.792969 198.640625 C 429.148438 199.714844 460.871094 263.484375 460.871094 263.484375 C 460.871094 263.484375 461.230469 203.628906 466.640625 200.421875 L 457.632812 184.035156 Z M 428.792969 198.640625 "/>
<path style=" stroke:none;fill-rule:evenodd;fill:rgb(99.998474%,61.175537%,6.274414%);fill-opacity:1;" d="M 532.339844 191.773438 L 520.359375 233.179688 C 520.359375 233.179688 526.148438 233.894531 530.835938 233.546875 C 532.007812 233.457031 532.691406 233.691406 533.074219 234.066406 C 533.152344 234.148438 533.226562 234.277344 533.285156 234.375 C 533.316406 234.449219 533.367188 234.5625 533.382812 234.636719 C 533.429688 234.816406 533.449219 235.058594 533.441406 235.261719 C 533.359375 236.394531 532.550781 237.652344 532.550781 237.652344 L 532.503906 264.324219 L 566.359375 204.535156 C 559.441406 201 552.089844 197.972656 544.269531 195.523438 C 540.203125 193.984375 536.253906 192.765625 532.339844 191.773438 Z M 532.339844 191.773438 "/>
<path style=" stroke:none;fill-rule:evenodd;fill:rgb(99.998474%,61.175537%,6.274414%);fill-opacity:1;" d="M 574.480469 209.066406 L 532.601562 273.4375 L 532.550781 298.226562 L 560.109375 272.085938 C 560.441406 271.761719 560.695312 271.484375 560.832031 271.246094 C 560.882812 271.175781 560.914062 271.058594 560.9375 270.988281 C 560.953125 270.949219 560.984375 270.875 560.984375 270.832031 C 560.992188 270.808594 560.984375 270.753906 560.984375 270.726562 C 560.984375 270.703125 560.992188 270.644531 560.984375 270.621094 C 560.984375 270.605469 560.992188 270.539062 560.984375 270.523438 C 560.984375 270.5 560.945312 270.433594 560.9375 270.417969 C 560.914062 270.367188 560.871094 270.304688 560.832031 270.265625 C 560.164062 269.476562 557.976562 269.027344 557.765625 266.667969 C 557.804688 266.203125 557.917969 265.8125 558.074219 265.519531 C 558.667969 264.46875 559.902344 264.28125 560.675781 263.328125 C 561.082031 262.816406 561.351562 262.070312 561.351562 260.832031 C 561.351562 259.960938 561.253906 259.375 561.089844 259.007812 C 561.074219 258.96875 561.058594 258.886719 561.042969 258.855469 C 561.003906 258.789062 560.929688 258.699219 560.890625 258.640625 C 560.882812 258.636719 560.839844 258.601562 560.832031 258.59375 C 560.824219 258.585938 560.792969 258.550781 560.785156 258.546875 C 560.425781 258.234375 559.921875 258.179688 559.480469 257.859375 C 559.457031 257.847656 559.398438 257.828125 559.375 257.8125 C 559.332031 257.777344 559.261719 257.699219 559.222656 257.660156 C 559.15625 257.59375 559.066406 257.480469 559.007812 257.398438 C 558.738281 256.988281 558.488281 256.324219 558.332031 255.316406 C 558.253906 254.90625 558.226562 254.476562 558.332031 254.058594 C 558.351562 253.988281 558.40625 253.871094 558.441406 253.800781 C 558.460938 253.742188 558.511719 253.644531 558.546875 253.597656 C 558.636719 253.425781 558.765625 253.230469 558.902344 253.078125 C 558.945312 253.035156 559.023438 252.953125 559.066406 252.914062 C 560.035156 252.035156 562.035156 251.351562 565.777344 251.351562 C 572.574219 251.351562 579.722656 250.046875 580.882812 252.816406 C 581.007812 252.695312 595.957031 237.742188 602.296875 231.203125 C 594.222656 222.789062 584.921875 215.324219 574.480469 209.066406 Z M 574.480469 209.066406 "/>
<path style="fill-rule:evenodd;fill:rgb(80.783081%,6.666565%,14.901733%);fill-opacity:1;stroke-width:3.219848;stroke-linecap:butt;stroke-linejoin:miter;stroke:rgb(38.822937%,3.137207%,6.274414%);stroke-opacity:1;stroke-miterlimit:4;" d="M 483.226562 369.304688 C 471.6875 388.183594 440.851562 382.585938 433.640625 369.398438 C 431.476562 368.796875 432.757812 288.070312 432.757812 288.070312 C 432.757812 288.070312 429.3125 286.515625 429.148438 284.035156 C 428.996094 281.527344 433.835938 281.296875 433.835938 278.089844 C 433.835938 274.886719 428.890625 276.148438 428.792969 272.917969 C 428.816406 269.832031 434.074219 270.257812 433.835938 267.40625 C 433.558594 264.191406 427.945312 264.664062 427.710938 261.703125 C 427.53125 259.351562 431.722656 257.300781 432.886719 256.242188 C 432.136719 256.273438 428.988281 256.195312 428.972656 256.183594 C 426.023438 256.242188 423.078125 256.296875 420.140625 256.363281 C 413.859375 256.371094 420.246094 257.714844 420.148438 261.296875 C 420.09375 263.632812 416.96875 265.183594 416.691406 267.222656 C 416.59375 269.304688 421.167969 270.769531 421.226562 273.273438 C 421.273438 275.511719 416.730469 275.660156 416.894531 277.734375 C 417.179688 281.25 420.914062 282.023438 420.859375 284.15625 C 420.800781 286.277344 415.828125 287.085938 415.8125 288.785156 C 415.984375 292.066406 416.539062 371.792969 416.539062 371.792969 C 424.460938 412.410156 470.246094 422.746094 483.226562 369.304688 Z M 483.226562 369.304688 "/>
<path style="fill-rule:evenodd;fill:rgb(80.783081%,6.666565%,14.901733%);fill-opacity:1;stroke-width:3.219848;stroke-linecap:butt;stroke-linejoin:miter;stroke:rgb(38.822937%,3.137207%,6.274414%);stroke-opacity:1;stroke-miterlimit:4;" d="M 513.414062 369.304688 C 524.953125 388.183594 555.785156 382.585938 562.996094 369.398438 C 565.160156 368.796875 563.882812 288.070312 563.882812 288.070312 C 563.882812 288.070312 567.324219 286.515625 567.488281 284.035156 C 567.644531 281.527344 563.101562 281.296875 563.101562 278.089844 C 563.101562 274.886719 567.75 276.148438 567.847656 272.917969 C 567.824219 269.832031 562.972656 270.058594 563.207031 267.203125 C 563.484375 263.988281 567.292969 264.363281 567.511719 261.402344 C 567.691406 258.855469 565.121094 257.300781 563.949219 256.242188 C 564.707031 256.273438 567.644531 256.195312 567.667969 256.183594 C 570.613281 256.242188 573.558594 256.296875 576.496094 256.363281 C 582.777344 256.371094 576.390625 257.714844 576.488281 261.296875 C 576.539062 263.632812 579.664062 265.183594 579.949219 267.222656 C 580.046875 269.304688 575.472656 270.769531 575.414062 273.273438 C 575.367188 275.511719 579.90625 275.660156 579.742188 277.734375 C 579.460938 281.25 575.726562 282.023438 575.78125 284.15625 C 575.835938 286.277344 580.808594 287.085938 580.828125 288.785156 C 580.65625 292.066406 580.101562 371.792969 580.101562 371.792969 C 572.175781 412.410156 526.390625 422.746094 513.414062 369.304688 Z M 513.414062 369.304688 "/>
<path style="fill-rule:evenodd;fill:rgb(3.137207%,23.921204%,61.175537%);fill-opacity:1;stroke-width:3.219848;stroke-linecap:butt;stroke-linejoin:miter;stroke:rgb(3.137207%,23.921204%,61.175537%);stroke-opacity:1;stroke-miterlimit:4;" d="M 472.019531 406.4375 L 523.535156 406.402344 C 523.941406 406.007812 512.003906 388.828125 497.789062 390.039062 C 481.949219 390.445312 471.191406 406.4375 472.019531 406.4375 Z M 472.019531 406.4375 "/>
<path style="fill-rule:evenodd;fill:rgb(3.137207%,23.921204%,61.175537%);fill-opacity:1;stroke-width:3.219848;stroke-linecap:butt;stroke-linejoin:miter;stroke:rgb(3.137207%,23.921204%,61.175537%);stroke-opacity:1;stroke-miterlimit:4;" d="M 636.277344 405.199219 L 565.789062 405.199219 C 565.789062 405.199219 574.910156 399.871094 577.398438 394.953125 C 581.957031 397.414062 580.710938 399.871094 589.84375 400.277344 C 598.957031 400.691406 607.667969 390.039062 616.382812 390.445312 C 625.082031 390.851562 636.277344 405.605469 636.277344 405.199219 Z M 636.277344 405.199219 "/>
<path style="fill-rule:evenodd;fill:rgb(3.137207%,23.921204%,61.175537%);fill-opacity:1;stroke-width:3.219848;stroke-linecap:butt;stroke-linejoin:miter;stroke:rgb(3.137207%,23.921204%,61.175537%);stroke-opacity:1;stroke-miterlimit:4;" d="M 358.503906 405.199219 L 428.996094 405.199219 C 428.996094 405.199219 419.871094 399.871094 417.382812 394.953125 C 412.824219 397.414062 414.070312 399.871094 404.941406 400.277344 C 395.824219 400.691406 387.117188 390.039062 378.402344 390.445312 C 369.703125 390.851562 358.503906 405.605469 358.503906 405.199219 Z M 358.503906 405.199219 "/>
<path style="fill-rule:evenodd;fill:rgb(3.137207%,23.921204%,61.175537%);fill-opacity:1;stroke-width:3.219848;stroke-linecap:butt;stroke-linejoin:miter;stroke:rgb(3.137207%,23.921204%,61.175537%);stroke-opacity:1;stroke-miterlimit:4;" d="M 363.769531 383.292969 L 413.964844 383.691406 C 413.964844 383.691406 410.726562 376.886719 410.328125 368.488281 C 397.363281 364.085938 386.839844 378.089844 377.53125 378.492188 C 368.222656 378.890625 358.503906 368.488281 358.503906 368.488281 Z M 363.769531 383.292969 "/>
<path style="fill-rule:evenodd;fill:rgb(3.137207%,23.921204%,61.175537%);fill-opacity:1;stroke-width:3.219848;stroke-linecap:butt;stroke-linejoin:miter;stroke:rgb(3.137207%,23.921204%,61.175537%);stroke-opacity:1;stroke-miterlimit:4;" d="M 631.777344 383.292969 L 581.574219 383.691406 C 581.574219 383.691406 584.824219 376.886719 585.222656 368.488281 C 598.175781 364.085938 608.707031 378.089844 618.015625 378.492188 C 627.328125 378.890625 637.042969 368.488281 637.042969 368.488281 Z M 631.777344 383.292969 "/>
<path style="fill-rule:evenodd;fill:rgb(3.137207%,23.921204%,61.175537%);fill-opacity:1;stroke-width:3.219848;stroke-linecap:butt;stroke-linejoin:miter;stroke:rgb(3.137207%,23.921204%,61.175537%);stroke-opacity:1;stroke-miterlimit:4;" d="M 484.816406 383.691406 L 510.320312 382.894531 C 510.320312 382.894531 510.726562 375.292969 497.371094 375.292969 C 484.007812 375.292969 485.222656 384.089844 484.816406 383.691406 Z M 484.816406 383.691406 "/>
<path style="fill-rule:evenodd;fill:rgb(38.822937%,3.137207%,6.274414%);fill-opacity:1;stroke-width:4.652673;stroke-linecap:butt;stroke-linejoin:miter;stroke:rgb(38.822937%,3.137207%,6.274414%);stroke-opacity:1;stroke-miterlimit:4;" d="M 469.433594 372.890625 C 473.886719 370.492188 477.9375 368.089844 480.769531 362.484375 L 463.363281 362.882812 C 463.363281 362.882812 455.265625 367.691406 451.210938 372.890625 Z M 469.433594 372.890625 "/>
<path style="fill-rule:evenodd;fill:rgb(38.822937%,3.137207%,6.274414%);fill-opacity:1;stroke-width:4.652673;stroke-linecap:butt;stroke-linejoin:miter;stroke:rgb(38.822937%,3.137207%,6.274414%);stroke-opacity:1;stroke-miterlimit:4;" d="M 525.707031 372.890625 C 521.257812 370.492188 517.203125 368.089844 514.371094 362.484375 L 531.777344 362.882812 C 531.777344 362.882812 539.878906 367.691406 543.929688 372.890625 Z M 525.707031 372.890625 "/>
<path style=" stroke:none;fill-rule:evenodd;fill:rgb(99.998474%,99.998474%,99.998474%);fill-opacity:1;" d="M 0 166.667969 L 0 500 L 1000 500 L 1000 166.667969 Z M 484.375 187.664062 C 505.207031 187.664062 523.4375 187.664062 544.269531 195.539062 C 661.457031 232.285156 677.082031 397.640625 572.917969 460.628906 C 554.6875 473.753906 536.457031 479.003906 515.625 481.625 C 500 481.625 484.375 481.625 468.75 479.003906 C 354.167969 455.378906 317.707031 303.148438 403.644531 224.40625 C 427.082031 203.410156 453.125 192.914062 484.375 187.664062 Z M 484.375 187.664062 "/>
</g>
</svg>
