<?xml version="1.0" encoding="UTF-8"?>
<svg xmlns="http://www.w3.org/2000/svg" xmlns:xlink="http://www.w3.org/1999/xlink" viewBox="0 0 1000 667" version="1.1">
<defs>
<clipPath id="clip1">
  <path d="M 0 0 L 1000 0 L 1000 666.71875 L 0 666.71875 Z M 0 0 "/>
</clipPath>
</defs>
<g id="surface480">
<g clip-path="url(#clip1)" clip-rule="nonzero">
<path style=" stroke:none;fill-rule:evenodd;fill:rgb(99.998474%,99.998474%,99.998474%);fill-opacity:1;" d="M 0 666.667969 L 1000 666.667969 L 1000 0 L 0 0 Z M 0 666.667969 "/>
<path style=" stroke:none;fill-rule:evenodd;fill:rgb(90.99884%,6.700134%,17.599487%);fill-opacity:1;" d="M 433.332031 0 L 433.332031 266.667969 L 0 266.667969 L 0 400 L 433.332031 400 L 433.332031 666.667969 L 566.667969 666.667969 L 566.667969 400 L 1000 400 L 1000 266.667969 L 566.667969 266.667969 L 566.667969 0 Z M 433.332031 0 "/>
</g>
<path style=" stroke:none;fill-rule:evenodd;fill:rgb(90.99884%,6.700134%,17.599487%);fill-opacity:1;" d="M 192.136719 66.773438 C 200.261719 109.542969 200.261719 153.457031 192.136719 196.222656 C 207.207031 194.34375 222.457031 194.34375 237.53125 196.222656 C 229.402344 153.457031 229.402344 109.542969 237.53125 66.773438 C 222.457031 68.65625 207.207031 68.65625 192.136719 66.773438 Z M 192.136719 66.773438 "/>
<path style=" stroke:none;fill-rule:evenodd;fill:rgb(90.99884%,6.700134%,17.599487%);fill-opacity:1;" d="M 279.558594 108.800781 C 236.792969 116.929688 192.875 116.929688 150.109375 108.800781 C 151.988281 123.875 151.988281 139.125 150.109375 154.199219 C 192.875 146.070312 236.792969 146.070312 279.558594 154.199219 C 277.675781 139.125 277.675781 123.875 279.558594 108.800781 Z M 279.558594 108.800781 "/>
<path style=" stroke:none;fill-rule:evenodd;fill:rgb(90.99884%,6.700134%,17.599487%);fill-opacity:1;" d="M 762.46875 470.441406 C 770.597656 513.207031 770.597656 557.125 762.46875 599.890625 C 777.542969 598.011719 792.792969 598.011719 807.863281 599.890625 C 799.738281 557.125 799.738281 513.207031 807.863281 470.441406 C 792.792969 472.324219 777.542969 472.324219 762.46875 470.441406 Z M 762.46875 470.441406 "/>
<path style=" stroke:none;fill-rule:evenodd;fill:rgb(90.99884%,6.700134%,17.599487%);fill-opacity:1;" d="M 849.890625 512.46875 C 807.125 520.597656 763.210938 520.597656 720.441406 512.46875 C 722.324219 527.542969 722.324219 542.792969 720.441406 557.863281 C 763.210938 549.738281 807.125 549.738281 849.890625 557.863281 C 848.011719 542.792969 848.011719 527.542969 849.890625 512.46875 Z M 849.890625 512.46875 "/>
<path style=" stroke:none;fill-rule:evenodd;fill:rgb(90.99884%,6.700134%,17.599487%);fill-opacity:1;" d="M 762.46875 66.773438 C 770.597656 109.542969 770.597656 153.457031 762.46875 196.222656 C 777.542969 194.34375 792.792969 194.34375 807.863281 196.222656 C 799.738281 153.457031 799.738281 109.542969 807.863281 66.773438 C 792.792969 68.65625 777.542969 68.65625 762.46875 66.773438 Z M 762.46875 66.773438 "/>
<path style=" stroke:none;fill-rule:evenodd;fill:rgb(90.99884%,6.700134%,17.599487%);fill-opacity:1;" d="M 849.890625 108.800781 C 807.125 116.929688 763.210938 116.929688 720.441406 108.800781 C 722.324219 123.875 722.324219 139.125 720.441406 154.199219 C 763.210938 146.070312 807.125 146.070312 849.890625 154.199219 C 848.011719 139.125 848.011719 123.875 849.890625 108.800781 Z M 849.890625 108.800781 "/>
<path style=" stroke:none;fill-rule:evenodd;fill:rgb(90.99884%,6.700134%,17.599487%);fill-opacity:1;" d="M 192.136719 470.441406 C 200.261719 513.207031 200.261719 557.125 192.136719 599.890625 C 207.207031 598.011719 222.457031 598.011719 237.53125 599.890625 C 229.402344 557.125 229.402344 513.207031 237.53125 470.441406 C 222.457031 472.324219 207.207031 472.324219 192.136719 470.441406 Z M 192.136719 470.441406 "/>
<path style=" stroke:none;fill-rule:evenodd;fill:rgb(90.99884%,6.700134%,17.599487%);fill-opacity:1;" d="M 279.558594 512.46875 C 236.792969 520.597656 192.875 520.597656 150.109375 512.46875 C 151.988281 527.542969 151.988281 542.792969 150.109375 557.863281 C 192.875 549.738281 236.792969 549.738281 279.558594 557.863281 C 277.675781 542.792969 277.675781 527.542969 279.558594 512.46875 Z M 279.558594 512.46875 "/>
</g>
</svg>
