<?xml version="1.0" encoding="UTF-8"?>
<svg xmlns="http://www.w3.org/2000/svg" xmlns:xlink="http://www.w3.org/1999/xlink" viewBox="0 0 1000 500" version="1.1">
<g id="surface495">
<rect x="0" y="0" width="1000" height="500" style="fill:rgb(99.998474%,99.998474%,99.998474%);fill-opacity:1;stroke:none;"/>
<path style=" stroke:none;fill-rule:evenodd;fill:rgb(85.488892%,0%,4.705811%);fill-opacity:1;" d="M 0 334.960938 L 1000 334.960938 L 1000 500 L 0 500 Z M 0 334.960938 "/>
<path style=" stroke:none;fill-rule:evenodd;fill:rgb(97.253418%,84.70459%,5.490112%);fill-opacity:1;" d="M 460.507812 444.457031 L 460.507812 460.144531 L 470.335938 460.144531 L 470.335938 452.269531 L 483.703125 452.269531 L 483.703125 460.144531 L 494.261719 460.144531 L 494.261719 444.457031 Z M 460.507812 466.066406 L 460.507812 481.8125 L 494.261719 481.8125 L 494.261719 466.066406 L 483.703125 466.066406 L 483.703125 473.933594 L 470.335938 473.933594 L 470.335938 466.066406 Z M 460.507812 466.066406 "/>
<path style="fill:none;stroke-width:1.953125;stroke-linecap:butt;stroke-linejoin:miter;stroke:rgb(0%,0%,0%);stroke-opacity:1;stroke-miterlimit:4;" d="M 460.507812 444.457031 L 460.507812 460.144531 L 470.335938 460.144531 L 470.335938 452.269531 L 483.703125 452.269531 L 483.703125 460.144531 L 494.261719 460.144531 L 494.261719 444.457031 Z M 460.507812 444.457031 "/>
<path style="fill:none;stroke-width:1.953125;stroke-linecap:butt;stroke-linejoin:miter;stroke:rgb(0%,0%,0%);stroke-opacity:1;stroke-miterlimit:4;" d="M 460.507812 466.066406 L 460.507812 481.8125 L 494.261719 481.8125 L 494.261719 466.066406 L 483.703125 466.066406 L 483.703125 473.933594 L 470.335938 473.933594 L 470.335938 466.066406 Z M 460.507812 466.066406 "/>
<path style=" stroke:none;fill-rule:evenodd;fill:rgb(0%,0%,0%);fill-opacity:1;" d="M 383.925781 227.152344 L 616.074219 227.152344 L 616.074219 313.078125 L 383.925781 313.078125 Z M 383.925781 227.152344 "/>
<path style=" stroke:none;fill-rule:evenodd;fill:rgb(85.488892%,0%,4.705811%);fill-opacity:1;" d="M 448.867188 300.515625 L 372.558594 300.515625 L 355.644531 311.648438 L 355.644531 323.449219 L 448.867188 323.449219 Z M 448.867188 300.515625 "/>
<path style="fill:none;stroke-width:1.953125;stroke-linecap:round;stroke-linejoin:miter;stroke:rgb(0%,0%,0%);stroke-opacity:1;stroke-miterlimit:4;" d="M 448.867188 300.515625 L 372.558594 300.515625 L 355.644531 311.648438 L 355.644531 323.449219 L 448.867188 323.449219 "/>
<path style=" stroke:none;fill-rule:evenodd;fill:rgb(85.488892%,0%,4.705811%);fill-opacity:1;" d="M 551.132812 300.515625 L 627.441406 300.515625 L 644.355469 311.648438 L 644.355469 323.449219 L 551.132812 323.449219 Z M 551.132812 300.515625 "/>
<path style="fill:none;stroke-width:1.953125;stroke-linecap:round;stroke-linejoin:miter;stroke:rgb(0%,0%,0%);stroke-opacity:1;stroke-miterlimit:4;" d="M 551.132812 300.515625 L 627.441406 300.515625 L 644.355469 311.648438 L 644.355469 323.449219 L 551.132812 323.449219 "/>
<path style="fill:none;stroke-width:1.953125;stroke-linecap:round;stroke-linejoin:miter;stroke:rgb(0%,0%,0%);stroke-opacity:1;stroke-miterlimit:4;" d="M 355.644531 311.648438 L 644.355469 311.648438 "/>
<path style="fill-rule:evenodd;fill:rgb(85.488892%,0%,4.705811%);fill-opacity:1;stroke-width:1.953125;stroke-linecap:butt;stroke-linejoin:miter;stroke:rgb(0%,0%,0%);stroke-opacity:1;stroke-miterlimit:4;" d="M 446.410156 306.273438 L 427.304688 315.488281 L 427.304688 329.222656 L 572.695312 329.222656 L 572.695312 315.488281 L 553.589844 306.273438 Z M 446.410156 306.273438 "/>
<path style="fill-rule:evenodd;fill:rgb(97.253418%,84.70459%,5.490112%);fill-opacity:1;stroke-width:1.5;stroke-linecap:butt;stroke-linejoin:miter;stroke:rgb(0%,0%,0%);stroke-opacity:1;stroke-miterlimit:4;" d="M 533.785156 293.027344 C 531.164062 293.804688 527.847656 295.480469 523.773438 297.730469 C 519.703125 299.980469 515.042969 302.816406 510.648438 305.722656 C 507.390625 307.882812 504.671875 310.035156 501.984375 312.132812 C 501.046875 312.867188 499.75 313.628906 498.929688 314.332031 C 497.972656 315.152344 497.320312 315.933594 496.550781 316.707031 C 496.050781 317.222656 495.382812 317.734375 494.964844 318.238281 C 493.910156 319.507812 492.890625 320.609375 492.890625 322.941406 C 492.890625 323.359375 492.898438 323.785156 492.949219 324.21875 C 494.460938 322.402344 496.636719 321.140625 499.050781 320.859375 C 499.066406 320.863281 499.105469 320.863281 499.117188 320.859375 C 499.175781 320.863281 499.296875 320.859375 499.359375 320.859375 C 499.363281 320.859375 499.410156 320.859375 499.417969 320.859375 C 499.660156 320.84375 499.847656 320.859375 500.09375 320.859375 C 500.335938 320.859375 500.523438 320.84375 500.761719 320.859375 C 501.128906 320.890625 501.453125 320.976562 501.800781 321.046875 C 501.933594 320.921875 502.035156 320.800781 502.167969 320.679688 C 502.613281 320.269531 502.851562 319.980469 503.390625 319.519531 C 504.460938 318.597656 506.230469 317.4375 507.597656 316.40625 C 509.808594 314.734375 511.816406 313.136719 514.433594 311.402344 C 518.671875 308.59375 523.183594 305.859375 527.070312 303.710938 C 530.953125 301.5625 534.398438 300.015625 535.738281 299.617188 Z M 533.785156 293.027344 "/>
<path style="fill:none;stroke-width:1.953125;stroke-linecap:butt;stroke-linejoin:miter;stroke:rgb(0%,0%,0%);stroke-opacity:1;stroke-miterlimit:4;" d="M 508.59375 307.40625 L 508.59375 315.042969 "/>
<path style="fill:none;stroke-width:1.953125;stroke-linecap:butt;stroke-linejoin:miter;stroke:rgb(0%,0%,0%);stroke-opacity:1;stroke-miterlimit:4;" d="M 513.316406 304.074219 L 513.316406 311.65625 "/>
<path style="fill:none;stroke-width:1.953125;stroke-linecap:butt;stroke-linejoin:miter;stroke:rgb(0%,0%,0%);stroke-opacity:1;stroke-miterlimit:4;" d="M 518.03125 301.132812 L 518.03125 308.667969 "/>
<path style="fill:none;stroke-width:1.953125;stroke-linecap:butt;stroke-linejoin:miter;stroke:rgb(0%,0%,0%);stroke-opacity:1;stroke-miterlimit:4;" d="M 522.753906 298.226562 L 522.753906 306.007812 "/>
<path style="fill:none;stroke-width:1.953125;stroke-linecap:butt;stroke-linejoin:miter;stroke:rgb(0%,0%,0%);stroke-opacity:1;stroke-miterlimit:4;" d="M 427.285156 315.46875 L 572.714844 315.46875 "/>
<path style="fill-rule:evenodd;fill:rgb(85.488892%,0%,4.705811%);fill-opacity:1;stroke-width:1.953125;stroke-linecap:round;stroke-linejoin:miter;stroke:rgb(0%,0%,0%);stroke-opacity:1;stroke-miterlimit:4;" d="M 416.933594 251.164062 C 427.914062 251.164062 436.890625 260.316406 436.890625 271.605469 L 436.890625 300.480469 L 451.230469 300.480469 L 451.230469 191.105469 L 372.558594 191.105469 L 372.558594 300.480469 L 396.972656 300.480469 L 396.972656 271.605469 C 396.972656 260.761719 405.792969 251.164062 416.933594 251.164062 Z M 416.933594 251.164062 "/>
<path style=" stroke:none;fill-rule:evenodd;fill:rgb(0%,0%,0%);fill-opacity:1;" d="M 399.46875 117.113281 L 435.648438 117.113281 L 435.648438 183.4375 L 399.46875 183.4375 Z M 399.46875 117.113281 "/>
<path style=" stroke:none;fill-rule:evenodd;fill:rgb(85.488892%,0%,4.705811%);fill-opacity:1;" d="M 435.546875 173.152344 L 403.886719 173.152344 L 403.886719 161.921875 L 380.671875 161.921875 L 380.671875 173.152344 L 364.929688 173.152344 L 364.929688 161.921875 L 355.527344 161.921875 L 355.527344 182.316406 L 435.546875 182.316406 Z M 364.929688 182.234375 L 433.234375 182.234375 L 433.234375 191.105469 L 364.929688 191.105469 Z M 364.929688 182.234375 "/>
<path style="fill:none;stroke-width:1.953125;stroke-linecap:butt;stroke-linejoin:miter;stroke:rgb(0%,0%,0%);stroke-opacity:1;stroke-miterlimit:4;" d="M 435.546875 173.152344 L 403.886719 173.152344 L 403.886719 161.921875 L 380.671875 161.921875 L 380.671875 173.152344 L 364.929688 173.152344 L 364.929688 161.921875 L 355.527344 161.921875 L 355.527344 182.316406 L 435.546875 182.316406 "/>
<path style="fill:none;stroke-width:1.953125;stroke-linecap:butt;stroke-linejoin:miter;stroke:rgb(0%,0%,0%);stroke-opacity:1;stroke-miterlimit:4;" d="M 364.929688 182.234375 L 433.234375 182.234375 L 433.234375 191.105469 L 364.929688 191.105469 Z M 364.929688 182.234375 "/>
<path style="fill-rule:evenodd;fill:rgb(85.488892%,0%,4.705811%);fill-opacity:1;stroke-width:1.953125;stroke-linecap:butt;stroke-linejoin:miter;stroke:rgb(0%,0%,0%);stroke-opacity:1;stroke-miterlimit:4;" d="M 392.03125 93.015625 L 392.03125 161.921875 L 403.886719 161.921875 L 403.886719 143.007812 C 403.886719 135.917969 408.890625 130.117188 415.894531 129.761719 C 416.117188 129.75 416.335938 129.761719 416.5625 129.761719 C 423.882812 129.761719 429.808594 135.6875 429.808594 143.007812 L 429.808594 161.921875 L 441.105469 161.921875 L 441.105469 93.015625 Z M 392.03125 93.015625 "/>
<path style=" stroke:none;fill-rule:evenodd;fill:rgb(0%,0%,0%);fill-opacity:1;" d="M 470.316406 74.902344 L 527.601562 74.902344 L 527.601562 178.917969 L 470.316406 178.917969 Z M 470.316406 74.902344 "/>
<path style=" stroke:none;fill-rule:evenodd;fill:rgb(85.488892%,0%,4.705811%);fill-opacity:1;" d="M 466.308594 74.953125 L 466.308594 161.988281 L 484.496094 161.988281 L 484.496094 136.171875 C 484.496094 130.214844 488.308594 121.949219 500 121.949219 C 511.691406 121.949219 515.503906 130.214844 515.503906 136.171875 L 515.503906 161.988281 L 533.691406 161.988281 L 533.691406 74.953125 Z M 497.191406 84.714844 L 502.808594 84.714844 L 502.808594 114.503906 L 497.191406 114.503906 Z M 481.078125 90.578125 L 486.757812 90.578125 L 486.757812 112.363281 L 481.078125 112.363281 Z M 513.242188 90.578125 L 518.921875 90.578125 L 518.921875 112.363281 L 513.242188 112.363281 Z M 513.242188 90.578125 "/>
<path style="fill:none;stroke-width:1.953125;stroke-linecap:butt;stroke-linejoin:miter;stroke:rgb(0%,0%,0%);stroke-opacity:1;stroke-miterlimit:4;" d="M 466.308594 74.953125 L 466.308594 161.988281 L 484.496094 161.988281 L 484.496094 136.171875 C 484.496094 130.214844 488.308594 121.949219 500 121.949219 C 511.691406 121.949219 515.503906 130.214844 515.503906 136.171875 L 515.503906 161.988281 L 533.691406 161.988281 L 533.691406 74.953125 Z M 466.308594 74.953125 "/>
<path style="fill:none;stroke-width:1.953125;stroke-linecap:butt;stroke-linejoin:miter;stroke:rgb(0%,0%,0%);stroke-opacity:1;stroke-miterlimit:4;" d="M 497.191406 84.714844 L 502.808594 84.714844 L 502.808594 114.503906 L 497.191406 114.503906 Z M 497.191406 84.714844 "/>
<path style="fill:none;stroke-width:1.953125;stroke-linecap:butt;stroke-linejoin:miter;stroke:rgb(0%,0%,0%);stroke-opacity:1;stroke-miterlimit:4;" d="M 481.078125 90.578125 L 486.757812 90.578125 L 486.757812 112.363281 L 481.078125 112.363281 Z M 481.078125 90.578125 "/>
<path style="fill:none;stroke-width:1.953125;stroke-linecap:butt;stroke-linejoin:miter;stroke:rgb(0%,0%,0%);stroke-opacity:1;stroke-miterlimit:4;" d="M 513.242188 90.578125 L 518.921875 90.578125 L 518.921875 112.363281 L 513.242188 112.363281 Z M 513.242188 90.578125 "/>
<path style="fill-rule:evenodd;fill:rgb(85.488892%,0%,4.705811%);fill-opacity:1;stroke-width:1.953125;stroke-linecap:round;stroke-linejoin:miter;stroke:rgb(0%,0%,0%);stroke-opacity:1;stroke-miterlimit:4;" d="M 460.144531 62.441406 L 460.144531 74.828125 L 539.855469 74.828125 L 539.855469 62.441406 Z M 460.144531 62.441406 "/>
<path style="fill-rule:evenodd;fill:rgb(85.488892%,0%,4.705811%);fill-opacity:1;stroke-width:1.953125;stroke-linecap:round;stroke-linejoin:miter;stroke:rgb(0%,0%,0%);stroke-opacity:1;stroke-miterlimit:4;" d="M 452.636719 48.039062 L 452.636719 62.441406 L 547.363281 62.441406 L 547.363281 48.039062 L 535.457031 48.039062 L 535.457031 55.964844 L 522.03125 55.964844 L 522.03125 48.039062 L 506.714844 48.039062 L 506.714844 55.964844 L 493.285156 55.964844 L 493.285156 48.039062 L 477.96875 48.039062 L 477.96875 55.964844 L 464.542969 55.964844 L 464.542969 48.039062 Z M 452.636719 48.039062 "/>
<path style="fill-rule:evenodd;fill:rgb(85.488892%,0%,4.705811%);fill-opacity:1;stroke-width:1.953125;stroke-linecap:round;stroke-linejoin:miter;stroke:rgb(0%,0%,0%);stroke-opacity:1;stroke-miterlimit:4;" d="M 387.753906 83.679688 L 387.753906 93.015625 L 444.882812 93.015625 L 444.882812 83.679688 Z M 387.753906 83.679688 "/>
<path style="fill-rule:evenodd;fill:rgb(85.488892%,0%,4.705811%);fill-opacity:1;stroke-width:1.953125;stroke-linecap:round;stroke-linejoin:miter;stroke:rgb(0%,0%,0%);stroke-opacity:1;stroke-miterlimit:4;" d="M 380.429688 65.796875 L 380.429688 83.679688 L 448.976562 83.679688 L 448.976562 65.796875 L 438.417969 65.796875 L 438.417969 74.890625 L 425.660156 74.890625 L 425.660156 65.796875 L 406.191406 65.796875 L 406.191406 74.890625 L 393.433594 74.890625 L 393.433594 65.796875 Z M 380.429688 65.796875 "/>
<path style="fill-rule:evenodd;fill:rgb(97.253418%,84.70459%,5.490112%);fill-opacity:1;stroke-width:1.953125;stroke-linecap:butt;stroke-linejoin:miter;stroke:rgb(0%,0%,0%);stroke-opacity:1;stroke-miterlimit:4;" d="M 494.242188 378.226562 L 503.988281 378.226562 L 503.988281 491.734375 L 494.242188 491.734375 Z M 494.242188 378.226562 "/>
<path style=" stroke:none;fill-rule:evenodd;fill:rgb(97.253418%,84.70459%,5.490112%);fill-opacity:1;" d="M 499.117188 350.398438 L 519.867188 362.488281 L 499.117188 374.511719 L 478.363281 362.488281 Z M 471.34375 358.152344 L 465.914062 358.152344 L 465.914062 366.820312 L 471.34375 366.820312 L 499.117188 382.933594 L 526.886719 366.820312 L 532.320312 366.820312 L 532.320312 358.152344 L 526.886719 358.152344 L 499.117188 342.042969 Z M 471.34375 358.152344 "/>
<path style="fill:none;stroke-width:2;stroke-linecap:butt;stroke-linejoin:miter;stroke:rgb(0%,0%,0%);stroke-opacity:1;stroke-miterlimit:4;" d="M 499.117188 350.398438 L 519.867188 362.488281 L 499.117188 374.511719 L 478.363281 362.488281 Z M 499.117188 350.398438 "/>
<path style="fill:none;stroke-width:2;stroke-linecap:butt;stroke-linejoin:miter;stroke:rgb(0%,0%,0%);stroke-opacity:1;stroke-miterlimit:4;" d="M 471.34375 358.152344 L 465.914062 358.152344 L 465.914062 366.820312 L 471.34375 366.820312 L 499.117188 382.933594 L 526.886719 366.820312 L 532.320312 366.820312 L 532.320312 358.152344 L 526.886719 358.152344 L 499.117188 342.042969 Z M 471.34375 358.152344 "/>
<path style="fill-rule:evenodd;fill:rgb(97.253418%,84.70459%,5.490112%);fill-opacity:1;stroke-width:1.5;stroke-linecap:butt;stroke-linejoin:miter;stroke:rgb(0%,0%,0%);stroke-opacity:1;stroke-miterlimit:4;" d="M 466.582031 293.269531 L 464.261719 299.746094 C 471.761719 302.457031 482.40625 307.726562 490.9375 312.867188 C 495.199219 315.441406 498.929688 317.964844 501.492188 320.070312 C 502.777344 321.117188 503.761719 322.09375 504.300781 322.753906 C 504.371094 322.835938 504.449219 322.933594 504.488281 322.996094 C 504.492188 323.011719 504.484375 323.046875 504.488281 323.054688 C 504.53125 323.148438 504.578125 323.242188 504.609375 323.300781 C 504.558594 323.738281 504.484375 324.207031 504.363281 324.519531 C 504.355469 324.550781 504.3125 324.625 504.300781 324.648438 C 504.296875 324.660156 504.304688 324.699219 504.300781 324.707031 C 504.296875 324.714844 504.246094 324.761719 504.242188 324.765625 C 504.199219 324.820312 504.164062 324.902344 504.121094 324.953125 C 504.109375 324.960938 504.066406 325 504.058594 325.011719 C 504.046875 325.023438 504.007812 325.0625 504 325.074219 C 503.976562 325.09375 503.902344 325.117188 503.878906 325.136719 C 503.832031 325.160156 503.746094 325.234375 503.691406 325.253906 C 503.414062 325.371094 502.957031 325.441406 502.226562 325.441406 C 501.796875 325.441406 501.445312 325.375 501.191406 325.316406 C 501.09375 325.292969 500.960938 325.289062 500.882812 325.253906 C 500.859375 325.242188 500.785156 325.203125 500.761719 325.195312 C 500.699219 325.160156 500.628906 325.113281 500.582031 325.074219 C 500.5625 325.058594 500.527344 325.019531 500.515625 325.011719 C 500.511719 325.003906 500.464844 324.960938 500.457031 324.953125 C 500.445312 324.925781 500.410156 324.847656 500.394531 324.828125 C 500.390625 324.828125 500.339844 324.828125 500.335938 324.828125 C 500.332031 324.828125 500.285156 324.828125 500.273438 324.828125 C 500.257812 324.828125 500.230469 324.828125 500.214844 324.828125 C 500.179688 324.828125 500.117188 324.828125 500.09375 324.828125 C 499.902344 324.828125 499.726562 324.808594 499.542969 324.828125 C 497.300781 325.054688 495.398438 326.65625 494.78125 328.859375 C 494.78125 328.863281 494.78125 328.910156 494.78125 328.917969 C 494.789062 328.925781 494.832031 328.96875 494.84375 328.980469 C 494.871094 329.007812 494.929688 329.066406 494.964844 329.101562 C 496.535156 330.996094 499.222656 332.273438 502.226562 332.273438 C 505.390625 332.273438 508.144531 330.953125 509.671875 328.980469 C 511.203125 327.007812 511.566406 324.765625 511.566406 322.941406 C 511.566406 320.804688 510.609375 319.570312 509.613281 318.359375 C 508.617188 317.148438 507.324219 315.984375 505.828125 314.757812 C 502.839844 312.304688 498.925781 309.6875 494.476562 307.007812 C 485.582031 301.640625 474.785156 296.238281 466.582031 293.269531 Z M 466.582031 293.269531 "/>
<path style=" stroke:none;fill-rule:evenodd;fill:rgb(0%,0%,0%);fill-opacity:1;" d="M 496.191406 308.664062 L 495.582031 315.183594 Z M 496.191406 308.664062 "/>
<path style="fill:none;stroke-width:1.953125;stroke-linecap:butt;stroke-linejoin:miter;stroke:rgb(0%,0%,0%);stroke-opacity:1;stroke-miterlimit:4;" d="M 496.191406 308.664062 L 495.582031 315.183594 "/>
<path style=" stroke:none;fill-rule:evenodd;fill:rgb(0%,0%,0%);fill-opacity:1;" d="M 501.625 311.992188 L 499.941406 318.378906 Z M 501.625 311.992188 "/>
<path style="fill:none;stroke-width:1.953125;stroke-linecap:butt;stroke-linejoin:miter;stroke:rgb(0%,0%,0%);stroke-opacity:1;stroke-miterlimit:4;" d="M 501.625 311.992188 L 499.941406 318.378906 "/>
<path style=" stroke:none;fill-rule:evenodd;fill:rgb(0%,0%,0%);fill-opacity:1;" d="M 507.429688 316.429688 L 503.894531 321.386719 Z M 507.429688 316.429688 "/>
<path style="fill:none;stroke-width:1.953125;stroke-linecap:butt;stroke-linejoin:miter;stroke:rgb(0%,0%,0%);stroke-opacity:1;stroke-miterlimit:4;" d="M 507.429688 316.429688 L 503.894531 321.386719 "/>
<path style=" stroke:none;fill-rule:evenodd;fill:rgb(0%,0%,0%);fill-opacity:1;" d="M 509.207031 328.476562 L 504.109375 325.742188 Z M 509.207031 328.476562 "/>
<path style="fill:none;stroke-width:1.953125;stroke-linecap:butt;stroke-linejoin:miter;stroke:rgb(0%,0%,0%);stroke-opacity:1;stroke-miterlimit:4;" d="M 509.207031 328.476562 L 504.109375 325.742188 "/>
<path style=" stroke:none;fill-rule:evenodd;fill:rgb(0%,0%,0%);fill-opacity:1;" d="M 510.796875 323.105469 L 504.945312 323.652344 Z M 510.796875 323.105469 "/>
<path style="fill:none;stroke-width:1.953125;stroke-linecap:butt;stroke-linejoin:miter;stroke:rgb(0%,0%,0%);stroke-opacity:1;stroke-miterlimit:4;" d="M 510.796875 323.105469 L 504.945312 323.652344 "/>
<path style=" stroke:none;fill-rule:evenodd;fill:rgb(0%,0%,0%);fill-opacity:1;" d="M 503.253906 331.574219 L 502.851562 326.429688 Z M 503.253906 331.574219 "/>
<path style="fill:none;stroke-width:1.953125;stroke-linecap:butt;stroke-linejoin:miter;stroke:rgb(0%,0%,0%);stroke-opacity:1;stroke-miterlimit:4;" d="M 503.253906 331.574219 L 502.851562 326.429688 "/>
<path style=" stroke:none;fill-rule:evenodd;fill:rgb(0%,0%,0%);fill-opacity:1;" d="M 501.109375 325.695312 L 496.277344 329.253906 Z M 501.109375 325.695312 "/>
<path style="fill:none;stroke-width:1.953125;stroke-linecap:butt;stroke-linejoin:miter;stroke:rgb(0%,0%,0%);stroke-opacity:1;stroke-miterlimit:4;" d="M 501.109375 325.695312 L 496.277344 329.253906 "/>
<path style="fill:none;stroke-width:1.953125;stroke-linecap:butt;stroke-linejoin:miter;stroke:rgb(0%,0%,0%);stroke-opacity:1;stroke-miterlimit:4;" d="M 477.886719 298.707031 L 477.886719 304.789062 "/>
<path style="fill:none;stroke-width:1.953125;stroke-linecap:butt;stroke-linejoin:miter;stroke:rgb(0%,0%,0%);stroke-opacity:1;stroke-miterlimit:4;" d="M 490.160156 305.167969 L 490.160156 312.066406 "/>
<path style="fill:none;stroke-width:1.953125;stroke-linecap:butt;stroke-linejoin:miter;stroke:rgb(0%,0%,0%);stroke-opacity:1;stroke-miterlimit:4;" d="M 484.023438 301.9375 L 484.023438 308.421875 "/>
<path style=" stroke:none;fill-rule:evenodd;fill:rgb(97.253418%,84.70459%,5.490112%);fill-opacity:1;" d="M 498.722656 320.859375 C 494.191406 321.558594 490.722656 325.679688 490.722656 330.507812 L 490.722656 352.050781 C 490.722656 357.359375 494.9375 361.757812 500.121094 361.757812 C 500.257812 361.757812 500.355469 361.761719 500.488281 361.757812 C 500.621094 361.761719 500.71875 361.757812 500.855469 361.757812 C 504.542969 361.757812 507.738281 359.515625 509.277344 356.324219 L 505.917969 354.304688 C 505.085938 356.378906 503.125 357.789062 500.855469 357.789062 C 500.765625 357.789062 500.683594 357.789062 500.609375 357.789062 C 500.585938 357.789062 500.523438 357.789062 500.488281 357.789062 C 500.453125 357.792969 500.394531 357.789062 500.367188 357.789062 C 500.292969 357.789062 500.210938 357.789062 500.121094 357.789062 C 497.09375 357.789062 494.628906 355.292969 494.628906 352.050781 L 494.628906 330.507812 C 494.628906 327.265625 497.09375 324.828125 500.121094 324.828125 C 500.210938 324.828125 500.292969 324.828125 500.367188 324.828125 C 500.394531 324.828125 500.453125 324.824219 500.488281 324.828125 C 500.523438 324.828125 500.585938 324.828125 500.609375 324.828125 C 500.683594 324.828125 500.765625 324.828125 500.855469 324.828125 C 501.703125 324.828125 502.515625 325.027344 503.234375 325.382812 C 503.242188 325.382812 503.292969 325.375 503.296875 325.382812 C 503.457031 325.351562 503.617188 325.296875 503.722656 325.253906 C 503.773438 325.226562 503.878906 325.15625 503.90625 325.136719 C 503.917969 325.121094 503.953125 325.082031 503.964844 325.074219 C 503.976562 325.074219 504.023438 325.074219 504.027344 325.074219 C 504.039062 325.0625 504.078125 325.023438 504.089844 325.011719 C 504.101562 325 504.144531 324.957031 504.148438 324.953125 C 504.191406 324.902344 504.238281 324.816406 504.273438 324.765625 C 504.273438 324.761719 504.273438 324.710938 504.273438 324.707031 L 504.335938 324.648438 C 504.339844 324.628906 504.378906 324.554688 504.394531 324.519531 C 504.511719 324.207031 504.589844 323.738281 504.640625 323.300781 C 504.609375 323.242188 504.558594 323.148438 504.515625 323.054688 C 504.515625 323.054688 504.515625 323.011719 504.515625 322.996094 C 504.472656 322.933594 504.390625 322.828125 504.335938 322.753906 C 503.933594 322.269531 503.257812 321.648438 502.441406 320.921875 C 502.4375 320.921875 502.386719 320.921875 502.382812 320.921875 C 502.324219 320.910156 502.191406 320.875 502.140625 320.859375 C 502.128906 320.859375 502.085938 320.859375 502.074219 320.859375 C 502.046875 320.863281 501.972656 320.863281 501.953125 320.859375 C 501.945312 320.863281 501.898438 320.863281 501.894531 320.859375 C 501.855469 320.863281 501.792969 320.859375 501.765625 320.859375 C 501.707031 320.863281 501.582031 320.863281 501.523438 320.859375 C 501.289062 320.84375 501.097656 320.859375 500.855469 320.859375 C 500.703125 320.859375 500.625 320.863281 500.488281 320.859375 C 500.351562 320.863281 500.273438 320.859375 500.121094 320.859375 C 499.878906 320.859375 499.6875 320.84375 499.453125 320.859375 C 499.394531 320.863281 499.265625 320.863281 499.207031 320.859375 C 499.183594 320.859375 499.121094 320.863281 499.082031 320.859375 C 499.066406 320.863281 499.035156 320.859375 499.023438 320.859375 C 499 320.863281 498.921875 320.863281 498.902344 320.859375 C 498.890625 320.859375 498.847656 320.859375 498.835938 320.859375 C 498.804688 320.867188 498.753906 320.855469 498.722656 320.859375 Z M 510.011719 328.492188 C 509.914062 328.636719 509.816406 328.832031 509.707031 328.980469 C 508.890625 330.027344 507.730469 330.902344 506.347656 331.484375 L 506.347656 346.25 L 510.253906 348.511719 L 510.253906 330.507812 C 510.253906 329.820312 510.203125 329.140625 510.070312 328.492188 C 510.0625 328.492188 510.015625 328.492188 510.011719 328.492188 Z M 510.011719 328.492188 "/>
<path style="fill:none;stroke-width:2;stroke-linecap:butt;stroke-linejoin:miter;stroke:rgb(0%,0%,0%);stroke-opacity:1;stroke-miterlimit:4;" d="M 498.722656 320.859375 C 494.191406 321.558594 490.722656 325.679688 490.722656 330.507812 L 490.722656 352.050781 C 490.722656 357.359375 494.9375 361.757812 500.121094 361.757812 C 500.257812 361.757812 500.355469 361.761719 500.488281 361.757812 C 500.621094 361.761719 500.71875 361.757812 500.855469 361.757812 C 504.542969 361.757812 507.738281 359.515625 509.277344 356.324219 L 505.917969 354.304688 C 505.085938 356.378906 503.125 357.789062 500.855469 357.789062 C 500.765625 357.789062 500.683594 357.789062 500.609375 357.789062 C 500.585938 357.789062 500.523438 357.789062 500.488281 357.789062 C 500.453125 357.792969 500.394531 357.789062 500.367188 357.789062 C 500.292969 357.789062 500.210938 357.789062 500.121094 357.789062 C 497.09375 357.789062 494.628906 355.292969 494.628906 352.050781 L 494.628906 330.507812 C 494.628906 327.265625 497.09375 324.828125 500.121094 324.828125 C 500.210938 324.828125 500.292969 324.828125 500.367188 324.828125 C 500.394531 324.828125 500.453125 324.824219 500.488281 324.828125 C 500.523438 324.828125 500.585938 324.828125 500.609375 324.828125 C 500.683594 324.828125 500.765625 324.828125 500.855469 324.828125 C 501.703125 324.828125 502.515625 325.027344 503.234375 325.382812 C 503.242188 325.382812 503.292969 325.375 503.296875 325.382812 C 503.457031 325.351562 503.617188 325.296875 503.722656 325.253906 C 503.773438 325.226562 503.878906 325.15625 503.90625 325.136719 C 503.917969 325.121094 503.953125 325.082031 503.964844 325.074219 C 503.976562 325.074219 504.023438 325.074219 504.027344 325.074219 C 504.039062 325.0625 504.078125 325.023438 504.089844 325.011719 C 504.101562 325 504.144531 324.957031 504.148438 324.953125 C 504.191406 324.902344 504.238281 324.816406 504.273438 324.765625 C 504.273438 324.761719 504.273438 324.710938 504.273438 324.707031 L 504.335938 324.648438 C 504.339844 324.628906 504.378906 324.554688 504.394531 324.519531 C 504.511719 324.207031 504.589844 323.738281 504.640625 323.300781 C 504.609375 323.242188 504.558594 323.148438 504.515625 323.054688 C 504.515625 323.054688 504.515625 323.011719 504.515625 322.996094 C 504.472656 322.933594 504.390625 322.828125 504.335938 322.753906 C 503.933594 322.269531 503.257812 321.648438 502.441406 320.921875 C 502.4375 320.921875 502.386719 320.921875 502.382812 320.921875 C 502.324219 320.910156 502.191406 320.875 502.140625 320.859375 C 502.128906 320.859375 502.085938 320.859375 502.074219 320.859375 C 502.046875 320.863281 501.972656 320.863281 501.953125 320.859375 C 501.945312 320.863281 501.898438 320.863281 501.894531 320.859375 C 501.855469 320.863281 501.792969 320.859375 501.765625 320.859375 C 501.707031 320.863281 501.582031 320.863281 501.523438 320.859375 C 501.289062 320.84375 501.097656 320.859375 500.855469 320.859375 C 500.703125 320.859375 500.625 320.863281 500.488281 320.859375 C 500.351562 320.863281 500.273438 320.859375 500.121094 320.859375 C 499.878906 320.859375 499.6875 320.84375 499.453125 320.859375 C 499.394531 320.863281 499.265625 320.863281 499.207031 320.859375 C 499.183594 320.859375 499.121094 320.863281 499.082031 320.859375 C 499.066406 320.863281 499.035156 320.859375 499.023438 320.859375 C 499 320.863281 498.921875 320.863281 498.902344 320.859375 C 498.890625 320.859375 498.847656 320.859375 498.835938 320.859375 C 498.804688 320.867188 498.753906 320.855469 498.722656 320.859375 Z M 498.722656 320.859375 "/>
<path style="fill:none;stroke-width:2;stroke-linecap:butt;stroke-linejoin:miter;stroke:rgb(0%,0%,0%);stroke-opacity:1;stroke-miterlimit:4;" d="M 510.011719 328.492188 C 509.914062 328.636719 509.816406 328.832031 509.707031 328.980469 C 508.890625 330.027344 507.730469 330.902344 506.347656 331.484375 L 506.347656 346.25 L 510.253906 348.511719 L 510.253906 330.507812 C 510.253906 329.820312 510.203125 329.140625 510.070312 328.492188 C 510.0625 328.492188 510.015625 328.492188 510.011719 328.492188 Z M 510.011719 328.492188 "/>
<path style="fill-rule:evenodd;fill:rgb(85.488892%,0%,4.705811%);fill-opacity:1;stroke-width:1.953125;stroke-linecap:round;stroke-linejoin:miter;stroke:rgb(0%,0%,0%);stroke-opacity:1;stroke-miterlimit:4;" d="M 583.066406 251.164062 C 572.085938 251.164062 563.109375 260.316406 563.109375 271.605469 L 563.109375 300.480469 L 548.769531 300.480469 L 548.769531 191.105469 L 627.441406 191.105469 L 627.441406 300.480469 L 603.027344 300.480469 L 603.027344 271.605469 C 603.027344 260.761719 594.207031 251.164062 583.066406 251.164062 Z M 583.066406 251.164062 "/>
<path style="fill-rule:evenodd;fill:rgb(85.488892%,0%,4.705811%);fill-opacity:1;stroke-width:1.953125;stroke-linecap:butt;stroke-linejoin:miter;stroke:rgb(0%,0%,0%);stroke-opacity:1;stroke-miterlimit:4;" d="M 435.058594 191.105469 L 435.058594 200.074219 L 564.941406 200.074219 L 564.941406 191.105469 Z M 435.058594 191.105469 "/>
<path style=" stroke:none;fill-rule:evenodd;fill:rgb(0%,0%,0%);fill-opacity:1;" d="M 564.351562 117.113281 L 600.53125 117.113281 L 600.53125 183.4375 L 564.351562 183.4375 Z M 564.351562 117.113281 "/>
<path style=" stroke:none;fill-rule:evenodd;fill:rgb(85.488892%,0%,4.705811%);fill-opacity:1;" d="M 564.453125 173.152344 L 596.113281 173.152344 L 596.113281 161.921875 L 619.328125 161.921875 L 619.328125 173.152344 L 635.070312 173.152344 L 635.070312 161.921875 L 644.472656 161.921875 L 644.472656 182.316406 L 564.453125 182.316406 Z M 635.070312 182.234375 L 566.765625 182.234375 L 566.765625 191.105469 L 635.070312 191.105469 Z M 635.070312 182.234375 "/>
<path style="fill:none;stroke-width:1.953125;stroke-linecap:butt;stroke-linejoin:miter;stroke:rgb(0%,0%,0%);stroke-opacity:1;stroke-miterlimit:4;" d="M 564.453125 173.152344 L 596.113281 173.152344 L 596.113281 161.921875 L 619.328125 161.921875 L 619.328125 173.152344 L 635.070312 173.152344 L 635.070312 161.921875 L 644.472656 161.921875 L 644.472656 182.316406 L 564.453125 182.316406 "/>
<path style="fill:none;stroke-width:1.953125;stroke-linecap:butt;stroke-linejoin:miter;stroke:rgb(0%,0%,0%);stroke-opacity:1;stroke-miterlimit:4;" d="M 635.070312 182.234375 L 566.765625 182.234375 L 566.765625 191.105469 L 635.070312 191.105469 Z M 635.070312 182.234375 "/>
<path style="fill-rule:evenodd;fill:rgb(85.488892%,0%,4.705811%);fill-opacity:1;stroke-width:1.953125;stroke-linecap:butt;stroke-linejoin:miter;stroke:rgb(0%,0%,0%);stroke-opacity:1;stroke-miterlimit:4;" d="M 607.96875 93.015625 L 607.96875 161.921875 L 596.113281 161.921875 L 596.113281 143.007812 C 596.113281 135.917969 591.109375 130.117188 584.105469 129.761719 C 583.882812 129.75 583.664062 129.761719 583.4375 129.761719 C 576.117188 129.761719 570.191406 135.6875 570.191406 143.007812 L 570.191406 161.921875 L 558.894531 161.921875 L 558.894531 93.015625 Z M 607.96875 93.015625 "/>
<path style="fill-rule:evenodd;fill:rgb(85.488892%,0%,4.705811%);fill-opacity:1;stroke-width:1.953125;stroke-linecap:butt;stroke-linejoin:miter;stroke:rgb(0%,0%,0%);stroke-opacity:1;stroke-miterlimit:4;" d="M 429.746094 161.921875 L 429.746094 191.105469 L 570.253906 191.105469 L 570.253906 161.921875 L 556.945312 161.921875 L 556.945312 173.152344 L 539.246094 173.152344 L 539.246094 161.921875 L 515.503906 161.921875 L 515.503906 173.152344 L 484.496094 173.152344 L 484.496094 161.921875 L 460.753906 161.921875 L 460.753906 173.152344 L 443.054688 173.152344 L 443.054688 161.921875 Z M 429.746094 161.921875 "/>
<path style="fill-rule:evenodd;fill:rgb(85.488892%,0%,4.705811%);fill-opacity:1;stroke-width:1.953125;stroke-linecap:round;stroke-linejoin:miter;stroke:rgb(0%,0%,0%);stroke-opacity:1;stroke-miterlimit:4;" d="M 612.246094 83.679688 L 612.246094 93.015625 L 555.117188 93.015625 L 555.117188 83.679688 Z M 612.246094 83.679688 "/>
<path style="fill-rule:evenodd;fill:rgb(85.488892%,0%,4.705811%);fill-opacity:1;stroke-width:1.953125;stroke-linecap:round;stroke-linejoin:miter;stroke:rgb(0%,0%,0%);stroke-opacity:1;stroke-miterlimit:4;" d="M 619.570312 65.796875 L 619.570312 83.679688 L 551.023438 83.679688 L 551.023438 65.796875 L 561.582031 65.796875 L 561.582031 74.890625 L 574.339844 74.890625 L 574.339844 65.796875 L 593.808594 65.796875 L 593.808594 74.890625 L 606.566406 74.890625 L 606.566406 65.796875 Z M 619.570312 65.796875 "/>
<path style="fill-rule:evenodd;fill:rgb(97.253418%,84.70459%,5.490112%);fill-opacity:1;stroke-width:1.953125;stroke-linecap:butt;stroke-linejoin:miter;stroke:rgb(0%,0%,0%);stroke-opacity:1;stroke-miterlimit:4;" d="M 494.242188 388.046875 L 503.988281 388.046875 L 503.988281 485.820312 L 494.242188 485.820312 Z M 494.242188 388.046875 "/>
<path style="fill-rule:evenodd;fill:rgb(85.488892%,0%,4.705811%);fill-opacity:1;stroke-width:1.953125;stroke-linecap:butt;stroke-linejoin:miter;stroke:rgb(0%,0%,0%);stroke-opacity:1;stroke-miterlimit:4;" d="M 446.65625 200.074219 L 446.65625 306.210938 L 471.738281 306.210938 L 471.738281 266.480469 C 471.738281 247.765625 484.234375 238.953125 500 238.953125 C 515.15625 238.953125 528.261719 247.765625 528.261719 266.480469 L 528.261719 306.210938 L 553.34375 306.210938 L 553.34375 200.074219 Z M 446.65625 200.074219 "/>
</g>
</svg>
