<?xml version="1.0" encoding="UTF-8"?>
<svg xmlns="http://www.w3.org/2000/svg" xmlns:xlink="http://www.w3.org/1999/xlink" viewBox="0 0 1000 600" version="1.1">
<g id="surface510">
<rect x="0" y="0" width="1000" height="600" style="fill:rgb(80.783081%,6.666565%,14.901733%);fill-opacity:1;stroke:none;"/>
<path style=" stroke:none;fill-rule:evenodd;fill:rgb(0%,47.842407%,36.862183%);fill-opacity:1;" d="M 84 84 L 915.996094 84 L 915.996094 515.996094 L 84 515.996094 Z M 84 84 "/>
<path style=" stroke:none;fill-rule:evenodd;fill:rgb(98.822021%,81.959534%,8.627319%);fill-opacity:1;" d="M 84 84 L 916 84 L 84 516 L 916 516 Z M 84 84 "/>
<path style=" stroke:none;fill-rule:evenodd;fill:rgb(80.783081%,6.666565%,14.901733%);fill-opacity:1;" d="M 571.996094 300 C 571.996094 339.761719 539.761719 371.996094 500 371.996094 C 460.238281 371.996094 428.003906 339.761719 428.003906 300 C 428.003906 260.238281 460.238281 228.003906 500 228.003906 C 539.761719 228.003906 571.996094 260.238281 571.996094 300 Z M 571.996094 300 "/>
<path style=" stroke:none;fill-rule:evenodd;fill:rgb(98.822021%,81.959534%,8.627319%);fill-opacity:1;" d="M 500 234 L 479.605469 296.769531 L 510.984375 306.964844 Z M 500 234 "/>
<path style=" stroke:none;fill-rule:evenodd;fill:rgb(98.822021%,81.959534%,8.627319%);fill-opacity:1;" d="M 500 234 L 520.394531 296.769531 L 489.015625 306.964844 Z M 500 234 "/>
<path style=" stroke:none;fill-rule:evenodd;fill:rgb(98.822021%,81.959534%,8.627319%);fill-opacity:1;" d="M 562.769531 279.605469 L 496.769531 279.605469 L 496.769531 312.605469 Z M 562.769531 279.605469 "/>
<path style=" stroke:none;fill-rule:evenodd;fill:rgb(98.822021%,81.959534%,8.627319%);fill-opacity:1;" d="M 562.769531 279.605469 L 509.375 318.398438 L 489.976562 291.699219 Z M 562.769531 279.605469 "/>
<path style=" stroke:none;fill-rule:evenodd;fill:rgb(98.822021%,81.959534%,8.627319%);fill-opacity:1;" d="M 538.792969 353.394531 L 518.398438 290.625 L 487.011719 300.824219 Z M 538.792969 353.394531 "/>
<path style=" stroke:none;fill-rule:evenodd;fill:rgb(98.822021%,81.959534%,8.627319%);fill-opacity:1;" d="M 538.792969 353.394531 L 485.398438 314.601562 L 504.792969 287.90625 Z M 538.792969 353.394531 "/>
<path style=" stroke:none;fill-rule:evenodd;fill:rgb(98.822021%,81.959534%,8.627319%);fill-opacity:1;" d="M 461.207031 353.394531 L 514.601562 314.601562 L 495.207031 287.90625 Z M 461.207031 353.394531 "/>
<path style=" stroke:none;fill-rule:evenodd;fill:rgb(98.822021%,81.959534%,8.627319%);fill-opacity:1;" d="M 461.207031 353.394531 L 481.601562 290.625 L 512.988281 300.824219 Z M 461.207031 353.394531 "/>
<path style=" stroke:none;fill-rule:evenodd;fill:rgb(98.822021%,81.959534%,8.627319%);fill-opacity:1;" d="M 437.230469 279.605469 L 490.625 318.398438 L 510.023438 291.699219 Z M 437.230469 279.605469 "/>
<path style=" stroke:none;fill-rule:evenodd;fill:rgb(98.822021%,81.959534%,8.627319%);fill-opacity:1;" d="M 437.230469 279.605469 L 503.230469 279.605469 L 503.230469 312.605469 Z M 437.230469 279.605469 "/>
<path style=" stroke:none;fill-rule:evenodd;fill:rgb(98.822021%,81.959534%,8.627319%);fill-opacity:1;" d="M 300 3.003906 L 287.949219 40.085938 L 306.492188 46.117188 Z M 300 3.003906 "/>
<path style=" stroke:none;fill-rule:evenodd;fill:rgb(98.822021%,81.959534%,8.627319%);fill-opacity:1;" d="M 300 3.003906 L 312.050781 40.085938 L 293.507812 46.117188 Z M 300 3.003906 "/>
<path style=" stroke:none;fill-rule:evenodd;fill:rgb(98.822021%,81.959534%,8.627319%);fill-opacity:1;" d="M 337.09375 29.949219 L 298.085938 29.949219 L 298.085938 49.445312 Z M 337.09375 29.949219 "/>
<path style=" stroke:none;fill-rule:evenodd;fill:rgb(98.822021%,81.959534%,8.627319%);fill-opacity:1;" d="M 337.09375 29.949219 L 305.542969 52.871094 L 294.074219 37.09375 Z M 337.09375 29.949219 "/>
<path style=" stroke:none;fill-rule:evenodd;fill:rgb(98.822021%,81.959534%,8.627319%);fill-opacity:1;" d="M 322.925781 73.550781 L 310.871094 36.457031 L 292.324219 42.488281 Z M 322.925781 73.550781 "/>
<path style=" stroke:none;fill-rule:evenodd;fill:rgb(98.822021%,81.959534%,8.627319%);fill-opacity:1;" d="M 322.925781 73.550781 L 291.371094 50.628906 L 302.832031 34.855469 Z M 322.925781 73.550781 "/>
<path style=" stroke:none;fill-rule:evenodd;fill:rgb(98.822021%,81.959534%,8.627319%);fill-opacity:1;" d="M 277.074219 73.550781 L 308.628906 50.628906 L 297.167969 34.855469 Z M 277.074219 73.550781 "/>
<path style=" stroke:none;fill-rule:evenodd;fill:rgb(98.822021%,81.959534%,8.627319%);fill-opacity:1;" d="M 277.074219 73.550781 L 289.128906 36.457031 L 307.675781 42.488281 Z M 277.074219 73.550781 "/>
<path style=" stroke:none;fill-rule:evenodd;fill:rgb(98.822021%,81.959534%,8.627319%);fill-opacity:1;" d="M 262.90625 29.949219 L 294.457031 52.871094 L 305.925781 37.09375 Z M 262.90625 29.949219 "/>
<path style=" stroke:none;fill-rule:evenodd;fill:rgb(98.822021%,81.959534%,8.627319%);fill-opacity:1;" d="M 262.90625 29.949219 L 301.914062 29.949219 L 301.914062 49.445312 Z M 262.90625 29.949219 "/>
<path style=" stroke:none;fill-rule:evenodd;fill:rgb(98.822021%,81.959534%,8.627319%);fill-opacity:1;" d="M 500 3.003906 L 487.949219 40.085938 L 506.492188 46.117188 Z M 500 3.003906 "/>
<path style=" stroke:none;fill-rule:evenodd;fill:rgb(98.822021%,81.959534%,8.627319%);fill-opacity:1;" d="M 500 3.003906 L 512.050781 40.085938 L 493.507812 46.117188 Z M 500 3.003906 "/>
<path style=" stroke:none;fill-rule:evenodd;fill:rgb(98.822021%,81.959534%,8.627319%);fill-opacity:1;" d="M 537.09375 29.949219 L 498.085938 29.949219 L 498.085938 49.445312 Z M 537.09375 29.949219 "/>
<path style=" stroke:none;fill-rule:evenodd;fill:rgb(98.822021%,81.959534%,8.627319%);fill-opacity:1;" d="M 537.09375 29.949219 L 505.542969 52.871094 L 494.074219 37.09375 Z M 537.09375 29.949219 "/>
<path style=" stroke:none;fill-rule:evenodd;fill:rgb(98.822021%,81.959534%,8.627319%);fill-opacity:1;" d="M 522.925781 73.550781 L 510.871094 36.457031 L 492.324219 42.488281 Z M 522.925781 73.550781 "/>
<path style=" stroke:none;fill-rule:evenodd;fill:rgb(98.822021%,81.959534%,8.627319%);fill-opacity:1;" d="M 522.925781 73.550781 L 491.371094 50.628906 L 502.832031 34.855469 Z M 522.925781 73.550781 "/>
<path style=" stroke:none;fill-rule:evenodd;fill:rgb(98.822021%,81.959534%,8.627319%);fill-opacity:1;" d="M 477.074219 73.550781 L 508.628906 50.628906 L 497.167969 34.855469 Z M 477.074219 73.550781 "/>
<path style=" stroke:none;fill-rule:evenodd;fill:rgb(98.822021%,81.959534%,8.627319%);fill-opacity:1;" d="M 477.074219 73.550781 L 489.128906 36.457031 L 507.675781 42.488281 Z M 477.074219 73.550781 "/>
<path style=" stroke:none;fill-rule:evenodd;fill:rgb(98.822021%,81.959534%,8.627319%);fill-opacity:1;" d="M 462.90625 29.949219 L 494.457031 52.871094 L 505.925781 37.09375 Z M 462.90625 29.949219 "/>
<path style=" stroke:none;fill-rule:evenodd;fill:rgb(98.822021%,81.959534%,8.627319%);fill-opacity:1;" d="M 462.90625 29.949219 L 501.914062 29.949219 L 501.914062 49.445312 Z M 462.90625 29.949219 "/>
<path style=" stroke:none;fill-rule:evenodd;fill:rgb(98.822021%,81.959534%,8.627319%);fill-opacity:1;" d="M 700 3.003906 L 687.949219 40.085938 L 706.492188 46.117188 Z M 700 3.003906 "/>
<path style=" stroke:none;fill-rule:evenodd;fill:rgb(98.822021%,81.959534%,8.627319%);fill-opacity:1;" d="M 700 3.003906 L 712.050781 40.085938 L 693.507812 46.117188 Z M 700 3.003906 "/>
<path style=" stroke:none;fill-rule:evenodd;fill:rgb(98.822021%,81.959534%,8.627319%);fill-opacity:1;" d="M 737.09375 29.949219 L 698.085938 29.949219 L 698.085938 49.445312 Z M 737.09375 29.949219 "/>
<path style=" stroke:none;fill-rule:evenodd;fill:rgb(98.822021%,81.959534%,8.627319%);fill-opacity:1;" d="M 737.09375 29.949219 L 705.542969 52.871094 L 694.074219 37.09375 Z M 737.09375 29.949219 "/>
<path style=" stroke:none;fill-rule:evenodd;fill:rgb(98.822021%,81.959534%,8.627319%);fill-opacity:1;" d="M 722.925781 73.550781 L 710.871094 36.457031 L 692.324219 42.488281 Z M 722.925781 73.550781 "/>
<path style=" stroke:none;fill-rule:evenodd;fill:rgb(98.822021%,81.959534%,8.627319%);fill-opacity:1;" d="M 722.925781 73.550781 L 691.371094 50.628906 L 702.832031 34.855469 Z M 722.925781 73.550781 "/>
<path style=" stroke:none;fill-rule:evenodd;fill:rgb(98.822021%,81.959534%,8.627319%);fill-opacity:1;" d="M 677.074219 73.550781 L 708.628906 50.628906 L 697.167969 34.855469 Z M 677.074219 73.550781 "/>
<path style=" stroke:none;fill-rule:evenodd;fill:rgb(98.822021%,81.959534%,8.627319%);fill-opacity:1;" d="M 677.074219 73.550781 L 689.128906 36.457031 L 707.675781 42.488281 Z M 677.074219 73.550781 "/>
<path style=" stroke:none;fill-rule:evenodd;fill:rgb(98.822021%,81.959534%,8.627319%);fill-opacity:1;" d="M 662.90625 29.949219 L 694.457031 52.871094 L 705.925781 37.09375 Z M 662.90625 29.949219 "/>
<path style=" stroke:none;fill-rule:evenodd;fill:rgb(98.822021%,81.959534%,8.627319%);fill-opacity:1;" d="M 662.90625 29.949219 L 701.914062 29.949219 L 701.914062 49.445312 Z M 662.90625 29.949219 "/>
<path style=" stroke:none;fill-rule:evenodd;fill:rgb(98.822021%,81.959534%,8.627319%);fill-opacity:1;" d="M 300 519.003906 L 287.949219 556.085938 L 306.492188 562.117188 Z M 300 519.003906 "/>
<path style=" stroke:none;fill-rule:evenodd;fill:rgb(98.822021%,81.959534%,8.627319%);fill-opacity:1;" d="M 300 519.003906 L 312.050781 556.085938 L 293.507812 562.117188 Z M 300 519.003906 "/>
<path style=" stroke:none;fill-rule:evenodd;fill:rgb(98.822021%,81.959534%,8.627319%);fill-opacity:1;" d="M 337.09375 545.949219 L 298.085938 545.949219 L 298.085938 565.445312 Z M 337.09375 545.949219 "/>
<path style=" stroke:none;fill-rule:evenodd;fill:rgb(98.822021%,81.959534%,8.627319%);fill-opacity:1;" d="M 337.09375 545.949219 L 305.542969 568.871094 L 294.074219 553.089844 Z M 337.09375 545.949219 "/>
<path style=" stroke:none;fill-rule:evenodd;fill:rgb(98.822021%,81.959534%,8.627319%);fill-opacity:1;" d="M 322.925781 589.550781 L 310.871094 552.457031 L 292.324219 558.488281 Z M 322.925781 589.550781 "/>
<path style=" stroke:none;fill-rule:evenodd;fill:rgb(98.822021%,81.959534%,8.627319%);fill-opacity:1;" d="M 322.925781 589.550781 L 291.371094 566.625 L 302.832031 550.855469 Z M 322.925781 589.550781 "/>
<path style=" stroke:none;fill-rule:evenodd;fill:rgb(98.822021%,81.959534%,8.627319%);fill-opacity:1;" d="M 277.074219 589.550781 L 308.628906 566.625 L 297.167969 550.855469 Z M 277.074219 589.550781 "/>
<path style=" stroke:none;fill-rule:evenodd;fill:rgb(98.822021%,81.959534%,8.627319%);fill-opacity:1;" d="M 277.074219 589.550781 L 289.128906 552.457031 L 307.675781 558.488281 Z M 277.074219 589.550781 "/>
<path style=" stroke:none;fill-rule:evenodd;fill:rgb(98.822021%,81.959534%,8.627319%);fill-opacity:1;" d="M 262.90625 545.949219 L 294.457031 568.871094 L 305.925781 553.089844 Z M 262.90625 545.949219 "/>
<path style=" stroke:none;fill-rule:evenodd;fill:rgb(98.822021%,81.959534%,8.627319%);fill-opacity:1;" d="M 262.90625 545.949219 L 301.914062 545.949219 L 301.914062 565.445312 Z M 262.90625 545.949219 "/>
<path style=" stroke:none;fill-rule:evenodd;fill:rgb(98.822021%,81.959534%,8.627319%);fill-opacity:1;" d="M 500 519.003906 L 487.949219 556.085938 L 506.492188 562.117188 Z M 500 519.003906 "/>
<path style=" stroke:none;fill-rule:evenodd;fill:rgb(98.822021%,81.959534%,8.627319%);fill-opacity:1;" d="M 500 519.003906 L 512.050781 556.085938 L 493.507812 562.117188 Z M 500 519.003906 "/>
<path style=" stroke:none;fill-rule:evenodd;fill:rgb(98.822021%,81.959534%,8.627319%);fill-opacity:1;" d="M 537.09375 545.949219 L 498.085938 545.949219 L 498.085938 565.445312 Z M 537.09375 545.949219 "/>
<path style=" stroke:none;fill-rule:evenodd;fill:rgb(98.822021%,81.959534%,8.627319%);fill-opacity:1;" d="M 537.09375 545.949219 L 505.542969 568.871094 L 494.074219 553.089844 Z M 537.09375 545.949219 "/>
<path style=" stroke:none;fill-rule:evenodd;fill:rgb(98.822021%,81.959534%,8.627319%);fill-opacity:1;" d="M 522.925781 589.550781 L 510.871094 552.457031 L 492.324219 558.488281 Z M 522.925781 589.550781 "/>
<path style=" stroke:none;fill-rule:evenodd;fill:rgb(98.822021%,81.959534%,8.627319%);fill-opacity:1;" d="M 522.925781 589.550781 L 491.371094 566.625 L 502.832031 550.855469 Z M 522.925781 589.550781 "/>
<path style=" stroke:none;fill-rule:evenodd;fill:rgb(98.822021%,81.959534%,8.627319%);fill-opacity:1;" d="M 477.074219 589.550781 L 508.628906 566.625 L 497.167969 550.855469 Z M 477.074219 589.550781 "/>
<path style=" stroke:none;fill-rule:evenodd;fill:rgb(98.822021%,81.959534%,8.627319%);fill-opacity:1;" d="M 477.074219 589.550781 L 489.128906 552.457031 L 507.675781 558.488281 Z M 477.074219 589.550781 "/>
<path style=" stroke:none;fill-rule:evenodd;fill:rgb(98.822021%,81.959534%,8.627319%);fill-opacity:1;" d="M 462.90625 545.949219 L 494.457031 568.871094 L 505.925781 553.089844 Z M 462.90625 545.949219 "/>
<path style=" stroke:none;fill-rule:evenodd;fill:rgb(98.822021%,81.959534%,8.627319%);fill-opacity:1;" d="M 462.90625 545.949219 L 501.914062 545.949219 L 501.914062 565.445312 Z M 462.90625 545.949219 "/>
<path style=" stroke:none;fill-rule:evenodd;fill:rgb(98.822021%,81.959534%,8.627319%);fill-opacity:1;" d="M 700 519.003906 L 687.949219 556.085938 L 706.492188 562.117188 Z M 700 519.003906 "/>
<path style=" stroke:none;fill-rule:evenodd;fill:rgb(98.822021%,81.959534%,8.627319%);fill-opacity:1;" d="M 700 519.003906 L 712.050781 556.085938 L 693.507812 562.117188 Z M 700 519.003906 "/>
<path style=" stroke:none;fill-rule:evenodd;fill:rgb(98.822021%,81.959534%,8.627319%);fill-opacity:1;" d="M 737.09375 545.949219 L 698.085938 545.949219 L 698.085938 565.445312 Z M 737.09375 545.949219 "/>
<path style=" stroke:none;fill-rule:evenodd;fill:rgb(98.822021%,81.959534%,8.627319%);fill-opacity:1;" d="M 737.09375 545.949219 L 705.542969 568.871094 L 694.074219 553.089844 Z M 737.09375 545.949219 "/>
<path style=" stroke:none;fill-rule:evenodd;fill:rgb(98.822021%,81.959534%,8.627319%);fill-opacity:1;" d="M 722.925781 589.550781 L 710.871094 552.457031 L 692.324219 558.488281 Z M 722.925781 589.550781 "/>
<path style=" stroke:none;fill-rule:evenodd;fill:rgb(98.822021%,81.959534%,8.627319%);fill-opacity:1;" d="M 722.925781 589.550781 L 691.371094 566.625 L 702.832031 550.855469 Z M 722.925781 589.550781 "/>
<path style=" stroke:none;fill-rule:evenodd;fill:rgb(98.822021%,81.959534%,8.627319%);fill-opacity:1;" d="M 677.074219 589.550781 L 708.628906 566.625 L 697.167969 550.855469 Z M 677.074219 589.550781 "/>
<path style=" stroke:none;fill-rule:evenodd;fill:rgb(98.822021%,81.959534%,8.627319%);fill-opacity:1;" d="M 677.074219 589.550781 L 689.128906 552.457031 L 707.675781 558.488281 Z M 677.074219 589.550781 "/>
<path style=" stroke:none;fill-rule:evenodd;fill:rgb(98.822021%,81.959534%,8.627319%);fill-opacity:1;" d="M 662.90625 545.949219 L 694.457031 568.871094 L 705.925781 553.089844 Z M 662.90625 545.949219 "/>
<path style=" stroke:none;fill-rule:evenodd;fill:rgb(98.822021%,81.959534%,8.627319%);fill-opacity:1;" d="M 662.90625 545.949219 L 701.914062 545.949219 L 701.914062 565.445312 Z M 662.90625 545.949219 "/>
<path style=" stroke:none;fill-rule:evenodd;fill:rgb(80.783081%,6.666565%,14.901733%);fill-opacity:1;" d="M 135.496094 300.824219 C 144.507812 317.601562 162.027344 335.855469 177.328125 342.277344 C 177.578125 325.234375 171.535156 303.402344 163.265625 286.003906 Z M 135.496094 300.824219 "/>
<path style=" stroke:none;fill-rule:evenodd;fill:rgb(98.822021%,81.959534%,8.627319%);fill-opacity:1;" d="M 120.222656 243.261719 C 133.285156 270.484375 86.359375 335.417969 164.535156 350.644531 C 154.890625 337.484375 148.671875 315.761719 151.023438 298.324219 C 167.429688 304.558594 184.683594 322.820312 191.660156 336.785156 C 212.117188 262.484375 139.175781 267 120.222656 243.261719 Z M 120.222656 243.261719 "/>
</g>
</svg>
