<?xml version="1.0" encoding="UTF-8"?>
<svg xmlns="http://www.w3.org/2000/svg" xmlns:xlink="http://www.w3.org/1999/xlink" viewBox="0 0 1000 537" version="1.1">
<defs>
<clipPath id="clip1">
  <path d="M 0 0 L 1000 0 L 1000 536.640625 L 0 536.640625 Z M 0 0 "/>
</clipPath>
</defs>
<g id="surface520">
<g clip-path="url(#clip1)" clip-rule="nonzero">
<path style=" stroke:none;fill-rule:evenodd;fill:rgb(77.645874%,12.940979%,22.3526%);fill-opacity:1;" d="M 0 536.585938 L 0 0 L 1000 0 L 1000 536.585938 Z M 0 536.585938 "/>
</g>
<path style=" stroke:none;fill-rule:evenodd;fill:rgb(0%,16.078186%,48.234558%);fill-opacity:1;" d="M 24.390625 24.390625 L 975.609375 24.390625 L 975.609375 512.195312 L 24.390625 512.195312 Z M 24.390625 24.390625 "/>
<path style=" stroke:none;fill-rule:evenodd;fill:rgb(77.645874%,12.940979%,22.3526%);fill-opacity:1;" d="M 500.316406 121.953125 C 500.316406 121.953125 402.4375 188.671875 402.4375 267.347656 C 402.4375 346.023438 500.316406 414.632812 500.316406 414.632812 C 500.316406 414.632812 597.5625 351.6875 597.5625 267.347656 C 597.5625 183.011719 500.316406 121.953125 500.316406 121.953125 Z M 500.316406 121.953125 "/>
<path style=" stroke:none;fill-rule:evenodd;fill:rgb(39.99939%,68.626404%,92.155457%);fill-opacity:1;" d="M 582.835938 293.367188 C 584.980469 284.996094 586.199219 276.308594 586.199219 267.347656 C 586.199219 191.816406 500.316406 135.800781 500.316406 135.800781 C 500.316406 135.800781 413.175781 193.710938 413.175781 267.347656 C 413.175781 276.1875 414.414062 284.804688 416.605469 293.148438 Z M 582.835938 293.367188 "/>
<path style=" stroke:none;fill-rule:evenodd;fill:rgb(0%,48.234558%,87.057495%);fill-opacity:1;" d="M 499.601562 400.152344 C 499.601562 400.152344 566.960938 355.546875 582.804688 293.148438 L 416.539062 293.148438 C 432.625 354.34375 499.601562 400.152344 499.601562 400.152344 Z M 499.601562 400.152344 "/>
<path style=" stroke:none;fill-rule:evenodd;fill:rgb(61.175537%,51.763916%,19.215393%);fill-opacity:1;" d="M 585.777344 276.160156 C 571.042969 286.65625 488.109375 281.617188 488.109375 281.617188 L 483.476562 293.367188 L 582.824219 293.367188 C 583.238281 291.753906 583.617188 290.144531 583.960938 288.515625 Z M 585.777344 276.160156 "/>
<path style=" stroke:none;fill-rule:evenodd;fill:rgb(99.998474%,94.508362%,0%);fill-opacity:1;" d="M 495.210938 350.429688 C 493.949219 341.640625 455.160156 332.226562 434.582031 333 C 441.007812 343.082031 448.289062 352.304688 455.613281 360.511719 C 466.070312 349.289062 495.628906 353.335938 495.210938 350.429688 Z M 495.210938 350.429688 "/>
<path style=" stroke:none;fill-rule:evenodd;fill:rgb(99.998474%,94.508362%,0%);fill-opacity:1;" d="M 573.722656 317.746094 C 568.792969 317.917969 559.851562 318.703125 553.722656 321.894531 C 544.886719 326.511719 525.097656 331.554688 516.257812 329.03125 C 507.417969 326.511719 493.519531 334.484375 495.210938 336.160156 C 498.015625 338.960938 518.359375 335.742188 518.359375 353.789062 C 518.359375 368.890625 494.796875 362.1875 485.53125 368.480469 C 479.945312 372.261719 476.050781 376.367188 473.835938 379.015625 C 488.304688 392.398438 499.632812 400.152344 499.632812 400.152344 C 499.632812 400.152344 526.484375 382.367188 550.265625 353.570312 L 561.445312 338.722656 C 565.960938 332.125 570.132812 325.117188 573.722656 317.746094 Z M 573.722656 317.746094 "/>
<path style=" stroke:none;fill-rule:evenodd;fill:rgb(0%,0%,0%);fill-opacity:1;" d="M 469.070312 275.222656 L 472.640625 275.222656 L 472.640625 313.613281 L 469.070312 313.613281 Z M 469.070312 275.222656 "/>
<path style=" stroke:none;fill-rule:evenodd;fill:rgb(48.234558%,28.234863%,0%);fill-opacity:1;" d="M 480.660156 320.855469 C 480.660156 320.855469 479.195312 321.109375 476.871094 321.410156 L 476.871094 318.414062 L 474.5 318.414062 L 474.5 321.664062 C 472.078125 321.910156 469.136719 322.109375 466.058594 322.109375 C 462.785156 322.109375 459.480469 321.871094 456.757812 321.59375 L 456.757812 318.492188 L 454.144531 318.492188 L 454.144531 321.300781 C 451.890625 321.015625 450.433594 320.769531 450.433594 320.769531 C 450.433594 320.769531 449.726562 324.707031 465.828125 324.707031 C 481.929688 324.707031 480.664062 320.855469 480.664062 320.855469 Z M 480.660156 320.855469 "/>
<path style=" stroke:none;fill-rule:evenodd;fill:rgb(0%,57.254028%,43.920898%);fill-opacity:1;" d="M 494.953125 201.421875 C 494.953125 201.421875 481.527344 193.554688 463.21875 197.324219 C 444.90625 201.101562 440.953125 212.582031 440.953125 212.582031 L 447.109375 209.757812 L 447.265625 212.269531 L 452.796875 208.8125 L 452.953125 211.332031 L 457.691406 206.929688 L 458.464844 209.757812 L 462.730469 205.976562 L 463.050781 208.027344 L 469.992188 203.617188 L 469.992188 206.453125 L 475.519531 203.929688 L 475.050781 206.609375 L 485.472656 204.726562 C 485.472656 204.726562 460.839844 212.902344 457.691406 232.570312 L 462.421875 226.917969 L 462.894531 229.582031 L 465.890625 223.609375 L 466.683594 225.964844 L 469.363281 220.457031 L 470.148438 223.757812 L 474.25 217.777344 L 474.574219 221.25 L 479.300781 214.796875 L 479.300781 217.929688 L 484.355469 212.425781 L 484.203125 216.527344 C 484.203125 216.527344 489.097656 212.425781 490.664062 212.425781 L 484.828125 219.984375 L 486.726562 220.613281 C 486.726562 220.613281 482.617188 223.917969 482.304688 224.542969 C 481.992188 225.167969 484.992188 224.542969 484.992188 224.542969 C 484.992188 224.542969 481.355469 228.3125 481.203125 229.421875 C 481.039062 230.527344 483.566406 229.421875 483.566406 229.421875 C 483.566406 229.421875 480.25 233.667969 479.777344 235.25 C 479.300781 236.820312 481.511719 235.558594 481.511719 235.558594 C 481.511719 235.558594 479.46875 240.597656 479.300781 242.007812 C 479.144531 243.414062 481.671875 241.6875 481.671875 241.6875 L 483.09375 250.347656 L 485.617188 239.972656 L 487.199219 242.332031 L 487.199219 234.929688 L 488.613281 236.1875 L 488.460938 231.320312 L 490.347656 233.203125 L 489.40625 227.222656 L 491.457031 229.570312 L 491.140625 224.542969 L 493.1875 226.597656 L 493.1875 219.984375 L 495.085938 221.703125 L 495.394531 217.152344 L 497.613281 218.25 C 497.613281 218.25 497.929688 212.746094 500.457031 212.902344 C 502.976562 213.046875 506.132812 215.730469 504.871094 216.980469 L 507.085938 216.367188 L 506.609375 221.703125 L 508.660156 220.445312 L 508.347656 224.382812 L 510.082031 223.597656 L 509.449219 228.625 L 511.503906 227.382812 L 511.652344 233.5 L 514.015625 231.785156 L 513.855469 239.007812 L 516.226562 237.132812 L 516.226562 243.105469 L 518.441406 241.542969 L 520.8125 247.363281 L 520.335938 238.703125 L 522.074219 240.117188 L 518.910156 233.988281 L 521.28125 233.667969 L 518.75 229.570312 L 521.121094 229.742188 L 517.65625 225.644531 L 520.015625 225.179688 L 514.804688 221.398438 L 517.648438 220.304688 L 512.277344 216.839844 L 514.332031 216.046875 L 510.550781 212.117188 L 514.492188 213.6875 L 515.75 211.167969 L 520.484375 214.957031 L 520.484375 211.167969 L 524.585938 216.839844 L 525.0625 213.367188 L 528.226562 217.777344 L 528.851562 215.742188 L 531.066406 220.136719 L 532.160156 216.851562 L 534.371094 221.566406 L 535 218.25 L 537.054688 223.449219 L 538.949219 221.398438 L 539.902344 226.753906 L 541.785156 224.703125 L 543.515625 229.421875 L 545.726562 227.695312 L 547.625 233.046875 C 547.625 233.046875 552.828125 204.40625 508.160156 203.929688 L 494.902344 201.421875 Z M 494.953125 201.421875 "/>
<path style=" stroke:none;fill-rule:evenodd;fill:rgb(0%,57.254028%,43.920898%);fill-opacity:1;" d="M 474.429688 175.921875 L 476.949219 179.0625 L 475.6875 180.015625 L 479.953125 182.378906 L 479.003906 184.101562 L 483.265625 185.679688 L 481.683594 186.941406 L 485.476562 189.132812 L 482.953125 189.929688 L 487.523438 192.125 L 486.898438 194.164062 L 490.839844 195.117188 L 489.109375 196.527344 L 493.679688 200.160156 L 498.890625 203.769531 L 502.523438 202.519531 L 501.101562 195.582031 C 501.101562 195.582031 486.109375 175.125 474.429688 175.910156 Z M 474.429688 175.921875 "/>
<path style=" stroke:none;fill-rule:evenodd;fill:rgb(0%,57.254028%,43.920898%);fill-opacity:1;" d="M 488.160156 156.101562 L 489.902344 160.179688 L 487.523438 160.65625 L 492.894531 166.007812 L 488.632812 166.164062 L 493.84375 170.25 L 491.3125 171.046875 L 496.058594 175.769531 L 493.519531 177.019531 L 498.417969 181.894531 L 495.105469 183.152344 L 500.636719 188.191406 L 497.476562 188.355469 L 500.785156 192.589844 L 497.792969 193.542969 C 497.792969 193.542969 501.417969 200.300781 501.257812 203.144531 L 507.414062 203.445312 C 507.414062 203.445312 508.359375 185.195312 507.574219 182.835938 L 505.992188 183.9375 L 506.460938 177.328125 L 504.097656 178.753906 L 503.632812 170.886719 L 501.257812 173.398438 L 500.636719 165.6875 L 498.890625 168.367188 L 497.152344 160.8125 L 495.265625 163.167969 L 493.519531 158.296875 L 492.105469 160.179688 L 488.160156 156.089844 Z M 488.160156 156.101562 "/>
<path style=" stroke:none;fill-rule:evenodd;fill:rgb(0%,57.254028%,43.920898%);fill-opacity:1;" d="M 504.101562 202.046875 C 505.839844 191.03125 517.371094 174.984375 538.996094 174.351562 L 534.097656 176.871094 L 536.941406 178.128906 L 531.257812 180.179688 L 534.097656 181.894531 L 527.3125 182.378906 L 530.777344 184.738281 L 525.734375 185.367188 L 521.78125 186.152344 L 524.621094 188.820312 L 518.9375 189.445312 L 522.574219 191.339844 C 522.574219 191.339844 513.578125 194.484375 512.945312 195.4375 C 512.945312 195.4375 543.261719 187.726562 550.679688 202.035156 L 544.832031 199.515625 L 545.308594 202.195312 L 541.207031 199.207031 L 541.832031 201.410156 L 537.574219 199.207031 L 538.203125 201.875 L 533.78125 199.355469 L 534.726562 201.730469 L 529.046875 199.050781 L 529.992188 201.566406 L 525.097656 199.992188 L 525.582031 202.660156 L 520.679688 202.355469 L 521.15625 205.5 L 505.996094 205.179688 L 504.101562 202.035156 Z M 504.101562 202.046875 "/>
<path style=" stroke:none;fill-rule:evenodd;fill:rgb(48.234558%,28.234863%,0%);fill-opacity:1;" d="M 499.46875 211.539062 L 502.632812 211.332031 C 501.15625 241.335938 502.542969 284.363281 506.628906 300.292969 C 513.5625 327.34375 533.804688 337.769531 538.617188 340.359375 C 541.347656 341.820312 540.300781 347.910156 534.824219 347.496094 C 529.355469 347.074219 510.265625 333.015625 503.671875 307.835938 C 494.84375 274.054688 499.132812 215.050781 499.46875 211.539062 Z M 499.46875 211.539062 "/>
<path style=" stroke:none;fill-rule:evenodd;fill:rgb(77.645874%,12.940979%,22.3526%);fill-opacity:1;" d="M 457.28125 257.515625 L 453.535156 257.515625 C 453.242188 255.902344 452.542969 254.769531 451.421875 254.144531 C 450.792969 253.785156 450.101562 253.613281 449.339844 253.613281 C 447.859375 253.613281 446.664062 254.316406 445.722656 255.757812 C 444.769531 257.179688 444.300781 259.34375 444.300781 262.207031 C 444.300781 265.105469 444.8125 267.148438 445.835938 268.371094 C 446.855469 269.5625 448.015625 270.164062 449.320312 270.164062 C 450.601562 270.164062 451.640625 269.691406 452.464844 268.734375 C 453.273438 267.792969 453.773438 266.535156 453.972656 264.980469 L 449.75 264.980469 L 449.75 261.0625 L 457.339844 261.0625 L 457.339844 273.6875 L 454.820312 273.6875 L 454.433594 270.746094 C 453.703125 271.871094 453.046875 272.65625 452.464844 273.121094 C 451.457031 273.917969 450.21875 274.320312 448.753906 274.320312 C 446.34375 274.320312 444.359375 273.234375 442.824219 271.066406 C 441.222656 268.90625 440.410156 265.933594 440.410156 262.171875 C 440.410156 258.359375 441.226562 255.300781 442.855469 253 C 444.464844 250.703125 446.609375 249.558594 449.285156 249.558594 C 451.601562 249.558594 453.457031 250.320312 454.863281 251.832031 C 456.265625 253.347656 457.078125 255.242188 457.28125 257.515625 Z M 457.28125 257.515625 "/>
<path style=" stroke:none;fill-rule:evenodd;fill:rgb(77.645874%,12.940979%,22.3526%);fill-opacity:1;" d="M 475.109375 264.632812 L 475.109375 250.160156 L 478.972656 250.160156 L 478.972656 264.632812 C 478.972656 266.242188 479.128906 267.417969 479.421875 268.167969 C 479.886719 269.484375 480.886719 270.152344 482.4375 270.152344 C 483.976562 270.152344 484.976562 269.484375 485.441406 268.167969 C 485.742188 267.417969 485.875 266.242188 485.875 264.632812 L 485.875 250.160156 L 489.75 250.160156 L 489.75 264.632812 C 489.75 267.125 489.449219 269.066406 488.855469 270.472656 C 487.726562 273.015625 485.589844 274.289062 482.433594 274.289062 C 479.277344 274.289062 477.132812 273.027344 476.007812 270.472656 C 475.40625 269.078125 475.109375 267.125 475.109375 264.632812 Z M 475.109375 264.632812 "/>
<path style=" stroke:none;fill-rule:evenodd;fill:rgb(77.645874%,12.940979%,22.3526%);fill-opacity:1;" d="M 516.007812 250.15625 L 509.492188 273.707031 L 513.492188 273.707031 L 514.75 268.863281 L 521.453125 268.863281 L 522.640625 273.707031 L 526.753906 273.707031 L 520.277344 250.15625 Z M 518.101562 255.527344 L 520.390625 264.785156 L 515.78125 264.785156 Z M 518.101562 255.527344 "/>
<path style=" stroke:none;fill-rule:evenodd;fill:rgb(77.645874%,12.940979%,22.3526%);fill-opacity:1;" d="M 550.796875 268.65625 L 554.085938 250.160156 L 559.558594 250.160156 L 559.558594 273.6875 L 556.015625 273.6875 L 556.015625 257.78125 C 556.015625 257.320312 556.019531 256.675781 556.027344 255.855469 C 556.035156 255.027344 556.046875 254.390625 556.046875 253.949219 L 552.589844 273.6875 L 548.894531 273.6875 L 545.46875 253.949219 C 545.46875 254.390625 545.480469 255.027344 545.488281 255.855469 C 545.492188 256.675781 545.5 257.320312 545.5 257.78125 L 545.5 273.6875 L 541.957031 273.6875 L 541.957031 250.160156 L 547.488281 250.160156 Z M 550.796875 268.65625 "/>
<path style=" stroke:none;fill-rule:evenodd;fill:rgb(48.234558%,28.234863%,0%);fill-opacity:1;" d="M 465.375 313.5 C 478.425781 313.5 489.371094 311.410156 489.371094 311.410156 C 489.371094 311.410156 491.050781 319.792969 465.375 319.792969 C 439.691406 319.792969 441.796875 312.671875 441.796875 312.671875 C 441.796875 312.671875 452.328125 313.5 465.375 313.5 Z M 465.375 313.5 "/>
<path style=" stroke:none;fill-rule:evenodd;fill:rgb(99.998474%,99.998474%,99.998474%);fill-opacity:1;" d="M 454.421875 277.414062 C 454.421875 277.414062 474.625 284.972656 482.628906 311.410156 C 482.628906 311.410156 464.109375 307.640625 453.582031 311.832031 L 447.6875 311.832031 C 447.6875 311.820312 457.792969 297.144531 454.421875 277.414062 Z M 454.421875 277.414062 "/>
<path style=" stroke:none;fill-rule:evenodd;fill:rgb(48.234558%,28.234863%,0%);fill-opacity:1;" d="M 504.578125 201.476562 C 506.550781 201.476562 508.152344 203.070312 508.152344 205.035156 C 508.152344 207.007812 506.550781 208.597656 504.578125 208.597656 C 502.601562 208.597656 501.007812 207.007812 501.007812 205.035156 C 501.007812 203.070312 502.601562 201.476562 504.578125 201.476562 Z M 504.578125 201.476562 "/>
<path style=" stroke:none;fill-rule:evenodd;fill:rgb(48.234558%,28.234863%,0%);fill-opacity:1;" d="M 498.890625 200.4375 C 500.742188 200.4375 502.238281 201.929688 502.238281 203.769531 C 502.238281 205.613281 500.742188 207.113281 498.890625 207.113281 C 497.046875 207.113281 495.550781 205.613281 495.550781 203.769531 C 495.550781 201.929688 497.046875 200.4375 498.890625 200.4375 Z M 498.890625 200.4375 "/>
<path style=" stroke:none;fill-rule:evenodd;fill:rgb(48.234558%,28.234863%,0%);fill-opacity:1;" d="M 498.890625 206.488281 C 500.617188 206.488281 502.019531 207.871094 502.019531 209.597656 C 502.019531 211.320312 500.617188 212.71875 498.890625 212.71875 C 497.171875 212.71875 495.773438 211.320312 495.773438 209.597656 C 495.773438 207.871094 497.171875 206.488281 498.890625 206.488281 Z M 498.890625 206.488281 "/>
<path style=" stroke:none;fill-rule:evenodd;fill:rgb(48.234558%,28.234863%,0%);fill-opacity:1;" d="M 503.15625 204.691406 C 505.007812 204.691406 506.507812 206.179688 506.507812 208.027344 C 506.507812 209.871094 505.007812 211.355469 503.15625 211.355469 C 501.304688 211.355469 499.808594 209.871094 499.808594 208.027344 C 499.808594 206.179688 501.304688 204.691406 503.15625 204.691406 Z M 503.15625 204.691406 "/>
</g>
</svg>
