<?xml version="1.0" encoding="UTF-8"?>
<svg xmlns="http://www.w3.org/2000/svg" xmlns:xlink="http://www.w3.org/1999/xlink" viewBox="0 0 1000 500" version="1.1">
<g id="surface540">
<path style=" stroke:none;fill-rule:evenodd;fill:rgb(80.783081%,6.666565%,14.901733%);fill-opacity:1;" d="M 0 0 L 333.332031 0 L 333.332031 500 L 0 500 Z M 0 0 "/>
<path style=" stroke:none;fill-rule:evenodd;fill:rgb(98.822021%,81.959534%,8.627319%);fill-opacity:1;" d="M 333.332031 0 L 1000 0 L 1000 250 L 333.332031 250 Z M 333.332031 0 "/>
<path style=" stroke:none;fill-rule:evenodd;fill:rgb(0%,61.959839%,28.627014%);fill-opacity:1;" d="M 333.332031 250 L 1000 250 L 1000 500 L 333.332031 500 Z M 333.332031 250 "/>
<path style=" stroke:none;fill-rule:evenodd;fill:rgb(0%,0%,0%);fill-opacity:1;" d="M 166.667969 166.667969 L 140.914062 245.921875 L 180.542969 258.796875 Z M 166.667969 166.667969 "/>
<path style=" stroke:none;fill-rule:evenodd;fill:rgb(0%,0%,0%);fill-opacity:1;" d="M 166.667969 166.667969 L 192.417969 245.921875 L 152.792969 258.796875 Z M 166.667969 166.667969 "/>
<path style=" stroke:none;fill-rule:evenodd;fill:rgb(0%,0%,0%);fill-opacity:1;" d="M 245.921875 224.246094 L 162.589844 224.246094 L 162.589844 265.914062 Z M 245.921875 224.246094 "/>
<path style=" stroke:none;fill-rule:evenodd;fill:rgb(0%,0%,0%);fill-opacity:1;" d="M 245.921875 224.246094 L 178.503906 273.230469 L 154.011719 239.523438 Z M 245.921875 224.246094 "/>
<path style=" stroke:none;fill-rule:evenodd;fill:rgb(0%,0%,0%);fill-opacity:1;" d="M 215.648438 317.417969 L 189.898438 238.164062 L 150.269531 251.039062 Z M 215.648438 317.417969 "/>
<path style=" stroke:none;fill-rule:evenodd;fill:rgb(0%,0%,0%);fill-opacity:1;" d="M 215.648438 317.417969 L 148.230469 268.4375 L 172.722656 234.726562 Z M 215.648438 317.417969 "/>
<path style=" stroke:none;fill-rule:evenodd;fill:rgb(0%,0%,0%);fill-opacity:1;" d="M 117.683594 317.417969 L 185.101562 268.4375 L 160.613281 234.726562 Z M 117.683594 317.417969 "/>
<path style=" stroke:none;fill-rule:evenodd;fill:rgb(0%,0%,0%);fill-opacity:1;" d="M 117.683594 317.417969 L 143.4375 238.164062 L 183.066406 251.039062 Z M 117.683594 317.417969 "/>
<path style=" stroke:none;fill-rule:evenodd;fill:rgb(0%,0%,0%);fill-opacity:1;" d="M 87.410156 224.246094 L 154.832031 273.230469 L 179.320312 239.523438 Z M 87.410156 224.246094 "/>
<path style=" stroke:none;fill-rule:evenodd;fill:rgb(0%,0%,0%);fill-opacity:1;" d="M 87.410156 224.246094 L 170.742188 224.246094 L 170.742188 265.914062 Z M 87.410156 224.246094 "/>
</g>
</svg>
