<?xml version="1.0" encoding="UTF-8"?>
<svg xmlns="http://www.w3.org/2000/svg" xmlns:xlink="http://www.w3.org/1999/xlink" viewBox="0 0 1000 500" version="1.1">
<g id="surface555">
<rect x="0" y="0" width="1000" height="500" style="fill:rgb(0%,45.097351%,81.175232%);fill-opacity:1;stroke:none;"/>
<path style=" stroke:none;fill-rule:evenodd;fill:rgb(99.998474%,99.998474%,99.998474%);fill-opacity:1;" d="M 0 166.664062 L 1000 166.664062 L 1000 333.335938 L 0 333.335938 Z M 0 166.664062 "/>
<path style=" stroke:none;fill-rule:evenodd;fill:rgb(0%,45.097351%,81.175232%);fill-opacity:1;" d="M 500 222.222656 L 491.417969 248.640625 L 504.625 252.933594 Z M 500 222.222656 "/>
<path style=" stroke:none;fill-rule:evenodd;fill:rgb(0%,45.097351%,81.175232%);fill-opacity:1;" d="M 500 222.222656 L 508.582031 248.640625 L 495.375 252.933594 Z M 500 222.222656 "/>
<path style=" stroke:none;fill-rule:evenodd;fill:rgb(0%,45.097351%,81.175232%);fill-opacity:1;" d="M 526.417969 241.417969 L 498.640625 241.417969 L 498.640625 255.300781 Z M 526.417969 241.417969 "/>
<path style=" stroke:none;fill-rule:evenodd;fill:rgb(0%,45.097351%,81.175232%);fill-opacity:1;" d="M 526.417969 241.417969 L 503.945312 257.742188 L 495.78125 246.507812 Z M 526.417969 241.417969 "/>
<path style=" stroke:none;fill-rule:evenodd;fill:rgb(0%,45.097351%,81.175232%);fill-opacity:1;" d="M 473.582031 241.417969 L 496.054688 257.742188 L 504.21875 246.507812 Z M 473.582031 241.417969 "/>
<path style=" stroke:none;fill-rule:evenodd;fill:rgb(0%,45.097351%,81.175232%);fill-opacity:1;" d="M 473.582031 241.417969 L 501.359375 241.417969 L 501.359375 255.300781 Z M 473.582031 241.417969 "/>
<path style=" stroke:none;fill-rule:evenodd;fill:rgb(0%,45.097351%,81.175232%);fill-opacity:1;" d="M 516.328125 272.472656 L 507.742188 246.054688 L 494.535156 250.347656 Z M 516.328125 272.472656 "/>
<path style=" stroke:none;fill-rule:evenodd;fill:rgb(0%,45.097351%,81.175232%);fill-opacity:1;" d="M 516.328125 272.472656 L 493.851562 256.148438 L 502.015625 244.90625 Z M 516.328125 272.472656 "/>
<path style=" stroke:none;fill-rule:evenodd;fill:rgb(0%,45.097351%,81.175232%);fill-opacity:1;" d="M 483.671875 272.472656 L 506.148438 256.148438 L 497.984375 244.90625 Z M 483.671875 272.472656 "/>
<path style=" stroke:none;fill-rule:evenodd;fill:rgb(0%,45.097351%,81.175232%);fill-opacity:1;" d="M 483.671875 272.472656 L 492.257812 246.054688 L 505.464844 250.347656 Z M 483.671875 272.472656 "/>
<path style=" stroke:none;fill-rule:evenodd;fill:rgb(0%,45.097351%,81.175232%);fill-opacity:1;" d="M 638.886719 177.777344 L 630.300781 204.195312 L 643.515625 208.484375 Z M 638.886719 177.777344 "/>
<path style=" stroke:none;fill-rule:evenodd;fill:rgb(0%,45.097351%,81.175232%);fill-opacity:1;" d="M 638.886719 177.777344 L 647.472656 204.195312 L 634.261719 208.484375 Z M 638.886719 177.777344 "/>
<path style=" stroke:none;fill-rule:evenodd;fill:rgb(0%,45.097351%,81.175232%);fill-opacity:1;" d="M 665.308594 196.972656 L 637.527344 196.972656 L 637.527344 210.859375 Z M 665.308594 196.972656 "/>
<path style=" stroke:none;fill-rule:evenodd;fill:rgb(0%,45.097351%,81.175232%);fill-opacity:1;" d="M 665.308594 196.972656 L 642.832031 213.300781 L 634.671875 202.058594 Z M 665.308594 196.972656 "/>
<path style=" stroke:none;fill-rule:evenodd;fill:rgb(0%,45.097351%,81.175232%);fill-opacity:1;" d="M 612.472656 196.972656 L 634.941406 213.300781 L 643.105469 202.058594 Z M 612.472656 196.972656 "/>
<path style=" stroke:none;fill-rule:evenodd;fill:rgb(0%,45.097351%,81.175232%);fill-opacity:1;" d="M 612.472656 196.972656 L 640.25 196.972656 L 640.25 210.859375 Z M 612.472656 196.972656 "/>
<path style=" stroke:none;fill-rule:evenodd;fill:rgb(0%,45.097351%,81.175232%);fill-opacity:1;" d="M 655.214844 228.027344 L 646.632812 201.609375 L 633.421875 205.902344 Z M 655.214844 228.027344 "/>
<path style=" stroke:none;fill-rule:evenodd;fill:rgb(0%,45.097351%,81.175232%);fill-opacity:1;" d="M 655.214844 228.027344 L 632.742188 211.699219 L 640.910156 200.464844 Z M 655.214844 228.027344 "/>
<path style=" stroke:none;fill-rule:evenodd;fill:rgb(0%,45.097351%,81.175232%);fill-opacity:1;" d="M 622.5625 228.027344 L 645.035156 211.699219 L 636.871094 200.464844 Z M 622.5625 228.027344 "/>
<path style=" stroke:none;fill-rule:evenodd;fill:rgb(0%,45.097351%,81.175232%);fill-opacity:1;" d="M 622.5625 228.027344 L 631.148438 201.609375 L 644.355469 205.902344 Z M 622.5625 228.027344 "/>
<path style=" stroke:none;fill-rule:evenodd;fill:rgb(0%,45.097351%,81.175232%);fill-opacity:1;" d="M 638.886719 261.113281 L 630.300781 287.527344 L 643.515625 291.820312 Z M 638.886719 261.113281 "/>
<path style=" stroke:none;fill-rule:evenodd;fill:rgb(0%,45.097351%,81.175232%);fill-opacity:1;" d="M 638.886719 261.113281 L 647.472656 287.527344 L 634.261719 291.820312 Z M 638.886719 261.113281 "/>
<path style=" stroke:none;fill-rule:evenodd;fill:rgb(0%,45.097351%,81.175232%);fill-opacity:1;" d="M 665.308594 280.300781 L 637.527344 280.300781 L 637.527344 294.195312 Z M 665.308594 280.300781 "/>
<path style=" stroke:none;fill-rule:evenodd;fill:rgb(0%,45.097351%,81.175232%);fill-opacity:1;" d="M 665.308594 280.300781 L 642.832031 296.632812 L 634.671875 285.394531 Z M 665.308594 280.300781 "/>
<path style=" stroke:none;fill-rule:evenodd;fill:rgb(0%,45.097351%,81.175232%);fill-opacity:1;" d="M 612.472656 280.300781 L 634.941406 296.632812 L 643.105469 285.394531 Z M 612.472656 280.300781 "/>
<path style=" stroke:none;fill-rule:evenodd;fill:rgb(0%,45.097351%,81.175232%);fill-opacity:1;" d="M 612.472656 280.300781 L 640.25 280.300781 L 640.25 294.195312 Z M 612.472656 280.300781 "/>
<path style=" stroke:none;fill-rule:evenodd;fill:rgb(0%,45.097351%,81.175232%);fill-opacity:1;" d="M 655.214844 311.363281 L 646.632812 284.941406 L 633.421875 289.234375 Z M 655.214844 311.363281 "/>
<path style=" stroke:none;fill-rule:evenodd;fill:rgb(0%,45.097351%,81.175232%);fill-opacity:1;" d="M 655.214844 311.363281 L 632.742188 295.035156 L 640.910156 283.796875 Z M 655.214844 311.363281 "/>
<path style=" stroke:none;fill-rule:evenodd;fill:rgb(0%,45.097351%,81.175232%);fill-opacity:1;" d="M 622.5625 311.363281 L 645.035156 295.035156 L 636.871094 283.796875 Z M 622.5625 311.363281 "/>
<path style=" stroke:none;fill-rule:evenodd;fill:rgb(0%,45.097351%,81.175232%);fill-opacity:1;" d="M 622.5625 311.363281 L 631.148438 284.941406 L 644.355469 289.234375 Z M 622.5625 311.363281 "/>
<path style=" stroke:none;fill-rule:evenodd;fill:rgb(0%,45.097351%,81.175232%);fill-opacity:1;" d="M 361.113281 177.777344 L 352.527344 204.195312 L 365.738281 208.484375 Z M 361.113281 177.777344 "/>
<path style=" stroke:none;fill-rule:evenodd;fill:rgb(0%,45.097351%,81.175232%);fill-opacity:1;" d="M 361.113281 177.777344 L 369.699219 204.195312 L 356.484375 208.484375 Z M 361.113281 177.777344 "/>
<path style=" stroke:none;fill-rule:evenodd;fill:rgb(0%,45.097351%,81.175232%);fill-opacity:1;" d="M 387.527344 196.972656 L 359.75 196.972656 L 359.75 210.859375 Z M 387.527344 196.972656 "/>
<path style=" stroke:none;fill-rule:evenodd;fill:rgb(0%,45.097351%,81.175232%);fill-opacity:1;" d="M 387.527344 196.972656 L 365.058594 213.300781 L 356.894531 202.058594 Z M 387.527344 196.972656 "/>
<path style=" stroke:none;fill-rule:evenodd;fill:rgb(0%,45.097351%,81.175232%);fill-opacity:1;" d="M 334.691406 196.972656 L 357.167969 213.300781 L 365.328125 202.058594 Z M 334.691406 196.972656 "/>
<path style=" stroke:none;fill-rule:evenodd;fill:rgb(0%,45.097351%,81.175232%);fill-opacity:1;" d="M 334.691406 196.972656 L 362.472656 196.972656 L 362.472656 210.859375 Z M 334.691406 196.972656 "/>
<path style=" stroke:none;fill-rule:evenodd;fill:rgb(0%,45.097351%,81.175232%);fill-opacity:1;" d="M 377.4375 228.027344 L 368.851562 201.609375 L 355.644531 205.902344 Z M 377.4375 228.027344 "/>
<path style=" stroke:none;fill-rule:evenodd;fill:rgb(0%,45.097351%,81.175232%);fill-opacity:1;" d="M 377.4375 228.027344 L 354.964844 211.699219 L 363.128906 200.464844 Z M 377.4375 228.027344 "/>
<path style=" stroke:none;fill-rule:evenodd;fill:rgb(0%,45.097351%,81.175232%);fill-opacity:1;" d="M 344.785156 228.027344 L 367.257812 211.699219 L 359.089844 200.464844 Z M 344.785156 228.027344 "/>
<path style=" stroke:none;fill-rule:evenodd;fill:rgb(0%,45.097351%,81.175232%);fill-opacity:1;" d="M 344.785156 228.027344 L 353.367188 201.609375 L 366.578125 205.902344 Z M 344.785156 228.027344 "/>
<path style=" stroke:none;fill-rule:evenodd;fill:rgb(0%,45.097351%,81.175232%);fill-opacity:1;" d="M 361.113281 261.113281 L 352.527344 287.527344 L 365.738281 291.820312 Z M 361.113281 261.113281 "/>
<path style=" stroke:none;fill-rule:evenodd;fill:rgb(0%,45.097351%,81.175232%);fill-opacity:1;" d="M 361.113281 261.113281 L 369.699219 287.527344 L 356.484375 291.820312 Z M 361.113281 261.113281 "/>
<path style=" stroke:none;fill-rule:evenodd;fill:rgb(0%,45.097351%,81.175232%);fill-opacity:1;" d="M 387.527344 280.300781 L 359.75 280.300781 L 359.75 294.195312 Z M 387.527344 280.300781 "/>
<path style=" stroke:none;fill-rule:evenodd;fill:rgb(0%,45.097351%,81.175232%);fill-opacity:1;" d="M 387.527344 280.300781 L 365.058594 296.632812 L 356.894531 285.394531 Z M 387.527344 280.300781 "/>
<path style=" stroke:none;fill-rule:evenodd;fill:rgb(0%,45.097351%,81.175232%);fill-opacity:1;" d="M 334.691406 280.300781 L 357.167969 296.632812 L 365.328125 285.394531 Z M 334.691406 280.300781 "/>
<path style=" stroke:none;fill-rule:evenodd;fill:rgb(0%,45.097351%,81.175232%);fill-opacity:1;" d="M 334.691406 280.300781 L 362.472656 280.300781 L 362.472656 294.195312 Z M 334.691406 280.300781 "/>
<path style=" stroke:none;fill-rule:evenodd;fill:rgb(0%,45.097351%,81.175232%);fill-opacity:1;" d="M 377.4375 311.363281 L 368.851562 284.941406 L 355.644531 289.234375 Z M 377.4375 311.363281 "/>
<path style=" stroke:none;fill-rule:evenodd;fill:rgb(0%,45.097351%,81.175232%);fill-opacity:1;" d="M 377.4375 311.363281 L 354.964844 295.035156 L 363.128906 283.796875 Z M 377.4375 311.363281 "/>
<path style=" stroke:none;fill-rule:evenodd;fill:rgb(0%,45.097351%,81.175232%);fill-opacity:1;" d="M 344.785156 311.363281 L 367.257812 295.035156 L 359.089844 283.796875 Z M 344.785156 311.363281 "/>
<path style=" stroke:none;fill-rule:evenodd;fill:rgb(0%,45.097351%,81.175232%);fill-opacity:1;" d="M 344.785156 311.363281 L 353.367188 284.941406 L 366.578125 289.234375 Z M 344.785156 311.363281 "/>
</g>
</svg>
