<?xml version="1.0" encoding="UTF-8"?>
<svg xmlns="http://www.w3.org/2000/svg" xmlns:xlink="http://www.w3.org/1999/xlink" viewBox="0 0 1000 667" version="1.1">
<defs>
<clipPath id="clip1">
  <path d="M 0 0 L 1000 0 L 1000 666.71875 L 0 666.71875 Z M 0 0 "/>
</clipPath>
</defs>
<g id="surface560">
<g clip-path="url(#clip1)" clip-rule="nonzero">
<path style=" stroke:none;fill-rule:evenodd;fill:rgb(87.057495%,16.078186%,6.274414%);fill-opacity:1;" d="M 0 666.667969 L 0 0 L 1000 0 L 1000 666.667969 Z M 0 666.667969 "/>
</g>
<path style=" stroke:none;fill-rule:evenodd;fill:rgb(99.998474%,99.998474%,99.998474%);fill-opacity:1;" d="M 499.960938 333.234375 C 383.003906 283.804688 434.847656 131.476562 546.703125 139.140625 C 524.078125 150.765625 520.796875 172.464844 533.71875 192.566406 C 548.1875 215.078125 532.382812 251.292969 512.824219 260.089844 C 480.675781 274.5625 474.234375 313.144531 499.960938 333.234375 Z M 499.960938 333.234375 "/>
<path style=" stroke:none;fill-rule:evenodd;fill:rgb(87.057495%,16.078186%,6.274414%);fill-opacity:1;" d="M 493.636719 223.242188 L 487.0625 233.570312 L 484.671875 221.554688 L 472.808594 218.488281 L 483.507812 212.5 L 482.757812 200.277344 L 491.742188 208.597656 L 503.136719 204.105469 L 498.015625 215.230469 L 505.792969 224.679688 Z M 493.636719 223.242188 "/>
<path style=" stroke:none;fill-rule:evenodd;fill:rgb(87.057495%,16.078186%,6.274414%);fill-opacity:1;" d="M 500.625 331.957031 C 486.476562 324.695312 475.070312 309.558594 470.101562 291.476562 C 464.421875 270.730469 467.6875 248.425781 479.085938 230.320312 L 476.628906 228.777344 C 464.804688 247.585938 461.414062 270.707031 467.3125 292.242188 C 472.5625 311.375 484.21875 326.789062 499.300781 334.53125 Z M 500.625 331.957031 "/>
<path style=" stroke:none;fill-rule:evenodd;fill:rgb(99.998474%,99.998474%,99.998474%);fill-opacity:1;" d="M 500.082031 333.269531 C 510.949219 206.753906 671.84375 208.996094 699.125 317.742188 C 681.070312 299.816406 659.417969 303.402344 644.292969 321.902344 C 627.359375 342.621094 588.039062 338.78125 573.621094 322.894531 C 549.921875 296.789062 511.242188 302.59375 500.082031 333.269531 Z M 500.082031 333.269531 "/>
<path style=" stroke:none;fill-rule:evenodd;fill:rgb(87.057495%,16.078186%,6.274414%);fill-opacity:1;" d="M 602.734375 293.261719 L 590.878906 290.195312 L 601.574219 284.21875 L 600.820312 271.984375 L 609.820312 280.304688 L 621.210938 275.820312 L 616.074219 286.9375 L 623.871094 296.386719 L 611.707031 294.949219 L 605.125 305.269531 Z M 602.734375 293.261719 "/>
<path style=" stroke:none;fill-rule:evenodd;fill:rgb(87.057495%,16.078186%,6.274414%);fill-opacity:1;" d="M 501.503906 333.5 C 504.035156 317.800781 514.902344 302.277344 530.570312 291.964844 C 548.539062 280.148438 570.761719 276.367188 591.503906 281.609375 L 592.21875 278.796875 C 570.675781 273.367188 547.632812 277.285156 528.980469 289.546875 C 512.410156 300.457031 501.347656 316.304688 498.644531 333.035156 Z M 501.503906 333.5 "/>
<path style=" stroke:none;fill-rule:evenodd;fill:rgb(99.998474%,99.998474%,99.998474%);fill-opacity:1;" d="M 500.085938 333.386719 C 623.761719 304.628906 671.355469 458.339844 576.359375 517.894531 C 587.832031 495.183594 577.730469 475.699219 555.457031 467.03125 C 530.523438 457.328125 522.019531 418.746094 532.675781 400.125 C 550.179688 369.519531 532.710938 334.519531 500.085938 333.386719 Z M 500.085938 333.386719 "/>
<path style=" stroke:none;fill-rule:evenodd;fill:rgb(87.057495%,16.078186%,6.274414%);fill-opacity:1;" d="M 569.855469 418.660156 L 569.109375 406.433594 L 578.097656 414.757812 L 589.5 410.265625 L 584.371094 421.390625 L 592.15625 430.84375 L 579.996094 429.390625 L 573.414062 439.726562 L 571.023438 427.710938 L 559.171875 424.640625 Z M 569.855469 418.660156 "/>
<path style=" stroke:none;fill-rule:evenodd;fill:rgb(87.057495%,16.078186%,6.274414%);fill-opacity:1;" d="M 500.308594 334.8125 C 516.019531 332.375 534.140625 337.914062 548.789062 349.625 C 565.582031 363.0625 576.046875 383.027344 577.46875 404.378906 L 580.367188 404.1875 C 578.875 382.019531 568.023438 361.316406 550.601562 347.363281 C 535.101562 334.972656 516.613281 329.347656 499.863281 331.949219 Z M 500.308594 334.8125 "/>
<path style=" stroke:none;fill-rule:evenodd;fill:rgb(99.998474%,99.998474%,99.998474%);fill-opacity:1;" d="M 499.976562 333.4375 C 565.542969 442.171875 434.066406 534.933594 348.066406 462.988281 C 373.214844 466.882812 388.625 451.253906 389.984375 427.394531 C 391.503906 400.679688 425.574219 380.667969 446.578125 385.054688 C 481.09375 392.242188 508.980469 364.8125 499.976562 333.4375 Z M 499.976562 333.4375 "/>
<path style=" stroke:none;fill-rule:evenodd;fill:rgb(87.057495%,16.078186%,6.274414%);fill-opacity:1;" d="M 440.441406 426.140625 L 451.832031 421.652344 L 446.695312 432.773438 L 454.492188 442.226562 L 442.324219 440.78125 L 435.742188 451.113281 L 433.367188 439.101562 L 421.503906 436.035156 L 432.1875 430.046875 L 431.445312 417.828125 Z M 440.441406 426.140625 "/>
<path style=" stroke:none;fill-rule:evenodd;fill:rgb(87.057495%,16.078186%,6.274414%);fill-opacity:1;" d="M 498.6875 334.082031 C 505.867188 348.269531 506.195312 367.21875 499.582031 384.769531 C 491.984375 404.894531 476.238281 421.019531 456.375 428.964844 L 457.449219 431.664062 C 478.070312 423.394531 494.40625 406.679688 502.289062 385.792969 C 509.289062 367.226562 508.925781 347.898438 501.273438 332.773438 Z M 498.6875 334.082031 "/>
<path style=" stroke:none;fill-rule:evenodd;fill:rgb(99.998474%,99.998474%,99.998474%);fill-opacity:1;" d="M 499.898438 333.34375 C 416.742188 429.304688 287.890625 332.921875 329.742188 228.90625 C 333.804688 254.019531 353.433594 263.847656 376.546875 257.769531 C 402.425781 250.960938 431.980469 277.179688 434.304688 298.503906 C 438.128906 333.550781 472.839844 351.59375 499.898438 333.34375 Z M 499.898438 333.34375 "/>
<path style=" stroke:none;fill-rule:evenodd;fill:rgb(87.057495%,16.078186%,6.274414%);fill-opacity:1;" d="M 393.332031 305.367188 L 401.125 314.8125 L 388.953125 313.367188 L 382.375 323.703125 L 379.984375 311.679688 L 368.132812 308.617188 L 378.820312 302.640625 L 378.070312 290.417969 L 387.066406 298.726562 L 398.453125 294.25 Z M 393.332031 305.367188 "/>
<path style=" stroke:none;fill-rule:evenodd;fill:rgb(87.057495%,16.078186%,6.274414%);fill-opacity:1;" d="M 498.882812 332.3125 C 487.601562 343.527344 469.6875 349.695312 450.949219 348.832031 C 429.464844 347.832031 409.265625 337.824219 395.566406 321.390625 L 393.335938 323.246094 C 407.574219 340.304688 428.519531 350.679688 450.8125 351.71875 C 470.636719 352.640625 488.898438 346.320312 500.921875 334.371094 Z M 498.882812 332.3125 "/>
</g>
</svg>
