<?xml version="1.0" encoding="UTF-8"?>
<svg xmlns="http://www.w3.org/2000/svg" xmlns:xlink="http://www.w3.org/1999/xlink" viewBox="0 0 1000 667" version="1.1">
<defs>
<clipPath id="clip1">
  <path d="M 0 0 L 1000 0 L 1000 666.71875 L 0 666.71875 Z M 0 0 "/>
</clipPath>
<clipPath id="clip2">
  <path d="M 0 444 L 1000 444 L 1000 666.71875 L 0 666.71875 Z M 0 444 "/>
</clipPath>
</defs>
<g id="surface575">
<g clip-path="url(#clip1)" clip-rule="nonzero">
<path style=" stroke:none;fill-rule:evenodd;fill:rgb(99.998474%,59.999084%,19.999695%);fill-opacity:1;" d="M 0 666.667969 L 0 0 L 1000 0 L 1000 666.667969 Z M 0 666.667969 "/>
</g>
<path style=" stroke:none;fill-rule:evenodd;fill:rgb(99.998474%,99.998474%,99.998474%);fill-opacity:1;" d="M 0 222.222656 L 1000 222.222656 L 1000 444.445312 L 0 444.445312 Z M 0 222.222656 "/>
<g clip-path="url(#clip2)" clip-rule="nonzero">
<path style=" stroke:none;fill-rule:evenodd;fill:rgb(7.058716%,53.33252%,2.745056%);fill-opacity:1;" d="M 0 444.445312 L 1000 444.445312 L 1000 666.667969 L 0 666.667969 Z M 0 444.445312 "/>
</g>
<path style=" stroke:none;fill-rule:evenodd;fill:rgb(0%,0%,53.33252%);fill-opacity:1;" d="M 588.890625 333.332031 C 588.890625 382.425781 549.09375 422.222656 500 422.222656 C 450.90625 422.222656 411.109375 382.425781 411.109375 333.332031 C 411.109375 284.242188 450.90625 244.445312 500 244.445312 C 549.09375 244.445312 588.890625 284.242188 588.890625 333.332031 Z M 588.890625 333.332031 "/>
<path style=" stroke:none;fill-rule:evenodd;fill:rgb(99.998474%,99.998474%,99.998474%);fill-opacity:1;" d="M 577.777344 333.332031 C 577.777344 376.289062 542.953125 411.109375 500 411.109375 C 457.046875 411.109375 422.222656 376.289062 422.222656 333.332031 C 422.222656 290.378906 457.046875 255.554688 500 255.554688 C 542.953125 255.554688 577.777344 290.378906 577.777344 333.332031 Z M 577.777344 333.332031 "/>
<path style=" stroke:none;fill-rule:evenodd;fill:rgb(0%,0%,53.33252%);fill-opacity:1;" d="M 515.554688 333.332031 C 515.554688 341.921875 508.589844 348.890625 500 348.890625 C 491.410156 348.890625 484.445312 341.921875 484.445312 333.332031 C 484.445312 324.742188 491.410156 317.777344 500 317.777344 C 508.589844 317.777344 515.554688 324.742188 515.554688 333.332031 Z M 515.554688 333.332031 "/>
<path style=" stroke:none;fill-rule:evenodd;fill:rgb(0%,0%,53.33252%);fill-opacity:1;" d="M 580.96875 343.992188 C 580.691406 346.121094 578.730469 347.621094 576.605469 347.339844 C 574.476562 347.058594 572.976562 345.105469 573.257812 342.976562 C 573.539062 340.847656 575.492188 339.347656 577.617188 339.628906 C 579.75 339.910156 581.25 341.863281 580.96875 343.992188 Z M 580.96875 343.992188 "/>
<path style=" stroke:none;fill-rule:evenodd;fill:rgb(0%,0%,53.33252%);fill-opacity:1;" d="M 500 411.109375 L 502.664062 364.445312 L 500 342.222656 L 497.335938 364.445312 Z M 500 411.109375 "/>
<path style=" stroke:none;fill-rule:evenodd;fill:rgb(0%,0%,53.33252%);fill-opacity:1;" d="M 575.449219 364.585938 C 574.628906 366.570312 572.351562 367.511719 570.371094 366.691406 C 568.382812 365.867188 567.445312 363.59375 568.265625 361.609375 C 569.085938 359.625 571.359375 358.683594 573.347656 359.503906 C 575.328125 360.324219 576.273438 362.601562 575.449219 364.585938 Z M 575.449219 364.585938 "/>
<path style=" stroke:none;fill-rule:evenodd;fill:rgb(0%,0%,53.33252%);fill-opacity:1;" d="M 479.867188 408.460938 L 494.523438 364.074219 L 497.699219 341.917969 L 489.375 362.695312 Z M 479.867188 408.460938 "/>
<path style=" stroke:none;fill-rule:evenodd;fill:rgb(0%,0%,53.33252%);fill-opacity:1;" d="M 564.789062 383.046875 C 563.484375 384.75 561.042969 385.074219 559.339844 383.769531 C 557.636719 382.457031 557.3125 380.015625 558.621094 378.3125 C 559.929688 376.609375 562.371094 376.289062 564.074219 377.597656 C 565.777344 378.902344 566.097656 381.34375 564.789062 383.046875 Z M 564.789062 383.046875 "/>
<path style=" stroke:none;fill-rule:evenodd;fill:rgb(0%,0%,53.33252%);fill-opacity:1;" d="M 461.109375 400.691406 L 486.753906 361.609375 L 495.554688 341.03125 L 482.136719 358.945312 Z M 461.109375 400.691406 "/>
<path style=" stroke:none;fill-rule:evenodd;fill:rgb(0%,0%,53.33252%);fill-opacity:1;" d="M 549.714844 398.125 C 548.011719 399.433594 545.570312 399.109375 544.265625 397.40625 C 542.953125 395.703125 543.277344 393.261719 544.980469 391.953125 C 546.683594 390.644531 549.125 390.96875 550.433594 392.671875 C 551.738281 394.375 551.417969 396.816406 549.714844 398.125 Z M 549.714844 398.125 "/>
<path style=" stroke:none;fill-rule:evenodd;fill:rgb(0%,0%,53.33252%);fill-opacity:1;" d="M 445 388.332031 L 479.886719 357.21875 L 493.714844 339.621094 L 476.113281 353.445312 Z M 445 388.332031 "/>
<path style=" stroke:none;fill-rule:evenodd;fill:rgb(0%,0%,53.33252%);fill-opacity:1;" d="M 531.253906 408.78125 C 529.269531 409.605469 526.992188 408.660156 526.171875 406.679688 C 525.351562 404.695312 526.292969 402.417969 528.277344 401.597656 C 530.257812 400.777344 532.535156 401.71875 533.359375 403.703125 C 534.179688 405.6875 533.234375 407.960938 531.253906 408.78125 Z M 531.253906 408.78125 "/>
<path style=" stroke:none;fill-rule:evenodd;fill:rgb(0%,0%,53.33252%);fill-opacity:1;" d="M 432.644531 372.222656 L 474.390625 351.195312 L 492.304688 337.777344 L 471.722656 346.578125 Z M 432.644531 372.222656 "/>
<path style=" stroke:none;fill-rule:evenodd;fill:rgb(0%,0%,53.33252%);fill-opacity:1;" d="M 510.660156 414.300781 C 508.527344 414.582031 506.574219 413.082031 506.296875 410.953125 C 506.015625 408.824219 507.515625 406.871094 509.644531 406.589844 C 511.773438 406.3125 513.726562 407.808594 514.007812 409.9375 C 514.285156 412.066406 512.789062 414.023438 510.660156 414.300781 Z M 510.660156 414.300781 "/>
<path style=" stroke:none;fill-rule:evenodd;fill:rgb(0%,0%,53.33252%);fill-opacity:1;" d="M 424.875 353.464844 L 470.636719 343.960938 L 491.414062 335.632812 L 469.261719 338.808594 Z M 424.875 353.464844 "/>
<path style=" stroke:none;fill-rule:evenodd;fill:rgb(0%,0%,53.33252%);fill-opacity:1;" d="M 489.339844 414.300781 C 487.210938 414.023438 485.714844 412.066406 485.992188 409.9375 C 486.273438 407.808594 488.226562 406.3125 490.355469 406.589844 C 492.484375 406.871094 493.984375 408.824219 493.703125 410.953125 C 493.425781 413.082031 491.472656 414.582031 489.339844 414.300781 Z M 489.339844 414.300781 "/>
<path style=" stroke:none;fill-rule:evenodd;fill:rgb(0%,0%,53.33252%);fill-opacity:1;" d="M 422.222656 333.332031 L 468.886719 336 L 491.109375 333.332031 L 468.886719 330.667969 Z M 422.222656 333.332031 "/>
<path style=" stroke:none;fill-rule:evenodd;fill:rgb(0%,0%,53.33252%);fill-opacity:1;" d="M 468.746094 408.78125 C 466.765625 407.960938 465.820312 405.6875 466.640625 403.703125 C 467.464844 401.71875 469.742188 400.777344 471.722656 401.597656 C 473.707031 402.417969 474.648438 404.695312 473.828125 406.679688 C 473.007812 408.660156 470.730469 409.605469 468.746094 408.78125 Z M 468.746094 408.78125 "/>
<path style=" stroke:none;fill-rule:evenodd;fill:rgb(0%,0%,53.33252%);fill-opacity:1;" d="M 424.875 313.203125 L 469.261719 327.855469 L 491.414062 331.035156 L 470.636719 322.707031 Z M 424.875 313.203125 "/>
<path style=" stroke:none;fill-rule:evenodd;fill:rgb(0%,0%,53.33252%);fill-opacity:1;" d="M 450.285156 398.125 C 448.582031 396.816406 448.261719 394.375 449.566406 392.671875 C 450.875 390.96875 453.316406 390.644531 455.019531 391.953125 C 456.722656 393.261719 457.046875 395.703125 455.734375 397.40625 C 454.429688 399.109375 451.988281 399.433594 450.285156 398.125 Z M 450.285156 398.125 "/>
<path style=" stroke:none;fill-rule:evenodd;fill:rgb(0%,0%,53.33252%);fill-opacity:1;" d="M 432.644531 294.445312 L 471.722656 320.089844 L 492.304688 328.886719 L 474.390625 315.46875 Z M 432.644531 294.445312 "/>
<path style=" stroke:none;fill-rule:evenodd;fill:rgb(0%,0%,53.33252%);fill-opacity:1;" d="M 435.210938 383.046875 C 433.902344 381.34375 434.222656 378.902344 435.925781 377.597656 C 437.628906 376.289062 440.070312 376.609375 441.378906 378.3125 C 442.6875 380.015625 442.363281 382.457031 440.660156 383.769531 C 438.957031 385.074219 436.515625 384.75 435.210938 383.046875 Z M 435.210938 383.046875 "/>
<path style=" stroke:none;fill-rule:evenodd;fill:rgb(0%,0%,53.33252%);fill-opacity:1;" d="M 445 278.335938 L 476.113281 313.21875 L 493.714844 327.046875 L 479.886719 309.445312 Z M 445 278.335938 "/>
<path style=" stroke:none;fill-rule:evenodd;fill:rgb(0%,0%,53.33252%);fill-opacity:1;" d="M 424.550781 364.585938 C 423.726562 362.601562 424.671875 360.324219 426.652344 359.503906 C 428.640625 358.683594 430.914062 359.625 431.734375 361.609375 C 432.554688 363.59375 431.617188 365.867188 429.628906 366.691406 C 427.648438 367.511719 425.371094 366.570312 424.550781 364.585938 Z M 424.550781 364.585938 "/>
<path style=" stroke:none;fill-rule:evenodd;fill:rgb(0%,0%,53.33252%);fill-opacity:1;" d="M 461.109375 265.976562 L 482.136719 307.722656 L 495.554688 325.636719 L 486.753906 305.054688 Z M 461.109375 265.976562 "/>
<path style=" stroke:none;fill-rule:evenodd;fill:rgb(0%,0%,53.33252%);fill-opacity:1;" d="M 419.03125 343.992188 C 418.75 341.863281 420.25 339.910156 422.382812 339.628906 C 424.507812 339.347656 426.460938 340.847656 426.742188 342.976562 C 427.023438 345.105469 425.523438 347.058594 423.394531 347.339844 C 421.269531 347.621094 419.308594 346.121094 419.03125 343.992188 Z M 419.03125 343.992188 "/>
<path style=" stroke:none;fill-rule:evenodd;fill:rgb(0%,0%,53.33252%);fill-opacity:1;" d="M 479.867188 258.207031 L 489.375 303.972656 L 497.699219 324.746094 L 494.523438 302.59375 Z M 479.867188 258.207031 "/>
<path style=" stroke:none;fill-rule:evenodd;fill:rgb(0%,0%,53.33252%);fill-opacity:1;" d="M 419.03125 322.675781 C 419.308594 320.542969 421.269531 319.046875 423.394531 319.324219 C 425.523438 319.605469 427.023438 321.558594 426.742188 323.691406 C 426.460938 325.816406 424.507812 327.320312 422.382812 327.035156 C 420.25 326.757812 418.75 324.804688 419.03125 322.675781 Z M 419.03125 322.675781 "/>
<path style=" stroke:none;fill-rule:evenodd;fill:rgb(0%,0%,53.33252%);fill-opacity:1;" d="M 500 255.554688 L 497.335938 302.21875 L 500 324.441406 L 502.664062 302.21875 Z M 500 255.554688 "/>
<path style=" stroke:none;fill-rule:evenodd;fill:rgb(0%,0%,53.33252%);fill-opacity:1;" d="M 424.550781 302.078125 C 425.371094 300.097656 427.648438 299.152344 429.628906 299.976562 C 431.617188 300.800781 432.554688 303.074219 431.734375 305.054688 C 430.914062 307.042969 428.640625 307.980469 426.652344 307.160156 C 424.671875 306.339844 423.726562 304.066406 424.550781 302.078125 Z M 424.550781 302.078125 "/>
<path style=" stroke:none;fill-rule:evenodd;fill:rgb(0%,0%,53.33252%);fill-opacity:1;" d="M 520.132812 258.207031 L 505.476562 302.59375 L 502.300781 324.746094 L 510.625 303.972656 Z M 520.132812 258.207031 "/>
<path style=" stroke:none;fill-rule:evenodd;fill:rgb(0%,0%,53.33252%);fill-opacity:1;" d="M 435.210938 283.621094 C 436.515625 281.914062 438.957031 281.59375 440.660156 282.898438 C 442.363281 284.207031 442.6875 286.648438 441.378906 288.355469 C 440.070312 290.058594 437.628906 290.378906 435.925781 289.070312 C 434.222656 287.765625 433.902344 285.320312 435.210938 283.621094 Z M 435.210938 283.621094 "/>
<path style=" stroke:none;fill-rule:evenodd;fill:rgb(0%,0%,53.33252%);fill-opacity:1;" d="M 538.890625 265.976562 L 513.246094 305.054688 L 504.445312 325.636719 L 517.863281 307.722656 Z M 538.890625 265.976562 "/>
<path style=" stroke:none;fill-rule:evenodd;fill:rgb(0%,0%,53.33252%);fill-opacity:1;" d="M 450.285156 268.542969 C 451.988281 267.234375 454.429688 267.554688 455.734375 269.261719 C 457.046875 270.964844 456.722656 273.40625 455.019531 274.714844 C 453.316406 276.019531 450.875 275.699219 449.566406 273.996094 C 448.261719 272.289062 448.582031 269.851562 450.285156 268.542969 Z M 450.285156 268.542969 "/>
<path style=" stroke:none;fill-rule:evenodd;fill:rgb(0%,0%,53.33252%);fill-opacity:1;" d="M 555 278.335938 L 520.113281 309.445312 L 506.285156 327.046875 L 523.886719 313.21875 Z M 555 278.335938 "/>
<path style=" stroke:none;fill-rule:evenodd;fill:rgb(0%,0%,53.33252%);fill-opacity:1;" d="M 468.746094 257.886719 C 470.730469 257.058594 473.007812 258.003906 473.828125 259.984375 C 474.648438 261.972656 473.707031 264.246094 471.722656 265.066406 C 469.742188 265.890625 467.464844 264.949219 466.640625 262.964844 C 465.820312 260.980469 466.765625 258.707031 468.746094 257.886719 Z M 468.746094 257.886719 "/>
<path style=" stroke:none;fill-rule:evenodd;fill:rgb(0%,0%,53.33252%);fill-opacity:1;" d="M 567.355469 294.445312 L 525.609375 315.46875 L 507.695312 328.886719 L 528.277344 320.089844 Z M 567.355469 294.445312 "/>
<path style=" stroke:none;fill-rule:evenodd;fill:rgb(0%,0%,53.33252%);fill-opacity:1;" d="M 489.339844 252.367188 C 491.472656 252.082031 493.425781 253.585938 493.703125 255.714844 C 493.984375 257.839844 492.484375 259.792969 490.355469 260.078125 C 488.226562 260.355469 486.273438 258.855469 485.992188 256.726562 C 485.714844 254.601562 487.210938 252.644531 489.339844 252.367188 Z M 489.339844 252.367188 "/>
<path style=" stroke:none;fill-rule:evenodd;fill:rgb(0%,0%,53.33252%);fill-opacity:1;" d="M 575.125 313.203125 L 529.363281 322.707031 L 508.585938 331.035156 L 530.738281 327.855469 Z M 575.125 313.203125 "/>
<path style=" stroke:none;fill-rule:evenodd;fill:rgb(0%,0%,53.33252%);fill-opacity:1;" d="M 510.660156 252.367188 C 512.789062 252.644531 514.285156 254.601562 514.007812 256.726562 C 513.726562 258.855469 511.773438 260.355469 509.644531 260.078125 C 507.515625 259.792969 506.015625 257.839844 506.296875 255.714844 C 506.574219 253.585938 508.527344 252.082031 510.660156 252.367188 Z M 510.660156 252.367188 "/>
<path style=" stroke:none;fill-rule:evenodd;fill:rgb(0%,0%,53.33252%);fill-opacity:1;" d="M 577.777344 333.332031 L 531.113281 330.667969 L 508.890625 333.332031 L 531.113281 336 Z M 577.777344 333.332031 "/>
<path style=" stroke:none;fill-rule:evenodd;fill:rgb(0%,0%,53.33252%);fill-opacity:1;" d="M 531.253906 257.886719 C 533.234375 258.707031 534.179688 260.980469 533.359375 262.964844 C 532.535156 264.949219 530.257812 265.890625 528.277344 265.066406 C 526.292969 264.246094 525.351562 261.972656 526.171875 259.984375 C 526.992188 258.003906 529.269531 257.058594 531.253906 257.886719 Z M 531.253906 257.886719 "/>
<path style=" stroke:none;fill-rule:evenodd;fill:rgb(0%,0%,53.33252%);fill-opacity:1;" d="M 575.125 353.464844 L 530.738281 338.808594 L 508.585938 335.632812 L 529.363281 343.960938 Z M 575.125 353.464844 "/>
<path style=" stroke:none;fill-rule:evenodd;fill:rgb(0%,0%,53.33252%);fill-opacity:1;" d="M 549.714844 268.542969 C 551.417969 269.851562 551.738281 272.289062 550.433594 273.996094 C 549.125 275.699219 546.683594 276.019531 544.980469 274.714844 C 543.277344 273.40625 542.953125 270.964844 544.265625 269.261719 C 545.570312 267.554688 548.011719 267.234375 549.714844 268.542969 Z M 549.714844 268.542969 "/>
<path style=" stroke:none;fill-rule:evenodd;fill:rgb(0%,0%,53.33252%);fill-opacity:1;" d="M 567.355469 372.222656 L 528.277344 346.578125 L 507.695312 337.777344 L 525.609375 351.195312 Z M 567.355469 372.222656 "/>
<path style=" stroke:none;fill-rule:evenodd;fill:rgb(0%,0%,53.33252%);fill-opacity:1;" d="M 564.789062 283.621094 C 566.097656 285.320312 565.777344 287.765625 564.074219 289.070312 C 562.371094 290.378906 559.929688 290.058594 558.621094 288.355469 C 557.3125 286.648438 557.636719 284.207031 559.339844 282.898438 C 561.042969 281.59375 563.484375 281.914062 564.789062 283.621094 Z M 564.789062 283.621094 "/>
<path style=" stroke:none;fill-rule:evenodd;fill:rgb(0%,0%,53.33252%);fill-opacity:1;" d="M 555 388.332031 L 523.886719 353.445312 L 506.285156 339.621094 L 520.113281 357.21875 Z M 555 388.332031 "/>
<path style=" stroke:none;fill-rule:evenodd;fill:rgb(0%,0%,53.33252%);fill-opacity:1;" d="M 575.449219 302.078125 C 576.273438 304.066406 575.328125 306.339844 573.347656 307.160156 C 571.359375 307.980469 569.085938 307.042969 568.265625 305.054688 C 567.445312 303.074219 568.382812 300.800781 570.371094 299.976562 C 572.351562 299.152344 574.628906 300.097656 575.449219 302.078125 Z M 575.449219 302.078125 "/>
<path style=" stroke:none;fill-rule:evenodd;fill:rgb(0%,0%,53.33252%);fill-opacity:1;" d="M 538.890625 400.691406 L 517.863281 358.945312 L 504.445312 341.03125 L 513.246094 361.609375 Z M 538.890625 400.691406 "/>
<path style=" stroke:none;fill-rule:evenodd;fill:rgb(0%,0%,53.33252%);fill-opacity:1;" d="M 580.96875 322.675781 C 581.25 324.804688 579.75 326.757812 577.617188 327.035156 C 575.492188 327.320312 573.539062 325.816406 573.257812 323.691406 C 572.976562 321.558594 574.476562 319.605469 576.605469 319.324219 C 578.730469 319.046875 580.691406 320.542969 580.96875 322.675781 Z M 580.96875 322.675781 "/>
<path style=" stroke:none;fill-rule:evenodd;fill:rgb(0%,0%,53.33252%);fill-opacity:1;" d="M 520.132812 408.460938 L 510.625 362.695312 L 502.300781 341.917969 L 505.476562 364.074219 Z M 520.132812 408.460938 "/>
</g>
</svg>
