<?xml version="1.0" encoding="UTF-8"?>
<svg xmlns="http://www.w3.org/2000/svg" xmlns:xlink="http://www.w3.org/1999/xlink" viewBox="0 0 1000 571" version="1.1">
<g id="surface585">
<rect x="0" y="0" width="1000" height="571" style="fill:rgb(13.725281%,62.35199%,25.097656%);fill-opacity:1;stroke:none;"/>
<path style=" stroke:none;fill-rule:evenodd;fill:rgb(99.998474%,99.998474%,99.998474%);fill-opacity:1;" d="M 0 190.476562 L 1000 190.476562 L 1000 380.953125 L 0 380.953125 Z M 0 190.476562 "/>
<path style=" stroke:none;fill-rule:evenodd;fill:rgb(85.488892%,0%,0%);fill-opacity:1;" d="M 0 380.953125 L 1000 380.953125 L 1000 571.429688 L 0 571.429688 Z M 0 380.953125 "/>
<path style="fill:none;stroke-width:4.444444;stroke-linecap:round;stroke-linejoin:miter;stroke:rgb(99.998474%,99.998474%,99.998474%);stroke-opacity:1;stroke-miterlimit:4;" d="M 460 161.589844 L 513.335938 161.589844 "/>
<path style="fill:none;stroke-width:4.444444;stroke-linecap:round;stroke-linejoin:miter;stroke:rgb(99.998474%,99.998474%,99.998474%);stroke-opacity:1;stroke-miterlimit:4;" d="M 460 179.363281 L 460 170.476562 L 477.777344 170.476562 L 477.777344 179.363281 L 495.554688 179.363281 L 495.554688 170.476562 L 486.664062 170.476562 "/>
<path style="fill:none;stroke-width:4.444444;stroke-linecap:round;stroke-linejoin:miter;stroke:rgb(99.998474%,99.998474%,99.998474%);stroke-opacity:1;stroke-miterlimit:4;" d="M 513.335938 179.363281 L 504.445312 179.363281 L 504.445312 170.476562 L 522.222656 170.476562 L 522.222656 161.589844 "/>
<path style="fill:none;stroke-width:4.444444;stroke-linecap:round;stroke-linejoin:miter;stroke:rgb(99.998474%,99.998474%,99.998474%);stroke-opacity:1;stroke-miterlimit:4;" d="M 522.222656 170.476562 L 522.222656 179.363281 L 540 179.363281 L 540 161.589844 "/>
<path style="fill:none;stroke-width:4.444444;stroke-linecap:round;stroke-linejoin:miter;stroke:rgb(99.998474%,99.998474%,99.998474%);stroke-opacity:1;stroke-miterlimit:4;" d="M 531.109375 161.589844 L 531.109375 179.363281 "/>
<path style="fill:none;stroke-width:4.444444;stroke-linecap:round;stroke-linejoin:miter;stroke:rgb(99.998474%,99.998474%,99.998474%);stroke-opacity:1;stroke-miterlimit:4;" d="M 468.890625 179.363281 L 468.894531 179.363281 "/>
<path style="fill:none;stroke-width:5.312127;stroke-linecap:round;stroke-linejoin:miter;stroke:rgb(99.998474%,99.998474%,99.998474%);stroke-opacity:1;stroke-miterlimit:4;" d="M 460 189.203125 L 495.554688 189.203125 "/>
<path style="fill:none;stroke-width:5.312127;stroke-linecap:round;stroke-linejoin:miter;stroke:rgb(99.998474%,99.998474%,99.998474%);stroke-opacity:1;stroke-miterlimit:4;" d="M 504.445312 189.203125 L 540 189.203125 "/>
<path style="fill:none;stroke-width:4.444444;stroke-linecap:round;stroke-linejoin:miter;stroke:rgb(99.998474%,99.998474%,99.998474%);stroke-opacity:1;stroke-miterlimit:4;" d="M 460 392.0625 L 513.335938 392.0625 "/>
<path style="fill:none;stroke-width:4.444444;stroke-linecap:round;stroke-linejoin:miter;stroke:rgb(99.998474%,99.998474%,99.998474%);stroke-opacity:1;stroke-miterlimit:4;" d="M 460 409.839844 L 460 400.953125 L 477.777344 400.953125 L 477.777344 409.839844 L 495.554688 409.839844 L 495.554688 400.953125 L 486.664062 400.953125 "/>
<path style="fill:none;stroke-width:4.444444;stroke-linecap:round;stroke-linejoin:miter;stroke:rgb(99.998474%,99.998474%,99.998474%);stroke-opacity:1;stroke-miterlimit:4;" d="M 513.335938 409.839844 L 504.445312 409.839844 L 504.445312 400.953125 L 522.222656 400.953125 L 522.222656 392.0625 "/>
<path style="fill:none;stroke-width:4.444444;stroke-linecap:round;stroke-linejoin:miter;stroke:rgb(99.998474%,99.998474%,99.998474%);stroke-opacity:1;stroke-miterlimit:4;" d="M 522.222656 400.953125 L 522.222656 409.839844 L 540 409.839844 L 540 392.0625 "/>
<path style="fill:none;stroke-width:4.444444;stroke-linecap:round;stroke-linejoin:miter;stroke:rgb(99.998474%,99.998474%,99.998474%);stroke-opacity:1;stroke-miterlimit:4;" d="M 531.109375 392.0625 L 531.109375 409.839844 "/>
<path style="fill:none;stroke-width:4.444444;stroke-linecap:round;stroke-linejoin:miter;stroke:rgb(99.998474%,99.998474%,99.998474%);stroke-opacity:1;stroke-miterlimit:4;" d="M 468.890625 409.839844 L 468.894531 409.839844 "/>
<path style="fill:none;stroke-width:5.312127;stroke-linecap:round;stroke-linejoin:miter;stroke:rgb(99.998474%,99.998474%,99.998474%);stroke-opacity:1;stroke-miterlimit:4;" d="M 460 382.222656 L 495.554688 382.222656 "/>
<path style="fill:none;stroke-width:5.312127;stroke-linecap:round;stroke-linejoin:miter;stroke:rgb(99.998474%,99.998474%,99.998474%);stroke-opacity:1;stroke-miterlimit:4;" d="M 504.445312 382.222656 L 540 382.222656 "/>
<path style="fill:none;stroke-width:4.444444;stroke-linecap:round;stroke-linejoin:miter;stroke:rgb(99.998474%,99.998474%,99.998474%);stroke-opacity:1;stroke-miterlimit:4;" d="M 548.890625 161.589844 L 602.222656 161.589844 "/>
<path style="fill:none;stroke-width:4.444444;stroke-linecap:round;stroke-linejoin:miter;stroke:rgb(99.998474%,99.998474%,99.998474%);stroke-opacity:1;stroke-miterlimit:4;" d="M 548.890625 179.363281 L 548.890625 170.476562 L 566.667969 170.476562 L 566.667969 179.363281 L 584.441406 179.363281 L 584.441406 170.476562 L 575.554688 170.476562 "/>
<path style="fill:none;stroke-width:4.444444;stroke-linecap:round;stroke-linejoin:miter;stroke:rgb(99.998474%,99.998474%,99.998474%);stroke-opacity:1;stroke-miterlimit:4;" d="M 602.222656 179.363281 L 593.335938 179.363281 L 593.335938 170.476562 L 611.109375 170.476562 L 611.109375 161.589844 "/>
<path style="fill:none;stroke-width:4.444444;stroke-linecap:round;stroke-linejoin:miter;stroke:rgb(99.998474%,99.998474%,99.998474%);stroke-opacity:1;stroke-miterlimit:4;" d="M 611.109375 170.476562 L 611.109375 179.363281 L 628.886719 179.363281 L 628.886719 161.589844 "/>
<path style="fill:none;stroke-width:4.444444;stroke-linecap:round;stroke-linejoin:miter;stroke:rgb(99.998474%,99.998474%,99.998474%);stroke-opacity:1;stroke-miterlimit:4;" d="M 620 161.589844 L 620 179.363281 "/>
<path style="fill:none;stroke-width:4.444444;stroke-linecap:round;stroke-linejoin:miter;stroke:rgb(99.998474%,99.998474%,99.998474%);stroke-opacity:1;stroke-miterlimit:4;" d="M 557.777344 179.363281 L 557.78125 179.363281 "/>
<path style="fill:none;stroke-width:5.312127;stroke-linecap:round;stroke-linejoin:miter;stroke:rgb(99.998474%,99.998474%,99.998474%);stroke-opacity:1;stroke-miterlimit:4;" d="M 548.890625 189.203125 L 584.441406 189.203125 "/>
<path style="fill:none;stroke-width:5.312127;stroke-linecap:round;stroke-linejoin:miter;stroke:rgb(99.998474%,99.998474%,99.998474%);stroke-opacity:1;stroke-miterlimit:4;" d="M 593.335938 189.203125 L 628.886719 189.203125 "/>
<path style="fill:none;stroke-width:4.444444;stroke-linecap:round;stroke-linejoin:miter;stroke:rgb(99.998474%,99.998474%,99.998474%);stroke-opacity:1;stroke-miterlimit:4;" d="M 548.890625 392.0625 L 602.222656 392.0625 "/>
<path style="fill:none;stroke-width:4.444444;stroke-linecap:round;stroke-linejoin:miter;stroke:rgb(99.998474%,99.998474%,99.998474%);stroke-opacity:1;stroke-miterlimit:4;" d="M 548.890625 409.839844 L 548.890625 400.953125 L 566.667969 400.953125 L 566.667969 409.839844 L 584.441406 409.839844 L 584.441406 400.953125 L 575.554688 400.953125 "/>
<path style="fill:none;stroke-width:4.444444;stroke-linecap:round;stroke-linejoin:miter;stroke:rgb(99.998474%,99.998474%,99.998474%);stroke-opacity:1;stroke-miterlimit:4;" d="M 602.222656 409.839844 L 593.335938 409.839844 L 593.335938 400.953125 L 611.109375 400.953125 L 611.109375 392.0625 "/>
<path style="fill:none;stroke-width:4.444444;stroke-linecap:round;stroke-linejoin:miter;stroke:rgb(99.998474%,99.998474%,99.998474%);stroke-opacity:1;stroke-miterlimit:4;" d="M 611.109375 400.953125 L 611.109375 409.839844 L 628.886719 409.839844 L 628.886719 392.0625 "/>
<path style="fill:none;stroke-width:4.444444;stroke-linecap:round;stroke-linejoin:miter;stroke:rgb(99.998474%,99.998474%,99.998474%);stroke-opacity:1;stroke-miterlimit:4;" d="M 620 392.0625 L 620 409.839844 "/>
<path style="fill:none;stroke-width:4.444444;stroke-linecap:round;stroke-linejoin:miter;stroke:rgb(99.998474%,99.998474%,99.998474%);stroke-opacity:1;stroke-miterlimit:4;" d="M 557.777344 409.839844 L 557.78125 409.839844 "/>
<path style="fill:none;stroke-width:5.312127;stroke-linecap:round;stroke-linejoin:miter;stroke:rgb(99.998474%,99.998474%,99.998474%);stroke-opacity:1;stroke-miterlimit:4;" d="M 548.890625 382.222656 L 584.441406 382.222656 "/>
<path style="fill:none;stroke-width:5.312127;stroke-linecap:round;stroke-linejoin:miter;stroke:rgb(99.998474%,99.998474%,99.998474%);stroke-opacity:1;stroke-miterlimit:4;" d="M 593.335938 382.222656 L 628.886719 382.222656 "/>
<path style="fill:none;stroke-width:4.444444;stroke-linecap:round;stroke-linejoin:miter;stroke:rgb(99.998474%,99.998474%,99.998474%);stroke-opacity:1;stroke-miterlimit:4;" d="M 282.222656 161.589844 L 335.554688 161.589844 "/>
<path style="fill:none;stroke-width:4.444444;stroke-linecap:round;stroke-linejoin:miter;stroke:rgb(99.998474%,99.998474%,99.998474%);stroke-opacity:1;stroke-miterlimit:4;" d="M 282.222656 179.363281 L 282.222656 170.476562 L 300 170.476562 L 300 179.363281 L 317.777344 179.363281 L 317.777344 170.476562 L 308.886719 170.476562 "/>
<path style="fill:none;stroke-width:4.444444;stroke-linecap:round;stroke-linejoin:miter;stroke:rgb(99.998474%,99.998474%,99.998474%);stroke-opacity:1;stroke-miterlimit:4;" d="M 335.554688 179.363281 L 326.667969 179.363281 L 326.667969 170.476562 L 344.445312 170.476562 L 344.445312 161.589844 "/>
<path style="fill:none;stroke-width:4.444444;stroke-linecap:round;stroke-linejoin:miter;stroke:rgb(99.998474%,99.998474%,99.998474%);stroke-opacity:1;stroke-miterlimit:4;" d="M 344.445312 170.476562 L 344.445312 179.363281 L 362.21875 179.363281 L 362.21875 161.589844 "/>
<path style="fill:none;stroke-width:4.444444;stroke-linecap:round;stroke-linejoin:miter;stroke:rgb(99.998474%,99.998474%,99.998474%);stroke-opacity:1;stroke-miterlimit:4;" d="M 353.332031 161.589844 L 353.332031 179.363281 "/>
<path style="fill:none;stroke-width:4.444444;stroke-linecap:round;stroke-linejoin:miter;stroke:rgb(99.998474%,99.998474%,99.998474%);stroke-opacity:1;stroke-miterlimit:4;" d="M 291.113281 179.363281 L 291.113281 179.363281 "/>
<path style="fill:none;stroke-width:5.312127;stroke-linecap:round;stroke-linejoin:miter;stroke:rgb(99.998474%,99.998474%,99.998474%);stroke-opacity:1;stroke-miterlimit:4;" d="M 282.222656 189.203125 L 317.777344 189.203125 "/>
<path style="fill:none;stroke-width:5.312127;stroke-linecap:round;stroke-linejoin:miter;stroke:rgb(99.998474%,99.998474%,99.998474%);stroke-opacity:1;stroke-miterlimit:4;" d="M 326.667969 189.203125 L 362.222656 189.203125 "/>
<path style="fill:none;stroke-width:4.444444;stroke-linecap:round;stroke-linejoin:miter;stroke:rgb(99.998474%,99.998474%,99.998474%);stroke-opacity:1;stroke-miterlimit:4;" d="M 282.222656 392.0625 L 335.554688 392.0625 "/>
<path style="fill:none;stroke-width:4.444444;stroke-linecap:round;stroke-linejoin:miter;stroke:rgb(99.998474%,99.998474%,99.998474%);stroke-opacity:1;stroke-miterlimit:4;" d="M 282.222656 409.839844 L 282.222656 400.953125 L 300 400.953125 L 300 409.839844 L 317.777344 409.839844 L 317.777344 400.953125 L 308.886719 400.953125 "/>
<path style="fill:none;stroke-width:4.444444;stroke-linecap:round;stroke-linejoin:miter;stroke:rgb(99.998474%,99.998474%,99.998474%);stroke-opacity:1;stroke-miterlimit:4;" d="M 335.554688 409.839844 L 326.667969 409.839844 L 326.667969 400.953125 L 344.445312 400.953125 L 344.445312 392.0625 "/>
<path style="fill:none;stroke-width:4.444444;stroke-linecap:round;stroke-linejoin:miter;stroke:rgb(99.998474%,99.998474%,99.998474%);stroke-opacity:1;stroke-miterlimit:4;" d="M 344.445312 400.953125 L 344.445312 409.839844 L 362.21875 409.839844 L 362.21875 392.0625 "/>
<path style="fill:none;stroke-width:4.444444;stroke-linecap:round;stroke-linejoin:miter;stroke:rgb(99.998474%,99.998474%,99.998474%);stroke-opacity:1;stroke-miterlimit:4;" d="M 353.332031 392.0625 L 353.332031 409.839844 "/>
<path style="fill:none;stroke-width:4.444444;stroke-linecap:round;stroke-linejoin:miter;stroke:rgb(99.998474%,99.998474%,99.998474%);stroke-opacity:1;stroke-miterlimit:4;" d="M 291.113281 409.839844 L 291.113281 409.839844 "/>
<path style="fill:none;stroke-width:5.312127;stroke-linecap:round;stroke-linejoin:miter;stroke:rgb(99.998474%,99.998474%,99.998474%);stroke-opacity:1;stroke-miterlimit:4;" d="M 282.222656 382.222656 L 317.777344 382.222656 "/>
<path style="fill:none;stroke-width:5.312127;stroke-linecap:round;stroke-linejoin:miter;stroke:rgb(99.998474%,99.998474%,99.998474%);stroke-opacity:1;stroke-miterlimit:4;" d="M 326.667969 382.222656 L 362.222656 382.222656 "/>
<path style="fill:none;stroke-width:4.444444;stroke-linecap:round;stroke-linejoin:miter;stroke:rgb(99.998474%,99.998474%,99.998474%);stroke-opacity:1;stroke-miterlimit:4;" d="M 371.113281 161.589844 L 424.445312 161.589844 "/>
<path style="fill:none;stroke-width:4.444444;stroke-linecap:round;stroke-linejoin:miter;stroke:rgb(99.998474%,99.998474%,99.998474%);stroke-opacity:1;stroke-miterlimit:4;" d="M 371.113281 179.363281 L 371.113281 170.476562 L 388.890625 170.476562 L 388.890625 179.363281 L 406.664062 179.363281 L 406.664062 170.476562 L 397.777344 170.476562 "/>
<path style="fill:none;stroke-width:4.444444;stroke-linecap:round;stroke-linejoin:miter;stroke:rgb(99.998474%,99.998474%,99.998474%);stroke-opacity:1;stroke-miterlimit:4;" d="M 424.445312 179.363281 L 415.558594 179.363281 L 415.558594 170.476562 L 433.332031 170.476562 L 433.332031 161.589844 "/>
<path style="fill:none;stroke-width:4.444444;stroke-linecap:round;stroke-linejoin:miter;stroke:rgb(99.998474%,99.998474%,99.998474%);stroke-opacity:1;stroke-miterlimit:4;" d="M 433.332031 170.476562 L 433.332031 179.363281 L 451.109375 179.363281 L 451.109375 161.589844 "/>
<path style="fill:none;stroke-width:4.444444;stroke-linecap:round;stroke-linejoin:miter;stroke:rgb(99.998474%,99.998474%,99.998474%);stroke-opacity:1;stroke-miterlimit:4;" d="M 442.222656 161.589844 L 442.222656 179.363281 "/>
<path style="fill:none;stroke-width:4.444444;stroke-linecap:round;stroke-linejoin:miter;stroke:rgb(99.998474%,99.998474%,99.998474%);stroke-opacity:1;stroke-miterlimit:4;" d="M 380 179.363281 L 380.003906 179.363281 "/>
<path style="fill:none;stroke-width:5.312127;stroke-linecap:round;stroke-linejoin:miter;stroke:rgb(99.998474%,99.998474%,99.998474%);stroke-opacity:1;stroke-miterlimit:4;" d="M 371.113281 189.203125 L 406.664062 189.203125 "/>
<path style="fill:none;stroke-width:5.312127;stroke-linecap:round;stroke-linejoin:miter;stroke:rgb(99.998474%,99.998474%,99.998474%);stroke-opacity:1;stroke-miterlimit:4;" d="M 415.558594 189.203125 L 451.109375 189.203125 "/>
<path style="fill:none;stroke-width:4.444444;stroke-linecap:round;stroke-linejoin:miter;stroke:rgb(99.998474%,99.998474%,99.998474%);stroke-opacity:1;stroke-miterlimit:4;" d="M 371.113281 392.0625 L 424.445312 392.0625 "/>
<path style="fill:none;stroke-width:4.444444;stroke-linecap:round;stroke-linejoin:miter;stroke:rgb(99.998474%,99.998474%,99.998474%);stroke-opacity:1;stroke-miterlimit:4;" d="M 371.113281 409.839844 L 371.113281 400.953125 L 388.890625 400.953125 L 388.890625 409.839844 L 406.664062 409.839844 L 406.664062 400.953125 L 397.777344 400.953125 "/>
<path style="fill:none;stroke-width:4.444444;stroke-linecap:round;stroke-linejoin:miter;stroke:rgb(99.998474%,99.998474%,99.998474%);stroke-opacity:1;stroke-miterlimit:4;" d="M 424.445312 409.839844 L 415.558594 409.839844 L 415.558594 400.953125 L 433.332031 400.953125 L 433.332031 392.0625 "/>
<path style="fill:none;stroke-width:4.444444;stroke-linecap:round;stroke-linejoin:miter;stroke:rgb(99.998474%,99.998474%,99.998474%);stroke-opacity:1;stroke-miterlimit:4;" d="M 433.332031 400.953125 L 433.332031 409.839844 L 451.109375 409.839844 L 451.109375 392.0625 "/>
<path style="fill:none;stroke-width:4.444444;stroke-linecap:round;stroke-linejoin:miter;stroke:rgb(99.998474%,99.998474%,99.998474%);stroke-opacity:1;stroke-miterlimit:4;" d="M 442.222656 392.0625 L 442.222656 409.839844 "/>
<path style="fill:none;stroke-width:4.444444;stroke-linecap:round;stroke-linejoin:miter;stroke:rgb(99.998474%,99.998474%,99.998474%);stroke-opacity:1;stroke-miterlimit:4;" d="M 380 409.839844 L 380.003906 409.839844 "/>
<path style="fill:none;stroke-width:5.312127;stroke-linecap:round;stroke-linejoin:miter;stroke:rgb(99.998474%,99.998474%,99.998474%);stroke-opacity:1;stroke-miterlimit:4;" d="M 371.113281 382.222656 L 406.664062 382.222656 "/>
<path style="fill:none;stroke-width:5.312127;stroke-linecap:round;stroke-linejoin:miter;stroke:rgb(99.998474%,99.998474%,99.998474%);stroke-opacity:1;stroke-miterlimit:4;" d="M 415.558594 382.222656 L 451.109375 382.222656 "/>
<path style="fill:none;stroke-width:4.444444;stroke-linecap:round;stroke-linejoin:miter;stroke:rgb(99.998474%,99.998474%,99.998474%);stroke-opacity:1;stroke-miterlimit:4;" d="M 815.558594 161.589844 L 868.890625 161.589844 "/>
<path style="fill:none;stroke-width:4.444444;stroke-linecap:round;stroke-linejoin:miter;stroke:rgb(99.998474%,99.998474%,99.998474%);stroke-opacity:1;stroke-miterlimit:4;" d="M 815.558594 179.363281 L 815.558594 170.476562 L 833.332031 170.476562 L 833.332031 179.363281 L 851.109375 179.363281 L 851.109375 170.476562 L 842.222656 170.476562 "/>
<path style="fill:none;stroke-width:4.444444;stroke-linecap:round;stroke-linejoin:miter;stroke:rgb(99.998474%,99.998474%,99.998474%);stroke-opacity:1;stroke-miterlimit:4;" d="M 868.890625 179.363281 L 860 179.363281 L 860 170.476562 L 877.777344 170.476562 L 877.777344 161.589844 "/>
<path style="fill:none;stroke-width:4.444444;stroke-linecap:round;stroke-linejoin:miter;stroke:rgb(99.998474%,99.998474%,99.998474%);stroke-opacity:1;stroke-miterlimit:4;" d="M 877.777344 170.476562 L 877.777344 179.363281 L 895.554688 179.363281 L 895.554688 161.589844 "/>
<path style="fill:none;stroke-width:4.444444;stroke-linecap:round;stroke-linejoin:miter;stroke:rgb(99.998474%,99.998474%,99.998474%);stroke-opacity:1;stroke-miterlimit:4;" d="M 886.664062 161.589844 L 886.664062 179.363281 "/>
<path style="fill:none;stroke-width:4.444444;stroke-linecap:round;stroke-linejoin:miter;stroke:rgb(99.998474%,99.998474%,99.998474%);stroke-opacity:1;stroke-miterlimit:4;" d="M 824.445312 179.363281 L 824.449219 179.363281 "/>
<path style="fill:none;stroke-width:5.312127;stroke-linecap:round;stroke-linejoin:miter;stroke:rgb(99.998474%,99.998474%,99.998474%);stroke-opacity:1;stroke-miterlimit:4;" d="M 815.558594 189.203125 L 851.109375 189.203125 "/>
<path style="fill:none;stroke-width:5.312127;stroke-linecap:round;stroke-linejoin:miter;stroke:rgb(99.998474%,99.998474%,99.998474%);stroke-opacity:1;stroke-miterlimit:4;" d="M 860 189.203125 L 895.554688 189.203125 "/>
<path style="fill:none;stroke-width:4.444444;stroke-linecap:round;stroke-linejoin:miter;stroke:rgb(99.998474%,99.998474%,99.998474%);stroke-opacity:1;stroke-miterlimit:4;" d="M 815.558594 392.0625 L 868.890625 392.0625 "/>
<path style="fill:none;stroke-width:4.444444;stroke-linecap:round;stroke-linejoin:miter;stroke:rgb(99.998474%,99.998474%,99.998474%);stroke-opacity:1;stroke-miterlimit:4;" d="M 815.558594 409.839844 L 815.558594 400.953125 L 833.332031 400.953125 L 833.332031 409.839844 L 851.109375 409.839844 L 851.109375 400.953125 L 842.222656 400.953125 "/>
<path style="fill:none;stroke-width:4.444444;stroke-linecap:round;stroke-linejoin:miter;stroke:rgb(99.998474%,99.998474%,99.998474%);stroke-opacity:1;stroke-miterlimit:4;" d="M 868.890625 409.839844 L 860 409.839844 L 860 400.953125 L 877.777344 400.953125 L 877.777344 392.0625 "/>
<path style="fill:none;stroke-width:4.444444;stroke-linecap:round;stroke-linejoin:miter;stroke:rgb(99.998474%,99.998474%,99.998474%);stroke-opacity:1;stroke-miterlimit:4;" d="M 877.777344 400.953125 L 877.777344 409.839844 L 895.554688 409.839844 L 895.554688 392.0625 "/>
<path style="fill:none;stroke-width:4.444444;stroke-linecap:round;stroke-linejoin:miter;stroke:rgb(99.998474%,99.998474%,99.998474%);stroke-opacity:1;stroke-miterlimit:4;" d="M 886.664062 392.0625 L 886.664062 409.839844 "/>
<path style="fill:none;stroke-width:4.444444;stroke-linecap:round;stroke-linejoin:miter;stroke:rgb(99.998474%,99.998474%,99.998474%);stroke-opacity:1;stroke-miterlimit:4;" d="M 824.445312 409.839844 L 824.449219 409.839844 "/>
<path style="fill:none;stroke-width:5.312127;stroke-linecap:round;stroke-linejoin:miter;stroke:rgb(99.998474%,99.998474%,99.998474%);stroke-opacity:1;stroke-miterlimit:4;" d="M 815.558594 382.222656 L 851.109375 382.222656 "/>
<path style="fill:none;stroke-width:5.312127;stroke-linecap:round;stroke-linejoin:miter;stroke:rgb(99.998474%,99.998474%,99.998474%);stroke-opacity:1;stroke-miterlimit:4;" d="M 860 382.222656 L 895.554688 382.222656 "/>
<path style="fill:none;stroke-width:4.444444;stroke-linecap:round;stroke-linejoin:miter;stroke:rgb(99.998474%,99.998474%,99.998474%);stroke-opacity:1;stroke-miterlimit:4;" d="M 904.445312 161.589844 L 957.777344 161.589844 "/>
<path style="fill:none;stroke-width:4.444444;stroke-linecap:round;stroke-linejoin:miter;stroke:rgb(99.998474%,99.998474%,99.998474%);stroke-opacity:1;stroke-miterlimit:4;" d="M 904.445312 179.363281 L 904.445312 170.476562 L 922.222656 170.476562 L 922.222656 179.363281 L 940 179.363281 L 940 170.476562 L 931.109375 170.476562 "/>
<path style="fill:none;stroke-width:4.444444;stroke-linecap:round;stroke-linejoin:miter;stroke:rgb(99.998474%,99.998474%,99.998474%);stroke-opacity:1;stroke-miterlimit:4;" d="M 957.777344 179.363281 L 948.890625 179.363281 L 948.890625 170.476562 L 966.667969 170.476562 L 966.667969 161.589844 "/>
<path style="fill:none;stroke-width:4.444444;stroke-linecap:round;stroke-linejoin:miter;stroke:rgb(99.998474%,99.998474%,99.998474%);stroke-opacity:1;stroke-miterlimit:4;" d="M 966.667969 170.476562 L 966.667969 179.363281 L 984.441406 179.363281 L 984.441406 161.589844 "/>
<path style="fill:none;stroke-width:4.444444;stroke-linecap:round;stroke-linejoin:miter;stroke:rgb(99.998474%,99.998474%,99.998474%);stroke-opacity:1;stroke-miterlimit:4;" d="M 975.554688 161.589844 L 975.554688 179.363281 "/>
<path style="fill:none;stroke-width:4.444444;stroke-linecap:round;stroke-linejoin:miter;stroke:rgb(99.998474%,99.998474%,99.998474%);stroke-opacity:1;stroke-miterlimit:4;" d="M 913.335938 179.363281 L 913.335938 179.363281 "/>
<path style="fill:none;stroke-width:5.312127;stroke-linecap:round;stroke-linejoin:miter;stroke:rgb(99.998474%,99.998474%,99.998474%);stroke-opacity:1;stroke-miterlimit:4;" d="M 904.445312 189.203125 L 940 189.203125 "/>
<path style="fill:none;stroke-width:5.312127;stroke-linecap:round;stroke-linejoin:miter;stroke:rgb(99.998474%,99.998474%,99.998474%);stroke-opacity:1;stroke-miterlimit:4;" d="M 948.890625 189.203125 L 984.441406 189.203125 "/>
<path style="fill:none;stroke-width:4.444444;stroke-linecap:round;stroke-linejoin:miter;stroke:rgb(99.998474%,99.998474%,99.998474%);stroke-opacity:1;stroke-miterlimit:4;" d="M 904.445312 392.0625 L 957.777344 392.0625 "/>
<path style="fill:none;stroke-width:4.444444;stroke-linecap:round;stroke-linejoin:miter;stroke:rgb(99.998474%,99.998474%,99.998474%);stroke-opacity:1;stroke-miterlimit:4;" d="M 904.445312 409.839844 L 904.445312 400.953125 L 922.222656 400.953125 L 922.222656 409.839844 L 940 409.839844 L 940 400.953125 L 931.109375 400.953125 "/>
<path style="fill:none;stroke-width:4.444444;stroke-linecap:round;stroke-linejoin:miter;stroke:rgb(99.998474%,99.998474%,99.998474%);stroke-opacity:1;stroke-miterlimit:4;" d="M 957.777344 409.839844 L 948.890625 409.839844 L 948.890625 400.953125 L 966.667969 400.953125 L 966.667969 392.0625 "/>
<path style="fill:none;stroke-width:4.444444;stroke-linecap:round;stroke-linejoin:miter;stroke:rgb(99.998474%,99.998474%,99.998474%);stroke-opacity:1;stroke-miterlimit:4;" d="M 966.667969 400.953125 L 966.667969 409.839844 L 984.441406 409.839844 L 984.441406 392.0625 "/>
<path style="fill:none;stroke-width:4.444444;stroke-linecap:round;stroke-linejoin:miter;stroke:rgb(99.998474%,99.998474%,99.998474%);stroke-opacity:1;stroke-miterlimit:4;" d="M 975.554688 392.0625 L 975.554688 409.839844 "/>
<path style="fill:none;stroke-width:4.444444;stroke-linecap:round;stroke-linejoin:miter;stroke:rgb(99.998474%,99.998474%,99.998474%);stroke-opacity:1;stroke-miterlimit:4;" d="M 913.335938 409.839844 L 913.335938 409.839844 "/>
<path style="fill:none;stroke-width:5.312127;stroke-linecap:round;stroke-linejoin:miter;stroke:rgb(99.998474%,99.998474%,99.998474%);stroke-opacity:1;stroke-miterlimit:4;" d="M 904.445312 382.222656 L 940 382.222656 "/>
<path style="fill:none;stroke-width:5.312127;stroke-linecap:round;stroke-linejoin:miter;stroke:rgb(99.998474%,99.998474%,99.998474%);stroke-opacity:1;stroke-miterlimit:4;" d="M 948.890625 382.222656 L 984.441406 382.222656 "/>
<path style="fill:none;stroke-width:4.444444;stroke-linecap:round;stroke-linejoin:miter;stroke:rgb(99.998474%,99.998474%,99.998474%);stroke-opacity:1;stroke-miterlimit:4;" d="M 637.78125 161.589844 L 691.113281 161.589844 "/>
<path style="fill:none;stroke-width:4.444444;stroke-linecap:round;stroke-linejoin:miter;stroke:rgb(99.998474%,99.998474%,99.998474%);stroke-opacity:1;stroke-miterlimit:4;" d="M 637.78125 179.363281 L 637.78125 170.476562 L 655.554688 170.476562 L 655.554688 179.363281 L 673.332031 179.363281 L 673.332031 170.476562 L 664.445312 170.476562 "/>
<path style="fill:none;stroke-width:4.444444;stroke-linecap:round;stroke-linejoin:miter;stroke:rgb(99.998474%,99.998474%,99.998474%);stroke-opacity:1;stroke-miterlimit:4;" d="M 691.113281 179.363281 L 682.222656 179.363281 L 682.222656 170.476562 L 700 170.476562 L 700 161.589844 "/>
<path style="fill:none;stroke-width:4.444444;stroke-linecap:round;stroke-linejoin:miter;stroke:rgb(99.998474%,99.998474%,99.998474%);stroke-opacity:1;stroke-miterlimit:4;" d="M 700 170.476562 L 700 179.363281 L 717.777344 179.363281 L 717.777344 161.589844 "/>
<path style="fill:none;stroke-width:4.444444;stroke-linecap:round;stroke-linejoin:miter;stroke:rgb(99.998474%,99.998474%,99.998474%);stroke-opacity:1;stroke-miterlimit:4;" d="M 708.886719 161.589844 L 708.886719 179.363281 "/>
<path style="fill:none;stroke-width:4.444444;stroke-linecap:round;stroke-linejoin:miter;stroke:rgb(99.998474%,99.998474%,99.998474%);stroke-opacity:1;stroke-miterlimit:4;" d="M 646.667969 179.363281 L 646.671875 179.363281 "/>
<path style="fill:none;stroke-width:5.312127;stroke-linecap:round;stroke-linejoin:miter;stroke:rgb(99.998474%,99.998474%,99.998474%);stroke-opacity:1;stroke-miterlimit:4;" d="M 637.777344 189.203125 L 673.332031 189.203125 "/>
<path style="fill:none;stroke-width:5.312127;stroke-linecap:round;stroke-linejoin:miter;stroke:rgb(99.998474%,99.998474%,99.998474%);stroke-opacity:1;stroke-miterlimit:4;" d="M 682.222656 189.203125 L 717.777344 189.203125 "/>
<path style="fill:none;stroke-width:4.444444;stroke-linecap:round;stroke-linejoin:miter;stroke:rgb(99.998474%,99.998474%,99.998474%);stroke-opacity:1;stroke-miterlimit:4;" d="M 637.78125 392.0625 L 691.113281 392.0625 "/>
<path style="fill:none;stroke-width:4.444444;stroke-linecap:round;stroke-linejoin:miter;stroke:rgb(99.998474%,99.998474%,99.998474%);stroke-opacity:1;stroke-miterlimit:4;" d="M 637.78125 409.839844 L 637.78125 400.953125 L 655.554688 400.953125 L 655.554688 409.839844 L 673.332031 409.839844 L 673.332031 400.953125 L 664.445312 400.953125 "/>
<path style="fill:none;stroke-width:4.444444;stroke-linecap:round;stroke-linejoin:miter;stroke:rgb(99.998474%,99.998474%,99.998474%);stroke-opacity:1;stroke-miterlimit:4;" d="M 691.113281 409.839844 L 682.222656 409.839844 L 682.222656 400.953125 L 700 400.953125 L 700 392.0625 "/>
<path style="fill:none;stroke-width:4.444444;stroke-linecap:round;stroke-linejoin:miter;stroke:rgb(99.998474%,99.998474%,99.998474%);stroke-opacity:1;stroke-miterlimit:4;" d="M 700 400.953125 L 700 409.839844 L 717.777344 409.839844 L 717.777344 392.0625 "/>
<path style="fill:none;stroke-width:4.444444;stroke-linecap:round;stroke-linejoin:miter;stroke:rgb(99.998474%,99.998474%,99.998474%);stroke-opacity:1;stroke-miterlimit:4;" d="M 708.886719 392.0625 L 708.886719 409.839844 "/>
<path style="fill:none;stroke-width:4.444444;stroke-linecap:round;stroke-linejoin:miter;stroke:rgb(99.998474%,99.998474%,99.998474%);stroke-opacity:1;stroke-miterlimit:4;" d="M 646.667969 409.839844 L 646.671875 409.839844 "/>
<path style="fill:none;stroke-width:5.312127;stroke-linecap:round;stroke-linejoin:miter;stroke:rgb(99.998474%,99.998474%,99.998474%);stroke-opacity:1;stroke-miterlimit:4;" d="M 637.777344 382.222656 L 673.332031 382.222656 "/>
<path style="fill:none;stroke-width:5.312127;stroke-linecap:round;stroke-linejoin:miter;stroke:rgb(99.998474%,99.998474%,99.998474%);stroke-opacity:1;stroke-miterlimit:4;" d="M 682.222656 382.222656 L 717.777344 382.222656 "/>
<path style="fill:none;stroke-width:4.444444;stroke-linecap:round;stroke-linejoin:miter;stroke:rgb(99.998474%,99.998474%,99.998474%);stroke-opacity:1;stroke-miterlimit:4;" d="M 726.667969 161.589844 L 780 161.589844 "/>
<path style="fill:none;stroke-width:4.444444;stroke-linecap:round;stroke-linejoin:miter;stroke:rgb(99.998474%,99.998474%,99.998474%);stroke-opacity:1;stroke-miterlimit:4;" d="M 726.667969 179.363281 L 726.667969 170.476562 L 744.445312 170.476562 L 744.445312 179.363281 L 762.21875 179.363281 L 762.21875 170.476562 L 753.332031 170.476562 "/>
<path style="fill:none;stroke-width:4.444444;stroke-linecap:round;stroke-linejoin:miter;stroke:rgb(99.998474%,99.998474%,99.998474%);stroke-opacity:1;stroke-miterlimit:4;" d="M 780 179.363281 L 771.113281 179.363281 L 771.113281 170.476562 L 788.890625 170.476562 L 788.890625 161.589844 "/>
<path style="fill:none;stroke-width:4.444444;stroke-linecap:round;stroke-linejoin:miter;stroke:rgb(99.998474%,99.998474%,99.998474%);stroke-opacity:1;stroke-miterlimit:4;" d="M 788.890625 170.476562 L 788.890625 179.363281 L 806.664062 179.363281 L 806.664062 161.589844 "/>
<path style="fill:none;stroke-width:4.444444;stroke-linecap:round;stroke-linejoin:miter;stroke:rgb(99.998474%,99.998474%,99.998474%);stroke-opacity:1;stroke-miterlimit:4;" d="M 797.777344 161.589844 L 797.777344 179.363281 "/>
<path style="fill:none;stroke-width:4.444444;stroke-linecap:round;stroke-linejoin:miter;stroke:rgb(99.998474%,99.998474%,99.998474%);stroke-opacity:1;stroke-miterlimit:4;" d="M 735.554688 179.363281 L 735.558594 179.363281 "/>
<path style="fill:none;stroke-width:5.312127;stroke-linecap:round;stroke-linejoin:miter;stroke:rgb(99.998474%,99.998474%,99.998474%);stroke-opacity:1;stroke-miterlimit:4;" d="M 726.667969 189.203125 L 762.222656 189.203125 "/>
<path style="fill:none;stroke-width:5.312127;stroke-linecap:round;stroke-linejoin:miter;stroke:rgb(99.998474%,99.998474%,99.998474%);stroke-opacity:1;stroke-miterlimit:4;" d="M 771.113281 189.203125 L 806.664062 189.203125 "/>
<path style="fill:none;stroke-width:4.444444;stroke-linecap:round;stroke-linejoin:miter;stroke:rgb(99.998474%,99.998474%,99.998474%);stroke-opacity:1;stroke-miterlimit:4;" d="M 726.667969 392.0625 L 780 392.0625 "/>
<path style="fill:none;stroke-width:4.444444;stroke-linecap:round;stroke-linejoin:miter;stroke:rgb(99.998474%,99.998474%,99.998474%);stroke-opacity:1;stroke-miterlimit:4;" d="M 726.667969 409.839844 L 726.667969 400.953125 L 744.445312 400.953125 L 744.445312 409.839844 L 762.21875 409.839844 L 762.21875 400.953125 L 753.332031 400.953125 "/>
<path style="fill:none;stroke-width:4.444444;stroke-linecap:round;stroke-linejoin:miter;stroke:rgb(99.998474%,99.998474%,99.998474%);stroke-opacity:1;stroke-miterlimit:4;" d="M 780 409.839844 L 771.113281 409.839844 L 771.113281 400.953125 L 788.890625 400.953125 L 788.890625 392.0625 "/>
<path style="fill:none;stroke-width:4.444444;stroke-linecap:round;stroke-linejoin:miter;stroke:rgb(99.998474%,99.998474%,99.998474%);stroke-opacity:1;stroke-miterlimit:4;" d="M 788.890625 400.953125 L 788.890625 409.839844 L 806.664062 409.839844 L 806.664062 392.0625 "/>
<path style="fill:none;stroke-width:4.444444;stroke-linecap:round;stroke-linejoin:miter;stroke:rgb(99.998474%,99.998474%,99.998474%);stroke-opacity:1;stroke-miterlimit:4;" d="M 797.777344 392.0625 L 797.777344 409.839844 "/>
<path style="fill:none;stroke-width:4.444444;stroke-linecap:round;stroke-linejoin:miter;stroke:rgb(99.998474%,99.998474%,99.998474%);stroke-opacity:1;stroke-miterlimit:4;" d="M 735.554688 409.839844 L 735.558594 409.839844 "/>
<path style="fill:none;stroke-width:5.312127;stroke-linecap:round;stroke-linejoin:miter;stroke:rgb(99.998474%,99.998474%,99.998474%);stroke-opacity:1;stroke-miterlimit:4;" d="M 726.667969 382.222656 L 762.222656 382.222656 "/>
<path style="fill:none;stroke-width:5.312127;stroke-linecap:round;stroke-linejoin:miter;stroke:rgb(99.998474%,99.998474%,99.998474%);stroke-opacity:1;stroke-miterlimit:4;" d="M 771.113281 382.222656 L 806.664062 382.222656 "/>
<path style="fill:none;stroke-width:4.444444;stroke-linecap:round;stroke-linejoin:miter;stroke:rgb(99.998474%,99.998474%,99.998474%);stroke-opacity:1;stroke-miterlimit:4;" d="M 193.335938 161.589844 L 246.667969 161.589844 "/>
<path style="fill:none;stroke-width:4.444444;stroke-linecap:round;stroke-linejoin:miter;stroke:rgb(99.998474%,99.998474%,99.998474%);stroke-opacity:1;stroke-miterlimit:4;" d="M 193.335938 179.363281 L 193.335938 170.476562 L 211.109375 170.476562 L 211.109375 179.363281 L 228.886719 179.363281 L 228.886719 170.476562 L 220 170.476562 "/>
<path style="fill:none;stroke-width:4.444444;stroke-linecap:round;stroke-linejoin:miter;stroke:rgb(99.998474%,99.998474%,99.998474%);stroke-opacity:1;stroke-miterlimit:4;" d="M 246.667969 179.363281 L 237.78125 179.363281 L 237.78125 170.476562 L 255.554688 170.476562 L 255.554688 161.589844 "/>
<path style="fill:none;stroke-width:4.444444;stroke-linecap:round;stroke-linejoin:miter;stroke:rgb(99.998474%,99.998474%,99.998474%);stroke-opacity:1;stroke-miterlimit:4;" d="M 255.554688 170.476562 L 255.554688 179.363281 L 273.332031 179.363281 L 273.332031 161.589844 "/>
<path style="fill:none;stroke-width:4.444444;stroke-linecap:round;stroke-linejoin:miter;stroke:rgb(99.998474%,99.998474%,99.998474%);stroke-opacity:1;stroke-miterlimit:4;" d="M 264.445312 161.589844 L 264.445312 179.363281 "/>
<path style="fill:none;stroke-width:4.444444;stroke-linecap:round;stroke-linejoin:miter;stroke:rgb(99.998474%,99.998474%,99.998474%);stroke-opacity:1;stroke-miterlimit:4;" d="M 202.222656 179.363281 L 202.226562 179.363281 "/>
<path style="fill:none;stroke-width:5.312127;stroke-linecap:round;stroke-linejoin:miter;stroke:rgb(99.998474%,99.998474%,99.998474%);stroke-opacity:1;stroke-miterlimit:4;" d="M 193.335938 189.203125 L 228.886719 189.203125 "/>
<path style="fill:none;stroke-width:5.312127;stroke-linecap:round;stroke-linejoin:miter;stroke:rgb(99.998474%,99.998474%,99.998474%);stroke-opacity:1;stroke-miterlimit:4;" d="M 237.777344 189.203125 L 273.332031 189.203125 "/>
<path style="fill:none;stroke-width:4.444444;stroke-linecap:round;stroke-linejoin:miter;stroke:rgb(99.998474%,99.998474%,99.998474%);stroke-opacity:1;stroke-miterlimit:4;" d="M 193.335938 392.0625 L 246.667969 392.0625 "/>
<path style="fill:none;stroke-width:4.444444;stroke-linecap:round;stroke-linejoin:miter;stroke:rgb(99.998474%,99.998474%,99.998474%);stroke-opacity:1;stroke-miterlimit:4;" d="M 193.335938 409.839844 L 193.335938 400.953125 L 211.109375 400.953125 L 211.109375 409.839844 L 228.886719 409.839844 L 228.886719 400.953125 L 220 400.953125 "/>
<path style="fill:none;stroke-width:4.444444;stroke-linecap:round;stroke-linejoin:miter;stroke:rgb(99.998474%,99.998474%,99.998474%);stroke-opacity:1;stroke-miterlimit:4;" d="M 246.667969 409.839844 L 237.78125 409.839844 L 237.78125 400.953125 L 255.554688 400.953125 L 255.554688 392.0625 "/>
<path style="fill:none;stroke-width:4.444444;stroke-linecap:round;stroke-linejoin:miter;stroke:rgb(99.998474%,99.998474%,99.998474%);stroke-opacity:1;stroke-miterlimit:4;" d="M 255.554688 400.953125 L 255.554688 409.839844 L 273.332031 409.839844 L 273.332031 392.0625 "/>
<path style="fill:none;stroke-width:4.444444;stroke-linecap:round;stroke-linejoin:miter;stroke:rgb(99.998474%,99.998474%,99.998474%);stroke-opacity:1;stroke-miterlimit:4;" d="M 264.445312 392.0625 L 264.445312 409.839844 "/>
<path style="fill:none;stroke-width:4.444444;stroke-linecap:round;stroke-linejoin:miter;stroke:rgb(99.998474%,99.998474%,99.998474%);stroke-opacity:1;stroke-miterlimit:4;" d="M 202.222656 409.839844 L 202.226562 409.839844 "/>
<path style="fill:none;stroke-width:5.312127;stroke-linecap:round;stroke-linejoin:miter;stroke:rgb(99.998474%,99.998474%,99.998474%);stroke-opacity:1;stroke-miterlimit:4;" d="M 193.335938 382.222656 L 228.886719 382.222656 "/>
<path style="fill:none;stroke-width:5.312127;stroke-linecap:round;stroke-linejoin:miter;stroke:rgb(99.998474%,99.998474%,99.998474%);stroke-opacity:1;stroke-miterlimit:4;" d="M 237.777344 382.222656 L 273.332031 382.222656 "/>
<path style="fill:none;stroke-width:4.444444;stroke-linecap:round;stroke-linejoin:miter;stroke:rgb(99.998474%,99.998474%,99.998474%);stroke-opacity:1;stroke-miterlimit:4;" d="M 15.558594 161.589844 L 68.890625 161.589844 "/>
<path style="fill:none;stroke-width:4.444444;stroke-linecap:round;stroke-linejoin:miter;stroke:rgb(99.998474%,99.998474%,99.998474%);stroke-opacity:1;stroke-miterlimit:4;" d="M 15.558594 179.363281 L 15.558594 170.476562 L 33.332031 170.476562 L 33.332031 179.363281 L 51.109375 179.363281 L 51.109375 170.476562 L 42.222656 170.476562 "/>
<path style="fill:none;stroke-width:4.444444;stroke-linecap:round;stroke-linejoin:miter;stroke:rgb(99.998474%,99.998474%,99.998474%);stroke-opacity:1;stroke-miterlimit:4;" d="M 68.890625 179.363281 L 60 179.363281 L 60 170.476562 L 77.777344 170.476562 L 77.777344 161.589844 "/>
<path style="fill:none;stroke-width:4.444444;stroke-linecap:round;stroke-linejoin:miter;stroke:rgb(99.998474%,99.998474%,99.998474%);stroke-opacity:1;stroke-miterlimit:4;" d="M 77.777344 170.476562 L 77.777344 179.363281 L 95.554688 179.363281 L 95.554688 161.589844 "/>
<path style="fill:none;stroke-width:4.444444;stroke-linecap:round;stroke-linejoin:miter;stroke:rgb(99.998474%,99.998474%,99.998474%);stroke-opacity:1;stroke-miterlimit:4;" d="M 86.664062 161.589844 L 86.664062 179.363281 "/>
<path style="fill:none;stroke-width:4.444444;stroke-linecap:round;stroke-linejoin:miter;stroke:rgb(99.998474%,99.998474%,99.998474%);stroke-opacity:1;stroke-miterlimit:4;" d="M 24.445312 179.363281 L 24.449219 179.363281 "/>
<path style="fill:none;stroke-width:5.312127;stroke-linecap:round;stroke-linejoin:miter;stroke:rgb(99.998474%,99.998474%,99.998474%);stroke-opacity:1;stroke-miterlimit:4;" d="M 15.558594 189.203125 L 51.109375 189.203125 "/>
<path style="fill:none;stroke-width:5.312127;stroke-linecap:round;stroke-linejoin:miter;stroke:rgb(99.998474%,99.998474%,99.998474%);stroke-opacity:1;stroke-miterlimit:4;" d="M 60 189.203125 L 95.554688 189.203125 "/>
<path style="fill:none;stroke-width:4.444444;stroke-linecap:round;stroke-linejoin:miter;stroke:rgb(99.998474%,99.998474%,99.998474%);stroke-opacity:1;stroke-miterlimit:4;" d="M 15.558594 392.0625 L 68.890625 392.0625 "/>
<path style="fill:none;stroke-width:4.444444;stroke-linecap:round;stroke-linejoin:miter;stroke:rgb(99.998474%,99.998474%,99.998474%);stroke-opacity:1;stroke-miterlimit:4;" d="M 15.558594 409.839844 L 15.558594 400.953125 L 33.332031 400.953125 L 33.332031 409.839844 L 51.109375 409.839844 L 51.109375 400.953125 L 42.222656 400.953125 "/>
<path style="fill:none;stroke-width:4.444444;stroke-linecap:round;stroke-linejoin:miter;stroke:rgb(99.998474%,99.998474%,99.998474%);stroke-opacity:1;stroke-miterlimit:4;" d="M 68.890625 409.839844 L 60 409.839844 L 60 400.953125 L 77.777344 400.953125 L 77.777344 392.0625 "/>
<path style="fill:none;stroke-width:4.444444;stroke-linecap:round;stroke-linejoin:miter;stroke:rgb(99.998474%,99.998474%,99.998474%);stroke-opacity:1;stroke-miterlimit:4;" d="M 77.777344 400.953125 L 77.777344 409.839844 L 95.554688 409.839844 L 95.554688 392.0625 "/>
<path style="fill:none;stroke-width:4.444444;stroke-linecap:round;stroke-linejoin:miter;stroke:rgb(99.998474%,99.998474%,99.998474%);stroke-opacity:1;stroke-miterlimit:4;" d="M 86.664062 392.0625 L 86.664062 409.839844 "/>
<path style="fill:none;stroke-width:4.444444;stroke-linecap:round;stroke-linejoin:miter;stroke:rgb(99.998474%,99.998474%,99.998474%);stroke-opacity:1;stroke-miterlimit:4;" d="M 24.445312 409.839844 L 24.449219 409.839844 "/>
<path style="fill:none;stroke-width:5.312127;stroke-linecap:round;stroke-linejoin:miter;stroke:rgb(99.998474%,99.998474%,99.998474%);stroke-opacity:1;stroke-miterlimit:4;" d="M 15.558594 382.222656 L 51.109375 382.222656 "/>
<path style="fill:none;stroke-width:5.312127;stroke-linecap:round;stroke-linejoin:miter;stroke:rgb(99.998474%,99.998474%,99.998474%);stroke-opacity:1;stroke-miterlimit:4;" d="M 60 382.222656 L 95.554688 382.222656 "/>
<path style="fill:none;stroke-width:4.444444;stroke-linecap:round;stroke-linejoin:miter;stroke:rgb(99.998474%,99.998474%,99.998474%);stroke-opacity:1;stroke-miterlimit:4;" d="M 104.445312 161.589844 L 157.777344 161.589844 "/>
<path style="fill:none;stroke-width:4.444444;stroke-linecap:round;stroke-linejoin:miter;stroke:rgb(99.998474%,99.998474%,99.998474%);stroke-opacity:1;stroke-miterlimit:4;" d="M 104.445312 179.363281 L 104.445312 170.476562 L 122.222656 170.476562 L 122.222656 179.363281 L 140 179.363281 L 140 170.476562 L 131.109375 170.476562 "/>
<path style="fill:none;stroke-width:4.444444;stroke-linecap:round;stroke-linejoin:miter;stroke:rgb(99.998474%,99.998474%,99.998474%);stroke-opacity:1;stroke-miterlimit:4;" d="M 157.777344 179.363281 L 148.890625 179.363281 L 148.890625 170.476562 L 166.667969 170.476562 L 166.667969 161.589844 "/>
<path style="fill:none;stroke-width:4.444444;stroke-linecap:round;stroke-linejoin:miter;stroke:rgb(99.998474%,99.998474%,99.998474%);stroke-opacity:1;stroke-miterlimit:4;" d="M 166.667969 170.476562 L 166.667969 179.363281 L 184.441406 179.363281 L 184.441406 161.589844 "/>
<path style="fill:none;stroke-width:4.444444;stroke-linecap:round;stroke-linejoin:miter;stroke:rgb(99.998474%,99.998474%,99.998474%);stroke-opacity:1;stroke-miterlimit:4;" d="M 175.554688 161.589844 L 175.554688 179.363281 "/>
<path style="fill:none;stroke-width:4.444444;stroke-linecap:round;stroke-linejoin:miter;stroke:rgb(99.998474%,99.998474%,99.998474%);stroke-opacity:1;stroke-miterlimit:4;" d="M 113.335938 179.363281 L 113.335938 179.363281 "/>
<path style="fill:none;stroke-width:5.312127;stroke-linecap:round;stroke-linejoin:miter;stroke:rgb(99.998474%,99.998474%,99.998474%);stroke-opacity:1;stroke-miterlimit:4;" d="M 104.445312 189.203125 L 140 189.203125 "/>
<path style="fill:none;stroke-width:5.312127;stroke-linecap:round;stroke-linejoin:miter;stroke:rgb(99.998474%,99.998474%,99.998474%);stroke-opacity:1;stroke-miterlimit:4;" d="M 148.890625 189.203125 L 184.441406 189.203125 "/>
<path style="fill:none;stroke-width:4.444444;stroke-linecap:round;stroke-linejoin:miter;stroke:rgb(99.998474%,99.998474%,99.998474%);stroke-opacity:1;stroke-miterlimit:4;" d="M 104.445312 392.0625 L 157.777344 392.0625 "/>
<path style="fill:none;stroke-width:4.444444;stroke-linecap:round;stroke-linejoin:miter;stroke:rgb(99.998474%,99.998474%,99.998474%);stroke-opacity:1;stroke-miterlimit:4;" d="M 104.445312 409.839844 L 104.445312 400.953125 L 122.222656 400.953125 L 122.222656 409.839844 L 140 409.839844 L 140 400.953125 L 131.109375 400.953125 "/>
<path style="fill:none;stroke-width:4.444444;stroke-linecap:round;stroke-linejoin:miter;stroke:rgb(99.998474%,99.998474%,99.998474%);stroke-opacity:1;stroke-miterlimit:4;" d="M 157.777344 409.839844 L 148.890625 409.839844 L 148.890625 400.953125 L 166.667969 400.953125 L 166.667969 392.0625 "/>
<path style="fill:none;stroke-width:4.444444;stroke-linecap:round;stroke-linejoin:miter;stroke:rgb(99.998474%,99.998474%,99.998474%);stroke-opacity:1;stroke-miterlimit:4;" d="M 166.667969 400.953125 L 166.667969 409.839844 L 184.441406 409.839844 L 184.441406 392.0625 "/>
<path style="fill:none;stroke-width:4.444444;stroke-linecap:round;stroke-linejoin:miter;stroke:rgb(99.998474%,99.998474%,99.998474%);stroke-opacity:1;stroke-miterlimit:4;" d="M 175.554688 392.0625 L 175.554688 409.839844 "/>
<path style="fill:none;stroke-width:4.444444;stroke-linecap:round;stroke-linejoin:miter;stroke:rgb(99.998474%,99.998474%,99.998474%);stroke-opacity:1;stroke-miterlimit:4;" d="M 113.335938 409.839844 L 113.335938 409.839844 "/>
<path style="fill:none;stroke-width:5.312127;stroke-linecap:round;stroke-linejoin:miter;stroke:rgb(99.998474%,99.998474%,99.998474%);stroke-opacity:1;stroke-miterlimit:4;" d="M 104.445312 382.222656 L 140 382.222656 "/>
<path style="fill:none;stroke-width:5.312127;stroke-linecap:round;stroke-linejoin:miter;stroke:rgb(99.998474%,99.998474%,99.998474%);stroke-opacity:1;stroke-miterlimit:4;" d="M 148.890625 382.222656 L 184.441406 382.222656 "/>
<path style=" stroke:none;fill-rule:evenodd;fill:rgb(85.488892%,0%,0%);fill-opacity:1;" d="M 529.097656 234.652344 C 529.097656 234.652344 580.78125 275.070312 542.792969 333.15625 C 578.570312 311.292969 581.664062 251.164062 529.097656 234.652344 Z M 529.097656 234.652344 "/>
<path style=" stroke:none;fill-rule:evenodd;fill:rgb(85.488892%,0%,0%);fill-opacity:1;" d="M 500 228.914062 C 491.777344 238.1875 477.636719 228.964844 482.496094 218.863281 C 491 234.101562 500 221.789062 500 221.789062 C 500 221.789062 509 234.101562 517.503906 218.863281 C 522.363281 228.964844 508.226562 238.1875 500 228.914062 Z M 500 228.914062 "/>
<path style=" stroke:none;fill-rule:evenodd;fill:rgb(85.488892%,0%,0%);fill-opacity:1;" d="M 500 354.804688 L 494.09375 347.078125 C 494.09375 347.078125 480.179688 351.714844 461.847656 345.308594 C 476.867188 345.308594 485.257812 342.660156 488.347656 341.113281 C 488.347656 341.113281 454.335938 322.78125 454.996094 285.453125 C 456.988281 247.6875 477.085938 236.199219 477.085938 236.199219 C 477.085938 236.199219 441.308594 288.324219 493.871094 331.890625 L 491.550781 277.996094 L 491.550781 238.40625 C 494.535156 237.6875 500 231.394531 500 231.394531 C 500 231.394531 505.464844 237.6875 508.449219 238.40625 L 508.449219 277.996094 L 506.128906 331.890625 C 558.691406 288.324219 522.914062 236.199219 522.914062 236.199219 C 522.914062 236.199219 543.011719 247.679688 545 285.449219 C 545.664062 322.777344 511.648438 341.109375 511.648438 341.109375 C 514.738281 342.65625 523.132812 345.304688 538.152344 345.304688 C 519.820312 351.710938 505.90625 347.074219 505.90625 347.074219 L 499.996094 354.800781 Z M 500 354.804688 "/>
<path style=" stroke:none;fill-rule:evenodd;fill:rgb(85.488892%,0%,0%);fill-opacity:1;" d="M 470.90625 234.652344 C 470.90625 234.652344 419.222656 275.070312 457.210938 333.15625 C 421.429688 311.292969 418.335938 251.164062 470.90625 234.652344 Z M 470.90625 234.652344 "/>
</g>
</svg>
