<?xml version="1.0" encoding="UTF-8"?>
<svg xmlns="http://www.w3.org/2000/svg" xmlns:xlink="http://www.w3.org/1999/xlink" viewBox="0 0 1000 500" version="1.1">
<g id="surface600">
<rect x="0" y="0" width="1000" height="500" style="fill:rgb(85.525513%,0%,6.422424%);fill-opacity:1;stroke:none;"/>
<path style=" stroke:none;fill-rule:evenodd;fill:rgb(96.098328%,90.99884%,2.2995%);fill-opacity:1;" d="M 535.917969 361.230469 L 529.082031 366.835938 C 529.082031 366.835938 530.589844 377.757812 530.585938 377.925781 C 530.585938 378.09375 523.785156 371.429688 523.785156 371.429688 L 520.542969 371.789062 C 520.503906 371.699219 520.464844 371.617188 520.417969 371.53125 C 520.414062 371.527344 520.410156 371.515625 520.40625 371.507812 C 519.214844 369.230469 517.082031 367.867188 515.25 367.148438 L 515.230469 367.144531 C 515.1875 367.128906 515.152344 367.113281 515.105469 367.097656 C 515.253906 365.433594 515.390625 362.90625 515.292969 362.714844 C 515.289062 362.710938 515.289062 362.703125 515.28125 362.707031 C 515.113281 362.707031 507.714844 353.96875 507.46875 353.492188 C 507.464844 353.480469 507.460938 353.476562 507.46875 353.480469 C 507.640625 353.480469 517.519531 355.722656 517.515625 355.378906 C 517.519531 355.042969 521.46875 345.675781 521.472656 345.503906 C 521.46875 345.5 521.480469 345.503906 521.488281 345.523438 C 521.789062 346.109375 526.210938 356.941406 526.210938 356.941406 Z M 535.917969 361.230469 "/>
<path style="fill:none;stroke-width:1.388889;stroke-linecap:square;stroke-linejoin:miter;stroke:rgb(2.590942%,3.305054%,3.385925%);stroke-opacity:1;stroke-miterlimit:4;" d="M 514.925781 368.503906 C 515.097656 367.988281 515.449219 362.707031 515.28125 362.707031 C 515.113281 362.707031 507.289062 353.472656 507.464844 353.480469 C 507.640625 353.480469 517.519531 355.722656 517.515625 355.378906 C 517.519531 355.042969 521.472656 345.675781 521.472656 345.503906 C 521.472656 345.328125 526.210938 356.941406 526.210938 356.941406 L 535.917969 361.234375 L 529.082031 366.835938 C 529.082031 366.835938 530.585938 377.757812 530.585938 377.929688 C 530.585938 378.097656 523.785156 371.429688 523.785156 371.429688 L 516.28125 372.257812 C 516.28125 372.257812 515.269531 368.847656 514.925781 368.503906 Z M 514.925781 368.503906 "/>
<path style="fill-rule:evenodd;fill:rgb(99.998474%,99.998474%,99.998474%);fill-opacity:1;stroke-width:1.388889;stroke-linecap:square;stroke-linejoin:miter;stroke:rgb(2.590942%,3.305054%,3.385925%);stroke-opacity:1;stroke-miterlimit:4;" d="M 462.496094 225.054688 C 456.007812 228.378906 431.066406 256.730469 427.640625 261.152344 C 424.765625 267.582031 419.152344 275.707031 413.378906 280.933594 C 407.21875 285.566406 403.792969 291.902344 404.617188 297.925781 C 404.527344 305.40625 408.710938 310.507812 412.039062 315.78125 C 414.007812 318.191406 416.664062 319.753906 419.492188 319.949219 C 425.296875 320.738281 425.808594 322.527344 428.707031 323.636719 C 440.105469 339.253906 457.148438 350.792969 469.414062 359.921875 C 477.242188 364.078125 482.675781 368.226562 484.539062 370.488281 C 488.117188 377.367188 487.4375 384.066406 486.9375 387.355469 C 483.859375 398.832031 480.785156 410.300781 477.710938 421.773438 C 476.152344 431.148438 484.300781 429.0625 484.75 427.183594 C 488.441406 422.421875 493.917969 425.789062 501.839844 398.191406 C 505.445312 393.355469 509.058594 388.527344 512.671875 383.699219 C 512.671875 383.699219 516.824219 382.050781 516.824219 381.640625 C 523.15625 374.074219 518.359375 369.726562 514.789062 368.355469 C 512.160156 367.378906 509.535156 366.402344 506.914062 365.425781 C 506.914062 365.425781 497.8125 356.273438 497.394531 356.269531 C 493.09375 343.640625 471.753906 316.378906 466.816406 312.617188 C 461.984375 309.425781 463.964844 308.039062 458.792969 305.78125 C 454.957031 303.640625 457.597656 304.542969 449.007812 301.363281 C 446.464844 300.339844 448.285156 297.546875 449.902344 296.269531 C 466.796875 287.136719 480.1875 276.972656 496.402344 266.648438 C 497.238281 266.09375 498.066406 265.542969 498.898438 264.996094 C 496.992188 253.925781 495.085938 242.855469 493.179688 231.789062 C 484.203125 228.582031 475.222656 225.371094 466.242188 222.164062 C 464.824219 223.132812 463.746094 224.097656 462.496094 225.054688 Z M 462.496094 225.054688 "/>
<path style=" stroke:none;fill-rule:evenodd;fill:rgb(95.698547%,92.198181%,2.2995%);fill-opacity:1;" d="M 484.566406 399.882812 C 484.652344 399.539062 501.460938 396.519531 501.460938 396.519531 L 499.394531 402.742188 L 482.671875 407.714844 Z M 484.566406 399.882812 "/>
<path style="fill:none;stroke-width:1.388889;stroke-linecap:square;stroke-linejoin:miter;stroke:rgb(2.590942%,3.305054%,3.385925%);stroke-opacity:1;stroke-miterlimit:4;" d="M 440.980469 336.515625 C 444.246094 327.914062 453.257812 321.125 459.304688 319.261719 "/>
<path style="fill:none;stroke-width:1.536111;stroke-linecap:square;stroke-linejoin:miter;stroke:rgb(2.590942%,3.305054%,3.385925%);stroke-opacity:1;stroke-miterlimit:4;" d="M 480.894531 410.402344 C 481.035156 410.222656 482.183594 409.210938 483 408.722656 C 483.972656 408.421875 487.292969 407.027344 488.542969 406.8125 C 489.878906 406.460938 491.210938 406.074219 492.5 405.617188 C 493.980469 405.28125 494.90625 404.972656 496.453125 404.664062 C 497.652344 404.152344 498.847656 403.800781 500.136719 403.464844 "/>
<path style="fill:none;stroke-width:1.536111;stroke-linecap:square;stroke-linejoin:miter;stroke:rgb(2.590942%,3.305054%,3.385925%);stroke-opacity:1;stroke-miterlimit:4;" d="M 483.960938 400.03125 C 485.050781 399.726562 489.871094 398.335938 491.269531 398.125 C 492.769531 397.777344 494.257812 397.390625 495.695312 396.929688 C 497.359375 396.589844 498.394531 396.285156 500.125 395.976562 C 501.472656 395.464844 502.808594 395.113281 504.253906 394.777344 "/>
<path style="fill:none;stroke-width:1.388889;stroke-linecap:square;stroke-linejoin:miter;stroke:rgb(2.590942%,3.305054%,3.385925%);stroke-opacity:1;stroke-miterlimit:4;" d="M 487.917969 339.085938 L 487.679688 339.085938 C 488.433594 339.085938 487.96875 339.023438 486.949219 340.289062 C 486.582031 341.269531 483.480469 343.417969 481.15625 343.410156 C 480.027344 343.527344 478.300781 343.644531 477.171875 343.640625 C 476.851562 343.632812 476.40625 343.394531 476.082031 343.394531 "/>
<path style="fill:none;stroke-width:1.388889;stroke-linecap:square;stroke-linejoin:miter;stroke:rgb(2.590942%,3.305054%,3.385925%);stroke-opacity:1;stroke-miterlimit:4;" d="M 487.535156 388.761719 L 487.769531 388.765625 C 487.457031 388.765625 488.417969 388.769531 488.738281 388.765625 C 489.988281 388.773438 491.246094 388.996094 492.355469 389.019531 C 493.566406 389.023438 494.769531 389.367188 495.972656 389.371094 C 497.191406 389.546875 498.660156 389.496094 499.917969 389.675781 C 501.328125 389.730469 502.457031 390.011719 503.929688 390.015625 C 505.113281 390.066406 505.75 390.265625 507.0625 390.269531 L 503.929688 390.015625 C 505.113281 390.066406 505.75 390.265625 507.0625 390.269531 "/>
<path style="fill:none;stroke-width:1.388889;stroke-linecap:square;stroke-linejoin:miter;stroke:rgb(2.590942%,3.305054%,3.385925%);stroke-opacity:1;stroke-miterlimit:4;" d="M 479.253906 418.15625 C 479.382812 417.972656 480.433594 416.964844 481.183594 416.480469 C 482.074219 416.175781 485.105469 414.78125 486.253906 414.5625 C 487.480469 414.214844 488.695312 413.828125 489.875 413.371094 C 491.238281 413.03125 492.085938 412.71875 493.496094 412.410156 C 494.601562 411.898438 495.695312 411.550781 496.875 411.21875 "/>
<path style="fill:none;stroke-width:1.388889;stroke-linecap:square;stroke-linejoin:miter;stroke:rgb(2.590942%,3.305054%,3.385925%);stroke-opacity:1;stroke-miterlimit:4;" d="M 501.953125 376.3125 C 501.265625 378.285156 502.148438 378.789062 502.507812 379.644531 C 503.148438 380.472656 504.761719 381.742188 507.324219 382.550781 C 508.316406 382.820312 509.074219 383.085938 510.214844 383.523438 C 510.976562 383.589844 511.347656 383.789062 511.902344 384.007812 "/>
<path style="fill:none;stroke-width:1.388889;stroke-linecap:square;stroke-linejoin:miter;stroke:rgb(2.590942%,3.305054%,3.385925%);stroke-opacity:1;stroke-miterlimit:4;" d="M 406.75 303.410156 L 406.992188 303.410156 C 406.234375 303.40625 406.6875 303.457031 407.960938 302.449219 C 408.742188 301.578125 409.402344 301.179688 410.132812 300.28125 "/>
<path style="fill:none;stroke-width:1.388889;stroke-linecap:square;stroke-linejoin:miter;stroke:rgb(2.590942%,3.305054%,3.385925%);stroke-opacity:1;stroke-miterlimit:4;" d="M 422.316406 320.632812 C 422.476562 320.628906 436.367188 313.683594 437.847656 312.195312 C 438.898438 311.4375 439.695312 310.632812 440.972656 309.773438 C 441.792969 309.34375 442.378906 308.800781 443.148438 308.332031 C 443.789062 307.414062 444.621094 306.851562 445.085938 306.015625 C 445.9375 305.28125 445.574219 304.480469 446.265625 303.589844 C 446.597656 302.679688 447.210938 301.148438 447.414062 300.316406 "/>
<path style="fill:none;stroke-width:1.388889;stroke-linecap:square;stroke-linejoin:miter;stroke:rgb(2.590942%,3.305054%,3.385925%);stroke-opacity:1;stroke-miterlimit:4;" d="M 465.046875 310.738281 C 465.121094 311.234375 464.820312 312.773438 464.839844 313.941406 C 464.785156 315.296875 463.027344 319.476562 460.917969 320.726562 "/>
<path style="fill:none;stroke-width:1.388889;stroke-linecap:square;stroke-linejoin:miter;stroke:rgb(2.590942%,3.305054%,3.385925%);stroke-opacity:1;stroke-miterlimit:4;" d="M 440.128906 310.511719 C 440.210938 310.515625 442.324219 311.203125 445.851562 312.300781 C 450.089844 313.835938 458.90625 319.425781 459.78125 320.199219 C 460.671875 320.90625 462.273438 321.539062 462.882812 322.378906 C 463.839844 323.210938 464.542969 324.167969 465.285156 325.039062 C 466.164062 326.117188 466.917969 327.023438 467.449219 327.9375 C 470.125 330.117188 477.300781 345.199219 477.527344 346.050781 C 477.929688 346.84375 478.429688 347.957031 478.726562 348.703125 C 479.257812 349.320312 479.621094 350.199219 480.164062 351.125 C 480.667969 352.324219 481.226562 352.871094 481.851562 353.78125 C 482.644531 354.339844 483.714844 355.398438 484.738281 355.957031 C 485.820312 356.890625 486.835938 357.277344 487.617188 357.898438 C 488.757812 358.386719 501.441406 366.453125 502.03125 366.859375 C 503.1875 367.792969 506.726562 371.476562 504.226562 374.140625 C 503.171875 375.046875 502.214844 376.234375 501.3125 376.742188 C 500.390625 377.667969 499.113281 378.070312 498.050781 378.542969 C 492.324219 380.222656 489.410156 379.609375 488.285156 379.601562 C 487.882812 379.605469 487.476562 379.601562 487.082031 379.597656 "/>
<path style="fill:none;stroke-width:1.388889;stroke-linecap:square;stroke-linejoin:miter;stroke:rgb(2.590942%,3.305054%,3.385925%);stroke-opacity:1;stroke-miterlimit:4;" d="M 412.597656 282.199219 L 412.839844 282.207031 C 412.1875 282.207031 412.519531 282.191406 413.800781 282.449219 C 414.785156 282.878906 416.207031 283.304688 417.175781 283.664062 C 418.199219 283.992188 419.488281 284.160156 420.066406 284.636719 C 421.183594 284.832031 421.839844 285.480469 422.710938 286.09375 C 423.714844 287.007812 424.492188 287.597656 425.601562 288.269531 C 426.910156 289.179688 427.949219 289.628906 429.214844 290.449219 C 430.5 290.695312 431.441406 291.128906 432.828125 291.179688 C 434.132812 291.269531 435.300781 291.429688 436.6875 291.433594 C 437.808594 291.4375 438.941406 291.441406 440.0625 291.445312 L 436.6875 291.433594 C 437.808594 291.4375 438.941406 291.441406 440.0625 291.445312 "/>
<path style="fill-rule:evenodd;fill:rgb(95.698547%,92.198181%,2.2995%);fill-opacity:1;stroke-width:1.388889;stroke-linecap:square;stroke-linejoin:miter;stroke:rgb(2.590942%,3.305054%,3.385925%);stroke-opacity:1;stroke-miterlimit:4;" d="M 411.707031 298.117188 C 415.324219 297.890625 421.347656 298.988281 421.472656 298.992188 L 429.429688 298.894531 C 433.617188 298.503906 434.539062 296.898438 435.226562 295.773438 C 436.804688 293.363281 437.890625 292.527344 439.09375 290.71875 C 441.035156 289.28125 443.679688 292.660156 443.796875 292.660156 C 450.527344 299.070312 445.082031 306.894531 444.722656 307.132812 C 441.332031 310.21875 440.609375 310.417969 438.570312 308.4375 C 436.527344 306.027344 435.921875 304.9375 434.242188 304.089844 C 430.988281 302.515625 424.230469 303.699219 424.109375 303.695312 L 420.609375 305.015625 C 418.960938 305.613281 417.914062 307.058594 415.058594 307.53125 C 412.164062 307.726562 411.199219 307.4375 409.757812 305.105469 C 407.839844 302.085938 408.8125 298.472656 411.707031 298.117188 Z M 411.707031 298.117188 "/>
<path style="fill-rule:evenodd;fill:rgb(99.998474%,99.998474%,99.998474%);fill-opacity:1;stroke-width:1.388889;stroke-linecap:square;stroke-linejoin:miter;stroke:rgb(2.590942%,3.305054%,3.385925%);stroke-opacity:1;stroke-miterlimit:4;" d="M 441.613281 291.046875 L 449.359375 281.613281 L 457.320312 273.582031 L 465.84375 266.894531 L 474.800781 261.273438 L 482.789062 257.066406 L 490.855469 254.042969 Z M 441.613281 291.046875 "/>
<path style=" stroke:none;fill-rule:evenodd;fill:rgb(96.098328%,90.99884%,2.2995%);fill-opacity:1;" d="M 587.75 132.78125 L 596.023438 135.898438 C 596.023438 135.898438 604.726562 129.132812 604.875 129.046875 C 605.019531 128.964844 602.648438 138.1875 602.648438 138.1875 L 604.578125 140.816406 C 604.519531 140.894531 604.472656 140.972656 604.417969 141.050781 C 604.414062 141.058594 604.410156 141.070312 604.40625 141.074219 C 603.027344 143.246094 602.910156 145.773438 603.207031 147.71875 L 603.210938 147.738281 C 603.222656 147.785156 603.226562 147.824219 603.234375 147.871094 C 601.722656 148.574219 599.464844 149.71875 599.347656 149.898438 C 599.34375 149.902344 599.339844 149.910156 599.347656 149.914062 C 599.429688 150.058594 595.5625 160.835938 595.273438 161.285156 C 595.265625 161.296875 595.261719 161.304688 595.257812 161.292969 C 595.175781 161.148438 592.179688 151.46875 591.882812 151.640625 C 591.589844 151.808594 581.5 153.070312 581.351562 153.152344 C 581.347656 153.160156 581.347656 153.148438 581.359375 153.128906 C 581.71875 152.574219 588.886719 143.332031 588.886719 143.332031 Z M 587.75 132.78125 "/>
<path style="fill:none;stroke-width:1.388889;stroke-linecap:square;stroke-linejoin:miter;stroke:rgb(2.590942%,3.305054%,3.385925%);stroke-opacity:1;stroke-miterlimit:4;" d="M 604.546875 147.324219 C 604.011719 147.429688 599.261719 149.765625 599.34375 149.914062 C 599.429688 150.058594 595.34375 161.449219 595.265625 161.296875 C 595.175781 161.148438 592.179688 151.46875 591.882812 151.640625 C 591.589844 151.804688 581.5 153.070312 581.355469 153.152344 C 581.203125 153.242188 588.886719 143.332031 588.886719 143.332031 L 587.75 132.78125 L 596.023438 135.898438 C 596.023438 135.898438 604.726562 129.132812 604.875 129.046875 C 605.019531 128.964844 602.648438 138.1875 602.648438 138.1875 L 607.117188 144.273438 C 607.117188 144.273438 604.667969 146.855469 604.546875 147.324219 Z M 604.546875 147.324219 "/>
<path style="fill-rule:evenodd;fill:rgb(99.998474%,99.998474%,99.998474%);fill-opacity:1;stroke-width:1.388889;stroke-linecap:square;stroke-linejoin:miter;stroke:rgb(2.590942%,3.305054%,3.385925%);stroke-opacity:1;stroke-miterlimit:4;" d="M 506.527344 264.453125 C 512.652344 268.410156 549.675781 275.835938 555.21875 276.59375 C 562.226562 275.867188 572.066406 276.664062 579.480469 279.050781 C 586.570312 282.070312 593.773438 281.867188 598.574219 278.140625 C 605.101562 274.480469 607.425781 268.304688 610.328125 262.789062 C 611.433594 259.878906 611.457031 256.796875 610.214844 254.25 C 607.992188 248.828125 609.285156 247.492188 608.796875 244.425781 C 616.621094 226.746094 618.09375 206.21875 619.867188 191.027344 C 619.554688 182.175781 620.429688 175.390625 621.457031 172.648438 C 625.625 166.109375 631.765625 163.347656 634.867188 162.136719 C 646.34375 159.0625 657.8125 155.992188 669.285156 152.917969 C 678.183594 149.582031 672.300781 143.566406 670.453125 144.117188 C 664.480469 143.300781 664.65625 136.875 636.796875 143.8125 C 630.808594 143.105469 624.820312 142.390625 618.832031 141.675781 C 618.832031 141.675781 615.324219 138.90625 614.96875 139.113281 C 605.253906 137.410156 603.886719 143.738281 604.480469 147.519531 C 604.953125 150.28125 605.421875 153.042969 605.886719 155.800781 C 605.886719 155.800781 602.507812 168.257812 602.714844 168.621094 C 593.925781 178.664062 580.992188 210.777344 580.199219 216.933594 C 579.851562 222.710938 577.660156 221.691406 578.292969 227.296875 C 578.355469 231.6875 577.816406 228.949219 579.355469 237.980469 C 579.742188 240.695312 576.410156 240.515625 574.5 239.75 C 558.144531 229.6875 542.644531 223.171875 525.597656 214.292969 C 524.699219 213.847656 523.808594 213.402344 522.917969 212.957031 C 514.28125 220.148438 505.648438 227.328125 497.019531 234.511719 C 498.730469 243.890625 500.4375 253.273438 502.152344 262.652344 C 503.699219 263.398438 505.074219 263.847656 506.527344 264.453125 Z M 506.527344 264.453125 "/>
<path style=" stroke:none;fill-rule:evenodd;fill:rgb(95.698547%,92.198181%,2.2995%);fill-opacity:1;" d="M 646.898438 157.925781 C 646.558594 158.023438 635.539062 144.976562 635.539062 144.976562 L 641.960938 143.65625 L 654.628906 155.652344 Z M 646.898438 157.925781 "/>
<path style="fill:none;stroke-width:1.388889;stroke-linecap:square;stroke-linejoin:miter;stroke:rgb(2.590942%,3.305054%,3.385925%);stroke-opacity:1;stroke-miterlimit:4;" d="M 613.8125 227.355469 C 604.734375 228.828125 594.347656 224.417969 589.707031 220.117188 "/>
<path style="fill:none;stroke-width:1.536111;stroke-linecap:square;stroke-linejoin:miter;stroke:rgb(2.590942%,3.305054%,3.385925%);stroke-opacity:1;stroke-miterlimit:4;" d="M 657.847656 155.84375 C 657.617188 155.816406 656.167969 155.324219 655.335938 154.859375 C 654.589844 154.171875 651.722656 151.996094 650.910156 151.019531 C 649.941406 150.035156 648.941406 149.078125 647.898438 148.191406 C 646.867188 147.074219 646.136719 146.425781 645.09375 145.242188 C 644.054688 144.457031 643.148438 143.597656 642.21875 142.652344 "/>
<path style="fill:none;stroke-width:1.536111;stroke-linecap:square;stroke-linejoin:miter;stroke:rgb(2.590942%,3.305054%,3.385925%);stroke-opacity:1;stroke-miterlimit:4;" d="M 647.328125 158.375 C 646.519531 157.585938 642.90625 154.109375 642.023438 153 C 640.972656 151.875 639.894531 150.78125 638.777344 149.765625 C 637.652344 148.496094 636.867188 147.75 635.734375 146.402344 C 634.621094 145.492188 633.644531 144.511719 632.632812 143.429688 "/>
<path style="fill:none;stroke-width:1.388889;stroke-linecap:square;stroke-linejoin:miter;stroke:rgb(2.590942%,3.305054%,3.385925%);stroke-opacity:1;stroke-miterlimit:4;" d="M 592.570312 185.421875 L 592.691406 185.628906 C 592.316406 184.976562 592.496094 185.410156 594.097656 185.660156 C 595.128906 185.488281 598.542969 187.101562 599.699219 189.117188 C 600.363281 190.035156 601.328125 191.472656 601.890625 192.453125 C 602.042969 192.730469 602.058594 193.238281 602.21875 193.515625 "/>
<path style="fill:none;stroke-width:1.388889;stroke-linecap:square;stroke-linejoin:miter;stroke:rgb(2.590942%,3.305054%,3.385925%);stroke-opacity:1;stroke-miterlimit:4;" d="M 635.785156 160.914062 L 635.667969 160.710938 C 635.824219 160.980469 635.347656 160.144531 635.183594 159.871094 C 634.566406 158.785156 634.132812 157.585938 633.59375 156.613281 C 632.992188 155.5625 632.691406 154.347656 632.09375 153.300781 C 631.636719 152.160156 630.855469 150.914062 630.382812 149.734375 C 629.726562 148.484375 629.40625 147.367188 628.671875 146.089844 C 628.121094 145.039062 627.976562 144.390625 627.324219 143.25 L 628.671875 146.089844 C 628.121094 145.039062 627.976562 144.390625 627.324219 143.25 "/>
<path style="fill:none;stroke-width:1.388889;stroke-linecap:square;stroke-linejoin:miter;stroke:rgb(2.590942%,3.305054%,3.385925%);stroke-opacity:1;stroke-miterlimit:4;" d="M 665.382812 153.390625 C 665.15625 153.371094 663.757812 152.964844 662.964844 152.554688 C 662.253906 151.9375 659.53125 150.007812 658.765625 149.125 C 657.855469 148.234375 656.914062 147.375 655.925781 146.585938 C 654.953125 145.574219 654.253906 144.996094 653.285156 143.929688 C 652.289062 143.226562 651.4375 142.453125 650.5625 141.597656 "/>
<path style="fill:none;stroke-width:1.388889;stroke-linecap:square;stroke-linejoin:miter;stroke:rgb(2.590942%,3.305054%,3.385925%);stroke-opacity:1;stroke-miterlimit:4;" d="M 617.789062 154.652344 C 619.84375 154.261719 619.839844 153.246094 620.402344 152.507812 C 620.796875 151.539062 621.089844 149.507812 620.507812 146.882812 C 620.246094 145.890625 620.097656 145.101562 619.90625 143.894531 C 619.585938 143.199219 619.570312 142.777344 619.484375 142.191406 "/>
<path style="fill:none;stroke-width:1.388889;stroke-linecap:square;stroke-linejoin:miter;stroke:rgb(2.590942%,3.305054%,3.385925%);stroke-opacity:1;stroke-miterlimit:4;" d="M 602.257812 273.554688 L 602.136719 273.34375 C 602.511719 274 602.332031 273.585938 600.820312 272.984375 C 599.675781 272.742188 599 272.371094 597.859375 272.1875 "/>
<path style="fill:none;stroke-width:1.388889;stroke-linecap:square;stroke-linejoin:miter;stroke:rgb(2.590942%,3.305054%,3.385925%);stroke-opacity:1;stroke-miterlimit:4;" d="M 609.390625 251.460938 C 609.308594 251.324219 596.347656 242.769531 594.316406 242.230469 C 593.136719 241.695312 592.042969 241.410156 590.660156 240.730469 C 589.878906 240.238281 589.113281 240 588.320312 239.570312 C 587.207031 239.472656 586.304688 239.03125 585.347656 239.050781 C 584.285156 238.679688 583.773438 239.394531 582.65625 239.242188 C 581.703125 239.410156 580.066406 239.644531 579.25 239.882812 "/>
<path style="fill:none;stroke-width:1.388889;stroke-linecap:square;stroke-linejoin:miter;stroke:rgb(2.590942%,3.305054%,3.385925%);stroke-opacity:1;stroke-miterlimit:4;" d="M 579.457031 219.402344 C 579.851562 219.089844 581.332031 218.582031 582.335938 217.976562 C 583.535156 217.351562 588.035156 216.78125 590.171875 217.984375 "/>
<path style="fill:none;stroke-width:1.388889;stroke-linecap:square;stroke-linejoin:miter;stroke:rgb(2.590942%,3.305054%,3.385925%);stroke-opacity:1;stroke-miterlimit:4;" d="M 591.71875 241.09375 C 591.679688 241.023438 591.222656 238.847656 590.410156 235.246094 C 589.617188 230.808594 590.050781 220.375 590.285156 219.230469 C 590.449219 218.105469 590.195312 216.40625 590.621094 215.457031 C 590.863281 214.210938 591.339844 213.125 591.722656 212.046875 C 592.21875 210.746094 592.625 209.640625 593.152344 208.722656 C 593.699219 205.316406 603.171875 191.5625 603.796875 190.941406 C 604.285156 190.195312 605 189.207031 605.496094 188.574219 C 605.765625 187.800781 606.34375 187.050781 606.875 186.117188 C 607.660156 185.082031 607.855469 184.324219 608.332031 183.332031 C 608.417969 182.363281 608.796875 180.90625 608.769531 179.742188 C 609.039062 178.335938 608.863281 177.265625 609.011719 176.277344 C 608.867188 175.042969 609.507812 160.027344 609.566406 159.3125 C 609.796875 157.84375 611.21875 152.9375 614.777344 153.769531 C 616.085938 154.230469 617.59375 154.464844 618.488281 154.992188 C 619.746094 155.332031 620.734375 156.238281 621.675781 156.917969 C 625.992188 161.039062 626.917969 163.867188 627.476562 164.847656 C 627.679688 165.195312 627.878906 165.546875 628.074219 165.890625 "/>
<path style="fill:none;stroke-width:1.388889;stroke-linecap:square;stroke-linejoin:miter;stroke:rgb(2.590942%,3.305054%,3.385925%);stroke-opacity:1;stroke-miterlimit:4;" d="M 580.96875 279.09375 L 580.851562 278.878906 C 581.175781 279.445312 580.996094 279.167969 580.582031 277.925781 C 580.460938 276.859375 580.121094 275.417969 579.945312 274.398438 C 579.71875 273.347656 579.21875 272.144531 579.34375 271.410156 C 578.953125 270.339844 579.1875 269.453125 579.28125 268.390625 C 579.570312 267.0625 579.695312 266.09375 579.722656 264.796875 C 579.851562 263.210938 579.726562 262.082031 579.804688 260.578125 C 579.375 259.34375 579.277344 258.3125 578.628906 257.082031 C 578.054688 255.910156 577.609375 254.820312 576.917969 253.617188 C 576.363281 252.640625 575.800781 251.660156 575.238281 250.6875 L 576.917969 253.617188 C 576.363281 252.640625 575.800781 251.660156 575.238281 250.6875 "/>
<path style="fill-rule:evenodd;fill:rgb(95.698547%,92.198181%,2.2995%);fill-opacity:1;stroke-width:1.388889;stroke-linecap:square;stroke-linejoin:miter;stroke:rgb(2.590942%,3.305054%,3.385925%);stroke-opacity:1;stroke-miterlimit:4;" d="M 595.195312 271.90625 C 593.191406 268.886719 591.132812 263.121094 591.070312 263.011719 L 587.011719 256.167969 C 584.578125 252.742188 582.726562 252.746094 581.410156 252.710938 C 578.535156 252.546875 577.261719 252.027344 575.097656 251.886719 C 572.878906 250.929688 574.488281 246.945312 574.425781 246.84375 C 576.613281 237.8125 586.109375 238.613281 586.496094 238.808594 C 590.863281 240.199219 591.398438 240.726562 590.703125 243.484375 C 589.636719 246.457031 588.996094 247.523438 589.101562 249.40625 C 589.363281 253.007812 593.769531 258.269531 593.824219 258.375 L 596.71875 260.746094 C 598.058594 261.878906 599.839844 262.0625 601.671875 264.300781 C 603.289062 266.707031 603.523438 267.683594 602.222656 270.101562 C 600.566406 273.273438 596.953125 274.238281 595.195312 271.90625 Z M 595.195312 271.90625 "/>
<path style="fill-rule:evenodd;fill:rgb(99.998474%,99.998474%,99.998474%);fill-opacity:1;stroke-width:1.388889;stroke-linecap:square;stroke-linejoin:miter;stroke:rgb(2.590942%,3.305054%,3.385925%);stroke-opacity:1;stroke-miterlimit:4;" d="M 574.121094 249.542969 L 562.078125 247.550781 L 551.140625 244.671875 L 541.089844 240.636719 L 531.742188 235.6875 L 524.105469 230.875 L 517.449219 225.398438 Z M 574.121094 249.542969 "/>
<path style=" stroke:none;fill-rule:evenodd;fill:rgb(96.098328%,90.99884%,2.2995%);fill-opacity:1;" d="M 364.554688 202.128906 L 363.121094 193.40625 C 363.121094 193.40625 352.90625 189.25 352.761719 189.164062 C 352.617188 189.082031 361.792969 186.523438 361.792969 186.523438 L 363.101562 183.535156 C 363.199219 183.546875 363.289062 183.550781 363.386719 183.558594 C 363.394531 183.558594 363.40625 183.558594 363.414062 183.558594 C 365.984375 183.667969 368.226562 182.503906 369.765625 181.273438 L 369.78125 181.261719 C 369.816406 181.230469 369.847656 181.207031 369.882812 181.171875 C 371.25 182.128906 373.367188 183.515625 373.582031 183.527344 C 373.589844 183.527344 373.597656 183.527344 373.597656 183.519531 C 373.679688 183.375 384.949219 181.335938 385.484375 181.363281 C 385.496094 181.363281 385.5 181.363281 385.496094 181.367188 C 385.410156 181.515625 378.523438 188.949219 378.824219 189.121094 C 379.113281 189.292969 385.253906 197.398438 385.398438 197.480469 C 385.40625 197.484375 385.398438 197.488281 385.371094 197.488281 C 384.714844 197.457031 373.125 195.867188 373.125 195.867188 Z M 364.554688 202.128906 "/>
<path style="fill:none;stroke-width:1.388889;stroke-linecap:square;stroke-linejoin:miter;stroke:rgb(2.590942%,3.305054%,3.385925%);stroke-opacity:1;stroke-miterlimit:4;" d="M 368.753906 180.3125 C 369.113281 180.71875 373.511719 183.667969 373.597656 183.519531 C 373.679688 183.375 385.589844 181.21875 385.496094 181.363281 C 385.410156 181.515625 378.523438 188.949219 378.824219 189.121094 C 379.113281 189.292969 385.253906 197.398438 385.398438 197.480469 C 385.550781 197.570312 373.125 195.867188 373.125 195.867188 L 364.554688 202.128906 L 363.121094 193.40625 C 363.121094 193.40625 352.90625 189.25 352.761719 189.164062 C 352.617188 189.082031 361.792969 186.523438 361.792969 186.523438 L 364.824219 179.609375 C 364.824219 179.609375 368.285156 180.441406 368.753906 180.3125 Z M 368.753906 180.3125 "/>
<path style="fill-rule:evenodd;fill:rgb(99.998474%,99.998474%,99.998474%);fill-opacity:1;stroke-width:1.388889;stroke-linecap:square;stroke-linejoin:miter;stroke:rgb(2.590942%,3.305054%,3.385925%);stroke-opacity:1;stroke-miterlimit:4;" d="M 519.199219 206.632812 C 519.5625 199.351562 507.480469 163.574219 505.367188 158.398438 C 501.234375 152.691406 497.003906 143.769531 495.367188 136.15625 C 494.433594 128.507812 490.660156 122.371094 485.03125 120.074219 C 478.597656 116.253906 472.085938 117.328125 465.859375 117.570312 C 462.785156 118.070312 460.105469 119.589844 458.519531 121.941406 C 454.9375 126.574219 453.132812 126.125 450.71875 128.082031 C 431.496094 130.144531 412.980469 139.132812 398.941406 145.191406 C 391.433594 149.890625 385.121094 152.523438 382.230469 153.003906 C 374.484375 152.664062 369.019531 148.726562 366.421875 146.648438 C 358.023438 138.246094 349.628906 129.847656 341.230469 121.449219 C 333.890625 115.410156 331.621094 123.515625 333.023438 124.839844 C 335.300781 130.417969 329.648438 133.476562 349.585938 154.136719 C 351.96875 159.679688 354.34375 165.222656 356.722656 170.761719 C 356.722656 170.761719 356.074219 175.183594 356.429688 175.390625 C 359.816406 184.65625 365.976562 182.675781 368.953125 180.269531 C 371.109375 178.480469 373.269531 176.691406 375.425781 174.914062 C 375.425781 174.914062 387.902344 171.609375 388.113281 171.25 C 401.203125 173.839844 435.480469 168.988281 441.207031 166.589844 C 446.386719 164.003906 446.601562 166.410156 451.140625 163.0625 C 454.910156 160.808594 452.808594 162.648438 459.859375 156.796875 C 462.019531 155.105469 463.527344 158.078125 463.820312 160.121094 C 463.285156 179.316406 465.390625 195.996094 466.226562 215.199219 C 466.285156 216.199219 466.351562 217.191406 466.410156 218.1875 C 476.953125 222.070312 487.488281 225.957031 498.023438 229.839844 C 505.292969 223.667969 512.5625 217.496094 519.828125 211.324219 C 519.699219 209.609375 519.402344 208.195312 519.199219 206.632812 Z M 519.199219 206.632812 "/>
<path style=" stroke:none;fill-rule:evenodd;fill:rgb(95.698547%,92.198181%,2.2995%);fill-opacity:1;" d="M 356.761719 138.335938 C 357.015625 138.578125 351.226562 154.644531 351.226562 154.644531 L 346.871094 149.746094 L 350.925781 132.777344 Z M 356.761719 138.335938 "/>
<path style="fill:none;stroke-width:1.388889;stroke-linecap:square;stroke-linejoin:miter;stroke:rgb(2.590942%,3.305054%,3.385925%);stroke-opacity:1;stroke-miterlimit:4;" d="M 433.429688 132.269531 C 439.246094 139.398438 440.621094 150.597656 439.210938 156.765625 "/>
<path style="fill:none;stroke-width:1.536111;stroke-linecap:square;stroke-linejoin:miter;stroke:rgb(2.590942%,3.305054%,3.385925%);stroke-opacity:1;stroke-miterlimit:4;" d="M 349.484375 129.890625 C 349.570312 130.105469 349.871094 131.605469 349.882812 132.558594 C 349.660156 133.550781 349.210938 137.121094 348.769531 138.308594 C 348.40625 139.644531 348.078125 140.988281 347.828125 142.332031 C 347.375 143.785156 347.179688 144.742188 346.679688 146.234375 C 346.519531 147.53125 346.226562 148.742188 345.871094 150.023438 "/>
<path style="fill:none;stroke-width:1.536111;stroke-linecap:square;stroke-linejoin:miter;stroke:rgb(2.590942%,3.305054%,3.385925%);stroke-opacity:1;stroke-miterlimit:4;" d="M 356.933594 137.734375 C 356.652344 138.832031 355.449219 143.699219 354.929688 145.019531 C 354.480469 146.488281 354.070312 147.96875 353.753906 149.445312 C 353.214844 151.058594 352.960938 152.109375 352.363281 153.761719 C 352.132812 155.183594 351.769531 156.515625 351.335938 157.933594 "/>
<path style="fill:none;stroke-width:1.388889;stroke-linecap:square;stroke-linejoin:miter;stroke:rgb(2.590942%,3.305054%,3.385925%);stroke-opacity:1;stroke-miterlimit:4;" d="M 407.734375 171.632812 L 407.855469 171.425781 C 407.476562 172.078125 407.761719 171.707031 407.179688 170.195312 C 406.511719 169.386719 406.203125 165.625 407.371094 163.613281 C 407.832031 162.582031 408.597656 161.023438 409.164062 160.046875 C 409.328125 159.773438 409.757812 159.507812 409.921875 159.230469 "/>
<path style="fill:none;stroke-width:1.388889;stroke-linecap:square;stroke-linejoin:miter;stroke:rgb(2.590942%,3.305054%,3.385925%);stroke-opacity:1;stroke-miterlimit:4;" d="M 364.90625 146.464844 L 364.785156 146.667969 C 364.941406 146.394531 364.457031 147.226562 364.300781 147.503906 C 363.667969 148.582031 362.847656 149.558594 362.273438 150.511719 C 361.664062 151.558594 360.761719 152.425781 360.15625 153.464844 C 359.394531 154.433594 358.707031 155.730469 357.921875 156.730469 C 357.167969 157.925781 356.363281 158.761719 355.621094 160.035156 C 354.988281 161.035156 354.496094 161.488281 353.835938 162.621094 L 355.621094 160.035156 C 354.988281 161.035156 354.496094 161.488281 353.835938 162.621094 "/>
<path style="fill:none;stroke-width:1.388889;stroke-linecap:square;stroke-linejoin:miter;stroke:rgb(2.590942%,3.305054%,3.385925%);stroke-opacity:1;stroke-miterlimit:4;" d="M 343.589844 124.59375 C 343.683594 124.800781 344.035156 126.210938 344.078125 127.105469 C 343.894531 128.03125 343.585938 131.351562 343.203125 132.453125 C 342.886719 133.691406 342.613281 134.9375 342.425781 136.1875 C 342.035156 137.535156 341.882812 138.429688 341.445312 139.800781 C 341.335938 141.015625 341.089844 142.136719 340.789062 143.324219 "/>
<path style="fill:none;stroke-width:1.388889;stroke-linecap:square;stroke-linejoin:miter;stroke:rgb(2.590942%,3.305054%,3.385925%);stroke-opacity:1;stroke-miterlimit:4;" d="M 368.480469 165.175781 C 367.113281 163.59375 366.234375 164.105469 365.316406 163.988281 C 364.277344 164.128906 362.371094 164.894531 360.390625 166.707031 C 359.664062 167.429688 359.050781 167.957031 358.105469 168.722656 C 357.664062 169.347656 357.304688 169.574219 356.839844 169.941406 "/>
<path style="fill:none;stroke-width:1.388889;stroke-linecap:square;stroke-linejoin:miter;stroke:rgb(2.590942%,3.305054%,3.385925%);stroke-opacity:1;stroke-miterlimit:4;" d="M 479.214844 119.179688 L 479.09375 119.390625 C 479.476562 118.734375 479.207031 119.101562 479.441406 120.707031 C 479.804688 121.820312 479.820312 122.589844 480.234375 123.671875 "/>
<path style="fill:none;stroke-width:1.388889;stroke-linecap:square;stroke-linejoin:miter;stroke:rgb(2.590942%,3.305054%,3.385925%);stroke-opacity:1;stroke-miterlimit:4;" d="M 456.515625 124.046875 C 456.4375 124.1875 455.511719 139.691406 456.058594 141.71875 C 456.1875 143.003906 456.488281 144.097656 456.589844 145.632812 C 456.554688 146.558594 456.730469 147.339844 456.753906 148.242188 C 457.226562 149.253906 457.296875 150.253906 457.792969 151.074219 C 458 152.179688 458.875 152.265625 459.300781 153.308594 C 459.925781 154.050781 460.945312 155.351562 461.5625 155.941406 "/>
<path style="fill:none;stroke-width:1.388889;stroke-linecap:square;stroke-linejoin:miter;stroke:rgb(2.590942%,3.305054%,3.385925%);stroke-opacity:1;stroke-miterlimit:4;" d="M 443.71875 166 C 443.253906 165.816406 442.070312 164.789062 441.046875 164.21875 C 439.902344 163.492188 437.160156 159.882812 437.132812 157.429688 "/>
<path style="fill:none;stroke-width:1.388889;stroke-linecap:square;stroke-linejoin:miter;stroke:rgb(2.590942%,3.305054%,3.385925%);stroke-opacity:1;stroke-miterlimit:4;" d="M 456.375 144.535156 C 456.332031 144.605469 454.679688 146.089844 451.964844 148.59375 C 448.515625 151.5 439.265625 156.339844 438.15625 156.710938 C 437.101562 157.128906 435.753906 158.199219 434.722656 158.308594 C 433.519531 158.71875 432.339844 158.851562 431.21875 159.058594 C 429.84375 159.277344 428.679688 159.476562 427.625 159.480469 C 424.398438 160.707031 407.75 159.382812 406.902344 159.152344 C 406.007812 159.101562 404.796875 158.980469 404 158.863281 C 403.199219 159.015625 402.257812 158.890625 401.183594 158.898438 C 399.894531 158.734375 399.140625 158.945312 398.042969 159.03125 C 397.164062 159.4375 395.710938 159.839844 394.714844 160.445312 C 393.363281 160.914062 392.523438 161.601562 391.59375 161.96875 C 390.597656 162.710938 377.273438 169.664062 376.625 169.972656 C 375.238281 170.503906 370.277344 171.726562 369.21875 168.230469 C 368.964844 166.863281 368.414062 165.441406 368.425781 164.40625 C 368.085938 163.144531 368.378906 161.835938 368.496094 160.679688 C 369.90625 154.882812 371.894531 152.664062 372.464844 151.691406 C 372.664062 151.34375 372.867188 150.996094 373.066406 150.652344 "/>
<path style="fill:none;stroke-width:1.388889;stroke-linecap:square;stroke-linejoin:miter;stroke:rgb(2.590942%,3.305054%,3.385925%);stroke-opacity:1;stroke-miterlimit:4;" d="M 494.660156 134.84375 L 494.53125 135.054688 C 494.859375 134.488281 494.707031 134.78125 493.839844 135.765625 C 492.976562 136.402344 491.898438 137.417969 491.101562 138.078125 C 490.308594 138.804688 489.511719 139.835938 488.816406 140.09375 C 488.085938 140.96875 487.199219 141.210938 486.234375 141.660156 C 484.9375 142.074219 484.039062 142.449219 482.898438 143.074219 C 481.460938 143.753906 480.546875 144.425781 479.207031 145.113281 C 478.351562 146.101562 477.507812 146.699219 476.765625 147.875 C 476.039062 148.960938 475.316406 149.890625 474.621094 151.09375 C 474.050781 152.0625 473.484375 153.039062 472.921875 154.011719 L 474.621094 151.09375 C 474.050781 152.0625 473.484375 153.039062 472.921875 154.011719 "/>
<path style="fill-rule:evenodd;fill:rgb(95.698547%,92.198181%,2.2995%);fill-opacity:1;stroke-width:1.388889;stroke-linecap:square;stroke-linejoin:miter;stroke:rgb(2.590942%,3.305054%,3.385925%);stroke-opacity:1;stroke-miterlimit:4;" d="M 481.320312 126.117188 C 479.707031 129.363281 475.746094 134.03125 475.679688 134.136719 L 471.785156 141.078125 C 470.03125 144.898438 470.960938 146.5 471.589844 147.65625 C 472.886719 150.226562 473.070312 151.585938 474.03125 153.535156 C 474.3125 155.933594 470.058594 156.53125 470 156.636719 C 461.085938 159.261719 457.03125 150.632812 457.007812 150.203125 C 456.027344 145.722656 456.214844 144.996094 458.953125 144.21875 C 462.0625 143.660156 463.304688 143.679688 464.878906 142.644531 C 467.871094 140.617188 470.226562 134.171875 470.289062 134.070312 L 470.894531 130.375 C 471.203125 128.652344 470.472656 127.019531 471.496094 124.3125 C 472.773438 121.707031 473.5 121.015625 476.242188 120.933594 C 479.816406 120.785156 482.460938 123.433594 481.320312 126.117188 Z M 481.320312 126.117188 "/>
<path style="fill-rule:evenodd;fill:rgb(99.998474%,99.998474%,99.998474%);fill-opacity:1;stroke-width:1.388889;stroke-linecap:square;stroke-linejoin:miter;stroke:rgb(2.590942%,3.305054%,3.385925%);stroke-opacity:1;stroke-miterlimit:4;" d="M 472.492188 155.550781 L 476.785156 166.976562 L 479.765625 177.886719 L 481.292969 188.613281 L 481.683594 199.179688 L 481.332031 208.203125 L 479.914062 216.703125 Z M 472.492188 155.550781 "/>
<path style=" stroke:none;fill-rule:evenodd;fill:rgb(95.698547%,92.198181%,3.100586%);fill-opacity:1;" d="M 494.558594 259.46875 C 491.277344 250 490.039062 233.226562 490.039062 233.226562 C 486.113281 231.472656 482.191406 229.75 478.269531 228.023438 C 482.753906 229.441406 487.238281 230.855469 491.726562 232.265625 C 491.765625 232.457031 491.789062 232.644531 491.828125 232.832031 C 491.738281 232.90625 491.652344 232.976562 491.5625 233.046875 L 490.164062 234.195312 L 490.46875 235.976562 C 491.835938 243.804688 493.191406 251.636719 494.558594 259.46875 Z M 494.558594 259.46875 "/>
<path style=" stroke:none;fill-rule:evenodd;fill:rgb(94.499207%,90.99884%,2.2995%);fill-opacity:1;" d="M 491.828125 232.832031 C 491.789062 232.644531 491.765625 232.457031 491.726562 232.265625 C 491.914062 232.324219 492.109375 232.390625 492.296875 232.449219 C 492.140625 232.574219 491.984375 232.703125 491.828125 232.832031 Z M 491.828125 232.832031 "/>
<path style=" stroke:none;fill-rule:evenodd;fill:rgb(95.698547%,92.198181%,3.100586%);fill-opacity:1;" d="M 502.175781 261.351562 L 501.042969 260.601562 C 499.65625 252.632812 498.269531 244.664062 496.882812 236.695312 C 497.84375 235.914062 498.800781 235.132812 499.757812 234.34375 C 500.027344 242.917969 498.972656 251.921875 502.175781 261.351562 Z M 502.175781 261.351562 "/>
<path style=" stroke:none;fill-rule:evenodd;fill:rgb(94.499207%,90.99884%,2.2995%);fill-opacity:1;" d="M 503.542969 264.8125 L 497.398438 264.8125 C 496.316406 263.730469 495.371094 261.832031 494.558594 259.46875 C 493.195312 251.640625 491.835938 243.804688 490.476562 235.976562 L 490.164062 234.195312 L 491.5625 233.046875 C 491.652344 232.976562 491.738281 232.90625 491.828125 232.832031 C 491.980469 232.703125 492.140625 232.574219 492.296875 232.449219 C 494.382812 233.105469 496.472656 233.765625 498.5625 234.421875 L 499.277344 234.648438 L 499.753906 234.207031 C 499.757812 234.253906 499.757812 234.296875 499.757812 234.34375 C 498.800781 235.132812 497.84375 235.914062 496.882812 236.695312 C 498.269531 244.664062 499.65625 252.632812 501.042969 260.601562 L 502.175781 261.351562 C 502.566406 262.5 503.015625 263.652344 503.542969 264.8125 Z M 503.542969 264.8125 "/>
<path style=" stroke:none;fill-rule:evenodd;fill:rgb(94.499207%,90.99884%,2.2995%);fill-opacity:1;" d="M 465.441406 222.359375 C 465 222.164062 464.558594 221.96875 464.113281 221.773438 C 464.53125 221.503906 464.921875 221.042969 465.234375 220.46875 C 465.300781 221.101562 465.371094 221.734375 465.441406 222.359375 Z M 465.441406 222.359375 "/>
<path style=" stroke:none;fill-rule:evenodd;fill:rgb(94.499207%,90.99884%,2.2995%);fill-opacity:1;" d="M 515.109375 219.851562 C 516.980469 218.101562 518.851562 216.351562 520.722656 214.597656 L 521.203125 214.148438 L 521.125 213.5 C 521.027344 212.691406 520.890625 211.949219 520.753906 211.25 C 521.191406 212.359375 521.789062 213.316406 522.589844 213.691406 C 520.039062 215.761719 517.566406 217.808594 515.109375 219.851562 Z M 515.109375 219.851562 "/>
<path style=" stroke:none;fill-rule:evenodd;fill:rgb(95.698547%,92.198181%,3.100586%);fill-opacity:1;" d="M 498.621094 231.738281 C 488.410156 228.515625 478.210938 225.300781 468 222.078125 C 467.921875 221.367188 467.84375 220.660156 467.765625 219.941406 C 467.664062 218.777344 467.550781 217.617188 467.433594 216.464844 C 469.851562 217.28125 474.558594 219.0625 479.386719 220.855469 C 479.402344 220.886719 479.410156 220.921875 479.425781 220.964844 L 479.675781 221.285156 C 479.804688 221.386719 480.007812 221.460938 480.175781 221.460938 L 480.1875 221.460938 C 480.441406 221.453125 480.566406 221.375 480.644531 221.328125 L 480.652344 221.324219 C 486.765625 223.574219 492.78125 225.699219 494.382812 225.75 C 498.367188 224.292969 512.398438 212.796875 517.671875 208.398438 C 517.6875 208.621094 517.703125 208.816406 517.703125 208.988281 L 517.703125 209.003906 L 518.984375 209.003906 L 517.722656 209.238281 C 517.976562 210.632812 518.273438 211.839844 518.476562 213.171875 C 511.855469 219.363281 505.242188 225.546875 498.621094 231.738281 Z M 498.621094 231.738281 "/>
<path style=" stroke:none;fill-rule:evenodd;fill:rgb(94.499207%,90.99884%,2.2995%);fill-opacity:1;" d="M 499.277344 234.648438 L 498.5625 234.421875 C 496.472656 233.765625 494.386719 233.105469 492.296875 232.449219 C 492.109375 232.390625 491.914062 232.324219 491.726562 232.265625 C 487.238281 230.855469 482.753906 229.433594 478.269531 228.023438 C 473.992188 226.140625 469.71875 224.265625 465.441406 222.359375 C 465.371094 221.734375 465.300781 221.101562 465.234375 220.46875 C 465.859375 219.316406 466.179688 217.683594 465.800781 216.101562 C 465.734375 216.035156 465.742188 216.011719 465.820312 216.011719 C 466.003906 216.011719 466.574219 216.171875 467.433594 216.464844 C 467.550781 217.617188 467.664062 218.777344 467.765625 219.941406 C 467.84375 220.660156 467.921875 221.367188 468 222.078125 C 478.210938 225.300781 488.410156 228.515625 498.621094 231.738281 C 505.234375 225.546875 511.855469 219.355469 518.476562 213.171875 C 518.273438 211.839844 517.976562 210.632812 517.722656 209.238281 L 518.984375 209.003906 L 517.695312 209.003906 L 517.695312 208.988281 C 517.703125 208.816406 517.6875 208.621094 517.671875 208.398438 C 518.9375 207.34375 519.699219 206.703125 519.699219 206.703125 C 519.816406 207.695312 520.125 209.636719 520.753906 211.25 C 520.890625 211.949219 521.023438 212.691406 521.125 213.503906 L 521.203125 214.148438 L 520.730469 214.597656 C 518.851562 216.351562 516.980469 218.101562 515.109375 219.851562 C 510 224.097656 505.007812 228.300781 499.6875 232.617188 C 499.714844 233.148438 499.738281 233.671875 499.753906 234.207031 Z M 499.277344 234.648438 "/>
<path style=" stroke:none;fill-rule:evenodd;fill:rgb(94.499207%,90.99884%,2.2995%);fill-opacity:1;" d="M 480.175781 221.460938 C 480.007812 221.460938 479.804688 221.386719 479.675781 221.285156 L 479.425781 220.964844 C 479.410156 220.921875 479.402344 220.886719 479.386719 220.855469 C 479.8125 221.011719 480.226562 221.167969 480.652344 221.324219 L 480.644531 221.328125 C 480.566406 221.375 480.441406 221.453125 480.1875 221.460938 Z M 480.175781 221.460938 "/>
<path style="fill:none;stroke-width:3.336111;stroke-linecap:square;stroke-linejoin:miter;stroke:rgb(2.590942%,3.305054%,3.385925%);stroke-opacity:1;stroke-miterlimit:4;" d="M 465.808594 216.101562 C 464.480469 214.898438 490.761719 225.625 494.382812 225.75 C 499.324219 223.941406 519.699219 206.703125 519.699219 206.703125 C 519.902344 208.386719 520.625 212.769531 522.589844 213.691406 C 514.71875 220.085938 507.566406 226.230469 499.6875 232.617188 C 500.246094 242.75 498.398438 253.476562 503.542969 264.820312 L 497.398438 264.820312 C 491.964844 259.390625 490.039062 233.226562 490.039062 233.226562 C 481.398438 229.363281 472.753906 225.625 464.113281 221.773438 C 465.363281 220.964844 466.367188 218.476562 465.808594 216.101562 Z M 465.808594 216.101562 "/>
</g>
</svg>
