<?xml version="1.0" encoding="UTF-8"?>
<svg xmlns="http://www.w3.org/2000/svg" xmlns:xlink="http://www.w3.org/1999/xlink" viewBox="0 0 1000 600" version="1.1">
<g id="surface630">
<rect x="0" y="0" width="1000" height="600" style="fill:rgb(99.998474%,99.998474%,99.998474%);fill-opacity:1;stroke:none;"/>
<path style=" stroke:none;fill-rule:evenodd;fill:rgb(87.449646%,6.666565%,17.64679%);fill-opacity:1;" d="M 0 0 L 0 38.539062 L 435.414062 300 L 0 561.460938 L 0 600 L 65.625 600 L 500 338.539062 L 934.375 600 L 1000 600 L 1000 561.460938 L 564.585938 300 L 1000 38.539062 L 1000 0 L 934.375 0 L 500 261.460938 L 65.625 0 Z M 0 0 "/>
<path style="fill-rule:evenodd;fill:rgb(90.979004%,6.666565%,17.64679%);fill-opacity:1;stroke-width:0.509025;stroke-linecap:butt;stroke-linejoin:miter;stroke:rgb(0%,0%,0%);stroke-opacity:1;stroke-miterlimit:4;" d="M 552.324219 89.765625 C 565.175781 141.800781 558.128906 206.070312 500.082031 241.722656 C 442.035156 206.070312 434.984375 141.800781 447.839844 89.765625 C 461.523438 77.328125 523.714844 69.660156 552.324219 89.765625 Z M 552.324219 89.765625 "/>
<path style="fill-rule:evenodd;fill:rgb(97.645569%,86.665344%,8.627319%);fill-opacity:1;stroke-width:0.509025;stroke-linecap:butt;stroke-linejoin:miter;stroke:rgb(0%,0%,0%);stroke-opacity:1;stroke-miterlimit:4;" d="M 500 79.316406 C 521.277344 79.316406 541.097656 84.953125 552.785156 92.25 C 555.074219 74.3125 563.210938 56.371094 572.808594 42.808594 C 562.796875 42.601562 558.304688 47.921875 558.207031 53.449219 C 555.703125 46.359375 545.894531 46.773438 542.871094 50.636719 C 553.824219 58.039062 545.375 71.179688 535.46875 68.472656 C 530.808594 67.199219 528.355469 63.949219 527.480469 59.238281 C 528.554688 59.171875 529.613281 58.773438 530.511719 58.046875 C 532.824219 56.175781 533.171875 52.785156 531.296875 50.472656 C 529.429688 48.164062 526.039062 47.8125 523.726562 49.683594 C 521.417969 51.558594 521.066406 54.953125 522.941406 57.261719 C 523.550781 58.015625 524.335938 58.554688 525.183594 58.882812 C 522.050781 63.992188 516.433594 65.527344 512.414062 64.402344 C 507.199219 62.941406 505.003906 58.246094 505.003906 54.078125 C 505.003906 43.226562 515.433594 41.558594 518.570312 43.4375 C 518.359375 36.132812 506.886719 30.292969 503.335938 36.34375 C 507.300781 29.246094 507.089844 19.234375 500 12.558594 C 492.910156 19.234375 492.695312 29.246094 496.664062 36.34375 C 493.113281 30.292969 481.640625 36.132812 481.429688 43.4375 C 484.558594 41.558594 494.996094 43.226562 494.996094 54.078125 C 494.996094 58.246094 492.800781 62.941406 487.585938 64.402344 C 483.566406 65.527344 477.949219 63.992188 474.808594 58.882812 C 475.664062 58.554688 476.445312 58.015625 477.058594 57.261719 C 478.929688 54.953125 478.578125 51.558594 476.269531 49.683594 C 473.960938 47.8125 470.566406 48.164062 468.695312 50.472656 C 466.820312 52.785156 467.175781 56.175781 469.488281 58.046875 C 470.386719 58.773438 471.449219 59.171875 472.519531 59.238281 C 471.644531 63.949219 469.183594 67.199219 464.53125 68.472656 C 454.625 71.179688 446.175781 58.039062 457.125 50.636719 C 454.105469 46.773438 444.296875 46.359375 441.792969 53.449219 C 441.691406 47.921875 437.207031 42.601562 427.191406 42.808594 C 436.789062 56.371094 444.921875 74.3125 447.214844 92.25 C 458.902344 84.953125 478.722656 79.316406 500 79.316406 Z M 500 79.316406 "/>
<path style="fill-rule:evenodd;fill:rgb(97.645569%,86.665344%,8.627319%);fill-opacity:1;stroke-width:0.509025;stroke-linecap:butt;stroke-linejoin:miter;stroke:rgb(0%,0%,0%);stroke-opacity:1;stroke-miterlimit:4;" d="M 544.144531 130.351562 C 542.859375 130.660156 542.859375 132.308594 542.191406 132.308594 C 545.527344 132.222656 547.144531 131.304688 548.152344 129.617188 C 547.421875 130.292969 548.0625 131.578125 547.816406 131.886719 C 550.265625 131.023438 551.429688 128.945312 550.578125 127.539062 C 551.121094 128.335938 552.714844 128.761719 553.203125 128.824219 C 551.488281 127.476562 552.714844 124.414062 549.960938 122.824219 C 550.878906 122.765625 552.65625 123.804688 553.144531 125.027344 C 552.714844 122.273438 552.285156 120.496094 550.019531 118.96875 C 550.265625 119.242188 551.550781 119.488281 552.101562 118.96875 C 550.636719 118.050781 550.203125 116.519531 550.332031 115.542969 C 550.503906 114.171875 549.59375 113.886719 547.882812 114.316406 C 546.335938 114.703125 542.800781 114.925781 540.71875 114.925781 C 536.433594 114.925781 532.699219 114.925781 529.148438 112.480469 C 534.476562 114.683594 541.269531 110.035156 541.269531 106.175781 C 541.269531 101.890625 536.007812 98.402344 525.355469 100.726562 C 514.707031 103.054688 501.734375 102.074219 501.734375 98.523438 C 501.734375 94.976562 511.035156 94.488281 515.808594 95.21875 C 520.582031 95.957031 524.007812 96.445312 532.945312 93.261719 C 530.742188 94.121094 523.640625 94.363281 518.011719 92.773438 C 512.382812 91.179688 498.550781 91.179688 498.425781 98.648438 C 498.304688 106.113281 513.152344 105.433594 525.972656 103.546875 C 533.433594 102.441406 537.355469 103.179688 537.355469 105.625 C 537.355469 107.949219 530.496094 108.929688 525.234375 108.320312 C 519.972656 107.703125 514.585938 107.828125 508.339844 109.664062 C 503.128906 111.195312 499.53125 109.664062 493.773438 110.644531 C 490.984375 111.117188 484.230469 110.644531 480.894531 105.136719 C 478.835938 106.605469 472.65625 109.683594 471.621094 112.679688 C 470.144531 115.433594 471.128906 118.171875 473.085938 120.863281 C 475.550781 124.253906 471.863281 123.738281 469.234375 123.867188 C 465.625 124.035156 460.796875 123.480469 458.277344 120.621094 C 456.046875 118.085938 453.070312 116.054688 450.699219 117.933594 C 449.472656 118.902344 450.648438 120.175781 451.609375 119.820312 C 452.570312 119.460938 453.703125 120.175781 454.722656 120.621094 C 453.089844 119.917969 451.292969 120.464844 450.597656 121.089844 C 449.628906 121.953125 450.800781 123.609375 451.972656 123.023438 C 452.886719 122.570312 454.769531 122.261719 455.992188 123.378906 C 454.667969 123.125 453.292969 123.179688 452.632812 123.890625 C 451.972656 124.601562 452.480469 125.636719 453.90625 125.570312 C 456.191406 125.46875 456.78125 127.070312 459.074219 126.742188 C 457.660156 126.921875 456.863281 127.660156 456.5 128.207031 C 458.640625 127.230469 461.007812 129.871094 463.785156 129.253906 C 462.699219 129.699219 460.953125 130.761719 460.972656 131.578125 C 462.617188 129.675781 473.703125 133.046875 473.945312 128.882812 C 474.246094 129.742188 474.191406 131.023438 473.335938 132.128906 C 474.75 131.269531 479.332031 130.964844 480.738281 127.660156 C 480.859375 128.636719 480.671875 129.925781 479.820312 130.230469 C 481.289062 130.710938 483.222656 129.613281 485.203125 126.679688 C 485.992188 125.515625 486.175781 124.742188 486.046875 123.867188 C 488.007812 123.941406 489.429688 123.449219 490.957031 122.152344 C 492.546875 120.804688 494.261719 123.253906 496.957031 121.539062 C 499.652344 119.824219 501.976562 121.292969 503.441406 120.441406 C 504.914062 119.578125 506.933594 120.742188 508.523438 119.765625 C 510.117188 118.785156 512.582031 120.242188 515.21875 118.164062 C 519.363281 119.683594 524.203125 122.496094 536.070312 120.3125 C 542.871094 119.066406 545.003906 121.359375 545.003906 124.476562 C 545.003906 126.621094 543.75 126.804688 542.800781 126.863281 C 539.019531 127.09375 537.390625 125.449219 535.898438 125.976562 C 534.898438 126.332031 534.289062 127.964844 535.738281 128.519531 C 534.535156 129.132812 534.691406 130.277344 535.300781 130.699219 C 535.914062 131.117188 537.488281 130.738281 538.558594 130.238281 C 537.1875 130.863281 535.761719 131.984375 536.574219 133.152344 C 537.066406 133.863281 538.316406 134.46875 539.476562 132.949219 C 540.644531 131.425781 542.785156 130.152344 544.144531 130.351562 Z M 544.144531 130.351562 "/>
<path style="fill-rule:evenodd;fill:rgb(97.645569%,86.665344%,8.627319%);fill-opacity:1;stroke-width:0.509025;stroke-linecap:butt;stroke-linejoin:miter;stroke:rgb(0%,0%,0%);stroke-opacity:1;stroke-miterlimit:4;" d="M 468.773438 98.039062 C 465.339844 96.632812 464.191406 96.589844 464.976562 99.386719 C 465.316406 100.578125 466.136719 102.261719 466.960938 103.023438 C 466.996094 101.859375 467.425781 98.648438 468.773438 98.039062 Z M 468.773438 98.039062 "/>
<path style="fill-rule:evenodd;fill:rgb(97.645569%,86.665344%,8.627319%);fill-opacity:1;stroke-width:0.509025;stroke-linecap:butt;stroke-linejoin:miter;stroke:rgb(0%,0%,0%);stroke-opacity:1;stroke-miterlimit:4;" d="M 479.484375 98.039062 C 482.910156 96.632812 484.066406 96.589844 483.277344 99.386719 C 482.941406 100.578125 482.113281 102.261719 481.285156 103.023438 C 481.261719 101.859375 480.828125 98.648438 479.484375 98.039062 Z M 479.484375 98.039062 "/>
<path style="fill-rule:evenodd;fill:rgb(97.645569%,86.665344%,8.627319%);fill-opacity:1;stroke-width:0.509025;stroke-linecap:butt;stroke-linejoin:miter;stroke:rgb(0%,0%,0%);stroke-opacity:1;stroke-miterlimit:4;" d="M 474.144531 96.152344 C 480.628906 96.152344 481.441406 99.199219 481.40625 102.992188 C 481.382812 107.09375 479.175781 105.6875 477.925781 110.953125 C 477.429688 113.007812 475.792969 113.125 474.144531 113.125 C 472.488281 113.125 470.855469 113.007812 470.359375 110.953125 C 469.109375 105.6875 466.902344 107.09375 466.875 102.992188 C 466.839844 99.199219 467.652344 96.152344 474.144531 96.152344 Z M 474.144531 96.152344 "/>
<path style="fill-rule:evenodd;fill:rgb(97.645569%,86.665344%,8.627319%);fill-opacity:1;stroke-width:0.509025;stroke-linecap:butt;stroke-linejoin:miter;stroke:rgb(0%,0%,0%);stroke-opacity:1;stroke-miterlimit:4;" d="M 457.417969 111.195312 C 455.765625 110.214844 454.699219 110.894531 454.027344 111.078125 C 456.167969 111.625 456.253906 114.378906 461.152344 115.664062 C 460.046875 115.355469 459.4375 115.972656 458.398438 115.421875 C 460.414062 117.011719 462.679688 118.851562 467.457031 118.90625 C 470.121094 118.933594 468.28125 120.3125 466.539062 119.519531 C 468.34375 121.386719 471.921875 119.855469 474.191406 123.253906 C 474.613281 120.621094 469.964844 116.460938 472.109375 113.460938 C 465.503906 113.179688 464.960938 109.515625 461.152344 106.605469 C 458.054688 104.238281 457.777344 101.832031 456.410156 97.320312 C 455.785156 95.277344 453.394531 94.007812 452.070312 94.492188 C 450.917969 94.914062 450.492188 95.917969 451.484375 96.671875 C 452.480469 97.417969 453.75 97.519531 454.023438 99.421875 C 452.734375 97.875 450.796875 97.316406 449.867188 98.285156 C 449.300781 98.871094 449.53125 100.25 450.746094 100.371094 C 452.734375 100.578125 451.308594 102.511719 453.566406 104.398438 C 451.5625 102.152344 449.832031 101.949219 448.761719 103.167969 C 448.121094 103.902344 448.761719 105.203125 450.136719 105.070312 C 452.128906 104.863281 454.4375 109.917969 457.417969 111.195312 Z M 457.417969 111.195312 "/>
<path style="fill-rule:evenodd;fill:rgb(97.645569%,86.665344%,8.627319%);fill-opacity:1;stroke-width:0.509025;stroke-linecap:butt;stroke-linejoin:miter;stroke:rgb(0%,0%,0%);stroke-opacity:1;stroke-miterlimit:4;" d="M 510.667969 130.109375 C 509.625 130.292969 509.9375 132.007812 508.523438 132.128906 C 511.894531 132.128906 513.605469 131.332031 515.195312 130.046875 C 514.460938 130.472656 514.15625 131.578125 514.097656 132.1875 C 515.867188 130.660156 520.09375 130.539062 522.300781 130.964844 C 524.503906 131.390625 524.867188 130.351562 525.660156 128.945312 C 526.460938 127.539062 525.355469 126.742188 524.257812 125.640625 C 523.152344 124.535156 522.910156 123.007812 523.152344 120.441406 C 517.273438 112.601562 506.746094 116.394531 506.625 119.824219 C 510.425781 124.234375 510.914062 123.738281 514.097656 124.355469 C 517.273438 124.964844 519.230469 124.964844 517.09375 126.742188 C 516.363281 127.355469 513.296875 127.066406 510.914062 127.167969 C 505.570312 127.402344 503.128906 123.480469 501.550781 125.515625 C 500.253906 127.191406 501.597656 127.933594 504.242188 127.839844 C 502.40625 127.855469 499.976562 127.757812 500.394531 129.460938 C 501.09375 132.339844 503.84375 128.929688 504.914062 130.113281 C 504 129.898438 502.574219 130.453125 502.519531 131.324219 C 502.472656 132.1875 504.554688 133.304688 506.847656 131.488281 C 508.101562 130.488281 509.703125 130.117188 510.667969 130.109375 Z M 510.667969 130.109375 "/>
<path style="fill:none;stroke-width:0.509025;stroke-linecap:butt;stroke-linejoin:miter;stroke:rgb(0%,0%,0%);stroke-opacity:1;stroke-miterlimit:4;" d="M 515.21875 118.164062 C 513.308594 117.464844 511.558594 117.035156 509.320312 117.5 "/>
<path style="fill:none;stroke-width:0.509025;stroke-linecap:butt;stroke-linejoin:miter;stroke:rgb(0%,0%,0%);stroke-opacity:1;stroke-miterlimit:4;" d="M 486.429688 117.257812 C 484.859375 120.628906 485.808594 122.300781 486.046875 123.867188 "/>
<path style="fill:none;stroke-width:0.509025;stroke-linecap:butt;stroke-linejoin:miter;stroke:rgb(0%,0%,0%);stroke-opacity:1;stroke-miterlimit:4;" d="M 469.691406 101.246094 C 470.769531 101.78125 471.378906 100.257812 472.964844 101.878906 C 472.527344 101.40625 471.988281 103.136719 470.769531 101.988281 "/>
<path style="fill:none;stroke-width:0.509025;stroke-linecap:butt;stroke-linejoin:miter;stroke:rgb(0%,0%,0%);stroke-opacity:1;stroke-miterlimit:4;" d="M 478.5 101.246094 C 477.421875 101.78125 476.816406 100.257812 475.230469 101.878906 C 475.667969 101.40625 476.207031 103.136719 477.421875 101.988281 "/>
<path style="fill:none;stroke-width:0.509025;stroke-linecap:butt;stroke-linejoin:miter;stroke:rgb(0%,0%,0%);stroke-opacity:1;stroke-miterlimit:4;" d="M 475.230469 101.878906 C 474.859375 102.183594 474.824219 101.636719 475.101562 103.082031 C 475.625 105.734375 476.238281 106.972656 474.097656 106.972656 C 471.902344 106.972656 472.570312 105.734375 473.085938 103.082031 C 473.367188 101.636719 473.335938 102.183594 472.964844 101.878906 "/>
<path style="fill-rule:evenodd;fill:rgb(99.998474%,0%,8.627319%);fill-opacity:1;stroke-width:0.254513;stroke-linecap:butt;stroke-linejoin:miter;stroke:rgb(0%,0%,0%);stroke-opacity:1;stroke-miterlimit:4;" d="M 474.125 112.050781 C 475.867188 112.050781 476.878906 112.019531 476.605469 109.574219 C 476.492188 108.589844 477.800781 108.199219 477.339844 106.605469 C 477.828125 108.566406 474.125 108.375 474.125 107.488281 C 474.125 108.375 470.425781 108.566406 470.914062 106.605469 C 470.453125 108.199219 471.757812 108.589844 471.644531 109.574219 C 471.378906 112.019531 472.382812 112.050781 474.125 112.050781 Z M 474.125 112.050781 "/>
<path style=" stroke:none;fill-rule:evenodd;fill:rgb(0%,0%,0%);fill-opacity:1;" d="M 472.558594 107.101562 L 468.375 105.933594 Z M 472.558594 107.101562 "/>
<path style="fill:none;stroke-width:0.254513;stroke-linecap:butt;stroke-linejoin:miter;stroke:rgb(0%,0%,0%);stroke-opacity:1;stroke-miterlimit:4;" d="M 472.558594 107.101562 L 468.375 105.933594 "/>
<path style=" stroke:none;fill-rule:evenodd;fill:rgb(0%,0%,0%);fill-opacity:1;" d="M 472.558594 107.320312 L 467.886719 107.28125 Z M 472.558594 107.320312 "/>
<path style="fill:none;stroke-width:0.254513;stroke-linecap:butt;stroke-linejoin:miter;stroke:rgb(0%,0%,0%);stroke-opacity:1;stroke-miterlimit:4;" d="M 472.558594 107.320312 L 467.886719 107.28125 "/>
<path style=" stroke:none;fill-rule:evenodd;fill:rgb(0%,0%,0%);fill-opacity:1;" d="M 472.601562 107.558594 L 468.617188 108.621094 Z M 472.601562 107.558594 "/>
<path style="fill:none;stroke-width:0.254513;stroke-linecap:butt;stroke-linejoin:miter;stroke:rgb(0%,0%,0%);stroke-opacity:1;stroke-miterlimit:4;" d="M 472.601562 107.558594 L 468.617188 108.621094 "/>
<path style=" stroke:none;fill-rule:evenodd;fill:rgb(0%,0%,0%);fill-opacity:1;" d="M 475.695312 107.101562 L 479.882812 105.933594 Z M 475.695312 107.101562 "/>
<path style="fill:none;stroke-width:0.254513;stroke-linecap:butt;stroke-linejoin:miter;stroke:rgb(0%,0%,0%);stroke-opacity:1;stroke-miterlimit:4;" d="M 475.695312 107.101562 L 479.882812 105.933594 "/>
<path style=" stroke:none;fill-rule:evenodd;fill:rgb(0%,0%,0%);fill-opacity:1;" d="M 475.695312 107.320312 L 480.371094 107.28125 Z M 475.695312 107.320312 "/>
<path style="fill:none;stroke-width:0.254513;stroke-linecap:butt;stroke-linejoin:miter;stroke:rgb(0%,0%,0%);stroke-opacity:1;stroke-miterlimit:4;" d="M 475.695312 107.320312 L 480.371094 107.28125 "/>
<path style=" stroke:none;fill-rule:evenodd;fill:rgb(0%,0%,0%);fill-opacity:1;" d="M 475.648438 107.558594 L 479.640625 108.621094 Z M 475.648438 107.558594 "/>
<path style="fill:none;stroke-width:0.254513;stroke-linecap:butt;stroke-linejoin:miter;stroke:rgb(0%,0%,0%);stroke-opacity:1;stroke-miterlimit:4;" d="M 475.648438 107.558594 L 479.640625 108.621094 "/>
<path style="fill-rule:evenodd;fill:rgb(0%,31.764221%,72.940063%);fill-opacity:1;stroke-width:0.0529385;stroke-linecap:butt;stroke-linejoin:miter;stroke:rgb(0%,0%,0%);stroke-opacity:1;stroke-miterlimit:4;" d="M 452.441406 94.574219 C 451.226562 93.054688 448.171875 94.339844 448.113281 96.222656 C 449.144531 95 450.824219 96.757812 451.742188 96.386719 C 452.378906 96.132812 452.933594 95.191406 452.441406 94.574219 Z M 452.441406 94.574219 "/>
<path style="fill-rule:evenodd;fill:rgb(0%,31.764221%,72.940063%);fill-opacity:1;stroke-width:0.0529385;stroke-linecap:butt;stroke-linejoin:miter;stroke:rgb(0%,0%,0%);stroke-opacity:1;stroke-miterlimit:4;" d="M 450.863281 98.164062 C 449.644531 96.644531 446.601562 97.929688 446.539062 99.808594 C 447.5625 98.589844 449.246094 100.347656 450.167969 99.976562 C 450.800781 99.722656 451.359375 98.777344 450.863281 98.164062 Z M 450.863281 98.164062 "/>
<path style="fill-rule:evenodd;fill:rgb(0%,31.764221%,72.940063%);fill-opacity:1;stroke-width:0.0529385;stroke-linecap:butt;stroke-linejoin:miter;stroke:rgb(0%,0%,0%);stroke-opacity:1;stroke-miterlimit:4;" d="M 450.070312 102.984375 C 448.6875 101.617188 445.804688 103.226562 445.957031 105.109375 C 446.847656 103.777344 448.710938 105.335938 449.578125 104.863281 C 450.179688 104.542969 450.628906 103.539062 450.070312 102.984375 Z M 450.070312 102.984375 "/>
<path style="fill-rule:evenodd;fill:rgb(0%,31.764221%,72.940063%);fill-opacity:1;stroke-width:0.0529385;stroke-linecap:butt;stroke-linejoin:miter;stroke:rgb(0%,0%,0%);stroke-opacity:1;stroke-miterlimit:4;" d="M 451.523438 117.925781 C 449.988281 116.722656 447.316406 118.664062 447.679688 120.507812 C 448.410156 119.085938 450.441406 120.414062 451.25 119.847656 C 451.8125 119.457031 452.144531 118.414062 451.523438 117.925781 Z M 451.523438 117.925781 "/>
<path style="fill-rule:evenodd;fill:rgb(0%,31.764221%,72.940063%);fill-opacity:1;stroke-width:0.0529385;stroke-linecap:butt;stroke-linejoin:miter;stroke:rgb(0%,0%,0%);stroke-opacity:1;stroke-miterlimit:4;" d="M 451.445312 121.195312 C 449.617188 120.523438 447.667969 123.1875 448.582031 124.832031 C 448.832031 123.257812 451.179688 123.902344 451.777344 123.109375 C 452.191406 122.5625 452.1875 121.46875 451.445312 121.195312 Z M 451.445312 121.195312 "/>
<path style="fill-rule:evenodd;fill:rgb(0%,31.764221%,72.940063%);fill-opacity:1;stroke-width:0.0529385;stroke-linecap:butt;stroke-linejoin:miter;stroke:rgb(0%,0%,0%);stroke-opacity:1;stroke-miterlimit:4;" d="M 453.789062 123.636719 C 451.960938 122.964844 450.011719 125.628906 450.917969 127.273438 C 451.175781 125.703125 453.519531 126.34375 454.121094 125.550781 C 454.535156 125.003906 454.527344 123.910156 453.789062 123.636719 Z M 453.789062 123.636719 "/>
<path style="fill-rule:evenodd;fill:rgb(0%,31.764221%,72.940063%);fill-opacity:1;stroke-width:0.0529385;stroke-linecap:butt;stroke-linejoin:miter;stroke:rgb(0%,0%,0%);stroke-opacity:1;stroke-miterlimit:4;" d="M 501.585938 128.375 C 499.761719 127.699219 497.808594 130.367188 498.726562 132.011719 C 498.980469 130.433594 501.324219 131.078125 501.917969 130.289062 C 502.332031 129.742188 502.328125 128.648438 501.585938 128.375 Z M 501.585938 128.375 "/>
<path style="fill-rule:evenodd;fill:rgb(0%,31.764221%,72.940063%);fill-opacity:1;stroke-width:0.0529385;stroke-linecap:butt;stroke-linejoin:miter;stroke:rgb(0%,0%,0%);stroke-opacity:1;stroke-miterlimit:4;" d="M 504.046875 130.589844 C 502.160156 130.132812 500.523438 133.003906 501.621094 134.53125 C 501.695312 132.933594 504.097656 133.304688 504.601562 132.457031 C 504.953125 131.863281 504.820312 130.777344 504.046875 130.589844 Z M 504.046875 130.589844 "/>
<path style="fill-rule:evenodd;fill:rgb(0%,31.764221%,72.940063%);fill-opacity:1;stroke-width:0.0529385;stroke-linecap:butt;stroke-linejoin:miter;stroke:rgb(0%,0%,0%);stroke-opacity:1;stroke-miterlimit:4;" d="M 502.316406 125.234375 C 500.628906 124.261719 498.253906 126.550781 498.871094 128.328125 C 499.394531 126.820312 501.597656 127.851562 502.320312 127.175781 C 502.824219 126.707031 502.996094 125.628906 502.316406 125.234375 Z M 502.316406 125.234375 "/>
<path style="fill-rule:evenodd;fill:rgb(0%,31.764221%,72.940063%);fill-opacity:1;stroke-width:0.0529385;stroke-linecap:butt;stroke-linejoin:miter;stroke:rgb(0%,0%,0%);stroke-opacity:1;stroke-miterlimit:4;" d="M 536.324219 129.0625 C 534.433594 128.605469 532.796875 131.476562 533.890625 133.003906 C 533.96875 131.410156 536.371094 131.777344 536.871094 130.925781 C 537.222656 130.335938 537.089844 129.253906 536.324219 129.0625 Z M 536.324219 129.0625 "/>
<path style="fill-rule:evenodd;fill:rgb(0%,31.764221%,72.940063%);fill-opacity:1;stroke-width:0.0529385;stroke-linecap:butt;stroke-linejoin:miter;stroke:rgb(0%,0%,0%);stroke-opacity:1;stroke-miterlimit:4;" d="M 536.378906 126.058594 C 534.664062 125.144531 532.367188 127.523438 533.046875 129.277344 C 533.515625 127.75 535.753906 128.707031 536.449219 128.003906 C 536.9375 127.519531 537.078125 126.433594 536.378906 126.058594 Z M 536.378906 126.058594 "/>
<path style="fill-rule:evenodd;fill:rgb(0%,31.764221%,72.940063%);fill-opacity:1;stroke-width:0.0529385;stroke-linecap:butt;stroke-linejoin:miter;stroke:rgb(0%,0%,0%);stroke-opacity:1;stroke-miterlimit:4;" d="M 537.703125 131.746094 C 535.800781 131.367188 534.292969 134.304688 535.449219 135.792969 C 535.457031 134.195312 537.875 134.457031 538.339844 133.582031 C 538.664062 132.980469 538.484375 131.898438 537.703125 131.746094 Z M 537.703125 131.746094 "/>
<path style="fill-rule:evenodd;fill:rgb(0%,31.764221%,72.940063%);fill-opacity:1;stroke-width:0.0529385;stroke-linecap:butt;stroke-linejoin:miter;stroke:rgb(0%,0%,0%);stroke-opacity:1;stroke-miterlimit:4;" d="M 474.265625 110.585938 C 475.464844 110.585938 475.949219 110.933594 475.949219 113.097656 C 475.949219 117.679688 475.894531 119.648438 474.417969 119.648438 C 472.945312 119.648438 473.042969 117.777344 473.042969 114.414062 C 473.042969 112.65625 473.042969 111.78125 472.691406 111.929688 C 472.691406 110.78125 473.199219 110.585938 474.265625 110.585938 Z M 474.265625 110.585938 "/>
<path style="fill-rule:evenodd;fill:rgb(97.645569%,86.665344%,8.627319%);fill-opacity:1;stroke-width:0.458122;stroke-linecap:butt;stroke-linejoin:miter;stroke:rgb(0%,0%,0%);stroke-opacity:1;stroke-miterlimit:4;" d="M 538.179688 173.027344 C 537.019531 173.304688 537.019531 174.789062 536.421875 174.789062 C 539.417969 174.710938 540.878906 173.882812 541.789062 172.367188 C 541.128906 172.972656 541.703125 174.132812 541.484375 174.402344 C 543.6875 173.636719 544.734375 171.761719 543.964844 170.496094 C 544.457031 171.210938 545.894531 171.597656 546.332031 171.648438 C 544.789062 170.441406 545.894531 167.683594 543.414062 166.253906 C 544.238281 166.203125 545.839844 167.132812 546.277344 168.238281 C 545.894531 165.757812 545.503906 164.160156 543.464844 162.785156 C 543.6875 163.03125 544.84375 163.253906 545.335938 162.785156 C 544.019531 161.957031 543.632812 160.582031 543.746094 159.699219 C 543.894531 158.464844 543.082031 158.210938 541.539062 158.597656 C 540.152344 158.945312 536.96875 159.148438 535.097656 159.148438 C 531.238281 159.148438 527.882812 159.148438 524.683594 156.945312 C 529.476562 158.925781 535.589844 154.742188 535.589844 151.269531 C 535.589844 147.417969 530.851562 144.277344 521.269531 146.367188 C 511.683594 148.460938 500.003906 147.578125 500.003906 144.386719 C 500.003906 141.191406 508.378906 140.753906 512.675781 141.410156 C 516.972656 142.070312 520.054688 142.515625 528.101562 139.648438 C 526.117188 140.421875 519.726562 140.640625 514.660156 139.207031 C 509.589844 137.773438 497.140625 137.773438 497.03125 144.496094 C 496.917969 151.214844 510.289062 150.605469 521.820312 148.902344 C 528.539062 147.910156 532.066406 148.570312 532.066406 150.777344 C 532.066406 152.867188 525.898438 153.75 521.15625 153.199219 C 516.421875 152.644531 511.574219 152.757812 505.957031 154.410156 C 501.265625 155.792969 498.023438 154.410156 492.847656 155.292969 C 490.335938 155.71875 484.253906 155.292969 481.25 150.332031 C 479.402344 151.65625 473.835938 154.421875 472.90625 157.125 C 471.582031 159.605469 472.464844 162.066406 474.222656 164.492188 C 476.445312 167.542969 473.125 167.078125 470.757812 167.191406 C 467.511719 167.34375 463.164062 166.847656 460.894531 164.273438 C 458.886719 161.988281 456.210938 160.160156 454.074219 161.851562 C 452.972656 162.726562 454.027344 163.867188 454.898438 163.550781 C 455.761719 163.234375 456.777344 163.867188 457.699219 164.273438 C 456.230469 163.636719 454.613281 164.132812 453.984375 164.691406 C 453.113281 165.472656 454.171875 166.957031 455.21875 166.433594 C 456.046875 166.019531 457.738281 165.746094 458.835938 166.753906 C 457.644531 166.523438 456.40625 166.574219 455.816406 167.210938 C 455.21875 167.851562 455.679688 168.777344 456.960938 168.726562 C 459.023438 168.632812 459.550781 170.078125 461.609375 169.78125 C 460.347656 169.945312 459.625 170.605469 459.296875 171.105469 C 461.226562 170.21875 463.355469 172.597656 465.855469 172.035156 C 464.878906 172.441406 463.304688 173.398438 463.320312 174.132812 C 464.804688 172.421875 474.773438 175.453125 474.996094 171.707031 C 475.273438 172.480469 475.214844 173.636719 474.449219 174.628906 C 475.722656 173.859375 479.84375 173.578125 481.109375 170.605469 C 481.222656 171.488281 481.054688 172.640625 480.289062 172.921875 C 481.605469 173.351562 483.351562 172.367188 485.132812 169.726562 C 485.839844 168.675781 486.007812 167.980469 485.882812 167.191406 C 487.652344 167.261719 488.929688 166.816406 490.308594 165.648438 C 491.742188 164.4375 493.285156 166.640625 495.707031 165.097656 C 498.136719 163.554688 500.226562 164.878906 501.546875 164.105469 C 502.871094 163.335938 504.6875 164.378906 506.117188 163.5 C 507.554688 162.617188 509.773438 163.929688 512.144531 162.058594 C 515.875 163.421875 520.230469 165.957031 530.910156 163.992188 C 537.03125 162.871094 538.949219 164.929688 538.949219 167.738281 C 538.949219 169.667969 537.824219 169.839844 536.96875 169.886719 C 533.566406 170.097656 532.101562 168.613281 530.757812 169.089844 C 529.855469 169.414062 529.304688 170.878906 530.609375 171.382812 C 529.53125 171.933594 529.671875 172.964844 530.21875 173.339844 C 530.769531 173.714844 532.1875 173.375 533.152344 172.929688 C 531.914062 173.492188 530.628906 174.496094 531.363281 175.550781 C 531.804688 176.191406 532.929688 176.734375 533.980469 175.367188 C 535.027344 173.992188 536.953125 172.847656 538.179688 173.027344 Z M 538.179688 173.027344 "/>
<path style="fill-rule:evenodd;fill:rgb(97.645569%,86.665344%,8.627319%);fill-opacity:1;stroke-width:0.458122;stroke-linecap:butt;stroke-linejoin:miter;stroke:rgb(0%,0%,0%);stroke-opacity:1;stroke-miterlimit:4;" d="M 470.339844 143.945312 C 467.257812 142.675781 466.214844 142.640625 466.929688 145.15625 C 467.230469 146.230469 467.972656 147.742188 468.714844 148.433594 C 468.746094 147.386719 469.132812 144.496094 470.339844 143.945312 Z M 470.339844 143.945312 "/>
<path style="fill-rule:evenodd;fill:rgb(97.645569%,86.665344%,8.627319%);fill-opacity:1;stroke-width:0.458122;stroke-linecap:butt;stroke-linejoin:miter;stroke:rgb(0%,0%,0%);stroke-opacity:1;stroke-miterlimit:4;" d="M 479.980469 143.945312 C 483.066406 142.675781 484.105469 142.640625 483.398438 145.15625 C 483.089844 146.230469 482.347656 147.742188 481.605469 148.433594 C 481.578125 147.386719 481.195312 144.496094 479.980469 143.945312 Z M 479.980469 143.945312 "/>
<path style="fill-rule:evenodd;fill:rgb(97.645569%,86.665344%,8.627319%);fill-opacity:1;stroke-width:0.458122;stroke-linecap:butt;stroke-linejoin:miter;stroke:rgb(0%,0%,0%);stroke-opacity:1;stroke-miterlimit:4;" d="M 475.175781 142.25 C 481.015625 142.25 481.742188 144.988281 481.714844 148.410156 C 481.691406 152.09375 479.707031 150.828125 478.578125 155.566406 C 478.140625 157.421875 476.660156 157.523438 475.175781 157.523438 C 473.6875 157.523438 472.214844 157.421875 471.773438 155.566406 C 470.644531 150.828125 468.664062 152.09375 468.632812 148.410156 C 468.605469 144.988281 469.335938 142.25 475.175781 142.25 Z M 475.175781 142.25 "/>
<path style="fill-rule:evenodd;fill:rgb(97.645569%,86.665344%,8.627319%);fill-opacity:1;stroke-width:0.458122;stroke-linecap:butt;stroke-linejoin:miter;stroke:rgb(0%,0%,0%);stroke-opacity:1;stroke-miterlimit:4;" d="M 460.128906 155.785156 C 458.636719 154.90625 457.675781 155.515625 457.070312 155.683594 C 459 156.175781 459.078125 158.652344 463.484375 159.808594 C 462.488281 159.53125 461.945312 160.082031 461.007812 159.589844 C 462.824219 161.019531 464.859375 162.679688 469.160156 162.730469 C 471.558594 162.753906 469.898438 163.992188 468.328125 163.28125 C 469.957031 164.960938 473.179688 163.582031 475.214844 166.640625 C 475.601562 164.273438 471.417969 160.527344 473.34375 157.828125 C 467.398438 157.574219 466.914062 154.277344 463.484375 151.65625 C 460.699219 149.527344 460.449219 147.359375 459.214844 143.300781 C 458.65625 141.464844 456.503906 140.316406 455.3125 140.753906 C 454.273438 141.132812 453.890625 142.035156 454.785156 142.714844 C 455.679688 143.390625 456.820312 143.480469 457.070312 145.191406 C 455.910156 143.796875 454.164062 143.296875 453.328125 144.171875 C 452.824219 144.699219 453.027344 145.933594 454.121094 146.046875 C 455.910156 146.230469 454.625 147.96875 456.65625 149.671875 C 454.855469 147.652344 453.296875 147.464844 452.332031 148.566406 C 451.757812 149.222656 452.332031 150.398438 453.574219 150.273438 C 455.367188 150.085938 457.441406 154.640625 460.128906 155.785156 Z M 460.128906 155.785156 "/>
<path style="fill-rule:evenodd;fill:rgb(97.645569%,86.665344%,8.627319%);fill-opacity:1;stroke-width:0.458122;stroke-linecap:butt;stroke-linejoin:miter;stroke:rgb(0%,0%,0%);stroke-opacity:1;stroke-miterlimit:4;" d="M 508.046875 172.808594 C 507.109375 172.972656 507.386719 174.515625 506.117188 174.628906 C 509.148438 174.628906 510.6875 173.910156 512.125 172.753906 C 511.464844 173.140625 511.1875 174.132812 511.132812 174.683594 C 512.730469 173.304688 516.535156 173.195312 518.515625 173.578125 C 520.496094 173.964844 520.828125 173.027344 521.542969 171.761719 C 522.261719 170.496094 521.269531 169.78125 520.277344 168.789062 C 519.289062 167.796875 519.0625 166.421875 519.289062 164.105469 C 513.992188 157.054688 504.519531 160.46875 504.414062 163.554688 C 507.828125 167.519531 508.265625 167.078125 511.132812 167.632812 C 513.992188 168.183594 515.753906 168.179688 513.832031 169.78125 C 513.171875 170.332031 510.414062 170.074219 508.265625 170.167969 C 503.460938 170.375 501.265625 166.847656 499.84375 168.675781 C 498.675781 170.183594 499.882812 170.851562 502.265625 170.769531 C 500.613281 170.78125 498.425781 170.695312 498.804688 172.230469 C 499.433594 174.820312 501.902344 171.746094 502.871094 172.8125 C 502.046875 172.617188 500.761719 173.125 500.710938 173.902344 C 500.667969 174.683594 502.546875 175.6875 504.609375 174.046875 C 505.738281 173.152344 507.175781 172.816406 508.046875 172.808594 Z M 508.046875 172.808594 "/>
<path style="fill:none;stroke-width:0.458122;stroke-linecap:butt;stroke-linejoin:miter;stroke:rgb(0%,0%,0%);stroke-opacity:1;stroke-miterlimit:4;" d="M 512.144531 162.058594 C 510.425781 161.429688 508.851562 161.046875 506.835938 161.460938 "/>
<path style="fill:none;stroke-width:0.458122;stroke-linecap:butt;stroke-linejoin:miter;stroke:rgb(0%,0%,0%);stroke-opacity:1;stroke-miterlimit:4;" d="M 486.234375 161.238281 C 484.820312 164.28125 485.679688 165.78125 485.882812 167.191406 "/>
<path style="fill:none;stroke-width:0.458122;stroke-linecap:butt;stroke-linejoin:miter;stroke:rgb(0%,0%,0%);stroke-opacity:1;stroke-miterlimit:4;" d="M 471.171875 146.832031 C 472.144531 147.320312 472.691406 145.949219 474.117188 147.402344 C 473.722656 146.976562 473.234375 148.53125 472.144531 147.5 "/>
<path style="fill:none;stroke-width:0.458122;stroke-linecap:butt;stroke-linejoin:miter;stroke:rgb(0%,0%,0%);stroke-opacity:1;stroke-miterlimit:4;" d="M 479.097656 146.832031 C 478.125 147.320312 477.582031 145.949219 476.15625 147.402344 C 476.546875 146.976562 477.035156 148.53125 478.125 147.5 "/>
<path style="fill:none;stroke-width:0.458122;stroke-linecap:butt;stroke-linejoin:miter;stroke:rgb(0%,0%,0%);stroke-opacity:1;stroke-miterlimit:4;" d="M 476.15625 147.402344 C 475.820312 147.675781 475.792969 147.183594 476.039062 148.480469 C 476.507812 150.867188 477.066406 151.988281 475.132812 151.988281 C 473.160156 151.988281 473.761719 150.867188 474.222656 148.480469 C 474.484375 147.183594 474.449219 147.675781 474.117188 147.402344 "/>
<path style="fill-rule:evenodd;fill:rgb(99.998474%,0%,8.627319%);fill-opacity:1;stroke-width:0.229061;stroke-linecap:butt;stroke-linejoin:miter;stroke:rgb(0%,0%,0%);stroke-opacity:1;stroke-miterlimit:4;" d="M 475.160156 156.558594 C 476.730469 156.558594 477.640625 156.535156 477.390625 154.328125 C 477.289062 153.441406 478.464844 153.089844 478.050781 151.65625 C 478.492188 153.417969 475.160156 153.253906 475.160156 152.453125 C 475.160156 153.253906 471.832031 153.417969 472.269531 151.65625 C 471.855469 153.089844 473.027344 153.441406 472.929688 154.328125 C 472.683594 156.535156 473.59375 156.558594 475.160156 156.558594 Z M 475.160156 156.558594 "/>
<path style=" stroke:none;fill-rule:evenodd;fill:rgb(0%,0%,0%);fill-opacity:1;" d="M 473.75 152.101562 L 469.984375 151.050781 Z M 473.75 152.101562 "/>
<path style="fill:none;stroke-width:0.229061;stroke-linecap:butt;stroke-linejoin:miter;stroke:rgb(0%,0%,0%);stroke-opacity:1;stroke-miterlimit:4;" d="M 473.75 152.101562 L 469.984375 151.050781 "/>
<path style=" stroke:none;fill-rule:evenodd;fill:rgb(0%,0%,0%);fill-opacity:1;" d="M 473.75 152.300781 L 469.546875 152.261719 Z M 473.75 152.300781 "/>
<path style="fill:none;stroke-width:0.229061;stroke-linecap:butt;stroke-linejoin:miter;stroke:rgb(0%,0%,0%);stroke-opacity:1;stroke-miterlimit:4;" d="M 473.75 152.300781 L 469.546875 152.261719 "/>
<path style=" stroke:none;fill-rule:evenodd;fill:rgb(0%,0%,0%);fill-opacity:1;" d="M 473.789062 152.515625 L 470.203125 153.476562 Z M 473.789062 152.515625 "/>
<path style="fill:none;stroke-width:0.229061;stroke-linecap:butt;stroke-linejoin:miter;stroke:rgb(0%,0%,0%);stroke-opacity:1;stroke-miterlimit:4;" d="M 473.789062 152.515625 L 470.203125 153.476562 "/>
<path style=" stroke:none;fill-rule:evenodd;fill:rgb(0%,0%,0%);fill-opacity:1;" d="M 476.574219 152.101562 L 480.339844 151.050781 Z M 476.574219 152.101562 "/>
<path style="fill:none;stroke-width:0.229061;stroke-linecap:butt;stroke-linejoin:miter;stroke:rgb(0%,0%,0%);stroke-opacity:1;stroke-miterlimit:4;" d="M 476.574219 152.101562 L 480.339844 151.050781 "/>
<path style=" stroke:none;fill-rule:evenodd;fill:rgb(0%,0%,0%);fill-opacity:1;" d="M 476.574219 152.300781 L 480.78125 152.261719 Z M 476.574219 152.300781 "/>
<path style="fill:none;stroke-width:0.229061;stroke-linecap:butt;stroke-linejoin:miter;stroke:rgb(0%,0%,0%);stroke-opacity:1;stroke-miterlimit:4;" d="M 476.574219 152.300781 L 480.78125 152.261719 "/>
<path style=" stroke:none;fill-rule:evenodd;fill:rgb(0%,0%,0%);fill-opacity:1;" d="M 476.535156 152.515625 L 480.121094 153.476562 Z M 476.535156 152.515625 "/>
<path style="fill:none;stroke-width:0.229061;stroke-linecap:butt;stroke-linejoin:miter;stroke:rgb(0%,0%,0%);stroke-opacity:1;stroke-miterlimit:4;" d="M 476.535156 152.515625 L 480.121094 153.476562 "/>
<path style="fill-rule:evenodd;fill:rgb(0%,31.764221%,72.940063%);fill-opacity:1;stroke-width:0.0476448;stroke-linecap:butt;stroke-linejoin:miter;stroke:rgb(0%,0%,0%);stroke-opacity:1;stroke-miterlimit:4;" d="M 455.644531 140.828125 C 454.550781 139.460938 451.804688 140.613281 451.746094 142.308594 C 452.675781 141.210938 454.191406 142.792969 455.015625 142.460938 C 455.585938 142.230469 456.089844 141.386719 455.644531 140.828125 Z M 455.644531 140.828125 "/>
<path style="fill-rule:evenodd;fill:rgb(0%,31.764221%,72.940063%);fill-opacity:1;stroke-width:0.0476448;stroke-linecap:butt;stroke-linejoin:miter;stroke:rgb(0%,0%,0%);stroke-opacity:1;stroke-miterlimit:4;" d="M 454.222656 144.058594 C 453.128906 142.695312 450.386719 143.847656 450.332031 145.542969 C 451.253906 144.445312 452.769531 146.023438 453.597656 145.6875 C 454.171875 145.457031 454.671875 144.613281 454.222656 144.058594 Z M 454.222656 144.058594 "/>
<path style="fill-rule:evenodd;fill:rgb(0%,31.764221%,72.940063%);fill-opacity:1;stroke-width:0.0476448;stroke-linecap:butt;stroke-linejoin:miter;stroke:rgb(0%,0%,0%);stroke-opacity:1;stroke-miterlimit:4;" d="M 453.511719 148.398438 C 452.265625 147.164062 449.671875 148.617188 449.808594 150.308594 C 450.605469 149.109375 452.285156 150.511719 453.070312 150.085938 C 453.613281 149.796875 454.015625 148.902344 453.511719 148.398438 Z M 453.511719 148.398438 "/>
<path style="fill-rule:evenodd;fill:rgb(0%,31.764221%,72.940063%);fill-opacity:1;stroke-width:0.0476448;stroke-linecap:butt;stroke-linejoin:miter;stroke:rgb(0%,0%,0%);stroke-opacity:1;stroke-miterlimit:4;" d="M 454.820312 161.847656 C 453.4375 160.761719 451.03125 162.503906 451.359375 164.171875 C 452.015625 162.890625 453.84375 164.085938 454.570312 163.578125 C 455.078125 163.222656 455.382812 162.285156 454.820312 161.847656 Z M 454.820312 161.847656 "/>
<path style="fill-rule:evenodd;fill:rgb(0%,31.764221%,72.940063%);fill-opacity:1;stroke-width:0.0476448;stroke-linecap:butt;stroke-linejoin:miter;stroke:rgb(0%,0%,0%);stroke-opacity:1;stroke-miterlimit:4;" d="M 454.746094 164.789062 C 453.105469 164.183594 451.347656 166.582031 452.171875 168.0625 C 452.398438 166.644531 454.511719 167.222656 455.046875 166.507812 C 455.425781 166.019531 455.414062 165.035156 454.746094 164.789062 Z M 454.746094 164.789062 "/>
<path style="fill-rule:evenodd;fill:rgb(0%,31.764221%,72.940063%);fill-opacity:1;stroke-width:0.0476448;stroke-linecap:butt;stroke-linejoin:miter;stroke:rgb(0%,0%,0%);stroke-opacity:1;stroke-miterlimit:4;" d="M 456.855469 166.988281 C 455.214844 166.382812 453.453125 168.777344 454.277344 170.265625 C 454.507812 168.84375 456.617188 169.417969 457.160156 168.710938 C 457.527344 168.21875 457.523438 167.230469 456.855469 166.988281 Z M 456.855469 166.988281 "/>
<path style="fill-rule:evenodd;fill:rgb(0%,31.764221%,72.940063%);fill-opacity:1;stroke-width:0.0476448;stroke-linecap:butt;stroke-linejoin:miter;stroke:rgb(0%,0%,0%);stroke-opacity:1;stroke-miterlimit:4;" d="M 499.871094 171.25 C 498.234375 170.644531 496.476562 173.042969 497.300781 174.519531 C 497.527344 173.105469 499.640625 173.679688 500.175781 172.96875 C 500.550781 172.480469 500.542969 171.492188 499.871094 171.25 Z M 499.871094 171.25 "/>
<path style="fill-rule:evenodd;fill:rgb(0%,31.764221%,72.940063%);fill-opacity:1;stroke-width:0.0476448;stroke-linecap:butt;stroke-linejoin:miter;stroke:rgb(0%,0%,0%);stroke-opacity:1;stroke-miterlimit:4;" d="M 502.09375 173.242188 C 500.390625 172.828125 498.921875 175.414062 499.902344 176.792969 C 499.972656 175.355469 502.132812 175.6875 502.585938 174.921875 C 502.898438 174.390625 502.785156 173.414062 502.09375 173.242188 Z M 502.09375 173.242188 "/>
<path style="fill-rule:evenodd;fill:rgb(0%,31.764221%,72.940063%);fill-opacity:1;stroke-width:0.0476448;stroke-linecap:butt;stroke-linejoin:miter;stroke:rgb(0%,0%,0%);stroke-opacity:1;stroke-miterlimit:4;" d="M 500.53125 168.421875 C 499.015625 167.546875 496.875 169.609375 497.4375 171.210938 C 497.90625 169.855469 499.882812 170.78125 500.539062 170.171875 C 500.984375 169.75 501.148438 168.777344 500.53125 168.421875 Z M 500.53125 168.421875 "/>
<path style="fill-rule:evenodd;fill:rgb(0%,31.764221%,72.940063%);fill-opacity:1;stroke-width:0.0476448;stroke-linecap:butt;stroke-linejoin:miter;stroke:rgb(0%,0%,0%);stroke-opacity:1;stroke-miterlimit:4;" d="M 531.136719 171.871094 C 529.4375 171.453125 527.964844 174.039062 528.949219 175.414062 C 529.019531 173.980469 531.179688 174.3125 531.632812 173.546875 C 531.949219 173.011719 531.832031 172.035156 531.136719 171.871094 Z M 531.136719 171.871094 "/>
<path style="fill-rule:evenodd;fill:rgb(0%,31.764221%,72.940063%);fill-opacity:1;stroke-width:0.0476448;stroke-linecap:butt;stroke-linejoin:miter;stroke:rgb(0%,0%,0%);stroke-opacity:1;stroke-miterlimit:4;" d="M 531.1875 169.164062 C 529.644531 168.34375 527.578125 170.484375 528.1875 172.058594 C 528.613281 170.6875 530.625 171.546875 531.253906 170.914062 C 531.691406 170.480469 531.820312 169.503906 531.1875 169.164062 Z M 531.1875 169.164062 "/>
<path style="fill-rule:evenodd;fill:rgb(0%,31.764221%,72.940063%);fill-opacity:1;stroke-width:0.0476448;stroke-linecap:butt;stroke-linejoin:miter;stroke:rgb(0%,0%,0%);stroke-opacity:1;stroke-miterlimit:4;" d="M 532.382812 174.28125 C 530.667969 173.945312 529.304688 176.589844 530.351562 177.921875 C 530.359375 176.484375 532.535156 176.722656 532.949219 175.9375 C 533.246094 175.390625 533.082031 174.421875 532.382812 174.28125 Z M 532.382812 174.28125 "/>
<path style="fill-rule:evenodd;fill:rgb(0%,31.764221%,72.940063%);fill-opacity:1;stroke-width:0.0476448;stroke-linecap:butt;stroke-linejoin:miter;stroke:rgb(0%,0%,0%);stroke-opacity:1;stroke-miterlimit:4;" d="M 475.289062 155.238281 C 476.363281 155.238281 476.800781 155.550781 476.800781 157.5 C 476.800781 161.621094 476.753906 163.398438 475.425781 163.398438 C 474.097656 163.398438 474.191406 161.707031 474.191406 158.679688 C 474.191406 157.105469 474.191406 156.3125 473.867188 156.445312 C 473.867188 155.414062 474.328125 155.238281 475.289062 155.238281 Z M 475.289062 155.238281 "/>
<path style=" stroke:none;fill-rule:evenodd;fill:rgb(97.645569%,86.665344%,8.627319%);fill-opacity:1;" d="M 528.199219 209.554688 C 527.339844 209.785156 527.339844 211.023438 526.890625 211.023438 C 529.125 210.957031 530.210938 210.269531 530.890625 209.007812 C 530.394531 209.511719 530.824219 210.472656 530.660156 210.703125 C 532.300781 210.0625 533.082031 208.5 532.511719 207.445312 C 532.875 208.042969 533.945312 208.363281 534.273438 208.410156 C 533.121094 207.398438 533.945312 205.101562 532.09375 203.910156 C 532.714844 203.867188 533.902344 204.644531 534.230469 205.5625 C 533.945312 203.496094 533.652344 202.167969 532.140625 201.019531 C 532.300781 201.226562 533.164062 201.410156 533.53125 201.019531 C 532.546875 200.332031 532.261719 199.183594 532.34375 198.449219 C 532.460938 197.421875 531.851562 197.207031 530.703125 197.527344 C 529.667969 197.816406 527.300781 197.988281 525.902344 197.988281 C 523.039062 197.988281 520.53125 197.988281 518.152344 196.152344 C 521.722656 197.808594 526.273438 194.316406 526.273438 191.425781 C 526.273438 188.210938 522.742188 185.597656 515.609375 187.339844 C 508.476562 189.082031 499.785156 188.351562 499.785156 185.6875 C 499.785156 183.023438 506.015625 182.65625 509.214844 183.207031 C 512.414062 183.761719 514.707031 184.125 520.699219 181.738281 C 519.21875 182.382812 514.460938 182.5625 510.695312 181.371094 C 506.917969 180.179688 497.652344 180.179688 497.570312 185.78125 C 497.484375 191.378906 507.4375 190.867188 516.023438 189.453125 C 521.023438 188.621094 523.648438 189.175781 523.648438 191.011719 C 523.648438 192.753906 519.058594 193.492188 515.527344 193.03125 C 512.007812 192.574219 508.394531 192.667969 504.214844 194.042969 C 500.71875 195.191406 498.304688 194.042969 494.453125 194.773438 C 492.582031 195.132812 488.054688 194.773438 485.820312 190.644531 C 484.445312 191.746094 480.300781 194.050781 479.609375 196.304688 C 478.621094 198.367188 479.28125 200.425781 480.589844 202.441406 C 482.242188 204.984375 479.769531 204.601562 478.007812 204.691406 C 475.589844 204.820312 472.355469 204.402344 470.667969 202.261719 C 469.171875 200.355469 467.175781 198.832031 465.589844 200.242188 C 464.769531 200.964844 465.554688 201.921875 466.203125 201.65625 C 466.847656 201.390625 467.601562 201.921875 468.285156 202.261719 C 467.191406 201.734375 465.992188 202.140625 465.523438 202.613281 C 464.871094 203.257812 465.660156 204.496094 466.445312 204.0625 C 467.054688 203.714844 468.316406 203.484375 469.136719 204.328125 C 468.253906 204.136719 467.328125 204.179688 466.886719 204.710938 C 466.445312 205.242188 466.78125 206.015625 467.738281 205.972656 C 469.273438 205.894531 469.667969 207.09375 471.203125 206.851562 C 470.257812 206.988281 469.722656 207.539062 469.476562 207.949219 C 470.914062 207.214844 472.5 209.195312 474.359375 208.730469 C 473.632812 209.066406 472.460938 209.863281 472.476562 210.472656 C 473.578125 209.050781 481 211.578125 481.167969 208.457031 C 481.371094 209.097656 481.328125 210.0625 480.757812 210.890625 C 481.703125 210.242188 484.773438 210.015625 485.71875 207.539062 C 485.800781 208.269531 485.671875 209.238281 485.101562 209.46875 C 486.089844 209.824219 487.382812 209.003906 488.710938 206.800781 C 489.238281 205.925781 489.359375 205.347656 489.273438 204.691406 C 490.585938 204.746094 491.539062 204.378906 492.5625 203.410156 C 493.632812 202.398438 494.78125 204.234375 496.582031 202.949219 C 498.390625 201.660156 499.945312 202.765625 500.925781 202.117188 C 501.914062 201.480469 503.265625 202.347656 504.335938 201.617188 C 505.398438 200.882812 507.054688 201.976562 508.820312 200.414062 C 511.597656 201.550781 514.839844 203.664062 522.789062 202.03125 C 527.34375 201.09375 528.773438 202.808594 528.773438 205.152344 C 528.773438 206.757812 527.933594 206.894531 527.300781 206.945312 C 524.765625 207.113281 523.675781 205.878906 522.675781 206.273438 C 522.003906 206.542969 521.597656 207.765625 522.570312 208.183594 C 521.761719 208.640625 521.863281 209.503906 522.273438 209.816406 C 522.683594 210.132812 523.738281 209.84375 524.457031 209.472656 C 523.535156 209.941406 522.582031 210.78125 523.128906 211.660156 C 523.457031 212.191406 524.292969 212.640625 525.074219 211.503906 C 525.855469 210.359375 527.289062 209.402344 528.199219 209.554688 Z M 528.199219 209.554688 "/>
<path style="fill:none;stroke-width:0.360834;stroke-linecap:butt;stroke-linejoin:miter;stroke:rgb(0%,0%,0%);stroke-opacity:1;stroke-miterlimit:4;" d="M 528.199219 209.554688 C 527.339844 209.785156 527.339844 211.023438 526.890625 211.023438 C 529.125 210.957031 530.210938 210.269531 530.890625 209.007812 C 530.394531 209.511719 530.824219 210.472656 530.660156 210.703125 C 532.300781 210.0625 533.082031 208.5 532.507812 207.445312 C 532.875 208.042969 533.945312 208.363281 534.273438 208.410156 C 533.121094 207.398438 533.945312 205.101562 532.09375 203.910156 C 532.714844 203.867188 533.902344 204.644531 534.230469 205.5625 C 533.945312 203.496094 533.652344 202.167969 532.136719 201.019531 C 532.300781 201.226562 533.164062 201.410156 533.53125 201.019531 C 532.546875 200.332031 532.261719 199.183594 532.34375 198.449219 C 532.460938 197.421875 531.851562 197.207031 530.703125 197.527344 C 529.667969 197.816406 527.300781 197.988281 525.902344 197.988281 C 523.035156 197.988281 520.53125 197.988281 518.15625 196.152344 C 521.722656 197.808594 526.273438 194.316406 526.273438 191.425781 C 526.273438 188.210938 522.742188 185.597656 515.609375 187.339844 C 508.476562 189.082031 499.785156 188.351562 499.785156 185.6875 C 499.785156 183.023438 506.015625 182.65625 509.214844 183.207031 C 512.414062 183.761719 514.707031 184.125 520.699219 181.738281 C 519.21875 182.382812 514.460938 182.5625 510.691406 181.371094 C 506.917969 180.179688 497.652344 180.179688 497.570312 185.78125 C 497.484375 191.378906 507.4375 190.867188 516.023438 189.453125 C 521.023438 188.621094 523.648438 189.175781 523.648438 191.011719 C 523.648438 192.753906 519.058594 193.492188 515.527344 193.03125 C 512.007812 192.574219 508.394531 192.667969 504.214844 194.042969 C 500.71875 195.191406 498.304688 194.042969 494.453125 194.773438 C 492.582031 195.132812 488.058594 194.773438 485.820312 190.644531 C 484.441406 191.746094 480.300781 194.050781 479.609375 196.304688 C 478.625 198.367188 479.28125 200.425781 480.589844 202.441406 C 482.242188 204.984375 479.769531 204.601562 478.007812 204.691406 C 475.589844 204.820312 472.351562 204.402344 470.667969 202.261719 C 469.167969 200.355469 467.175781 198.832031 465.589844 200.242188 C 464.769531 200.964844 465.554688 201.921875 466.203125 201.65625 C 466.847656 201.390625 467.601562 201.921875 468.285156 202.261719 C 467.191406 201.734375 465.992188 202.140625 465.523438 202.613281 C 464.871094 203.257812 465.660156 204.496094 466.445312 204.0625 C 467.054688 203.714844 468.316406 203.484375 469.136719 204.328125 C 468.25 204.136719 467.328125 204.179688 466.886719 204.710938 C 466.445312 205.242188 466.78125 206.015625 467.738281 205.972656 C 469.273438 205.894531 469.667969 207.09375 471.199219 206.851562 C 470.257812 206.988281 469.722656 207.539062 469.476562 207.949219 C 470.914062 207.214844 472.5 209.195312 474.359375 208.730469 C 473.632812 209.066406 472.460938 209.863281 472.476562 210.472656 C 473.578125 209.050781 481 211.578125 481.167969 208.457031 C 481.371094 209.097656 481.328125 210.0625 480.757812 210.890625 C 481.703125 210.242188 484.773438 210.015625 485.71875 207.539062 C 485.800781 208.269531 485.675781 209.238281 485.101562 209.46875 C 486.089844 209.824219 487.382812 209.003906 488.710938 206.800781 C 489.238281 205.925781 489.359375 205.347656 489.273438 204.691406 C 490.585938 204.746094 491.539062 204.378906 492.5625 203.410156 C 493.632812 202.398438 494.78125 204.234375 496.582031 202.949219 C 498.386719 201.660156 499.945312 202.765625 500.925781 202.117188 C 501.914062 201.480469 503.265625 202.347656 504.335938 201.617188 C 505.398438 200.882812 507.054688 201.976562 508.816406 200.414062 C 511.597656 201.550781 514.839844 203.664062 522.789062 202.03125 C 527.34375 201.09375 528.773438 202.808594 528.773438 205.152344 C 528.773438 206.757812 527.933594 206.894531 527.300781 206.945312 C 524.765625 207.113281 523.675781 205.878906 522.675781 206.273438 C 522 206.542969 521.597656 207.765625 522.570312 208.183594 C 521.761719 208.640625 521.863281 209.503906 522.273438 209.816406 C 522.6875 210.132812 523.738281 209.84375 524.457031 209.472656 C 523.535156 209.941406 522.582031 210.78125 523.128906 211.660156 C 523.457031 212.191406 524.292969 212.640625 525.074219 211.503906 C 525.855469 210.359375 527.289062 209.402344 528.199219 209.554688 Z M 528.199219 209.554688 "/>
<path style="fill-rule:evenodd;fill:rgb(97.645569%,86.665344%,8.627319%);fill-opacity:1;stroke-width:0.360834;stroke-linecap:butt;stroke-linejoin:miter;stroke:rgb(0%,0%,0%);stroke-opacity:1;stroke-miterlimit:4;" d="M 477.699219 185.316406 C 475.40625 184.261719 474.628906 184.234375 475.15625 186.328125 C 475.386719 187.226562 475.9375 188.484375 476.488281 189.0625 C 476.507812 188.1875 476.796875 185.78125 477.699219 185.316406 Z M 477.699219 185.316406 "/>
<path style="fill-rule:evenodd;fill:rgb(97.645569%,86.665344%,8.627319%);fill-opacity:1;stroke-width:0.360834;stroke-linecap:butt;stroke-linejoin:miter;stroke:rgb(0%,0%,0%);stroke-opacity:1;stroke-miterlimit:4;" d="M 484.878906 185.316406 C 487.171875 184.261719 487.949219 184.234375 487.417969 186.328125 C 487.191406 187.226562 486.640625 188.484375 486.082031 189.0625 C 486.066406 188.1875 485.78125 185.78125 484.878906 185.316406 Z M 484.878906 185.316406 "/>
<path style=" stroke:none;fill-rule:evenodd;fill:rgb(97.645569%,86.665344%,8.627319%);fill-opacity:1;" d="M 481.296875 183.910156 C 485.644531 183.910156 486.1875 186.191406 486.167969 189.039062 C 486.148438 192.113281 484.671875 191.058594 483.832031 195.003906 C 483.507812 196.546875 482.402344 196.636719 481.296875 196.636719 C 480.191406 196.636719 479.097656 196.546875 478.765625 195.003906 C 477.925781 191.058594 476.449219 192.113281 476.429688 189.039062 C 476.40625 186.191406 476.949219 183.910156 481.296875 183.910156 Z M 481.296875 183.910156 "/>
<path style="fill:none;stroke-width:0.360834;stroke-linecap:butt;stroke-linejoin:miter;stroke:rgb(0%,0%,0%);stroke-opacity:1;stroke-miterlimit:4;" d="M 481.296875 183.910156 C 485.644531 183.910156 486.1875 186.191406 486.167969 189.039062 C 486.148438 192.113281 484.671875 191.058594 483.832031 195.003906 C 483.503906 196.546875 482.402344 196.636719 481.296875 196.636719 C 480.191406 196.636719 479.097656 196.546875 478.765625 195.003906 C 477.925781 191.058594 476.449219 192.113281 476.429688 189.039062 C 476.40625 186.191406 476.949219 183.910156 481.296875 183.910156 Z M 481.296875 183.910156 "/>
<path style=" stroke:none;fill-rule:evenodd;fill:rgb(97.645569%,86.665344%,8.627319%);fill-opacity:1;" d="M 470.09375 195.191406 C 468.984375 194.453125 468.269531 194.960938 467.824219 195.101562 C 469.257812 195.511719 469.3125 197.578125 472.597656 198.539062 C 471.855469 198.308594 471.445312 198.769531 470.746094 198.355469 C 472.105469 199.550781 473.617188 200.933594 476.820312 200.972656 C 478.605469 200.996094 477.367188 202.03125 476.203125 201.429688 C 477.414062 202.832031 479.816406 201.683594 481.328125 204.234375 C 481.617188 202.261719 478.5 199.136719 479.9375 196.890625 C 475.507812 196.675781 475.144531 193.929688 472.597656 191.746094 C 470.515625 189.972656 470.332031 188.164062 469.417969 184.785156 C 469 183.253906 467.398438 182.300781 466.515625 182.660156 C 465.738281 182.980469 465.453125 183.730469 466.117188 184.292969 C 466.78125 184.859375 467.636719 184.929688 467.816406 186.363281 C 466.953125 185.199219 465.660156 184.78125 465.035156 185.507812 C 464.660156 185.949219 464.808594 186.976562 465.625 187.070312 C 466.953125 187.222656 466 188.675781 467.511719 190.09375 C 466.171875 188.410156 465.011719 188.257812 464.292969 189.171875 C 463.867188 189.722656 464.292969 190.699219 465.214844 190.597656 C 466.546875 190.441406 468.097656 194.230469 470.09375 195.191406 Z M 470.09375 195.191406 "/>
<path style="fill:none;stroke-width:0.360834;stroke-linecap:butt;stroke-linejoin:miter;stroke:rgb(0%,0%,0%);stroke-opacity:1;stroke-miterlimit:4;" d="M 470.09375 195.191406 C 468.984375 194.453125 468.273438 194.960938 467.820312 195.101562 C 469.257812 195.511719 469.3125 197.578125 472.597656 198.539062 C 471.855469 198.308594 471.445312 198.769531 470.746094 198.355469 C 472.105469 199.550781 473.617188 200.933594 476.820312 200.972656 C 478.601562 200.996094 477.367188 202.03125 476.203125 201.429688 C 477.410156 202.832031 479.816406 201.683594 481.328125 204.234375 C 481.617188 202.261719 478.5 199.136719 479.9375 196.890625 C 475.507812 196.675781 475.144531 193.929688 472.597656 191.746094 C 470.515625 189.972656 470.332031 188.164062 469.417969 184.785156 C 469 183.253906 467.398438 182.300781 466.511719 182.660156 C 465.738281 182.980469 465.453125 183.730469 466.117188 184.292969 C 466.78125 184.859375 467.636719 184.929688 467.816406 186.363281 C 466.953125 185.199219 465.660156 184.78125 465.035156 185.507812 C 464.660156 185.949219 464.808594 186.976562 465.625 187.070312 C 466.953125 187.222656 466 188.675781 467.507812 190.09375 C 466.171875 188.410156 465.011719 188.257812 464.292969 189.171875 C 463.867188 189.722656 464.292969 190.699219 465.214844 190.597656 C 466.546875 190.441406 468.09375 194.230469 470.09375 195.191406 Z M 470.09375 195.191406 "/>
<path style=" stroke:none;fill-rule:evenodd;fill:rgb(97.645569%,86.665344%,8.627319%);fill-opacity:1;" d="M 505.769531 209.375 C 505.074219 209.511719 505.277344 210.796875 504.335938 210.890625 C 506.589844 210.890625 507.738281 210.292969 508.804688 209.328125 C 508.316406 209.648438 508.109375 210.472656 508.066406 210.933594 C 509.257812 209.785156 512.085938 209.699219 513.566406 210.015625 C 515.039062 210.335938 515.285156 209.554688 515.816406 208.5 C 516.351562 207.445312 515.609375 206.851562 514.871094 206.019531 C 514.136719 205.195312 513.96875 204.046875 514.136719 202.117188 C 510.199219 196.246094 503.144531 199.089844 503.0625 201.660156 C 505.605469 204.964844 505.933594 204.601562 508.066406 205.058594 C 510.199219 205.515625 511.503906 205.515625 510.074219 206.851562 C 509.585938 207.308594 507.535156 207.09375 505.933594 207.167969 C 502.359375 207.34375 500.71875 204.402344 499.664062 205.933594 C 498.792969 207.1875 499.691406 207.742188 501.464844 207.675781 C 500.238281 207.683594 498.609375 207.613281 498.886719 208.890625 C 499.355469 211.050781 501.195312 208.492188 501.914062 209.375 C 501.296875 209.214844 500.347656 209.632812 500.3125 210.285156 C 500.277344 210.933594 501.675781 211.773438 503.210938 210.410156 C 504.050781 209.660156 505.121094 209.378906 505.769531 209.375 Z M 505.769531 209.375 "/>
<path style="fill:none;stroke-width:0.360834;stroke-linecap:butt;stroke-linejoin:miter;stroke:rgb(0%,0%,0%);stroke-opacity:1;stroke-miterlimit:4;" d="M 505.773438 209.375 C 505.074219 209.511719 505.277344 210.796875 504.335938 210.890625 C 506.589844 210.890625 507.738281 210.292969 508.804688 209.328125 C 508.316406 209.648438 508.109375 210.472656 508.066406 210.933594 C 509.257812 209.785156 512.085938 209.699219 513.5625 210.015625 C 515.039062 210.335938 515.285156 209.554688 515.816406 208.5 C 516.351562 207.445312 515.609375 206.851562 514.871094 206.019531 C 514.136719 205.195312 513.96875 204.046875 514.136719 202.117188 C 510.199219 196.246094 503.144531 199.089844 503.0625 201.660156 C 505.605469 204.964844 505.933594 204.601562 508.066406 205.058594 C 510.199219 205.515625 511.503906 205.515625 510.074219 206.851562 C 509.585938 207.308594 507.535156 207.09375 505.933594 207.167969 C 502.359375 207.34375 500.71875 204.402344 499.664062 205.933594 C 498.792969 207.1875 499.691406 207.742188 501.464844 207.675781 C 500.238281 207.683594 498.609375 207.613281 498.886719 208.890625 C 499.355469 211.050781 501.195312 208.492188 501.914062 209.375 C 501.296875 209.214844 500.347656 209.632812 500.3125 210.285156 C 500.277344 210.933594 501.675781 211.773438 503.210938 210.410156 C 504.054688 209.660156 505.121094 209.378906 505.773438 209.375 Z M 505.773438 209.375 "/>
<path style="fill:none;stroke-width:0.360834;stroke-linecap:butt;stroke-linejoin:miter;stroke:rgb(0%,0%,0%);stroke-opacity:1;stroke-miterlimit:4;" d="M 508.816406 200.414062 C 507.539062 199.890625 506.367188 199.570312 504.867188 199.917969 "/>
<path style="fill:none;stroke-width:0.360834;stroke-linecap:butt;stroke-linejoin:miter;stroke:rgb(0%,0%,0%);stroke-opacity:1;stroke-miterlimit:4;" d="M 489.53125 199.730469 C 488.476562 202.265625 489.117188 203.515625 489.273438 204.691406 "/>
<path style="fill:none;stroke-width:0.360834;stroke-linecap:butt;stroke-linejoin:miter;stroke:rgb(0%,0%,0%);stroke-opacity:1;stroke-miterlimit:4;" d="M 478.316406 187.726562 C 479.039062 188.128906 479.449219 186.988281 480.507812 188.203125 C 480.214844 187.847656 479.855469 189.144531 479.039062 188.28125 "/>
<path style="fill:none;stroke-width:0.360834;stroke-linecap:butt;stroke-linejoin:miter;stroke:rgb(0%,0%,0%);stroke-opacity:1;stroke-miterlimit:4;" d="M 484.21875 187.726562 C 483.496094 188.128906 483.089844 186.988281 482.027344 188.203125 C 482.320312 187.847656 482.679688 189.144531 483.496094 188.28125 "/>
<path style="fill:none;stroke-width:0.360834;stroke-linecap:butt;stroke-linejoin:miter;stroke:rgb(0%,0%,0%);stroke-opacity:1;stroke-miterlimit:4;" d="M 482.027344 188.203125 C 481.777344 188.433594 481.753906 188.015625 481.941406 189.101562 C 482.292969 191.089844 482.703125 192.019531 481.265625 192.019531 C 479.800781 192.019531 480.242188 191.089844 480.589844 189.101562 C 480.78125 188.015625 480.757812 188.433594 480.507812 188.203125 "/>
<path style=" stroke:none;fill-rule:evenodd;fill:rgb(99.998474%,0%,8.627319%);fill-opacity:1;" d="M 481.289062 195.828125 C 482.457031 195.828125 483.136719 195.808594 482.949219 193.976562 C 482.875 193.238281 483.75 192.945312 483.441406 191.746094 C 483.769531 193.210938 481.289062 193.078125 481.289062 192.40625 C 481.289062 193.078125 478.808594 193.210938 479.136719 191.746094 C 478.828125 192.945312 479.703125 193.238281 479.628906 193.976562 C 479.445312 195.808594 480.121094 195.828125 481.289062 195.828125 Z M 481.289062 195.828125 "/>
<path style="fill:none;stroke-width:0.180416;stroke-linecap:butt;stroke-linejoin:miter;stroke:rgb(0%,0%,0%);stroke-opacity:1;stroke-miterlimit:4;" d="M 481.289062 195.828125 C 482.457031 195.828125 483.132812 195.808594 482.949219 193.976562 C 482.875 193.238281 483.75 192.945312 483.441406 191.746094 C 483.769531 193.210938 481.289062 193.078125 481.289062 192.40625 C 481.289062 193.078125 478.808594 193.210938 479.136719 191.746094 C 478.828125 192.945312 479.703125 193.238281 479.628906 193.976562 C 479.441406 195.808594 480.121094 195.828125 481.289062 195.828125 Z M 481.289062 195.828125 "/>
<path style=" stroke:none;fill-rule:evenodd;fill:rgb(0%,0%,0%);fill-opacity:1;" d="M 480.238281 192.117188 L 477.429688 191.238281 Z M 480.238281 192.117188 "/>
<path style="fill:none;stroke-width:0.180416;stroke-linecap:butt;stroke-linejoin:miter;stroke:rgb(0%,0%,0%);stroke-opacity:1;stroke-miterlimit:4;" d="M 480.238281 192.117188 L 477.433594 191.238281 "/>
<path style=" stroke:none;fill-rule:evenodd;fill:rgb(0%,0%,0%);fill-opacity:1;" d="M 480.238281 192.28125 L 477.105469 192.25 Z M 480.238281 192.28125 "/>
<path style="fill:none;stroke-width:0.180416;stroke-linecap:butt;stroke-linejoin:miter;stroke:rgb(0%,0%,0%);stroke-opacity:1;stroke-miterlimit:4;" d="M 480.238281 192.28125 L 477.105469 192.25 "/>
<path style=" stroke:none;fill-rule:evenodd;fill:rgb(0%,0%,0%);fill-opacity:1;" d="M 480.269531 192.460938 L 477.597656 193.261719 Z M 480.269531 192.460938 "/>
<path style="fill:none;stroke-width:0.180416;stroke-linecap:butt;stroke-linejoin:miter;stroke:rgb(0%,0%,0%);stroke-opacity:1;stroke-miterlimit:4;" d="M 480.269531 192.460938 L 477.597656 193.261719 "/>
<path style=" stroke:none;fill-rule:evenodd;fill:rgb(0%,0%,0%);fill-opacity:1;" d="M 482.339844 192.117188 L 485.140625 191.238281 Z M 482.339844 192.117188 "/>
<path style="fill:none;stroke-width:0.180416;stroke-linecap:butt;stroke-linejoin:miter;stroke:rgb(0%,0%,0%);stroke-opacity:1;stroke-miterlimit:4;" d="M 482.339844 192.117188 L 485.140625 191.238281 "/>
<path style=" stroke:none;fill-rule:evenodd;fill:rgb(0%,0%,0%);fill-opacity:1;" d="M 482.339844 192.28125 L 485.46875 192.25 Z M 482.339844 192.28125 "/>
<path style="fill:none;stroke-width:0.180416;stroke-linecap:butt;stroke-linejoin:miter;stroke:rgb(0%,0%,0%);stroke-opacity:1;stroke-miterlimit:4;" d="M 482.339844 192.28125 L 485.46875 192.25 "/>
<path style=" stroke:none;fill-rule:evenodd;fill:rgb(0%,0%,0%);fill-opacity:1;" d="M 482.308594 192.460938 L 484.980469 193.261719 Z M 482.308594 192.460938 "/>
<path style="fill:none;stroke-width:0.180416;stroke-linecap:butt;stroke-linejoin:miter;stroke:rgb(0%,0%,0%);stroke-opacity:1;stroke-miterlimit:4;" d="M 482.308594 192.460938 L 484.980469 193.261719 "/>
<path style="fill-rule:evenodd;fill:rgb(0%,31.764221%,72.940063%);fill-opacity:1;stroke-width:0.0375266;stroke-linecap:butt;stroke-linejoin:miter;stroke:rgb(0%,0%,0%);stroke-opacity:1;stroke-miterlimit:4;" d="M 466.757812 182.726562 C 465.941406 181.585938 463.902344 182.546875 463.859375 183.960938 C 464.550781 183.042969 465.679688 184.359375 466.289062 184.082031 C 466.714844 183.890625 467.089844 183.1875 466.757812 182.726562 Z M 466.757812 182.726562 "/>
<path style=" stroke:none;fill-rule:evenodd;fill:rgb(0%,31.764221%,72.940063%);fill-opacity:1;" d="M 465.703125 185.414062 C 464.886719 184.277344 462.847656 185.238281 462.800781 186.648438 C 463.492188 185.734375 464.617188 187.050781 465.234375 186.777344 C 465.660156 186.582031 466.035156 185.878906 465.703125 185.414062 Z M 465.703125 185.414062 "/>
<path style="fill:none;stroke-width:0.0375266;stroke-linecap:butt;stroke-linejoin:miter;stroke:rgb(0%,0%,0%);stroke-opacity:1;stroke-miterlimit:4;" d="M 465.703125 185.414062 C 464.886719 184.277344 462.847656 185.238281 462.800781 186.648438 C 463.492188 185.734375 464.621094 187.050781 465.234375 186.777344 C 465.660156 186.582031 466.035156 185.878906 465.703125 185.414062 Z M 465.703125 185.414062 "/>
<path style=" stroke:none;fill-rule:evenodd;fill:rgb(0%,31.764221%,72.940063%);fill-opacity:1;" d="M 465.171875 189.035156 C 464.242188 188.003906 462.316406 189.214844 462.414062 190.621094 C 463.007812 189.628906 464.257812 190.796875 464.84375 190.441406 C 465.242188 190.195312 465.546875 189.449219 465.171875 189.035156 Z M 465.171875 189.035156 "/>
<path style="fill:none;stroke-width:0.0375266;stroke-linecap:butt;stroke-linejoin:miter;stroke:rgb(0%,0%,0%);stroke-opacity:1;stroke-miterlimit:4;" d="M 465.171875 189.035156 C 464.242188 188.003906 462.3125 189.214844 462.410156 190.621094 C 463.007812 189.628906 464.257812 190.796875 464.84375 190.441406 C 465.246094 190.195312 465.546875 189.449219 465.171875 189.035156 Z M 465.171875 189.035156 "/>
<path style=" stroke:none;fill-rule:evenodd;fill:rgb(0%,31.764221%,72.940063%);fill-opacity:1;" d="M 466.140625 200.238281 C 465.117188 199.335938 463.324219 200.785156 463.570312 202.171875 C 464.058594 201.109375 465.421875 202.105469 465.960938 201.679688 C 466.335938 201.386719 466.5625 200.605469 466.140625 200.238281 Z M 466.140625 200.238281 "/>
<path style="fill:none;stroke-width:0.0375266;stroke-linecap:butt;stroke-linejoin:miter;stroke:rgb(0%,0%,0%);stroke-opacity:1;stroke-miterlimit:4;" d="M 466.140625 200.238281 C 465.117188 199.335938 463.324219 200.785156 463.570312 202.171875 C 464.058594 201.109375 465.417969 202.105469 465.960938 201.679688 C 466.335938 201.386719 466.5625 200.605469 466.140625 200.238281 Z M 466.140625 200.238281 "/>
<path style="fill-rule:evenodd;fill:rgb(0%,31.764221%,72.940063%);fill-opacity:1;stroke-width:0.0375266;stroke-linecap:butt;stroke-linejoin:miter;stroke:rgb(0%,0%,0%);stroke-opacity:1;stroke-miterlimit:4;" d="M 466.09375 202.691406 C 464.867188 202.183594 463.558594 204.183594 464.175781 205.421875 C 464.339844 204.238281 465.914062 204.714844 466.3125 204.125 C 466.589844 203.714844 466.585938 202.894531 466.09375 202.691406 Z M 466.09375 202.691406 "/>
<path style="fill-rule:evenodd;fill:rgb(0%,31.764221%,72.940063%);fill-opacity:1;stroke-width:0.0375266;stroke-linecap:butt;stroke-linejoin:miter;stroke:rgb(0%,0%,0%);stroke-opacity:1;stroke-miterlimit:4;" d="M 467.660156 204.519531 C 466.441406 204.019531 465.128906 206.015625 465.738281 207.25 C 465.914062 206.070312 467.484375 206.546875 467.886719 205.957031 C 468.164062 205.546875 468.160156 204.726562 467.660156 204.519531 Z M 467.660156 204.519531 "/>
<path style=" stroke:none;fill-rule:evenodd;fill:rgb(0%,31.764221%,72.940063%);fill-opacity:1;" d="M 499.6875 208.070312 C 498.460938 207.570312 497.152344 209.566406 497.769531 210.800781 C 497.941406 209.617188 499.507812 210.101562 499.90625 209.507812 C 500.183594 209.097656 500.179688 208.277344 499.6875 208.070312 Z M 499.6875 208.070312 "/>
<path style="fill:none;stroke-width:0.0375266;stroke-linecap:butt;stroke-linejoin:miter;stroke:rgb(0%,0%,0%);stroke-opacity:1;stroke-miterlimit:4;" d="M 499.6875 208.070312 C 498.460938 207.570312 497.152344 209.566406 497.769531 210.800781 C 497.9375 209.617188 499.507812 210.101562 499.90625 209.507812 C 500.183594 209.097656 500.179688 208.277344 499.6875 208.070312 Z M 499.6875 208.070312 "/>
<path style=" stroke:none;fill-rule:evenodd;fill:rgb(0%,31.764221%,72.940063%);fill-opacity:1;" d="M 501.335938 209.734375 C 500.070312 209.390625 498.976562 211.542969 499.707031 212.691406 C 499.757812 211.492188 501.367188 211.773438 501.703125 211.132812 C 501.9375 210.6875 501.851562 209.878906 501.335938 209.734375 Z M 501.335938 209.734375 "/>
<path style="fill:none;stroke-width:0.0375266;stroke-linecap:butt;stroke-linejoin:miter;stroke:rgb(0%,0%,0%);stroke-opacity:1;stroke-miterlimit:4;" d="M 501.335938 209.734375 C 500.066406 209.390625 498.972656 211.542969 499.707031 212.691406 C 499.757812 211.492188 501.367188 211.773438 501.703125 211.132812 C 501.9375 210.6875 501.851562 209.878906 501.335938 209.734375 Z M 501.335938 209.734375 "/>
<path style="fill-rule:evenodd;fill:rgb(0%,31.764221%,72.940063%);fill-opacity:1;stroke-width:0.0375266;stroke-linecap:butt;stroke-linejoin:miter;stroke:rgb(0%,0%,0%);stroke-opacity:1;stroke-miterlimit:4;" d="M 500.175781 205.71875 C 499.042969 204.988281 497.453125 206.707031 497.871094 208.042969 C 498.21875 206.910156 499.691406 207.679688 500.175781 207.171875 C 500.511719 206.828125 500.636719 206.015625 500.175781 205.71875 Z M 500.175781 205.71875 "/>
<path style=" stroke:none;fill-rule:evenodd;fill:rgb(0%,31.764221%,72.940063%);fill-opacity:1;" d="M 522.957031 208.589844 C 521.695312 208.246094 520.597656 210.394531 521.328125 211.546875 C 521.382812 210.351562 522.992188 210.628906 523.324219 209.984375 C 523.558594 209.546875 523.476562 208.730469 522.957031 208.589844 Z M 522.957031 208.589844 "/>
<path style="fill:none;stroke-width:0.0375266;stroke-linecap:butt;stroke-linejoin:miter;stroke:rgb(0%,0%,0%);stroke-opacity:1;stroke-miterlimit:4;" d="M 522.957031 208.589844 C 521.695312 208.246094 520.59375 210.394531 521.328125 211.546875 C 521.382812 210.351562 522.992188 210.628906 523.324219 209.984375 C 523.558594 209.546875 523.476562 208.730469 522.957031 208.589844 Z M 522.957031 208.589844 "/>
<path style=" stroke:none;fill-rule:evenodd;fill:rgb(0%,31.764221%,72.940063%);fill-opacity:1;" d="M 522.996094 206.335938 C 521.851562 205.652344 520.308594 207.4375 520.765625 208.75 C 521.078125 207.609375 522.578125 208.320312 523.046875 207.792969 C 523.367188 207.429688 523.464844 206.617188 522.996094 206.335938 Z M 522.996094 206.335938 "/>
<path style="fill:none;stroke-width:0.0375266;stroke-linecap:butt;stroke-linejoin:miter;stroke:rgb(0%,0%,0%);stroke-opacity:1;stroke-miterlimit:4;" d="M 522.996094 206.335938 C 521.851562 205.652344 520.308594 207.4375 520.765625 208.75 C 521.078125 207.609375 522.578125 208.320312 523.046875 207.792969 C 523.371094 207.429688 523.464844 206.617188 522.996094 206.335938 Z M 522.996094 206.335938 "/>
<path style=" stroke:none;fill-rule:evenodd;fill:rgb(0%,31.764221%,72.940063%);fill-opacity:1;" d="M 523.886719 210.601562 C 522.609375 210.316406 521.597656 212.523438 522.371094 213.632812 C 522.382812 212.4375 524 212.636719 524.3125 211.984375 C 524.527344 211.527344 524.410156 210.71875 523.886719 210.601562 Z M 523.886719 210.601562 "/>
<path style="fill:none;stroke-width:0.0375266;stroke-linecap:butt;stroke-linejoin:miter;stroke:rgb(0%,0%,0%);stroke-opacity:1;stroke-miterlimit:4;" d="M 523.886719 210.601562 C 522.609375 210.316406 521.597656 212.523438 522.375 213.632812 C 522.382812 212.4375 524 212.636719 524.3125 211.984375 C 524.527344 211.527344 524.410156 210.71875 523.886719 210.601562 Z M 523.886719 210.601562 "/>
<path style=" stroke:none;fill-rule:evenodd;fill:rgb(0%,31.764221%,72.940063%);fill-opacity:1;" d="M 481.382812 194.730469 C 482.183594 194.730469 482.511719 194.996094 482.511719 196.617188 C 482.511719 200.054688 482.472656 201.527344 481.484375 201.527344 C 480.492188 201.527344 480.5625 200.128906 480.5625 197.601562 C 480.5625 196.285156 480.5625 195.628906 480.328125 195.738281 C 480.328125 194.878906 480.664062 194.730469 481.382812 194.730469 Z M 481.382812 194.730469 "/>
<path style="fill:none;stroke-width:0.0375266;stroke-linecap:butt;stroke-linejoin:miter;stroke:rgb(0%,0%,0%);stroke-opacity:1;stroke-miterlimit:4;" d="M 481.382812 194.730469 C 482.183594 194.730469 482.507812 194.996094 482.507812 196.617188 C 482.507812 200.054688 482.46875 201.527344 481.484375 201.527344 C 480.492188 201.527344 480.5625 200.128906 480.5625 197.601562 C 480.5625 196.285156 480.5625 195.628906 480.328125 195.738281 C 480.328125 194.878906 480.664062 194.730469 481.382812 194.730469 Z M 481.382812 194.730469 "/>
</g>
</svg>
