<?xml version="1.0" encoding="UTF-8"?>
<svg xmlns="http://www.w3.org/2000/svg" xmlns:xlink="http://www.w3.org/1999/xlink" viewBox="0 0 1000 500" version="1.1">
<g id="surface640">
<rect x="0" y="0" width="1000" height="500" style="fill:rgb(0%,68.626404%,79.214478%);fill-opacity:1;stroke:none;"/>
<path style=" stroke:none;fill-rule:evenodd;fill:rgb(99.606323%,77.253723%,4.705811%);fill-opacity:1;" d="M 58.992188 146.070312 C 58.992188 156.203125 68.089844 161.410156 75.234375 161.410156 C 84.871094 161.410156 89.996094 155.65625 89.996094 148.113281 C 89.996094 143.839844 89.214844 141.152344 87.246094 137.070312 C 87.246094 137.070312 71.355469 104.019531 65.167969 91.242188 C 64.394531 89.648438 64.152344 87.832031 64.152344 85.171875 C 64.152344 81.0625 68.132812 77.703125 72.316406 77.605469 C 76.121094 77.507812 80.273438 81.152344 80.273438 85.308594 C 80.273438 90.355469 77.652344 92.601562 74.964844 92.601562 C 71.65625 92.601562 70.335938 91.242188 70.335938 88.925781 C 70.335938 87.304688 71.117188 86.605469 72.242188 86.605469 C 75.082031 86.605469 74.285156 90.421875 74.285156 90.421875 C 75.691406 90.113281 76.855469 88.671875 76.1875 86.871094 C 77.222656 86.644531 78.191406 86.109375 78.949219 85.238281 C 78.179688 84.503906 77.308594 83.933594 76.1875 83.738281 C 76.855469 81.542969 75.96875 80.476562 74.046875 80.019531 C 74.4375 80.867188 74.445312 81.640625 74.316406 82.371094 C 71.296875 81.519531 66.667969 82.886719 66.667969 88.101562 C 66.667969 93.285156 70.265625 97.648438 77.011719 96.558594 C 75.398438 97.324219 74.585938 98.894531 74.421875 100.648438 C 75.644531 100.171875 77.011719 100.105469 77.011719 100.105469 C 76.222656 101.496094 75.121094 102.695312 75.171875 105.425781 C 76.425781 104.859375 77.578125 103.800781 79.183594 104.46875 C 76.667969 109.417969 79.761719 116.226562 87.621094 117.835938 C 84.742188 114.460938 83.332031 110.824219 83.332031 107.195312 C 83.332031 95.449219 86.597656 93.472656 86.597656 85.308594 C 86.597656 81.894531 84.839844 78.199219 81.363281 75.691406 L 81.363281 75.828125 C 83.660156 75.210938 85.132812 74.082031 85.984375 72.542969 C 80.730469 71.046875 73.085938 71.078125 68.976562 72.691406 C 64.265625 73.234375 60.972656 76.855469 60.003906 78.695312 C 59.035156 80.523438 57.144531 87.167969 60.003906 93.148438 C 63.128906 99.691406 77.855469 130.925781 82.445312 140.746094 C 83.421875 142.832031 84.015625 145.035156 84.015625 147.429688 C 84.015625 153.441406 78.5 155.542969 75.375 155.542969 C 71.632812 155.542969 67.824219 152.695312 67.824219 149.136719 C 67.824219 146.882812 69.050781 145.523438 70.816406 145.523438 C 75.046875 145.523438 74.789062 149.121094 73.941406 151.382812 C 76.578125 150.203125 78.109375 148.085938 77.683594 145.867188 C 79.175781 145.652344 80.601562 144.953125 81.898438 143.472656 C 80.875 142.171875 79.613281 141.195312 77.683594 141.152344 C 78.53125 137.703125 76.210938 136.238281 73.941406 135.425781 C 74.667969 137.964844 75.136719 140.886719 70.816406 140.886719 C 67.667969 140.886719 65.183594 141.429688 63.746094 143.472656 C 63.65625 140.746094 63.402344 129.972656 63.402344 129.972656 C 63.214844 125.925781 68.824219 126.042969 72.378906 127.246094 C 71.039062 122.582031 68.277344 120.058594 61.90625 120.695312 C 63.453125 120.050781 65.105469 118.597656 65.105469 115.789062 C 65.105469 111.996094 62.019531 107.789062 60.003906 106.542969 L 58.984375 146.070312 Z M 58.992188 146.070312 "/>
<path style=" stroke:none;fill-rule:evenodd;fill:rgb(99.606323%,77.253723%,4.705811%);fill-opacity:1;" d="M 555.144531 135.058594 C 559.074219 135.785156 561.035156 133.628906 561.621094 130.6875 C 562.394531 126.765625 560.71875 107.015625 560.71875 107.015625 C 560.71875 107.015625 551.609375 124.617188 550.828125 128.539062 C 550.253906 131.484375 551.222656 134.277344 555.144531 135.058594 Z M 555.144531 135.058594 "/>
<path style=" stroke:none;fill-rule:evenodd;fill:rgb(99.606323%,77.253723%,4.705811%);fill-opacity:1;" d="M 569.476562 139.402344 C 573.195312 140.886719 575.527344 139.152344 576.675781 136.386719 C 578.207031 132.691406 580.421875 112.996094 580.421875 112.996094 C 580.421875 112.996094 568.050781 128.484375 566.519531 132.175781 C 565.371094 134.945312 565.789062 137.875 569.476562 139.402344 Z M 569.476562 139.402344 "/>
<path style=" stroke:none;fill-rule:evenodd;fill:rgb(99.606323%,77.253723%,4.705811%);fill-opacity:1;" d="M 582.691406 146.46875 C 586.042969 148.640625 588.671875 147.394531 590.339844 144.90625 C 592.5625 141.585938 598.566406 122.699219 598.566406 122.699219 C 598.566406 122.699219 583.421875 135.472656 581.203125 138.792969 C 579.535156 141.292969 579.363281 144.246094 582.691406 146.46875 Z M 582.691406 146.46875 "/>
<path style=" stroke:none;fill-rule:evenodd;fill:rgb(99.606323%,77.253723%,4.705811%);fill-opacity:1;" d="M 594.269531 155.964844 C 597.128906 158.757812 599.957031 158.046875 602.074219 155.933594 C 604.90625 153.109375 614.484375 135.75 614.484375 135.75 C 614.484375 135.75 597.128906 145.328125 594.304688 148.160156 C 592.179688 150.277344 591.441406 153.140625 594.269531 155.964844 Z M 594.269531 155.964844 "/>
<path style=" stroke:none;fill-rule:evenodd;fill:rgb(99.606323%,77.253723%,4.705811%);fill-opacity:1;" d="M 603.769531 167.546875 C 606.03125 170.839844 608.945312 170.703125 611.441406 169.035156 C 614.761719 166.8125 627.539062 151.667969 627.539062 151.667969 C 627.539062 151.667969 608.648438 157.675781 605.332031 159.894531 C 602.839844 161.554688 601.546875 164.226562 603.769531 167.546875 Z M 603.769531 167.546875 "/>
<path style=" stroke:none;fill-rule:evenodd;fill:rgb(99.606323%,77.253723%,4.705811%);fill-opacity:1;" d="M 610.832031 180.761719 C 612.410156 184.429688 615.292969 184.863281 618.058594 183.714844 C 621.753906 182.183594 637.238281 169.816406 637.238281 169.816406 C 637.238281 169.816406 617.546875 172.027344 613.851562 173.558594 C 611.082031 174.707031 609.300781 177.066406 610.832031 180.761719 Z M 610.832031 180.761719 "/>
<path style=" stroke:none;fill-rule:evenodd;fill:rgb(99.606323%,77.253723%,4.705811%);fill-opacity:1;" d="M 615.175781 195.09375 C 616.007812 199.007812 618.75 199.984375 621.695312 199.40625 C 625.617188 198.625 643.222656 189.519531 643.222656 189.519531 C 643.222656 189.519531 623.472656 187.839844 619.546875 188.613281 C 616.609375 189.199219 614.402344 191.171875 615.175781 195.09375 Z M 615.175781 195.09375 "/>
<path style=" stroke:none;fill-rule:evenodd;fill:rgb(99.606323%,77.253723%,4.705811%);fill-opacity:1;" d="M 616.648438 210.003906 C 616.699219 213.996094 619.199219 215.496094 622.199219 215.496094 C 626.195312 215.496094 645.238281 210.003906 645.238281 210.003906 C 645.238281 210.003906 626.195312 204.5 622.199219 204.5 C 619.199219 204.5 616.648438 206.007812 616.648438 210.003906 Z M 616.648438 210.003906 "/>
<path style=" stroke:none;fill-rule:evenodd;fill:rgb(99.606323%,77.253723%,4.705811%);fill-opacity:1;" d="M 615.175781 224.910156 C 614.453125 228.839844 616.609375 230.792969 619.546875 231.378906 C 623.472656 232.164062 643.222656 230.484375 643.222656 230.484375 C 643.222656 230.484375 625.617188 221.378906 621.695312 220.597656 C 618.75 220.011719 615.957031 220.988281 615.175781 224.910156 Z M 615.175781 224.910156 "/>
<path style=" stroke:none;fill-rule:evenodd;fill:rgb(99.606323%,77.253723%,4.705811%);fill-opacity:1;" d="M 610.832031 239.242188 C 609.351562 242.953125 611.082031 245.296875 613.851562 246.445312 C 617.546875 247.972656 637.238281 250.179688 637.238281 250.179688 C 637.238281 250.179688 621.753906 237.816406 618.058594 236.289062 C 615.292969 235.140625 612.363281 235.546875 610.832031 239.242188 Z M 610.832031 239.242188 "/>
<path style=" stroke:none;fill-rule:evenodd;fill:rgb(99.606323%,77.253723%,4.705811%);fill-opacity:1;" d="M 603.769531 252.449219 C 601.597656 255.800781 602.839844 258.441406 605.332031 260.109375 C 608.648438 262.328125 627.539062 268.335938 627.539062 268.335938 C 627.539062 268.335938 614.761719 253.179688 611.441406 250.960938 C 608.945312 249.300781 605.988281 249.128906 603.769531 252.449219 Z M 603.769531 252.449219 "/>
<path style=" stroke:none;fill-rule:evenodd;fill:rgb(99.606323%,77.253723%,4.705811%);fill-opacity:1;" d="M 594.269531 264.027344 C 591.480469 266.894531 592.179688 269.71875 594.304688 271.839844 C 597.128906 274.667969 614.484375 284.246094 614.484375 284.246094 C 614.484375 284.246094 604.90625 266.894531 602.074219 264.070312 C 599.957031 261.945312 597.09375 261.207031 594.269531 264.027344 Z M 594.269531 264.027344 "/>
<path style=" stroke:none;fill-rule:evenodd;fill:rgb(99.606323%,77.253723%,4.705811%);fill-opacity:1;" d="M 582.691406 273.535156 C 579.394531 275.796875 579.535156 278.710938 581.203125 281.203125 C 583.421875 284.527344 598.566406 297.304688 598.566406 297.304688 C 598.566406 297.304688 592.5625 278.417969 590.339844 275.097656 C 588.671875 272.601562 586.011719 271.3125 582.691406 273.535156 Z M 582.691406 273.535156 "/>
<path style=" stroke:none;fill-rule:evenodd;fill:rgb(99.606323%,77.253723%,4.705811%);fill-opacity:1;" d="M 569.476562 280.601562 C 565.804688 282.167969 565.371094 285.058594 566.519531 287.824219 C 568.050781 291.519531 580.421875 307.007812 580.421875 307.007812 C 580.421875 307.007812 578.207031 287.3125 576.675781 283.617188 C 575.527344 280.851562 573.167969 279.070312 569.476562 280.601562 Z M 569.476562 280.601562 "/>
<path style=" stroke:none;fill-rule:evenodd;fill:rgb(99.606323%,77.253723%,4.705811%);fill-opacity:1;" d="M 497.789062 273.535156 C 494.433594 271.355469 491.796875 272.601562 490.128906 275.097656 C 487.90625 278.417969 481.898438 297.304688 481.898438 297.304688 C 481.898438 297.304688 497.054688 284.527344 499.265625 281.203125 C 500.933594 278.710938 501.105469 275.757812 497.789062 273.535156 Z M 497.789062 273.535156 "/>
<path style=" stroke:none;fill-rule:evenodd;fill:rgb(99.606323%,77.253723%,4.705811%);fill-opacity:1;" d="M 486.207031 264.027344 C 483.339844 261.238281 480.515625 261.945312 478.394531 264.070312 C 475.570312 266.894531 465.992188 284.246094 465.992188 284.246094 C 465.992188 284.246094 483.339844 274.667969 486.164062 271.839844 C 488.289062 269.71875 489.027344 266.863281 486.207031 264.027344 Z M 486.207031 264.027344 "/>
<path style=" stroke:none;fill-rule:evenodd;fill:rgb(99.606323%,77.253723%,4.705811%);fill-opacity:1;" d="M 476.699219 252.449219 C 474.4375 249.152344 471.523438 249.300781 469.035156 250.960938 C 465.707031 253.179688 452.929688 268.335938 452.929688 268.335938 C 452.929688 268.335938 471.820312 262.328125 475.136719 260.109375 C 477.636719 258.441406 478.921875 255.777344 476.699219 252.449219 Z M 476.699219 252.449219 "/>
<path style=" stroke:none;fill-rule:evenodd;fill:rgb(99.606323%,77.253723%,4.705811%);fill-opacity:1;" d="M 469.636719 239.242188 C 468.066406 235.570312 465.175781 235.140625 462.410156 236.289062 C 458.714844 237.816406 443.230469 250.179688 443.230469 250.179688 C 443.230469 250.179688 462.921875 247.972656 466.617188 246.445312 C 469.386719 245.296875 471.167969 242.933594 469.636719 239.242188 Z M 469.636719 239.242188 "/>
<path style=" stroke:none;fill-rule:evenodd;fill:rgb(99.606323%,77.253723%,4.705811%);fill-opacity:1;" d="M 465.292969 224.910156 C 464.460938 220.996094 461.71875 220.011719 458.78125 220.597656 C 454.859375 221.378906 437.257812 230.484375 437.257812 230.484375 C 437.257812 230.484375 456.996094 232.164062 460.921875 231.378906 C 463.867188 230.792969 466.074219 228.824219 465.292969 224.910156 Z M 465.292969 224.910156 "/>
<path style=" stroke:none;fill-rule:evenodd;fill:rgb(99.606323%,77.253723%,4.705811%);fill-opacity:1;" d="M 463.820312 210.003906 C 463.769531 206.007812 461.269531 204.5 458.277344 204.5 C 454.28125 204.5 435.238281 210.003906 435.238281 210.003906 C 435.238281 210.003906 454.28125 215.496094 458.277344 215.496094 C 461.269531 215.496094 463.820312 213.996094 463.820312 210.003906 Z M 463.820312 210.003906 "/>
<path style=" stroke:none;fill-rule:evenodd;fill:rgb(99.606323%,77.253723%,4.705811%);fill-opacity:1;" d="M 465.292969 195.09375 C 466.023438 191.164062 463.867188 189.199219 460.921875 188.613281 C 456.996094 187.839844 437.257812 189.519531 437.257812 189.519531 C 437.257812 189.519531 454.859375 198.625 458.78125 199.40625 C 461.71875 199.984375 464.511719 199.015625 465.292969 195.09375 Z M 465.292969 195.09375 "/>
<path style=" stroke:none;fill-rule:evenodd;fill:rgb(99.606323%,77.253723%,4.705811%);fill-opacity:1;" d="M 469.636719 180.761719 C 471.128906 177.042969 469.386719 174.707031 466.617188 173.558594 C 462.921875 172.027344 443.230469 169.816406 443.230469 169.816406 C 443.230469 169.816406 458.714844 182.183594 462.410156 183.714844 C 465.175781 184.863281 468.105469 184.449219 469.636719 180.761719 Z M 469.636719 180.761719 "/>
<path style=" stroke:none;fill-rule:evenodd;fill:rgb(99.606323%,77.253723%,4.705811%);fill-opacity:1;" d="M 476.699219 167.546875 C 478.882812 164.191406 477.636719 161.554688 475.136719 159.894531 C 471.820312 157.675781 452.929688 151.667969 452.929688 151.667969 C 452.929688 151.667969 465.707031 166.8125 469.035156 169.035156 C 471.523438 170.703125 474.480469 170.875 476.699219 167.546875 Z M 476.699219 167.546875 "/>
<path style=" stroke:none;fill-rule:evenodd;fill:rgb(99.606323%,77.253723%,4.705811%);fill-opacity:1;" d="M 486.207031 155.964844 C 488.996094 153.109375 488.289062 150.277344 486.164062 148.160156 C 483.339844 145.328125 465.992188 135.75 465.992188 135.75 C 465.992188 135.75 475.570312 153.109375 478.394531 155.933594 C 480.515625 158.046875 483.375 158.796875 486.207031 155.964844 Z M 486.207031 155.964844 "/>
<path style=" stroke:none;fill-rule:evenodd;fill:rgb(99.606323%,77.253723%,4.705811%);fill-opacity:1;" d="M 607.421875 210.082031 C 607.421875 247.242188 577.300781 277.359375 540.152344 277.359375 C 502.996094 277.359375 472.875 247.242188 472.875 210.082031 C 472.875 172.933594 502.996094 142.816406 540.152344 142.816406 C 577.300781 142.816406 607.421875 172.933594 607.421875 210.082031 Z M 607.421875 210.082031 "/>
<path style=" stroke:none;fill-rule:evenodd;fill:rgb(99.606323%,77.253723%,4.705811%);fill-opacity:1;" d="M 540.234375 133.585938 C 544.230469 133.539062 545.734375 131.039062 545.734375 128.035156 C 545.734375 124.039062 540.234375 104.996094 540.234375 104.996094 C 540.234375 104.996094 534.742188 124.039062 534.742188 128.035156 C 534.742188 131.039062 536.238281 133.585938 540.234375 133.585938 Z M 540.234375 133.585938 "/>
<path style=" stroke:none;fill-rule:evenodd;fill:rgb(99.606323%,77.253723%,4.705811%);fill-opacity:1;" d="M 555.144531 284.945312 C 551.230469 285.773438 550.253906 288.515625 550.828125 291.453125 C 551.609375 295.378906 560.71875 312.980469 560.71875 312.980469 C 560.71875 312.980469 562.394531 293.238281 561.621094 289.316406 C 561.035156 286.367188 559.066406 284.164062 555.144531 284.945312 Z M 555.144531 284.945312 "/>
<path style=" stroke:none;fill-rule:evenodd;fill:rgb(99.606323%,77.253723%,4.705811%);fill-opacity:1;" d="M 540.234375 286.417969 C 536.238281 286.464844 534.742188 288.964844 534.742188 291.960938 C 534.742188 295.957031 540.234375 314.996094 540.234375 314.996094 C 540.234375 314.996094 545.734375 295.957031 545.734375 291.960938 C 545.734375 288.964844 544.230469 286.417969 540.234375 286.417969 Z M 540.234375 286.417969 "/>
<path style=" stroke:none;fill-rule:evenodd;fill:rgb(99.606323%,77.253723%,4.705811%);fill-opacity:1;" d="M 525.324219 284.945312 C 521.394531 284.210938 519.441406 286.367188 518.855469 289.316406 C 518.074219 293.238281 519.75 312.980469 519.75 312.980469 C 519.75 312.980469 528.859375 295.378906 529.640625 291.453125 C 530.226562 288.515625 529.246094 285.726562 525.324219 284.945312 Z M 525.324219 284.945312 "/>
<path style=" stroke:none;fill-rule:evenodd;fill:rgb(99.606323%,77.253723%,4.705811%);fill-opacity:1;" d="M 510.992188 280.601562 C 507.285156 279.109375 504.941406 280.851562 503.792969 283.617188 C 502.261719 287.3125 500.054688 307.007812 500.054688 307.007812 C 500.054688 307.007812 512.417969 291.519531 513.949219 287.824219 C 515.097656 285.058594 514.691406 282.128906 510.992188 280.601562 Z M 510.992188 280.601562 "/>
<path style=" stroke:none;fill-rule:evenodd;fill:rgb(99.606323%,77.253723%,4.705811%);fill-opacity:1;" d="M 497.789062 146.46875 C 501.082031 144.199219 500.933594 141.292969 499.265625 138.792969 C 497.054688 135.472656 481.898438 122.699219 481.898438 122.699219 C 481.898438 122.699219 487.90625 141.585938 490.128906 144.90625 C 491.796875 147.394531 494.457031 148.679688 497.789062 146.46875 Z M 497.789062 146.46875 "/>
<path style=" stroke:none;fill-rule:evenodd;fill:rgb(99.606323%,77.253723%,4.705811%);fill-opacity:1;" d="M 510.992188 139.402344 C 514.664062 137.824219 515.097656 134.945312 513.949219 132.175781 C 512.417969 128.484375 500.054688 112.996094 500.054688 112.996094 C 500.054688 112.996094 502.261719 132.691406 503.792969 136.386719 C 504.941406 139.152344 507.300781 140.933594 510.992188 139.402344 Z M 510.992188 139.402344 "/>
<path style=" stroke:none;fill-rule:evenodd;fill:rgb(99.606323%,77.253723%,4.705811%);fill-opacity:1;" d="M 525.324219 135.058594 C 529.238281 134.230469 530.226562 131.484375 529.640625 128.539062 C 528.859375 124.617188 519.75 107.015625 519.75 107.015625 C 519.75 107.015625 518.074219 126.765625 518.855469 130.6875 C 519.441406 133.628906 521.402344 135.832031 525.324219 135.058594 Z M 525.324219 135.058594 "/>
<path style=" stroke:none;fill-rule:evenodd;fill:rgb(99.606323%,77.253723%,4.705811%);fill-opacity:1;" d="M 537.898438 327.476562 L 536.742188 329.792969 L 535.449219 332.765625 L 534.675781 334.179688 L 534.035156 335.472656 L 533.511719 336.507812 L 532.867188 337.148438 L 531.324219 335.855469 L 529.644531 334.699219 L 527.839844 333.796875 L 525.902344 333.023438 L 523.84375 332.503906 L 521.777344 331.988281 L 519.710938 331.601562 L 517.519531 331.347656 L 513.003906 330.957031 L 508.496094 330.828125 L 504.109375 330.574219 L 499.984375 330.054688 L 497.65625 329.671875 L 495.464844 329.148438 L 494.304688 328.769531 L 493.148438 328.378906 L 492.113281 327.863281 L 491.210938 327.34375 L 489.796875 326.441406 L 488.371094 325.414062 L 486.824219 324.253906 L 485.410156 322.957031 L 482.4375 320.125 L 479.476562 317.285156 L 476.507812 314.574219 L 473.796875 312.125 L 472.511719 311.222656 L 471.214844 310.320312 L 470.058594 309.804688 L 468.894531 309.417969 L 466.707031 308.902344 L 464.769531 308.261719 L 462.832031 307.609375 L 460.894531 306.707031 L 459.222656 305.933594 L 457.542969 304.90625 L 455.996094 303.871094 L 454.582031 302.839844 L 453.035156 301.675781 L 451.742188 300.519531 L 450.457031 299.226562 L 449.164062 297.941406 L 446.710938 295.230469 L 444.394531 292.390625 L 439.746094 286.328125 L 434.847656 280.144531 L 432.007812 277.171875 L 429.042969 274.210938 L 427.367188 272.65625 L 425.691406 271.238281 L 423.886719 269.953125 L 421.949219 268.53125 L 421.558594 268.660156 L 421.175781 269.050781 L 420.785156 269.566406 L 420.53125 270.207031 L 420.140625 271.371094 L 420.011719 271.882812 L 419.109375 271.5 L 418.335938 271.109375 L 417.429688 270.726562 L 416.660156 270.464844 L 414.980469 270.464844 L 414.078125 270.726562 L 413.175781 271.109375 L 414.078125 272.273438 L 415.242188 273.820312 L 416.398438 275.628906 L 417.429688 277.5625 L 418.464844 279.621094 L 419.238281 281.558594 L 419.496094 282.59375 L 419.757812 283.367188 L 419.882812 284.269531 L 419.882812 285.042969 L 412.921875 285.042969 L 413.949219 286.585938 L 415.113281 288.136719 L 416.398438 289.679688 L 420.652344 293.9375 L 422.078125 295.101562 L 423.363281 296.003906 L 421.949219 296.136719 L 420.011719 296.265625 L 418.082031 296.515625 L 416.660156 296.648438 L 417.824219 297.679688 L 419.238281 298.714844 L 420.785156 299.871094 L 422.460938 301.035156 L 424.136719 302.066406 L 425.816406 302.972656 L 427.367188 303.484375 L 428.785156 303.871094 L 429.425781 304.003906 L 429.949219 304.125 L 430.332031 304.257812 L 430.722656 304.644531 L 430.722656 305.160156 L 430.589844 305.421875 L 430.332031 306.195312 L 430.199219 306.964844 L 430.070312 307.488281 L 430.070312 307.867188 L 430.199219 308.511719 L 430.332031 309.035156 L 430.589844 309.285156 L 430.972656 309.546875 L 431.492188 309.804688 L 432.136719 309.9375 L 432.777344 310.191406 L 433.429688 310.449219 L 434.074219 310.710938 L 434.585938 311.089844 L 434.714844 311.222656 L 434.714844 311.484375 L 434.585938 311.613281 L 434.074219 311.996094 L 433.550781 312.386719 L 433.039062 312.898438 L 432.527344 313.542969 L 432.527344 314.0625 L 432.398438 314.574219 L 432.527344 315.21875 L 432.648438 316 L 434.847656 316.773438 L 437.167969 317.546875 L 438.199219 317.796875 L 439.234375 318.1875 L 440.007812 318.578125 L 440.648438 318.960938 L 436.394531 322.316406 L 437.554688 323.347656 L 438.972656 324.121094 L 440.777344 325.023438 L 442.585938 325.667969 L 444.644531 326.308594 L 446.582031 326.699219 L 448.257812 327.089844 L 449.804688 327.089844 L 448.390625 328.117188 L 446.582031 329.28125 L 444.644531 330.316406 L 443.230469 331.347656 L 444.523438 332.25 L 446.320312 333.144531 L 448.390625 334.179688 L 450.835938 335.34375 L 456.511719 337.792969 L 462.703125 340.242188 L 469.15625 342.5625 L 475.472656 344.628906 L 478.3125 345.53125 L 480.890625 346.175781 L 483.210938 346.820312 L 485.277344 347.207031 L 481.152344 346.820312 L 477.277344 346.304688 L 473.414062 345.664062 L 469.800781 344.890625 L 466.1875 343.855469 L 462.703125 342.824219 L 459.351562 341.667969 L 456.128906 340.371094 L 449.804688 337.792969 L 443.871094 335.210938 L 441.039062 334.050781 L 438.199219 332.894531 L 432.777344 330.828125 L 433.429688 330.445312 L 434.203125 330.183594 L 435.230469 329.792969 L 436.394531 329.542969 L 438.84375 328.769531 L 441.039062 327.996094 L 437.167969 327.34375 L 431.878906 326.308594 L 429.296875 325.539062 L 427.109375 324.894531 L 426.203125 324.511719 L 425.429688 324.121094 L 424.789062 323.730469 L 424.398438 323.347656 L 424.398438 323.21875 L 424.527344 323.085938 L 424.917969 322.957031 L 425.300781 322.703125 L 426.335938 322.316406 L 427.75 321.929688 L 430.851562 321.027344 L 433.429688 320.125 L 427.109375 318.960938 L 422.207031 318.1875 L 420.402344 317.796875 L 418.976562 317.285156 L 418.464844 317.023438 L 417.953125 316.640625 L 417.5625 316.382812 L 417.300781 316 L 417.691406 315.738281 L 418.855469 315.480469 L 420.53125 315.21875 L 422.460938 314.835938 L 424.527344 314.574219 L 426.335938 314.0625 L 427.238281 313.800781 L 428.011719 313.542969 L 428.523438 313.160156 L 429.042969 312.769531 L 428.011719 312.386719 L 426.976562 311.996094 L 425.691406 311.742188 L 424.398438 311.484375 L 421.433594 311.089844 L 418.464844 310.710938 L 416.917969 310.320312 L 415.503906 310.066406 L 414.078125 309.546875 L 412.664062 309.035156 L 411.367188 308.382812 L 410.210938 307.488281 L 409.179688 306.582031 L 408.40625 305.421875 L 408.667969 305.289062 L 409.179688 305.160156 L 409.824219 305.160156 L 410.855469 305.289062 L 413.175781 305.421875 L 415.753906 305.550781 L 418.597656 305.808594 L 422.207031 305.808594 L 423.242188 305.679688 L 424.015625 305.421875 L 424.527344 305.160156 L 421.433594 303.871094 L 417.300781 302.066406 L 414.980469 300.902344 L 412.535156 299.746094 L 410.082031 298.453125 L 407.632812 297.167969 L 405.316406 295.742188 L 403.117188 294.199219 L 401.058594 292.652344 L 399.253906 291.105469 L 398.480469 290.203125 L 397.699219 289.429688 L 397.183594 288.65625 L 396.671875 287.753906 L 396.148438 286.980469 L 395.898438 286.074219 L 395.769531 285.300781 L 395.636719 284.398438 L 396.542969 284.398438 L 397.574219 284.519531 L 398.601562 284.914062 L 399.632812 285.300781 L 401.699219 286.585938 L 404.019531 287.882812 L 405.054688 288.523438 L 406.207031 289.167969 L 407.371094 289.679688 L 408.40625 290.070312 L 409.570312 290.332031 L 410.597656 290.453125 L 411.761719 290.453125 L 412.792969 290.070312 L 409.691406 287.753906 L 406.207031 284.78125 L 402.210938 281.296875 L 398.21875 277.433594 L 394.222656 273.308594 L 390.480469 269.171875 L 388.800781 266.984375 L 387.125 264.917969 L 385.703125 262.859375 L 384.417969 260.921875 L 384.15625 260.410156 L 384.15625 259.503906 L 384.285156 259.113281 L 384.417969 258.730469 L 384.804688 258.472656 L 385.191406 258.082031 L 385.578125 257.828125 L 386.605469 257.570312 L 387.636719 257.570312 L 388.28125 257.699219 L 388.800781 257.828125 L 389.316406 258.210938 L 394.734375 263.632812 L 397.574219 266.59375 L 400.667969 269.566406 L 403.761719 272.273438 L 406.859375 274.855469 L 408.40625 275.886719 L 409.824219 276.789062 L 411.367188 277.5625 L 412.792969 278.078125 L 411.761719 277.433594 L 409.050781 274.722656 L 407.371094 272.789062 L 403.628906 268.269531 L 399.503906 262.988281 L 397.445312 260.148438 L 395.507812 257.308594 L 393.703125 254.476562 L 391.894531 251.765625 L 390.347656 249.183594 L 389.0625 246.867188 L 388.160156 244.667969 L 387.386719 242.863281 L 387.257812 242.222656 L 387.257812 241.1875 L 387.386719 240.804688 L 387.636719 240.414062 L 387.898438 240.03125 L 388.160156 239.769531 L 388.542969 239.511719 L 389.445312 239.25 L 390.21875 238.996094 L 392.023438 238.996094 L 392.539062 239.128906 L 392.925781 239.25 L 393.441406 239.511719 L 393.832031 239.898438 L 394.863281 240.804688 L 395.898438 242.089844 L 398.21875 245.058594 L 400.667969 248.796875 L 403.507812 252.800781 L 406.46875 256.925781 L 408.015625 258.863281 L 409.570312 260.792969 L 411.246094 262.464844 L 413.046875 264.015625 L 410.855469 259.757812 L 408.40625 254.859375 L 407.113281 252.148438 L 405.957031 249.445312 L 404.792969 246.605469 L 403.761719 243.765625 L 402.855469 240.804688 L 401.953125 237.964844 L 401.308594 235.121094 L 400.796875 232.292969 L 400.539062 229.582031 L 400.40625 227.003906 L 400.539062 225.707031 L 400.667969 224.550781 L 400.796875 223.390625 L 401.050781 222.226562 L 401.308594 221.839844 L 401.441406 221.453125 L 401.832031 221.070312 L 402.082031 220.808594 L 402.988281 220.425781 L 403.890625 220.167969 L 404.792969 220.167969 L 405.566406 220.296875 L 405.957031 220.425781 L 406.207031 220.546875 L 406.339844 220.808594 L 406.46875 221.199219 L 407.765625 225.324219 L 408.917969 229.710938 L 410.082031 234.222656 L 411.246094 238.605469 L 412.402344 242.992188 L 413.949219 247.117188 L 414.722656 249.054688 L 415.625 250.992188 L 416.660156 252.800781 L 417.824219 254.597656 L 417.050781 250.863281 L 416.527344 247.511719 L 416.015625 244.410156 L 415.753906 241.578125 L 415.503906 239.128906 L 415.371094 236.929688 L 415.503906 235.121094 L 415.625 233.578125 L 415.886719 232.292969 L 416.273438 231.257812 L 416.527344 230.867188 L 416.789062 230.484375 L 417.050781 230.226562 L 417.429688 229.964844 L 417.824219 229.832031 L 418.976562 229.832031 L 420.011719 230.226562 L 421.046875 230.738281 L 421.949219 234.871094 L 422.851562 238.867188 L 423.886719 242.609375 L 425.042969 246.214844 L 426.335938 249.828125 L 427.75 253.441406 L 429.296875 257.175781 L 431.105469 260.921875 L 432.398438 263.371094 L 433.683594 265.820312 L 435.109375 268.269531 L 436.523438 270.726562 L 439.617188 275.367188 L 441.292969 277.683594 L 442.96875 280.011719 L 446.070312 283.878906 L 449.292969 287.492188 L 452.644531 291.105469 L 456.128906 294.457031 L 459.742188 297.808594 L 463.476562 300.902344 L 467.351562 303.871094 L 471.347656 306.707031 L 474.054688 308.511719 L 476.894531 310.191406 L 479.859375 311.863281 L 482.699219 313.417969 L 487.214844 315.609375 L 491.59375 317.675781 L 496.238281 319.476562 L 500.886719 321.160156 L 505.265625 322.574219 L 509.78125 323.730469 L 514.429688 324.765625 L 518.9375 325.667969 L 523.714844 326.308594 L 528.351562 326.832031 L 533.128906 327.210938 Z M 537.898438 327.476562 "/>
<path style=" stroke:none;fill-rule:evenodd;fill:rgb(99.606323%,77.253723%,4.705811%);fill-opacity:1;" d="M 549.648438 366.683594 L 551.839844 366.945312 L 552.871094 367.324219 L 553.132812 367.457031 L 553.132812 367.585938 L 552.871094 367.585938 L 552.621094 367.714844 L 550.554688 368.105469 L 548.878906 368.105469 L 543.457031 367.714844 L 536.882812 367.585938 L 529.785156 367.457031 L 522.4375 367.585938 L 518.953125 367.714844 L 515.472656 367.976562 L 512.378906 368.230469 L 509.410156 368.488281 L 506.957031 368.878906 L 504.769531 369.394531 L 503.988281 369.652344 L 503.214844 369.90625 L 502.570312 370.167969 L 502.058594 370.554688 L 502.308594 369.261719 L 502.832031 367.976562 L 501.929688 368.230469 L 501.023438 368.488281 L 500.253906 368.878906 L 499.480469 369.261719 L 498.828125 369.652344 L 498.316406 370.167969 L 497.933594 370.808594 L 497.800781 371.460938 L 497.414062 370.554688 L 497.152344 369.785156 L 497.027344 368.878906 L 496.898438 368.105469 L 497.027344 367.457031 L 497.152344 366.683594 L 497.28125 366.039062 L 497.671875 365.398438 L 497.933594 364.878906 L 498.445312 364.234375 L 499.480469 363.199219 L 500.894531 362.296875 L 502.441406 361.394531 C 503.277344 361.90625 504.214844 362.273438 505.152344 362.554688 C 505.964844 362.664062 506.925781 362.535156 507.859375 362.296875 C 509.429688 363.6875 511.539062 363.515625 512.890625 362.042969 C 513.136719 361.773438 513.433594 361.359375 513.535156 361.011719 C 513.746094 360.261719 513.703125 359.292969 513.535156 358.429688 L 515.078125 358.300781 L 516.886719 358.039062 L 518.824219 357.527344 L 520.890625 357.015625 L 522.949219 356.625 L 524.886719 356.113281 L 526.691406 355.851562 L 528.238281 355.722656 L 527.597656 356.234375 L 526.050781 357.398438 L 524.242188 358.8125 L 522.949219 359.714844 L 524.625 360.109375 L 526.050781 360.367188 L 525.015625 361.523438 L 522.949219 363.851562 L 522.175781 364.878906 L 523.210938 365.265625 L 524.242188 365.527344 L 525.398438 365.777344 L 527.726562 365.777344 L 528.882812 365.527344 L 530.046875 365.265625 L 530.949219 364.753906 L 531.984375 365.265625 L 533.007812 365.648438 L 535.074219 366.171875 L 537.394531 366.429688 L 539.84375 366.683594 Z M 549.648438 366.683594 "/>
<path style=" stroke:none;fill-rule:evenodd;fill:rgb(99.606323%,77.253723%,4.705811%);fill-opacity:1;" d="M 510.050781 359.332031 L 510.433594 359.464844 L 510.824219 359.59375 L 510.953125 359.976562 L 511.082031 360.367188 L 510.953125 360.75 L 510.824219 361.140625 L 510.433594 361.402344 L 509.539062 361.402344 L 509.277344 361.140625 L 509.015625 360.75 L 508.886719 360.367188 L 509.015625 359.976562 L 509.277344 359.59375 L 509.539062 359.464844 Z M 510.050781 359.332031 "/>
<path style=" stroke:none;fill-rule:evenodd;fill:rgb(99.606323%,77.253723%,4.705811%);fill-opacity:1;" d="M 509.902344 359.847656 L 510.15625 359.976562 L 510.289062 360.238281 L 510.15625 360.496094 L 509.902344 360.621094 L 509.644531 360.496094 L 509.511719 360.238281 L 509.644531 359.976562 Z M 509.902344 359.847656 "/>
<path style=" stroke:none;fill-rule:evenodd;fill:rgb(99.606323%,77.253723%,4.705811%);fill-opacity:1;" d="M 510.003906 361.621094 C 509.351562 361.628906 508.8125 361.089844 508.8125 360.441406 C 508.8125 359.789062 509.351562 359.261719 510.003906 359.261719 C 510.652344 359.261719 511.179688 359.789062 511.179688 360.441406 C 511.179688 361.089844 510.652344 361.628906 510.003906 361.621094 Z M 510.003906 361.621094 "/>
<path style=" stroke:none;fill-rule:evenodd;fill:rgb(99.606323%,77.253723%,4.705811%);fill-opacity:1;" d="M 606.105469 373.007812 L 605.199219 373.390625 L 604.296875 373.519531 L 603.523438 373.648438 L 602.871094 373.519531 L 602.230469 373.390625 L 601.585938 373.136719 L 601.066406 372.875 L 600.421875 372.484375 L 599.390625 371.710938 L 598.363281 370.941406 L 597.84375 370.554688 L 597.199219 370.296875 L 596.6875 370.167969 L 596.039062 370.167969 L 594.882812 372.613281 L 593.335938 375.714844 L 592.816406 376.488281 L 592.300781 377.132812 L 591.78125 377.523438 L 591.269531 377.90625 L 590.625 378.167969 L 589.976562 378.167969 L 589.332031 377.90625 L 588.558594 377.523438 L 588.296875 377.132812 L 588.046875 376.742188 L 587.785156 376.230469 L 587.523438 375.585938 L 587.273438 374.421875 L 587.140625 373.648438 L 586.367188 374.292969 L 585.597656 375.195312 L 584.945312 376.230469 L 584.171875 377.390625 L 583.269531 378.546875 L 582.363281 379.453125 L 581.851562 379.972656 L 581.207031 380.355469 L 580.558594 380.613281 L 579.785156 380.875 L 579.402344 380.875 L 578.761719 380.996094 L 578.109375 380.875 L 577.597656 380.613281 L 576.050781 378.808594 L 574.371094 377.003906 L 573.210938 378.808594 L 571.921875 380.355469 L 571.273438 380.996094 L 570.628906 381.648438 L 569.988281 382.164062 L 569.34375 382.550781 L 568.824219 382.804688 L 568.179688 382.933594 L 567.539062 382.933594 L 567.015625 382.804688 L 566.503906 382.550781 L 566.113281 382.164062 L 565.601562 381.519531 L 565.339844 380.746094 L 565.085938 379.972656 L 564.566406 378.679688 L 564.4375 378.035156 L 564.183594 377.523438 L 563.925781 377.261719 L 563.664062 377.261719 L 560.179688 382.933594 L 559.667969 383.457031 L 558.765625 383.835938 L 556.699219 384.359375 L 555.542969 384.359375 L 554.640625 384.097656 L 554.378906 383.96875 L 553.996094 383.578125 L 553.863281 383.324219 L 553.863281 382.804688 L 554.378906 377.132812 L 553.996094 377.261719 L 553.476562 377.523438 L 552.960938 377.773438 L 552.441406 378.296875 L 551.417969 379.453125 L 550.253906 380.746094 L 549.085938 382.164062 L 547.671875 383.324219 L 547.027344 383.835938 L 546.386719 384.359375 L 545.605469 384.742188 L 544.960938 384.871094 L 544.058594 385.003906 L 543.417969 384.871094 L 543.15625 384.742188 L 542.902344 384.480469 L 542.773438 384.097656 L 542.773438 383.707031 L 542.902344 382.03125 L 543.15625 380.355469 L 543.285156 379.453125 L 543.023438 377.90625 L 542.511719 377.003906 L 541.738281 378.167969 L 540.445312 379.839844 L 538.898438 381.519531 L 537.222656 383.195312 L 535.417969 384.480469 L 534.644531 384.742188 L 534 385.003906 L 533.738281 384.871094 L 533.359375 384.871094 L 532.964844 384.480469 L 532.714844 384.097656 L 532.585938 383.707031 L 532.585938 383.195312 L 532.453125 382.550781 L 532.585938 377.644531 L 529.355469 379.839844 L 525.488281 382.292969 L 524.585938 382.683594 L 523.550781 383.195312 L 522.648438 383.457031 L 521.621094 383.707031 L 520.71875 383.96875 L 519.816406 383.96875 L 518.914062 383.835938 L 518.140625 383.578125 L 518.523438 382.550781 L 518.914062 381.648438 L 519.296875 380.746094 L 519.816406 379.972656 L 520.328125 379.199219 L 520.839844 378.417969 L 521.492188 377.773438 L 522.136719 377.132812 L 523.550781 376.097656 L 525.226562 375.066406 L 526.902344 374.292969 L 528.839844 373.648438 L 530.777344 373.136719 L 532.964844 372.746094 L 535.164062 372.363281 L 537.355469 372.101562 L 542.132812 371.839844 L 547.027344 371.710938 L 556.828125 371.710938 L 559.277344 371.582031 L 561.605469 371.460938 L 563.925781 371.328125 L 566.113281 371.070312 L 568.308594 370.6875 L 570.246094 370.296875 L 572.175781 369.785156 L 573.984375 369.011719 L 575.660156 368.230469 L 577.082031 367.203125 L 578.5 366.171875 L 579.664062 364.746094 L 578.367188 362.175781 L 579.402344 362.042969 L 580.433594 361.785156 L 581.460938 361.269531 L 582.363281 360.621094 L 582.757812 360.367188 L 583.136719 359.976562 L 583.398438 359.464844 L 583.660156 359.074219 L 583.789062 358.558594 L 583.789062 357.660156 L 583.527344 357.136719 L 585.71875 356.753906 L 588.046875 356.492188 L 590.496094 356.363281 L 593.074219 356.363281 L 598.363281 356.625 L 603.773438 357.015625 L 609.328125 357.660156 L 614.738281 358.171875 L 620.027344 358.691406 L 624.925781 358.945312 L 624.925781 360.75 L 624.804688 361.523438 L 624.285156 363.070312 L 624.03125 363.722656 L 623.640625 364.234375 L 623.128906 364.878906 L 622.226562 365.777344 L 621.058594 366.550781 L 619.898438 367.074219 L 618.613281 367.324219 L 617.195312 367.585938 L 615.769531 367.457031 L 614.484375 367.324219 L 613.0625 366.945312 L 611.773438 366.300781 L 610.480469 365.648438 L 609.457031 364.746094 L 608.421875 363.722656 L 608.421875 365.910156 L 608.03125 368.75 L 607.777344 370.167969 L 607.390625 371.460938 L 607.128906 371.972656 L 606.746094 372.363281 L 606.484375 372.746094 Z M 502.398438 360.882812 L 505.363281 362.175781 L 506.136719 361.523438 L 507.167969 360.75 L 508.332031 360.109375 L 509.367188 359.464844 L 513.234375 357.917969 L 516.585938 356.363281 L 518.261719 355.722656 L 519.683594 354.949219 L 521.101562 354.175781 L 522.265625 353.402344 L 525.226562 351.464844 L 528.199219 349.527344 L 531.03125 347.722656 L 533.609375 345.921875 L 535.546875 344.367188 L 537.09375 342.953125 L 538.769531 341.40625 L 540.578125 339.730469 L 541.21875 339.085938 L 541.992188 338.566406 L 542.894531 338.054688 L 543.929688 337.535156 L 546.128906 336.507812 L 548.316406 335.726562 L 551.285156 334.953125 L 554.507812 334.179688 L 557.859375 333.539062 L 561.605469 332.894531 L 566.113281 332.371094 L 570.628906 331.730469 L 575.269531 331.214844 L 579.785156 330.445312 L 581.332031 330.183594 L 582.757812 329.792969 L 584.300781 329.410156 L 585.847656 329.019531 L 587.394531 327.089844 L 589.84375 324.382812 L 591.519531 322.703125 L 593.457031 321.160156 L 595.652344 319.484375 L 598.234375 317.796875 L 602.101562 315.480469 L 606.226562 313.417969 L 610.480469 311.222656 L 614.609375 309.285156 L 618.480469 307.355469 L 622.09375 305.550781 L 625.054688 304.003906 L 627.378906 302.449219 L 628.027344 300.519531 L 628.929688 298.582031 L 630.085938 296.648438 L 631.511719 294.71875 L 633.054688 292.652344 L 634.992188 290.582031 L 637.050781 288.265625 L 639.632812 285.816406 L 641.953125 283.746094 L 644.410156 281.691406 L 645.695312 280.785156 L 646.988281 279.882812 L 649.820312 278.335938 L 651.246094 277.683594 L 652.660156 277.171875 L 654.207031 276.789062 L 655.621094 276.398438 L 657.175781 276.269531 L 658.59375 276.140625 L 660.140625 276.269531 L 661.554688 276.527344 L 661.433594 278.078125 L 661.042969 279.621094 L 660.53125 281.167969 L 659.878906 282.847656 L 658.976562 284.519531 L 657.820312 286.207031 L 656.394531 288.003906 L 654.722656 289.808594 L 656.015625 289.679688 L 657.175781 289.429688 L 658.082031 289.167969 L 658.976562 288.777344 L 659.757812 288.523438 L 660.652344 288.265625 L 661.816406 288.136719 L 663.109375 288.003906 L 663.234375 288.910156 L 663.234375 289.808594 L 663.109375 290.714844 L 662.851562 291.488281 L 662.457031 292.261719 L 661.945312 293.035156 L 661.433594 293.683594 L 660.785156 294.328125 L 658.082031 296.910156 L 655.371094 299.355469 L 656.917969 299.488281 L 658.59375 300 L 660.269531 300.519531 L 661.554688 300.773438 L 660.011719 301.9375 L 658.203125 303.101562 L 656.394531 304.257812 L 654.335938 305.421875 L 652.269531 306.582031 L 650.210938 307.867188 L 648.144531 309.285156 L 646.207031 310.839844 L 647.109375 310.960938 L 648.273438 311.484375 L 648.789062 311.613281 L 649.308594 311.863281 L 649.691406 311.996094 L 650.082031 311.863281 L 647.503906 313.289062 L 644.277344 314.835938 L 642.726562 315.609375 L 641.441406 316.382812 L 640.796875 316.773438 L 640.40625 317.152344 L 640.152344 317.546875 L 639.890625 317.925781 L 640.023438 318.449219 L 640.273438 318.832031 L 640.796875 319.222656 L 641.179688 319.605469 L 641.046875 320.125 L 640.796875 320.507812 L 640.273438 320.898438 L 639.761719 321.28125 L 638.597656 321.929688 L 637.050781 322.574219 L 635.507812 323.085938 L 634.089844 323.609375 L 633.054688 324.121094 L 632.285156 324.511719 L 634.863281 327.089844 L 633.960938 327.996094 L 633.054688 328.636719 L 632.285156 329.019531 L 631.378906 329.410156 L 629.574219 329.671875 L 627.125 329.671875 L 627.378906 330.828125 L 627.765625 331.988281 L 628.027344 333.277344 L 628.277344 334.570312 L 626.089844 336.246094 L 623.382812 338.183594 L 620.417969 340.113281 L 617.066406 342.050781 L 615.128906 343.082031 L 613.191406 343.984375 L 611.132812 344.757812 L 608.933594 345.53125 L 606.617188 346.304688 L 604.167969 346.820312 L 601.585938 347.339844 L 598.878906 347.722656 L 603.644531 347.851562 L 607.769531 347.851562 L 611.644531 347.46875 L 615.128906 347.078125 L 618.351562 346.433594 L 621.191406 345.664062 L 624.023438 344.628906 L 626.734375 343.597656 L 630.347656 341.917969 L 633.828125 339.980469 L 637.183594 337.921875 L 640.667969 335.855469 L 638.597656 334.832031 L 636.539062 334.179688 L 635.507812 333.796875 L 634.472656 333.277344 L 633.316406 332.765625 L 632.152344 332.121094 L 633.1875 331.347656 L 634.339844 330.828125 L 635.765625 330.316406 L 637.3125 329.921875 L 640.40625 329.28125 L 643.628906 328.890625 L 646.46875 328.507812 L 649.046875 328.246094 L 650.082031 327.996094 L 650.984375 327.734375 L 651.496094 327.476562 L 651.886719 327.089844 L 651.496094 326.699219 L 651.113281 326.570312 L 650.59375 326.320312 L 649.175781 326.058594 L 647.371094 325.796875 L 645.566406 325.667969 L 643.757812 325.414062 L 642.210938 325.023438 L 641.179688 324.632812 L 648.144531 323.085938 L 651.246094 322.445312 L 653.816406 321.800781 L 656.015625 321.160156 L 657.949219 320.378906 L 658.855469 319.996094 L 659.496094 319.605469 L 660.140625 319.222656 L 660.652344 318.703125 L 660.269531 318.320312 L 659.757812 318.1875 L 659.105469 318.058594 L 657.429688 317.925781 L 655.503906 317.925781 L 653.433594 317.796875 L 651.496094 317.675781 L 649.820312 317.414062 L 648.789062 317.152344 L 649.691406 316.773438 L 650.59375 316.382812 L 653.695312 315.480469 L 656.394531 314.707031 L 658.855469 314.0625 L 661.171875 313.289062 L 663.621094 312.515625 L 666.074219 311.484375 L 667.234375 310.839844 L 668.269531 310.191406 L 668.652344 309.804688 L 669.042969 309.285156 L 669.425781 308.902344 L 669.554688 308.511719 L 669.425781 308.128906 L 669.042969 307.867188 L 668.652344 307.738281 L 665.039062 307.738281 L 663.363281 307.867188 L 661.042969 307.867188 L 660.398438 307.738281 L 659.878906 307.488281 L 659.367188 307.226562 L 664.527344 303.871094 L 669.296875 300.773438 L 673.550781 298.070312 L 677.296875 295.492188 L 678.839844 294.199219 L 680.265625 292.914062 L 681.421875 291.617188 L 682.453125 290.332031 L 683.226562 288.910156 L 683.871094 287.492188 L 684.261719 285.945312 L 684.261719 284.269531 L 683.359375 284.269531 L 682.453125 284.398438 L 681.421875 284.78125 L 680.386719 285.171875 L 678.328125 286.457031 L 676.132812 287.753906 L 674.976562 288.394531 L 673.941406 289.039062 L 672.777344 289.558594 L 671.621094 289.941406 L 670.589844 290.203125 L 669.554688 290.332031 L 668.390625 290.332031 L 667.367188 289.941406 L 670.457031 287.621094 L 673.941406 284.652344 L 677.9375 281.167969 L 681.941406 277.300781 L 685.9375 273.175781 L 689.671875 269.050781 L 691.359375 266.855469 L 693.035156 264.796875 L 694.449219 262.726562 L 695.734375 260.792969 L 695.996094 260.277344 L 696.128906 259.886719 L 695.996094 259.375 L 695.867188 258.984375 L 695.734375 258.601562 L 695.355469 258.339844 L 694.960938 257.957031 L 694.578125 257.828125 L 694.058594 257.570312 L 693.546875 257.4375 L 692.511719 257.4375 L 692 257.570312 L 691.359375 257.699219 L 690.964844 258.082031 L 690.453125 258.472656 L 688.128906 260.792969 L 685.417969 263.5 L 682.585938 266.472656 L 679.484375 269.433594 L 676.390625 272.144531 L 673.300781 274.722656 L 671.746094 275.757812 L 670.328125 276.660156 L 668.785156 277.433594 L 667.488281 278.078125 L 668.390625 277.300781 L 671.101562 274.59375 L 672.777344 272.65625 L 676.519531 268.148438 L 680.648438 262.859375 L 682.714844 260.019531 L 684.644531 257.175781 L 686.582031 254.476562 L 688.257812 251.636719 L 689.800781 249.054688 L 691.097656 246.738281 L 692.132812 244.539062 L 692.773438 242.734375 L 692.902344 242.089844 L 692.902344 241.054688 L 692.773438 240.671875 L 692.511719 240.285156 L 692.253906 239.898438 L 692 239.640625 L 691.609375 239.511719 L 690.835938 239.128906 L 689.933594 238.867188 L 688.128906 238.867188 L 687.613281 238.996094 L 687.222656 239.128906 L 686.710938 239.378906 L 686.320312 239.769531 L 685.292969 240.671875 L 684.261719 241.960938 L 681.941406 244.929688 L 679.484375 248.664062 L 676.78125 252.667969 L 673.8125 256.796875 L 672.136719 258.730469 L 670.589844 260.660156 L 668.914062 262.335938 L 667.105469 263.890625 L 669.425781 259.636719 L 671.746094 254.730469 L 673.039062 252.027344 L 674.203125 249.316406 L 675.359375 246.476562 L 676.390625 243.636719 L 677.296875 240.671875 L 678.199219 237.832031 L 678.839844 234.992188 L 679.363281 232.164062 L 679.613281 229.453125 L 679.742188 226.871094 L 679.613281 225.578125 L 679.484375 224.421875 L 679.363281 223.257812 L 679.101562 222.101562 L 678.972656 221.710938 L 678.710938 221.320312 L 678.070312 220.679688 L 677.164062 220.296875 L 676.261719 220.035156 L 675.359375 220.035156 L 674.585938 220.167969 L 674.324219 220.296875 L 673.941406 220.425781 L 673.8125 220.679688 L 673.679688 221.070312 L 672.394531 225.324219 L 671.230469 229.582031 L 670.070312 234.097656 L 668.914062 238.476562 L 667.75 242.863281 L 666.203125 246.988281 L 665.429688 249.054688 L 664.527344 250.863281 L 663.492188 252.800781 L 662.335938 254.476562 L 663.109375 250.734375 L 663.621094 247.378906 L 664.136719 244.289062 L 664.394531 241.449219 L 664.65625 238.996094 L 664.789062 236.800781 L 664.65625 234.992188 L 664.527344 233.449219 L 664.265625 232.164062 L 663.882812 231.128906 L 663.621094 230.738281 L 663.363281 230.355469 L 663.109375 230.09375 L 662.71875 229.964844 L 662.335938 229.839844 L 661.945312 229.710938 L 661.554688 229.710938 L 661.171875 229.839844 L 660.140625 230.09375 L 659.105469 230.613281 L 658.203125 234.742188 L 657.300781 238.738281 L 656.273438 242.480469 L 655.109375 246.085938 L 653.816406 249.699219 L 652.398438 253.3125 L 650.855469 257.054688 L 649.046875 260.792969 L 647.761719 263.238281 L 646.46875 265.699219 L 645.050781 268.148438 L 643.628906 270.597656 L 640.535156 275.234375 L 638.859375 277.5625 L 637.183594 279.882812 L 634.089844 283.746094 L 630.859375 287.363281 L 627.507812 290.976562 L 624.023438 294.328125 L 620.417969 297.679688 L 616.675781 300.773438 L 612.808594 303.742188 L 608.804688 306.582031 L 606.097656 308.382812 L 603.261719 310.191406 L 597.582031 313.542969 L 593.074219 315.609375 L 588.558594 317.675781 L 583.910156 319.351562 L 579.273438 321.027344 L 575.398438 322.183594 L 571.535156 323.347656 L 567.539062 324.253906 L 563.535156 325.152344 L 559.539062 325.796875 L 555.414062 326.308594 L 551.410156 326.832031 L 547.28125 327.089844 L 546.898438 327.210938 L 546.507812 327.34375 L 545.734375 327.734375 L 544.832031 328.378906 L 543.546875 329.542969 L 541.871094 331.085938 L 539.800781 333.144531 L 537.355469 335.855469 L 535.035156 338.566406 L 532.324219 341.539062 L 530.898438 342.953125 L 529.484375 344.367188 L 527.808594 345.664062 L 526.132812 346.949219 L 524.847656 347.851562 L 523.550781 348.625 L 522.136719 349.273438 L 520.710938 349.917969 L 517.617188 351.203125 L 514.527344 352.367188 L 511.425781 353.53125 L 508.714844 354.558594 L 507.558594 355.078125 L 506.394531 355.722656 L 505.363281 356.234375 L 504.589844 356.753906 L 503.171875 358.171875 L 502.785156 358.8125 L 502.53125 359.464844 L 502.398438 360.367188 Z M 502.398438 360.882812 "/>
<path style="fill-rule:evenodd;fill:rgb(99.606323%,77.253723%,4.705811%);fill-opacity:1;stroke-width:0.190637;stroke-linecap:butt;stroke-linejoin:miter;stroke:rgb(0%,68.626404%,79.214478%);stroke-opacity:1;stroke-miterlimit:4;" d="M 509.902344 360.734375 C 509.636719 360.734375 509.417969 360.523438 509.417969 360.253906 C 509.417969 359.984375 509.636719 359.773438 509.902344 359.773438 C 510.164062 359.773438 510.382812 359.984375 510.382812 360.253906 C 510.382812 360.523438 510.164062 360.734375 509.902344 360.734375 Z M 509.902344 360.734375 "/>
<path style=" stroke:none;fill-rule:evenodd;fill:rgb(99.606323%,77.253723%,4.705811%);fill-opacity:1;" d="M 60.003906 463.542969 C 60.003906 463.542969 55.191406 467.578125 53.566406 465.550781 C 50.933594 462.296875 61.628906 446.070312 61.628906 440.355469 C 61.628906 430.972656 55.371094 428.425781 47.648438 427.082031 C 42.464844 426.1875 34.015625 427.457031 34.015625 427.457031 C 35.605469 429.597656 36.636719 430.226562 39.324219 430.394531 C 36.335938 431.941406 33.300781 435.300781 33.300781 440.535156 C 33.300781 448.609375 36.621094 451.9375 36.621094 461.027344 C 36.621094 466.074219 32.488281 472.503906 32.488281 472.503906 C 39.796875 471.769531 43.425781 464.996094 41.359375 459.585938 C 42.519531 459.417969 43.578125 459.675781 44.488281 460.539062 C 45.027344 459.042969 44.179688 457.300781 43.050781 455.792969 C 43.960938 455.304688 44.628906 455.601562 46.078125 455.898438 C 45.949219 454.355469 45.019531 452.710938 42.75 451.164062 C 49.324219 452.871094 53.367188 448.292969 53.367188 443.496094 C 53.367188 439.867188 50.828125 437.273438 48.347656 437.273438 C 47.550781 437.273438 46.371094 437.605469 45.703125 438.101562 C 45.238281 437.101562 45.476562 435.765625 45.960938 434.765625 C 44.140625 435.253906 42.984375 436.328125 43.804688 438.582031 C 42.414062 438.710938 41.300781 439.183594 40.542969 440.078125 C 41.308594 441.066406 42.472656 441.625 43.804688 441.578125 C 42.789062 443.675781 43.929688 444.855469 45.582031 445.808594 C 45.582031 445.808594 44.53125 441.578125 47.207031 441.578125 C 48.421875 441.578125 49.519531 441.976562 49.519531 443.75 C 49.519531 445.304688 48.160156 447.445312 45.035156 447.304688 C 41.902344 447.175781 39.363281 445.148438 39.363281 440.152344 C 39.363281 435.546875 43.082031 433.261719 47.980469 433.105469 C 52.398438 432.976562 55.730469 435.367188 55.730469 439.917969 C 55.730469 445.988281 46.980469 459.804688 46.980469 465.210938 C 46.980469 469.261719 50.628906 471.523438 54.191406 471.523438 C 58.820312 471.523438 62.71875 466.953125 62.71875 466.953125 Z M 60.003906 463.542969 "/>
<path style=" stroke:none;fill-rule:evenodd;fill:rgb(99.606323%,77.253723%,4.705811%);fill-opacity:1;" d="M 58.992188 353.929688 C 58.992188 343.796875 68.089844 338.589844 75.234375 338.589844 C 84.871094 338.589844 89.996094 344.34375 89.996094 351.886719 C 89.996094 356.160156 89.214844 358.847656 87.246094 362.929688 C 87.246094 362.929688 71.355469 395.980469 65.167969 408.757812 C 64.394531 410.351562 64.152344 412.167969 64.152344 414.828125 C 64.152344 418.9375 68.132812 422.296875 72.316406 422.394531 C 76.121094 422.492188 80.273438 418.847656 80.273438 414.691406 C 80.273438 409.644531 77.652344 407.398438 74.964844 407.398438 C 71.65625 407.398438 70.335938 408.757812 70.335938 411.074219 C 70.335938 412.695312 71.117188 413.394531 72.242188 413.394531 C 75.082031 413.394531 74.285156 409.578125 74.285156 409.578125 C 75.691406 409.886719 76.855469 411.328125 76.1875 413.128906 C 77.222656 413.355469 78.191406 413.890625 78.949219 414.761719 C 78.179688 415.496094 77.308594 416.066406 76.1875 416.261719 C 76.855469 418.457031 75.96875 419.523438 74.046875 419.980469 C 74.4375 419.132812 74.445312 418.359375 74.316406 417.628906 C 71.296875 418.480469 66.667969 417.113281 66.667969 411.898438 C 66.667969 406.714844 70.265625 402.351562 77.011719 403.441406 C 75.398438 402.675781 74.585938 401.105469 74.421875 399.351562 C 75.644531 399.828125 77.011719 399.894531 77.011719 399.894531 C 76.222656 398.503906 75.121094 397.304688 75.171875 394.574219 C 76.425781 395.140625 77.578125 396.199219 79.183594 395.53125 C 76.667969 390.582031 79.761719 383.773438 87.621094 382.164062 C 84.742188 385.539062 83.332031 389.175781 83.332031 392.804688 C 83.332031 404.550781 86.597656 406.527344 86.597656 414.691406 C 86.597656 418.105469 84.839844 421.800781 81.363281 424.308594 L 81.363281 424.171875 C 83.660156 424.789062 85.132812 425.917969 85.984375 427.457031 C 80.730469 428.953125 73.085938 428.921875 68.976562 427.308594 C 64.265625 426.765625 60.972656 423.144531 60.003906 421.304688 C 59.035156 419.476562 57.144531 412.832031 60.003906 406.851562 C 63.128906 400.308594 77.855469 369.074219 82.445312 359.253906 C 83.421875 357.167969 84.015625 354.964844 84.015625 352.570312 C 84.015625 346.558594 78.5 344.457031 75.375 344.457031 C 71.632812 344.457031 67.824219 347.304688 67.824219 350.863281 C 67.824219 353.117188 69.050781 354.476562 70.816406 354.476562 C 75.046875 354.476562 74.789062 350.878906 73.941406 348.617188 C 76.578125 349.796875 78.109375 351.914062 77.683594 354.132812 C 79.175781 354.347656 80.601562 355.046875 81.898438 356.527344 C 80.875 357.828125 79.613281 358.804688 77.683594 358.847656 C 78.53125 362.296875 76.210938 363.761719 73.941406 364.574219 C 74.667969 362.035156 75.136719 359.113281 70.816406 359.113281 C 67.667969 359.113281 65.183594 358.570312 63.746094 356.527344 C 63.65625 359.253906 63.402344 370.027344 63.402344 370.027344 C 63.214844 374.074219 68.824219 373.957031 72.378906 372.753906 C 71.039062 377.417969 68.277344 379.941406 61.90625 379.304688 C 63.453125 379.949219 65.105469 381.402344 65.105469 384.210938 C 65.105469 388.003906 62.019531 392.210938 60.003906 393.457031 L 58.984375 353.929688 Z M 58.992188 353.929688 "/>
<path style=" stroke:none;fill-rule:evenodd;fill:rgb(99.606323%,77.253723%,4.705811%);fill-opacity:1;" d="M 61.011719 353.929688 C 61.011719 343.796875 51.914062 338.589844 44.757812 338.589844 C 35.132812 338.589844 29.996094 344.34375 29.996094 351.886719 C 29.996094 356.160156 30.785156 358.847656 32.757812 362.929688 C 32.757812 362.929688 48.640625 395.980469 54.832031 408.757812 C 55.601562 410.351562 55.851562 412.167969 55.851562 414.828125 C 55.851562 418.9375 51.863281 422.296875 47.691406 422.394531 C 43.878906 422.492188 39.730469 418.847656 39.730469 414.691406 C 39.730469 409.644531 42.351562 407.398438 45.035156 407.398438 C 48.339844 407.398438 49.660156 408.757812 49.660156 411.074219 C 49.660156 412.695312 48.878906 413.394531 47.753906 413.394531 C 44.921875 413.394531 45.710938 409.578125 45.710938 409.578125 C 44.304688 409.886719 43.148438 411.328125 43.804688 413.128906 C 42.78125 413.355469 41.8125 413.890625 41.054688 414.761719 C 41.8125 415.496094 42.683594 416.066406 43.804688 416.261719 C 43.148438 418.457031 44.035156 419.523438 45.957031 419.980469 C 45.566406 419.132812 45.546875 418.359375 45.679688 417.628906 C 48.707031 418.480469 53.335938 417.113281 53.335938 411.898438 C 53.335938 406.714844 49.738281 402.351562 42.992188 403.441406 C 44.597656 402.675781 45.410156 401.105469 45.582031 399.351562 C 44.351562 399.828125 42.992188 399.894531 42.992188 399.894531 C 43.785156 398.503906 44.871094 397.304688 44.832031 394.574219 C 43.578125 395.140625 42.414062 396.199219 40.8125 395.53125 C 43.335938 390.582031 40.242188 383.773438 32.382812 382.164062 C 35.253906 385.539062 36.671875 389.175781 36.671875 392.804688 C 36.671875 404.550781 33.398438 406.527344 33.398438 414.691406 C 33.398438 418.105469 35.15625 421.800781 38.640625 424.308594 L 38.640625 424.171875 C 36.335938 424.789062 34.863281 425.917969 34.015625 427.457031 C 39.273438 428.953125 46.917969 428.921875 51.015625 427.308594 C 55.738281 426.765625 59.035156 423.144531 60.003906 421.304688 C 60.972656 419.476562 62.859375 412.832031 60.003906 406.851562 C 56.878906 400.308594 42.144531 369.074219 37.546875 359.253906 C 36.582031 357.167969 35.984375 354.964844 35.984375 352.570312 C 35.984375 346.558594 41.496094 344.457031 44.628906 344.457031 C 48.363281 344.457031 52.179688 347.304688 52.179688 350.863281 C 52.179688 353.117188 50.953125 354.476562 49.183594 354.476562 C 44.953125 354.476562 45.214844 350.878906 46.050781 348.617188 C 43.425781 349.796875 41.894531 351.914062 42.308594 354.132812 C 40.820312 354.347656 39.402344 355.046875 38.09375 356.527344 C 39.128906 357.828125 40.382812 358.804688 42.308594 358.847656 C 41.472656 362.296875 43.785156 363.761719 46.050781 364.574219 C 45.335938 362.035156 44.863281 359.113281 49.183594 359.113281 C 52.335938 359.113281 54.808594 358.570312 56.257812 356.527344 C 56.347656 359.253906 56.601562 370.027344 56.601562 370.027344 C 56.777344 374.074219 51.179688 373.957031 47.613281 372.753906 C 48.964844 377.417969 51.714844 379.941406 58.097656 379.304688 C 56.550781 379.949219 54.898438 381.402344 54.898438 384.210938 C 54.898438 388.003906 57.976562 392.210938 60.003906 393.457031 Z M 61.011719 353.929688 "/>
<path style=" stroke:none;fill-rule:evenodd;fill:rgb(99.606323%,77.253723%,4.705811%);fill-opacity:1;" d="M 60.003906 463.542969 C 60.003906 463.542969 64.800781 467.578125 66.441406 465.550781 C 69.058594 462.296875 58.367188 446.070312 58.367188 440.355469 C 58.367188 430.972656 64.625 428.425781 72.355469 427.082031 C 77.539062 426.1875 85.984375 427.457031 85.984375 427.457031 C 84.390625 429.597656 83.359375 430.226562 80.679688 430.394531 C 83.660156 431.941406 86.703125 435.300781 86.703125 440.535156 C 86.703125 448.609375 83.375 451.9375 83.375 461.027344 C 83.375 466.074219 87.515625 472.503906 87.515625 472.503906 C 80.199219 471.769531 76.578125 464.996094 78.636719 459.585938 C 77.476562 459.417969 76.417969 459.675781 75.511719 460.539062 C 74.976562 459.042969 75.824219 457.300781 76.953125 455.792969 C 76.042969 455.304688 75.375 455.601562 73.917969 455.898438 C 74.054688 454.355469 74.984375 452.710938 77.246094 451.164062 C 70.671875 452.871094 66.625 448.292969 66.625 443.496094 C 66.625 439.867188 69.164062 437.273438 71.648438 437.273438 C 72.453125 437.273438 73.632812 437.605469 74.292969 438.101562 C 74.765625 437.101562 74.519531 435.765625 74.039062 434.765625 C 75.855469 435.253906 77.011719 436.328125 76.1875 438.582031 C 77.585938 438.710938 78.703125 439.183594 79.460938 440.078125 C 78.6875 441.066406 77.53125 441.625 76.1875 441.578125 C 77.207031 443.675781 76.074219 444.855469 74.421875 445.808594 C 74.421875 445.808594 75.472656 441.578125 72.789062 441.578125 C 71.582031 441.578125 70.484375 441.976562 70.484375 443.75 C 70.484375 445.304688 71.832031 447.445312 74.964844 447.304688 C 78.089844 447.175781 80.632812 445.148438 80.632812 440.152344 C 80.632812 435.546875 76.914062 433.261719 72.019531 433.105469 C 67.601562 432.976562 64.265625 435.367188 64.265625 439.917969 C 64.265625 445.988281 73.023438 459.804688 73.023438 465.210938 C 73.023438 469.261719 69.378906 471.523438 65.804688 471.523438 C 61.179688 471.523438 57.273438 466.953125 57.273438 466.953125 L 59.992188 463.542969 Z M 60.003906 463.542969 "/>
<path style=" stroke:none;fill-rule:evenodd;fill:rgb(99.606323%,77.253723%,4.705811%);fill-opacity:1;" d="M 58.992188 176.472656 C 58.992188 166.339844 68.089844 161.125 75.234375 161.125 C 84.871094 161.125 89.996094 166.886719 89.996094 174.429688 C 89.996094 178.703125 89.214844 181.378906 87.246094 185.472656 C 87.246094 185.472656 71.355469 218.523438 65.167969 231.296875 C 64.394531 232.894531 64.152344 234.707031 64.152344 237.371094 C 64.152344 241.480469 68.132812 244.832031 72.316406 244.9375 C 76.121094 245.035156 80.273438 241.390625 80.273438 237.230469 C 80.273438 232.183594 77.652344 229.929688 74.964844 229.929688 C 71.65625 229.929688 70.335938 231.296875 70.335938 233.617188 C 70.335938 235.238281 71.117188 235.9375 72.242188 235.9375 C 75.082031 235.9375 74.285156 232.121094 74.285156 232.121094 C 75.691406 232.429688 76.855469 233.863281 76.1875 235.660156 C 77.222656 235.894531 78.191406 236.433594 78.949219 237.296875 C 78.179688 238.039062 77.308594 238.605469 76.1875 238.800781 C 76.855469 240.992188 75.96875 242.066406 74.046875 242.519531 C 74.4375 241.675781 74.445312 240.894531 74.316406 240.160156 C 71.296875 241.023438 66.667969 239.65625 66.667969 234.441406 C 66.667969 229.257812 70.265625 224.886719 77.011719 225.976562 C 75.398438 225.210938 74.585938 223.640625 74.421875 221.890625 C 75.644531 222.363281 77.011719 222.4375 77.011719 222.4375 C 76.222656 221.046875 75.121094 219.847656 75.171875 217.113281 C 76.425781 217.683594 77.578125 218.734375 79.183594 218.066406 C 76.667969 213.117188 79.761719 206.316406 87.621094 204.703125 C 84.742188 208.074219 83.332031 211.71875 83.332031 215.339844 C 83.332031 227.089844 86.597656 229.070312 86.597656 237.230469 C 86.597656 240.648438 84.839844 244.34375 81.363281 246.851562 L 81.363281 246.710938 C 83.660156 247.332031 85.132812 248.460938 85.984375 250 C 80.730469 251.488281 73.085938 251.464844 68.976562 249.855469 C 64.265625 249.300781 60.972656 245.6875 60.003906 243.847656 C 59.035156 242.007812 57.144531 235.367188 60.003906 229.394531 C 63.128906 222.84375 77.855469 191.609375 82.445312 181.796875 C 83.421875 179.710938 84.015625 177.496094 84.015625 175.105469 C 84.015625 169.089844 78.5 166.992188 75.375 166.992188 C 71.632812 166.992188 67.824219 169.847656 67.824219 173.402344 C 67.824219 175.660156 69.050781 177.019531 70.816406 177.019531 C 75.046875 177.019531 74.789062 173.421875 73.941406 171.148438 C 76.578125 172.339844 78.109375 174.445312 77.683594 176.675781 C 79.175781 176.878906 80.601562 177.585938 81.898438 179.058594 C 80.875 180.363281 79.613281 181.347656 77.683594 181.378906 C 78.53125 184.839844 76.210938 186.304688 73.941406 187.109375 C 74.667969 184.578125 75.136719 181.65625 70.816406 181.65625 C 67.667969 181.65625 65.183594 181.113281 63.746094 179.058594 C 63.65625 181.796875 63.402344 192.570312 63.402344 192.570312 C 63.214844 196.613281 68.824219 196.5 72.378906 195.296875 C 71.039062 199.957031 68.277344 202.480469 61.90625 201.839844 C 63.453125 202.488281 65.105469 203.949219 65.105469 206.753906 C 65.105469 210.546875 62.019531 214.753906 60.003906 216 L 58.984375 176.472656 Z M 58.992188 176.472656 "/>
<path style=" stroke:none;fill-rule:evenodd;fill:rgb(99.606323%,77.253723%,4.705811%);fill-opacity:1;" d="M 61.011719 176.472656 C 61.011719 166.339844 51.914062 161.125 44.757812 161.125 C 35.132812 161.125 29.996094 166.886719 29.996094 174.429688 C 29.996094 178.703125 30.785156 181.378906 32.757812 185.472656 C 32.757812 185.472656 48.640625 218.523438 54.832031 231.296875 C 55.601562 232.894531 55.851562 234.707031 55.851562 237.371094 C 55.851562 241.480469 51.863281 244.832031 47.691406 244.9375 C 43.878906 245.035156 39.730469 241.390625 39.730469 237.230469 C 39.730469 232.183594 42.351562 229.929688 45.035156 229.929688 C 48.339844 229.929688 49.660156 231.296875 49.660156 233.617188 C 49.660156 235.238281 48.878906 235.9375 47.753906 235.9375 C 44.921875 235.9375 45.710938 232.121094 45.710938 232.121094 C 44.304688 232.429688 43.148438 233.863281 43.804688 235.660156 C 42.78125 235.894531 41.8125 236.433594 41.054688 237.296875 C 41.8125 238.039062 42.683594 238.605469 43.804688 238.800781 C 43.148438 240.992188 44.035156 242.066406 45.957031 242.519531 C 45.566406 241.675781 45.546875 240.894531 45.679688 240.160156 C 48.707031 241.023438 53.335938 239.65625 53.335938 234.441406 C 53.335938 229.257812 49.738281 224.886719 42.992188 225.976562 C 44.597656 225.210938 45.410156 223.640625 45.582031 221.890625 C 44.351562 222.363281 42.992188 222.4375 42.992188 222.4375 C 43.785156 221.046875 44.871094 219.847656 44.832031 217.113281 C 43.578125 217.683594 42.414062 218.734375 40.8125 218.066406 C 43.335938 213.117188 40.242188 206.316406 32.382812 204.703125 C 35.253906 208.074219 36.671875 211.71875 36.671875 215.339844 C 36.671875 227.089844 33.398438 229.070312 33.398438 237.230469 C 33.398438 240.648438 35.15625 244.34375 38.640625 246.851562 L 38.640625 246.710938 C 36.335938 247.332031 34.863281 248.460938 34.015625 250 C 39.273438 251.488281 46.917969 251.464844 51.015625 249.855469 C 55.738281 249.300781 59.035156 245.6875 60.003906 243.847656 C 60.972656 242.007812 62.859375 235.367188 60.003906 229.394531 C 56.878906 222.84375 42.144531 191.609375 37.546875 181.796875 C 36.582031 179.710938 35.984375 177.496094 35.984375 175.105469 C 35.984375 169.089844 41.496094 166.992188 44.628906 166.992188 C 48.363281 166.992188 52.179688 169.847656 52.179688 173.402344 C 52.179688 175.660156 50.953125 177.019531 49.183594 177.019531 C 44.953125 177.019531 45.214844 173.421875 46.050781 171.148438 C 43.425781 172.339844 41.894531 174.445312 42.308594 176.675781 C 40.820312 176.878906 39.402344 177.585938 38.09375 179.058594 C 39.128906 180.363281 40.382812 181.347656 42.308594 181.378906 C 41.472656 184.839844 43.785156 186.304688 46.050781 187.109375 C 45.335938 184.578125 44.863281 181.65625 49.183594 181.65625 C 52.335938 181.65625 54.808594 181.113281 56.257812 179.058594 C 56.347656 181.796875 56.601562 192.570312 56.601562 192.570312 C 56.777344 196.613281 51.179688 196.5 47.613281 195.296875 C 48.964844 199.957031 51.714844 202.480469 58.097656 201.839844 C 56.550781 202.488281 54.898438 203.949219 54.898438 206.753906 C 54.898438 210.546875 57.976562 214.753906 60.003906 216 Z M 61.011719 176.472656 "/>
<path style=" stroke:none;fill-rule:evenodd;fill:rgb(99.606323%,77.253723%,4.705811%);fill-opacity:1;" d="M 61.011719 146.070312 C 61.011719 156.203125 51.914062 161.410156 44.757812 161.410156 C 35.132812 161.410156 29.996094 155.65625 29.996094 148.113281 C 29.996094 143.839844 30.785156 141.152344 32.757812 137.070312 C 32.757812 137.070312 48.640625 104.019531 54.832031 91.242188 C 55.601562 89.648438 55.851562 87.832031 55.851562 85.171875 C 55.851562 81.0625 51.863281 77.703125 47.691406 77.605469 C 43.878906 77.507812 39.730469 81.152344 39.730469 85.308594 C 39.730469 90.355469 42.351562 92.601562 45.035156 92.601562 C 48.339844 92.601562 49.660156 91.242188 49.660156 88.925781 C 49.660156 87.304688 48.878906 86.605469 47.753906 86.605469 C 44.921875 86.605469 45.710938 90.421875 45.710938 90.421875 C 44.304688 90.113281 43.148438 88.671875 43.804688 86.871094 C 42.78125 86.644531 41.8125 86.109375 41.054688 85.238281 C 41.8125 84.503906 42.683594 83.933594 43.804688 83.738281 C 43.148438 81.542969 44.035156 80.476562 45.957031 80.019531 C 45.566406 80.867188 45.546875 81.640625 45.679688 82.371094 C 48.707031 81.519531 53.335938 82.886719 53.335938 88.101562 C 53.335938 93.285156 49.738281 97.648438 42.992188 96.558594 C 44.597656 97.324219 45.410156 98.894531 45.582031 100.648438 C 44.351562 100.171875 42.992188 100.105469 42.992188 100.105469 C 43.785156 101.496094 44.871094 102.695312 44.832031 105.425781 C 43.578125 104.859375 42.414062 103.800781 40.8125 104.46875 C 43.335938 109.417969 40.242188 116.226562 32.382812 117.835938 C 35.253906 114.460938 36.671875 110.824219 36.671875 107.195312 C 36.671875 95.449219 33.398438 93.472656 33.398438 85.308594 C 33.398438 81.894531 35.15625 78.199219 38.640625 75.691406 L 38.640625 75.828125 C 36.335938 75.210938 34.863281 74.082031 34.015625 72.542969 C 39.273438 71.046875 46.917969 71.078125 51.015625 72.691406 C 55.738281 73.234375 59.035156 76.855469 60.003906 78.695312 C 60.972656 80.523438 62.859375 87.167969 60.003906 93.148438 C 56.878906 99.691406 42.144531 130.925781 37.546875 140.746094 C 36.582031 142.832031 35.984375 145.035156 35.984375 147.429688 C 35.984375 153.441406 41.496094 155.542969 44.628906 155.542969 C 48.363281 155.542969 52.179688 152.695312 52.179688 149.136719 C 52.179688 146.882812 50.953125 145.523438 49.183594 145.523438 C 44.953125 145.523438 45.214844 149.121094 46.050781 151.382812 C 43.425781 150.203125 41.894531 148.085938 42.308594 145.867188 C 40.820312 145.652344 39.402344 144.953125 38.09375 143.472656 C 39.128906 142.171875 40.382812 141.195312 42.308594 141.152344 C 41.472656 137.703125 43.785156 136.238281 46.050781 135.425781 C 45.335938 137.964844 44.863281 140.886719 49.183594 140.886719 C 52.335938 140.886719 54.808594 141.429688 56.257812 143.472656 C 56.347656 140.746094 56.601562 129.972656 56.601562 129.972656 C 56.777344 125.925781 51.179688 126.042969 47.613281 127.246094 C 48.964844 122.582031 51.714844 120.058594 58.097656 120.695312 C 56.550781 120.050781 54.898438 118.597656 54.898438 115.789062 C 54.898438 111.996094 57.976562 107.789062 60.003906 106.542969 Z M 61.011719 146.070312 "/>
<path style=" stroke:none;fill-rule:evenodd;fill:rgb(99.606323%,77.253723%,4.705811%);fill-opacity:1;" d="M 61.011719 323.527344 C 61.011719 333.660156 51.914062 338.875 44.757812 338.875 C 35.132812 338.875 29.996094 333.113281 29.996094 325.570312 C 29.996094 321.296875 30.785156 318.621094 32.757812 314.527344 C 32.757812 314.527344 48.640625 281.476562 54.832031 268.703125 C 55.601562 267.105469 55.851562 265.292969 55.851562 262.628906 C 55.851562 258.519531 51.863281 255.167969 47.691406 255.0625 C 43.878906 254.964844 39.730469 258.609375 39.730469 262.769531 C 39.730469 267.816406 42.351562 270.070312 45.035156 270.070312 C 48.339844 270.070312 49.660156 268.703125 49.660156 266.382812 C 49.660156 264.761719 48.878906 264.0625 47.753906 264.0625 C 44.921875 264.0625 45.710938 267.878906 45.710938 267.878906 C 44.304688 267.570312 43.148438 266.136719 43.804688 264.339844 C 42.78125 264.105469 41.8125 263.566406 41.054688 262.703125 C 41.8125 261.960938 42.683594 261.394531 43.804688 261.199219 C 43.148438 259.007812 44.035156 257.933594 45.957031 257.480469 C 45.566406 258.324219 45.546875 259.105469 45.679688 259.839844 C 48.707031 258.976562 53.335938 260.34375 53.335938 265.558594 C 53.335938 270.742188 49.738281 275.113281 42.992188 274.023438 C 44.597656 274.789062 45.410156 276.359375 45.582031 278.109375 C 44.351562 277.636719 42.992188 277.5625 42.992188 277.5625 C 43.785156 278.953125 44.871094 280.152344 44.832031 282.886719 C 43.578125 282.316406 42.414062 281.265625 40.8125 281.933594 C 43.335938 286.882812 40.242188 293.683594 32.382812 295.296875 C 35.253906 291.925781 36.671875 288.28125 36.671875 284.660156 C 36.671875 272.910156 33.398438 270.929688 33.398438 262.769531 C 33.398438 259.351562 35.15625 255.65625 38.640625 253.148438 L 38.640625 253.289062 C 36.335938 252.667969 34.863281 251.539062 34.015625 250 C 39.273438 248.511719 46.917969 248.535156 51.015625 250.144531 C 55.738281 250.699219 59.035156 254.3125 60.003906 256.152344 C 60.972656 257.992188 62.859375 264.632812 60.003906 270.605469 C 56.878906 277.15625 42.144531 308.390625 37.546875 318.203125 C 36.582031 320.289062 35.984375 322.503906 35.984375 324.894531 C 35.984375 330.910156 41.496094 333.007812 44.628906 333.007812 C 48.363281 333.007812 52.179688 330.152344 52.179688 326.597656 C 52.179688 324.339844 50.953125 322.980469 49.183594 322.980469 C 44.953125 322.980469 45.214844 326.578125 46.050781 328.851562 C 43.425781 327.660156 41.894531 325.554688 42.308594 323.324219 C 40.820312 323.121094 39.402344 322.414062 38.09375 320.941406 C 39.128906 319.636719 40.382812 318.652344 42.308594 318.621094 C 41.472656 315.160156 43.785156 313.695312 46.050781 312.890625 C 45.335938 315.421875 44.863281 318.34375 49.183594 318.34375 C 52.335938 318.34375 54.808594 318.886719 56.257812 320.941406 C 56.347656 318.203125 56.601562 307.429688 56.601562 307.429688 C 56.777344 303.386719 51.179688 303.5 47.613281 304.703125 C 48.964844 300.042969 51.714844 297.519531 58.097656 298.160156 C 56.550781 297.511719 54.898438 296.050781 54.898438 293.246094 C 54.898438 289.453125 57.976562 285.246094 60.003906 284 Z M 61.011719 323.527344 "/>
<path style=" stroke:none;fill-rule:evenodd;fill:rgb(99.606323%,77.253723%,4.705811%);fill-opacity:1;" d="M 58.992188 323.527344 C 58.992188 333.660156 68.089844 338.875 75.234375 338.875 C 84.871094 338.875 89.996094 333.113281 89.996094 325.570312 C 89.996094 321.296875 89.214844 318.621094 87.246094 314.527344 C 87.246094 314.527344 71.355469 281.476562 65.167969 268.703125 C 64.394531 267.105469 64.152344 265.292969 64.152344 262.628906 C 64.152344 258.519531 68.132812 255.167969 72.316406 255.0625 C 76.121094 254.964844 80.273438 258.609375 80.273438 262.769531 C 80.273438 267.816406 77.652344 270.070312 74.964844 270.070312 C 71.65625 270.070312 70.335938 268.703125 70.335938 266.382812 C 70.335938 264.761719 71.117188 264.0625 72.242188 264.0625 C 75.082031 264.0625 74.285156 267.878906 74.285156 267.878906 C 75.691406 267.570312 76.855469 266.136719 76.1875 264.339844 C 77.222656 264.105469 78.191406 263.566406 78.949219 262.703125 C 78.179688 261.960938 77.308594 261.394531 76.1875 261.199219 C 76.855469 259.007812 75.96875 257.933594 74.046875 257.480469 C 74.4375 258.324219 74.445312 259.105469 74.316406 259.839844 C 71.296875 258.976562 66.667969 260.34375 66.667969 265.558594 C 66.667969 270.742188 70.265625 275.113281 77.011719 274.023438 C 75.398438 274.789062 74.585938 276.359375 74.421875 278.109375 C 75.644531 277.636719 77.011719 277.5625 77.011719 277.5625 C 76.222656 278.953125 75.121094 280.152344 75.171875 282.886719 C 76.425781 282.316406 77.578125 281.265625 79.183594 281.933594 C 76.667969 286.882812 79.761719 293.683594 87.621094 295.296875 C 84.742188 291.925781 83.332031 288.28125 83.332031 284.660156 C 83.332031 272.910156 86.597656 270.929688 86.597656 262.769531 C 86.597656 259.351562 84.839844 255.65625 81.363281 253.148438 L 81.363281 253.289062 C 83.660156 252.667969 85.132812 251.539062 85.984375 250 C 80.730469 248.511719 73.085938 248.535156 68.976562 250.144531 C 64.265625 250.699219 60.972656 254.3125 60.003906 256.152344 C 59.035156 257.992188 57.144531 264.632812 60.003906 270.605469 C 63.128906 277.15625 77.855469 308.390625 82.445312 318.203125 C 83.421875 320.289062 84.015625 322.503906 84.015625 324.894531 C 84.015625 330.910156 78.5 333.007812 75.375 333.007812 C 71.632812 333.007812 67.824219 330.152344 67.824219 326.597656 C 67.824219 324.339844 69.050781 322.980469 70.816406 322.980469 C 75.046875 322.980469 74.789062 326.578125 73.941406 328.851562 C 76.578125 327.660156 78.109375 325.554688 77.683594 323.324219 C 79.175781 323.121094 80.601562 322.414062 81.898438 320.941406 C 80.875 319.636719 79.613281 318.652344 77.683594 318.621094 C 78.53125 315.160156 76.210938 313.695312 73.941406 312.890625 C 74.667969 315.421875 75.136719 318.34375 70.816406 318.34375 C 67.667969 318.34375 65.183594 318.886719 63.746094 320.941406 C 63.65625 318.203125 63.402344 307.429688 63.402344 307.429688 C 63.214844 303.386719 68.824219 303.5 72.378906 304.703125 C 71.039062 300.042969 68.277344 297.519531 61.90625 298.160156 C 63.453125 297.511719 65.105469 296.050781 65.105469 293.246094 C 65.105469 289.453125 62.019531 285.246094 60.003906 284 L 58.984375 323.527344 Z M 58.992188 323.527344 "/>
<path style=" stroke:none;fill-rule:evenodd;fill:rgb(99.606323%,77.253723%,4.705811%);fill-opacity:1;" d="M 60.003906 36.457031 C 60.003906 36.457031 64.800781 32.421875 66.441406 34.449219 C 69.058594 37.703125 58.367188 53.929688 58.367188 59.644531 C 58.367188 69.027344 64.625 71.574219 72.355469 72.917969 C 77.539062 73.8125 85.984375 72.542969 85.984375 72.542969 C 84.390625 70.402344 83.359375 69.773438 80.679688 69.605469 C 83.660156 68.058594 86.703125 64.699219 86.703125 59.464844 C 86.703125 51.390625 83.375 48.0625 83.375 38.972656 C 83.375 33.925781 87.515625 27.496094 87.515625 27.496094 C 80.199219 28.230469 76.578125 35.003906 78.636719 40.414062 C 77.476562 40.582031 76.417969 40.324219 75.511719 39.460938 C 74.976562 40.957031 75.824219 42.699219 76.953125 44.207031 C 76.042969 44.695312 75.375 44.398438 73.917969 44.101562 C 74.054688 45.644531 74.984375 47.289062 77.246094 48.835938 C 70.671875 47.128906 66.625 51.707031 66.625 56.503906 C 66.625 60.132812 69.164062 62.726562 71.648438 62.726562 C 72.453125 62.726562 73.632812 62.394531 74.292969 61.898438 C 74.765625 62.898438 74.519531 64.234375 74.039062 65.234375 C 75.855469 64.746094 77.011719 63.671875 76.1875 61.417969 C 77.585938 61.289062 78.703125 60.816406 79.460938 59.921875 C 78.6875 58.933594 77.53125 58.375 76.1875 58.421875 C 77.207031 56.324219 76.074219 55.144531 74.421875 54.191406 C 74.421875 54.191406 75.472656 58.421875 72.789062 58.421875 C 71.582031 58.421875 70.484375 58.023438 70.484375 56.25 C 70.484375 54.695312 71.832031 52.554688 74.964844 52.695312 C 78.089844 52.824219 80.632812 54.851562 80.632812 59.847656 C 80.632812 64.453125 76.914062 66.738281 72.019531 66.894531 C 67.601562 67.023438 64.265625 64.632812 64.265625 60.082031 C 64.265625 54.011719 73.023438 40.195312 73.023438 34.789062 C 73.023438 30.738281 69.378906 28.476562 65.804688 28.476562 C 61.179688 28.476562 57.273438 33.046875 57.273438 33.046875 L 59.992188 36.457031 Z M 60.003906 36.457031 "/>
<path style=" stroke:none;fill-rule:evenodd;fill:rgb(99.606323%,77.253723%,4.705811%);fill-opacity:1;" d="M 60.003906 36.457031 C 60.003906 36.457031 55.191406 32.421875 53.566406 34.449219 C 50.933594 37.703125 61.628906 53.929688 61.628906 59.644531 C 61.628906 69.027344 55.371094 71.574219 47.648438 72.917969 C 42.464844 73.8125 34.015625 72.542969 34.015625 72.542969 C 35.605469 70.402344 36.636719 69.773438 39.324219 69.605469 C 36.335938 68.058594 33.300781 64.699219 33.300781 59.464844 C 33.300781 51.390625 36.621094 48.0625 36.621094 38.972656 C 36.621094 33.925781 32.488281 27.496094 32.488281 27.496094 C 39.796875 28.230469 43.425781 35.003906 41.359375 40.414062 C 42.519531 40.582031 43.578125 40.324219 44.488281 39.460938 C 45.027344 40.957031 44.179688 42.699219 43.050781 44.207031 C 43.960938 44.695312 44.628906 44.398438 46.078125 44.101562 C 45.949219 45.644531 45.019531 47.289062 42.75 48.835938 C 49.324219 47.128906 53.367188 51.707031 53.367188 56.503906 C 53.367188 60.132812 50.828125 62.726562 48.347656 62.726562 C 47.550781 62.726562 46.371094 62.394531 45.703125 61.898438 C 45.238281 62.898438 45.476562 64.234375 45.960938 65.234375 C 44.140625 64.746094 42.984375 63.671875 43.804688 61.417969 C 42.414062 61.289062 41.300781 60.816406 40.542969 59.921875 C 41.308594 58.933594 42.472656 58.375 43.804688 58.421875 C 42.789062 56.324219 43.929688 55.144531 45.582031 54.191406 C 45.582031 54.191406 44.53125 58.421875 47.207031 58.421875 C 48.421875 58.421875 49.519531 58.023438 49.519531 56.25 C 49.519531 54.695312 48.160156 52.554688 45.035156 52.695312 C 41.902344 52.824219 39.363281 54.851562 39.363281 59.847656 C 39.363281 64.453125 43.082031 66.738281 47.980469 66.894531 C 52.398438 67.023438 55.730469 64.632812 55.730469 60.082031 C 55.730469 54.011719 46.980469 40.195312 46.980469 34.789062 C 46.980469 30.738281 50.628906 28.476562 54.191406 28.476562 C 58.820312 28.476562 62.71875 33.046875 62.71875 33.046875 Z M 60.003906 36.457031 "/>
</g>
</svg>
