<?xml version="1.0" encoding="UTF-8"?>
<svg xmlns="http://www.w3.org/2000/svg" xmlns:xlink="http://www.w3.org/1999/xlink" viewBox="0 0 1000 714" version="1.1">
<g id="surface655">
<rect x="0" y="0" width="1000" height="714" style="fill:rgb(14.117432%,29.019165%,64.704895%);fill-opacity:1;stroke:none;"/>
<path style=" stroke:none;fill-rule:evenodd;fill:rgb(81.567383%,65.097046%,31.37207%);fill-opacity:1;" d="M 395.347656 338.804688 C 395.347656 338.804688 397.207031 337.554688 397.882812 337.386719 C 398.5625 337.21875 400.960938 336.46875 400.960938 336.46875 C 400.960938 336.46875 402.5 335.675781 403.3125 335.675781 C 404.171875 335.675781 405.847656 336.597656 406.390625 337.386719 C 406.886719 338.175781 409.597656 339.554688 409.597656 339.554688 C 409.597656 339.554688 411.453125 340.175781 411.816406 339.554688 C 412.179688 338.929688 412.992188 338.472656 413.851562 338.472656 C 414.714844 338.472656 414.847656 337.675781 414.847656 337.054688 C 414.847656 336.429688 415.210938 335.636719 415.839844 334.886719 C 416.523438 334.097656 417.878906 333.636719 417.878906 333.636719 C 417.878906 333.636719 419.730469 332.84375 419.914062 331.761719 C 420.097656 330.679688 421.949219 329.886719 422.992188 329.722656 C 423.988281 329.554688 422.992188 329.09375 425.703125 329.386719 C 428.421875 329.722656 428.78125 328.761719 428.917969 327.96875 C 429.097656 327.179688 428.917969 326.386719 430.636719 326.550781 C 432.351562 326.722656 433.167969 326.722656 433.167969 325.761719 C 433.167969 324.847656 434.707031 324.347656 431.992188 323.59375 C 429.277344 322.804688 429.460938 323.429688 429.277344 322.179688 C 429.097656 320.929688 429.277344 321.09375 427.425781 320.929688 C 425.570312 320.761719 426.566406 319.84375 426.429688 318.886719 C 426.246094 317.972656 425.75 317.472656 425.433594 316.84375 C 425.074219 316.21875 424.078125 316.21875 424.078125 315.300781 C 424.078125 314.386719 423.894531 313.886719 422.898438 313.886719 C 421.90625 313.886719 421.542969 313.886719 421.542969 312.96875 C 421.542969 312.054688 421.722656 311.265625 422.71875 311.265625 C 423.714844 311.265625 424.257812 310.46875 424.078125 309.554688 C 423.894531 308.636719 423.894531 306.59375 423.894531 306.59375 L 425.253906 305.011719 C 425.253906 305.011719 429.324219 301.71875 429.6875 301.09375 C 430.046875 300.472656 431.402344 300.011719 432.039062 301.261719 C 432.71875 302.515625 433.03125 302.847656 433.574219 303.425781 C 434.074219 304.050781 435.613281 303.59375 435.925781 302.972656 C 436.289062 302.347656 436.425781 300.050781 437.328125 298.804688 C 438.234375 297.597656 438.867188 296.972656 439.097656 295.972656 C 439.320312 294.96875 439.773438 294.136719 440.859375 294.136719 C 441.945312 294.136719 442.621094 292.71875 442.621094 291.886719 C 442.621094 291.054688 443.078125 290.265625 444.386719 290.054688 C 445.699219 289.84375 446.378906 289.054688 446.832031 290.265625 C 447.285156 291.46875 447.734375 291.46875 448.59375 291.886719 C 449.503906 292.300781 450.8125 292.886719 451.449219 292.300781 C 452.125 291.679688 452.441406 290.679688 453.433594 291.300781 C 454.386719 291.929688 455.0625 291.300781 455.292969 290.09375 C 455.515625 288.886719 455.746094 287.261719 455.746094 287.261719 C 455.746094 287.261719 455.96875 286.425781 457.507812 286.425781 C 459.046875 286.425781 457.960938 285.425781 458.816406 284.804688 C 459.722656 284.179688 459.722656 283.59375 460.808594 283.96875 C 461.894531 284.386719 463.65625 283.46875 462.800781 282.46875 C 461.894531 281.472656 459.949219 279.847656 461.035156 278.59375 C 462.121094 277.386719 462.574219 275.34375 461.488281 275.140625 C 460.402344 274.929688 458.816406 275.34375 458.640625 274.136719 C 458.410156 272.929688 457.960938 272.097656 459.316406 271.886719 C 460.628906 271.679688 462.84375 271.679688 463.523438 271.054688 C 464.199219 270.429688 466.375 270.054688 466.375 268.222656 C 466.375 266.390625 467.050781 266.179688 467.277344 265.179688 C 467.507812 264.179688 467.507812 262.050781 466.597656 261.050781 C 465.695312 260.050781 464.382812 258.59375 464.15625 258.011719 C 463.929688 257.386719 463.074219 256.386719 461.710938 255.972656 C 460.402344 255.554688 459.269531 255.34375 459.269531 254.34375 C 459.269531 253.34375 460.175781 254.554688 460.175781 251.886719 C 460.175781 249.265625 458.410156 248.84375 458.410156 248.84375 L 455.746094 247.222656 C 455.746094 247.222656 451.035156 245.96875 449.773438 245.96875 C 448.507812 245.96875 447.054688 244.636719 448.507812 243.804688 C 449.953125 242.96875 450.316406 241.46875 449.773438 240.304688 C 449.230469 239.136719 448.867188 238.304688 446.878906 237.804688 C 444.886719 237.304688 444.34375 236.804688 445.246094 235.636719 C 446.152344 234.472656 446.332031 233.640625 447.421875 234.472656 C 448.507812 235.304688 450.316406 235.636719 451.761719 234.972656 C 453.210938 234.304688 453.753906 233.804688 454.476562 234.472656 C 455.199219 235.140625 456.105469 235.804688 457.191406 234.804688 C 458.273438 233.804688 460.265625 233.640625 461.167969 234.140625 C 462.078125 234.640625 464.246094 234.472656 464.972656 234.140625 C 465.695312 233.804688 467.140625 232.636719 467.140625 231.96875 C 467.140625 231.300781 468.046875 230.136719 468.953125 229.636719 C 469.859375 229.136719 470.945312 227.46875 471.847656 227.46875 C 472.753906 227.46875 473.113281 226.46875 473.113281 225.800781 C 473.113281 225.136719 473.839844 223.804688 474.019531 223.304688 C 474.199219 222.804688 476.007812 222.09375 477.277344 223.136719 C 478.542969 224.136719 480.171875 224.46875 480.171875 224.46875 C 480.171875 224.46875 481.980469 224.804688 482.886719 224.46875 C 483.789062 224.136719 485.058594 223.804688 486.324219 224.636719 C 487.589844 225.46875 489.402344 225.46875 489.402344 225.46875 C 489.402344 225.46875 489.761719 224.136719 489.761719 223.46875 C 489.761719 222.804688 490.121094 221.636719 489.402344 221.136719 C 488.675781 220.636719 487.769531 219.96875 489.21875 218.972656 C 490.667969 217.972656 490.667969 218.136719 492.113281 218.136719 C 493.5625 218.136719 494.464844 218.304688 495.550781 218.304688 C 496.636719 218.304688 498.445312 219.304688 498.445312 220.304688 C 498.445312 221.304688 499.171875 221.96875 500.078125 222.46875 C 500.980469 222.96875 502.066406 223.46875 501.707031 224.304688 C 501.34375 225.136719 501.34375 225.800781 502.429688 225.636719 C 503.515625 225.46875 503.875 226.136719 503.875 226.96875 C 503.875 227.800781 504.238281 228.300781 505.324219 228.636719 C 506.410156 228.96875 506.953125 229.636719 506.953125 230.46875 C 506.953125 231.300781 506.769531 231.800781 507.132812 232.636719 C 507.496094 233.472656 508.578125 234.804688 508.578125 234.804688 C 508.578125 234.804688 510.570312 237.136719 508.039062 235.972656 C 505.503906 234.804688 504.960938 234.304688 504.058594 234.472656 C 503.152344 234.640625 502.609375 235.140625 502.609375 235.140625 C 502.609375 235.140625 501.34375 235.472656 500.4375 235.472656 C 499.535156 235.472656 498.628906 237.304688 500.078125 237.636719 C 501.523438 237.972656 502.066406 238.304688 502.066406 239.472656 C 502.066406 240.636719 501.523438 240.304688 500.796875 241.136719 C 500.078125 241.96875 499.535156 241.46875 498.269531 241.46875 C 497 241.46875 496.636719 242.46875 496.636719 243.46875 C 496.636719 244.46875 497.183594 244.304688 497.726562 245.136719 C 498.269531 245.96875 499.171875 246.136719 500.078125 245.304688 C 500.980469 244.46875 501.707031 243.96875 502.246094 245.46875 C 502.789062 246.96875 503.515625 246.96875 504.601562 246.96875 C 505.683594 246.96875 506.050781 246.96875 506.953125 246.46875 C 507.859375 245.96875 508.945312 246.46875 509.121094 247.800781 C 509.304688 249.136719 510.210938 249.300781 511.113281 249.800781 C 512.015625 250.300781 512.5625 250.636719 512.742188 251.46875 C 512.921875 252.300781 513.464844 252.636719 514.371094 252.136719 C 515.277344 251.636719 516.726562 251.300781 517.269531 251.96875 C 517.808594 252.636719 518.714844 253.972656 518.714844 253.972656 L 518.894531 255.640625 L 522.332031 256.804688 C 522.332031 256.804688 522.695312 257.636719 522.695312 258.304688 C 522.695312 258.972656 523.238281 259.304688 524.144531 259.136719 C 525.046875 258.972656 526.675781 259.136719 526.675781 259.136719 C 526.675781 259.136719 527.945312 258.636719 527.945312 257.636719 C 527.945312 256.636719 528.488281 256.304688 529.390625 256.304688 C 530.296875 256.304688 532.285156 256.972656 532.828125 255.972656 C 533.371094 254.972656 535 254.640625 536.269531 255.140625 C 537.53125 255.640625 540.789062 256.972656 540.789062 256.972656 C 540.789062 256.972656 540.429688 257.136719 541.515625 258.804688 C 542.601562 260.472656 544.589844 260.472656 544.589844 260.472656 C 544.589844 260.472656 544.769531 261.96875 545.136719 262.636719 C 545.496094 263.304688 547.121094 263.636719 548.03125 262.96875 C 548.933594 262.304688 550.199219 261.46875 551.285156 261.46875 C 552.371094 261.46875 553.09375 261.46875 553.09375 260.804688 C 553.09375 260.136719 552.011719 259.636719 552.011719 258.636719 C 552.011719 257.636719 553.09375 257.636719 553.277344 256.636719 C 553.460938 255.640625 554.542969 256.636719 555.265625 257.136719 C 555.988281 257.636719 556.898438 258.472656 556.898438 259.136719 C 556.898438 259.804688 558.34375 262.136719 559.25 262.46875 C 560.152344 262.804688 562.503906 262.96875 563.226562 262.136719 C 563.953125 261.304688 565.761719 260.972656 565.582031 262.96875 C 565.398438 264.96875 565.039062 265.136719 566.304688 265.804688 C 567.574219 266.46875 567.75 268.800781 566.664062 269.46875 C 565.582031 270.136719 565.21875 270.300781 565.21875 271.46875 C 565.21875 272.636719 564.855469 273.96875 565.761719 274.640625 C 566.664062 275.304688 567.207031 275.804688 567.207031 276.472656 C 567.207031 277.136719 568.292969 280.136719 568.292969 280.136719 C 568.292969 280.136719 568.839844 283.136719 568.65625 283.804688 C 568.476562 284.46875 568.113281 285.636719 569.742188 285.46875 C 571.371094 285.304688 571.734375 285.304688 571.734375 286.636719 C 571.734375 287.96875 572.277344 288.46875 571.371094 288.96875 C 570.46875 289.46875 569.925781 291.136719 570.828125 291.46875 C 571.734375 291.800781 572.457031 292.300781 572.636719 292.96875 C 572.820312 293.636719 574.265625 294.800781 575.171875 294.136719 C 576.074219 293.46875 576.257812 293.136719 576.980469 292.96875 C 577.707031 292.800781 578.25 292.300781 577.523438 291.46875 C 576.800781 290.636719 576.617188 289.800781 577.34375 289.300781 C 578.066406 288.800781 578.425781 287.136719 578.425781 287.136719 C 578.425781 287.136719 579.515625 285.636719 580.78125 287.136719 C 582.046875 288.636719 582.230469 288.136719 583.132812 288.136719 C 584.039062 288.136719 584.398438 288.96875 584.398438 289.800781 C 584.398438 290.636719 586.207031 290.46875 586.207031 291.800781 C 586.207031 293.136719 586.574219 296.304688 586.574219 296.304688 C 586.574219 296.304688 586.574219 298.136719 587.65625 298.804688 C 588.742188 299.472656 588.5625 299.636719 588.019531 300.472656 C 587.476562 301.304688 587.65625 302.636719 587.65625 303.304688 C 587.65625 303.96875 588.019531 304.304688 587.113281 304.96875 C 586.207031 305.636719 585.847656 306.46875 586.390625 307.46875 C 586.933594 308.46875 586.75 309.136719 588.199219 310.300781 C 589.644531 311.46875 589.46875 311.96875 589.46875 312.800781 C 589.46875 313.636719 590.914062 314.800781 590.914062 315.636719 C 590.914062 316.472656 591.996094 317.472656 592.90625 317.640625 C 593.808594 317.804688 594.898438 319.304688 594.898438 320.136719 C 594.898438 320.972656 595.074219 323.136719 595.074219 323.136719 C 595.074219 323.136719 594.898438 323.636719 595.980469 323.636719 C 597.066406 323.636719 597.792969 324.804688 598.152344 323.472656 C 598.511719 322.136719 599.601562 321.972656 600.324219 321.636719 C 601.046875 321.304688 602.496094 320.636719 603.21875 321.136719 C 603.941406 321.636719 604.847656 321.636719 605.570312 321.636719 C 606.292969 321.636719 609.730469 321.804688 609.730469 321.804688 C 609.730469 321.804688 610.636719 321.636719 611.179688 322.972656 C 611.722656 324.304688 613.351562 325.804688 612.449219 326.46875 C 611.542969 327.136719 611.542969 328.46875 612.628906 328.46875 C 613.714844 328.46875 614.800781 328.46875 614.800781 329.304688 C 614.800781 330.136719 614.980469 330.800781 615.886719 330.300781 C 616.792969 329.800781 617.335938 329.636719 617.695312 330.300781 C 618.054688 330.96875 618.78125 330.96875 619.6875 331.46875 C 620.589844 331.96875 620.953125 331.636719 621.496094 330.96875 C 622.039062 330.300781 624.210938 329.636719 624.210938 329.636719 C 624.210938 329.636719 627.105469 328.96875 628.191406 329.304688 C 629.273438 329.636719 630.722656 330.300781 630.722656 330.300781 C 630.722656 330.300781 631.449219 331.96875 631.085938 332.96875 C 630.722656 333.96875 630.363281 333.800781 630.722656 335.300781 C 631.085938 336.800781 630.363281 336.96875 629.640625 336.800781 C 628.914062 336.636719 628.191406 336.636719 628.191406 337.972656 C 628.191406 339.304688 627.46875 339.636719 627.46875 340.804688 C 627.46875 341.972656 627.46875 341.804688 626.742188 342.304688 C 626.019531 342.804688 625.835938 343.636719 626.921875 343.804688 C 628.011719 343.972656 627.648438 345.136719 627.648438 345.804688 C 627.648438 346.46875 627.46875 347.96875 627.46875 347.96875 C 627.46875 347.96875 627.648438 348.804688 626.378906 348.804688 C 625.113281 348.804688 624.027344 348.636719 623.847656 349.46875 C 623.667969 350.300781 622.21875 351.636719 623.484375 352.46875 C 624.753906 353.300781 624.390625 353.800781 623.667969 354.136719 C 622.941406 354.46875 622.398438 356.136719 623.847656 356.636719 C 625.292969 357.136719 625.113281 357.636719 624.210938 358.304688 C 623.304688 358.972656 621.496094 359.472656 621.496094 360.472656 C 621.496094 361.472656 621.132812 361.472656 620.046875 361.636719 C 618.960938 361.804688 618.417969 363.136719 619.6875 364.804688 C 620.953125 366.46875 621.316406 366.136719 622.21875 366.136719 C 623.125 366.136719 623.125 364.804688 623.125 364.804688 C 623.125 364.804688 626.203125 364.972656 627.105469 364.972656 C 628.011719 364.972656 629.273438 364.972656 630 364.472656 C 630.722656 363.972656 632.714844 363.136719 632.714844 364.636719 C 632.714844 366.136719 633.078125 365.96875 633.984375 366.636719 C 634.886719 367.304688 635.066406 366.804688 635.789062 367.804688 C 636.511719 368.804688 636.695312 367.96875 637.238281 366.804688 C 637.78125 365.636719 638.867188 364.472656 639.773438 365.804688 C 640.675781 367.136719 640.675781 366.804688 641.761719 366.804688 C 642.847656 366.804688 643.210938 367.304688 643.210938 368.136719 C 643.210938 368.96875 644.292969 368.96875 645.5625 368.804688 C 646.828125 368.636719 647.011719 369.46875 647.554688 370.304688 C 648.097656 371.136719 648.273438 370.96875 649 370.96875 C 649.722656 370.96875 650.449219 370.96875 650.992188 370.304688 C 651.535156 369.636719 652.257812 368.804688 652.980469 369.804688 C 653.703125 370.804688 655.152344 370.636719 655.515625 369.46875 C 655.878906 368.304688 657.507812 367.304688 658.410156 368.636719 C 659.316406 369.96875 660.039062 369.96875 660.941406 370.136719 C 661.847656 370.304688 663.113281 370.304688 663.65625 371.136719 C 664.199219 371.96875 666.007812 373.300781 664.742188 374.300781 C 663.476562 375.300781 662.027344 376.636719 663.113281 376.96875 C 664.199219 377.300781 664.921875 377.636719 665.648438 378.46875 C 666.371094 379.304688 668.722656 379.640625 669.808594 379.804688 C 670.894531 379.972656 671.800781 380.140625 673.070312 379.140625 C 674.332031 378.136719 675.597656 378.136719 675.421875 379.472656 C 675.238281 380.804688 675.964844 382.304688 675.964844 382.304688 C 675.964844 382.304688 676.867188 384.472656 676.867188 385.304688 C 676.867188 386.136719 676.683594 386.304688 678.316406 387.304688 C 679.945312 388.304688 679.761719 388.96875 681.027344 387.96875 C 682.296875 386.96875 682.65625 386.46875 682.65625 385.636719 L 682.65625 382.972656 C 682.65625 382.972656 684.464844 382.636719 685.191406 382.136719 C 685.914062 381.636719 688.808594 380.140625 689.535156 380.804688 C 690.253906 381.472656 691.160156 381.304688 691.886719 380.972656 C 692.609375 380.640625 694.054688 380.640625 694.78125 380.640625 C 695.507812 380.640625 696.769531 380.804688 698.21875 379.640625 C 699.667969 378.46875 699.667969 378.804688 700.570312 379.640625 C 701.476562 380.472656 701.476562 381.472656 700.929688 382.136719 C 700.390625 382.804688 700.929688 384.304688 702.199219 384.304688 C 703.464844 384.304688 703.832031 384.972656 703.832031 385.804688 C 703.832031 386.636719 704.007812 387.804688 704.191406 388.46875 C 704.371094 389.136719 704.371094 389.46875 706.359375 389.96875 C 708.351562 390.46875 707.992188 391.636719 708.351562 392.46875 C 708.714844 393.300781 708.714844 393.96875 707.628906 393.96875 C 706.542969 393.96875 706.183594 394.46875 706 395.300781 C 705.820312 396.136719 704.191406 396.46875 704.191406 396.46875 L 702.5625 396.136719 C 702.5625 396.136719 701.476562 396.136719 700.929688 396.800781 C 700.390625 397.46875 699.304688 398.800781 700.027344 399.972656 C 700.753906 401.140625 700.753906 401.804688 700.027344 402.304688 C 699.304688 402.804688 698.945312 405.304688 698.21875 404.804688 C 697.492188 404.304688 696.589844 404.972656 695.867188 405.304688 C 695.140625 405.636719 695.324219 407.96875 696.769531 408.804688 C 698.21875 409.636719 698.578125 410.804688 698.578125 410.804688 L 700.210938 413.300781 C 700.210938 413.300781 699.667969 413.800781 699.304688 414.636719 C 698.945312 415.46875 697.859375 417.136719 698.945312 417.46875 C 700.027344 417.800781 699.484375 419.636719 698.402344 419.636719 C 697.316406 419.636719 696.046875 419.136719 695.867188 420.472656 C 695.683594 421.804688 695.140625 421.472656 694.054688 421.304688 C 692.972656 421.140625 690.253906 420.472656 689.535156 421.804688 C 688.808594 423.136719 688.628906 423.636719 687.359375 423.472656 C 686.097656 423.304688 686.640625 425.472656 687 426.304688 C 687.359375 427.136719 688.628906 428.304688 688.628906 428.304688 C 688.628906 428.304688 689.710938 429.136719 689.710938 430.804688 C 689.710938 432.46875 688.992188 432.304688 688.265625 431.136719 C 687.542969 429.96875 686.097656 430.136719 685.914062 431.46875 C 685.734375 432.804688 685.550781 434.800781 684.289062 434.800781 C 683.019531 434.800781 682.476562 435.136719 681.933594 435.800781 C 681.390625 436.46875 680.484375 437.636719 680.484375 438.300781 C 680.484375 438.96875 680.304688 439.636719 679.402344 439.800781 C 678.492188 439.96875 678.316406 441.804688 678.316406 441.804688 C 678.316406 441.804688 676.140625 442.140625 675.964844 442.972656 C 675.78125 443.804688 676.140625 445.136719 674.332031 445.304688 C 672.523438 445.472656 671.4375 446.636719 670.894531 447.472656 C 670.351562 448.304688 670.167969 448.96875 670.894531 449.804688 C 671.617188 450.636719 672.160156 453.304688 673.070312 453.804688 C 673.972656 454.304688 674.695312 454.46875 674.515625 455.800781 C 674.332031 457.136719 673.246094 458.136719 674.695312 458.136719 C 676.140625 458.136719 677.046875 458.46875 676.507812 459.636719 C 675.964844 460.800781 675.964844 460.96875 674.875 461.46875 C 673.789062 461.96875 673.246094 461.96875 673.246094 463.304688 C 673.246094 464.636719 673.609375 464.636719 672.703125 465.136719 C 671.800781 465.636719 671.800781 466.304688 671.800781 467.304688 C 671.800781 468.304688 671.4375 467.972656 670.351562 469.136719 C 669.265625 470.304688 667.816406 470.304688 666.914062 469.96875 C 666.007812 469.636719 665.828125 469.636719 665.648438 468.636719 C 665.464844 467.636719 663.835938 467.636719 662.933594 467.804688 C 662.027344 467.972656 660.761719 468.972656 660.761719 468.972656 C 660.761719 468.972656 659.132812 469.96875 659.859375 470.804688 C 660.582031 471.636719 660.21875 472.96875 658.953125 472.804688 C 657.683594 472.636719 654.789062 474.136719 653.886719 472.636719 C 652.980469 471.136719 650.449219 470.136719 650.085938 472.136719 C 649.722656 474.136719 651.167969 473.96875 650.992188 475.96875 C 650.808594 477.96875 650.449219 477.96875 649.722656 478.636719 C 649 479.300781 649 479.800781 648.816406 480.636719 C 648.640625 481.46875 648.457031 483.304688 649.722656 483.972656 C 650.992188 484.640625 651.535156 486.472656 651.535156 487.472656 C 651.535156 488.472656 651.535156 489.472656 652.800781 489.472656 C 654.070312 489.472656 655.152344 489.304688 655.332031 488.136719 C 655.515625 486.972656 658.046875 486.304688 658.230469 488.636719 C 658.410156 490.96875 658.410156 492.136719 659.316406 493.136719 C 660.21875 494.136719 660.941406 495.46875 661.667969 495.96875 C 662.390625 496.46875 663.613281 500.722656 663.613281 500.722656 C 661.847656 501.097656 661.398438 503.386719 660.265625 503.84375 C 659.628906 504.097656 658.953125 503.886719 658.367188 504.304688 C 657.914062 504.640625 657.914062 505.261719 657.277344 505.554688 C 655.96875 506.140625 656.191406 504.097656 654.609375 504.84375 C 653.160156 505.511719 653.027344 507.175781 650.945312 506.472656 C 649.859375 506.097656 649.179688 501.84375 648.863281 500.84375 C 648.679688 500.265625 647.554688 498.511719 647.191406 497.96875 C 645.96875 496.136719 643.527344 497.96875 642.757812 497.425781 C 641.535156 496.59375 642.078125 495.179688 640.222656 495.011719 C 636.46875 494.761719 639.136719 497.300781 637.554688 497.886719 C 634.527344 498.96875 634.527344 495.054688 632.261719 496.84375 C 631.402344 497.511719 633.617188 497.925781 633.078125 499.097656 C 632.621094 500.054688 630.40625 501.511719 630.542969 502.636719 C 630.722656 504.175781 632.398438 504.640625 632.894531 505.929688 C 634.253906 509.347656 631.992188 511.71875 628.597656 509.050781 C 626.699219 507.550781 626.335938 504.761719 623.394531 504.972656 C 622.71875 505.011719 622.488281 505.71875 621.808594 505.804688 C 621.132812 505.84375 620.589844 505.175781 619.863281 505.386719 C 618.78125 505.761719 619.730469 506.511719 619.503906 507.136719 C 619.503906 507.136719 618.054688 508.34375 617.832031 508.675781 C 617.015625 509.761719 617.289062 510.71875 616.109375 511.59375 C 615.117188 512.347656 614.347656 511.886719 613.261719 513.050781 C 612.128906 514.261719 612.042969 516.054688 610.59375 517.222656 C 609.867188 517.800781 609.371094 515.46875 608.46875 517.011719 C 608.332031 517.222656 608.195312 517.425781 608.105469 517.636719 C 607.878906 518.09375 607.832031 518.300781 608.0625 518.800781 C 609.960938 522.46875 605.980469 523.84375 604.757812 526.429688 C 604.214844 527.511719 605.710938 528.511719 605.121094 529.34375 C 604.714844 529.972656 602.945312 531.679688 602.808594 532.050781 C 602.675781 532.429688 602.496094 533.261719 602.179688 533.550781 C 601.859375 533.886719 600.777344 533.71875 600.6875 534.21875 C 600.59375 534.804688 601.820312 535.261719 602.132812 535.636719 C 602.539062 536.09375 601.953125 536.722656 602.089844 536.847656 C 604.125 538.886719 602.902344 538.261719 603.941406 540.054688 C 604.078125 540.300781 604.714844 539.84375 604.9375 540.511719 C 605.164062 541.136719 604.441406 541.097656 604.714844 541.800781 C 604.757812 542.011719 606.207031 543.886719 606.207031 543.929688 C 606.292969 544.554688 603.445312 545.84375 602.808594 545.84375 C 601.09375 545.886719 604.304688 542.300781 601.5 542.300781 C 600.28125 542.300781 600.1875 545.097656 599.871094 545.386719 C 599.738281 545.511719 598.605469 545.386719 598.335938 545.386719 C 596.523438 545.386719 595.347656 547.640625 594.621094 547.84375 C 594.171875 548.011719 593.175781 547.597656 592.40625 547.71875 C 591.683594 547.84375 590.824219 548.550781 590.144531 548.550781 C 589.691406 548.550781 589.46875 548.261719 589.101562 548.054688 C 588.289062 547.597656 586.796875 547.386719 585.890625 547.097656 C 585.394531 546.929688 584.445312 547.71875 584.128906 547.511719 C 583.539062 547.140625 584.535156 546.097656 583.179688 545.34375 C 582.996094 545.261719 582.003906 542.84375 582.046875 542.71875 C 582.5 541.136719 582.996094 539.425781 582.773438 537.761719 C 582.5 536.054688 579.832031 534.59375 579.105469 533.21875 C 578.5625 532.179688 578.066406 529.429688 577.023438 528.71875 C 575.898438 527.972656 574.855469 526.511719 574.265625 525.386719 C 574.085938 525.054688 574.628906 524.46875 574.222656 523.886719 C 573.769531 523.261719 572.910156 523.011719 572.683594 522.175781 C 572.503906 521.511719 572.683594 519.34375 571.914062 518.886719 C 571.054688 518.386719 565.535156 517.722656 564.175781 517.59375 C 563.453125 517.554688 562.910156 517.554688 562.367188 517.011719 C 562.144531 516.804688 561.777344 515.925781 561.601562 515.925781 C 561.058594 515.890625 560.421875 516.179688 559.878906 516.222656 C 559.472656 516.261719 558.796875 515.96875 558.433594 516.222656 C 556.667969 517.425781 556.21875 518.96875 554.542969 520.265625 C 552.824219 521.554688 550.925781 521.511719 549.203125 523.011719 C 548.117188 523.96875 547.394531 526.261719 546.308594 527.34375 C 545.855469 527.804688 545.136719 527.34375 544.953125 527.550781 C 544.046875 528.675781 542.78125 529.34375 541.875 530.386719 C 541.695312 530.59375 541.738281 531.015625 541.515625 531.179688 L 539.570312 531.679688 C 539.070312 531.761719 538.121094 531.636719 537.714844 531.761719 C 536.808594 532.050781 536.851562 533.011719 533.777344 533.636719 C 533.550781 533.679688 533.144531 533.886719 532.964844 534.011719 C 532.601562 534.261719 532.332031 534.636719 531.972656 534.886719 C 531.742188 535.054688 531.0625 534.761719 530.65625 534.804688 C 529.890625 534.925781 529.4375 535.59375 528.710938 535.679688 C 527.085938 535.890625 524.460938 534.925781 523.195312 535.425781 C 522.421875 535.722656 520.296875 538.09375 519.527344 538.34375 C 519.03125 538.511719 518.671875 538.300781 518.125 538.09375 C 517.851562 538.425781 517.222656 541.011719 516.996094 541.597656 C 516.996094 541.636719 513.511719 544.554688 513.242188 544.886719 C 512.789062 545.386719 512.605469 545.929688 512.0625 546.472656 C 511.703125 546.84375 511.113281 547.175781 510.523438 547.175781 C 509.800781 547.175781 508.714844 546.640625 508.039062 546.511719 C 506.726562 546.304688 502.789062 546.140625 501.617188 546.386719 C 500.390625 546.640625 500.757812 550.136719 497.726562 550.472656 C 495.957031 550.679688 494.332031 551.015625 492.519531 551.179688 C 492.339844 551.179688 491.253906 550.429688 490.167969 550.71875 C 489.761719 550.847656 488.453125 552.179688 488.453125 552.59375 L 488.453125 553.347656 C 488.453125 553.46875 488.8125 553.925781 488.765625 553.96875 C 488.085938 554.761719 486.546875 556.011719 486.050781 556.925781 C 485.917969 557.179688 485.734375 557.46875 485.511719 557.636719 C 485.101562 557.925781 483.023438 558.722656 482.839844 559.09375 C 482.34375 560.34375 484.289062 561.511719 484.105469 562.011719 C 483.566406 563.636719 481.390625 565.175781 480.714844 566.675781 C 480.441406 567.304688 481.4375 569.386719 481.390625 570.09375 C 481.167969 572.050781 480.488281 574.550781 480.578125 576.46875 C 480.578125 576.847656 480.847656 578.804688 480.984375 579.011719 C 481.210938 579.386719 481.707031 579.59375 482.027344 579.925781 C 482.34375 580.261719 484.738281 584.929688 484.832031 585.429688 C 485.28125 588.886719 480.261719 587.675781 483.15625 591.136719 C 483.609375 591.675781 483.972656 592.261719 484.46875 592.71875 C 485.101562 593.347656 488.8125 596.050781 488.859375 596.347656 C 488.949219 596.847656 485.871094 597.347656 485.328125 597.890625 C 483.882812 599.304688 482.660156 601.925781 481.253906 603.386719 C 480.398438 604.300781 479.628906 603.300781 478.496094 605.429688 C 478.089844 606.21875 478.496094 608.011719 478 608.511719 C 477.277344 609.261719 476.6875 608.261719 475.964844 608.597656 C 475.648438 608.71875 475.464844 609.640625 475.152344 609.886719 C 474.335938 610.59375 467.097656 614.429688 466.421875 614.09375 C 466.054688 613.929688 465.648438 612.71875 465.601562 612.34375 C 465.515625 611.929688 465.058594 611.011719 464.699219 610.71875 C 462.84375 609.140625 459.996094 608.84375 458.1875 610.761719 C 457.734375 611.261719 457.6875 612.011719 457.101562 612.511719 C 456.105469 613.347656 454.972656 614.09375 454.023438 614.929688 C 453.84375 615.09375 453.300781 615.71875 453.074219 615.679688 C 452.351562 615.59375 450.585938 613.59375 450.132812 613.050781 C 449.320312 612.09375 446.96875 609.804688 446.738281 608.71875 C 446.738281 605.011719 443.84375 601.136719 442.621094 597.511719 L 444.433594 597.554688 C 446.46875 596.179688 445.882812 592.804688 449.542969 594.136719 C 449.996094 593.515625 449.953125 592.847656 450.8125 592.386719 C 451.128906 592.21875 451.71875 592.050781 451.898438 591.761719 C 453.117188 589.886719 454.566406 582.722656 453.300781 580.886719 C 452.167969 579.222656 450.992188 579.304688 450.085938 576.550781 C 449.816406 575.804688 450.316406 574.925781 450.085938 574.09375 C 449.910156 573.429688 448.683594 569.472656 448.507812 569.175781 C 448.277344 568.84375 447.511719 568.429688 447.464844 568.21875 C 447.421875 567.886719 447.148438 563.597656 447.285156 563.265625 C 446.058594 559.925781 441.945312 557.804688 441.71875 557.425781 C 441.21875 556.636719 440.722656 555.59375 440.179688 554.71875 C 439.546875 553.679688 439.546875 553.136719 439.183594 552.136719 C 439.050781 551.679688 438.371094 551.304688 438.324219 550.804688 C 438.234375 549.929688 440.722656 548.09375 440.636719 546.554688 C 440.589844 546.054688 439.050781 544.554688 439.367188 543.71875 C 439.679688 542.84375 441.265625 540.886719 441.21875 539.925781 C 441.132812 538.636719 438.730469 535.847656 438.417969 534.46875 C 438.28125 533.804688 439.367188 533.261719 439.097656 532.804688 C 438.777344 532.21875 436.242188 529.929688 435.835938 529.261719 C 435.519531 528.761719 436.785156 528.09375 435.882812 527.175781 C 435.070312 526.34375 435.746094 526.640625 435.519531 525.929688 C 435.246094 525.140625 434.34375 524.429688 433.984375 523.597656 C 433.667969 522.886719 431.492188 515.054688 431.539062 514.59375 C 431.179688 514.050781 430.542969 513.59375 430.230469 513.050781 C 429.914062 512.511719 429.777344 511.46875 429.503906 511.050781 C 429.460938 511.015625 427.058594 510.304688 426.609375 509.59375 C 426.246094 509.015625 426.15625 507.09375 425.527344 506.140625 C 425.207031 505.675781 424.707031 505.761719 424.347656 505.429688 C 424.03125 505.175781 424.078125 504.71875 423.851562 504.429688 C 423.128906 503.429688 421.675781 504.34375 420.679688 500.679688 C 419.371094 499.765625 418.152344 498.96875 417.019531 497.84375 C 416.792969 497.636719 416.660156 497.386719 416.386719 497.261719 C 415.480469 496.886719 414.125 496.761719 413.351562 496.09375 C 412.902344 496.09375 410.503906 496.011719 410.234375 495.84375 C 409.960938 495.679688 409.691406 494.636719 409.507812 494.59375 C 408.242188 494.347656 406.160156 494.46875 405.074219 493.554688 C 404.214844 492.804688 404.039062 489.179688 402.5 489.679688 C 402.316406 489.59375 402.09375 489.515625 401.863281 489.550781 C 400.867188 488.261719 397.429688 488.09375 396.027344 487.261719 C 395.621094 487.011719 394.308594 487.21875 394.308594 486.84375 C 394.625 486.136719 394.535156 485.554688 394.582031 484.84375 C 393.808594 484.097656 393.316406 483.21875 392.773438 482.675781 C 391.457031 482.386719 391.957031 482.261719 391.144531 481.761719 C 388.882812 481.597656 388.65625 481.96875 387.207031 483.304688 C 386.847656 483.640625 386.121094 483.71875 385.667969 483.972656 C 384.902344 484.386719 384.671875 485.761719 383.585938 485.140625 C 383.226562 484.929688 382.996094 484.597656 382.726562 484.34375 C 382.09375 483.804688 381.734375 484.097656 381.417969 483.097656 C 379.5625 482.097656 374.449219 485.554688 373.230469 483.140625 C 372.367188 482.675781 371.738281 483.261719 371.011719 482.511719 C 370.648438 482.136719 372.007812 477.96875 368.296875 476.261719 C 369.15625 475.59375 370.0625 475.136719 370.878906 474.511719 C 371.101562 474.054688 370.832031 473.347656 370.832031 472.890625 C 370.832031 472.179688 371.285156 470.804688 371.148438 470.304688 C 371.011719 469.804688 370.46875 469.386719 370.289062 468.804688 C 370.0625 468.21875 370.335938 467.472656 370.015625 466.84375 C 369.792969 466.675781 369.113281 466.261719 368.84375 466.261719 C 367.890625 465.472656 366.851562 464.972656 366.078125 464.011719 C 365.902344 463.804688 365.765625 463.429688 365.535156 463.261719 C 364.859375 462.761719 362.640625 462.097656 362.734375 461.054688 C 362.777344 460.71875 363.230469 460.675781 363.367188 460.34375 C 363.503906 459.929688 363.414062 459.386719 363.726562 459.011719 C 364.769531 457.597656 367.074219 458.222656 366.714844 455.59375 C 366.53125 454.425781 365.71875 453.425781 365.492188 452.179688 C 365.085938 451.890625 365.039062 451.386719 364.679688 451.09375 C 362.417969 450.886719 362.734375 448.550781 361.917969 448.015625 C 359.523438 446.386719 357.664062 447.386719 360.335938 444.175781 C 360.695312 443.140625 358.03125 441.472656 357.484375 440.886719 C 356.535156 439.96875 356.988281 438.054688 356.628906 437.054688 C 356.445312 436.554688 354.859375 435.679688 354.363281 434.96875 C 354.226562 434.761719 353.820312 433.679688 353.597656 433.554688 L 353.640625 433.222656 C 354.140625 432.847656 353.867188 432.09375 353.730469 431.59375 C 353.414062 431.304688 352.738281 431.390625 352.507812 431.179688 C 350.339844 429.21875 347.714844 428.347656 344.867188 427.21875 C 344.09375 426.929688 344.320312 426.304688 343.6875 426.015625 C 343.144531 425.761719 339.300781 424.050781 339.03125 424.136719 C 338.578125 424.011719 338.257812 422.304688 337.941406 421.761719 C 337.667969 421.261719 336.585938 420.34375 336.585938 420.300781 C 336.675781 418.71875 335.679688 418.511719 334.460938 417.679688 C 334.550781 417.46875 334.324219 416.96875 334.324219 416.722656 C 334.324219 416.511719 335.140625 413.761719 335.273438 413.386719 C 335.5 412.800781 336.269531 412.261719 336.136719 411.59375 C 335.953125 410.554688 335.816406 408.925781 335.453125 408.011719 C 334.230469 404.761719 332.785156 405.179688 333.554688 400.929688 C 333.734375 400.054688 333.417969 399.554688 334.097656 398.761719 C 334.007812 398.71875 334.414062 398.300781 334.460938 398.21875 C 334.867188 397.84375 336 397.21875 336.222656 396.929688 C 336.902344 396.011719 337.308594 393.925781 338.167969 393.261719 C 338.800781 392.761719 340.609375 391.804688 340.929688 391.390625 C 341.199219 391.054688 341.605469 390.011719 341.382812 389.59375 C 340.746094 389.222656 340.113281 389.390625 339.480469 389.304688 C 339.253906 389.261719 338.441406 388.679688 337.804688 388.550781 C 337.628906 388.347656 337.308594 388.09375 337.308594 387.804688 L 337.039062 387.550781 C 336.3125 387.46875 335.5 387.011719 334.867188 386.804688 C 334.054688 386.46875 332.921875 386.429688 332.152344 385.972656 C 330.707031 385.136719 329.074219 382.84375 327.675781 382.511719 C 325.773438 382.09375 324.550781 382.675781 322.742188 382.761719 C 321.570312 382.84375 321.570312 382.136719 320.613281 381.84375 C 319.351562 381.472656 320.300781 382.511719 317.40625 381.59375 C 317.042969 381.304688 317.585938 380.304688 317.632812 379.929688 C 317.175781 379.804688 316.636719 380.054688 316.09375 379.929688 C 313.695312 379.34375 314.601562 377.175781 313.964844 375.765625 C 313.695312 375.429688 312.703125 375.511719 312.246094 375.46875 C 312.113281 375.429688 312.066406 375.222656 312.113281 375.136719 L 312.335938 374.96875 C 312.742188 374.34375 311.296875 372.761719 311.339844 372.554688 C 311.433594 372.054688 314.375 371.59375 314.78125 371.554688 C 314.917969 371.179688 314.511719 370.84375 314.464844 370.46875 C 314.375 369.636719 314.917969 368.554688 315.191406 367.804688 L 315.097656 367.550781 C 314.28125 367.09375 314.011719 366.425781 313.285156 365.886719 C 313.332031 365.515625 313.828125 365.261719 313.921875 364.886719 C 315.324219 361.011719 317.496094 364.09375 319.394531 360.511719 C 319.578125 360.175781 320.117188 359.304688 320.300781 358.71875 L 320.660156 358.640625 C 321.027344 358.71875 321.523438 359.011719 321.882812 358.886719 C 322.152344 358.511719 322.742188 358.386719 323.195312 358.261719 L 323.875 358.429688 C 327.402344 357.675781 326.585938 356.386719 328.625 354.929688 C 329.167969 354.554688 330.75 354.386719 331.472656 354.136719 C 332.242188 354.46875 333.328125 355.675781 334.773438 356.21875 C 335.816406 356.636719 339.390625 357.386719 339.980469 357.71875 C 340.746094 358.140625 340.882812 359.140625 341.558594 359.511719 C 343.597656 360.59375 342.421875 358.761719 344.367188 359.140625 C 346.359375 359.554688 347.984375 361.175781 349.84375 361.972656 C 350.15625 362.09375 350.925781 361.929688 351.289062 361.84375 C 351.875 361.71875 355.042969 361.136719 355.359375 361.261719 C 355.71875 361.386719 356.261719 361.71875 356.628906 361.804688 C 357.078125 361.886719 357.441406 360.929688 357.757812 360.972656 C 359.113281 361.175781 359.15625 361.71875 360.96875 361.550781 C 361.058594 361.550781 361.917969 356.46875 362.777344 356.21875 C 363.277344 356.097656 364.632812 357.429688 365.039062 357.511719 C 365.71875 357.675781 364.992188 356.46875 364.953125 356.386719 C 364.769531 355.96875 363.820312 352.84375 363.863281 352.554688 C 363.910156 352.386719 364.769531 352.800781 365.175781 352.679688 C 366.171875 352.34375 367.527344 352.09375 368.253906 351.300781 C 368.34375 351.222656 369.882812 349.011719 369.925781 348.925781 C 370.015625 348.554688 369.519531 347.679688 369.746094 347.386719 C 369.96875 347.136719 370.832031 346.804688 371.238281 346.386719 C 371.828125 345.804688 371.914062 344.804688 372.730469 344.386719 C 375.941406 344.09375 377.074219 341.59375 379.96875 341.261719 C 380.148438 341.261719 380.78125 341.136719 380.917969 341.175781 L 381.507812 342.136719 C 381.6875 342.386719 383.632812 343.550781 383.953125 343.472656 C 384.222656 343.429688 384.359375 342.972656 384.628906 342.886719 C 385.214844 342.972656 386.847656 341.972656 387.023438 341.472656 C 387.070312 341.386719 386.664062 340.886719 386.847656 340.550781 C 386.980469 340.304688 389.015625 338.804688 389.335938 338.640625 C 390.054688 338.640625 390.828125 338.472656 391.503906 338.71875 C 391.910156 338.886719 391.957031 339.511719 392.40625 339.59375 C 392.90625 339.636719 393.808594 339.429688 394.175781 339.511719 C 394.582031 339.59375 394.765625 338.761719 395.261719 338.71875 Z M 395.347656 338.804688 "/>
<path style="fill-rule:nonzero;fill:rgb(99.998474%,99.998474%,99.998474%);fill-opacity:1;stroke-width:1;stroke-linecap:square;stroke-linejoin:miter;stroke:rgb(99.998474%,99.998474%,99.998474%);stroke-opacity:1;stroke-miterlimit:3.239307;" d="M 534.234375 150.089844 L 524.613281 179.703125 L 549.804688 161.402344 L 574.992188 179.703125 L 565.371094 150.089844 L 590.566406 131.785156 L 559.425781 131.785156 L 549.804688 102.175781 L 540.183594 131.785156 L 509.042969 131.785156 Z M 534.234375 150.089844 "/>
<path style="fill-rule:nonzero;fill:rgb(99.998474%,99.998474%,99.998474%);fill-opacity:1;stroke-width:1;stroke-linecap:square;stroke-linejoin:miter;stroke:rgb(99.998474%,99.998474%,99.998474%);stroke-opacity:1;stroke-miterlimit:3.239307;" d="M 632.328125 167.386719 L 622.707031 197.003906 L 647.894531 178.699219 L 673.089844 197.003906 L 663.464844 167.386719 L 688.65625 149.085938 L 657.519531 149.085938 L 647.894531 119.46875 L 638.273438 149.085938 L 607.136719 149.085938 Z M 632.328125 167.386719 "/>
<path style="fill-rule:nonzero;fill:rgb(99.998474%,99.998474%,99.998474%);fill-opacity:1;stroke-width:1;stroke-linecap:square;stroke-linejoin:miter;stroke:rgb(99.998474%,99.998474%,99.998474%);stroke-opacity:1;stroke-miterlimit:3.239307;" d="M 725.925781 201.453125 L 716.304688 231.066406 L 741.496094 212.765625 L 766.6875 231.066406 L 757.066406 201.453125 L 782.257812 183.152344 L 751.121094 183.152344 L 741.496094 153.539062 L 731.875 183.152344 L 700.738281 183.152344 Z M 725.925781 201.453125 "/>
<path style="fill-rule:nonzero;fill:rgb(99.998474%,99.998474%,99.998474%);fill-opacity:1;stroke-width:1;stroke-linecap:square;stroke-linejoin:miter;stroke:rgb(99.998474%,99.998474%,99.998474%);stroke-opacity:1;stroke-miterlimit:3.239307;" d="M 434.628906 150.089844 L 425.007812 179.703125 L 450.195312 161.402344 L 475.386719 179.703125 L 465.765625 150.089844 L 490.957031 131.785156 L 459.816406 131.785156 L 450.195312 102.175781 L 440.574219 131.785156 L 409.433594 131.785156 Z M 434.628906 150.089844 "/>
<path style="fill-rule:nonzero;fill:rgb(99.998474%,99.998474%,99.998474%);fill-opacity:1;stroke-width:1;stroke-linecap:square;stroke-linejoin:miter;stroke:rgb(99.998474%,99.998474%,99.998474%);stroke-opacity:1;stroke-miterlimit:3.239307;" d="M 336.535156 167.386719 L 326.910156 197.003906 L 352.105469 178.699219 L 377.292969 197.003906 L 367.671875 167.386719 L 392.863281 149.085938 L 361.726562 149.085938 L 352.105469 119.46875 L 342.480469 149.085938 L 311.34375 149.085938 Z M 336.535156 167.386719 "/>
<path style="fill-rule:nonzero;fill:rgb(99.998474%,99.998474%,99.998474%);fill-opacity:1;stroke-width:1;stroke-linecap:square;stroke-linejoin:miter;stroke:rgb(99.998474%,99.998474%,99.998474%);stroke-opacity:1;stroke-miterlimit:3.239307;" d="M 242.933594 201.453125 L 233.3125 231.066406 L 258.503906 212.765625 L 283.695312 231.066406 L 274.074219 201.453125 L 299.261719 183.152344 L 268.125 183.152344 L 258.503906 153.539062 L 248.878906 183.152344 L 217.742188 183.152344 Z M 242.933594 201.453125 "/>
</g>
</svg>
