<?xml version="1.0" encoding="UTF-8"?>
<svg xmlns="http://www.w3.org/2000/svg" xmlns:xlink="http://www.w3.org/1999/xlink" viewBox="0 0 1000 600" version="1.1">
<g id="surface665">
<rect x="0" y="0" width="1000" height="600" style="fill:rgb(90.979004%,6.666565%,17.64679%);fill-opacity:1;stroke:none;"/>
<path style=" stroke:none;fill-rule:evenodd;fill:rgb(99.998474%,93.72406%,0%);fill-opacity:1;" d="M 509.082031 192.609375 C 500.679688 170.605469 518.679688 136.605469 500.679688 120.605469 C 506.679688 144.605469 486.679688 170.605469 492.28125 192.609375 C 497.882812 214.605469 517.480469 214.605469 509.082031 192.609375 Z M 509.082031 192.609375 "/>
<path style=" stroke:none;fill-rule:evenodd;fill:rgb(99.998474%,93.72406%,0%);fill-opacity:1;" d="M 525.867188 195.25 C 521.015625 172.207031 544.109375 141.441406 528.835938 122.824219 C 531.011719 147.464844 507.1875 170.015625 509.277344 192.621094 C 511.367188 215.226562 530.726562 218.292969 525.867188 195.25 Z M 525.867188 195.25 "/>
<path style=" stroke:none;fill-rule:evenodd;fill:rgb(99.998474%,93.72406%,0%);fill-opacity:1;" d="M 542.042969 200.488281 C 540.855469 176.96875 568.476562 150.195312 556.304688 129.414062 C 554.59375 154.097656 527.539062 172.640625 526.066406 195.292969 C 524.59375 217.949219 543.234375 224.003906 542.042969 200.488281 Z M 542.042969 200.488281 "/>
<path style=" stroke:none;fill-rule:evenodd;fill:rgb(99.998474%,93.72406%,0%);fill-opacity:1;" d="M 557.199219 208.1875 C 559.699219 184.773438 591.171875 162.652344 582.398438 140.226562 C 576.851562 164.332031 547.226562 178.417969 542.226562 200.5625 C 537.226562 222.703125 554.691406 231.605469 557.199219 208.1875 Z M 557.199219 208.1875 "/>
<path style=" stroke:none;fill-rule:evenodd;fill:rgb(99.998474%,93.72406%,0%);fill-opacity:1;" d="M 570.957031 218.167969 C 577.089844 195.433594 611.640625 178.507812 606.480469 154.980469 C 597.226562 177.925781 565.765625 187.203125 557.363281 208.296875 C 548.964844 229.386719 564.820312 240.902344 570.957031 218.167969 Z M 570.957031 218.167969 "/>
<path style=" stroke:none;fill-rule:evenodd;fill:rgb(99.998474%,93.72406%,0%);fill-opacity:1;" d="M 582.988281 230.175781 C 592.601562 208.679688 629.375 197.367188 627.957031 173.324219 C 615.230469 194.542969 582.703125 198.785156 571.109375 218.296875 C 559.511719 237.8125 573.367188 251.675781 582.988281 230.175781 Z M 582.988281 230.175781 "/>
<path style=" stroke:none;fill-rule:evenodd;fill:rgb(99.998474%,93.72406%,0%);fill-opacity:1;" d="M 592.992188 243.921875 C 605.855469 224.195312 643.941406 218.769531 646.304688 194.804688 C 630.414062 213.765625 597.621094 212.867188 583.113281 230.328125 C 568.609375 247.789062 580.132812 263.648438 592.992188 243.921875 Z M 592.992188 243.921875 "/>
<path style=" stroke:none;fill-rule:evenodd;fill:rgb(99.998474%,93.72406%,0%);fill-opacity:1;" d="M 600.722656 259.058594 C 616.507812 241.585938 654.976562 242.1875 661.058594 218.886719 C 642.402344 235.128906 610.15625 229.109375 593.097656 244.089844 C 576.035156 259.066406 584.929688 276.535156 600.722656 259.058594 Z M 600.722656 259.058594 "/>
<path style=" stroke:none;fill-rule:evenodd;fill:rgb(99.998474%,93.72406%,0%);fill-opacity:1;" d="M 605.992188 275.21875 C 624.316406 260.433594 662.214844 267.046875 671.871094 244.980469 C 650.898438 258.105469 619.988281 247.117188 600.796875 259.242188 C 581.605469 271.367188 587.660156 290.011719 605.992188 275.21875 Z M 605.992188 275.21875 "/>
<path style=" stroke:none;fill-rule:evenodd;fill:rgb(99.998474%,93.72406%,0%);fill-opacity:1;" d="M 608.664062 292.007812 C 629.078125 280.269531 665.480469 292.730469 678.460938 272.445312 C 655.699219 282.128906 626.890625 266.441406 606.035156 275.414062 C 585.179688 284.386719 588.246094 303.746094 608.664062 292.007812 Z M 608.664062 292.007812 "/>
<path style=" stroke:none;fill-rule:evenodd;fill:rgb(99.998474%,93.72406%,0%);fill-opacity:1;" d="M 608.679688 309.003906 C 630.679688 300.605469 664.675781 318.605469 680.679688 300.605469 C 656.679688 306.605469 630.679688 286.605469 608.679688 292.207031 C 586.679688 297.808594 586.679688 317.40625 608.679688 309.003906 Z M 608.679688 309.003906 "/>
<path style=" stroke:none;fill-rule:evenodd;fill:rgb(99.998474%,93.72406%,0%);fill-opacity:1;" d="M 606.035156 325.796875 C 629.078125 320.941406 659.84375 344.039062 678.460938 328.765625 C 653.820312 330.9375 631.269531 307.113281 608.664062 309.203125 C 586.058594 311.292969 582.992188 330.648438 606.035156 325.796875 Z M 606.035156 325.796875 "/>
<path style=" stroke:none;fill-rule:evenodd;fill:rgb(99.998474%,93.72406%,0%);fill-opacity:1;" d="M 600.796875 341.96875 C 624.316406 340.777344 651.089844 368.402344 671.871094 356.230469 C 647.191406 354.515625 628.640625 327.460938 605.992188 325.992188 C 583.335938 324.515625 577.28125 343.160156 600.796875 341.96875 Z M 600.796875 341.96875 "/>
<path style=" stroke:none;fill-rule:evenodd;fill:rgb(99.998474%,93.72406%,0%);fill-opacity:1;" d="M 593.097656 357.117188 C 616.507812 359.625 638.632812 391.097656 661.058594 382.324219 C 636.953125 376.773438 622.867188 347.148438 600.722656 342.152344 C 578.578125 337.152344 569.675781 354.617188 593.097656 357.117188 Z M 593.097656 357.117188 "/>
<path style=" stroke:none;fill-rule:evenodd;fill:rgb(99.998474%,93.72406%,0%);fill-opacity:1;" d="M 583.113281 370.882812 C 605.855469 377.015625 622.777344 411.5625 646.304688 406.40625 C 623.359375 397.152344 614.082031 365.695312 592.992188 357.289062 C 571.898438 348.890625 560.382812 364.746094 583.113281 370.882812 Z M 583.113281 370.882812 "/>
<path style=" stroke:none;fill-rule:evenodd;fill:rgb(99.998474%,93.72406%,0%);fill-opacity:1;" d="M 571.109375 382.910156 C 592.601562 392.527344 603.917969 429.296875 627.957031 427.886719 C 606.746094 415.15625 602.503906 382.632812 582.988281 371.035156 C 563.472656 359.4375 549.609375 373.296875 571.109375 382.910156 Z M 571.109375 382.910156 "/>
<path style=" stroke:none;fill-rule:evenodd;fill:rgb(99.998474%,93.72406%,0%);fill-opacity:1;" d="M 557.363281 392.914062 C 577.089844 405.777344 582.515625 443.863281 606.480469 446.230469 C 587.519531 430.335938 588.417969 397.546875 570.957031 383.042969 C 553.496094 368.535156 537.636719 380.054688 557.363281 392.914062 Z M 557.363281 392.914062 "/>
<path style=" stroke:none;fill-rule:evenodd;fill:rgb(99.998474%,93.72406%,0%);fill-opacity:1;" d="M 542.226562 400.648438 C 559.699219 416.433594 559.097656 454.902344 582.398438 460.984375 C 566.15625 442.324219 572.171875 410.078125 557.199219 393.023438 C 542.214844 375.960938 524.757812 384.859375 542.226562 400.648438 Z M 542.226562 400.648438 "/>
<path style=" stroke:none;fill-rule:evenodd;fill:rgb(99.998474%,93.72406%,0%);fill-opacity:1;" d="M 526.066406 405.914062 C 540.855469 424.242188 534.238281 462.140625 556.304688 471.796875 C 543.179688 450.824219 554.164062 419.917969 542.042969 400.722656 C 529.917969 381.535156 511.277344 387.585938 526.066406 405.914062 Z M 526.066406 405.914062 "/>
<path style=" stroke:none;fill-rule:evenodd;fill:rgb(99.998474%,93.72406%,0%);fill-opacity:1;" d="M 509.277344 408.589844 C 521.015625 429.003906 508.554688 465.398438 528.835938 478.390625 C 519.15625 455.625 534.84375 426.816406 525.867188 405.960938 C 516.898438 385.109375 497.539062 388.171875 509.277344 408.589844 Z M 509.277344 408.589844 "/>
<path style=" stroke:none;fill-rule:evenodd;fill:rgb(99.998474%,93.72406%,0%);fill-opacity:1;" d="M 492.28125 408.605469 C 500.679688 430.605469 482.679688 464.605469 500.679688 480.605469 C 494.675781 456.605469 514.675781 430.605469 509.082031 408.605469 C 503.480469 386.605469 483.882812 386.605469 492.28125 408.605469 Z M 492.28125 408.605469 "/>
<path style=" stroke:none;fill-rule:evenodd;fill:rgb(99.998474%,93.72406%,0%);fill-opacity:1;" d="M 475.488281 405.960938 C 480.339844 429.003906 457.246094 459.769531 472.519531 478.390625 C 470.351562 453.746094 494.171875 431.195312 492.078125 408.589844 C 489.988281 385.984375 470.636719 382.921875 475.488281 405.960938 Z M 475.488281 405.960938 "/>
<path style=" stroke:none;fill-rule:evenodd;fill:rgb(99.998474%,93.72406%,0%);fill-opacity:1;" d="M 459.316406 400.722656 C 460.507812 424.242188 432.882812 451.015625 445.058594 471.796875 C 446.765625 447.113281 473.824219 428.570312 475.292969 405.914062 C 476.765625 383.261719 458.125 377.207031 459.316406 400.722656 Z M 459.316406 400.722656 "/>
<path style=" stroke:none;fill-rule:evenodd;fill:rgb(99.998474%,93.72406%,0%);fill-opacity:1;" d="M 444.164062 393.023438 C 441.660156 416.433594 410.183594 438.558594 418.960938 460.984375 C 424.511719 436.878906 454.136719 422.792969 459.136719 400.648438 C 464.132812 378.5 446.671875 369.605469 444.164062 393.023438 Z M 444.164062 393.023438 "/>
<path style=" stroke:none;fill-rule:evenodd;fill:rgb(99.998474%,93.72406%,0%);fill-opacity:1;" d="M 430.40625 383.042969 C 424.265625 405.777344 389.722656 422.703125 394.878906 446.230469 C 404.132812 423.285156 435.597656 414.007812 443.992188 392.914062 C 452.398438 371.828125 436.539062 360.308594 430.40625 383.042969 Z M 430.40625 383.042969 "/>
<path style=" stroke:none;fill-rule:evenodd;fill:rgb(99.998474%,93.72406%,0%);fill-opacity:1;" d="M 418.375 371.035156 C 408.753906 392.527344 371.988281 403.84375 373.398438 427.886719 C 386.128906 406.671875 418.65625 402.425781 430.253906 382.910156 C 441.851562 363.398438 427.988281 349.535156 418.375 371.035156 Z M 418.375 371.035156 "/>
<path style=" stroke:none;fill-rule:evenodd;fill:rgb(99.998474%,93.72406%,0%);fill-opacity:1;" d="M 408.367188 357.289062 C 395.507812 377.015625 357.421875 382.441406 355.058594 406.40625 C 370.949219 387.445312 403.734375 388.34375 418.242188 370.882812 C 432.75 353.417969 421.230469 337.5625 408.367188 357.289062 Z M 408.367188 357.289062 "/>
<path style=" stroke:none;fill-rule:evenodd;fill:rgb(99.998474%,93.72406%,0%);fill-opacity:1;" d="M 400.640625 342.152344 C 384.847656 359.625 346.382812 359.023438 340.296875 382.324219 C 358.960938 366.082031 391.207031 372.101562 408.265625 357.117188 C 425.324219 342.144531 416.425781 324.675781 400.640625 342.152344 Z M 400.640625 342.152344 "/>
<path style=" stroke:none;fill-rule:evenodd;fill:rgb(99.998474%,93.72406%,0%);fill-opacity:1;" d="M 395.371094 325.992188 C 377.042969 340.777344 339.144531 334.164062 329.492188 356.230469 C 350.457031 343.105469 381.367188 354.089844 400.5625 341.96875 C 419.757812 329.84375 413.695312 311.203125 395.371094 325.992188 Z M 395.371094 325.992188 "/>
<path style=" stroke:none;fill-rule:evenodd;fill:rgb(99.998474%,93.72406%,0%);fill-opacity:1;" d="M 392.695312 309.203125 C 372.28125 320.941406 335.882812 308.480469 322.894531 328.765625 C 345.664062 319.082031 374.472656 334.769531 395.324219 325.796875 C 416.175781 316.828125 413.109375 297.464844 392.695312 309.203125 Z M 392.695312 309.203125 "/>
<path style=" stroke:none;fill-rule:evenodd;fill:rgb(99.998474%,93.72406%,0%);fill-opacity:1;" d="M 392.679688 292.207031 C 370.679688 300.605469 336.679688 282.609375 320.679688 300.605469 C 344.675781 294.605469 370.679688 314.605469 392.679688 309.003906 C 414.675781 303.402344 414.675781 283.804688 392.679688 292.207031 Z M 392.679688 292.207031 "/>
<path style=" stroke:none;fill-rule:evenodd;fill:rgb(99.998474%,93.72406%,0%);fill-opacity:1;" d="M 395.324219 275.414062 C 372.28125 280.269531 341.515625 257.171875 322.894531 272.445312 C 347.539062 270.273438 370.09375 294.097656 392.695312 292.007812 C 415.300781 289.917969 418.367188 270.554688 395.324219 275.414062 Z M 395.324219 275.414062 "/>
<path style=" stroke:none;fill-rule:evenodd;fill:rgb(99.998474%,93.72406%,0%);fill-opacity:1;" d="M 400.5625 259.242188 C 377.042969 260.433594 350.269531 232.808594 329.492188 244.980469 C 354.171875 246.695312 372.714844 273.75 395.371094 275.21875 C 418.023438 276.695312 424.082031 258.050781 400.5625 259.242188 Z M 400.5625 259.242188 "/>
<path style=" stroke:none;fill-rule:evenodd;fill:rgb(99.998474%,93.72406%,0%);fill-opacity:1;" d="M 408.265625 244.089844 C 384.847656 241.585938 362.726562 210.113281 340.296875 218.886719 C 364.410156 224.4375 378.492188 254.0625 400.640625 259.058594 C 422.785156 264.058594 431.679688 246.589844 408.265625 244.089844 Z M 408.265625 244.089844 "/>
<path style=" stroke:none;fill-rule:evenodd;fill:rgb(99.998474%,93.72406%,0%);fill-opacity:1;" d="M 418.242188 230.328125 C 395.507812 224.195312 378.578125 189.648438 355.058594 194.804688 C 377.996094 204.058594 387.28125 235.515625 408.367188 243.921875 C 429.457031 252.320312 440.980469 236.464844 418.242188 230.328125 Z M 418.242188 230.328125 "/>
<path style=" stroke:none;fill-rule:evenodd;fill:rgb(99.998474%,93.72406%,0%);fill-opacity:1;" d="M 430.253906 218.296875 C 408.753906 208.679688 397.441406 171.914062 373.398438 173.324219 C 394.613281 186.054688 398.859375 218.578125 418.375 230.175781 C 437.890625 241.773438 451.746094 227.914062 430.253906 218.296875 Z M 430.253906 218.296875 "/>
<path style=" stroke:none;fill-rule:evenodd;fill:rgb(99.998474%,93.72406%,0%);fill-opacity:1;" d="M 443.992188 208.296875 C 424.265625 195.433594 418.847656 157.347656 394.878906 154.980469 C 413.835938 170.875 412.941406 203.664062 430.40625 218.167969 C 447.867188 232.675781 463.722656 221.15625 443.992188 208.296875 Z M 443.992188 208.296875 "/>
<path style=" stroke:none;fill-rule:evenodd;fill:rgb(99.998474%,93.72406%,0%);fill-opacity:1;" d="M 459.136719 200.5625 C 441.660156 184.773438 442.265625 146.308594 418.960938 140.226562 C 435.203125 158.882812 429.191406 191.128906 444.164062 208.1875 C 459.140625 225.25 476.605469 216.351562 459.136719 200.5625 Z M 459.136719 200.5625 "/>
<path style=" stroke:none;fill-rule:evenodd;fill:rgb(99.998474%,93.72406%,0%);fill-opacity:1;" d="M 475.292969 195.292969 C 460.507812 176.96875 467.117188 139.066406 445.058594 129.414062 C 458.179688 150.386719 447.191406 181.292969 459.316406 200.488281 C 471.441406 219.675781 490.082031 213.621094 475.292969 195.292969 Z M 475.292969 195.292969 "/>
<path style=" stroke:none;fill-rule:evenodd;fill:rgb(99.998474%,93.72406%,0%);fill-opacity:1;" d="M 492.078125 192.621094 C 480.339844 172.207031 492.800781 135.808594 472.519531 122.824219 C 482.203125 145.585938 466.515625 174.394531 475.488281 195.25 C 484.460938 216.105469 503.820312 213.039062 492.078125 192.621094 Z M 492.078125 192.621094 "/>
<path style=" stroke:none;fill-rule:evenodd;fill:rgb(90.979004%,6.666565%,17.64679%);fill-opacity:1;" d="M 608.679688 300.605469 C 608.679688 360.253906 560.328125 408.605469 500.679688 408.605469 C 441.035156 408.605469 392.679688 360.253906 392.679688 300.605469 C 392.679688 240.957031 441.035156 192.609375 500.679688 192.609375 C 560.328125 192.609375 608.679688 240.957031 608.679688 300.605469 Z M 608.679688 300.605469 "/>
<path style="fill:none;stroke-width:21.882977;stroke-linecap:butt;stroke-linejoin:miter;stroke:rgb(99.998474%,93.72406%,0%);stroke-opacity:1;stroke-miterlimit:4;" d="M 606.996094 298.984375 C 606.996094 357.636719 559.449219 405.183594 500.796875 405.183594 C 442.144531 405.183594 394.59375 357.636719 394.59375 298.984375 C 394.59375 240.332031 442.144531 192.785156 500.796875 192.785156 C 559.449219 192.785156 606.996094 240.332031 606.996094 298.984375 Z M 606.996094 298.984375 "/>
<path style=" stroke:none;fill-rule:evenodd;fill:rgb(99.998474%,93.72406%,0%);fill-opacity:1;" d="M 580.777344 294.707031 C 580.777344 339.429688 544.917969 375.683594 500.679688 375.683594 C 456.445312 375.683594 420.585938 339.429688 420.585938 294.707031 C 420.585938 249.984375 456.445312 213.730469 500.679688 213.730469 C 544.917969 213.730469 580.777344 249.984375 580.777344 294.707031 Z M 580.777344 294.707031 "/>
<path style=" stroke:none;fill-rule:evenodd;fill:rgb(90.979004%,6.666565%,17.64679%);fill-opacity:1;" d="M 580.777344 250.367188 C 518.21875 250.367188 467.503906 301.640625 467.503906 364.882812 C 467.503906 428.128906 518.21875 479.402344 580.777344 479.402344 L 574.371094 483.835938 C 509.386719 483.835938 456.707031 430.582031 456.707031 364.882812 C 456.707031 299.191406 509.386719 245.933594 574.371094 245.933594 Z M 580.777344 250.367188 "/>
<path style=" stroke:none;fill-rule:evenodd;fill:rgb(90.979004%,6.666565%,17.64679%);fill-opacity:1;" d="M 570.097656 242.792969 C 503.398438 242.792969 449.332031 297.457031 449.332031 364.882812 C 449.332031 432.316406 503.398438 486.976562 570.097656 486.976562 L 563.6875 491.933594 C 494.289062 491.933594 438.023438 435.046875 438.023438 364.882812 C 438.023438 294.714844 494.289062 237.835938 563.6875 237.835938 Z M 570.097656 242.792969 "/>
<path style=" stroke:none;fill-rule:evenodd;fill:rgb(90.979004%,6.666565%,17.64679%);fill-opacity:1;" d="M 559.417969 234.386719 C 488.128906 234.386719 430.335938 292.8125 430.335938 364.882812 C 430.335938 436.957031 488.128906 495.386719 559.417969 495.386719 L 553.007812 500.761719 C 478.777344 500.761719 418.609375 439.925781 418.609375 364.882812 C 418.609375 289.839844 478.777344 229.003906 553.007812 229.003906 Z M 559.417969 234.386719 "/>
<path style=" stroke:none;fill-rule:evenodd;fill:rgb(90.979004%,6.666565%,17.64679%);fill-opacity:1;" d="M 420.585938 250.367188 C 483.144531 250.367188 533.859375 301.640625 533.859375 364.882812 C 533.859375 428.128906 483.144531 479.402344 420.585938 479.402344 L 426.992188 483.835938 C 491.972656 483.835938 544.652344 430.582031 544.652344 364.882812 C 544.652344 299.191406 491.972656 245.933594 426.992188 245.933594 Z M 420.585938 250.367188 "/>
<path style=" stroke:none;fill-rule:evenodd;fill:rgb(90.979004%,6.666565%,17.64679%);fill-opacity:1;" d="M 431.265625 242.792969 C 497.957031 242.792969 552.027344 297.457031 552.027344 364.882812 C 552.027344 432.316406 497.957031 486.976562 431.265625 486.976562 L 437.671875 491.933594 C 507.074219 491.933594 563.335938 435.046875 563.335938 364.882812 C 563.335938 294.714844 507.074219 237.835938 437.671875 237.835938 Z M 431.265625 242.792969 "/>
<path style=" stroke:none;fill-rule:evenodd;fill:rgb(90.979004%,6.666565%,17.64679%);fill-opacity:1;" d="M 441.945312 234.386719 C 513.234375 234.386719 571.023438 292.8125 571.023438 364.882812 C 571.023438 436.957031 513.234375 495.386719 441.945312 495.386719 L 448.351562 500.761719 C 522.578125 500.761719 582.753906 439.925781 582.753906 364.882812 C 582.753906 289.839844 522.578125 229.003906 448.351562 229.003906 Z M 441.945312 234.386719 "/>
</g>
</svg>
