<?xml version="1.0" encoding="UTF-8"?>
<svg xmlns="http://www.w3.org/2000/svg" xmlns:xlink="http://www.w3.org/1999/xlink" viewBox="0 0 1000 667" version="1.1">
<defs>
<clipPath id="clip1">
  <path d="M 0 0 L 1000 0 L 1000 666.71875 L 0 666.71875 Z M 0 0 "/>
</clipPath>
</defs>
<g id="surface680">
<g clip-path="url(#clip1)" clip-rule="nonzero">
<path style=" stroke:none;fill-rule:evenodd;fill:rgb(92.939758%,10.980225%,14.117432%);fill-opacity:1;" d="M 0 666.667969 L 0 0 L 1000 0 L 1000 666.667969 Z M 0 666.667969 "/>
</g>
<path style=" stroke:none;fill-rule:evenodd;fill:rgb(99.998474%,99.998474%,99.998474%);fill-opacity:1;" d="M 0 166.667969 L 1000 166.667969 L 1000 500 L 0 500 Z M 0 166.667969 "/>
<path style=" stroke:none;fill-rule:evenodd;fill:rgb(0%,65.097046%,31.764221%);fill-opacity:1;" d="M 495.453125 166.667969 L 489.988281 175.773438 C 486.980469 180.78125 479.691406 188.300781 473.820312 192.464844 C 467.949219 196.632812 460.867188 202.839844 458.046875 206.257812 L 452.898438 212.460938 L 458.367188 211.027344 C 461.359375 210.234375 465.261719 208.972656 467.058594 208.210938 C 468.851562 207.449219 470.316406 207.871094 470.316406 209.160156 C 470.316406 209.199219 470.324219 209.257812 470.316406 209.289062 C 470.3125 209.367188 470.300781 209.472656 470.28125 209.550781 C 469.492188 212.765625 460.101562 220.125 452.664062 223.210938 C 445.535156 226.164062 434.964844 233.878906 433.585938 236.960938 C 433.554688 237.039062 433.527344 237.148438 433.507812 237.21875 C 433.496094 237.253906 433.476562 237.316406 433.46875 237.351562 C 433.464844 237.382812 433.46875 237.449219 433.46875 237.480469 C 433.46875 237.488281 433.46875 237.511719 433.46875 237.519531 C 433.46875 237.535156 433.46875 237.558594 433.46875 237.566406 C 433.46875 237.570312 433.46875 237.597656 433.46875 237.609375 C 433.46875 237.617188 433.464844 237.644531 433.46875 237.648438 C 433.476562 237.683594 433.496094 237.753906 433.507812 237.78125 C 433.515625 237.808594 433.535156 237.84375 433.546875 237.871094 C 433.554688 237.878906 433.578125 237.902344 433.585938 237.910156 C 433.59375 237.921875 433.613281 237.941406 433.625 237.953125 C 433.632812 237.960938 433.660156 237.996094 433.664062 238 C 433.691406 238.027344 433.75 238.058594 433.785156 238.085938 C 434.617188 238.671875 436.914062 238.757812 439.5625 238.171875 C 444.210938 237.148438 446.132812 237.785156 447.671875 240.949219 C 450.011719 245.789062 448.671875 247.976562 443.261719 247.976562 C 436.71875 247.976562 427.410156 254.539062 426.152344 260.070312 C 425.308594 263.777344 421.738281 266.804688 414.074219 270.308594 C 401.566406 276.023438 385.421875 286.933594 384.304688 290.292969 C 384.277344 290.390625 384.269531 290.519531 384.265625 290.597656 C 384.265625 295.359375 394.804688 295.027344 410.066406 289.773438 C 413.488281 288.59375 415 289.796875 417.578125 295.671875 C 420.773438 302.949219 420.722656 303.125 413.296875 312.714844 C 408.097656 319.414062 403.542969 322.863281 398.578125 323.898438 C 388.703125 325.96875 385.636719 327.976562 372.816406 340.769531 C 366.6875 346.894531 360.535156 351.960938 359.132812 352 C 358.585938 352.019531 358.222656 352.101562 358.035156 352.257812 C 358.027344 352.265625 358 352.296875 357.996094 352.304688 C 357.988281 352.3125 357.960938 352.34375 357.953125 352.351562 C 357.949219 352.355469 357.917969 352.382812 357.917969 352.390625 C 357.910156 352.398438 357.917969 352.429688 357.917969 352.433594 C 357.910156 352.441406 357.878906 352.472656 357.878906 352.480469 C 357.871094 352.488281 357.878906 352.511719 357.878906 352.519531 C 357.871094 352.527344 357.878906 352.558594 357.878906 352.566406 C 357.878906 352.570312 357.878906 352.597656 357.878906 352.609375 C 357.878906 352.625 357.871094 352.675781 357.878906 352.695312 C 357.878906 352.703125 357.871094 352.726562 357.878906 352.742188 C 357.882812 352.773438 357.902344 352.832031 357.917969 352.871094 C 357.921875 352.882812 357.941406 352.9375 357.953125 352.953125 C 357.960938 352.976562 357.980469 353.019531 357.996094 353.039062 C 359.023438 354.941406 365.789062 358.679688 369.597656 358.679688 C 372.382812 358.679688 379.167969 355.496094 384.660156 351.609375 C 394.289062 344.796875 394.773438 344.691406 398.660156 348.574219 C 400.878906 350.789062 402.714844 355.078125 402.714844 358.074219 C 402.714844 362.636719 400.261719 364.726562 387.609375 371.164062 C 378.25 375.9375 367.257812 384.128906 358.660156 392.722656 C 347.109375 404.265625 343.828125 406.394531 338.921875 405.597656 C 335.8125 405.097656 334.082031 404.890625 333.527344 405.207031 C 333.507812 405.222656 333.464844 405.242188 333.449219 405.253906 C 333.441406 405.261719 333.417969 405.285156 333.410156 405.292969 C 333.40625 405.300781 333.378906 405.332031 333.371094 405.339844 C 333.351562 405.378906 333.339844 405.460938 333.332031 405.515625 C 333.328125 406.101562 334.375 407.3125 336.242188 409.367188 C 338.015625 411.320312 342.128906 412.929688 345.371094 412.929688 C 354.210938 412.929688 382.183594 402.507812 390.796875 396.015625 C 398.796875 389.992188 406.566406 388.828125 413.015625 392.628906 C 422.988281 398.515625 406.316406 410.363281 374.902344 419.734375 C 363.351562 423.183594 353.339844 426.535156 352.058594 427.371094 C 352.039062 427.375 351.992188 427.398438 351.972656 427.410156 C 351.972656 427.414062 351.941406 427.449219 351.933594 427.453125 C 351.933594 427.460938 351.902344 427.492188 351.894531 427.492188 C 351.894531 427.5 351.902344 427.535156 351.894531 427.539062 C 351.445312 428.289062 352.109375 430.246094 353.46875 432.050781 C 356.75 436.40625 373.253906 436.613281 387.328125 432.441406 C 392.96875 430.769531 407.003906 425.089844 418.523438 419.863281 C 439.414062 410.382812 439.492188 410.402344 446.804688 414.226562 C 463.785156 423.113281 462.214844 438.664062 441.804688 464.226562 C 432.917969 475.359375 425.035156 480.324219 410.695312 483.828125 C 405.390625 485.125 394.492188 495.390625 394.492188 499.089844 C 394.492188 499.453125 394.5625 499.738281 394.648438 500 L 398.308594 500 C 399.109375 499.414062 399.929688 498.566406 400.742188 497.488281 C 405.265625 491.484375 414.375 487.472656 423.59375 487.421875 C 433.613281 487.371094 445.886719 481.867188 455.097656 473.289062 C 463.195312 465.75 471.328125 463.503906 477.480469 467.128906 C 480.886719 469.140625 483.984375 469.339844 488.097656 467.78125 C 495.417969 465.007812 499.03125 466.347656 499.03125 471.816406 C 499.03125 474.269531 501.609375 477.570312 505.128906 479.578125 C 508.496094 481.496094 514.5 486.191406 518.464844 490.027344 C 521.476562 492.949219 523.671875 494.277344 524.828125 494.277344 C 524.875 494.277344 524.949219 494.285156 524.988281 494.277344 C 525.019531 494.269531 525.078125 494.285156 525.109375 494.277344 C 525.125 494.269531 525.171875 494.238281 525.1875 494.230469 C 525.203125 494.226562 525.246094 494.199219 525.265625 494.1875 C 525.3125 494.167969 525.378906 494.132812 525.421875 494.101562 C 525.429688 494.09375 525.453125 494.0625 525.460938 494.0625 C 525.46875 494.058594 525.496094 494.023438 525.5 494.015625 C 525.507812 494.011719 525.535156 493.976562 525.539062 493.972656 C 525.546875 493.964844 525.574219 493.9375 525.578125 493.933594 C 525.589844 493.90625 525.605469 493.867188 525.617188 493.839844 C 525.625 493.820312 525.652344 493.777344 525.660156 493.757812 C 525.664062 493.738281 525.691406 493.691406 525.695312 493.671875 C 525.710938 493.640625 525.730469 493.574219 525.734375 493.542969 C 525.75 493.496094 525.730469 493.410156 525.734375 493.367188 C 525.851562 492.082031 524.855469 489.5 522.550781 485.867188 C 521.191406 483.730469 520.5 481.601562 520.703125 480.527344 C 520.714844 480.480469 520.730469 480.402344 520.742188 480.359375 C 520.75 480.339844 520.773438 480.285156 520.78125 480.265625 C 520.789062 480.261719 520.773438 480.234375 520.78125 480.226562 C 520.789062 480.222656 520.8125 480.1875 520.820312 480.183594 C 520.839844 480.144531 520.871094 480.085938 520.898438 480.050781 C 520.90625 480.046875 520.933594 480.011719 520.9375 480.007812 C 520.957031 479.992188 520.996094 479.980469 521.015625 479.964844 C 521.023438 479.960938 521.046875 479.929688 521.054688 479.921875 C 521.074219 479.914062 521.113281 479.890625 521.132812 479.875 C 522.414062 479.386719 529.1875 479.636719 536.59375 480.488281 C 549.621094 481.980469 551.203125 482.765625 558.894531 491.671875 C 562.6875 496.074219 565.808594 498.839844 568.332031 500 L 573.5625 500 C 574.675781 499.5 575.460938 498.769531 575.644531 498.046875 C 575.652344 498.027344 575.683594 497.980469 575.683594 497.960938 C 575.691406 497.929688 575.683594 497.859375 575.683594 497.832031 C 575.691406 497.8125 575.683594 497.765625 575.683594 497.746094 C 575.683594 497.726562 575.691406 497.675781 575.683594 497.65625 C 575.683594 497.65625 575.683594 497.617188 575.683594 497.617188 C 575.683594 497.601562 575.691406 497.585938 575.683594 497.570312 C 575.242188 496.074219 567.519531 488.738281 558.261719 481.007812 C 537.21875 463.441406 533.992188 457.023438 533.921875 432.703125 C 533.875 418.152344 534.5625 414.425781 537.96875 410.671875 C 543.273438 404.824219 546.183594 404.964844 559.203125 411.757812 C 569.035156 416.882812 572.097656 417.3125 594.445312 416.828125 C 618.449219 416.308594 619.152344 416.457031 631.214844 423.546875 C 637.980469 427.527344 646.242188 432.84375 649.628906 435.390625 C 657.089844 441.003906 664.675781 441.394531 666.457031 436.257812 C 668.574219 430.1875 654.382812 418.417969 627.722656 404.210938 C 601.203125 390.085938 598.433594 386.132812 610.652344 379.714844 C 617.601562 376.054688 618.085938 376.125 629.09375 382.265625 C 637.921875 387.191406 641.964844 388.253906 647.625 387.082031 L 654.855469 385.566406 L 638.933594 372.511719 C 630.171875 365.332031 621.699219 357.722656 620.089844 355.558594 C 615.4375 349.296875 606.445312 345.148438 597.589844 345.148438 C 593.441406 345.148438 589.570312 344.355469 588.507812 343.371094 C 588.476562 343.339844 588.417969 343.273438 588.390625 343.242188 C 588.386719 343.234375 588.359375 343.210938 588.351562 343.195312 C 588.339844 343.183594 588.320312 343.132812 588.3125 343.113281 C 585.820312 338.671875 593.320312 336.5625 614.230469 335.742188 C 642.402344 334.628906 646.277344 331.347656 626.855469 325.070312 C 619.101562 322.566406 607.472656 319.394531 601.015625 318 C 593.136719 316.308594 588.769531 314.460938 587.683594 312.324219 C 587.566406 312.082031 587.480469 311.796875 587.449219 311.542969 C 587.421875 311.351562 587.421875 311.125 587.449219 310.9375 C 587.546875 310.207031 587.976562 309.445312 588.703125 308.640625 C 590.027344 307.183594 596.347656 307.34375 607.109375 309.160156 C 619.171875 311.191406 625.78125 311.652344 626.972656 310.242188 C 628.214844 308.625 622.65625 304.589844 610.378906 297.800781 C 599.1875 291.609375 585.066406 281.589844 578.632812 275.246094 C 572.265625 268.964844 562.800781 261.816406 557.636719 259.375 C 550.820312 256.160156 548.613281 253.972656 549.492188 251.4375 C 551.027344 247.03125 561.75 246.984375 568.683594 251.351562 C 571.503906 253.132812 578.886719 254.5625 585.085938 254.519531 L 596.375 254.433594 L 588.898438 251.398438 C 581.4375 248.371094 561.132812 233.933594 559.5625 230.671875 C 559.53125 230.605469 559.492188 230.507812 559.480469 230.453125 C 559.480469 230.429688 559.484375 230.382812 559.480469 230.363281 C 559.480469 230.363281 559.480469 230.332031 559.480469 230.324219 C 559.484375 230.316406 559.480469 230.285156 559.480469 230.28125 C 559.484375 230.273438 559.519531 230.242188 559.519531 230.234375 C 559.53125 230.226562 559.550781 230.203125 559.5625 230.195312 C 559.5625 230.1875 559.597656 230.15625 559.601562 230.148438 C 560.429688 229.539062 565.109375 229.277344 570.730469 229.589844 L 582.019531 230.234375 L 565.773438 217.707031 C 553.859375 208.523438 546.515625 204.570312 538.125 202.785156 C 531.839844 201.453125 524.636719 199.863281 522.117188 199.277344 C 515.382812 197.695312 504.066406 185.90625 499.464844 175.644531 Z M 458.441406 229.890625 C 458.691406 229.882812 458.957031 229.890625 459.230469 229.890625 C 461.320312 229.890625 462.84375 230.402344 463.476562 231.191406 C 463.488281 231.210938 463.542969 231.257812 463.554688 231.277344 C 463.566406 231.296875 463.578125 231.347656 463.59375 231.367188 C 463.664062 231.484375 463.722656 231.628906 463.75 231.757812 C 463.757812 231.785156 463.789062 231.855469 463.789062 231.886719 C 463.796875 231.925781 463.789062 232.011719 463.789062 232.058594 C 463.789062 232.089844 463.796875 232.15625 463.789062 232.1875 C 463.789062 232.246094 463.761719 232.34375 463.75 232.402344 C 463.742188 232.441406 463.722656 232.5 463.710938 232.535156 C 463.273438 233.984375 460.917969 236.621094 458.441406 238.433594 C 456.550781 239.816406 455.421875 240.574219 454.785156 240.46875 C 454.738281 240.460938 454.667969 240.441406 454.628906 240.429688 C 454.609375 240.417969 454.570312 240.398438 454.550781 240.382812 C 454.511719 240.359375 454.460938 240.285156 454.433594 240.253906 C 454.003906 239.734375 453.921875 238.320312 453.921875 235.832031 C 453.921875 231.269531 454.757812 230.027344 458.441406 229.890625 Z M 513.230469 235.527344 C 513.28125 235.527344 513.300781 235.527344 513.347656 235.527344 C 516.542969 235.527344 518.691406 237.023438 519.128906 239.519531 C 519.667969 242.601562 518.386719 243.464844 513.347656 243.464844 C 510.515625 243.464844 508.875 243.171875 508.078125 242.375 C 507.488281 241.765625 507.375 240.847656 507.601562 239.519531 C 508.035156 237.0625 510.117188 235.574219 513.230469 235.527344 Z M 497.183594 236.875 C 499.960938 236.652344 501.074219 238.300781 501.074219 241.816406 C 501.074219 246.046875 499.460938 247.371094 491.835938 249.316406 C 487.023438 250.546875 482.617188 251.113281 481.6875 250.664062 C 481.667969 250.652344 481.628906 250.632812 481.609375 250.617188 C 481.601562 250.613281 481.574219 250.578125 481.566406 250.574219 C 478.933594 247.664062 481.242188 243.933594 487.824219 240.46875 C 492.058594 238.25 495.089844 237.039062 497.183594 236.875 Z M 534.113281 236.914062 C 538.183594 236.785156 538.699219 238.703125 536.710938 244.414062 C 536.027344 246.378906 533.191406 247.976562 530.417969 247.976562 C 526.351562 247.976562 525.488281 246.992188 526.007812 242.898438 C 526.476562 239.257812 528.269531 237.597656 532.304688 237.089844 C 532.976562 237.003906 533.574219 236.933594 534.113281 236.914062 Z M 471.816406 247.976562 C 471.953125 247.960938 472.117188 247.976562 472.246094 247.976562 C 477.183594 247.976562 474.109375 257.285156 467.765625 261.542969 C 462.117188 265.339844 456.113281 266.972656 454.433594 265.496094 C 454.421875 265.480469 454.402344 265.453125 454.394531 265.449219 C 454.285156 265.339844 454.179688 265.195312 454.113281 265.058594 C 454.109375 265.039062 454.082031 264.992188 454.074219 264.972656 C 454.066406 264.941406 454.050781 264.871094 454.035156 264.84375 C 454.03125 264.816406 454.003906 264.777344 453.996094 264.753906 C 453.992188 264.71875 454.003906 264.65625 453.996094 264.621094 C 453.992188 264.570312 453.957031 264.464844 453.957031 264.410156 C 453.957031 264.394531 453.957031 264.375 453.957031 264.363281 C 454.09375 259.277344 465.984375 248.476562 471.816406 247.976562 Z M 518.183594 269.523438 C 520.539062 269.238281 522.03125 271.816406 521.210938 276.550781 C 520.761719 279.179688 518.410156 281.003906 514.882812 281.453125 C 512.1875 281.789062 510.519531 281.671875 509.890625 280.933594 C 509.882812 280.925781 509.851562 280.890625 509.851562 280.886719 C 509.816406 280.847656 509.792969 280.796875 509.765625 280.753906 C 509.757812 280.742188 509.738281 280.683594 509.726562 280.671875 C 509.726562 280.660156 509.691406 280.632812 509.6875 280.625 C 509.675781 280.578125 509.660156 280.5 509.648438 280.449219 C 509.335938 279.191406 510.632812 276.839844 513.503906 273.035156 C 515.171875 270.832031 516.824219 269.6875 518.183594 269.523438 Z M 499.738281 270.566406 C 499.855469 270.554688 499.953125 270.566406 500.050781 270.566406 C 504.777344 270.566406 505.539062 274.726562 501.277344 277.246094 C 499.304688 278.40625 497.390625 279.269531 496.75 279.367188 C 496.730469 279.367188 496.691406 279.414062 496.671875 279.414062 C 496.652344 279.410156 496.609375 279.367188 496.59375 279.367188 C 496.238281 279.246094 493.625 278.40625 490.8125 277.460938 L 485.695312 275.722656 L 491.476562 273.125 C 494.453125 271.796875 498.027344 270.695312 499.738281 270.566406 Z M 539.503906 275.769531 C 541.730469 275.652344 544.152344 276.078125 546.503906 277.070312 C 550.773438 278.859375 551.601562 280.410156 550.789062 285.089844 C 549.6875 291.453125 546.214844 292.160156 534.347656 288.386719 C 528.523438 286.53125 527.921875 285.644531 529.785156 281.796875 C 531.566406 278.125 535.242188 275.996094 539.503906 275.769531 Z M 451.484375 277.328125 C 451.613281 277.328125 451.738281 277.328125 451.875 277.328125 C 460.507812 277.328125 461.699219 278.828125 457.5 284.355469 C 456.085938 286.203125 453.410156 289.023438 451.523438 290.597656 C 448.625 293 447.742188 292.746094 445.898438 288.953125 C 443.703125 284.433594 443.019531 281.457031 444.089844 279.675781 C 445.070312 278.074219 447.5 277.371094 451.484375 277.328125 Z M 428.75 281.148438 C 432.429688 281.046875 434.699219 282.785156 437.636719 287.824219 L 441.765625 294.933594 L 435.589844 297.316406 C 429.953125 299.484375 429.011719 299.074219 424.339844 292.507812 C 421.40625 288.367188 420.28125 285.617188 421.078125 283.878906 C 421.152344 283.722656 421.25 283.542969 421.351562 283.398438 C 421.378906 283.367188 421.445312 283.300781 421.472656 283.269531 C 421.503906 283.234375 421.558594 283.171875 421.589844 283.136719 C 422.644531 282.082031 424.765625 281.511719 428 281.230469 C 428.261719 281.210938 428.503906 281.152344 428.75 281.148438 Z M 564.753906 302.433594 C 568.839844 302.109375 573.019531 304.988281 572.421875 309.636719 C 571.660156 315.539062 565.214844 317.246094 559.914062 312.976562 C 556.75 310.421875 556.632812 309.480469 559.089844 305.773438 C 560.496094 303.660156 562.609375 302.609375 564.753906 302.433594 Z M 487.546875 313.496094 C 487.695312 313.484375 487.863281 313.496094 488.019531 313.496094 C 488.367188 313.496094 488.683594 313.566406 488.964844 313.664062 C 489.132812 313.738281 489.328125 313.820312 489.472656 313.925781 C 489.519531 313.957031 489.589844 314.023438 489.628906 314.058594 C 489.648438 314.074219 489.691406 314.128906 489.714844 314.148438 C 489.726562 314.167969 489.773438 314.210938 489.792969 314.230469 C 489.804688 314.25 489.851562 314.296875 489.871094 314.316406 C 490.496094 315.125 490.710938 316.503906 490.453125 318.390625 C 489.648438 324.480469 485.617188 326.261719 483.886719 321.300781 C 482.351562 316.867188 483.839844 313.730469 487.546875 313.496094 Z M 461.746094 318.175781 C 463.484375 317.941406 466.328125 319.09375 469.179688 321.472656 C 471.121094 323.089844 471.921875 324.660156 471.894531 325.808594 C 471.886719 325.917969 471.875 326.054688 471.855469 326.160156 C 471.839844 326.214844 471.835938 326.316406 471.816406 326.375 C 471.796875 326.421875 471.757812 326.503906 471.738281 326.550781 C 471.703125 326.613281 471.652344 326.699219 471.621094 326.765625 C 471.609375 326.785156 471.59375 326.828125 471.582031 326.847656 C 471.5625 326.867188 471.515625 326.921875 471.496094 326.941406 C 471.433594 327.019531 471.347656 327.121094 471.261719 327.199219 C 471.242188 327.214844 471.203125 327.273438 471.183594 327.285156 C 470 328.203125 467.488281 327.980469 464.617188 325.769531 C 462.246094 323.933594 460.273438 321.535156 460.097656 320.300781 C 460.089844 320.28125 460.097656 320.234375 460.097656 320.214844 C 460.089844 320.195312 460.097656 320.148438 460.097656 320.128906 C 460.097656 318.953125 460.703125 318.320312 461.746094 318.175781 Z M 502.765625 319.042969 C 503.566406 318.976562 504.402344 319.757812 505.796875 321.300781 C 507.550781 323.234375 509.609375 326.933594 510.359375 329.539062 C 512.160156 335.796875 509.316406 338.40625 503.75 335.566406 C 497.78125 332.519531 496.328125 327.6875 499.777344 322.253906 C 501.101562 320.183594 501.914062 319.121094 502.765625 319.042969 Z M 517.082031 327.546875 C 518.601562 327.335938 520.664062 329.609375 521.171875 333.441406 C 521.472656 335.675781 521.164062 337.585938 520.46875 338.171875 C 520.460938 338.171875 520.4375 338.210938 520.429688 338.210938 C 520.410156 338.230469 520.371094 338.242188 520.351562 338.253906 C 520.316406 338.269531 520.261719 338.289062 520.226562 338.300781 C 520.222656 338.300781 520.203125 338.339844 520.1875 338.339844 C 520.183594 338.347656 520.15625 338.339844 520.148438 338.339844 C 520.136719 338.347656 520.089844 338.339844 520.070312 338.339844 C 520.066406 338.339844 520.039062 338.339844 520.035156 338.339844 C 520.027344 338.339844 520 338.339844 519.992188 338.339844 C 517.070312 338.339844 515.390625 335.703125 515.390625 331.015625 C 515.390625 328.769531 516.140625 327.675781 517.082031 327.546875 Z M 427.175781 336.5625 C 430.1875 336.5625 432.832031 336.726562 434.570312 337.082031 C 437.441406 337.675781 439.347656 338.496094 440.273438 339.464844 C 440.46875 339.683594 440.644531 339.933594 440.742188 340.164062 C 440.796875 340.28125 440.832031 340.4375 440.859375 340.554688 C 440.910156 340.796875 440.90625 341.078125 440.859375 341.335938 C 440.519531 343.089844 437.996094 345.242188 433.3125 347.707031 C 429.425781 349.753906 422.859375 352.117188 418.679688 352.910156 C 411.746094 354.230469 410.796875 353.742188 407.902344 347.578125 C 406.191406 343.925781 404.796875 340.449219 404.757812 339.773438 C 404.757812 339.765625 404.757812 339.738281 404.757812 339.726562 C 404.757812 339.714844 404.753906 339.660156 404.757812 339.640625 C 404.757812 339.636719 404.792969 339.609375 404.796875 339.597656 C 404.804688 339.582031 404.824219 339.53125 404.835938 339.511719 C 404.84375 339.503906 404.871094 339.480469 404.875 339.464844 C 406.320312 337.96875 418.332031 336.574219 427.175781 336.5625 Z M 566.640625 356.855469 C 574.714844 356.503906 579.074219 361.960938 570.300781 368.738281 C 564.65625 373.097656 556.359375 373.273438 551.222656 369.128906 C 547.527344 366.148438 547.714844 365.722656 554.445312 361.191406 C 558.703125 358.332031 563.035156 357.019531 566.640625 356.855469 Z M 596.0625 363.230469 C 596.203125 363.214844 596.359375 363.234375 596.492188 363.230469 C 597.683594 363.230469 600.441406 364.636719 602.628906 366.398438 C 606.523438 369.539062 606.511719 369.746094 601.648438 375.460938 C 599.128906 378.417969 596.558594 380.734375 595.664062 380.925781 C 595.660156 380.925781 595.632812 380.925781 595.625 380.925781 C 595.617188 380.925781 595.589844 380.925781 595.585938 380.925781 C 595.578125 380.925781 595.554688 380.925781 595.546875 380.925781 C 595.539062 380.925781 595.515625 380.925781 595.507812 380.925781 C 594.855469 380.722656 591.308594 380.171875 587.644531 379.667969 C 583.566406 379.109375 580.996094 377.464844 580.996094 375.460938 C 580.996094 375.371094 581.015625 375.253906 581.035156 375.15625 C 581.679688 371.777344 591.769531 363.757812 596.0625 363.230469 Z M 448.136719 372.253906 C 448.515625 372.234375 448.957031 372.253906 449.433594 372.253906 C 454.988281 372.253906 458.046875 376.824219 458.046875 385.128906 C 458.046875 396.296875 451.242188 395.398438 448.097656 383.828125 C 445.363281 373.757812 445.089844 372.421875 448.136719 372.253906 Z M 490.417969 375.417969 C 493.761719 375.3125 501.867188 377.183594 502.921875 378.449219 C 502.929688 378.457031 502.960938 378.488281 502.960938 378.496094 C 502.96875 378.503906 503 378.535156 503 378.542969 C 503.007812 378.546875 503 378.574219 503 378.578125 C 503.007812 378.585938 503.039062 378.621094 503.039062 378.625 C 503.046875 378.632812 503.039062 378.664062 503.039062 378.671875 C 503.046875 378.679688 503.039062 378.703125 503.039062 378.710938 C 503.039062 378.714844 503.046875 378.75 503.039062 378.757812 C 502.9375 379.621094 500.769531 383.136719 498.164062 386.648438 L 493.367188 393.113281 L 490.851562 384.785156 C 489.609375 380.632812 488.839844 376.894531 489.003906 375.9375 C 489.003906 375.933594 489.003906 375.90625 489.003906 375.890625 C 489.003906 375.878906 489.035156 375.867188 489.042969 375.851562 C 489.042969 375.847656 489.035156 375.8125 489.042969 375.808594 C 489.050781 375.800781 489.074219 375.773438 489.082031 375.761719 C 489.089844 375.753906 489.109375 375.730469 489.121094 375.722656 C 489.128906 375.714844 489.152344 375.683594 489.160156 375.675781 C 489.167969 375.671875 489.191406 375.683594 489.199219 375.675781 C 489.203125 375.671875 489.230469 375.636719 489.238281 375.632812 C 489.25 375.625 489.296875 375.597656 489.316406 375.589844 C 489.5625 375.496094 489.953125 375.429688 490.417969 375.417969 Z M 469.851562 379.101562 C 470.453125 379.042969 471.40625 379.199219 472.722656 379.410156 C 475.359375 379.816406 477.78125 382.011719 478.183594 384.347656 C 478.679688 387.1875 478.40625 389.171875 477.714844 390.203125 C 477.664062 390.28125 477.578125 390.398438 477.519531 390.460938 C 477.449219 390.539062 477.355469 390.617188 477.285156 390.683594 C 477.253906 390.703125 477.191406 390.75 477.160156 390.769531 C 477.023438 390.859375 476.847656 390.941406 476.691406 390.984375 C 476.628906 391.003906 476.523438 391.023438 476.457031 391.027344 C 476.339844 391.042969 476.183594 391.042969 476.0625 391.027344 C 474.691406 390.851562 472.921875 389.160156 471.378906 385.867188 C 469.601562 382.078125 468.789062 380.28125 469.101562 379.539062 C 469.128906 379.484375 469.179688 379.410156 469.21875 379.363281 C 469.355469 379.230469 469.5625 379.132812 469.851562 379.101562 Z M 469.851562 379.101562 "/>
</g>
</svg>
