<?xml version="1.0" encoding="UTF-8"?>
<svg xmlns="http://www.w3.org/2000/svg" xmlns:xlink="http://www.w3.org/1999/xlink" viewBox="0 0 1000 667" version="1.1">
<defs>
<clipPath id="clip1">
  <path d="M 0 0 L 1000 0 L 1000 666.71875 L 0 666.71875 Z M 0 0 "/>
</clipPath>
<clipPath id="clip2">
  <path d="M 0 466 L 1000 466 L 1000 666.71875 L 0 666.71875 Z M 0 466 "/>
</clipPath>
</defs>
<g id="surface685">
<g clip-path="url(#clip1)" clip-rule="nonzero">
<path style=" stroke:none;fill-rule:evenodd;fill:rgb(99.998474%,99.998474%,99.998474%);fill-opacity:1;" d="M 0 666.667969 L 0 0 L 1000 0 L 1000 666.667969 Z M 0 666.667969 "/>
</g>
<g clip-path="url(#clip2)" clip-rule="nonzero">
<path style=" stroke:none;fill-rule:evenodd;fill:rgb(0%,58.430481%,26.274109%);fill-opacity:1;" d="M 0 466.667969 L 1000 466.667969 L 1000 666.667969 L 0 666.667969 Z M 0 466.667969 "/>
</g>
<path style=" stroke:none;fill-rule:evenodd;fill:rgb(0%,12.548828%,62.35199%);fill-opacity:1;" d="M 0 0 L 1000 0 L 1000 200 L 0 200 Z M 0 0 "/>
<path style="fill-rule:evenodd;fill:rgb(0%,0%,0%);fill-opacity:1;stroke-width:2.222221;stroke-linecap:butt;stroke-linejoin:miter;stroke:rgb(0%,0%,0%);stroke-opacity:1;stroke-miterlimit:4;" d="M 499.472656 212.375 C 495.675781 212.457031 491.972656 216.667969 491.972656 216.667969 L 492.296875 261.625 L 478.101562 276.496094 L 489.59375 276.496094 L 489.496094 302.285156 L 421.515625 393.820312 L 411.464844 390.347656 L 393.902344 427.816406 C 393.902344 427.816406 437.34375 455.019531 500.402344 454.273438 C 569.605469 453.457031 607.210938 426.5625 607.210938 426.5625 L 589.058594 389.578125 L 580.171875 393.441406 L 511.320312 302.375 L 511.226562 275.824219 L 522.714844 275.824219 L 507.074219 261.140625 L 507.167969 216.339844 C 507.167969 216.339844 503.277344 212.292969 499.472656 212.375 Z M 499.472656 212.375 "/>
<path style="fill:none;stroke-width:11.111114;stroke-linecap:butt;stroke-linejoin:miter;stroke:rgb(0%,0%,0%);stroke-opacity:1;stroke-miterlimit:4;" d="M 523.179688 320.019531 L 476.171875 320.019531 C 476.171875 320.019531 459.109375 284.070312 461.875 258.941406 C 464.691406 233.351562 479.3125 221.246094 498.757812 221.035156 C 521.75 220.773438 533.792969 232.296875 537.433594 257.914062 C 541.042969 283.304688 523.179688 320.019531 523.179688 320.019531 Z M 523.179688 320.019531 "/>
<path style=" stroke:none;fill-rule:evenodd;fill:rgb(99.998474%,99.998474%,99.998474%);fill-opacity:1;" d="M 417.308594 405.710938 C 416.535156 406.734375 410.90625 418.007812 410.90625 418.007812 L 420.636719 415.957031 Z M 417.308594 405.710938 "/>
<path style=" stroke:none;fill-rule:evenodd;fill:rgb(99.998474%,99.998474%,99.998474%);fill-opacity:1;" d="M 422.945312 420.3125 L 412.695312 423.640625 L 424.988281 428.503906 Z M 422.945312 420.3125 "/>
<path style=" stroke:none;fill-rule:evenodd;fill:rgb(99.998474%,99.998474%,99.998474%);fill-opacity:1;" d="M 427.550781 405.96875 L 432.675781 421.078125 L 445.226562 417.492188 L 441.894531 410.320312 Z M 427.550781 405.96875 "/>
<path style=" stroke:none;fill-rule:evenodd;fill:rgb(99.998474%,99.998474%,99.998474%);fill-opacity:1;" d="M 435.492188 426.460938 L 437.285156 432.605469 L 453.933594 436.703125 L 447.277344 422.617188 Z M 435.492188 426.460938 "/>
<path style=" stroke:none;fill-rule:evenodd;fill:rgb(99.998474%,99.998474%,99.998474%);fill-opacity:1;" d="M 453.933594 413.648438 L 459.824219 427.742188 L 472.375 422.875 L 468.277344 416.726562 Z M 453.933594 413.648438 "/>
<path style=" stroke:none;fill-rule:evenodd;fill:rgb(99.998474%,99.998474%,99.998474%);fill-opacity:1;" d="M 462.128906 432.859375 L 464.183594 438.238281 L 483.648438 441.058594 L 475.449219 428.25 Z M 462.128906 432.859375 "/>
<path style=" stroke:none;fill-rule:evenodd;fill:rgb(99.998474%,99.998474%,99.998474%);fill-opacity:1;" d="M 480.828125 417.746094 L 488 430.300781 L 506.183594 423.640625 L 504.140625 418.773438 Z M 480.828125 417.746094 "/>
<path style=" stroke:none;fill-rule:evenodd;fill:rgb(99.998474%,99.998474%,99.998474%);fill-opacity:1;" d="M 491.332031 434.914062 L 495.171875 441.570312 L 517.714844 440.804688 L 509.261719 428.25 Z M 491.332031 434.914062 "/>
<path style=" stroke:none;fill-rule:evenodd;fill:rgb(99.998474%,99.998474%,99.998474%);fill-opacity:1;" d="M 515.152344 418.261719 L 521.300781 428.765625 L 535.644531 421.847656 L 531.804688 416.210938 Z M 515.152344 418.261719 "/>
<path style=" stroke:none;fill-rule:evenodd;fill:rgb(99.998474%,99.998474%,99.998474%);fill-opacity:1;" d="M 538.714844 426.199219 L 524.375 433.371094 L 528.214844 439.523438 L 547.429688 436.445312 Z M 538.714844 426.199219 "/>
<path style=" stroke:none;fill-rule:evenodd;fill:rgb(99.998474%,99.998474%,99.998474%);fill-opacity:1;" d="M 543.328125 415.1875 L 550.753906 424.410156 L 562.792969 414.929688 L 558.695312 410.578125 Z M 543.328125 415.1875 "/>
<path style=" stroke:none;fill-rule:evenodd;fill:rgb(99.998474%,99.998474%,99.998474%);fill-opacity:1;" d="M 565.355469 420.054688 L 553.832031 428.765625 L 556.902344 434.140625 L 572.785156 430.046875 Z M 565.355469 420.054688 "/>
<path style=" stroke:none;fill-rule:evenodd;fill:rgb(99.998474%,99.998474%,99.998474%);fill-opacity:1;" d="M 581.238281 401.867188 L 584.054688 405.96875 L 576.113281 417.746094 L 567.917969 407.25 Z M 581.238281 401.867188 "/>
<path style=" stroke:none;fill-rule:evenodd;fill:rgb(99.998474%,99.998474%,99.998474%);fill-opacity:1;" d="M 586.617188 412.117188 L 591.480469 421.847656 L 581.75 425.179688 L 580.980469 420.566406 Z M 586.617188 412.117188 "/>
</g>
</svg>
