<?xml version="1.0" encoding="UTF-8"?>
<svg xmlns="http://www.w3.org/2000/svg" xmlns:xlink="http://www.w3.org/1999/xlink" viewBox="0 0 1000 526" version="1.1">
<g id="surface690">
<rect x="0" y="0" width="1000" height="526" style="fill:rgb(74.900818%,3.921509%,18.823242%);fill-opacity:1;stroke:none;"/>
<path style=" stroke:none;fill-rule:evenodd;fill:rgb(0%,0%,0%);fill-opacity:1;" d="M 0 71.769531 L 1000 71.769531 Z M 0 167.464844 L 1000 167.464844 Z M 0 263.15625 L 1000 263.15625 Z M 0 358.851562 L 1000 358.851562 Z M 0 454.546875 L 1000 454.546875 Z M 0 454.546875 "/>
<path style="fill:none;stroke-width:47.84689;stroke-linecap:butt;stroke-linejoin:miter;stroke:rgb(99.998474%,99.998474%,99.998474%);stroke-opacity:1;stroke-miterlimit:4;" d="M 0 71.769531 L 1000 71.769531 "/>
<path style="fill:none;stroke-width:47.84689;stroke-linecap:butt;stroke-linejoin:miter;stroke:rgb(99.998474%,99.998474%,99.998474%);stroke-opacity:1;stroke-miterlimit:4;" d="M 0 167.464844 L 1000 167.464844 "/>
<path style="fill:none;stroke-width:47.84689;stroke-linecap:butt;stroke-linejoin:miter;stroke:rgb(99.998474%,99.998474%,99.998474%);stroke-opacity:1;stroke-miterlimit:4;" d="M 0 263.15625 L 1000 263.15625 "/>
<path style="fill:none;stroke-width:47.84689;stroke-linecap:butt;stroke-linejoin:miter;stroke:rgb(99.998474%,99.998474%,99.998474%);stroke-opacity:1;stroke-miterlimit:4;" d="M 0 358.851562 L 1000 358.851562 "/>
<path style="fill:none;stroke-width:47.84689;stroke-linecap:butt;stroke-linejoin:miter;stroke:rgb(99.998474%,99.998474%,99.998474%);stroke-opacity:1;stroke-miterlimit:4;" d="M 0 454.546875 L 1000 454.546875 "/>
<path style=" stroke:none;fill-rule:evenodd;fill:rgb(0%,15.686035%,40.783691%);fill-opacity:1;" d="M 0 0 L 239.238281 0 L 239.238281 239.238281 L 0 239.238281 Z M 0 0 "/>
<path style=" stroke:none;fill-rule:evenodd;fill:rgb(99.998474%,99.998474%,99.998474%);fill-opacity:1;" d="M 119.617188 47.847656 L 97.4375 116.105469 L 131.566406 127.191406 Z M 119.617188 47.847656 "/>
<path style=" stroke:none;fill-rule:evenodd;fill:rgb(99.998474%,99.998474%,99.998474%);fill-opacity:1;" d="M 119.617188 47.847656 L 141.792969 116.105469 L 107.664062 127.191406 Z M 119.617188 47.847656 "/>
<path style=" stroke:none;fill-rule:evenodd;fill:rgb(99.998474%,99.998474%,99.998474%);fill-opacity:1;" d="M 187.878906 97.4375 L 116.105469 97.4375 L 116.105469 133.324219 Z M 187.878906 97.4375 "/>
<path style=" stroke:none;fill-rule:evenodd;fill:rgb(99.998474%,99.998474%,99.998474%);fill-opacity:1;" d="M 187.878906 97.4375 L 129.808594 139.621094 L 108.71875 110.589844 Z M 187.878906 97.4375 "/>
<path style=" stroke:none;fill-rule:evenodd;fill:rgb(99.998474%,99.998474%,99.998474%);fill-opacity:1;" d="M 51.359375 97.4375 L 109.421875 139.621094 L 130.515625 110.589844 Z M 51.359375 97.4375 "/>
<path style=" stroke:none;fill-rule:evenodd;fill:rgb(99.998474%,99.998474%,99.998474%);fill-opacity:1;" d="M 51.359375 97.4375 L 123.128906 97.4375 L 123.128906 133.324219 Z M 51.359375 97.4375 "/>
<path style=" stroke:none;fill-rule:evenodd;fill:rgb(99.998474%,99.998474%,99.998474%);fill-opacity:1;" d="M 161.800781 177.679688 L 139.621094 109.421875 L 105.496094 120.511719 Z M 161.800781 177.679688 "/>
<path style=" stroke:none;fill-rule:evenodd;fill:rgb(99.998474%,99.998474%,99.998474%);fill-opacity:1;" d="M 161.800781 177.679688 L 103.738281 135.492188 L 124.832031 106.460938 Z M 161.800781 177.679688 "/>
<path style=" stroke:none;fill-rule:evenodd;fill:rgb(99.998474%,99.998474%,99.998474%);fill-opacity:1;" d="M 77.429688 177.679688 L 135.492188 135.492188 L 114.402344 106.460938 Z M 77.429688 177.679688 "/>
<path style=" stroke:none;fill-rule:evenodd;fill:rgb(99.998474%,99.998474%,99.998474%);fill-opacity:1;" d="M 77.429688 177.679688 L 99.609375 109.421875 L 133.738281 120.511719 Z M 77.429688 177.679688 "/>
</g>
</svg>
