<?xml version="1.0" encoding="UTF-8"?>
<svg xmlns="http://www.w3.org/2000/svg" xmlns:xlink="http://www.w3.org/1999/xlink" viewBox="0 0 1000 500" version="1.1">
<g id="surface695">
<rect x="0" y="0" width="1000" height="500" style="fill:rgb(13.725281%,61.959839%,27.450562%);fill-opacity:1;stroke:none;"/>
<path style=" stroke:none;fill-rule:evenodd;fill:rgb(0%,0%,0%);fill-opacity:1;" d="M 0 0 L 1000 0 L 1000 375 L 0 375 Z M 0 0 "/>
<path style=" stroke:none;fill-rule:evenodd;fill:rgb(90.586853%,0%,7.450867%);fill-opacity:1;" d="M 0 0 L 1000 0 L 1000 125 L 0 125 Z M 0 0 "/>
<path style=" stroke:none;fill-rule:evenodd;fill:rgb(99.998474%,99.998474%,99.998474%);fill-opacity:1;" d="M 544.199219 205.800781 C 536.132812 200.042969 526.460938 196.558594 516.574219 195.839844 C 506.683594 195.128906 496.617188 197.1875 487.800781 201.722656 C 478.988281 206.261719 471.460938 213.265625 466.296875 221.730469 C 461.136719 230.191406 458.359375 240.085938 458.359375 250 C 458.359375 259.914062 461.136719 269.808594 466.296875 278.269531 C 471.460938 286.734375 478.988281 293.738281 487.800781 298.277344 C 496.617188 302.8125 506.683594 304.871094 516.574219 304.160156 C 526.460938 303.441406 536.132812 299.957031 544.199219 294.199219 C 535.523438 302.875 524.234375 308.90625 512.199219 311.296875 C 500.160156 313.691406 487.425781 312.4375 476.089844 307.738281 C 464.757812 303.042969 454.863281 294.925781 448.046875 284.722656 C 441.230469 274.515625 437.515625 262.269531 437.515625 250 C 437.515625 237.730469 441.230469 225.484375 448.046875 215.277344 C 454.863281 205.074219 464.757812 196.957031 476.089844 192.261719 C 487.425781 187.5625 500.160156 186.308594 512.199219 188.703125 C 524.234375 191.09375 535.523438 197.125 544.199219 205.800781 Z M 544.199219 205.800781 "/>
<path style="fill-rule:nonzero;fill:rgb(99.998474%,99.998474%,99.998474%);fill-opacity:1;stroke-width:1;stroke-linecap:square;stroke-linejoin:miter;stroke:rgb(99.998474%,99.998474%,99.998474%);stroke-opacity:1;stroke-miterlimit:3.239307;" d="M 562.5 260.417969 L 562.5 294.199219 L 582.375 266.871094 L 614.503906 277.300781 L 594.648438 250 L 614.503906 222.699219 L 582.375 233.128906 L 562.5 205.800781 L 562.5 239.582031 L 530.398438 250 Z M 562.5 260.417969 "/>
</g>
</svg>
