<?xml version="1.0" encoding="UTF-8"?>
<svg xmlns="http://www.w3.org/2000/svg" xmlns:xlink="http://www.w3.org/1999/xlink" viewBox="0 0 1000 600" version="1.1">
<g id="surface700">
<rect x="0" y="0" width="1000" height="600" style="fill:rgb(0%,16.862488%,49.803162%);fill-opacity:1;stroke:none;"/>
<path style=" stroke:none;fill-rule:evenodd;fill:rgb(80.783081%,6.666565%,14.901733%);fill-opacity:1;" d="M 0 300 L 1000 300 L 1000 600 L 0 600 Z M 0 300 "/>
<path style=" stroke:none;fill-rule:evenodd;fill:rgb(99.998474%,84.70459%,23.921204%);fill-opacity:1;" d="M 216.378906 122.289062 L 214.542969 184.789062 L 151.117188 184.789062 C 143.316406 169.617188 136.875 156.738281 136.875 139.292969 C 136.875 124.691406 148.355469 113.097656 164.90625 113.097656 C 182.425781 113.097656 201.675781 119 216.378906 122.289062 Z M 216.378906 122.289062 "/>
<path style="fill:none;stroke-width:1.5;stroke-linecap:butt;stroke-linejoin:miter;stroke:rgb(0%,0%,0%);stroke-opacity:1;stroke-miterlimit:4;" d="M 144.457031 125.160156 L 144.457031 161.234375 "/>
<path style="fill:none;stroke-width:1.5;stroke-linecap:butt;stroke-linejoin:miter;stroke:rgb(0%,0%,0%);stroke-opacity:1;stroke-miterlimit:4;" d="M 149.550781 121.480469 L 149.550781 169.511719 "/>
<path style="fill:none;stroke-width:1.5;stroke-linecap:butt;stroke-linejoin:miter;stroke:rgb(0%,0%,0%);stroke-opacity:1;stroke-miterlimit:4;" d="M 154.644531 118.949219 L 154.644531 176.175781 "/>
<path style="fill:none;stroke-width:1.5;stroke-linecap:butt;stroke-linejoin:miter;stroke:rgb(0%,0%,0%);stroke-opacity:1;stroke-miterlimit:4;" d="M 159.734375 117.769531 L 159.734375 162.652344 "/>
<path style="fill:none;stroke-width:1.5;stroke-linecap:butt;stroke-linejoin:miter;stroke:rgb(0%,0%,0%);stroke-opacity:1;stroke-miterlimit:4;" d="M 164.828125 117.546875 L 164.828125 162.875 "/>
<path style="fill:none;stroke-width:1.5;stroke-linecap:butt;stroke-linejoin:miter;stroke:rgb(0%,0%,0%);stroke-opacity:1;stroke-miterlimit:4;" d="M 169.921875 115.964844 L 169.921875 162.851562 "/>
<path style="fill:none;stroke-width:1.5;stroke-linecap:butt;stroke-linejoin:miter;stroke:rgb(0%,0%,0%);stroke-opacity:1;stroke-miterlimit:4;" d="M 175.015625 115.964844 L 175.015625 162.851562 "/>
<path style="fill:none;stroke-width:1.5;stroke-linecap:butt;stroke-linejoin:miter;stroke:rgb(0%,0%,0%);stroke-opacity:1;stroke-miterlimit:4;" d="M 180.113281 116.425781 L 180.113281 163.308594 "/>
<path style="fill:none;stroke-width:1.5;stroke-linecap:butt;stroke-linejoin:miter;stroke:rgb(0%,0%,0%);stroke-opacity:1;stroke-miterlimit:4;" d="M 185.203125 116.886719 L 185.203125 163.769531 "/>
<path style="fill:none;stroke-width:1.5;stroke-linecap:butt;stroke-linejoin:miter;stroke:rgb(0%,0%,0%);stroke-opacity:1;stroke-miterlimit:4;" d="M 190.296875 119.871094 L 190.296875 166.757812 "/>
<path style="fill:none;stroke-width:1.5;stroke-linecap:butt;stroke-linejoin:miter;stroke:rgb(0%,0%,0%);stroke-opacity:1;stroke-miterlimit:4;" d="M 195.390625 120.332031 L 195.390625 173.1875 "/>
<path style="fill:none;stroke-width:1.5;stroke-linecap:butt;stroke-linejoin:miter;stroke:rgb(0%,0%,0%);stroke-opacity:1;stroke-miterlimit:4;" d="M 200.484375 120.332031 L 200.484375 167.214844 "/>
<path style="fill:none;stroke-width:1.5;stroke-linecap:butt;stroke-linejoin:miter;stroke:rgb(0%,0%,0%);stroke-opacity:1;stroke-miterlimit:4;" d="M 205.578125 120.332031 L 205.578125 167.214844 "/>
<path style="fill-rule:evenodd;fill:rgb(0%,0%,0%);fill-opacity:1;stroke-width:1.5;stroke-linecap:butt;stroke-linejoin:miter;stroke:rgb(0%,0%,0%);stroke-opacity:1;stroke-miterlimit:4;" d="M 176.394531 117.925781 C 187.160156 119.699219 210.800781 130.761719 208.105469 145.726562 C 204.28125 166.933594 191.898438 158.421875 175.480469 155.375 L 163.066406 159.511719 C 158.628906 164.042969 152.089844 168.199219 147.671875 162.730469 L 140.324219 162.730469 L 140.324219 191.449219 L 221.660156 191.449219 L 221.660156 122.058594 Z M 176.394531 117.925781 "/>
<path style="fill-rule:evenodd;fill:rgb(99.998474%,84.70459%,23.921204%);fill-opacity:1;stroke-width:2;stroke-linecap:butt;stroke-linejoin:miter;stroke:rgb(0%,0%,0%);stroke-opacity:1;stroke-miterlimit:4;" d="M 217.753906 112.984375 C 217.753906 115.710938 215.542969 117.925781 212.816406 117.925781 C 210.085938 117.925781 207.875 115.710938 207.875 112.984375 C 207.875 110.253906 210.085938 108.042969 212.816406 108.042969 C 215.542969 108.042969 217.753906 110.253906 217.753906 112.984375 Z M 217.753906 112.984375 "/>
<path style="fill-rule:evenodd;fill:rgb(99.998474%,84.70459%,23.921204%);fill-opacity:1;stroke-width:2;stroke-linecap:butt;stroke-linejoin:miter;stroke:rgb(0%,0%,0%);stroke-opacity:1;stroke-miterlimit:4;" d="M 206.65625 110.3125 C 206.65625 113.039062 204.445312 115.25 201.714844 115.25 C 198.984375 115.25 196.773438 113.039062 196.773438 110.3125 C 196.773438 107.582031 198.984375 105.371094 201.714844 105.371094 C 204.445312 105.371094 206.65625 107.582031 206.65625 110.3125 Z M 206.65625 110.3125 "/>
<path style="fill-rule:evenodd;fill:rgb(99.998474%,84.70459%,23.921204%);fill-opacity:1;stroke-width:2;stroke-linecap:butt;stroke-linejoin:miter;stroke:rgb(0%,0%,0%);stroke-opacity:1;stroke-miterlimit:4;" d="M 195.390625 107.480469 C 195.390625 110.210938 193.179688 112.421875 190.449219 112.421875 C 187.71875 112.421875 185.507812 110.210938 185.507812 107.480469 C 185.507812 104.75 187.71875 102.542969 190.449219 102.542969 C 193.179688 102.542969 195.390625 104.75 195.390625 107.480469 Z M 195.390625 107.480469 "/>
<path style="fill-rule:evenodd;fill:rgb(99.998474%,84.70459%,23.921204%);fill-opacity:1;stroke-width:2;stroke-linecap:butt;stroke-linejoin:miter;stroke:rgb(0%,0%,0%);stroke-opacity:1;stroke-miterlimit:4;" d="M 184.082031 105.597656 C 184.082031 108.324219 181.871094 110.539062 179.140625 110.539062 C 176.417969 110.539062 174.203125 108.324219 174.203125 105.597656 C 174.203125 102.867188 176.417969 100.652344 179.140625 100.652344 C 181.871094 100.652344 184.082031 102.867188 184.082031 105.597656 Z M 184.082031 105.597656 "/>
<path style="fill-rule:evenodd;fill:rgb(99.998474%,84.70459%,23.921204%);fill-opacity:1;stroke-width:2;stroke-linecap:butt;stroke-linejoin:miter;stroke:rgb(0%,0%,0%);stroke-opacity:1;stroke-miterlimit:4;" d="M 172.777344 104.484375 C 172.777344 107.207031 170.566406 109.417969 167.835938 109.417969 C 165.109375 109.417969 162.894531 107.207031 162.894531 104.484375 C 162.894531 101.753906 165.109375 99.542969 167.835938 99.542969 C 170.566406 99.542969 172.777344 101.753906 172.777344 104.484375 Z M 172.777344 104.484375 "/>
<path style="fill-rule:evenodd;fill:rgb(99.998474%,84.70459%,23.921204%);fill-opacity:1;stroke-width:2;stroke-linecap:butt;stroke-linejoin:miter;stroke:rgb(0%,0%,0%);stroke-opacity:1;stroke-miterlimit:4;" d="M 161.691406 105.113281 C 161.691406 107.839844 159.476562 110.054688 156.746094 110.054688 C 154.019531 110.054688 151.804688 107.839844 151.804688 105.113281 C 151.804688 102.382812 154.019531 100.171875 156.746094 100.171875 C 159.476562 100.171875 161.691406 102.382812 161.691406 105.113281 Z M 161.691406 105.113281 "/>
<path style="fill-rule:evenodd;fill:rgb(99.998474%,84.70459%,23.921204%);fill-opacity:1;stroke-width:2;stroke-linecap:butt;stroke-linejoin:miter;stroke:rgb(0%,0%,0%);stroke-opacity:1;stroke-miterlimit:4;" d="M 151.117188 108.730469 C 151.117188 111.460938 148.90625 113.671875 146.179688 113.671875 C 143.453125 113.671875 141.238281 111.460938 141.238281 108.730469 C 141.238281 106 143.453125 103.789062 146.179688 103.789062 C 148.90625 103.789062 151.117188 106 151.117188 108.730469 Z M 151.117188 108.730469 "/>
<path style="fill-rule:evenodd;fill:rgb(99.998474%,84.70459%,23.921204%);fill-opacity:1;stroke-width:2;stroke-linecap:butt;stroke-linejoin:miter;stroke:rgb(0%,0%,0%);stroke-opacity:1;stroke-miterlimit:4;" d="M 142.214844 115.277344 C 142.214844 118.007812 140.003906 120.21875 137.273438 120.21875 C 134.546875 120.21875 132.332031 118.007812 132.332031 115.277344 C 132.332031 112.554688 134.546875 110.339844 137.273438 110.339844 C 140.003906 110.339844 142.214844 112.554688 142.214844 115.277344 Z M 142.214844 115.277344 "/>
<path style="fill-rule:evenodd;fill:rgb(99.998474%,84.70459%,23.921204%);fill-opacity:1;stroke-width:2;stroke-linecap:butt;stroke-linejoin:miter;stroke:rgb(0%,0%,0%);stroke-opacity:1;stroke-miterlimit:4;" d="M 135.898438 124.414062 C 135.898438 127.144531 133.6875 129.355469 130.957031 129.355469 C 128.226562 129.355469 126.015625 127.144531 126.015625 124.414062 C 126.015625 121.683594 128.226562 119.472656 130.957031 119.472656 C 133.6875 119.472656 135.898438 121.683594 135.898438 124.414062 Z M 135.898438 124.414062 "/>
<path style="fill-rule:evenodd;fill:rgb(99.998474%,84.70459%,23.921204%);fill-opacity:1;stroke-width:2;stroke-linecap:butt;stroke-linejoin:miter;stroke:rgb(0%,0%,0%);stroke-opacity:1;stroke-miterlimit:4;" d="M 132.851562 135.15625 C 132.851562 137.886719 130.640625 140.097656 127.910156 140.097656 C 125.183594 140.097656 122.972656 137.886719 122.972656 135.15625 C 122.972656 132.425781 125.183594 130.214844 127.910156 130.214844 C 130.640625 130.214844 132.851562 132.425781 132.851562 135.15625 Z M 132.851562 135.15625 "/>
<path style="fill-rule:evenodd;fill:rgb(99.998474%,84.70459%,23.921204%);fill-opacity:1;stroke-width:2;stroke-linecap:butt;stroke-linejoin:miter;stroke:rgb(0%,0%,0%);stroke-opacity:1;stroke-miterlimit:4;" d="M 132.96875 146.296875 C 132.96875 149.027344 130.757812 151.238281 128.027344 151.238281 C 125.296875 151.238281 123.085938 149.027344 123.085938 146.296875 C 123.085938 143.574219 125.296875 141.363281 128.027344 141.363281 C 130.757812 141.363281 132.96875 143.574219 132.96875 146.296875 Z M 132.96875 146.296875 "/>
<path style="fill-rule:evenodd;fill:rgb(99.998474%,84.70459%,23.921204%);fill-opacity:1;stroke-width:2;stroke-linecap:butt;stroke-linejoin:miter;stroke:rgb(0%,0%,0%);stroke-opacity:1;stroke-miterlimit:4;" d="M 135.09375 157.214844 C 135.09375 159.941406 132.882812 162.152344 130.152344 162.152344 C 127.421875 162.152344 125.210938 159.941406 125.210938 157.214844 C 125.210938 154.488281 127.421875 152.273438 130.152344 152.273438 C 132.882812 152.273438 135.09375 154.488281 135.09375 157.214844 Z M 135.09375 157.214844 "/>
<path style="fill-rule:evenodd;fill:rgb(99.998474%,84.70459%,23.921204%);fill-opacity:1;stroke-width:2;stroke-linecap:butt;stroke-linejoin:miter;stroke:rgb(0%,0%,0%);stroke-opacity:1;stroke-miterlimit:4;" d="M 215 119.53125 L 214.542969 125.964844 C 202.246094 124.082031 184.824219 117.230469 168.582031 117.230469 C 153.574219 117.230469 141.929688 123.238281 141.929688 138.375 C 141.929688 153.292969 148.246094 166.859375 156.636719 180.652344 L 147.898438 184.789062 C 140.101562 169.617188 133.65625 156.738281 133.65625 139.292969 C 133.65625 124.691406 145.140625 110.339844 164.90625 110.339844 C 182.425781 110.339844 200.296875 116.246094 215 119.53125 Z M 215 119.53125 "/>
<path style=" stroke:none;fill-rule:evenodd;fill:rgb(99.998474%,84.70459%,23.921204%);fill-opacity:1;" d="M 227.558594 122.289062 L 229.398438 184.789062 L 292.816406 184.789062 C 300.621094 169.617188 307.066406 156.738281 307.066406 139.292969 C 307.066406 124.691406 295.582031 113.097656 279.035156 113.097656 C 261.515625 113.097656 242.261719 119 227.558594 122.289062 Z M 227.558594 122.289062 "/>
<path style="fill:none;stroke-width:1.5;stroke-linecap:butt;stroke-linejoin:miter;stroke:rgb(0%,0%,0%);stroke-opacity:1;stroke-miterlimit:4;" d="M 299.484375 125.160156 L 299.484375 161.234375 "/>
<path style="fill:none;stroke-width:1.5;stroke-linecap:butt;stroke-linejoin:miter;stroke:rgb(0%,0%,0%);stroke-opacity:1;stroke-miterlimit:4;" d="M 294.390625 121.480469 L 294.390625 169.511719 "/>
<path style="fill:none;stroke-width:1.5;stroke-linecap:butt;stroke-linejoin:miter;stroke:rgb(0%,0%,0%);stroke-opacity:1;stroke-miterlimit:4;" d="M 289.296875 118.949219 L 289.296875 176.175781 "/>
<path style="fill:none;stroke-width:1.5;stroke-linecap:butt;stroke-linejoin:miter;stroke:rgb(0%,0%,0%);stroke-opacity:1;stroke-miterlimit:4;" d="M 284.199219 117.769531 L 284.199219 162.652344 "/>
<path style="fill:none;stroke-width:1.5;stroke-linecap:butt;stroke-linejoin:miter;stroke:rgb(0%,0%,0%);stroke-opacity:1;stroke-miterlimit:4;" d="M 279.105469 117.546875 L 279.105469 162.875 "/>
<path style="fill:none;stroke-width:1.5;stroke-linecap:butt;stroke-linejoin:miter;stroke:rgb(0%,0%,0%);stroke-opacity:1;stroke-miterlimit:4;" d="M 274.015625 115.964844 L 274.015625 162.851562 "/>
<path style="fill:none;stroke-width:1.5;stroke-linecap:butt;stroke-linejoin:miter;stroke:rgb(0%,0%,0%);stroke-opacity:1;stroke-miterlimit:4;" d="M 268.921875 115.964844 L 268.921875 162.851562 "/>
<path style="fill:none;stroke-width:1.5;stroke-linecap:butt;stroke-linejoin:miter;stroke:rgb(0%,0%,0%);stroke-opacity:1;stroke-miterlimit:4;" d="M 263.828125 116.425781 L 263.828125 163.308594 "/>
<path style="fill:none;stroke-width:1.5;stroke-linecap:butt;stroke-linejoin:miter;stroke:rgb(0%,0%,0%);stroke-opacity:1;stroke-miterlimit:4;" d="M 258.734375 116.886719 L 258.734375 163.769531 "/>
<path style="fill:none;stroke-width:1.5;stroke-linecap:butt;stroke-linejoin:miter;stroke:rgb(0%,0%,0%);stroke-opacity:1;stroke-miterlimit:4;" d="M 253.640625 119.871094 L 253.640625 166.757812 "/>
<path style="fill:none;stroke-width:1.5;stroke-linecap:butt;stroke-linejoin:miter;stroke:rgb(0%,0%,0%);stroke-opacity:1;stroke-miterlimit:4;" d="M 248.546875 120.332031 L 248.546875 173.1875 "/>
<path style="fill:none;stroke-width:1.5;stroke-linecap:butt;stroke-linejoin:miter;stroke:rgb(0%,0%,0%);stroke-opacity:1;stroke-miterlimit:4;" d="M 243.453125 120.332031 L 243.453125 167.214844 "/>
<path style="fill:none;stroke-width:1.5;stroke-linecap:butt;stroke-linejoin:miter;stroke:rgb(0%,0%,0%);stroke-opacity:1;stroke-miterlimit:4;" d="M 238.359375 120.332031 L 238.359375 167.214844 "/>
<path style="fill-rule:evenodd;fill:rgb(0%,0%,0%);fill-opacity:1;stroke-width:1.5;stroke-linecap:butt;stroke-linejoin:miter;stroke:rgb(0%,0%,0%);stroke-opacity:1;stroke-miterlimit:4;" d="M 267.542969 117.925781 C 256.777344 119.699219 233.136719 130.761719 235.828125 145.726562 C 239.652344 166.933594 252.042969 158.421875 268.460938 155.375 L 280.867188 159.511719 C 285.308594 164.042969 291.847656 168.199219 296.265625 162.730469 L 303.617188 162.730469 L 303.617188 191.449219 L 222.273438 191.449219 L 222.273438 122.058594 Z M 267.542969 117.925781 "/>
<path style="fill-rule:evenodd;fill:rgb(99.998474%,84.70459%,23.921204%);fill-opacity:1;stroke-width:2;stroke-linecap:butt;stroke-linejoin:miter;stroke:rgb(0%,0%,0%);stroke-opacity:1;stroke-miterlimit:4;" d="M 226.179688 112.984375 C 226.179688 115.710938 228.394531 117.925781 231.121094 117.925781 C 233.851562 117.925781 236.066406 115.710938 236.066406 112.984375 C 236.066406 110.253906 233.851562 108.042969 231.121094 108.042969 C 228.394531 108.042969 226.179688 110.253906 226.179688 112.984375 Z M 226.179688 112.984375 "/>
<path style="fill-rule:evenodd;fill:rgb(99.998474%,84.70459%,23.921204%);fill-opacity:1;stroke-width:2;stroke-linecap:butt;stroke-linejoin:miter;stroke:rgb(0%,0%,0%);stroke-opacity:1;stroke-miterlimit:4;" d="M 237.285156 110.3125 C 237.285156 113.039062 239.496094 115.25 242.226562 115.25 C 244.953125 115.25 247.164062 113.039062 247.164062 110.3125 C 247.164062 107.582031 244.953125 105.371094 242.226562 105.371094 C 239.496094 105.371094 237.285156 107.582031 237.285156 110.3125 Z M 237.285156 110.3125 "/>
<path style="fill-rule:evenodd;fill:rgb(99.998474%,84.70459%,23.921204%);fill-opacity:1;stroke-width:2;stroke-linecap:butt;stroke-linejoin:miter;stroke:rgb(0%,0%,0%);stroke-opacity:1;stroke-miterlimit:4;" d="M 248.550781 107.480469 C 248.550781 110.210938 250.761719 112.421875 253.484375 112.421875 C 256.214844 112.421875 258.425781 110.210938 258.425781 107.480469 C 258.425781 104.75 256.214844 102.542969 253.484375 102.542969 C 250.761719 102.542969 248.550781 104.75 248.550781 107.480469 Z M 248.550781 107.480469 "/>
<path style="fill-rule:evenodd;fill:rgb(99.998474%,84.70459%,23.921204%);fill-opacity:1;stroke-width:2;stroke-linecap:butt;stroke-linejoin:miter;stroke:rgb(0%,0%,0%);stroke-opacity:1;stroke-miterlimit:4;" d="M 259.855469 105.597656 C 259.855469 108.324219 262.066406 110.539062 264.796875 110.539062 C 267.523438 110.539062 269.734375 108.324219 269.734375 105.597656 C 269.734375 102.867188 267.523438 100.652344 264.796875 100.652344 C 262.066406 100.652344 259.855469 102.867188 259.855469 105.597656 Z M 259.855469 105.597656 "/>
<path style="fill-rule:evenodd;fill:rgb(99.998474%,84.70459%,23.921204%);fill-opacity:1;stroke-width:2;stroke-linecap:butt;stroke-linejoin:miter;stroke:rgb(0%,0%,0%);stroke-opacity:1;stroke-miterlimit:4;" d="M 271.164062 104.484375 C 271.164062 107.207031 273.375 109.417969 276.105469 109.417969 C 278.828125 109.417969 281.039062 107.207031 281.039062 104.484375 C 281.039062 101.753906 278.828125 99.542969 276.105469 99.542969 C 273.375 99.542969 271.164062 101.753906 271.164062 104.484375 Z M 271.164062 104.484375 "/>
<path style="fill-rule:evenodd;fill:rgb(99.998474%,84.70459%,23.921204%);fill-opacity:1;stroke-width:2;stroke-linecap:butt;stroke-linejoin:miter;stroke:rgb(0%,0%,0%);stroke-opacity:1;stroke-miterlimit:4;" d="M 282.246094 105.113281 C 282.246094 107.839844 284.457031 110.054688 287.1875 110.054688 C 289.917969 110.054688 292.128906 107.839844 292.128906 105.113281 C 292.128906 102.382812 289.917969 100.171875 287.1875 100.171875 C 284.457031 100.171875 282.246094 102.382812 282.246094 105.113281 Z M 282.246094 105.113281 "/>
<path style="fill-rule:evenodd;fill:rgb(99.998474%,84.70459%,23.921204%);fill-opacity:1;stroke-width:2;stroke-linecap:butt;stroke-linejoin:miter;stroke:rgb(0%,0%,0%);stroke-opacity:1;stroke-miterlimit:4;" d="M 292.816406 108.730469 C 292.816406 111.460938 295.027344 113.671875 297.757812 113.671875 C 300.488281 113.671875 302.699219 111.460938 302.699219 108.730469 C 302.699219 106 300.488281 103.789062 297.757812 103.789062 C 295.027344 103.789062 292.816406 106 292.816406 108.730469 Z M 292.816406 108.730469 "/>
<path style="fill-rule:evenodd;fill:rgb(99.998474%,84.70459%,23.921204%);fill-opacity:1;stroke-width:2;stroke-linecap:butt;stroke-linejoin:miter;stroke:rgb(0%,0%,0%);stroke-opacity:1;stroke-miterlimit:4;" d="M 301.722656 115.277344 C 301.722656 118.007812 303.933594 120.21875 306.660156 120.21875 C 309.390625 120.21875 311.601562 118.007812 311.601562 115.277344 C 311.601562 112.554688 309.390625 110.339844 306.660156 110.339844 C 303.933594 110.339844 301.722656 112.554688 301.722656 115.277344 Z M 301.722656 115.277344 "/>
<path style="fill-rule:evenodd;fill:rgb(99.998474%,84.70459%,23.921204%);fill-opacity:1;stroke-width:2;stroke-linecap:butt;stroke-linejoin:miter;stroke:rgb(0%,0%,0%);stroke-opacity:1;stroke-miterlimit:4;" d="M 308.042969 124.414062 C 308.042969 127.144531 310.253906 129.355469 312.980469 129.355469 C 315.707031 129.355469 317.921875 127.144531 317.921875 124.414062 C 317.921875 121.683594 315.707031 119.472656 312.980469 119.472656 C 310.253906 119.472656 308.042969 121.683594 308.042969 124.414062 Z M 308.042969 124.414062 "/>
<path style="fill-rule:evenodd;fill:rgb(99.998474%,84.70459%,23.921204%);fill-opacity:1;stroke-width:2;stroke-linecap:butt;stroke-linejoin:miter;stroke:rgb(0%,0%,0%);stroke-opacity:1;stroke-miterlimit:4;" d="M 311.082031 135.15625 C 311.082031 137.886719 313.296875 140.097656 316.023438 140.097656 C 318.753906 140.097656 320.964844 137.886719 320.964844 135.15625 C 320.964844 132.425781 318.753906 130.214844 316.023438 130.214844 C 313.296875 130.214844 311.082031 132.425781 311.082031 135.15625 Z M 311.082031 135.15625 "/>
<path style="fill-rule:evenodd;fill:rgb(99.998474%,84.70459%,23.921204%);fill-opacity:1;stroke-width:2;stroke-linecap:butt;stroke-linejoin:miter;stroke:rgb(0%,0%,0%);stroke-opacity:1;stroke-miterlimit:4;" d="M 310.972656 146.296875 C 310.972656 149.027344 313.183594 151.238281 315.910156 151.238281 C 318.636719 151.238281 320.851562 149.027344 320.851562 146.296875 C 320.851562 143.574219 318.636719 141.363281 315.910156 141.363281 C 313.183594 141.363281 310.972656 143.574219 310.972656 146.296875 Z M 310.972656 146.296875 "/>
<path style="fill-rule:evenodd;fill:rgb(99.998474%,84.70459%,23.921204%);fill-opacity:1;stroke-width:2;stroke-linecap:butt;stroke-linejoin:miter;stroke:rgb(0%,0%,0%);stroke-opacity:1;stroke-miterlimit:4;" d="M 308.84375 157.214844 C 308.84375 159.941406 311.054688 162.152344 313.785156 162.152344 C 316.515625 162.152344 318.726562 159.941406 318.726562 157.214844 C 318.726562 154.488281 316.515625 152.273438 313.785156 152.273438 C 311.054688 152.273438 308.84375 154.488281 308.84375 157.214844 Z M 308.84375 157.214844 "/>
<path style="fill-rule:evenodd;fill:rgb(99.998474%,84.70459%,23.921204%);fill-opacity:1;stroke-width:2;stroke-linecap:butt;stroke-linejoin:miter;stroke:rgb(0%,0%,0%);stroke-opacity:1;stroke-miterlimit:4;" d="M 228.941406 119.53125 L 229.398438 125.964844 C 241.691406 124.082031 259.109375 117.230469 275.355469 117.230469 C 290.359375 117.230469 302.007812 123.238281 302.007812 138.375 C 302.007812 153.292969 295.695312 166.859375 287.304688 180.652344 L 296.035156 184.789062 C 303.835938 169.617188 310.285156 156.738281 310.285156 139.292969 C 310.285156 124.691406 298.796875 110.339844 279.035156 110.339844 C 261.515625 110.339844 243.640625 116.246094 228.941406 119.53125 Z M 228.941406 119.53125 "/>
<path style=" stroke:none;fill-rule:evenodd;fill:rgb(99.998474%,84.70459%,23.921204%);fill-opacity:1;" d="M 221.96875 53.125 L 216.8125 62.785156 L 221.96875 72.40625 L 227.125 62.785156 Z M 221.96875 77.5 L 216.8125 87.125 L 221.96875 96.78125 L 227.125 87.125 Z M 221.96875 77.5 "/>
<path style="fill:none;stroke-width:2;stroke-linecap:butt;stroke-linejoin:miter;stroke:rgb(0%,0%,0%);stroke-opacity:1;stroke-miterlimit:4;" d="M 221.96875 53.125 L 216.8125 62.785156 L 221.96875 72.40625 L 227.125 62.785156 Z M 221.96875 53.125 "/>
<path style="fill:none;stroke-width:2;stroke-linecap:butt;stroke-linejoin:miter;stroke:rgb(0%,0%,0%);stroke-opacity:1;stroke-miterlimit:4;" d="M 221.96875 77.5 L 216.8125 87.125 L 221.96875 96.78125 L 227.125 87.125 Z M 221.96875 77.5 "/>
<path style=" stroke:none;fill-rule:evenodd;fill:rgb(99.998474%,84.70459%,23.921204%);fill-opacity:1;" d="M 203.589844 74.953125 L 211.71875 80.109375 L 219.824219 74.953125 L 211.71875 69.796875 Z M 224.109375 74.953125 L 232.214844 80.109375 L 240.351562 74.953125 L 232.214844 69.796875 Z M 224.109375 74.953125 "/>
<path style="fill:none;stroke-width:2;stroke-linecap:butt;stroke-linejoin:miter;stroke:rgb(0%,0%,0%);stroke-opacity:1;stroke-miterlimit:4;" d="M 203.589844 74.953125 L 211.71875 80.109375 L 219.824219 74.953125 L 211.71875 69.796875 Z M 203.589844 74.953125 "/>
<path style="fill:none;stroke-width:2;stroke-linecap:butt;stroke-linejoin:miter;stroke:rgb(0%,0%,0%);stroke-opacity:1;stroke-miterlimit:4;" d="M 224.109375 74.953125 L 232.214844 80.109375 L 240.351562 74.953125 L 232.214844 69.796875 Z M 224.109375 74.953125 "/>
<path style="fill-rule:evenodd;fill:rgb(99.998474%,84.70459%,23.921204%);fill-opacity:1;stroke-width:2;stroke-linecap:butt;stroke-linejoin:miter;stroke:rgb(0%,0%,0%);stroke-opacity:1;stroke-miterlimit:4;" d="M 225.875 75.070312 C 225.875 77.226562 224.125 78.976562 221.96875 78.976562 C 219.808594 78.976562 218.0625 77.226562 218.0625 75.070312 C 218.0625 72.910156 219.808594 71.164062 221.96875 71.164062 C 224.125 71.164062 225.875 72.910156 225.875 75.070312 Z M 225.875 75.070312 "/>
<path style="fill-rule:evenodd;fill:rgb(99.998474%,84.70459%,23.921204%);fill-opacity:1;stroke-width:2;stroke-linecap:butt;stroke-linejoin:miter;stroke:rgb(0%,0%,0%);stroke-opacity:1;stroke-miterlimit:4;" d="M 232.421875 100 C 232.421875 105.777344 227.742188 110.453125 221.96875 110.453125 C 216.195312 110.453125 211.515625 105.777344 211.515625 100 C 211.515625 94.222656 216.195312 89.546875 221.96875 89.546875 C 227.742188 89.546875 232.421875 94.222656 232.421875 100 Z M 232.421875 100 "/>
<path style="fill:none;stroke-width:1.5;stroke-linecap:butt;stroke-linejoin:miter;stroke:rgb(0%,0%,0%);stroke-opacity:1;stroke-miterlimit:4;" d="M 219.347656 89.871094 C 219.347656 92.988281 219.320312 94.800781 219.3125 96.5 C 216.792969 96.609375 214.304688 96.875 211.875 97.28125 "/>
<path style="fill:none;stroke-width:1.5;stroke-linecap:butt;stroke-linejoin:miter;stroke:rgb(0%,0%,0%);stroke-opacity:1;stroke-miterlimit:4;" d="M 232.058594 97.28125 C 229.628906 96.875 227.144531 96.609375 224.625 96.5 L 224.625 89.871094 "/>
<path style="fill:none;stroke-width:1.5;stroke-linecap:butt;stroke-linejoin:miter;stroke:rgb(0%,0%,0%);stroke-opacity:1;stroke-miterlimit:4;" d="M 211.847656 102.5625 C 215.136719 102.011719 218.515625 101.71875 221.96875 101.71875 C 225.421875 101.71875 228.796875 102.011719 232.09375 102.5625 "/>
<path style=" stroke:none;fill-rule:evenodd;fill:rgb(99.998474%,84.70459%,23.921204%);fill-opacity:1;" d="M 211.746094 117.683594 C 210.757812 134.769531 208.738281 152.167969 202.09375 164.816406 L 212.90625 160.441406 C 216.683594 146.109375 217.476562 127.59375 218.621094 118.84375 Z M 232.1875 117.683594 L 225.3125 118.84375 C 226.460938 127.59375 227.257812 146.109375 231.03125 160.441406 L 241.847656 164.816406 C 235.195312 152.167969 233.179688 134.769531 232.1875 117.683594 Z M 232.1875 117.683594 "/>
<path style="fill:none;stroke-width:2;stroke-linecap:butt;stroke-linejoin:miter;stroke:rgb(0%,0%,0%);stroke-opacity:1;stroke-miterlimit:4;" d="M 211.746094 117.683594 C 210.757812 134.769531 208.738281 152.167969 202.09375 164.816406 L 212.90625 160.441406 C 216.683594 146.109375 217.476562 127.59375 218.621094 118.84375 Z M 211.746094 117.683594 "/>
<path style="fill:none;stroke-width:2;stroke-linecap:butt;stroke-linejoin:miter;stroke:rgb(0%,0%,0%);stroke-opacity:1;stroke-miterlimit:4;" d="M 232.1875 117.683594 L 225.3125 118.84375 C 226.460938 127.59375 227.257812 146.109375 231.03125 160.441406 L 241.847656 164.816406 C 235.195312 152.167969 233.179688 134.769531 232.1875 117.683594 Z M 232.1875 117.683594 "/>
<path style="fill-rule:evenodd;fill:rgb(99.998474%,84.70459%,23.921204%);fill-opacity:1;stroke-width:2;stroke-linecap:butt;stroke-linejoin:miter;stroke:rgb(0%,0%,0%);stroke-opacity:1;stroke-miterlimit:4;" d="M 221.953125 154.6875 C 209.039062 154.6875 199.554688 160.777344 198.984375 176.277344 C 195.828125 170.726562 182.476562 153.257812 170.015625 155.597656 C 162.609375 156.984375 156.058594 167.261719 157.171875 179.035156 C 151.035156 161.402344 133.066406 158.511719 119.953125 168.933594 C 131.597656 178.511719 136.773438 206.773438 146.578125 219.035156 L 297.328125 219.035156 C 307.132812 206.773438 312.34375 178.511719 323.984375 168.933594 C 310.875 158.511719 292.898438 161.402344 286.765625 179.035156 C 287.882812 167.261719 281.296875 156.984375 273.890625 155.597656 C 261.429688 153.257812 248.109375 170.726562 244.953125 176.277344 C 244.386719 160.777344 234.867188 154.6875 221.953125 154.6875 Z M 221.953125 154.6875 "/>
<path style="fill-rule:evenodd;fill:rgb(0%,0%,0%);fill-opacity:1;stroke-width:1.5;stroke-linecap:butt;stroke-linejoin:miter;stroke:rgb(0%,0%,0%);stroke-opacity:1;stroke-miterlimit:4;" d="M 297.105469 219.023438 C 297.105469 224.605469 263.449219 230.742188 221.96875 230.742188 C 180.492188 230.742188 146.832031 224.605469 146.832031 219.023438 C 146.832031 213.449219 180.492188 210.523438 221.96875 210.523438 C 263.449219 210.523438 297.105469 213.449219 297.105469 219.023438 Z M 297.105469 219.023438 "/>
<path style="fill-rule:evenodd;fill:rgb(99.998474%,84.70459%,23.921204%);fill-opacity:1;stroke-width:1.5;stroke-linecap:butt;stroke-linejoin:miter;stroke:rgb(0%,0%,0%);stroke-opacity:1;stroke-miterlimit:4;" d="M 225.472656 114.445312 C 225.472656 116.382812 223.90625 117.949219 221.96875 117.949219 C 220.035156 117.949219 218.464844 116.382812 218.464844 114.445312 C 218.464844 112.511719 220.035156 110.941406 221.96875 110.941406 C 223.90625 110.941406 225.472656 112.511719 225.472656 114.445312 Z M 225.472656 114.445312 "/>
<path style="fill-rule:evenodd;fill:rgb(99.998474%,84.70459%,23.921204%);fill-opacity:1;stroke-width:1.5;stroke-linecap:butt;stroke-linejoin:miter;stroke:rgb(0%,0%,0%);stroke-opacity:1;stroke-miterlimit:4;" d="M 225.703125 122.027344 C 225.703125 124.089844 224.035156 125.761719 221.96875 125.761719 C 219.90625 125.761719 218.234375 124.089844 218.234375 122.027344 C 218.234375 119.964844 219.90625 118.292969 221.96875 118.292969 C 224.035156 118.292969 225.703125 119.964844 225.703125 122.027344 Z M 225.703125 122.027344 "/>
<path style="fill-rule:evenodd;fill:rgb(99.998474%,84.70459%,23.921204%);fill-opacity:1;stroke-width:1.5;stroke-linecap:butt;stroke-linejoin:miter;stroke:rgb(0%,0%,0%);stroke-opacity:1;stroke-miterlimit:4;" d="M 226.046875 130.183594 C 226.046875 132.4375 224.222656 134.261719 221.96875 134.261719 C 219.714844 134.261719 217.890625 132.4375 217.890625 130.183594 C 217.890625 127.929688 219.714844 126.105469 221.96875 126.105469 C 224.222656 126.105469 226.046875 127.929688 226.046875 130.183594 Z M 226.046875 130.183594 "/>
<path style="fill-rule:evenodd;fill:rgb(99.998474%,84.70459%,23.921204%);fill-opacity:1;stroke-width:1.5;stroke-linecap:butt;stroke-linejoin:miter;stroke:rgb(0%,0%,0%);stroke-opacity:1;stroke-miterlimit:4;" d="M 226.621094 139.261719 C 226.621094 141.832031 224.535156 143.917969 221.96875 143.917969 C 219.398438 143.917969 217.316406 141.832031 217.316406 139.261719 C 217.316406 136.691406 219.398438 134.609375 221.96875 134.609375 C 224.535156 134.609375 226.621094 136.691406 226.621094 139.261719 Z M 226.621094 139.261719 "/>
<path style="fill-rule:evenodd;fill:rgb(99.998474%,84.70459%,23.921204%);fill-opacity:1;stroke-width:1.5;stroke-linecap:butt;stroke-linejoin:miter;stroke:rgb(0%,0%,0%);stroke-opacity:1;stroke-miterlimit:4;" d="M 227.078125 149.371094 C 227.078125 152.191406 224.789062 154.484375 221.96875 154.484375 C 219.144531 154.484375 216.855469 152.191406 216.855469 149.371094 C 216.855469 146.546875 219.144531 144.257812 221.96875 144.257812 C 224.789062 144.257812 227.078125 146.546875 227.078125 149.371094 Z M 227.078125 149.371094 "/>
<path style=" stroke:none;fill-rule:evenodd;fill:rgb(0%,0%,0%);fill-opacity:1;" d="M 219.9375 159.203125 C 219.386719 159.199219 218.863281 159.664062 219 160.550781 C 219.164062 161.589844 219.363281 163.546875 219.558594 164.863281 C 219.785156 166.359375 220.652344 165.992188 220.875 164.828125 C 221.097656 163.671875 221.007812 162.925781 221.066406 160.765625 C 221.089844 159.691406 220.488281 159.214844 219.9375 159.203125 Z M 224 159.203125 C 223.449219 159.214844 222.847656 159.691406 222.875 160.765625 C 222.929688 162.925781 222.839844 163.671875 223.0625 164.828125 C 223.285156 165.992188 224.15625 166.359375 224.375 164.863281 C 224.570312 163.546875 224.773438 161.589844 224.9375 160.550781 C 225.078125 159.664062 224.550781 159.199219 224 159.203125 Z M 216.3125 159.769531 C 215.804688 159.839844 215.285156 160.347656 215.3125 160.894531 C 215.367188 161.890625 215.644531 163.082031 215.753906 164.578125 C 215.859375 166.128906 216.953125 165.527344 217.058594 164.644531 C 217.171875 163.761719 217.300781 162.453125 217.1875 160.738281 C 217.148438 160.09375 216.863281 159.808594 216.535156 159.769531 C 216.460938 159.761719 216.386719 159.761719 216.3125 159.769531 Z M 227.40625 159.769531 C 227.070312 159.808594 226.792969 160.09375 226.746094 160.738281 C 226.640625 162.453125 226.761719 163.761719 226.875 164.644531 C 226.988281 165.527344 228.078125 166.128906 228.1875 164.578125 C 228.296875 163.082031 228.570312 161.890625 228.621094 160.894531 C 228.65625 160.347656 228.128906 159.839844 227.628906 159.769531 C 227.554688 159.761719 227.476562 159.761719 227.40625 159.769531 Z M 211.96875 161.519531 C 211.503906 161.636719 211.078125 162.199219 211.222656 162.832031 C 211.492188 164.101562 211.746094 165.507812 211.746094 166.800781 C 211.746094 167.90625 212.695312 167.511719 212.75 166.738281 C 212.800781 165.960938 212.90625 164.320312 212.90625 162.832031 C 212.90625 161.71875 212.429688 161.394531 211.96875 161.519531 Z M 231.65625 161.519531 C 231.328125 161.609375 231.03125 161.996094 231.03125 162.832031 C 231.03125 164.320312 231.132812 165.960938 231.1875 166.738281 C 231.246094 167.511719 232.1875 167.90625 232.1875 166.800781 C 232.1875 165.507812 232.441406 164.101562 232.71875 162.832031 C 232.855469 162.199219 232.429688 161.636719 231.96875 161.519531 C 231.851562 161.488281 231.765625 161.488281 231.65625 161.519531 Z M 172.5625 161.691406 C 172.007812 161.671875 171.621094 162.421875 172.003906 163.253906 C 172.609375 164.578125 173.253906 165.414062 173.878906 166.847656 C 174.429688 168.113281 175.277344 167.324219 175 166.441406 C 174.722656 165.554688 174.421875 164.570312 173.59375 162.691406 C 173.28125 161.984375 172.894531 161.699219 172.5625 161.691406 Z M 271.378906 161.691406 C 271.046875 161.699219 270.652344 161.984375 270.339844 162.691406 C 269.515625 164.570312 269.214844 165.554688 268.933594 166.441406 C 268.664062 167.324219 269.511719 168.113281 270.0625 166.847656 C 270.683594 165.414062 271.328125 164.578125 271.9375 163.253906 C 272.320312 162.421875 271.929688 161.671875 271.378906 161.691406 Z M 176.5625 161.753906 C 176.152344 161.875 175.910156 162.390625 176.15625 163.003906 C 176.65625 164.21875 177.371094 165.464844 177.875 166.78125 C 178.316406 167.945312 179.300781 167.617188 178.96875 166.5625 C 178.636719 165.511719 178.539062 164.898438 177.875 162.910156 C 177.542969 161.914062 176.972656 161.625 176.5625 161.753906 Z M 267.058594 161.753906 C 266.714844 161.828125 266.3125 162.164062 266.066406 162.910156 C 265.398438 164.898438 265.300781 165.511719 264.972656 166.5625 C 264.640625 167.617188 265.621094 167.945312 266.066406 166.78125 C 266.5625 165.464844 267.285156 164.21875 267.785156 163.003906 C 268.03125 162.390625 267.785156 161.875 267.371094 161.753906 C 267.273438 161.71875 267.175781 161.730469 267.058594 161.753906 Z M 181.5625 162.71875 C 181.050781 162.816406 180.648438 163.605469 181 164.566406 C 181.441406 165.78125 182.070312 166.933594 182.628906 168.316406 C 183.179688 169.699219 184.097656 169.417969 183.878906 168.535156 C 183.652344 167.644531 183.382812 166.179688 182.71875 163.96875 C 182.425781 163.003906 181.960938 162.644531 181.5625 162.71875 Z M 262.371094 162.71875 C 261.976562 162.644531 261.507812 163.003906 261.222656 163.96875 C 260.554688 166.179688 260.285156 167.644531 260.0625 168.535156 C 259.839844 169.417969 260.761719 169.699219 261.3125 168.316406 C 261.863281 166.933594 262.496094 165.78125 262.941406 164.566406 C 263.285156 163.605469 262.890625 162.816406 262.371094 162.71875 Z M 169.191406 163.410156 C 168.632812 163.464844 168.125 164.375 168.464844 165.0625 C 169.023438 166.171875 169.371094 166.546875 169.90625 167.71875 C 170.457031 168.933594 171.066406 167.992188 170.84375 167.222656 C 170.621094 166.445312 170.335938 165.546875 170.0625 164.4375 C 169.859375 163.628906 169.519531 163.375 169.191406 163.410156 Z M 274.75 163.410156 C 274.414062 163.375 274.078125 163.628906 273.878906 164.4375 C 273.597656 165.546875 273.316406 166.445312 273.097656 167.222656 C 272.871094 167.992188 273.476562 168.933594 274.035156 167.71875 C 274.566406 166.546875 274.917969 166.171875 275.46875 165.0625 C 275.816406 164.375 275.308594 163.464844 274.75 163.410156 Z M 207.71875 166.207031 C 207.132812 166.207031 206.515625 166.984375 206.71875 167.703125 C 207.050781 168.867188 207.5625 169.898438 207.941406 171.390625 C 208.269531 172.71875 209.214844 172.058594 209.15625 171.175781 C 209.101562 170.289062 208.949219 169.085938 208.566406 167.207031 C 208.417969 166.5 208.070312 166.207031 207.71875 166.207031 Z M 236.222656 166.207031 C 235.867188 166.207031 235.523438 166.5 235.375 167.207031 C 234.988281 169.085938 234.839844 170.289062 234.78125 171.175781 C 234.726562 172.058594 235.667969 172.71875 236 171.390625 C 236.371094 169.898438 236.886719 168.867188 237.214844 167.703125 C 237.425781 166.984375 236.800781 166.207031 236.222656 166.207031 Z M 221.96875 167.390625 C 221.25 167.390625 221.152344 168.359375 221.121094 169.144531 C 221.039062 171.714844 219.976562 174.214844 219.0625 175.453125 C 218.148438 176.699219 216.804688 176.367188 215.5625 175.707031 C 214.316406 175.042969 213.578125 174.546875 212.25 173.550781 C 210.921875 172.554688 209.917969 173.136719 211.5 175.394531 C 216.117188 181.972656 221.121094 187.597656 221.121094 198.328125 C 221.121094 199.714844 221.367188 200.140625 221.96875 200.140625 C 222.570312 200.140625 222.839844 199.714844 222.839844 198.328125 C 222.839844 187.597656 227.824219 181.972656 232.4375 175.394531 C 234.023438 173.136719 233.011719 172.554688 231.691406 173.550781 C 230.359375 174.546875 229.617188 175.042969 228.375 175.707031 C 227.128906 176.367188 225.785156 176.699219 224.871094 175.453125 C 223.960938 174.214844 222.894531 171.714844 222.8125 169.144531 C 222.789062 168.359375 222.683594 167.390625 221.96875 167.390625 Z M 186.691406 165.78125 C 186.625 165.78125 186.558594 165.796875 186.5 165.816406 C 186.230469 165.898438 186.054688 166.226562 186.15625 166.78125 C 186.34375 167.785156 187.035156 169.75 187.316406 170.6875 C 187.585938 171.632812 188.746094 171.429688 188.464844 170.15625 C 188.195312 168.886719 188.207031 168.5 187.875 167.066406 C 187.695312 166.277344 187.128906 165.796875 186.691406 165.78125 Z M 257.25 165.78125 C 256.8125 165.796875 256.246094 166.277344 256.066406 167.066406 C 255.734375 168.5 255.746094 168.886719 255.46875 170.15625 C 255.191406 171.429688 256.347656 171.632812 256.625 170.6875 C 256.898438 169.75 257.597656 167.785156 257.785156 166.78125 C 257.886719 166.226562 257.703125 165.898438 257.4375 165.816406 C 257.382812 165.796875 257.316406 165.78125 257.25 165.78125 Z M 165.71875 166.191406 C 165.140625 166.234375 164.726562 166.960938 165.3125 168.03125 C 165.949219 169.191406 167.03125 170.640625 167.527344 171.46875 C 168.027344 172.300781 168.890625 171.738281 168.28125 170.6875 C 167.671875 169.640625 167.472656 168.433594 166.746094 166.9375 C 166.480469 166.382812 166.066406 166.164062 165.71875 166.191406 Z M 278.21875 166.191406 C 277.871094 166.164062 277.457031 166.382812 277.1875 166.9375 C 276.46875 168.433594 276.265625 169.640625 275.652344 170.6875 C 275.046875 171.738281 275.910156 172.300781 276.40625 171.46875 C 276.902344 170.640625 277.992188 169.191406 278.621094 168.03125 C 279.214844 166.960938 278.796875 166.234375 278.21875 166.191406 Z M 134.035156 169.515625 C 133.363281 169.484375 133.152344 170.6875 133.777344 171.488281 C 134.691406 172.644531 135.328125 173.261719 136.378906 174.203125 C 137.207031 174.953125 137.445312 173.984375 137.03125 173.238281 C 136.617188 172.488281 136.015625 171.734375 135.183594 170.488281 C 134.730469 169.804688 134.335938 169.535156 134.035156 169.515625 Z M 309.90625 169.515625 C 309.605469 169.535156 309.203125 169.804688 308.75 170.488281 C 307.921875 171.734375 307.320312 172.488281 306.902344 173.238281 C 306.488281 173.984375 306.734375 174.953125 307.5625 174.203125 C 308.609375 173.261719 309.242188 172.644531 310.15625 171.488281 C 310.78125 170.6875 310.578125 169.484375 309.90625 169.515625 Z M 139.0625 170.515625 C 138.53125 170.527344 138.179688 170.917969 138.59375 171.832031 C 139.191406 173.136719 139.972656 174.613281 140.46875 175.609375 C 140.964844 176.605469 142.484375 176.945312 141.875 175.394531 C 141.265625 173.84375 141.148438 173.050781 140.597656 171.609375 C 140.316406 170.894531 139.59375 170.511719 139.0625 170.515625 Z M 304.871094 170.515625 C 304.339844 170.511719 303.617188 170.894531 303.34375 171.609375 C 302.792969 173.050781 302.671875 173.84375 302.058594 175.394531 C 301.453125 176.945312 302.96875 176.605469 303.464844 175.609375 C 303.964844 174.613281 304.75 173.136719 305.339844 171.832031 C 305.757812 170.917969 305.40625 170.527344 304.871094 170.515625 Z M 129.3125 170.863281 C 128.539062 170.867188 128.472656 171.644531 129.15625 172.144531 C 130.070312 172.808594 131.15625 173.546875 132.214844 174.394531 C 133.460938 175.390625 133.945312 174.472656 133.28125 173.640625 C 132.617188 172.8125 131.972656 171.972656 130.3125 171.140625 C 129.898438 170.9375 129.570312 170.859375 129.3125 170.863281 Z M 314.625 170.863281 C 314.363281 170.859375 314.039062 170.9375 313.621094 171.140625 C 311.96875 171.972656 311.320312 172.8125 310.652344 173.640625 C 309.996094 174.472656 310.472656 175.390625 311.71875 174.394531 C 312.785156 173.546875 313.867188 172.808594 314.78125 172.144531 C 315.464844 171.644531 315.398438 170.867188 314.625 170.863281 Z M 204.972656 171.582031 C 204.535156 171.640625 204.160156 172.132812 204.347656 172.769531 C 204.675781 173.929688 205.054688 175.160156 205.285156 176.363281 C 205.503906 177.523438 206.847656 177.539062 206.625 176.488281 C 206.40625 175.433594 206.292969 174.121094 205.910156 172.519531 C 205.761719 171.917969 205.457031 171.625 205.15625 171.582031 C 205.09375 171.574219 205.027344 171.574219 204.972656 171.582031 Z M 238.777344 171.582031 C 238.480469 171.625 238.179688 171.917969 238.03125 172.519531 C 237.644531 174.121094 237.535156 175.433594 237.316406 176.488281 C 237.089844 177.539062 238.433594 177.523438 238.65625 176.363281 C 238.886719 175.160156 239.261719 173.929688 239.59375 172.769531 C 239.773438 172.132812 239.398438 171.640625 238.96875 171.582031 C 238.90625 171.574219 238.84375 171.574219 238.777344 171.582031 Z M 174.871094 169.59375 C 174.535156 169.6875 174.339844 170.339844 174.59375 171.25 C 176.007812 176.3125 176.433594 178.976562 176.1875 180.21875 C 175.9375 181.464844 175.253906 181.636719 174.347656 181.222656 C 173.433594 180.804688 172.359375 180.203125 171.535156 179.628906 C 170.703125 179.046875 169.839844 179.742188 171.03125 180.722656 C 177.085938 185.699219 181.285156 191.386719 182.90625 198.28125 C 183.238281 199.691406 184.125 199.859375 183.878906 198.28125 C 182.503906 189.59375 182.242188 182.453125 184.3125 177.96875 C 185.09375 176.289062 184.304688 174.671875 183.0625 177.40625 C 182.230469 179.234375 180.890625 179.953125 179.816406 178.378906 C 178.734375 176.800781 176.507812 172.597656 175.84375 170.6875 C 175.597656 169.976562 175.289062 169.644531 175.027344 169.59375 C 174.976562 169.585938 174.921875 169.578125 174.871094 169.59375 Z M 268.90625 169.59375 C 268.648438 169.644531 268.34375 169.976562 268.097656 170.6875 C 267.429688 172.597656 265.203125 176.800781 264.125 178.378906 C 263.046875 179.953125 261.703125 179.234375 260.875 177.40625 C 259.628906 174.671875 258.847656 176.289062 259.625 177.96875 C 261.699219 182.453125 261.433594 189.59375 260.0625 198.28125 C 259.816406 199.859375 260.699219 199.691406 261.03125 198.28125 C 262.65625 191.386719 266.851562 185.699219 272.90625 180.722656 C 274.097656 179.742188 273.238281 179.046875 272.40625 179.628906 C 271.578125 180.203125 270.507812 180.804688 269.59375 181.222656 C 268.679688 181.636719 267.996094 181.464844 267.75 180.21875 C 267.5 178.976562 267.933594 176.3125 269.347656 171.25 C 269.601562 170.339844 269.402344 169.6875 269.0625 169.59375 C 269.015625 169.578125 268.960938 169.585938 268.90625 169.59375 Z M 144.4375 172.015625 C 143.890625 172.027344 143.4375 172.40625 143.6875 173.238281 C 144.085938 174.566406 144.914062 176 145.183594 176.832031 C 145.464844 177.660156 146.351562 177.273438 146.1875 176.113281 C 146.019531 174.953125 145.941406 174.257812 145.71875 172.988281 C 145.609375 172.355469 144.984375 172.011719 144.4375 172.015625 Z M 299.503906 172.015625 C 298.953125 172.011719 298.328125 172.355469 298.21875 172.988281 C 297.996094 174.257812 297.914062 174.953125 297.75 176.113281 C 297.582031 177.273438 298.472656 177.660156 298.75 176.832031 C 299.027344 176 299.855469 174.566406 300.25 173.238281 C 300.496094 172.40625 300.042969 172.027344 299.503906 172.015625 Z M 163.21875 170.285156 C 162.582031 170.171875 162.488281 171.804688 163.03125 172.472656 C 163.75 173.355469 164.75 174.421875 165.753906 175.625 C 166.578125 176.621094 167.089844 175.738281 166.589844 174.90625 C 166.09375 174.078125 165.355469 173.199219 164.035156 171.09375 C 163.703125 170.570312 163.433594 170.324219 163.21875 170.285156 Z M 280.71875 170.285156 C 280.507812 170.324219 280.238281 170.570312 279.90625 171.09375 C 278.578125 173.199219 277.839844 174.078125 277.34375 174.90625 C 276.847656 175.738281 277.359375 176.621094 278.1875 175.625 C 279.191406 174.421875 280.183594 173.355469 280.910156 172.472656 C 281.445312 171.804688 281.351562 170.171875 280.71875 170.285156 Z M 148.722656 174.238281 C 148.324219 174.207031 147.988281 174.53125 148.152344 175.332031 C 148.390625 176.445312 148.726562 177.371094 149 178.421875 C 149.277344 179.476562 150 179.296875 150 178.300781 C 150 177.304688 149.824219 176.195312 149.660156 175.140625 C 149.574219 174.617188 149.109375 174.261719 148.722656 174.238281 Z M 295.21875 174.238281 C 294.824219 174.261719 294.363281 174.617188 294.28125 175.140625 C 294.117188 176.195312 293.933594 177.304688 293.933594 178.300781 C 293.933594 179.296875 294.664062 179.476562 294.9375 178.421875 C 295.214844 177.371094 295.550781 176.445312 295.78125 175.332031 C 295.949219 174.53125 295.609375 174.207031 295.21875 174.238281 Z M 161.8125 175.660156 C 161.191406 175.753906 160.648438 176.347656 161.378906 177.285156 C 162.535156 178.773438 163.808594 179.824219 164.246094 180.375 C 164.691406 180.925781 165.808594 180.726562 165.09375 179.566406 C 164.359375 178.378906 163.246094 176.949219 162.75 176.066406 C 162.5625 175.734375 162.183594 175.601562 161.8125 175.660156 Z M 281.875 175.660156 C 281.601562 175.6875 281.328125 175.816406 281.1875 176.066406 C 280.6875 176.949219 279.578125 178.378906 278.84375 179.566406 C 278.125 180.726562 279.242188 180.925781 279.6875 180.375 C 280.132812 179.824219 281.402344 178.773438 282.5625 177.285156 C 283.285156 176.347656 282.742188 175.753906 282.125 175.660156 C 282.03125 175.644531 281.96875 175.648438 281.875 175.660156 Z M 141.15625 179.828125 C 140.667969 179.785156 140.496094 180.179688 141.15625 181.078125 C 142.652344 183.125 144.296875 186.222656 144.402344 187.546875 C 144.515625 188.878906 143.863281 188.863281 143.253906 188.863281 C 141.425781 188.863281 140.53125 187.527344 138.878906 187.144531 C 137.214844 186.757812 136.976562 187.628906 138.152344 188.484375 C 144.238281 192.910156 150.335938 197.847656 152.785156 202.328125 C 153.773438 204.15625 155.121094 204.824219 154.375 203.082031 C 152.089844 197.742188 151.535156 193.222656 152.03125 190.488281 C 152.527344 187.75 153.207031 185.910156 153.125 184.332031 C 153.042969 182.753906 152.148438 182.859375 151.78125 184.332031 C 151.535156 185.328125 151.050781 186.644531 150.71875 187.144531 C 150.386719 187.640625 149.050781 187.921875 147.785156 186.207031 C 146.507812 184.492188 143.300781 181.191406 142.25 180.359375 C 141.855469 180.046875 141.449219 179.859375 141.15625 179.828125 Z M 302.785156 179.828125 C 302.488281 179.859375 302.078125 180.046875 301.691406 180.359375 C 300.636719 181.191406 297.425781 184.492188 296.15625 186.207031 C 294.882812 187.921875 293.550781 187.640625 293.21875 187.144531 C 292.886719 186.644531 292.40625 185.328125 292.160156 184.332031 C 291.789062 182.859375 290.894531 182.753906 290.808594 184.332031 C 290.726562 185.910156 291.40625 187.75 291.902344 190.488281 C 292.402344 193.222656 291.851562 197.742188 289.558594 203.082031 C 288.8125 204.824219 290.160156 204.15625 291.15625 202.328125 C 293.605469 197.847656 299.699219 192.910156 305.78125 188.484375 C 306.960938 187.628906 306.722656 186.757812 305.0625 187.144531 C 303.402344 187.527344 302.515625 188.863281 300.6875 188.863281 C 300.078125 188.863281 299.417969 188.878906 299.53125 187.546875 C 299.644531 186.222656 301.289062 183.125 302.785156 181.078125 C 303.4375 180.179688 303.269531 179.785156 302.785156 179.828125 Z M 302.785156 179.828125 "/>
<path style=" stroke:none;fill-rule:evenodd;fill:rgb(99.998474%,84.70459%,23.921204%);fill-opacity:1;" d="M 150.128906 212.652344 L 152.074219 218.824219 Z M 154.136719 211.480469 L 155.863281 217.71875 Z M 158.472656 210.765625 L 159.660156 217.132812 Z M 162.488281 209.964844 L 163.761719 216.3125 Z M 167.644531 209.453125 L 168.675781 215.84375 Z M 173.128906 209.460938 L 174.242188 215.839844 Z M 178.480469 207.652344 L 179.289062 214.078125 Z M 183.519531 207.980469 L 184.328125 214.398438 Z M 188.394531 207.324219 L 189.199219 213.75 Z M 193.285156 206.820312 L 193.730469 213.28125 Z M 198.515625 206.820312 L 198.902344 213.28125 Z M 203.257812 206.492188 L 203.582031 212.957031 Z M 208.480469 206.167969 L 208.753906 212.636719 Z M 214.496094 206.007812 L 214.765625 212.476562 Z M 293.808594 212.652344 L 291.859375 218.824219 Z M 289.800781 211.480469 L 288.070312 217.71875 Z M 285.46875 210.765625 L 284.28125 217.132812 Z M 281.445312 209.964844 L 280.175781 216.3125 Z M 276.292969 209.453125 L 275.257812 215.84375 Z M 270.804688 209.460938 L 269.699219 215.839844 Z M 265.453125 207.652344 L 264.648438 214.078125 Z M 260.414062 207.980469 L 259.613281 214.398438 Z M 255.542969 207.324219 L 254.742188 213.75 Z M 250.648438 206.820312 L 250.210938 213.28125 Z M 245.421875 206.820312 L 245.039062 213.28125 Z M 240.679688 206.492188 L 240.355469 212.957031 Z M 235.453125 206.167969 L 235.179688 212.636719 Z M 229.445312 206.007812 L 229.171875 212.476562 Z M 221.96875 205.585938 L 221.96875 212.703125 Z M 221.96875 205.585938 "/>
<path style="fill:none;stroke-width:1.5;stroke-linecap:butt;stroke-linejoin:miter;stroke:rgb(0%,0%,0%);stroke-opacity:1;stroke-miterlimit:4;" d="M 150.128906 212.652344 L 152.074219 218.824219 "/>
<path style="fill:none;stroke-width:1.5;stroke-linecap:butt;stroke-linejoin:miter;stroke:rgb(0%,0%,0%);stroke-opacity:1;stroke-miterlimit:4;" d="M 154.136719 211.480469 L 155.863281 217.71875 "/>
<path style="fill:none;stroke-width:1.5;stroke-linecap:butt;stroke-linejoin:miter;stroke:rgb(0%,0%,0%);stroke-opacity:1;stroke-miterlimit:4;" d="M 158.472656 210.765625 L 159.660156 217.132812 "/>
<path style="fill:none;stroke-width:1.5;stroke-linecap:butt;stroke-linejoin:miter;stroke:rgb(0%,0%,0%);stroke-opacity:1;stroke-miterlimit:4;" d="M 162.488281 209.964844 L 163.761719 216.3125 "/>
<path style="fill:none;stroke-width:1.5;stroke-linecap:butt;stroke-linejoin:miter;stroke:rgb(0%,0%,0%);stroke-opacity:1;stroke-miterlimit:4;" d="M 167.644531 209.453125 L 168.675781 215.84375 "/>
<path style="fill:none;stroke-width:1.5;stroke-linecap:butt;stroke-linejoin:miter;stroke:rgb(0%,0%,0%);stroke-opacity:1;stroke-miterlimit:4;" d="M 173.128906 209.460938 L 174.242188 215.839844 "/>
<path style="fill:none;stroke-width:1.5;stroke-linecap:butt;stroke-linejoin:miter;stroke:rgb(0%,0%,0%);stroke-opacity:1;stroke-miterlimit:4;" d="M 178.480469 207.652344 L 179.289062 214.078125 "/>
<path style="fill:none;stroke-width:1.5;stroke-linecap:butt;stroke-linejoin:miter;stroke:rgb(0%,0%,0%);stroke-opacity:1;stroke-miterlimit:4;" d="M 183.519531 207.980469 L 184.328125 214.398438 "/>
<path style="fill:none;stroke-width:1.5;stroke-linecap:butt;stroke-linejoin:miter;stroke:rgb(0%,0%,0%);stroke-opacity:1;stroke-miterlimit:4;" d="M 188.394531 207.324219 L 189.199219 213.75 "/>
<path style="fill:none;stroke-width:1.5;stroke-linecap:butt;stroke-linejoin:miter;stroke:rgb(0%,0%,0%);stroke-opacity:1;stroke-miterlimit:4;" d="M 193.285156 206.820312 L 193.730469 213.28125 "/>
<path style="fill:none;stroke-width:1.5;stroke-linecap:butt;stroke-linejoin:miter;stroke:rgb(0%,0%,0%);stroke-opacity:1;stroke-miterlimit:4;" d="M 198.515625 206.820312 L 198.902344 213.28125 "/>
<path style="fill:none;stroke-width:1.5;stroke-linecap:butt;stroke-linejoin:miter;stroke:rgb(0%,0%,0%);stroke-opacity:1;stroke-miterlimit:4;" d="M 203.257812 206.492188 L 203.582031 212.957031 "/>
<path style="fill:none;stroke-width:1.5;stroke-linecap:butt;stroke-linejoin:miter;stroke:rgb(0%,0%,0%);stroke-opacity:1;stroke-miterlimit:4;" d="M 208.480469 206.167969 L 208.753906 212.636719 "/>
<path style="fill:none;stroke-width:1.5;stroke-linecap:butt;stroke-linejoin:miter;stroke:rgb(0%,0%,0%);stroke-opacity:1;stroke-miterlimit:4;" d="M 214.496094 206.007812 L 214.765625 212.476562 "/>
<path style="fill:none;stroke-width:1.5;stroke-linecap:butt;stroke-linejoin:miter;stroke:rgb(0%,0%,0%);stroke-opacity:1;stroke-miterlimit:4;" d="M 293.808594 212.652344 L 291.859375 218.824219 "/>
<path style="fill:none;stroke-width:1.5;stroke-linecap:butt;stroke-linejoin:miter;stroke:rgb(0%,0%,0%);stroke-opacity:1;stroke-miterlimit:4;" d="M 289.800781 211.480469 L 288.070312 217.71875 "/>
<path style="fill:none;stroke-width:1.5;stroke-linecap:butt;stroke-linejoin:miter;stroke:rgb(0%,0%,0%);stroke-opacity:1;stroke-miterlimit:4;" d="M 285.46875 210.765625 L 284.28125 217.132812 "/>
<path style="fill:none;stroke-width:1.5;stroke-linecap:butt;stroke-linejoin:miter;stroke:rgb(0%,0%,0%);stroke-opacity:1;stroke-miterlimit:4;" d="M 281.445312 209.964844 L 280.175781 216.3125 "/>
<path style="fill:none;stroke-width:1.5;stroke-linecap:butt;stroke-linejoin:miter;stroke:rgb(0%,0%,0%);stroke-opacity:1;stroke-miterlimit:4;" d="M 276.292969 209.453125 L 275.257812 215.84375 "/>
<path style="fill:none;stroke-width:1.5;stroke-linecap:butt;stroke-linejoin:miter;stroke:rgb(0%,0%,0%);stroke-opacity:1;stroke-miterlimit:4;" d="M 270.804688 209.460938 L 269.699219 215.839844 "/>
<path style="fill:none;stroke-width:1.5;stroke-linecap:butt;stroke-linejoin:miter;stroke:rgb(0%,0%,0%);stroke-opacity:1;stroke-miterlimit:4;" d="M 265.453125 207.652344 L 264.648438 214.078125 "/>
<path style="fill:none;stroke-width:1.5;stroke-linecap:butt;stroke-linejoin:miter;stroke:rgb(0%,0%,0%);stroke-opacity:1;stroke-miterlimit:4;" d="M 260.414062 207.980469 L 259.613281 214.398438 "/>
<path style="fill:none;stroke-width:1.5;stroke-linecap:butt;stroke-linejoin:miter;stroke:rgb(0%,0%,0%);stroke-opacity:1;stroke-miterlimit:4;" d="M 255.542969 207.324219 L 254.742188 213.75 "/>
<path style="fill:none;stroke-width:1.5;stroke-linecap:butt;stroke-linejoin:miter;stroke:rgb(0%,0%,0%);stroke-opacity:1;stroke-miterlimit:4;" d="M 250.648438 206.820312 L 250.210938 213.28125 "/>
<path style="fill:none;stroke-width:1.5;stroke-linecap:butt;stroke-linejoin:miter;stroke:rgb(0%,0%,0%);stroke-opacity:1;stroke-miterlimit:4;" d="M 245.421875 206.820312 L 245.039062 213.28125 "/>
<path style="fill:none;stroke-width:1.5;stroke-linecap:butt;stroke-linejoin:miter;stroke:rgb(0%,0%,0%);stroke-opacity:1;stroke-miterlimit:4;" d="M 240.679688 206.492188 L 240.355469 212.957031 "/>
<path style="fill:none;stroke-width:1.5;stroke-linecap:butt;stroke-linejoin:miter;stroke:rgb(0%,0%,0%);stroke-opacity:1;stroke-miterlimit:4;" d="M 235.453125 206.167969 L 235.179688 212.636719 "/>
<path style="fill:none;stroke-width:1.5;stroke-linecap:butt;stroke-linejoin:miter;stroke:rgb(0%,0%,0%);stroke-opacity:1;stroke-miterlimit:4;" d="M 229.445312 206.007812 L 229.171875 212.476562 "/>
<path style="fill:none;stroke-width:1.5;stroke-linecap:butt;stroke-linejoin:miter;stroke:rgb(0%,0%,0%);stroke-opacity:1;stroke-miterlimit:4;" d="M 221.96875 205.585938 L 221.96875 212.703125 "/>
</g>
</svg>
