<?xml version="1.0" encoding="UTF-8"?>
<svg xmlns="http://www.w3.org/2000/svg" xmlns:xlink="http://www.w3.org/1999/xlink" viewBox="0 0 1000 667" version="1.1">
<defs>
<clipPath id="clip1">
  <path d="M 0 0 L 1000 0 L 1000 666.71875 L 0 666.71875 Z M 0 0 "/>
</clipPath>
</defs>
<g id="surface715">
<g clip-path="url(#clip1)" clip-rule="nonzero">
<path style=" stroke:none;fill-rule:evenodd;fill:rgb(0%,47.058105%,36.862183%);fill-opacity:1;" d="M 0 666.667969 L 0 0 L 1000 0 L 1000 666.667969 Z M 0 666.667969 "/>
</g>
<path style=" stroke:none;fill-rule:evenodd;fill:rgb(98.429871%,81.959534%,8.627319%);fill-opacity:1;" d="M 500 125.695312 L 491.789062 151.011719 L 465.160156 151.011719 L 486.699219 166.660156 L 478.472656 191.960938 L 500 176.335938 L 521.527344 191.960938 L 513.300781 166.660156 L 534.839844 151.011719 L 508.210938 151.011719 Z M 394.945312 170.105469 L 400.339844 187.714844 L 385.246094 198.273438 L 403.652344 198.597656 L 409.039062 216.210938 L 415.039062 198.796875 L 433.453125 199.109375 L 418.753906 188.03125 L 424.738281 170.617188 L 409.644531 181.183594 Z M 605.054688 170.105469 L 590.355469 181.183594 L 575.261719 170.617188 L 581.246094 188.03125 L 566.546875 199.109375 L 584.960938 198.796875 L 590.960938 216.210938 L 596.347656 198.597656 L 614.753906 198.273438 L 599.660156 187.714844 Z M 360.054688 228.285156 L 352.28125 244.976562 L 334.003906 242.726562 L 347.472656 255.28125 L 339.6875 271.980469 L 355.792969 263.050781 L 369.257812 275.605469 L 365.75 257.53125 L 381.84375 248.601562 L 363.578125 246.367188 Z M 639.945312 228.285156 L 636.421875 246.367188 L 618.15625 248.601562 L 634.25 257.53125 L 630.742188 275.605469 L 644.207031 263.050781 L 660.3125 271.980469 L 652.527344 255.28125 L 665.996094 242.726562 L 647.71875 244.976562 Z M 639.945312 228.285156 "/>
<path style=" stroke:none;fill-rule:evenodd;fill:rgb(99.998474%,99.998474%,99.998474%);fill-opacity:1;" d="M 500 213.335938 C 476.089844 234.003906 460.9375 264.546875 460.9375 298.613281 C 460.9375 321.777344 467.941406 343.320312 479.949219 361.230469 C 465.207031 342.183594 456.425781 318.292969 456.425781 292.363281 C 456.425781 275.136719 460.300781 258.8125 467.21875 244.207031 C 462.4375 239.152344 458.808594 233.003906 456.757812 226.171875 C 447.488281 242.542969 442.191406 261.453125 442.191406 281.597656 C 442.191406 306.65625 450.378906 329.804688 464.238281 348.523438 C 440.113281 323.234375 406.085938 307.460938 368.402344 307.460938 C 366.378906 307.460938 364.363281 307.511719 362.355469 307.609375 C 366.152344 311.136719 369.332031 315.316406 371.738281 319.964844 C 409.222656 320.023438 443.0625 335.6875 467.128906 360.796875 C 444.144531 341.597656 414.558594 330.035156 382.296875 330.035156 C 364.257812 330.035156 347.0625 333.644531 331.386719 340.175781 C 347.496094 382.730469 388.632812 413.019531 436.804688 413.019531 C 439.925781 413.019531 443.019531 412.878906 446.074219 412.625 C 439.570312 413.796875 432.875 414.410156 426.039062 414.410156 C 395.648438 414.410156 368.0625 402.351562 347.789062 382.769531 C 343.5625 384.394531 339.039062 385.410156 334.316406 385.691406 C 354.972656 409.046875 385.148438 423.785156 418.753906 423.785156 C 450.667969 423.785156 479.492188 410.488281 500 389.136719 C 520.507812 410.488281 549.332031 423.785156 581.246094 423.785156 C 614.851562 423.785156 645.027344 409.046875 665.683594 385.691406 C 660.960938 385.410156 656.4375 384.394531 652.210938 382.769531 C 631.9375 402.351562 604.351562 414.410156 573.960938 414.410156 C 567.125 414.410156 560.429688 413.796875 553.925781 412.625 C 556.980469 412.878906 560.074219 413.019531 563.195312 413.019531 C 611.367188 413.019531 652.503906 382.730469 668.613281 340.175781 C 652.9375 333.644531 635.742188 330.035156 617.703125 330.035156 C 585.441406 330.035156 555.855469 341.597656 532.871094 360.796875 C 556.9375 335.6875 590.777344 320.023438 628.261719 319.964844 C 630.667969 315.316406 633.847656 311.136719 637.644531 307.609375 C 635.636719 307.511719 633.621094 307.460938 631.597656 307.460938 C 593.914062 307.460938 559.886719 323.234375 535.761719 348.523438 C 549.621094 329.804688 557.808594 306.65625 557.808594 281.597656 C 557.808594 261.453125 552.511719 242.542969 543.242188 226.171875 C 541.191406 233.003906 537.5625 239.152344 532.78125 244.207031 C 539.699219 258.8125 543.574219 275.136719 543.574219 292.363281 C 543.574219 318.292969 534.792969 342.183594 520.050781 361.230469 C 532.058594 343.320312 539.0625 321.777344 539.0625 298.613281 C 539.0625 264.546875 523.910156 234.003906 500 213.335938 Z M 500 401.292969 C 479.773438 420.601562 452.375 432.460938 422.222656 432.460938 L 334.539062 432.460938 C 337.121094 436.265625 339.828125 439.972656 342.664062 443.574219 L 427.433594 443.574219 C 455.070312 443.574219 480.386719 433.601562 500 417.066406 C 519.613281 433.601562 544.929688 443.574219 572.566406 443.574219 L 657.335938 443.574219 C 660.171875 439.972656 662.878906 436.265625 665.460938 432.460938 L 577.777344 432.460938 C 547.625 432.460938 520.226562 420.601562 500 401.292969 Z M 352.382812 455.035156 C 354.109375 456.921875 355.875 458.769531 357.675781 460.589844 L 642.324219 460.589844 C 644.125 458.769531 645.890625 456.921875 647.617188 455.035156 Z M 369.953125 472.050781 C 373.476562 475.0625 377.09375 477.960938 380.8125 480.726562 L 619.1875 480.726562 C 622.90625 477.960938 626.523438 475.0625 630.046875 472.050781 Z M 393.480469 489.414062 C 399.933594 493.484375 406.621094 497.195312 413.546875 500.515625 L 586.453125 500.515625 C 593.378906 497.195312 600.066406 493.484375 606.519531 489.414062 Z M 426.242188 506.074219 C 449.0625 515.152344 473.949219 520.136719 500 520.136719 C 526.050781 520.136719 550.9375 515.152344 573.757812 506.074219 Z M 426.242188 506.074219 "/>
</g>
</svg>
