<?xml version="1.0" encoding="UTF-8"?>
<svg xmlns="http://www.w3.org/2000/svg" xmlns:xlink="http://www.w3.org/1999/xlink" viewBox="0 0 1000 500" version="1.1">
<g id="surface735">
<rect x="0" y="0" width="1000" height="500" style="fill:rgb(79.998779%,0%,0.392151%);fill-opacity:1;stroke:none;"/>
<path style=" stroke:none;fill-rule:evenodd;fill:rgb(99.998474%,99.998474%,99.998474%);fill-opacity:1;" d="M 0 464.285156 L 1000 464.285156 L 1000 500 L 0 500 Z M 0 464.285156 "/>
<path style=" stroke:none;fill-rule:evenodd;fill:rgb(99.998474%,99.998474%,99.998474%);fill-opacity:1;" d="M 0 392.855469 L 1000 392.855469 L 1000 428.570312 L 0 428.570312 Z M 0 392.855469 "/>
<path style=" stroke:none;fill-rule:evenodd;fill:rgb(99.998474%,99.998474%,99.998474%);fill-opacity:1;" d="M 0 321.429688 L 1000 321.429688 L 1000 357.144531 L 0 357.144531 Z M 0 321.429688 "/>
<path style=" stroke:none;fill-rule:evenodd;fill:rgb(99.998474%,99.998474%,99.998474%);fill-opacity:1;" d="M 0 250 L 1000 250 L 1000 285.714844 L 0 285.714844 Z M 0 250 "/>
<path style=" stroke:none;fill-rule:evenodd;fill:rgb(99.998474%,99.998474%,99.998474%);fill-opacity:1;" d="M 0 178.570312 L 1000 178.570312 L 1000 214.285156 L 0 214.285156 Z M 0 178.570312 "/>
<path style=" stroke:none;fill-rule:evenodd;fill:rgb(99.998474%,99.998474%,99.998474%);fill-opacity:1;" d="M 0 107.144531 L 1000 107.144531 L 1000 142.855469 L 0 142.855469 Z M 0 107.144531 "/>
<path style=" stroke:none;fill-rule:evenodd;fill:rgb(99.998474%,99.998474%,99.998474%);fill-opacity:1;" d="M 0 35.714844 L 1000 35.714844 L 1000 71.429688 L 0 71.429688 Z M 0 35.714844 "/>
<path style=" stroke:none;fill-rule:evenodd;fill:rgb(0.392151%,0%,39.99939%);fill-opacity:1;" d="M 0 0 L 500 0 L 500 285.714844 L 0 285.714844 Z M 0 0 "/>
<path style=" stroke:none;fill-rule:evenodd;fill:rgb(99.998474%,79.998779%,0%);fill-opacity:1;" d="M 205.714844 35.714844 C 146.375 35.714844 98.214844 83.714844 98.214844 142.855469 C 98.214844 202 146.375 250 205.714844 250 C 227.152344 250 247.125 243.726562 263.902344 232.933594 C 254.132812 236.304688 243.648438 238.152344 232.734375 238.152344 C 180.117188 238.152344 137.414062 195.589844 137.414062 143.144531 C 137.414062 90.703125 180.117188 48.144531 232.734375 48.144531 C 244.363281 48.144531 255.5 50.21875 265.804688 54.023438 C 248.648438 42.46875 227.964844 35.714844 205.714844 35.714844 Z M 205.714844 35.714844 "/>
<path style=" stroke:none;fill-rule:evenodd;fill:rgb(99.998474%,79.998779%,0%);fill-opacity:1;" d="M 383.988281 198.632812 L 338.707031 175.007812 L 352.09375 223.359375 L 321.808594 182.914062 L 312.359375 232.144531 L 303.066406 182.882812 L 272.652344 223.242188 L 286.191406 174.929688 L 240.835938 198.417969 L 274.527344 160.621094 L 223.214844 162.589844 L 270.386719 142.792969 L 223.277344 122.855469 L 274.585938 124.980469 L 241.011719 87.082031 L 286.292969 110.707031 L 272.90625 62.355469 L 303.191406 102.800781 L 312.640625 53.570312 L 321.933594 102.832031 L 352.347656 62.472656 L 338.808594 110.785156 L 384.164062 87.296875 L 350.472656 125.09375 L 401.785156 123.125 L 354.613281 142.921875 L 401.722656 162.859375 L 350.414062 160.734375 Z M 383.988281 198.632812 "/>
</g>
</svg>
