<?xml version="1.0" encoding="UTF-8"?>
<svg xmlns="http://www.w3.org/2000/svg" xmlns:xlink="http://www.w3.org/1999/xlink" viewBox="0 0 1000 667" version="1.1">
<defs>
<clipPath id="clip1">
  <path d="M 0 0 L 1000 0 L 1000 666.71875 L 0 666.71875 Z M 0 0 "/>
</clipPath>
<clipPath id="clip2">
  <path d="M 0 444 L 1000 444 L 1000 666.71875 L 0 666.71875 Z M 0 444 "/>
</clipPath>
</defs>
<g id="surface730">
<g clip-path="url(#clip1)" clip-rule="nonzero">
<path style=" stroke:none;fill-rule:evenodd;fill:rgb(0%,0%,0%);fill-opacity:1;" d="M 0 666.667969 L 0 0 L 1000 0 L 1000 666.667969 Z M 0 666.667969 "/>
</g>
<path style=" stroke:none;fill-rule:evenodd;fill:rgb(80.783081%,6.666565%,14.901733%);fill-opacity:1;" d="M 643.332031 253.332031 C 643.332031 332.492188 579.160156 396.667969 500 396.667969 C 420.839844 396.667969 356.667969 332.492188 356.667969 253.332031 C 356.667969 174.167969 420.839844 110 500 110 C 579.160156 110 643.332031 174.167969 643.332031 253.332031 Z M 643.332031 253.332031 "/>
<path style=" stroke:none;fill-rule:evenodd;fill:rgb(80.783081%,6.666565%,14.901733%);fill-opacity:1;" d="M 0 222.222656 L 1000 222.222656 L 1000 444.445312 L 0 444.445312 Z M 0 222.222656 "/>
<path style=" stroke:none;fill-rule:evenodd;fill:rgb(80.783081%,6.666565%,14.901733%);fill-opacity:1;" d="M 500 26.664062 C 495.109375 26.664062 493.332031 34 493.332031 41.113281 C 493.332031 58.886719 495.558594 67.777344 500 93.332031 C 504.535156 67.777344 506.667969 58.664062 506.667969 41.113281 C 506.667969 33.777344 504.441406 26.664062 500 26.664062 Z M 500 26.664062 "/>
<path style=" stroke:none;fill-rule:evenodd;fill:rgb(80.783081%,6.666565%,14.901733%);fill-opacity:1;" d="M 519.753906 27.527344 C 514.886719 27.105469 512.472656 34.253906 511.855469 41.335938 C 510.308594 59.050781 511.746094 68.097656 513.941406 93.941406 C 520.6875 68.878906 523.605469 59.988281 525.136719 42.503906 C 525.777344 35.195312 524.179688 27.917969 519.753906 27.527344 Z M 519.753906 27.527344 "/>
<path style=" stroke:none;fill-rule:evenodd;fill:rgb(80.783081%,6.666565%,14.901733%);fill-opacity:1;" d="M 539.359375 30.109375 C 534.542969 29.257812 531.519531 36.175781 530.285156 43.175781 C 527.195312 60.6875 527.84375 69.824219 527.785156 95.761719 C 536.6875 71.382812 540.371094 62.78125 543.417969 45.492188 C 544.6875 38.269531 543.738281 30.878906 539.359375 30.109375 Z M 539.359375 30.109375 "/>
<path style=" stroke:none;fill-rule:evenodd;fill:rgb(80.783081%,6.666565%,14.901733%);fill-opacity:1;" d="M 558.664062 34.390625 C 553.945312 33.128906 550.324219 39.746094 548.484375 46.613281 C 543.886719 63.792969 543.734375 72.949219 541.410156 98.785156 C 552.402344 75.269531 556.824219 67.023438 561.367188 50.070312 C 563.265625 42.984375 562.960938 35.542969 558.664062 34.390625 Z M 558.664062 34.390625 "/>
<path style=" stroke:none;fill-rule:evenodd;fill:rgb(80.783081%,6.666565%,14.901733%);fill-opacity:1;" d="M 577.523438 40.335938 C 572.933594 38.667969 568.75 44.949219 566.320312 51.628906 C 560.238281 68.335938 559.289062 77.445312 554.726562 102.984375 C 567.726562 80.519531 572.847656 72.6875 578.847656 56.191406 C 581.359375 49.300781 581.699219 41.855469 577.523438 40.335938 Z M 577.523438 40.335938 "/>
<path style=" stroke:none;fill-rule:evenodd;fill:rgb(80.783081%,6.666565%,14.901733%);fill-opacity:1;" d="M 595.796875 47.90625 C 591.363281 45.839844 586.652344 51.730469 583.648438 58.175781 C 576.132812 74.289062 574.390625 83.285156 567.621094 108.320312 C 582.53125 87.078125 588.3125 79.726562 595.730469 63.8125 C 598.828125 57.167969 599.820312 49.785156 595.796875 47.90625 Z M 595.796875 47.90625 "/>
<path style=" stroke:none;fill-rule:evenodd;fill:rgb(80.783081%,6.666565%,14.901733%);fill-opacity:1;" d="M 613.335938 57.035156 C 609.097656 54.589844 603.894531 60.054688 600.335938 66.210938 C 591.449219 81.609375 588.925781 90.414062 580.003906 114.769531 C 596.703125 94.90625 603.109375 88.082031 611.886719 72.878906 C 615.546875 66.523438 617.183594 59.253906 613.335938 57.035156 Z M 613.335938 57.035156 "/>
<path style=" stroke:none;fill-rule:evenodd;fill:rgb(80.783081%,6.666565%,14.901733%);fill-opacity:1;" d="M 630.011719 67.660156 C 626.003906 64.855469 620.34375 69.839844 616.265625 75.667969 C 606.066406 90.230469 602.789062 98.785156 591.769531 122.269531 C 610.144531 103.933594 617.117188 97.695312 627.1875 83.316406 C 631.390625 77.304688 633.652344 70.210938 630.011719 67.660156 Z M 630.011719 67.660156 "/>
<path style=" stroke:none;fill-rule:evenodd;fill:rgb(80.783081%,6.666565%,14.901733%);fill-opacity:1;" d="M 645.695312 79.699219 C 641.953125 76.550781 635.878906 81.027344 631.304688 86.476562 C 619.878906 100.097656 615.871094 108.332031 602.847656 130.765625 C 622.742188 114.105469 630.234375 108.496094 641.519531 95.046875 C 646.234375 89.433594 649.105469 82.554688 645.695312 79.699219 Z M 645.695312 79.699219 "/>
<path style=" stroke:none;fill-rule:evenodd;fill:rgb(80.783081%,6.666565%,14.901733%);fill-opacity:1;" d="M 660.273438 93.054688 C 656.820312 89.601562 650.378906 93.527344 645.351562 98.558594 C 632.78125 111.128906 628.066406 118.984375 613.132812 140.195312 C 634.414062 125.332031 642.367188 120.398438 654.777344 107.984375 C 659.960938 102.800781 663.421875 96.195312 660.273438 93.054688 Z M 660.273438 93.054688 "/>
<path style=" stroke:none;fill-rule:evenodd;fill:rgb(80.783081%,6.666565%,14.901733%);fill-opacity:1;" d="M 673.640625 107.632812 C 670.492188 103.890625 663.730469 107.242188 658.285156 111.8125 C 644.667969 123.242188 639.285156 130.652344 622.570312 150.488281 C 645.058594 137.53125 653.40625 133.3125 666.855469 122.027344 C 672.476562 117.3125 676.492188 111.039062 673.640625 107.632812 Z M 673.640625 107.632812 "/>
<path style=" stroke:none;fill-rule:evenodd;fill:rgb(80.783081%,6.666565%,14.901733%);fill-opacity:1;" d="M 685.679688 123.324219 C 682.871094 119.320312 675.839844 122.070312 670.019531 126.144531 C 655.457031 136.34375 649.445312 143.261719 631.066406 161.5625 C 654.601562 150.617188 663.285156 147.140625 677.664062 137.066406 C 683.675781 132.859375 688.222656 126.964844 685.679688 123.324219 Z M 685.679688 123.324219 "/>
<path style=" stroke:none;fill-rule:evenodd;fill:rgb(80.783081%,6.666565%,14.901733%);fill-opacity:1;" d="M 696.300781 140 C 693.851562 135.765625 686.617188 137.890625 680.457031 141.449219 C 665.0625 150.335938 658.476562 156.707031 638.5625 173.335938 C 662.960938 164.480469 671.917969 161.773438 687.125 152.996094 C 693.472656 149.328125 698.519531 143.847656 696.300781 140 Z M 696.300781 140 "/>
<path style=" stroke:none;fill-rule:evenodd;fill:rgb(80.783081%,6.666565%,14.901733%);fill-opacity:1;" d="M 705.429688 157.542969 C 703.363281 153.109375 695.964844 154.597656 689.523438 157.601562 C 673.410156 165.117188 666.292969 170.886719 645.007812 185.714844 C 670.085938 179.019531 679.25 177.105469 695.15625 169.6875 C 701.800781 166.585938 707.308594 161.566406 705.429688 157.542969 Z M 705.429688 157.542969 "/>
<path style=" stroke:none;fill-rule:evenodd;fill:rgb(80.783081%,6.666565%,14.901733%);fill-opacity:1;" d="M 713 175.808594 C 711.320312 171.210938 703.824219 172.054688 697.140625 174.484375 C 680.4375 180.566406 672.847656 185.691406 650.351562 198.609375 C 675.917969 194.128906 685.207031 193.019531 701.703125 187.011719 C 708.59375 184.503906 714.519531 179.984375 713 175.808594 Z M 713 175.808594 "/>
<path style=" stroke:none;fill-rule:evenodd;fill:rgb(80.783081%,6.666565%,14.901733%);fill-opacity:1;" d="M 718.945312 194.667969 C 717.675781 189.945312 710.132812 190.125 703.265625 191.964844 C 686.09375 196.566406 678.082031 201.015625 654.546875 211.925781 C 680.402344 209.683594 689.757812 209.390625 706.714844 204.84375 C 713.804688 202.945312 720.097656 198.957031 718.945312 194.667969 Z M 718.945312 194.667969 "/>
<path style=" stroke:none;fill-rule:evenodd;fill:rgb(80.783081%,6.666565%,14.901733%);fill-opacity:1;" d="M 276.777344 213.976562 C 275.929688 218.789062 282.839844 221.808594 289.84375 223.046875 C 307.351562 226.132812 316.492188 225.488281 342.433594 225.546875 C 318.050781 216.644531 309.453125 212.964844 292.160156 209.917969 C 284.9375 208.644531 277.550781 209.597656 276.777344 213.976562 Z M 276.777344 213.976562 "/>
<path style=" stroke:none;fill-rule:evenodd;fill:rgb(80.783081%,6.666565%,14.901733%);fill-opacity:1;" d="M 281.054688 194.667969 C 279.789062 199.390625 286.414062 203.003906 293.285156 204.84375 C 310.453125 209.445312 319.617188 209.601562 345.453125 211.925781 C 321.941406 200.929688 313.691406 196.511719 296.734375 191.964844 C 289.648438 190.066406 282.207031 190.375 281.054688 194.667969 Z M 281.054688 194.667969 "/>
<path style=" stroke:none;fill-rule:evenodd;fill:rgb(80.783081%,6.666565%,14.901733%);fill-opacity:1;" d="M 287 175.808594 C 285.332031 180.402344 291.613281 184.582031 298.296875 187.011719 C 315 193.09375 324.117188 194.046875 349.648438 198.609375 C 327.1875 185.613281 319.351562 180.492188 302.859375 174.484375 C 295.964844 171.976562 288.523438 171.628906 287 175.808594 Z M 287 175.808594 "/>
<path style=" stroke:none;fill-rule:evenodd;fill:rgb(80.783081%,6.666565%,14.901733%);fill-opacity:1;" d="M 294.570312 157.542969 C 292.503906 161.96875 298.398438 166.683594 304.84375 169.6875 C 320.957031 177.195312 329.953125 178.945312 354.992188 185.714844 C 333.746094 170.804688 326.390625 165.023438 310.476562 157.601562 C 303.832031 154.503906 296.445312 153.507812 294.570312 157.542969 Z M 294.570312 157.542969 "/>
<path style=" stroke:none;fill-rule:evenodd;fill:rgb(80.783081%,6.666565%,14.901733%);fill-opacity:1;" d="M 303.699219 140 C 301.257812 144.234375 306.714844 149.441406 312.875 152.996094 C 328.269531 161.886719 337.082031 164.402344 361.4375 173.335938 C 341.570312 156.628906 334.75 150.226562 319.542969 141.449219 C 313.195312 137.78125 305.925781 136.148438 303.699219 140 Z M 303.699219 140 "/>
<path style=" stroke:none;fill-rule:evenodd;fill:rgb(80.783081%,6.666565%,14.901733%);fill-opacity:1;" d="M 314.320312 123.324219 C 311.523438 127.328125 316.507812 132.992188 322.335938 137.066406 C 336.898438 147.265625 345.453125 150.542969 368.933594 161.5625 C 350.601562 143.191406 344.363281 136.214844 329.980469 126.144531 C 323.976562 121.941406 316.871094 119.683594 314.320312 123.324219 Z M 314.320312 123.324219 "/>
<path style=" stroke:none;fill-rule:evenodd;fill:rgb(80.783081%,6.666565%,14.901733%);fill-opacity:1;" d="M 326.359375 107.632812 C 323.222656 111.382812 327.695312 117.453125 333.144531 122.027344 C 346.761719 133.453125 354.996094 137.46875 377.429688 150.488281 C 360.769531 130.585938 355.160156 123.097656 341.714844 111.8125 C 336.09375 107.097656 329.222656 104.230469 326.359375 107.632812 Z M 326.359375 107.632812 "/>
<path style=" stroke:none;fill-rule:evenodd;fill:rgb(80.783081%,6.666565%,14.901733%);fill-opacity:1;" d="M 339.726562 93.054688 C 336.261719 96.511719 340.195312 102.957031 345.222656 107.984375 C 357.789062 120.558594 365.652344 125.265625 386.867188 140.195312 C 372 118.917969 367.0625 110.96875 354.648438 98.558594 C 349.460938 93.371094 342.867188 89.914062 339.726562 93.054688 Z M 339.726562 93.054688 "/>
<path style=" stroke:none;fill-rule:evenodd;fill:rgb(80.783081%,6.666565%,14.901733%);fill-opacity:1;" d="M 354.304688 79.699219 C 350.558594 82.839844 353.90625 89.601562 358.480469 95.046875 C 369.90625 108.664062 377.320312 114.046875 397.152344 130.765625 C 384.203125 108.273438 379.976562 99.921875 368.695312 86.476562 C 363.980469 80.859375 357.703125 76.839844 354.304688 79.699219 Z M 354.304688 79.699219 "/>
<path style=" stroke:none;fill-rule:evenodd;fill:rgb(80.783081%,6.666565%,14.901733%);fill-opacity:1;" d="M 369.988281 67.660156 C 365.984375 70.464844 368.734375 77.492188 372.8125 83.316406 C 383.007812 97.878906 389.929688 103.882812 408.230469 122.269531 C 397.28125 98.734375 393.804688 90.050781 383.734375 75.667969 C 379.53125 69.660156 373.628906 65.109375 369.988281 67.660156 Z M 369.988281 67.660156 "/>
<path style=" stroke:none;fill-rule:evenodd;fill:rgb(80.783081%,6.666565%,14.901733%);fill-opacity:1;" d="M 386.664062 57.035156 C 382.433594 59.476562 384.558594 66.722656 388.113281 72.878906 C 397.003906 88.269531 403.375 94.863281 419.996094 114.769531 C 411.148438 90.371094 408.441406 81.414062 399.664062 66.210938 C 395.996094 59.859375 390.515625 54.8125 386.664062 57.035156 Z M 386.664062 57.035156 "/>
<path style=" stroke:none;fill-rule:evenodd;fill:rgb(80.783081%,6.666565%,14.901733%);fill-opacity:1;" d="M 404.203125 47.90625 C 399.777344 49.96875 401.265625 57.367188 404.269531 63.8125 C 411.785156 79.925781 417.550781 87.039062 432.378906 108.320312 C 425.6875 83.246094 423.773438 74.089844 416.351562 58.175781 C 413.253906 51.53125 408.234375 46.023438 404.203125 47.90625 Z M 404.203125 47.90625 "/>
<path style=" stroke:none;fill-rule:evenodd;fill:rgb(80.783081%,6.666565%,14.901733%);fill-opacity:1;" d="M 422.476562 40.335938 C 417.882812 42.007812 418.71875 49.507812 421.152344 56.191406 C 427.230469 72.894531 432.363281 80.492188 445.273438 102.984375 C 440.796875 77.417969 439.6875 68.125 433.679688 51.628906 C 431.171875 44.738281 426.648438 38.816406 422.476562 40.335938 Z M 422.476562 40.335938 "/>
<path style=" stroke:none;fill-rule:evenodd;fill:rgb(80.783081%,6.666565%,14.901733%);fill-opacity:1;" d="M 441.335938 34.390625 C 436.609375 35.65625 436.792969 43.195312 438.632812 50.070312 C 443.234375 67.242188 447.683594 75.25 458.589844 98.785156 C 456.351562 72.929688 456.054688 63.574219 451.515625 46.613281 C 449.617188 39.535156 445.628906 33.242188 441.335938 34.390625 Z M 441.335938 34.390625 "/>
<path style=" stroke:none;fill-rule:evenodd;fill:rgb(80.783081%,6.666565%,14.901733%);fill-opacity:1;" d="M 460.640625 30.109375 C 455.828125 30.957031 455.351562 38.488281 456.582031 45.492188 C 459.667969 63 463.398438 71.371094 472.214844 95.761719 C 472.246094 69.808594 472.757812 60.464844 469.714844 43.175781 C 468.441406 35.953125 465.015625 29.339844 460.640625 30.109375 Z M 460.640625 30.109375 "/>
<path style=" stroke:none;fill-rule:evenodd;fill:rgb(80.783081%,6.666565%,14.901733%);fill-opacity:1;" d="M 480.246094 27.527344 C 475.375 27.957031 474.242188 35.417969 474.863281 42.503906 C 476.410156 60.210938 479.398438 68.871094 486.058594 93.941406 C 488.347656 68.085938 489.675781 58.828125 488.144531 41.335938 C 487.503906 34.035156 484.671875 27.144531 480.246094 27.527344 Z M 480.246094 27.527344 "/>
<path style=" stroke:none;fill-rule:evenodd;fill:rgb(0%,0%,0%);fill-opacity:1;" d="M 0 205.554688 L 1000 205.554688 L 1000 222.222656 L 0 222.222656 Z M 0 205.554688 "/>
<g clip-path="url(#clip2)" clip-rule="nonzero">
<path style=" stroke:none;fill-rule:evenodd;fill:rgb(19.999695%,61.959839%,20.783997%);fill-opacity:1;" d="M 0 444.445312 L 1000 444.445312 L 1000 666.667969 L 0 666.667969 Z M 0 444.445312 "/>
</g>
</g>
</svg>
