<?xml version="1.0" encoding="UTF-8"?>
<svg xmlns="http://www.w3.org/2000/svg" xmlns:xlink="http://www.w3.org/1999/xlink" viewBox="0 0 1000 667" version="1.1">
<defs>
<clipPath id="clip1">
  <path d="M 500 0 L 1000 0 L 1000 666.71875 L 500 666.71875 Z M 500 0 "/>
</clipPath>
<clipPath id="clip2">
  <path d="M 0 0 L 500 0 L 500 666.71875 L 0 666.71875 Z M 0 0 "/>
</clipPath>
</defs>
<g id="surface750">
<g clip-path="url(#clip1)" clip-rule="nonzero">
<path style=" stroke:none;fill-rule:evenodd;fill:rgb(81.175232%,7.843018%,16.862488%);fill-opacity:1;" d="M 500 0 L 1000 0 L 1000 666.667969 L 500 666.667969 Z M 500 0 "/>
</g>
<g clip-path="url(#clip2)" clip-rule="nonzero">
<path style=" stroke:none;fill-rule:evenodd;fill:rgb(99.998474%,99.998474%,99.998474%);fill-opacity:1;" d="M 0 0 L 500 0 L 500 666.667969 L 0 666.667969 Z M 0 0 "/>
</g>
<path style=" stroke:none;fill-rule:evenodd;fill:rgb(94.508362%,93.331909%,93.331909%);fill-opacity:1;" d="M 111.6875 101.652344 C 111.6875 102.75 110.445312 103.644531 108.910156 103.644531 C 107.367188 103.644531 106.125 102.75 106.125 101.652344 C 106.125 100.554688 107.367188 99.660156 108.910156 99.660156 C 110.445312 99.660156 111.6875 100.554688 111.6875 101.652344 Z M 111.6875 101.652344 "/>
<path style=" stroke:none;fill-rule:evenodd;fill:rgb(90.194702%,5.097961%,18.03894%);fill-opacity:1;" d="M 24.691406 92.03125 L 24.691406 142.539062 L 75.195312 142.539062 C 75.195312 150.957031 83.617188 159.375 92.03125 159.375 L 92.03125 209.878906 L 142.535156 209.878906 L 142.535156 159.375 C 150.957031 159.375 159.371094 150.957031 159.371094 142.539062 L 209.875 142.539062 L 209.875 92.03125 L 159.371094 92.03125 C 159.371094 83.617188 150.957031 75.195312 142.535156 75.195312 L 142.535156 24.691406 L 92.03125 24.691406 L 92.03125 75.195312 C 83.617188 75.195312 75.195312 83.617188 75.195312 92.03125 Z M 24.691406 92.03125 "/>
<path style=" stroke:none;fill-rule:evenodd;fill:rgb(58.822632%,52.940369%,49.01886%);fill-opacity:1;" d="M 28.058594 95.394531 L 28.058594 139.171875 L 78.5625 139.171875 C 78.5625 147.585938 86.980469 156.003906 95.398438 156.003906 L 95.398438 206.511719 L 139.164062 206.511719 L 139.164062 156.003906 C 147.585938 156.003906 156.003906 147.585938 156.003906 139.171875 L 206.503906 139.171875 L 206.503906 95.394531 L 156.003906 95.394531 C 156.003906 86.980469 147.585938 78.5625 139.164062 78.5625 L 139.164062 28.058594 L 95.398438 28.058594 L 95.398438 78.5625 C 86.980469 78.5625 78.5625 86.980469 78.5625 95.394531 Z M 28.058594 95.394531 "/>
<path style=" stroke:none;fill-rule:evenodd;fill:rgb(79.998779%,79.998779%,79.998779%);fill-opacity:1;" d="M 29.742188 97.082031 L 29.742188 137.484375 L 80.246094 137.484375 C 80.246094 145.898438 88.667969 154.324219 97.082031 154.324219 L 97.082031 204.828125 L 137.484375 204.828125 L 137.484375 154.324219 C 145.902344 154.324219 154.324219 145.898438 154.324219 137.484375 L 204.824219 137.484375 L 204.824219 97.082031 L 154.324219 97.082031 C 154.324219 88.667969 145.902344 80.246094 137.484375 80.246094 L 137.484375 29.742188 L 97.082031 29.742188 L 97.082031 80.246094 C 88.667969 80.246094 80.246094 88.667969 80.246094 97.082031 Z M 29.742188 97.082031 "/>
<path style=" stroke:none;fill-rule:evenodd;fill:rgb(58.822632%,52.940369%,49.01886%);fill-opacity:1;" d="M 93.929688 79.644531 C 96.886719 82.605469 96.089844 88.199219 92.144531 92.144531 C 88.199219 96.089844 82.601562 96.890625 79.644531 93.929688 C 76.6875 90.972656 77.484375 85.375 81.429688 81.429688 C 85.375 77.484375 90.972656 76.6875 93.929688 79.644531 Z M 93.929688 79.644531 "/>
<path style=" stroke:none;fill-rule:evenodd;fill:rgb(81.567383%,81.567383%,81.567383%);fill-opacity:1;" d="M 79.046875 88.574219 L 80.242188 87.378906 L 85 89.761719 L 82.617188 85 L 83.8125 83.8125 L 88.570312 93.332031 L 79.046875 88.570312 Z M 79.046875 88.574219 "/>
<path style=" stroke:none;fill-rule:evenodd;fill:rgb(81.567383%,81.567383%,81.567383%);fill-opacity:1;" d="M 86.191406 81.429688 L 87.378906 80.242188 L 94.527344 87.378906 L 93.332031 88.574219 Z M 86.191406 81.429688 "/>
<path style=" stroke:none;fill-rule:evenodd;fill:rgb(58.822632%,52.940369%,49.01886%);fill-opacity:1;" d="M 154.925781 93.929688 C 151.964844 96.886719 146.371094 96.089844 142.425781 92.144531 C 138.480469 88.199219 137.679688 82.601562 140.640625 79.644531 C 143.597656 76.6875 149.191406 77.484375 153.136719 81.429688 C 157.085938 85.375 157.882812 90.972656 154.925781 93.929688 Z M 154.925781 93.929688 "/>
<path style=" stroke:none;fill-rule:evenodd;fill:rgb(81.567383%,81.567383%,81.567383%);fill-opacity:1;" d="M 145.996094 79.046875 L 147.183594 80.242188 L 144.804688 85.003906 L 149.566406 82.621094 L 150.757812 83.816406 L 141.234375 88.574219 L 145.996094 79.054688 Z M 145.996094 79.046875 "/>
<path style=" stroke:none;fill-rule:evenodd;fill:rgb(81.567383%,81.567383%,81.567383%);fill-opacity:1;" d="M 153.136719 86.191406 L 154.328125 87.378906 L 147.183594 94.527344 L 145.996094 93.335938 Z M 153.136719 86.191406 "/>
<path style=" stroke:none;fill-rule:evenodd;fill:rgb(58.822632%,52.940369%,49.01886%);fill-opacity:1;" d="M 140.636719 154.925781 C 137.679688 151.96875 138.480469 146.371094 142.425781 142.425781 C 146.371094 138.480469 151.964844 137.683594 154.921875 140.640625 C 157.882812 143.597656 157.082031 149.195312 153.136719 153.140625 C 149.191406 157.085938 143.597656 157.882812 140.636719 154.925781 Z M 140.636719 154.925781 "/>
<path style=" stroke:none;fill-rule:evenodd;fill:rgb(81.567383%,81.567383%,81.567383%);fill-opacity:1;" d="M 155.519531 146 L 154.328125 147.191406 L 149.566406 144.808594 L 151.945312 149.570312 L 150.757812 150.765625 L 145.996094 141.238281 Z M 155.519531 146 "/>
<path style=" stroke:none;fill-rule:evenodd;fill:rgb(81.567383%,81.567383%,81.567383%);fill-opacity:1;" d="M 148.378906 153.140625 L 147.183594 154.328125 L 140.042969 147.191406 L 141.234375 146 Z M 148.378906 153.140625 "/>
<path style=" stroke:none;fill-rule:evenodd;fill:rgb(58.822632%,52.940369%,49.01886%);fill-opacity:1;" d="M 79.644531 140.640625 C 82.601562 137.683594 88.199219 138.480469 92.144531 142.425781 C 96.089844 146.371094 96.886719 151.96875 93.929688 154.925781 C 90.972656 157.890625 85.375 157.085938 81.429688 153.140625 C 77.484375 149.195312 76.6875 143.597656 79.644531 140.640625 Z M 79.644531 140.640625 "/>
<path style=" stroke:none;fill-rule:evenodd;fill:rgb(81.567383%,81.567383%,81.567383%);fill-opacity:1;" d="M 88.570312 155.523438 L 87.378906 154.328125 L 89.761719 149.570312 L 85 151.945312 L 83.8125 150.757812 L 93.332031 145.996094 L 88.570312 155.519531 Z M 88.570312 155.523438 "/>
<path style=" stroke:none;fill-rule:evenodd;fill:rgb(81.567383%,81.567383%,81.567383%);fill-opacity:1;" d="M 81.429688 148.378906 L 80.242188 147.191406 L 87.378906 140.042969 L 88.574219 141.238281 Z M 81.429688 148.378906 "/>
<path style="fill:none;stroke-width:0.571558;stroke-linecap:butt;stroke-linejoin:miter;stroke:rgb(58.822632%,52.940369%,49.01886%);stroke-opacity:1;stroke-miterlimit:4;" d="M 152.636719 117.285156 C 152.640625 136.816406 136.8125 152.648438 117.285156 152.648438 C 97.753906 152.648438 81.929688 136.816406 81.929688 117.285156 C 81.929688 97.757812 97.753906 81.921875 117.285156 81.921875 C 136.8125 81.921875 152.640625 97.757812 152.636719 117.285156 Z M 152.636719 117.285156 "/>
<path style="fill:none;stroke-width:0.571558;stroke-linecap:butt;stroke-linejoin:miter;stroke:rgb(58.822632%,52.940369%,49.01886%);stroke-opacity:1;stroke-miterlimit:4;" d="M 144.214844 117.285156 C 144.222656 132.167969 132.160156 144.226562 117.285156 144.226562 C 102.402344 144.226562 90.34375 132.167969 90.347656 117.285156 C 90.34375 102.410156 102.402344 90.34375 117.285156 90.34375 C 132.160156 90.34375 144.222656 102.410156 144.214844 117.285156 Z M 144.214844 117.285156 "/>
<path style=" stroke:none;fill-rule:evenodd;fill:rgb(0%,0%,0%);fill-opacity:1;" d="M 105.5 145.902344 C 105.5 146.503906 105.179688 147.066406 104.660156 147.363281 C 104.132812 147.667969 103.496094 147.667969 102.972656 147.363281 C 102.453125 147.066406 102.132812 146.503906 102.132812 145.902344 C 102.132812 145.300781 102.453125 144.75 102.972656 144.445312 C 103.496094 144.140625 104.132812 144.140625 104.660156 144.445312 C 105.179688 144.75 105.5 145.300781 105.5 145.902344 Z M 105.5 145.902344 "/>
<path style=" stroke:none;fill-rule:evenodd;fill:rgb(0%,0%,0%);fill-opacity:1;" d="M 132.433594 145.902344 C 132.4375 146.503906 132.113281 147.066406 131.589844 147.363281 C 131.070312 147.667969 130.429688 147.667969 129.910156 147.363281 C 129.390625 147.066406 129.070312 146.503906 129.070312 145.902344 C 129.070312 145.300781 129.390625 144.75 129.910156 144.445312 C 130.429688 144.140625 131.070312 144.140625 131.589844 144.445312 C 132.113281 144.75 132.4375 145.300781 132.433594 145.902344 Z M 132.433594 145.902344 "/>
<path style=" stroke:none;fill-rule:evenodd;fill:rgb(0%,0%,0%);fill-opacity:1;" d="M 116.164062 145.902344 L 116.164062 147.660156 L 113.917969 147.660156 C 111.667969 147.660156 111.667969 149.414062 113.917969 149.414062 L 116.164062 149.414062 L 116.164062 151.171875 C 116.167969 152.988281 118.121094 153.210938 118.261719 151.324219 L 118.410156 149.425781 L 120.648438 149.425781 C 122.894531 149.425781 122.894531 147.671875 120.648438 147.671875 L 118.410156 147.671875 L 118.410156 145.914062 C 118.410156 144.164062 116.164062 144.164062 116.164062 145.914062 Z M 116.164062 145.902344 "/>
<path style=" stroke:none;fill-rule:evenodd;fill:rgb(58.822632%,52.940369%,49.01886%);fill-opacity:1;" d="M 136.5 122.429688 C 137.09375 122.28125 138.0625 122.402344 138.0625 122.402344 C 138.0625 122.402344 138.152344 122.808594 137.894531 122.945312 C 138.179688 123.105469 139.203125 123.058594 139.203125 123.058594 C 139.203125 123.058594 138.808594 123.359375 138.605469 123.480469 C 138.976562 123.519531 139.433594 123.996094 139.433594 123.996094 C 139.433594 123.996094 138.578125 124.136719 138.210938 123.9375 C 138.4375 124.390625 138.40625 124.792969 138.40625 124.792969 C 138.40625 124.792969 137.027344 124.453125 136.527344 123.539062 Z M 136.5 122.429688 "/>
<path style="fill:none;stroke-width:0.225453;stroke-linecap:butt;stroke-linejoin:miter;stroke:rgb(0%,0%,0%);stroke-opacity:1;stroke-miterlimit:4;" d="M 136.5 122.429688 C 137.09375 122.28125 138.0625 122.402344 138.0625 122.402344 C 138.0625 122.402344 138.152344 122.808594 137.894531 122.945312 C 138.179688 123.105469 139.203125 123.058594 139.203125 123.058594 C 139.203125 123.058594 138.808594 123.359375 138.605469 123.480469 C 138.976562 123.519531 139.433594 123.996094 139.433594 123.996094 C 139.433594 123.996094 138.578125 124.136719 138.210938 123.9375 C 138.4375 124.390625 138.40625 124.792969 138.40625 124.792969 C 138.40625 124.792969 137.027344 124.453125 136.527344 123.539062 "/>
<path style=" stroke:none;fill-rule:evenodd;fill:rgb(58.822632%,52.940369%,49.01886%);fill-opacity:1;" d="M 134.195312 121.660156 C 133.859375 122.488281 131.402344 120.945312 131.402344 120.945312 C 131.402344 120.945312 132.488281 122.660156 134.109375 122.855469 Z M 134.195312 121.660156 "/>
<path style="fill:none;stroke-width:0.225453;stroke-linecap:butt;stroke-linejoin:miter;stroke:rgb(0%,0%,0%);stroke-opacity:1;stroke-miterlimit:4;" d="M 134.195312 121.660156 C 133.859375 122.488281 131.402344 120.945312 131.402344 120.945312 C 131.402344 120.945312 132.488281 122.660156 134.109375 122.855469 "/>
<path style="fill-rule:evenodd;fill:rgb(58.822632%,52.940369%,49.01886%);fill-opacity:1;stroke-width:0.225453;stroke-linecap:butt;stroke-linejoin:miter;stroke:rgb(0%,0%,0%);stroke-opacity:1;stroke-miterlimit:4;" d="M 103.539062 137.402344 L 132.285156 137.402344 L 134.503906 135.640625 L 130.804688 133.648438 L 125.113281 131.710938 L 122.835938 130.457031 L 118.625 130.6875 L 115.09375 132.5625 L 110.253906 133.132812 L 109.113281 134.441406 L 105.527344 134.726562 L 99.890625 134.613281 L 109.285156 136.09375 L 101.539062 135.691406 Z M 103.539062 137.402344 "/>
<path style="fill-rule:evenodd;fill:rgb(58.822632%,52.940369%,49.01886%);fill-opacity:1;stroke-width:0.225453;stroke-linecap:butt;stroke-linejoin:miter;stroke:rgb(0%,0%,0%);stroke-opacity:1;stroke-miterlimit:4;" d="M 119.019531 129.148438 C 115.417969 127.214844 114.367188 131.980469 112.816406 133.132812 C 114.910156 133.492188 116.488281 131.527344 118.285156 130.570312 C 119.640625 134.273438 121.785156 131.824219 121.785156 131.824219 C 121.785156 131.824219 124.019531 135.367188 126.992188 133.761719 C 127.804688 134.371094 128.699219 133.816406 128.699219 133.816406 C 128.699219 133.816406 129.777344 134.015625 130.007812 133.535156 C 130.578125 133.730469 131.207031 133.019531 131.207031 133.019531 C 131.207031 133.019531 132.441406 133.035156 132.6875 132.394531 C 134.519531 132.722656 136.957031 128.632812 136.957031 128.632812 L 137.695312 127.214844 L 138.78125 126.984375 C 138.78125 126.984375 138.851562 126.273438 138.265625 126.304688 C 138.25 125.875 137.878906 125.644531 137.355469 125.730469 C 137.457031 125.476562 137.070312 125.277344 137.070312 125.277344 C 136.046875 125.53125 135.984375 128.125 135.984375 128.125 C 135.984375 128.125 134.195312 129.484375 133.539062 129.828125 C 133.511719 128.351562 131.035156 126.347656 131.546875 125.390625 C 132.058594 124.4375 133.667969 126.855469 135.074219 126.417969 C 136.484375 125.972656 137.179688 124.144531 137.238281 122.714844 C 136.84375 121.746094 135.871094 120.148438 135.871094 120.148438 L 134.960938 120.097656 L 134.164062 118.160156 C 134.164062 118.160156 132.488281 119.253906 132.515625 120.210938 C 132.542969 121.164062 134.277344 121.972656 134.277344 121.972656 C 134.277344 121.972656 133.277344 122.601562 132.347656 122.3125 C 132.257812 123.285156 133.484375 123.097656 133.9375 123.113281 C 134.164062 123.8125 134.847656 124.191406 134.847656 124.191406 C 134.847656 124.191406 135.273438 125.261719 134.164062 125.164062 C 133.058594 125.066406 131.742188 122.503906 130.179688 123.683594 C 128.515625 124.933594 130.917969 127.214844 130.917969 127.214844 C 130.917969 127.214844 129.453125 127.980469 128.585938 129.941406 C 125.042969 126.953125 122.964844 128.351562 119.019531 129.148438 Z M 119.019531 129.148438 "/>
<path style="fill-rule:evenodd;fill:rgb(58.822632%,52.940369%,49.01886%);fill-opacity:1;stroke-width:0.225453;stroke-linecap:butt;stroke-linejoin:miter;stroke:rgb(0%,0%,0%);stroke-opacity:1;stroke-miterlimit:4;" d="M 113.839844 124.082031 C 115.320312 125.476562 114.289062 127.792969 114.867188 128.238281 C 115.480469 128.707031 116.347656 128.011719 116.347656 128.011719 C 117.898438 128.421875 120.671875 127.554688 120.671875 127.554688 C 121.890625 128.238281 121.414062 127.230469 122.152344 127.269531 C 122.808594 128.949219 125 128.632812 125 128.632812 C 125 128.632812 122.992188 126.585938 121.753906 126.015625 C 120.800781 126.585938 118.023438 126.671875 117.539062 126.585938 C 117.003906 126.492188 117.339844 125.832031 117.085938 125.445312 C 118.105469 124.453125 117.300781 121.988281 116.742188 121.0625 C 114.480469 119.558594 111.777344 122.140625 113.839844 124.082031 Z M 113.839844 124.082031 "/>
<path style="fill-rule:evenodd;fill:rgb(58.822632%,52.940369%,49.01886%);fill-opacity:1;stroke-width:0.225453;stroke-linecap:butt;stroke-linejoin:miter;stroke:rgb(0%,0%,0%);stroke-opacity:1;stroke-miterlimit:4;" d="M 104 119.90625 C 102.136719 120.410156 98.902344 117.503906 97.394531 118.621094 C 95.886719 119.738281 96.59375 122.484375 97.597656 123.851562 C 98.578125 125.191406 96.160156 125.671875 95.503906 126.472656 C 94.890625 127.214844 95.703125 128.082031 95.703125 128.082031 L 96.386719 128.519531 L 96.265625 129.53125 L 96.628906 130.734375 C 96.628906 130.734375 96.960938 131.027344 97.078125 130.652344 C 97.382812 130.96875 97.109375 131.867188 97.878906 131.980469 C 97.601562 131.40625 98.078125 129.8125 98.078125 129.8125 C 98.078125 129.8125 99.429688 129.910156 99.773438 129.328125 C 100.113281 128.742188 99.445312 127.472656 99.445312 127.472656 L 99.855469 127.472656 C 99.398438 127.164062 99.246094 126.226562 99.246094 126.226562 C 99.246094 126.226562 101.117188 125.632812 101.101562 124.214844 C 101.078125 122.796875 98.058594 121.285156 99.167969 120.550781 C 100.394531 119.738281 102.527344 122.660156 104.363281 121.316406 C 106.171875 119.980469 105.003906 121.273438 105.003906 121.273438 C 105.003906 121.273438 105.832031 119.414062 104 119.90625 Z M 104 119.90625 "/>
<path style="fill-rule:evenodd;fill:rgb(58.822632%,52.940369%,49.01886%);fill-opacity:1;stroke-width:0.225453;stroke-linecap:butt;stroke-linejoin:miter;stroke:rgb(0%,0%,0%);stroke-opacity:1;stroke-miterlimit:4;" d="M 113.613281 99.96875 C 111.121094 98.929688 106.035156 98.867188 103.195312 97.460938 C 101.945312 97.542969 101.394531 98.523438 101.339844 98.914062 C 100.039062 98.851562 99.160156 100.898438 99.347656 101.308594 C 96.976562 100.347656 95.875 104.097656 96.648438 104.867188 C 94.625 104.945312 94.875 107.535156 94.683594 108.25 C 94.03125 109.824219 94.824219 110.355469 96.105469 109.789062 C 96.292969 110.472656 96.027344 110.855469 95.449219 110.984375 C 98.957031 115 100.9375 108.511719 104.019531 108.539062 C 107.859375 107.410156 109.371094 105.519531 109.371094 105.519531 L 110.878906 105.71875 Z M 113.613281 99.96875 "/>
<path style="fill-rule:evenodd;fill:rgb(58.822632%,52.940369%,49.01886%);fill-opacity:1;stroke-width:0.225453;stroke-linecap:butt;stroke-linejoin:miter;stroke:rgb(0%,0%,0%);stroke-opacity:1;stroke-miterlimit:4;" d="M 120.503906 97.089844 C 120.503906 99.121094 118.859375 100.765625 116.828125 100.765625 C 114.800781 100.765625 113.15625 99.121094 113.15625 97.089844 C 113.15625 95.0625 114.800781 93.417969 116.828125 93.417969 C 118.859375 93.417969 120.503906 95.0625 120.503906 97.089844 Z M 120.503906 97.089844 "/>
<path style="fill-rule:evenodd;fill:rgb(58.822632%,52.940369%,49.01886%);fill-opacity:1;stroke-width:0.225453;stroke-linecap:butt;stroke-linejoin:miter;stroke:rgb(0%,0%,0%);stroke-opacity:1;stroke-miterlimit:4;" d="M 110.367188 126.015625 C 108.089844 125.601562 104.316406 123.242188 103.933594 120.148438 C 106.054688 111.828125 116.992188 116.171875 117.9375 109.914062 C 117.695312 105.777344 118.433594 101.6875 120.730469 98.230469 C 121.796875 96.878906 123.179688 96.523438 123.179688 96.523438 C 123.179688 96.523438 123.425781 97.40625 123.0625 98.003906 C 124.871094 97.804688 127.347656 98.816406 129.042969 98.914062 C 129.542969 99.921875 129.496094 100.292969 129.382812 100.90625 C 129.269531 101.519531 128.585938 101.359375 128.585938 101.359375 C 128.148438 101.785156 127.617188 102.207031 126.421875 101.992188 C 125.527344 102.675781 123.632812 102.84375 123.632812 102.84375 C 123.632812 102.84375 127.585938 107.015625 126.9375 108.3125 C 127.761719 108.691406 128.980469 110.53125 128.980469 110.53125 C 128.980469 110.53125 131.6875 109.105469 132.574219 107.796875 C 134.136719 107.796875 136.695312 109.433594 137.984375 109.621094 C 139.546875 110.882812 141.113281 112.179688 141.113281 112.179688 C 141.113281 112.179688 139.246094 113.40625 138.4375 111.785156 C 137.457031 111.867188 135.335938 109.519531 132.398438 110.242188 C 132.3125 112.847656 129.4375 114.6875 129.4375 114.6875 C 129.4375 114.6875 132.125 114.3125 133.597656 115.195312 C 135.117188 116.480469 137.355469 118.21875 137.355469 118.21875 L 139.34375 121.628906 C 139.34375 121.628906 137.527344 121.945312 136.84375 119.582031 C 136.160156 121.492188 136.132812 118.402344 133.425781 116.964844 C 132.601562 117.0625 132.1875 117.121094 131.488281 116.5625 C 129.542969 117.089844 127.234375 118.230469 124.484375 117.929688 C 122.539062 118.542969 121.117188 120.167969 119.132812 121.0625 C 117.15625 121.960938 116.574219 121.515625 116.574219 121.515625 L 114.980469 121.578125 C 114.746094 122.539062 114.882812 123.996094 114.007812 124.25 C 114.566406 124.847656 113.613281 127.398438 112.644531 127.835938 C 113.101562 129.476562 114.4375 129.976562 115.832031 130.800781 C 115.832031 130.800781 117.074219 130.230469 117.882812 130.96875 C 118.695312 131.710938 119.53125 133.816406 119.53125 133.816406 C 119.53125 133.816406 117.84375 133.929688 117.3125 133.703125 C 116.78125 133.476562 116.730469 132.921875 116.117188 133.078125 C 112.261719 129.644531 110.226562 131.011719 109.851562 130.230469 C 109.472656 129.429688 110.765625 127.339844 110.367188 126.015625 Z M 110.367188 126.015625 "/>
<path style="fill-rule:evenodd;fill:rgb(58.822632%,52.940369%,49.01886%);fill-opacity:1;stroke-width:0.225453;stroke-linecap:butt;stroke-linejoin:miter;stroke:rgb(0%,0%,0%);stroke-opacity:1;stroke-miterlimit:4;" d="M 101.101562 110.726562 C 101.304688 110.476562 102.710938 111.007812 102.710938 111.007812 L 105.285156 112.621094 L 110.519531 116 L 112.371094 118.703125 L 109.035156 117.609375 L 104.398438 113.628906 L 101.902344 112.015625 C 101.902344 112.015625 100.898438 110.980469 101.101562 110.726562 Z M 101.101562 110.726562 "/>
<path style="fill-rule:evenodd;fill:rgb(58.822632%,52.940369%,49.01886%);fill-opacity:1;stroke-width:0.225453;stroke-linecap:butt;stroke-linejoin:miter;stroke:rgb(0%,0%,0%);stroke-opacity:1;stroke-miterlimit:4;" d="M 132.058594 119.296875 C 130.25 118.839844 125.796875 124.25 125.796875 124.25 L 129.15625 127.898438 C 129.15625 127.898438 129.253906 121.691406 132.058594 119.296875 Z M 132.058594 119.296875 "/>
<path style="fill-rule:evenodd;fill:rgb(58.822632%,52.940369%,49.01886%);fill-opacity:1;stroke-width:0.225453;stroke-linecap:butt;stroke-linejoin:miter;stroke:rgb(0%,0%,0%);stroke-opacity:1;stroke-miterlimit:4;" d="M 110.027344 104.210938 C 109.039062 105.472656 108.953125 108.019531 110.230469 109.042969 C 110.355469 110.589844 111.667969 113.710938 112.703125 114.003906 C 113.828125 114.320312 118.335938 115.371094 120.101562 115.082031 C 119.765625 117.945312 122.011719 120.242188 124.089844 121.746094 C 124.070312 122.003906 124.070312 122.3125 124.3125 122.632812 C 124.542969 122.9375 125.632812 123 125.683594 122.832031 C 126.167969 123.507812 128.507812 123.808594 128.683594 123.503906 C 128.847656 123.210938 125.234375 120.691406 124.429688 119.921875 C 123.746094 118.652344 122.457031 115.820312 122.152344 113.546875 C 120.378906 111.4375 117.328125 111.480469 117.328125 111.480469 L 117.425781 107.339844 L 117.601562 102.675781 L 115.945312 101.816406 C 115.945312 101.816406 116.28125 101.664062 116.460938 101.476562 C 116.863281 101.648438 117.617188 100.847656 117.714844 100.617188 C 118.09375 100.75 118.433594 100.75 118.5 100.546875 C 118.558594 100.371094 118.628906 99.570312 118.765625 99.160156 C 120.015625 98.058594 118.585938 95.734375 116.683594 95.695312 C 114.792969 95.660156 114.371094 97.945312 114.410156 98.117188 C 114.589844 98.832031 114.550781 99.195312 114.410156 99.371094 C 114.269531 99.550781 113.613281 99.941406 113.613281 99.941406 C 113.613281 99.941406 112.558594 99.441406 111.277344 99.941406 C 110 100.4375 108.5625 101.105469 108.492188 101.933594 C 107.902344 102.019531 106.949219 102.773438 106.78125 103.414062 C 106.265625 103.316406 105.597656 103.738281 104.503906 105.519531 C 102.539062 106.386719 102.425781 110.585938 102.425781 110.585938 C 102.425781 110.585938 101.894531 111.359375 101.871094 111.769531 C 101.84375 112.179688 102.054688 112.546875 102.3125 112.476562 C 102.339844 112.75 102.695312 112.992188 102.855469 112.90625 C 102.910156 113.179688 103.296875 113.332031 103.539062 113.292969 C 103.554688 113.476562 104.3125 113.429688 104.371094 113.265625 C 104.441406 113.082031 104.296875 112.152344 104.390625 112.082031 C 104.472656 112.011719 105.101562 112.496094 105.273438 112.363281 C 105.441406 112.238281 105.242188 111.828125 105.144531 111.667969 C 105.058594 111.527344 104.519531 111.371094 104.390625 110.699219 C 104.257812 110.03125 104.730469 109.109375 104.730469 109.109375 C 104.730469 109.109375 106.863281 107.429688 107.105469 105.988281 C 108.710938 106.148438 109.566406 104.742188 110.027344 104.210938 Z M 110.027344 104.210938 "/>
<path style="fill-rule:evenodd;fill:rgb(58.822632%,52.940369%,49.01886%);fill-opacity:1;stroke-width:0.225453;stroke-linecap:butt;stroke-linejoin:miter;stroke:rgb(0%,0%,0%);stroke-opacity:1;stroke-miterlimit:4;" d="M 106.308594 98.1875 C 106.796875 96.996094 108.5625 97.109375 108.5625 97.109375 C 108.5625 97.109375 109.191406 95.449219 111.5625 96.441406 C 112.457031 95.746094 114.804688 96.738281 114.804688 96.738281 C 114.804688 96.738281 115.691406 95.5625 116.847656 95.695312 C 118.984375 95.945312 119.335938 97.90625 119.207031 98.246094 C 118.035156 98.539062 116.003906 97.292969 114.464844 97.652344 C 113.5625 98.15625 112.109375 98.691406 111.5625 99.425781 C 110.132812 99.578125 108.609375 98.113281 106.308594 98.1875 Z M 106.308594 98.1875 "/>
<path style="fill-rule:evenodd;fill:rgb(58.822632%,52.940369%,49.01886%);fill-opacity:1;stroke-width:0.225453;stroke-linecap:butt;stroke-linejoin:miter;stroke:rgb(0%,0%,0%);stroke-opacity:1;stroke-miterlimit:4;" d="M 110.765625 100.167969 C 111.300781 99.84375 112.609375 99.261719 113.5 99.96875 C 114.433594 100.972656 115.863281 101.902344 115.863281 101.902344 L 117.484375 102.585938 L 118.222656 103.042969 L 117.742188 110.472656 C 116.238281 108.9375 114.832031 108.667969 113.753906 106.859375 C 113.179688 106.082031 113.617188 104.214844 112.613281 102.984375 C 111.609375 101.753906 110.546875 100.921875 110.765625 100.167969 Z M 110.765625 100.167969 "/>
<path style="fill-rule:evenodd;fill:rgb(58.822632%,52.940369%,49.01886%);fill-opacity:1;stroke-width:0.225453;stroke-linecap:butt;stroke-linejoin:miter;stroke:rgb(0%,0%,0%);stroke-opacity:1;stroke-miterlimit:4;" d="M 114.664062 102.3125 C 114.664062 102.3125 115.515625 102.152344 115.753906 102.355469 C 116.054688 102.453125 116.335938 102.539062 116.417969 102.792969 C 116.742188 102.890625 116.960938 103.058594 116.960938 103.296875 C 117.265625 103.378906 117.382812 103.921875 117.382812 103.921875 L 117.101562 104.347656 C 117.101562 104.347656 116.78125 104.042969 116.742188 103.722656 C 116.535156 103.625 116.085938 103.515625 115.976562 103.214844 C 115.625 103.183594 115.398438 103 115.332031 102.695312 C 115.007812 102.773438 114.664062 102.3125 114.664062 102.3125 Z M 114.664062 102.3125 "/>
<path style="fill-rule:evenodd;fill:rgb(58.822632%,52.940369%,49.01886%);fill-opacity:1;stroke-width:0.225453;stroke-linecap:butt;stroke-linejoin:miter;stroke:rgb(0%,0%,0%);stroke-opacity:1;stroke-miterlimit:4;" d="M 121.871094 97.460938 C 121.382812 96.921875 120.527344 97.320312 120.527344 97.320312 L 118.25 101.246094 L 117.257812 102.070312 L 117.171875 105.148438 L 117.996094 108.023438 L 117.714844 110.242188 C 117.714844 110.242188 118.859375 109.167969 118.996094 108.566406 C 119.121094 107.992188 118.566406 106.121094 118.566406 106.121094 C 118.566406 106.121094 117.882812 104.945312 118.707031 102.789062 C 119.53125 100.625 121.414062 98.828125 121.871094 97.460938 Z M 121.871094 97.460938 "/>
<path style="fill-rule:evenodd;fill:rgb(58.822632%,52.940369%,49.01886%);fill-opacity:1;stroke-width:0.225453;stroke-linecap:butt;stroke-linejoin:miter;stroke:rgb(0%,0%,0%);stroke-opacity:1;stroke-miterlimit:4;" d="M 127.492188 100.964844 C 127.492188 100.964844 123.929688 106.042969 118.109375 107.855469 C 116.503906 108.234375 117.085938 104.097656 117.085938 104.097656 L 116.6875 104.210938 C 116.6875 104.210938 115.789062 108.269531 117.941406 108.3125 C 123.789062 107.15625 128.179688 101 128.179688 101 Z M 127.492188 100.964844 "/>
<path style=" stroke:none;fill-rule:evenodd;fill:rgb(58.822632%,52.940369%,49.01886%);fill-opacity:1;" d="M 129.894531 130.171875 C 129.894531 130.171875 129.355469 130.570312 128.644531 130.171875 C 128.269531 129.316406 127.277344 129.257812 127.277344 129.257812 C 127.277344 129.257812 126.632812 127.417969 125.625 127.953125 C 125.464844 126.996094 124.371094 127.496094 124.371094 127.496094 C 124.371094 127.496094 124.34375 126.117188 123.0625 126.304688 C 123.492188 124.722656 121.300781 124.820312 121.300781 124.820312 C 121.300781 124.820312 121.230469 123.042969 117.996094 123.398438 C 124.957031 120.28125 130.464844 128.292969 130.464844 128.292969 Z M 129.894531 130.171875 "/>
<path style="fill:none;stroke-width:0.225453;stroke-linecap:butt;stroke-linejoin:miter;stroke:rgb(0%,0%,0%);stroke-opacity:1;stroke-miterlimit:4;" d="M 129.894531 130.171875 C 129.894531 130.171875 129.355469 130.570312 128.644531 130.171875 C 128.269531 129.316406 127.277344 129.257812 127.277344 129.257812 C 127.277344 129.257812 126.632812 127.417969 125.625 127.953125 C 125.464844 126.996094 124.371094 127.496094 124.371094 127.496094 C 124.371094 127.496094 124.34375 126.117188 123.0625 126.304688 C 123.492188 124.722656 121.300781 124.820312 121.300781 124.820312 C 121.300781 124.820312 121.230469 123.042969 117.996094 123.398438 C 124.957031 120.28125 130.464844 128.292969 130.464844 128.292969 "/>
<path style=" stroke:none;fill-rule:evenodd;fill:rgb(58.822632%,52.940369%,49.01886%);fill-opacity:1;" d="M 133.195312 130.855469 C 133.195312 130.855469 134.808594 132.667969 135.644531 132.675781 C 136.484375 132.691406 136.554688 130.914062 136.554688 130.914062 C 136.554688 130.914062 136.828125 131.679688 137.238281 131.484375 C 137.195312 132.019531 137.753906 132.167969 137.753906 132.167969 C 137.753906 132.167969 136.300781 135.535156 132.171875 132.335938 Z M 133.195312 130.855469 "/>
<path style="fill:none;stroke-width:0.225453;stroke-linecap:butt;stroke-linejoin:miter;stroke:rgb(0%,0%,0%);stroke-opacity:1;stroke-miterlimit:4;" d="M 133.195312 130.855469 C 133.195312 130.855469 134.808594 132.667969 135.644531 132.675781 C 136.484375 132.691406 136.554688 130.914062 136.554688 130.914062 C 136.554688 130.914062 136.828125 131.679688 137.238281 131.484375 C 137.195312 132.019531 137.753906 132.167969 137.753906 132.167969 C 137.753906 132.167969 136.300781 135.535156 132.171875 132.335938 "/>
<path style=" stroke:none;fill-rule:evenodd;fill:rgb(58.822632%,52.940369%,49.01886%);fill-opacity:1;" d="M 120.617188 131.539062 L 120.046875 133.875 C 120.046875 133.875 119.320312 134.527344 119.53125 134.667969 C 119.75 134.8125 120.898438 134.441406 120.898438 134.441406 C 120.898438 134.441406 122.695312 134.230469 123.234375 133.703125 C 123.605469 134.542969 124.429688 134.613281 124.429688 134.613281 C 124.429688 134.613281 124.484375 134.253906 124.371094 134.042969 C 124.773438 134.113281 125.113281 133.992188 125.113281 133.992188 C 125.113281 133.992188 125.339844 133.332031 124.828125 133.078125 C 124.886719 132.589844 125.125 132.167969 124.257812 132.222656 C 123.617188 132.902344 122.039062 133.6875 121.640625 133.417969 C 121.242188 133.148438 123.203125 132.28125 122.667969 131.140625 Z M 120.617188 131.539062 "/>
<path style="fill:none;stroke-width:0.225453;stroke-linecap:butt;stroke-linejoin:miter;stroke:rgb(0%,0%,0%);stroke-opacity:1;stroke-miterlimit:4;" d="M 120.617188 131.539062 L 120.046875 133.875 C 120.046875 133.875 119.320312 134.527344 119.53125 134.667969 C 119.75 134.8125 120.898438 134.441406 120.898438 134.441406 C 120.898438 134.441406 122.695312 134.230469 123.234375 133.703125 C 123.605469 134.542969 124.429688 134.613281 124.429688 134.613281 C 124.429688 134.613281 124.484375 134.253906 124.371094 134.042969 C 124.773438 134.113281 125.113281 133.992188 125.113281 133.992188 C 125.113281 133.992188 125.339844 133.332031 124.828125 133.078125 C 124.886719 132.589844 125.125 132.167969 124.257812 132.222656 C 123.617188 132.902344 122.039062 133.6875 121.640625 133.417969 C 121.242188 133.148438 123.203125 132.28125 122.667969 131.140625 "/>
<path style=" stroke:none;fill-rule:evenodd;fill:rgb(0%,0%,0%);fill-opacity:1;" d="M 84.390625 126.003906 L 86.707031 125.449219 L 86.453125 124.375 C 86.394531 124.132812 86.296875 123.964844 86.160156 123.875 C 86.023438 123.785156 85.792969 123.761719 85.460938 123.800781 L 85.421875 123.640625 L 87.417969 123.167969 L 87.457031 123.324219 C 87.230469 123.382812 87.066406 123.453125 86.972656 123.535156 C 86.875 123.617188 86.816406 123.714844 86.789062 123.828125 C 86.757812 123.9375 86.769531 124.09375 86.8125 124.289062 L 87.070312 125.363281 L 88.921875 124.921875 C 89.21875 124.855469 89.410156 124.789062 89.496094 124.722656 C 89.5625 124.679688 89.609375 124.605469 89.636719 124.5 C 89.679688 124.355469 89.679688 124.214844 89.648438 124.070312 L 89.601562 123.859375 L 89.757812 123.820312 L 90.359375 126.351562 L 90.203125 126.390625 L 90.152344 126.183594 C 90.09375 125.9375 89.980469 125.777344 89.8125 125.699219 C 89.703125 125.65625 89.46875 125.671875 89.117188 125.753906 L 85.3125 126.664062 C 85.015625 126.734375 84.820312 126.800781 84.734375 126.859375 C 84.667969 126.910156 84.625 126.980469 84.589844 127.082031 C 84.554688 127.226562 84.546875 127.367188 84.582031 127.507812 L 84.628906 127.71875 L 84.472656 127.753906 L 83.425781 123.371094 L 84.707031 123.007812 L 84.746094 123.160156 C 84.488281 123.300781 84.304688 123.4375 84.203125 123.566406 C 84.09375 123.695312 84.035156 123.84375 84.003906 124 C 83.984375 124.164062 84.011719 124.398438 84.082031 124.703125 Z M 82.898438 115.554688 C 82.949219 114.769531 83.285156 114.105469 83.910156 113.5625 C 84.539062 113.027344 85.296875 112.777344 86.191406 112.832031 C 87.109375 112.878906 87.851562 113.210938 88.429688 113.828125 C 89.003906 114.441406 89.265625 115.160156 89.21875 115.984375 C 89.171875 116.8125 88.839844 117.496094 88.214844 118.027344 C 87.589844 118.566406 86.8125 118.804688 85.871094 118.75 C 84.914062 118.695312 84.148438 118.328125 83.578125 117.636719 C 83.082031 117.042969 82.855469 116.347656 82.898438 115.554688 Z M 83.226562 115.65625 C 83.191406 116.199219 83.367188 116.644531 83.75 116.992188 C 84.230469 117.433594 84.945312 117.675781 85.910156 117.730469 C 86.898438 117.785156 87.667969 117.617188 88.222656 117.226562 C 88.644531 116.921875 88.871094 116.503906 88.90625 115.972656 C 88.933594 115.410156 88.738281 114.925781 88.320312 114.527344 C 87.894531 114.132812 87.207031 113.910156 86.253906 113.855469 C 85.222656 113.796875 84.433594 113.960938 83.902344 114.339844 C 83.480469 114.644531 83.257812 115.082031 83.226562 115.65625 Z M 91.992188 104.601562 L 91.417969 106.113281 L 88.042969 107.019531 C 87.992188 107.160156 87.957031 107.28125 87.917969 107.367188 C 87.90625 107.40625 87.890625 107.441406 87.875 107.488281 C 87.859375 107.523438 87.835938 107.566406 87.820312 107.609375 L 89.464844 108.242188 C 89.816406 108.375 90.054688 108.417969 90.167969 108.375 C 90.332031 108.316406 90.457031 108.183594 90.535156 107.96875 L 90.621094 107.746094 L 90.769531 107.808594 L 89.847656 110.230469 L 89.695312 110.171875 L 89.777344 109.960938 C 89.867188 109.722656 89.855469 109.519531 89.742188 109.359375 C 89.675781 109.265625 89.480469 109.160156 89.160156 109.035156 L 85.503906 107.644531 C 85.144531 107.507812 84.914062 107.464844 84.792969 107.507812 C 84.628906 107.566406 84.511719 107.710938 84.429688 107.921875 L 84.347656 108.132812 L 84.191406 108.078125 L 84.976562 106.015625 C 85.207031 105.414062 85.417969 104.984375 85.613281 104.734375 C 85.8125 104.484375 86.0625 104.304688 86.375 104.195312 C 86.6875 104.085938 87 104.089844 87.328125 104.214844 C 87.679688 104.347656 87.933594 104.578125 88.109375 104.898438 C 88.277344 105.226562 88.320312 105.640625 88.25 106.164062 L 90.316406 105.609375 C 90.789062 105.484375 91.125 105.351562 91.320312 105.203125 C 91.515625 105.0625 91.6875 104.839844 91.839844 104.542969 Z M 87.554688 107.515625 C 87.578125 107.460938 87.589844 107.417969 87.609375 107.375 C 87.625 107.335938 87.640625 107.308594 87.644531 107.28125 C 87.851562 106.738281 87.890625 106.289062 87.761719 105.925781 C 87.628906 105.5625 87.386719 105.3125 87.027344 105.175781 C 86.667969 105.039062 86.34375 105.039062 86.035156 105.179688 C 85.730469 105.316406 85.507812 105.566406 85.375 105.929688 C 85.308594 106.09375 85.253906 106.320312 85.199219 106.621094 Z M 100.4375 87.457031 L 101.609375 88.976562 L 101.480469 89.058594 C 101.085938 88.742188 100.722656 88.554688 100.378906 88.488281 C 99.886719 88.390625 99.402344 88.5 98.929688 88.804688 C 98.285156 89.226562 97.953125 89.800781 97.949219 90.527344 C 97.949219 91.144531 98.140625 91.75 98.527344 92.34375 C 98.84375 92.832031 99.222656 93.210938 99.667969 93.488281 C 100.113281 93.773438 100.546875 93.902344 100.976562 93.890625 C 101.398438 93.886719 101.769531 93.773438 102.089844 93.566406 C 102.277344 93.445312 102.441406 93.304688 102.585938 93.140625 C 102.730469 92.984375 102.855469 92.804688 102.957031 92.605469 L 102.007812 91.132812 C 101.839844 90.878906 101.714844 90.726562 101.621094 90.671875 C 101.535156 90.621094 101.4375 90.597656 101.328125 90.609375 C 101.222656 90.625 101.0625 90.695312 100.855469 90.828125 L 100.765625 90.683594 L 102.734375 89.410156 L 102.828125 89.550781 L 102.734375 89.617188 C 102.539062 89.742188 102.445312 89.894531 102.457031 90.066406 C 102.46875 90.191406 102.5625 90.390625 102.734375 90.664062 L 103.742188 92.21875 C 103.558594 92.5625 103.347656 92.859375 103.113281 93.109375 C 102.878906 93.367188 102.59375 93.605469 102.25 93.828125 C 101.269531 94.460938 100.320312 94.628906 99.402344 94.332031 C 98.714844 94.101562 98.171875 93.683594 97.769531 93.066406 C 97.484375 92.621094 97.308594 92.121094 97.257812 91.574219 C 97.199219 90.917969 97.308594 90.320312 97.582031 89.769531 C 97.8125 89.3125 98.183594 88.917969 98.6875 88.585938 C 98.875 88.464844 99.050781 88.375 99.222656 88.308594 C 99.390625 88.238281 99.652344 88.167969 99.996094 88.085938 C 100.167969 88.046875 100.277344 88.015625 100.324219 87.984375 C 100.375 87.957031 100.402344 87.90625 100.40625 87.839844 C 100.414062 87.777344 100.375 87.671875 100.296875 87.542969 Z M 110.296875 88.132812 L 108.035156 88.738281 L 107.882812 89.769531 C 107.84375 90.023438 107.839844 90.203125 107.871094 90.316406 C 107.894531 90.410156 107.957031 90.472656 108.0625 90.515625 C 108.164062 90.566406 108.359375 90.558594 108.648438 90.503906 L 108.6875 90.664062 L 106.847656 91.152344 L 106.804688 90.996094 C 107.035156 90.886719 107.179688 90.789062 107.230469 90.703125 C 107.339844 90.523438 107.433594 90.195312 107.496094 89.730469 L 108.273438 84.363281 L 108.425781 84.328125 L 111.757812 88.648438 C 112.023438 88.996094 112.238281 89.214844 112.410156 89.289062 C 112.570312 89.371094 112.777344 89.386719 113.015625 89.339844 L 113.058594 89.5 L 110.753906 90.117188 L 110.710938 89.953125 C 110.9375 89.882812 111.082031 89.800781 111.148438 89.714844 C 111.214844 89.625 111.234375 89.535156 111.207031 89.4375 C 111.175781 89.3125 111.0625 89.128906 110.878906 88.882812 Z M 110.089844 87.847656 L 108.476562 85.746094 L 108.082031 88.382812 Z M 120.785156 87.820312 L 120.929688 87.851562 L 120.34375 89.476562 L 115.664062 89.296875 L 115.667969 89.128906 L 115.894531 89.140625 C 116.152344 89.148438 116.339844 89.074219 116.457031 88.910156 C 116.519531 88.816406 116.5625 88.597656 116.574219 88.253906 L 116.726562 84.347656 C 116.742188 83.972656 116.710938 83.734375 116.628906 83.636719 C 116.519531 83.5 116.347656 83.425781 116.117188 83.417969 L 115.890625 83.410156 L 115.894531 83.246094 L 118.636719 83.351562 L 118.628906 83.519531 C 118.3125 83.5 118.082031 83.523438 117.953125 83.578125 C 117.820312 83.636719 117.730469 83.710938 117.675781 83.804688 C 117.625 83.898438 117.59375 84.125 117.578125 84.484375 L 117.433594 88.285156 C 117.421875 88.53125 117.4375 88.703125 117.480469 88.796875 C 117.519531 88.859375 117.566406 88.910156 117.644531 88.941406 C 117.714844 88.976562 117.945312 88.996094 118.335938 89.015625 L 118.777344 89.03125 C 119.242188 89.050781 119.570312 89.03125 119.757812 88.964844 C 119.949219 88.90625 120.128906 88.792969 120.285156 88.625 C 120.449219 88.457031 120.617188 88.1875 120.785156 87.820312 Z M 128.847656 89.972656 L 128.976562 90.050781 L 127.96875 91.449219 L 123.519531 89.980469 L 123.566406 89.820312 L 123.785156 89.894531 C 124.027344 89.972656 124.230469 89.953125 124.386719 89.828125 C 124.472656 89.757812 124.570312 89.554688 124.679688 89.230469 L 125.910156 85.519531 C 126.023438 85.160156 126.0625 84.921875 126.015625 84.804688 C 125.945312 84.644531 125.804688 84.527344 125.582031 84.457031 L 125.371094 84.386719 L 125.417969 84.230469 L 128.023438 85.089844 L 127.96875 85.25 C 127.664062 85.140625 127.441406 85.101562 127.300781 85.117188 C 127.160156 85.140625 127.050781 85.183594 126.976562 85.257812 C 126.898438 85.335938 126.800781 85.542969 126.691406 85.890625 L 125.492188 89.496094 C 125.417969 89.734375 125.390625 89.902344 125.40625 90.007812 C 125.417969 90.078125 125.457031 90.136719 125.515625 90.1875 C 125.582031 90.242188 125.796875 90.328125 126.167969 90.445312 L 126.585938 90.585938 C 127.023438 90.734375 127.34375 90.804688 127.542969 90.796875 C 127.746094 90.792969 127.945312 90.726562 128.148438 90.613281 C 128.347656 90.496094 128.582031 90.285156 128.847656 89.972656 Z M 135.347656 93.417969 L 133.429688 92.0625 L 132.546875 92.605469 C 132.324219 92.742188 132.183594 92.855469 132.117188 92.945312 C 132.0625 93.023438 132.054688 93.117188 132.085938 93.222656 C 132.113281 93.332031 132.242188 93.480469 132.472656 93.664062 L 132.375 93.796875 L 130.816406 92.695312 L 130.914062 92.5625 C 131.148438 92.671875 131.308594 92.71875 131.414062 92.703125 C 131.621094 92.675781 131.929688 92.535156 132.328125 92.285156 L 136.945312 89.445312 L 137.078125 89.535156 L 135.882812 94.867188 C 135.792969 95.296875 135.765625 95.601562 135.808594 95.773438 C 135.851562 95.953125 135.96875 96.121094 136.160156 96.277344 L 136.066406 96.410156 L 134.113281 95.03125 L 134.210938 94.894531 C 134.414062 95.023438 134.570312 95.085938 134.679688 95.078125 C 134.789062 95.074219 134.875 95.03125 134.929688 94.949219 C 135.003906 94.839844 135.074219 94.640625 135.140625 94.339844 Z M 135.433594 93.078125 L 136.007812 90.484375 L 133.734375 91.871094 Z M 142.617188 94.402344 L 143.59375 95.71875 L 142.148438 101.394531 L 144.953125 99.316406 C 145.253906 99.09375 145.414062 98.925781 145.441406 98.800781 C 145.476562 98.640625 145.421875 98.464844 145.28125 98.269531 L 145.15625 98.101562 L 145.285156 98.003906 L 146.542969 99.695312 L 146.410156 99.792969 L 146.285156 99.625 C 146.132812 99.417969 145.957031 99.316406 145.773438 99.320312 C 145.652344 99.328125 145.457031 99.429688 145.1875 99.628906 L 141.085938 102.675781 L 140.996094 102.542969 L 142.535156 96.429688 L 139.539062 98.652344 C 139.234375 98.875 139.074219 99.042969 139.050781 99.164062 C 139.019531 99.328125 139.066406 99.507812 139.207031 99.695312 L 139.339844 99.871094 L 139.203125 99.96875 L 137.949219 98.273438 L 138.082031 98.179688 L 138.207031 98.347656 C 138.363281 98.550781 138.53125 98.652344 138.722656 98.648438 C 138.835938 98.644531 139.03125 98.539062 139.300781 98.339844 L 142.6875 95.828125 C 142.746094 95.566406 142.777344 95.378906 142.773438 95.269531 C 142.773438 95.15625 142.742188 95.015625 142.6875 94.835938 C 142.652344 94.753906 142.589844 94.640625 142.480469 94.5 Z M 150.25 108.46875 L 148.929688 109.003906 L 148.875 108.84375 C 149.101562 108.730469 149.257812 108.625 149.335938 108.539062 C 149.46875 108.394531 149.550781 108.234375 149.578125 108.066406 C 149.597656 107.894531 149.570312 107.6875 149.492188 107.453125 L 149.203125 106.652344 L 144.839844 108.191406 C 144.492188 108.316406 144.289062 108.429688 144.226562 108.539062 C 144.144531 108.6875 144.144531 108.871094 144.222656 109.09375 L 144.292969 109.292969 L 144.140625 109.347656 L 143.285156 106.929688 L 143.433594 106.875 L 143.511719 107.074219 C 143.59375 107.3125 143.726562 107.460938 143.90625 107.507812 C 144.019531 107.542969 144.238281 107.496094 144.558594 107.382812 L 148.921875 105.84375 L 148.675781 105.152344 C 148.578125 104.890625 148.492188 104.703125 148.414062 104.605469 C 148.3125 104.480469 148.167969 104.394531 147.976562 104.339844 C 147.785156 104.292969 147.558594 104.304688 147.292969 104.371094 L 147.238281 104.214844 L 148.601562 103.808594 Z M 145.457031 119.207031 L 145.371094 117.59375 L 148.097656 115.402344 C 148.078125 115.25 148.066406 115.125 148.0625 115.027344 C 148.0625 114.992188 148.0625 114.953125 148.0625 114.902344 C 148.058594 114.859375 148.058594 114.816406 148.058594 114.769531 L 146.304688 114.859375 C 145.925781 114.875 145.6875 114.929688 145.601562 115.015625 C 145.476562 115.140625 145.421875 115.308594 145.433594 115.539062 L 145.441406 115.777344 L 145.28125 115.78125 L 145.144531 113.195312 L 145.308594 113.183594 L 145.316406 113.410156 C 145.335938 113.667969 145.425781 113.847656 145.601562 113.949219 C 145.691406 114.003906 145.914062 114.023438 146.257812 114.007812 L 150.167969 113.804688 C 150.546875 113.785156 150.78125 113.730469 150.867188 113.640625 C 150.992188 113.519531 151.046875 113.339844 151.035156 113.113281 L 151.023438 112.882812 L 151.1875 112.878906 L 151.308594 115.082031 C 151.339844 115.722656 151.316406 116.199219 151.238281 116.507812 C 151.160156 116.816406 151.003906 117.085938 150.757812 117.3125 C 150.519531 117.535156 150.226562 117.660156 149.878906 117.675781 C 149.507812 117.695312 149.179688 117.589844 148.894531 117.359375 C 148.605469 117.132812 148.394531 116.769531 148.253906 116.265625 L 146.585938 117.605469 C 146.203125 117.914062 145.945312 118.167969 145.828125 118.378906 C 145.707031 118.597656 145.636719 118.871094 145.621094 119.199219 Z M 148.339844 114.75 C 148.347656 114.8125 148.347656 114.859375 148.347656 114.898438 C 148.347656 114.941406 148.351562 114.972656 148.351562 115 C 148.378906 115.578125 148.527344 116.003906 148.789062 116.289062 C 149.054688 116.570312 149.382812 116.699219 149.773438 116.679688 C 150.144531 116.65625 150.449219 116.519531 150.671875 116.277344 C 150.894531 116.027344 151 115.707031 150.976562 115.316406 C 150.972656 115.140625 150.929688 114.914062 150.855469 114.621094 Z M 150 127.207031 L 149.46875 129.25 L 149.304688 129.210938 L 149.332031 129.097656 C 149.355469 129.019531 149.347656 128.90625 149.320312 128.742188 C 149.292969 128.582031 149.234375 128.421875 149.144531 128.277344 C 149.042969 128.125 148.882812 127.921875 148.648438 127.679688 L 146.792969 125.683594 L 145.328125 125.296875 C 144.964844 125.207031 144.730469 125.183594 144.625 125.246094 C 144.472656 125.320312 144.367188 125.476562 144.304688 125.710938 L 144.253906 125.898438 L 144.097656 125.863281 L 144.75 123.371094 L 144.90625 123.414062 L 144.851562 123.621094 C 144.785156 123.871094 144.820312 124.066406 144.9375 124.207031 C 145.015625 124.292969 145.214844 124.382812 145.546875 124.46875 L 146.929688 124.832031 L 149.804688 123.871094 C 150.144531 123.757812 150.359375 123.675781 150.449219 123.628906 C 150.539062 123.574219 150.664062 123.460938 150.820312 123.269531 C 150.863281 123.222656 150.894531 123.144531 150.929688 123.03125 L 151.085938 123.074219 L 150.429688 125.582031 L 150.269531 125.539062 L 150.304688 125.40625 C 150.335938 125.269531 150.339844 125.140625 150.304688 125.011719 C 150.269531 124.878906 150.195312 124.796875 150.066406 124.765625 C 149.960938 124.738281 149.75 124.777344 149.4375 124.878906 L 147.226562 125.609375 L 148.730469 127.230469 C 148.957031 127.472656 149.136719 127.617188 149.269531 127.648438 C 149.347656 127.667969 149.425781 127.667969 149.5 127.640625 C 149.578125 127.617188 149.640625 127.570312 149.695312 127.5 C 149.75 127.4375 149.796875 127.320312 149.84375 127.164062 Z M 150 127.207031 "/>
</g>
</svg>
