<?xml version="1.0" encoding="UTF-8"?>
<svg xmlns="http://www.w3.org/2000/svg" xmlns:xlink="http://www.w3.org/1999/xlink" viewBox="0 0 1000 526" version="1.1">
<defs>
<clipPath id="clip1">
  <path d="M 0 0 L 999 0 L 999 525.601562 L 0 525.601562 Z M 0 0 "/>
</clipPath>
</defs>
<g id="surface755">
<g clip-path="url(#clip1)" clip-rule="nonzero">
<path style=" stroke:none;fill-rule:evenodd;fill:rgb(0%,21.960449%,57.646179%);fill-opacity:1;" d="M 0 0 L 998.539062 0 L 998.539062 525.546875 L 0 525.546875 Z M 0 0 "/>
</g>
<path style=" stroke:none;fill-rule:evenodd;fill:rgb(99.998474%,99.998474%,99.998474%);fill-opacity:1;" d="M 191.890625 354.804688 L 185.164062 242.929688 L 161.703125 304.566406 L 172.167969 239.476562 L 133.53125 292.917969 L 160.519531 232.757812 L 109.394531 274.378906 L 151.019531 223.253906 L 90.855469 250.199219 L 144.296875 211.609375 L 79.167969 222.078125 L 140.804688 198.613281 L 28.96875 191.890625 L 140.804688 185.164062 L 79.167969 161.703125 L 144.296875 172.167969 L 90.855469 133.53125 L 151.019531 160.519531 L 109.394531 109.394531 L 160.519531 151.019531 L 133.53125 90.855469 L 172.167969 144.296875 L 161.703125 79.207031 L 185.164062 140.804688 L 191.890625 28.96875 L 198.613281 140.804688 L 222.078125 79.207031 L 211.609375 144.296875 L 250.199219 90.855469 L 223.210938 151.019531 L 274.378906 109.394531 L 232.757812 160.519531 L 292.917969 133.53125 L 239.476562 172.167969 L 304.566406 161.703125 L 242.929688 185.164062 L 354.804688 191.890625 L 242.929688 198.613281 L 304.566406 222.078125 L 239.476562 211.609375 L 292.917969 250.199219 L 232.757812 223.253906 L 274.378906 274.378906 L 223.210938 232.757812 L 250.199219 292.917969 L 211.609375 239.476562 L 222.078125 304.566406 L 198.613281 242.929688 Z M 191.890625 354.804688 "/>
<path style=" stroke:none;fill-rule:evenodd;fill:rgb(99.998474%,99.998474%,99.998474%);fill-opacity:1;" d="M 0 517.136719 L 998.539062 214.421875 L 998.539062 8.410156 L 0 500.320312 Z M 0 517.136719 "/>
<path style=" stroke:none;fill-rule:evenodd;fill:rgb(86.665344%,45.881653%,0%);fill-opacity:1;" d="M 0 508.730469 L 998.539062 111.414062 L 998.539062 8.410156 L 0 500.320312 Z M 0 508.730469 "/>
</g>
</svg>
