<?xml version="1.0" encoding="UTF-8"?>
<svg xmlns="http://www.w3.org/2000/svg" xmlns:xlink="http://www.w3.org/1999/xlink" viewBox="0 0 1000 526" version="1.1">
<g id="surface785">
<rect x="0" y="0" width="1000" height="526" style="fill:rgb(45.881653%,69.802856%,86.665344%);fill-opacity:1;stroke:none;"/>
<path style=" stroke:none;fill-rule:evenodd;fill:rgb(99.998474%,99.998474%,99.998474%);fill-opacity:1;" d="M 500 52.632812 L 483.738281 102.6875 L 508.761719 110.820312 Z M 500 52.632812 "/>
<path style=" stroke:none;fill-rule:evenodd;fill:rgb(99.998474%,99.998474%,99.998474%);fill-opacity:1;" d="M 500 52.632812 L 516.261719 102.6875 L 491.238281 110.820312 Z M 500 52.632812 "/>
<path style=" stroke:none;fill-rule:evenodd;fill:rgb(99.998474%,99.998474%,99.998474%);fill-opacity:1;" d="M 550.054688 89 L 497.425781 89 L 497.425781 115.316406 Z M 550.054688 89 "/>
<path style=" stroke:none;fill-rule:evenodd;fill:rgb(99.998474%,99.998474%,99.998474%);fill-opacity:1;" d="M 550.054688 89 L 507.480469 119.9375 L 492.007812 98.644531 Z M 550.054688 89 "/>
<path style=" stroke:none;fill-rule:evenodd;fill:rgb(99.998474%,99.998474%,99.998474%);fill-opacity:1;" d="M 530.9375 147.839844 L 514.675781 97.785156 L 489.644531 105.917969 Z M 530.9375 147.839844 "/>
<path style=" stroke:none;fill-rule:evenodd;fill:rgb(99.998474%,99.998474%,99.998474%);fill-opacity:1;" d="M 530.9375 147.839844 L 488.359375 116.90625 L 503.824219 95.621094 Z M 530.9375 147.839844 "/>
<path style=" stroke:none;fill-rule:evenodd;fill:rgb(99.998474%,99.998474%,99.998474%);fill-opacity:1;" d="M 469.0625 147.839844 L 511.640625 116.90625 L 496.175781 95.621094 Z M 469.0625 147.839844 "/>
<path style=" stroke:none;fill-rule:evenodd;fill:rgb(99.998474%,99.998474%,99.998474%);fill-opacity:1;" d="M 469.0625 147.839844 L 485.324219 97.785156 L 510.355469 105.917969 Z M 469.0625 147.839844 "/>
<path style=" stroke:none;fill-rule:evenodd;fill:rgb(99.998474%,99.998474%,99.998474%);fill-opacity:1;" d="M 449.945312 89 L 492.519531 119.9375 L 507.992188 98.644531 Z M 449.945312 89 "/>
<path style=" stroke:none;fill-rule:evenodd;fill:rgb(99.998474%,99.998474%,99.998474%);fill-opacity:1;" d="M 449.945312 89 L 502.574219 89 L 502.574219 115.316406 Z M 449.945312 89 "/>
<path style=" stroke:none;fill-rule:evenodd;fill:rgb(99.998474%,99.998474%,99.998474%);fill-opacity:1;" d="M 710.527344 263.15625 L 660.46875 246.894531 L 652.335938 271.921875 Z M 710.527344 263.15625 "/>
<path style=" stroke:none;fill-rule:evenodd;fill:rgb(99.998474%,99.998474%,99.998474%);fill-opacity:1;" d="M 710.527344 263.15625 L 660.46875 279.417969 L 652.335938 254.394531 Z M 710.527344 263.15625 "/>
<path style=" stroke:none;fill-rule:evenodd;fill:rgb(99.998474%,99.998474%,99.998474%);fill-opacity:1;" d="M 674.15625 313.214844 L 674.15625 260.582031 L 647.839844 260.582031 Z M 674.15625 313.214844 "/>
<path style=" stroke:none;fill-rule:evenodd;fill:rgb(99.998474%,99.998474%,99.998474%);fill-opacity:1;" d="M 674.15625 313.214844 L 643.21875 270.636719 L 664.511719 255.167969 Z M 674.15625 313.214844 "/>
<path style=" stroke:none;fill-rule:evenodd;fill:rgb(99.998474%,99.998474%,99.998474%);fill-opacity:1;" d="M 615.316406 294.09375 L 665.375 277.832031 L 657.238281 252.800781 Z M 615.316406 294.09375 "/>
<path style=" stroke:none;fill-rule:evenodd;fill:rgb(99.998474%,99.998474%,99.998474%);fill-opacity:1;" d="M 615.316406 294.09375 L 646.253906 251.515625 L 667.539062 266.980469 Z M 615.316406 294.09375 "/>
<path style=" stroke:none;fill-rule:evenodd;fill:rgb(99.998474%,99.998474%,99.998474%);fill-opacity:1;" d="M 615.316406 232.222656 L 646.253906 274.800781 L 667.539062 259.335938 Z M 615.316406 232.222656 "/>
<path style=" stroke:none;fill-rule:evenodd;fill:rgb(99.998474%,99.998474%,99.998474%);fill-opacity:1;" d="M 615.316406 232.222656 L 665.375 248.484375 L 657.238281 273.515625 Z M 615.316406 232.222656 "/>
<path style=" stroke:none;fill-rule:evenodd;fill:rgb(99.998474%,99.998474%,99.998474%);fill-opacity:1;" d="M 674.15625 213.101562 L 643.21875 255.679688 L 664.511719 271.148438 Z M 674.15625 213.101562 "/>
<path style=" stroke:none;fill-rule:evenodd;fill:rgb(99.998474%,99.998474%,99.998474%);fill-opacity:1;" d="M 674.15625 213.101562 L 674.15625 265.734375 L 647.839844 265.734375 Z M 674.15625 213.101562 "/>
<path style=" stroke:none;fill-rule:evenodd;fill:rgb(99.998474%,99.998474%,99.998474%);fill-opacity:1;" d="M 500 473.683594 L 516.261719 423.628906 L 491.238281 415.496094 Z M 500 473.683594 "/>
<path style=" stroke:none;fill-rule:evenodd;fill:rgb(99.998474%,99.998474%,99.998474%);fill-opacity:1;" d="M 500 473.683594 L 483.738281 423.628906 L 508.761719 415.496094 Z M 500 473.683594 "/>
<path style=" stroke:none;fill-rule:evenodd;fill:rgb(99.998474%,99.998474%,99.998474%);fill-opacity:1;" d="M 449.945312 437.3125 L 502.574219 437.3125 L 502.574219 411 Z M 449.945312 437.3125 "/>
<path style=" stroke:none;fill-rule:evenodd;fill:rgb(99.998474%,99.998474%,99.998474%);fill-opacity:1;" d="M 449.945312 437.3125 L 492.519531 406.378906 L 507.992188 427.667969 Z M 449.945312 437.3125 "/>
<path style=" stroke:none;fill-rule:evenodd;fill:rgb(99.998474%,99.998474%,99.998474%);fill-opacity:1;" d="M 469.0625 378.476562 L 485.324219 428.53125 L 510.355469 420.398438 Z M 469.0625 378.476562 "/>
<path style=" stroke:none;fill-rule:evenodd;fill:rgb(99.998474%,99.998474%,99.998474%);fill-opacity:1;" d="M 469.0625 378.476562 L 511.640625 409.410156 L 496.175781 430.695312 Z M 469.0625 378.476562 "/>
<path style=" stroke:none;fill-rule:evenodd;fill:rgb(99.998474%,99.998474%,99.998474%);fill-opacity:1;" d="M 530.9375 378.476562 L 488.359375 409.410156 L 503.824219 430.695312 Z M 530.9375 378.476562 "/>
<path style=" stroke:none;fill-rule:evenodd;fill:rgb(99.998474%,99.998474%,99.998474%);fill-opacity:1;" d="M 530.9375 378.476562 L 514.675781 428.53125 L 489.644531 420.398438 Z M 530.9375 378.476562 "/>
<path style=" stroke:none;fill-rule:evenodd;fill:rgb(99.998474%,99.998474%,99.998474%);fill-opacity:1;" d="M 550.054688 437.3125 L 507.480469 406.378906 L 492.007812 427.667969 Z M 550.054688 437.3125 "/>
<path style=" stroke:none;fill-rule:evenodd;fill:rgb(99.998474%,99.998474%,99.998474%);fill-opacity:1;" d="M 550.054688 437.3125 L 497.425781 437.3125 L 497.425781 411 Z M 550.054688 437.3125 "/>
<path style=" stroke:none;fill-rule:evenodd;fill:rgb(99.998474%,99.998474%,99.998474%);fill-opacity:1;" d="M 289.472656 263.15625 L 339.53125 279.417969 L 347.664062 254.394531 Z M 289.472656 263.15625 "/>
<path style=" stroke:none;fill-rule:evenodd;fill:rgb(99.998474%,99.998474%,99.998474%);fill-opacity:1;" d="M 289.472656 263.15625 L 339.53125 246.894531 L 347.664062 271.921875 Z M 289.472656 263.15625 "/>
<path style=" stroke:none;fill-rule:evenodd;fill:rgb(99.998474%,99.998474%,99.998474%);fill-opacity:1;" d="M 325.84375 213.101562 L 325.84375 265.734375 L 352.160156 265.734375 Z M 325.84375 213.101562 "/>
<path style=" stroke:none;fill-rule:evenodd;fill:rgb(99.998474%,99.998474%,99.998474%);fill-opacity:1;" d="M 325.84375 213.101562 L 356.78125 255.679688 L 335.488281 271.148438 Z M 325.84375 213.101562 "/>
<path style=" stroke:none;fill-rule:evenodd;fill:rgb(99.998474%,99.998474%,99.998474%);fill-opacity:1;" d="M 384.683594 232.222656 L 334.625 248.484375 L 342.761719 273.515625 Z M 384.683594 232.222656 "/>
<path style=" stroke:none;fill-rule:evenodd;fill:rgb(99.998474%,99.998474%,99.998474%);fill-opacity:1;" d="M 384.683594 232.222656 L 353.746094 274.800781 L 332.460938 259.335938 Z M 384.683594 232.222656 "/>
<path style=" stroke:none;fill-rule:evenodd;fill:rgb(99.998474%,99.998474%,99.998474%);fill-opacity:1;" d="M 384.683594 294.09375 L 353.746094 251.515625 L 332.460938 266.980469 Z M 384.683594 294.09375 "/>
<path style=" stroke:none;fill-rule:evenodd;fill:rgb(99.998474%,99.998474%,99.998474%);fill-opacity:1;" d="M 384.683594 294.09375 L 334.625 277.832031 L 342.761719 252.800781 Z M 384.683594 294.09375 "/>
<path style=" stroke:none;fill-rule:evenodd;fill:rgb(99.998474%,99.998474%,99.998474%);fill-opacity:1;" d="M 325.84375 313.214844 L 356.78125 270.636719 L 335.488281 255.167969 Z M 325.84375 313.214844 "/>
<path style=" stroke:none;fill-rule:evenodd;fill:rgb(99.998474%,99.998474%,99.998474%);fill-opacity:1;" d="M 325.84375 313.214844 L 325.84375 260.582031 L 352.160156 260.582031 Z M 325.84375 313.214844 "/>
</g>
</svg>
