<?xml version="1.0" encoding="UTF-8"?>
<svg xmlns="http://www.w3.org/2000/svg" xmlns:xlink="http://www.w3.org/1999/xlink" viewBox="0 0 1000 500" version="1.1">
<g id="surface790">
<rect x="0" y="0" width="1000" height="500" style="fill:rgb(79.998779%,3.529358%,18.431091%);fill-opacity:1;stroke:none;"/>
<path style=" stroke:none;fill-rule:evenodd;fill:rgb(99.998474%,82.351685%,0%);fill-opacity:1;" d="M 0 0 L 666.667969 0 L 666.667969 500 L 0 500 Z M 0 0 "/>
<path style=" stroke:none;fill-rule:evenodd;fill:rgb(0%,27.450562%,68.234253%);fill-opacity:1;" d="M 0 0 L 333.332031 0 L 333.332031 500 L 0 500 Z M 0 0 "/>
<path style=" stroke:none;fill-rule:evenodd;fill:rgb(69.018555%,49.803162%,33.332825%);fill-opacity:1;" d="M 453.609375 295.53125 L 458.253906 295.1875 L 458.660156 299.152344 L 462.933594 297.34375 L 464.089844 302.800781 L 473.503906 293.257812 L 486.597656 299.710938 L 461.75 343.996094 L 452.894531 350.539062 L 468.855469 356.527344 L 485.226562 337.445312 L 482.859375 349.976562 L 477.996094 362.140625 L 497.921875 373.617188 L 519.566406 360.835938 L 508.925781 338.507812 L 512.390625 336.917969 L 526.421875 357.246094 L 541.703125 349.667969 L 521.839844 326.4375 L 508.773438 298.496094 L 522.554688 293.945312 L 531.945312 302.957031 L 533.34375 297.09375 L 538.304688 299.496094 L 537.679688 294.597656 L 542.667969 295.691406 L 536.589844 286.058594 L 552.019531 273.113281 L 561.777344 303.609375 L 576.167969 320.042969 L 579.222656 319.667969 L 589.667969 332.578125 L 589.554688 153.683594 L 570.277344 133.382812 L 551.523438 148.660156 L 552.304688 165.128906 L 543.882812 165.4375 L 531.351562 171.859375 L 524.332031 174.167969 L 521.027344 174.820312 L 516.722656 170.144531 L 510.957031 158.605469 L 510.578125 147.226562 L 514.132812 139.804688 L 513.476562 132.789062 L 516.667969 132.851562 L 514.632812 128.109375 L 517.445312 126.988281 L 513.234375 123.277344 L 514.699219 121.558594 L 498.796875 114.734375 L 486.660156 113.921875 L 483.386719 115.355469 L 481.800781 118.320312 L 485.007812 127.394531 L 481.578125 130.820312 L 484.976562 137.46875 L 485.105469 152.027344 L 482.390625 164.316406 L 476.933594 173.605469 L 474.066406 174.699219 L 467.234375 173.140625 L 452.921875 165.59375 L 443.878906 165.09375 L 443.257812 147.566406 L 425.917969 133.632812 L 408.238281 152.714844 L 405.710938 158.328125 L 406.523438 331.957031 L 417.964844 318.109375 L 420.367188 318.707031 L 432.183594 305.917969 L 442.226562 280.597656 L 445.1875 270.089844 L 458.722656 286.085938 Z M 453.609375 295.53125 "/>
<path style=" stroke:none;fill-rule:evenodd;fill:rgb(0%,0%,0%);fill-opacity:1;" d="M 470.9375 101.800781 C 469.148438 101.800781 467.582031 102.257812 466.671875 102.96875 C 468.121094 103.386719 469.175781 104.726562 469.175781 106.351562 L 469.175781 110.476562 L 465.054688 110.476562 C 463.4375 110.476562 462.097656 109.4375 461.667969 108 C 460.957031 108.914062 460.5 110.476562 460.5 112.265625 C 460.5 114.058594 460.957031 115.621094 461.667969 116.535156 C 462.089844 115.082031 463.425781 114.03125 465.054688 114.03125 L 469.175781 114.03125 L 469.175781 133.851562 C 469.175781 135.410156 468.203125 136.703125 466.84375 137.179688 C 468.808594 137.449219 470.503906 140.089844 470.964844 141.53125 C 471.433594 140.089844 473.125 137.449219 475.09375 137.179688 C 473.71875 136.710938 472.730469 135.417969 472.730469 133.851562 L 472.730469 114.027344 L 476.855469 114.027344 C 478.46875 114.027344 479.808594 115.066406 480.238281 116.503906 C 480.949219 115.59375 481.40625 114.027344 481.40625 112.238281 C 481.40625 110.445312 480.949219 108.882812 480.238281 107.96875 C 479.816406 109.421875 478.480469 110.472656 476.855469 110.472656 L 472.730469 110.472656 L 472.730469 106.351562 C 472.730469 104.734375 473.769531 103.398438 475.207031 102.964844 C 474.292969 102.257812 472.730469 101.796875 470.9375 101.796875 Z M 470.9375 101.800781 "/>
<path style=" stroke:none;fill-rule:evenodd;fill:rgb(96.076965%,83.135986%,0.784302%);fill-opacity:1;" d="M 470.9375 102.65625 C 470.007812 102.65625 469.1875 102.828125 468.492188 103.054688 C 469.417969 103.859375 470.03125 105.019531 470.03125 106.351562 L 470.03125 110.476562 C 470.03125 110.535156 470.011719 110.59375 470 110.648438 L 470 111.300781 L 469.347656 111.300781 C 469.289062 111.316406 469.234375 111.332031 469.175781 111.332031 L 465.050781 111.332031 C 463.738281 111.332031 462.585938 110.726562 461.78125 109.824219 C 461.550781 110.523438 461.355469 111.324219 461.355469 112.269531 C 461.355469 113.203125 461.527344 114.023438 461.75 114.714844 C 462.558594 113.789062 463.722656 113.179688 465.050781 113.179688 L 470.027344 113.179688 C 470.023438 113.265625 470 113.347656 470 113.4375 L 470 113.863281 C 470.011719 113.914062 470.027344 113.972656 470.027344 114.03125 L 470.027344 133.855469 C 470.027344 135.140625 469.367188 136.152344 468.492188 136.953125 C 469.117188 137.339844 469.652344 137.824219 470.113281 138.378906 C 470.523438 138.871094 470.6875 139.351562 470.964844 139.859375 C 471.25 139.351562 471.410156 138.871094 471.820312 138.378906 C 472.273438 137.832031 472.804688 137.367188 473.414062 136.984375 C 472.53125 136.183594 471.878906 135.148438 471.878906 133.855469 L 471.878906 113.207031 L 472.558594 113.207031 C 472.617188 113.195312 472.671875 113.179688 472.730469 113.179688 L 476.851562 113.179688 C 478.167969 113.179688 479.320312 113.78125 480.125 114.6875 C 480.355469 113.988281 480.550781 113.1875 480.550781 112.238281 C 480.550781 111.308594 480.375 110.488281 480.152344 109.796875 C 479.347656 110.71875 478.183594 111.328125 476.851562 111.328125 L 472.730469 111.328125 C 472.671875 111.328125 472.617188 111.3125 472.558594 111.300781 L 471.90625 111.300781 L 471.90625 110.648438 C 471.894531 110.59375 471.878906 110.535156 471.875 110.476562 L 471.875 106.351562 C 471.875 105.039062 472.476562 103.886719 473.382812 103.082031 C 472.683594 102.851562 471.886719 102.65625 470.9375 102.65625 Z M 470.9375 102.65625 "/>
<path style=" stroke:none;fill-rule:evenodd;fill:rgb(81.959534%,1.568604%,16.078186%);fill-opacity:1;" d="M 443.6875 314.171875 L 437.867188 313.996094 L 431.871094 316.816406 L 429.929688 323.34375 L 430.808594 326.347656 L 437.339844 333.402344 L 442.632812 330.402344 L 446.867188 325.816406 L 447.921875 321.753906 L 463.09375 302 L 462.390625 297.0625 L 459.035156 299.179688 L 457.796875 295.121094 L 455.683594 295.828125 Z M 443.6875 314.171875 "/>
<path style=" stroke:none;fill-rule:evenodd;fill:rgb(81.959534%,1.568604%,16.078186%);fill-opacity:1;" d="M 550.0625 327.222656 L 557.109375 333.578125 L 559.222656 333.046875 L 567 324.050781 L 565.222656 317.875 L 558 313.464844 L 552.527344 313.996094 L 540.355469 295.828125 L 538.238281 294.945312 L 537.363281 298.472656 L 533.828125 297.417969 L 532.417969 301.292969 L 548.46875 322.996094 Z M 550.0625 327.222656 "/>
<path style=" stroke:none;fill-rule:evenodd;fill:rgb(0%,0%,0%);fill-opacity:1;" d="M 445.210938 328.863281 L 454.210938 333.773438 L 452.027344 343.789062 L 443.027344 338.878906 Z M 445.210938 328.863281 "/>
<path style=" stroke:none;fill-rule:evenodd;fill:rgb(0%,0%,0%);fill-opacity:1;" d="M 403.277344 232.628906 L 400.035156 234.105469 L 436.667969 314.339844 L 440.5625 314.339844 Z M 446.480469 327.25 L 443.835938 329.980469 L 445.484375 333.621094 L 448.699219 332.140625 Z M 446.480469 327.25 "/>
<path style=" stroke:none;fill-rule:evenodd;fill:rgb(96.076965%,83.135986%,0.784302%);fill-opacity:1;" d="M 446.507812 331.699219 L 452.089844 334.746094 L 450.734375 340.957031 L 445.148438 337.914062 Z M 446.507812 331.699219 "/>
<path style=" stroke:none;fill-rule:evenodd;fill:rgb(4.31366%,27.058411%,73.332214%);fill-opacity:1;" d="M 497.488281 306.234375 L 519.722656 294.0625 L 545.820312 281.714844 L 550.765625 274.125 L 550.765625 231.617188 L 444.921875 231.445312 L 445.101562 274.660156 L 448.277344 279.777344 L 468.382812 290.886719 L 494.136719 302.703125 Z M 497.488281 306.234375 "/>
<path style=" stroke:none;fill-rule:evenodd;fill:rgb(81.959534%,1.568604%,16.078186%);fill-opacity:1;" d="M 443.695312 179.414062 L 445.03125 183.3125 L 444.71875 232.941406 L 446.566406 234.992188 L 461.839844 236.8125 L 478.363281 234.390625 C 478.363281 234.390625 487.957031 235.875 494.574219 236.894531 L 494.777344 237.890625 C 494.777344 237.890625 497.175781 237.523438 497.929688 237.40625 C 498.671875 237.523438 501.058594 237.890625 501.058594 237.890625 L 501.257812 236.894531 C 507.875 235.875 517.46875 234.390625 517.46875 234.390625 L 533.996094 236.8125 L 549.265625 234.992188 L 551.113281 232.941406 L 550.804688 183.3125 L 552.140625 179.414062 L 533.851562 179.558594 C 533.851562 179.558594 512.953125 179.765625 497.933594 179.929688 C 482.914062 179.765625 461.980469 179.558594 461.980469 179.558594 Z M 443.695312 179.414062 "/>
<path style=" stroke:none;fill-rule:evenodd;fill:rgb(0%,0%,0%);fill-opacity:1;" d="M 478.359375 234.394531 C 478.359375 234.394531 467.035156 231.625 462.804688 226.035156 C 455.410156 232.683594 446.566406 234.992188 446.566406 234.992188 C 446.566406 234.992188 455.792969 239.15625 462.804688 244.464844 C 466.039062 239.832031 478.359375 234.394531 478.359375 234.394531 Z M 478.359375 234.394531 "/>
<path style=" stroke:none;fill-rule:evenodd;fill:rgb(0%,0%,0%);fill-opacity:1;" d="M 517.464844 234.394531 C 517.464844 234.394531 529.792969 239.828125 533.023438 244.464844 C 540.035156 239.15625 549.261719 234.992188 549.261719 234.992188 C 549.261719 234.992188 540.417969 232.683594 533.023438 226.035156 C 528.796875 231.625 517.464844 234.394531 517.464844 234.394531 Z M 517.464844 234.394531 "/>
<path style=" stroke:none;fill-rule:evenodd;fill:rgb(0%,0%,0%);fill-opacity:1;" d="M 497.902344 183.566406 L 494.714844 192.609375 L 486.039062 188.488281 L 490.164062 197.164062 L 481.121094 200.375 L 490.164062 203.589844 L 486.039062 212.238281 L 494.714844 208.109375 L 497.902344 217.15625 L 501.113281 208.109375 L 509.789062 212.238281 L 505.664062 203.589844 L 514.707031 200.375 L 505.664062 197.164062 L 509.789062 188.488281 L 501.113281 192.609375 Z M 497.902344 183.566406 "/>
<path style=" stroke:none;fill-rule:evenodd;fill:rgb(96.076965%,83.135986%,0.784302%);fill-opacity:1;" d="M 479.796875 250.945312 L 482.921875 247.570312 L 486.414062 251.066406 L 483.171875 254.308594 Z M 479.796875 250.945312 "/>
<path style=" stroke:none;fill-rule:evenodd;fill:rgb(96.076965%,83.135986%,0.784302%);fill-opacity:1;" d="M 516.347656 250.945312 L 512.984375 247.199219 L 509.488281 250.816406 L 512.609375 254.183594 Z M 516.347656 250.945312 "/>
<path style=" stroke:none;fill-rule:evenodd;fill:rgb(96.076965%,83.135986%,0.784302%);fill-opacity:1;" d="M 509.238281 257.925781 L 507.621094 261.546875 L 507.496094 271.523438 L 510.117188 277.132812 L 513.605469 278.632812 L 513.109375 265.53125 L 515.476562 256.429688 Z M 509.238281 257.925781 "/>
<path style=" stroke:none;fill-rule:evenodd;fill:rgb(96.076965%,83.135986%,0.784302%);fill-opacity:1;" d="M 482.671875 267.65625 L 482.671875 278.382812 L 485.789062 276.140625 L 487.914062 271.273438 L 488.285156 262.796875 L 486.660156 257.675781 L 480.429688 256.554688 Z M 482.671875 267.65625 "/>
<path style=" stroke:none;fill-rule:evenodd;fill:rgb(96.076965%,83.135986%,0.784302%);fill-opacity:1;" d="M 525.828125 280.878906 L 525.707031 274.390625 L 531.195312 266.910156 L 537.679688 265.410156 L 530.445312 261.917969 L 523.460938 263.417969 L 519.84375 267.65625 L 519.464844 274.515625 L 524.582031 280.507812 Z M 525.828125 280.878906 "/>
<path style=" stroke:none;fill-rule:evenodd;fill:rgb(96.076965%,83.135986%,0.784302%);fill-opacity:1;" d="M 466.082031 281.253906 L 467.953125 277.761719 L 470.945312 279.753906 L 474.558594 279.007812 L 476.933594 275.386719 L 475.3125 272.023438 L 473.566406 270.648438 L 476.058594 269.277344 L 477.0625 265.160156 L 473.691406 261.296875 L 470.449219 261.792969 L 468.828125 263.039062 L 468.078125 260.050781 L 464.210938 257.796875 L 460.96875 259.050781 L 459.34375 262.414062 L 460.222656 265.410156 L 456.847656 265.039062 L 454.105469 267.65625 L 453.734375 271.152344 L 455.605469 273.394531 L 458.222656 274.265625 L 459.722656 274.144531 L 458.472656 277.261719 L 459.472656 280.375 L 462.589844 282.125 Z M 466.082031 281.253906 "/>
<path style=" stroke:none;fill-rule:evenodd;fill:rgb(99.998474%,82.351685%,0%);fill-opacity:1;" d="M 497.933594 189.65625 L 499.980469 195.429688 L 505.5 192.785156 L 502.878906 198.332031 L 508.625 200.378906 L 502.878906 202.429688 L 505.5 207.941406 L 499.980469 205.328125 L 497.90625 211.074219 L 495.859375 205.328125 L 490.339844 207.941406 L 492.957031 202.429688 L 487.210938 200.378906 L 492.957031 198.332031 L 490.339844 192.785156 L 495.859375 195.429688 Z M 497.933594 189.65625 "/>
<path style=" stroke:none;fill-rule:evenodd;fill:rgb(0%,0%,0%);fill-opacity:1;" d="M 479.703125 182.203125 C 479.179688 185.859375 460.789062 193.453125 460.789062 208.769531 C 460.789062 228.375 479.132812 233 479.132812 233 L 478.363281 234.394531 L 473.898438 242.527344 C 473.898438 242.527344 481.476562 242.90625 485.503906 246.339844 C 490.351562 250.476562 489.882812 259.246094 489.882812 265.621094 C 489.882812 270.644531 489.246094 275.949219 486.667969 278.136719 C 483.207031 281.070312 480.863281 281.289062 480.863281 284.734375 C 480.863281 287.609375 483.074219 288.1875 486.667969 290.082031 C 491.273438 292.511719 491.058594 295.769531 497.902344 295.769531 C 504.746094 295.769531 504.558594 292.511719 509.164062 290.082031 C 512.757812 288.1875 514.964844 287.609375 514.964844 284.734375 C 514.964844 281.289062 512.625 281.070312 509.164062 278.136719 C 506.585938 275.949219 505.953125 270.644531 505.953125 265.621094 C 505.953125 259.246094 505.480469 250.476562 510.328125 246.339844 C 514.355469 242.910156 521.933594 242.527344 521.933594 242.527344 L 517.46875 234.394531 L 516.703125 233 C 516.703125 233 535.046875 228.375 535.046875 208.769531 C 535.046875 193.457031 516.65625 185.859375 516.132812 182.203125 C 514.335938 188.527344 522.277344 197.261719 522.277344 207.601562 C 522.277344 220.984375 512.40625 221.625 512.40625 221.625 C 510.097656 221.625 509.160156 223.273438 508.253906 223.273438 C 506.3125 223.070312 505.394531 220.601562 503.476562 220.601562 C 501.671875 220.601562 500.289062 223.386719 497.902344 223.386719 C 495.515625 223.386719 494.160156 220.601562 492.355469 220.601562 C 490.433594 220.601562 489.519531 223.070312 487.578125 223.273438 C 486.671875 223.273438 485.734375 221.625 483.425781 221.625 C 483.425781 221.625 473.558594 220.984375 473.558594 207.601562 C 473.558594 197.261719 481.496094 188.527344 479.699219 182.203125 Z M 479.703125 182.203125 "/>
<path style=" stroke:none;fill-rule:evenodd;fill:rgb(99.998474%,82.351685%,0%);fill-opacity:1;" d="M 462.632812 228.820312 C 466.371094 233.101562 472.304688 234.738281 472.304688 234.738281 C 472.304688 234.738281 462.804688 241.792969 462.804688 241.792969 L 462.691406 241.933594 L 462.492188 241.761719 L 451.96875 235.164062 C 451.96875 235.164062 458.683594 232.847656 462.632812 228.820312 Z M 462.632812 228.820312 "/>
<path style=" stroke:none;fill-rule:evenodd;fill:rgb(99.998474%,82.351685%,0%);fill-opacity:1;" d="M 477.027344 187.75 C 477.78125 189.375 470.882812 199.390625 470.882812 207.601562 C 470.882812 217.671875 476.257812 223.613281 483.425781 223.613281 C 484.796875 223.613281 486.289062 225.464844 487.578125 225.464844 C 489.679688 225.464844 491.078125 223.132812 492.359375 223.132812 C 493.984375 223.132812 495.078125 225.6875 497.902344 225.6875 C 500.726562 225.6875 501.851562 223.132812 503.476562 223.132812 C 504.753906 223.132812 506.15625 225.464844 508.253906 225.464844 C 509.546875 225.464844 511.039062 223.613281 512.40625 223.613281 C 519.578125 223.613281 524.953125 217.671875 524.953125 207.601562 C 524.953125 199.390625 518.054688 189.375 518.808594 187.75 C 518.808594 187.75 532.257812 197.398438 532.257812 208.765625 C 532.257812 227.082031 513.6875 231.605469 513.6875 231.605469 L 517.867188 241.019531 C 517.867188 241.019531 512.113281 241.882812 508.597656 244.71875 C 503.910156 248.496094 503.847656 258.714844 503.847656 265.621094 C 503.847656 273.757812 504.152344 277.207031 507.089844 279.414062 C 510.1875 281.742188 512.523438 282.246094 512.523438 284.621094 C 512.523438 286.6875 510.109375 287.53125 506.972656 288.914062 C 503.414062 290.484375 503.058594 293.210938 497.902344 293.210938 C 492.75 293.210938 492.421875 290.484375 488.859375 288.914062 C 485.726562 287.53125 483.3125 286.6875 483.3125 284.621094 C 483.3125 282.246094 485.644531 281.742188 488.746094 279.414062 C 491.683594 277.207031 491.988281 273.757812 491.988281 265.621094 C 491.988281 258.714844 491.925781 248.496094 487.238281 244.71875 C 483.722656 241.882812 477.964844 241.019531 477.964844 241.019531 L 482.144531 231.605469 C 482.144531 231.605469 463.574219 227.082031 463.574219 208.765625 C 463.574219 197.398438 477.027344 187.75 477.027344 187.75 Z M 477.027344 187.75 "/>
<path style=" stroke:none;fill-rule:evenodd;fill:rgb(99.998474%,82.351685%,0%);fill-opacity:1;" d="M 533.195312 228.820312 C 537.144531 232.847656 543.859375 235.164062 543.859375 235.164062 C 543.859375 235.164062 536.855469 238.652344 533.335938 241.761719 C 533.46875 242.402344 533.164062 241.910156 533.136719 241.933594 C 532.972656 242.140625 533.074219 241.855469 533.023438 241.792969 C 529.699219 237.976562 523.523438 234.738281 523.523438 234.738281 C 523.523438 234.738281 529.457031 233.101562 533.195312 228.820312 Z M 533.195312 228.820312 "/>
<path style=" stroke:none;fill-rule:evenodd;fill:rgb(0%,0%,0%);fill-opacity:1;" d="M 483 246.449219 L 478.589844 250.855469 L 483 255.265625 L 487.40625 250.855469 Z M 483 246.449219 "/>
<path style=" stroke:none;fill-rule:evenodd;fill:rgb(0%,0%,0%);fill-opacity:1;" d="M 512.832031 246.449219 L 508.425781 250.855469 L 512.832031 255.265625 L 517.242188 250.855469 Z M 512.832031 246.449219 "/>
<path style=" stroke:none;fill-rule:evenodd;fill:rgb(99.998474%,82.351685%,0%);fill-opacity:1;" d="M 483 248.558594 L 485.304688 250.855469 L 483 253.191406 L 480.667969 250.855469 Z M 483 248.558594 "/>
<path style=" stroke:none;fill-rule:evenodd;fill:rgb(99.998474%,82.351685%,0%);fill-opacity:1;" d="M 512.832031 248.558594 L 515.167969 250.855469 L 512.832031 253.191406 L 510.53125 250.855469 Z M 512.832031 248.558594 "/>
<path style=" stroke:none;fill-rule:evenodd;fill:rgb(0%,0%,0%);fill-opacity:1;" d="M 478.933594 255.269531 C 479.808594 257.433594 481.890625 264.144531 481.890625 272.191406 C 481.890625 277.757812 481.351562 280.695312 481.351562 280.695312 C 481.351562 280.695312 487.566406 278.863281 488.800781 272.558594 C 489.382812 269.605469 490.027344 258.714844 487.039062 256.859375 Z M 478.933594 255.269531 "/>
<path style=" stroke:none;fill-rule:evenodd;fill:rgb(0%,0%,0%);fill-opacity:1;" d="M 516.898438 255.269531 L 508.792969 256.859375 C 505.804688 258.714844 506.449219 269.605469 507.03125 272.558594 C 508.269531 278.863281 514.484375 280.695312 514.484375 280.695312 C 514.484375 280.695312 513.941406 277.757812 513.941406 272.191406 C 513.941406 264.144531 516.023438 257.433594 516.898438 255.269531 Z M 516.898438 255.269531 "/>
<path style=" stroke:none;fill-rule:evenodd;fill:rgb(0%,0%,0%);fill-opacity:1;" d="M 463.835938 257.035156 C 463.488281 257.046875 463.128906 257.089844 462.777344 257.175781 C 459.984375 257.875 458.296875 260.722656 458.996094 263.515625 C 459.105469 263.945312 459.28125 264.339844 459.480469 264.710938 C 459.074219 264.574219 458.652344 264.484375 458.199219 264.457031 C 458.023438 264.441406 457.835938 264.449219 457.660156 264.457031 C 455.015625 264.546875 452.808594 266.625 452.628906 269.320312 C 452.429688 272.195312 454.617188 274.667969 457.492188 274.863281 C 457.921875 274.894531 458.339844 274.878906 458.742188 274.808594 C 458.496094 275.148438 458.28125 275.507812 458.117188 275.917969 C 457.042969 278.589844 458.34375 281.667969 461.019531 282.746094 C 463.691406 283.820312 466.738281 282.488281 467.8125 279.816406 C 467.980469 279.40625 468.070312 279.007812 468.128906 278.589844 C 468.375 278.933594 468.671875 279.246094 469.011719 279.53125 C 471.222656 281.378906 474.527344 281.085938 476.375 278.875 C 478.226562 276.664062 477.933594 273.386719 475.722656 271.539062 C 475.386719 271.257812 475.015625 271.035156 474.640625 270.855469 C 475.042969 270.726562 475.433594 270.546875 475.804688 270.316406 C 478.246094 268.785156 478.988281 265.53125 477.453125 263.089844 C 476.402344 261.414062 474.554688 260.550781 472.703125 260.675781 C 471.867188 260.730469 471.023438 260.992188 470.261719 261.472656 C 469.886719 261.703125 469.554688 261.964844 469.265625 262.265625 C 469.265625 261.847656 469.230469 261.414062 469.121094 260.984375 C 468.507812 258.542969 466.257812 256.929688 463.832031 257.035156 Z M 463.835938 257.035156 "/>
<path style=" stroke:none;fill-rule:evenodd;fill:rgb(99.998474%,82.351685%,0%);fill-opacity:1;" d="M 481.777344 257.710938 L 486.128906 258.621094 C 487.738281 260.84375 487.464844 264.433594 487.464844 269.429688 C 487.464844 274.46875 483.683594 276.398438 483.683594 276.398438 C 483.683594 264.289062 482.433594 261.378906 481.777344 257.710938 Z M 481.777344 257.710938 "/>
<path style=" stroke:none;fill-rule:evenodd;fill:rgb(99.998474%,82.351685%,0%);fill-opacity:1;" d="M 514.054688 257.710938 C 513.398438 261.378906 512.148438 264.289062 512.148438 276.398438 C 512.148438 276.398438 508.367188 274.464844 508.367188 269.429688 C 508.367188 264.433594 508.09375 260.84375 509.703125 258.621094 Z M 514.054688 257.710938 "/>
<path style=" stroke:none;fill-rule:evenodd;fill:rgb(99.998474%,82.351685%,0%);fill-opacity:1;" d="M 464.144531 259.222656 C 466.027344 259.140625 467.761719 260.390625 468.242188 262.292969 C 468.355469 262.746094 468.363281 263.191406 468.324219 263.632812 C 468.292969 263.996094 468.195312 264.324219 468.070312 264.652344 C 467.441406 264.421875 466.757812 264.3125 466.050781 264.3125 C 464.296875 264.3125 462.726562 265.085938 461.644531 266.304688 C 461.359375 266.054688 461.109375 265.773438 460.902344 265.453125 C 460.667969 265.089844 460.472656 264.695312 460.363281 264.253906 C 459.816406 262.082031 461.148438 259.878906 463.320312 259.335938 C 463.589844 259.265625 463.875 259.234375 464.144531 259.21875 L 464.144531 259.222656 L 464.148438 259.222656 Z M 464.144531 259.222656 "/>
<path style=" stroke:none;fill-rule:evenodd;fill:rgb(0%,0%,0%);fill-opacity:1;" d="M 529.128906 260.898438 C 522.449219 260.898438 517.566406 266.046875 518.238281 272.359375 C 518.800781 277.6875 523.128906 282.152344 528.476562 283.425781 C 527.5625 281.929688 526.957031 280.269531 526.769531 278.503906 C 526.097656 272.1875 530.984375 267.070312 537.660156 267.070312 C 538.710938 267.070312 539.734375 267.203125 540.730469 267.441406 C 538.378906 263.582031 533.945312 260.898438 529.128906 260.898438 Z M 529.128906 260.898438 "/>
<path style=" stroke:none;fill-rule:evenodd;fill:rgb(99.998474%,82.351685%,0%);fill-opacity:1;" d="M 472.277344 262.351562 C 473.582031 262.394531 474.832031 263.070312 475.574219 264.253906 C 476.765625 266.152344 476.195312 268.667969 474.296875 269.859375 C 473.898438 270.105469 473.476562 270.273438 473.042969 270.371094 C 472.6875 270.453125 472.320312 270.445312 471.964844 270.425781 C 471.96875 270.371094 471.964844 270.316406 471.964844 270.253906 C 471.964844 267.839844 470.511719 265.75 468.4375 264.824219 C 468.585938 264.46875 468.753906 264.132812 469.003906 263.828125 C 469.273438 263.503906 469.597656 263.214844 469.972656 262.976562 C 470.6875 262.53125 471.492188 262.324219 472.277344 262.351562 Z M 472.277344 262.351562 "/>
<path style=" stroke:none;fill-rule:evenodd;fill:rgb(99.998474%,82.351685%,0%);fill-opacity:1;" d="M 529.128906 263.261719 C 531.21875 263.261719 533.226562 263.902344 534.957031 264.96875 C 528.441406 266.226562 523.753906 271.984375 524.4375 278.707031 C 522.359375 276.984375 520.839844 274.667969 520.566406 272.105469 C 520.039062 267.121094 523.664062 263.261719 529.128906 263.261719 Z M 529.128906 263.261719 "/>
<path style=" stroke:none;fill-rule:evenodd;fill:rgb(99.998474%,82.351685%,0%);fill-opacity:1;" d="M 459.164062 265.707031 C 459.636719 265.738281 460.0625 265.871094 460.472656 266.046875 C 460.804688 266.1875 461.109375 266.375 461.386719 266.589844 C 460.597656 267.597656 460.132812 268.875 460.132812 270.253906 C 460.132812 271.339844 460.425781 272.339844 460.929688 273.214844 C 460.585938 273.429688 460.226562 273.597656 459.820312 273.699219 C 459.429688 273.792969 459.023438 273.839844 458.597656 273.8125 C 456.359375 273.65625 454.664062 271.722656 454.816406 269.488281 C 454.96875 267.253906 456.929688 265.550781 459.164062 265.707031 Z M 459.164062 265.707031 "/>
<path style=" stroke:none;fill-rule:evenodd;fill:rgb(99.998474%,82.351685%,0%);fill-opacity:1;" d="M 466.050781 266.304688 C 468.222656 266.304688 469.976562 268.089844 469.976562 270.261719 C 469.976562 272.429688 468.222656 274.1875 466.050781 274.1875 C 463.878906 274.1875 462.125 272.429688 462.125 270.261719 C 462.125 268.089844 463.878906 266.304688 466.050781 266.304688 Z M 466.050781 266.304688 "/>
<path style=" stroke:none;fill-rule:evenodd;fill:rgb(99.998474%,82.351685%,0%);fill-opacity:1;" d="M 471.933594 270.820312 C 472.324219 270.867188 472.695312 270.957031 473.070312 271.109375 C 473.460938 271.261719 473.839844 271.449219 474.179688 271.730469 C 475.898438 273.171875 476.101562 275.730469 474.664062 277.449219 C 473.226562 279.167969 470.664062 279.398438 468.945312 277.960938 C 468.585938 277.660156 468.320312 277.292969 468.09375 276.90625 C 467.914062 276.601562 467.796875 276.277344 467.695312 275.941406 C 469.984375 275.277344 471.695312 273.265625 471.933594 270.820312 Z M 471.933594 270.820312 "/>
<path style=" stroke:none;fill-rule:evenodd;fill:rgb(99.998474%,82.351685%,0%);fill-opacity:1;" d="M 461.128906 273.558594 C 462.191406 275.128906 464.003906 276.171875 466.046875 276.171875 C 466.480469 276.171875 466.894531 276.117188 467.296875 276.027344 C 467.386719 276.402344 467.4375 276.777344 467.414062 277.167969 C 467.386719 277.589844 467.324219 278.003906 467.15625 278.421875 C 466.320312 280.5 463.945312 281.503906 461.867188 280.667969 C 459.789062 279.832031 458.753906 277.453125 459.589844 275.378906 C 459.761719 274.957031 459.996094 274.589844 460.277344 274.265625 C 460.519531 273.984375 460.816406 273.753906 461.128906 273.558594 Z M 461.128906 273.558594 "/>
<path style=" stroke:none;fill-rule:evenodd;fill:rgb(0%,0%,0%);fill-opacity:1;" d="M 490.878906 283.226562 C 487.226562 283.226562 484.90625 283.996094 484.90625 285.105469 C 484.90625 286.210938 487.226562 286.953125 490.878906 286.953125 C 491.851562 286.953125 492.953125 286.386719 492.953125 285.105469 C 492.953125 283.820312 491.847656 283.226562 490.878906 283.226562 Z M 490.878906 283.226562 "/>
<path style=" stroke:none;fill-rule:evenodd;fill:rgb(0%,0%,0%);fill-opacity:1;" d="M 504.957031 283.226562 C 503.980469 283.226562 502.878906 283.820312 502.878906 285.105469 C 502.878906 286.386719 503.980469 286.953125 504.957031 286.953125 C 508.605469 286.953125 510.925781 286.214844 510.925781 285.105469 C 510.925781 283.996094 508.605469 283.226562 504.957031 283.226562 Z M 504.957031 283.226562 "/>
<path style=" stroke:none;fill-rule:evenodd;fill:rgb(0%,0%,0%);fill-opacity:1;" d="M 611.164062 218.695312 L 604.851562 223.300781 L 605.5625 224.808594 C 605.5625 224.808594 604.410156 225.207031 603.882812 226.230469 C 603.363281 227.257812 604.226562 228.707031 604.226562 228.707031 C 604.226562 228.707031 598.226562 228.183594 597.289062 228.792969 C 596.4375 229.339844 597.648438 233.5 597.089844 237.011719 C 596.3125 241.90625 594.378906 241.492188 594.300781 242.441406 C 594.226562 243.363281 595.039062 244.804688 595.039062 244.804688 C 595.039062 244.804688 593.914062 245.15625 593.675781 245.628906 C 593.289062 246.382812 593.941406 247.78125 593.476562 248.699219 C 590.863281 253.820312 587.007812 261.386719 584.460938 266.390625 C 584.101562 267.085938 583.148438 267.355469 582.667969 268.292969 C 582.226562 269.164062 582.585938 270.425781 582.585938 270.425781 C 582.585938 270.425781 580.894531 270.527344 580.308594 271.679688 C 579.683594 272.902344 580.050781 274.550781 580.050781 274.550781 C 580.050781 274.550781 578.980469 274.6875 578.457031 275.71875 C 577.898438 276.816406 578.847656 277.394531 578.601562 277.878906 C 575.175781 284.601562 571.140625 292.527344 568.675781 297.359375 C 567.769531 299.140625 564.597656 299.496094 562.761719 303.105469 C 560.972656 306.609375 563.527344 309.191406 563.527344 309.191406 C 563.527344 309.191406 560.875 309.433594 560.171875 310.816406 C 559.453125 312.222656 560.019531 314.359375 561.9375 315.335938 C 563.847656 316.3125 565.941406 315.523438 566.660156 314.113281 C 567.359375 312.730469 565.945312 310.445312 565.945312 310.445312 C 565.945312 310.445312 569.535156 310.960938 571.320312 307.457031 C 573.160156 303.847656 571.609375 301.101562 572.515625 299.324219 C 574.976562 294.492188 579.015625 286.566406 582.441406 279.84375 C 582.6875 279.355469 583.699219 279.777344 584.261719 278.675781 C 584.785156 277.648438 584.261719 276.714844 584.261719 276.714844 C 584.261719 276.714844 585.828125 276.03125 586.453125 274.808594 C 587.039062 273.65625 586.136719 272.21875 586.136719 272.21875 C 586.136719 272.21875 587.375 271.78125 587.816406 270.910156 C 588.296875 269.972656 587.941406 269.050781 588.300781 268.351562 C 590.851562 263.347656 594.703125 255.785156 597.316406 250.660156 C 597.785156 249.742188 599.289062 249.429688 599.675781 248.671875 C 599.914062 248.203125 599.535156 247.078125 599.535156 247.078125 C 599.535156 247.078125 601.195312 246.914062 601.894531 246.3125 C 602.617188 245.691406 601.152344 244.359375 604.65625 240.851562 C 607.167969 238.332031 611.21875 236.855469 611.164062 235.84375 C 611.109375 234.726562 607.15625 230.183594 607.15625 230.183594 C 607.15625 230.183594 608.824219 230.042969 609.34375 229.019531 C 609.867188 227.992188 609.515625 226.800781 609.515625 226.800781 L 611.164062 226.515625 L 611.164062 218.691406 Z M 551.8125 331.351562 C 551 331.433594 550.496094 331.910156 550.332031 332.230469 C 550.085938 332.71875 550.039062 333.382812 550.332031 333.964844 C 550.332031 333.964844 548.34375 333.34375 547.660156 333.679688 C 547.015625 334 547.660156 343.382812 547.660156 343.382812 C 547.660156 343.382812 555.601562 338.371094 555.480469 337.664062 C 555.351562 336.914062 553.6875 335.644531 553.6875 335.644531 C 554.332031 335.542969 554.835938 335.136719 555.082031 334.648438 C 555.34375 334.136719 555.378906 332.664062 553.574219 331.75 C 552.898438 331.40625 552.296875 331.300781 551.808594 331.351562 Z M 551.8125 331.351562 "/>
<path style=" stroke:none;fill-rule:evenodd;fill:rgb(0%,0%,0%);fill-opacity:1;" d="M 490.394531 112.976562 C 488.410156 112.976562 485.480469 113.03125 483.765625 114.171875 C 482.199219 115.214844 482.328125 116.570312 481.777344 117.042969 C 480.484375 118.164062 478.265625 118.125 477.195312 118.125 C 470.285156 118.125 470.03125 125.519531 470.03125 125.519531 C 470.03125 125.519531 471.796875 122.847656 474.921875 122.847656 C 480.117188 122.847656 484.050781 125.675781 484.050781 126.742188 C 484.050781 127.175781 483.515625 127.253906 483.484375 127.253906 C 480.089844 127.253906 474.96875 125.300781 472.246094 125.207031 L 472.246094 126.289062 C 472.285156 126.3125 472.308594 126.34375 472.363281 126.371094 C 472.324219 126.367188 472.289062 126.351562 472.246094 126.347656 L 472.246094 126.542969 C 478.320312 128.65625 484.476562 131.644531 484.476562 144.828125 C 484.476562 153.132812 483.484375 161.601562 479.328125 168.265625 C 477.859375 170.625 475.765625 172.640625 473.246094 174.4375 C 472.121094 174.097656 466.847656 172.460938 463.148438 170.398438 C 456.632812 166.769531 453.253906 163.160156 445.511719 162.804688 L 445.511719 156.917969 C 445.511719 153.773438 446.652344 150.9375 446.652344 147.929688 C 443.390625 147.058594 434.332031 135.980469 425.976562 131.066406 C 413.679688 139.027344 404.160156 152.101562 404.160156 158.113281 C 404.160156 158.113281 404.53125 287.285156 404.160156 332.285156 C 404.160156 334.878906 402.597656 338.542969 402.597656 338.542969 C 407.085938 336.644531 415.3125 325.386719 417.046875 321.109375 L 417.046875 323.15625 C 423.824219 320.066406 428.785156 311.945312 431.011719 307.742188 C 431.050781 308.347656 431.152344 309.875 431.152344 309.875 C 437.207031 304.566406 444.917969 273.183594 444.917969 273.183594 L 444.519531 266.589844 C 444.519531 266.589844 439.1875 292.207031 433.117188 297.472656 L 433.117188 187.152344 L 437.921875 191.617188 L 445.203125 184.820312 L 445.203125 179.644531 L 438.746094 185.671875 L 438.746094 170.058594 C 439.71875 168.585938 440.363281 167.488281 440.851562 166.617188 C 441.894531 168.4375 445.273438 174.019531 449.242188 177.453125 C 449.890625 174.800781 454.1875 172.277344 454.1875 172.277344 C 454.1875 172.277344 455.730469 176.449219 458.085938 177.480469 C 458.914062 176.019531 463.859375 172.789062 463.859375 172.789062 C 463.859375 172.789062 459.628906 173.433594 457.914062 175.035156 C 456.441406 174.707031 456.066406 168.890625 456.066406 168.890625 C 456.066406 168.890625 449.839844 171.921875 448.757812 174.097656 C 447.570312 173.777344 445.722656 169.101562 445 167.183594 C 446.089844 167.066406 447.621094 166.929688 449.636719 166.929688 C 451.414062 166.929688 453.683594 167.769531 456.066406 168.890625 C 458.679688 170.121094 461.414062 171.683594 463.859375 172.789062 C 466.988281 174.203125 471.71875 174.492188 473.101562 174.550781 C 471.519531 175.664062 469.785156 176.675781 467.898438 177.621094 C 467.898438 177.621094 475.347656 177.554688 480.582031 174.953125 C 482.449219 173.75 484.386719 172.554688 486.042969 171.140625 C 485.324219 173.132812 484.207031 175.492188 482.457031 177.507812 C 490.144531 176.859375 493.972656 172.46875 495.058594 170.996094 C 495.566406 172.316406 496.476562 174.433594 497.902344 176.257812 C 499.328125 174.433594 500.261719 172.316406 500.773438 170.996094 C 501.859375 172.46875 505.6875 176.859375 513.375 177.507812 C 511.625 175.492188 510.507812 173.132812 509.789062 171.140625 C 511.445312 172.550781 513.382812 173.75 515.25 174.953125 C 520.484375 177.554688 527.933594 177.621094 527.933594 177.621094 C 526.046875 176.675781 524.28125 175.660156 522.703125 174.550781 C 524.03125 174.5 528.820312 174.214844 531.972656 172.789062 C 534.414062 171.683594 537.152344 170.121094 539.765625 168.890625 C 542.148438 167.769531 544.421875 166.929688 546.195312 166.929688 C 548.210938 166.929688 549.742188 167.066406 550.828125 167.183594 C 550.109375 169.101562 548.265625 173.777344 547.074219 174.097656 C 545.992188 171.921875 539.765625 168.890625 539.765625 168.890625 C 539.765625 168.890625 539.386719 174.707031 537.917969 175.035156 C 536.203125 173.433594 531.972656 172.789062 531.972656 172.789062 C 531.972656 172.789062 536.917969 176.019531 537.746094 177.480469 C 540.105469 176.449219 541.617188 172.277344 541.617188 172.277344 C 541.617188 172.277344 545.9375 174.800781 546.59375 177.453125 C 550.558594 174.019531 553.9375 168.441406 554.980469 166.617188 C 555.488281 167.515625 556.160156 168.65625 557.085938 170.058594 L 557.085938 185.671875 L 550.628906 179.644531 L 550.628906 184.820312 L 557.910156 191.617188 L 562.714844 187.152344 L 562.714844 297.472656 C 556.644531 292.207031 551.3125 266.589844 551.3125 266.589844 L 550.914062 273.183594 C 550.914062 273.183594 558.625 304.566406 564.679688 309.875 C 564.679688 309.875 564.785156 308.347656 564.820312 307.742188 C 567.042969 311.945312 572.007812 320.066406 578.785156 323.15625 L 578.785156 321.109375 C 580.515625 325.386719 588.746094 336.644531 593.234375 338.542969 C 593.234375 338.542969 591.667969 334.878906 591.667969 332.285156 C 591.300781 287.285156 591.667969 158.113281 591.667969 158.113281 C 591.667969 152.097656 582.152344 139.03125 569.855469 131.066406 C 561.5 135.980469 552.445312 147.058594 549.179688 147.929688 C 549.179688 150.9375 550.316406 153.773438 550.316406 156.917969 L 550.316406 162.777344 C 542.589844 163.140625 539.191406 166.773438 532.683594 170.398438 C 528.960938 172.472656 523.628906 174.117188 522.5625 174.4375 C 520.039062 172.648438 517.972656 170.625 516.503906 168.265625 C 512.964844 162.585938 511.46875 155.613281 511.46875 148.527344 C 511.46875 145.53125 514.824219 142.160156 514.824219 139.738281 C 514.824219 136.078125 514.484375 133.882812 514.484375 133.882812 C 515.671875 134.042969 517.753906 136.15625 517.753906 136.15625 C 517.753906 136.15625 517.679688 130.078125 515.761719 129.015625 C 515.761719 129.015625 516.539062 128.21875 519.347656 128.136719 C 518.558594 126.140625 514.652344 123.699219 514.652344 123.699219 C 514.847656 123.351562 515.210938 123.046875 515.675781 122.789062 C 516.660156 122.246094 518.035156 121.890625 519.089844 121.679688 C 517.964844 121.445312 516.671875 121.089844 515.25 120.628906 C 512.007812 119.570312 508.183594 118.015625 504.613281 116.304688 C 498.097656 113.179688 493.132812 112.976562 490.394531 112.976562 Z M 490.535156 114.769531 C 491.140625 114.777344 491.703125 114.796875 492.183594 114.796875 C 498.550781 114.796875 503.027344 117.699219 509.050781 120.371094 C 510.632812 121.070312 512.078125 121.640625 513.375 122.078125 C 512.5625 122.796875 511.933594 123.519531 511.75 124.125 C 511.75 124.125 514.449219 124.625 515.675781 126.886719 C 515.675781 126.886719 513.109375 127.179688 512.691406 128.679688 C 514.128906 128.785156 515.558594 130.597656 515.5625 132.347656 L 511.921875 131.210938 C 511.921875 131.210938 512.804688 135.296875 512.804688 139.742188 C 512.804688 142.011719 509.535156 144.679688 509.535156 148.53125 C 509.535156 160.605469 512.574219 165.246094 514.742188 168.976562 C 515.585938 170.4375 516.273438 172.121094 517.695312 173.386719 C 511.464844 170.066406 506.832031 165.921875 506.832031 162.066406 L 506.832031 147.476562 L 505.210938 147.476562 L 505.210938 162.066406 C 505.210938 164.859375 505.894531 166.160156 505.894531 166.160156 C 506.871094 169.253906 508.847656 174.023438 510.074219 175.945312 C 504.339844 172.847656 501.429688 168.964844 501.429688 167.527344 L 501.429688 147.476562 L 499.808594 147.476562 L 499.808594 167.8125 L 500.121094 169.207031 C 499.425781 170.25 498.523438 171.484375 497.902344 171.90625 C 497.285156 171.488281 496.410156 170.246094 495.710938 169.207031 L 496.023438 167.8125 L 496.023438 147.476562 L 494.402344 147.476562 L 494.402344 167.527344 C 494.402344 168.964844 491.492188 172.847656 485.757812 175.945312 C 486.980469 174.023438 488.960938 169.253906 489.9375 166.160156 C 489.9375 166.160156 490.621094 164.859375 490.621094 162.066406 L 490.621094 147.476562 L 489 147.476562 L 489 162.066406 C 489 165.914062 484.382812 170.066406 478.164062 173.386719 C 479.574219 172.117188 480.25 170.429688 481.09375 168.976562 C 483.457031 164.894531 486.382812 159.707031 486.382812 144.945312 C 486.382812 139.402344 485.5625 135.636719 484.136719 133 C 483.703125 132.128906 483.117188 129.816406 486.441406 129.816406 C 488.160156 129.816406 492.097656 132.859375 492.097656 132.859375 C 492.097656 132.859375 491.933594 130.429688 489.9375 129.046875 C 489.605469 128.816406 489.054688 128.09375 489.054688 127.425781 C 489.054688 126.921875 489.917969 125.683594 490.589844 125.378906 C 491.054688 125.167969 483.820312 123.90625 483.820312 120.628906 C 483.820312 119.945312 484.253906 119.492188 485.753906 119.492188 C 487.726562 119.492188 490.929688 121.851562 493.777344 121.851562 C 495.882812 121.851562 496.710938 121.339844 498.867188 121.339844 C 501.5 121.339844 506.996094 126.328125 508.875 126.144531 C 506.777344 124.824219 503.378906 119.828125 498.242188 119.828125 C 496.457031 119.828125 494.84375 120.226562 493.179688 120.226562 C 491.042969 120.226562 488.941406 118.265625 486.636719 118.265625 C 485.089844 118.265625 483.367188 118.351562 483.109375 117.953125 C 482.664062 117.253906 483.066406 116.851562 483.480469 116.277344 C 484.261719 115.1875 486.460938 114.871094 488.628906 114.796875 C 489.277344 114.773438 489.929688 114.761719 490.53125 114.769531 Z M 425.976562 136.667969 L 425.976562 136.695312 C 425.976562 136.695312 437.398438 147.164062 441.25 148.5 L 441.390625 152.027344 L 441.390625 162.40625 C 438.601562 161.445312 435.097656 156.867188 433.398438 154.441406 L 433.398438 153.023438 C 433.398438 151.683594 434.183594 150.707031 434.761719 150.179688 L 433.085938 149.582031 C 432.445312 150.308594 431.75 151.394531 431.75 152.792969 L 431.75 153.617188 L 431.210938 154.1875 L 430.925781 154.503906 L 426.746094 158.996094 L 421.824219 151.542969 L 421.824219 149.722656 C 421.824219 148.496094 422.765625 147.128906 423.558594 146.195312 L 421.910156 145.601562 C 421.078125 146.679688 420.203125 148.132812 420.203125 149.496094 L 420.203125 150.972656 C 419.046875 152.171875 414.542969 156.804688 414.542969 156.804688 C 414.542969 156.804688 412.285156 151.949219 411.671875 150.632812 C 415.117188 145.859375 420.707031 140.511719 425.976562 136.667969 L 425.976562 136.671875 Z M 569.855469 136.667969 C 575.109375 140.503906 580.703125 145.867188 584.160156 150.632812 C 583.546875 151.949219 581.289062 156.804688 581.289062 156.804688 C 581.289062 156.804688 576.785156 152.171875 575.628906 150.972656 L 575.628906 149.496094 C 575.628906 148.132812 574.753906 146.675781 573.921875 145.601562 L 572.269531 146.195312 C 573.0625 147.128906 574.007812 148.496094 574.007812 149.722656 L 574.007812 151.542969 L 569.085938 158.996094 L 564.90625 154.5 L 564.621094 154.1875 L 564.082031 153.617188 L 564.082031 152.792969 C 564.082031 151.394531 563.382812 150.308594 562.746094 149.578125 L 561.066406 150.175781 C 561.644531 150.707031 562.433594 151.683594 562.433594 153.023438 L 562.433594 154.441406 C 560.730469 156.867188 557.230469 161.445312 554.441406 162.40625 L 554.441406 152.027344 L 554.582031 148.5 C 558.429688 147.164062 569.855469 136.695312 569.855469 136.695312 Z M 409.675781 153.816406 L 412.292969 158.566406 L 412.292969 167.128906 L 408.3125 170.824219 L 408.3125 158.113281 C 408.3125 156.894531 408.820312 155.429688 409.675781 153.816406 Z M 586.148438 153.816406 C 587.003906 155.429688 587.515625 156.894531 587.515625 158.113281 L 587.515625 170.824219 L 583.53125 167.128906 L 583.53125 158.566406 Z M 420.113281 154.898438 L 424.695312 161.867188 L 424.695312 167.15625 L 420.113281 171.453125 Z M 575.714844 154.898438 L 575.714844 171.453125 L 571.132812 167.15625 L 571.132812 161.867188 Z M 418.492188 156.148438 L 418.492188 171.421875 L 413.914062 167.15625 L 413.914062 160.957031 L 418.492188 156.152344 Z M 577.328125 156.148438 L 581.910156 160.957031 L 581.910156 167.15625 L 577.328125 171.421875 Z M 432.539062 157.257812 C 433.234375 158.40625 436.394531 163.523438 439.394531 164.996094 C 438.332031 166.5 435.546875 170.175781 432.539062 171.792969 Z M 563.28125 157.257812 L 563.28125 171.789062 C 560.277344 170.175781 557.492188 166.5 556.425781 164.996094 C 559.429688 163.523438 562.59375 158.40625 563.28125 157.257812 Z M 430.917969 158 L 430.917969 171.421875 L 426.339844 167.15625 L 426.339844 162.40625 Z M 564.902344 158 L 569.484375 162.40625 L 569.484375 167.15625 L 564.902344 171.421875 Z M 412.289062 172.304688 L 412.289062 185.699219 L 408.3125 181.972656 L 408.3125 176.027344 Z M 583.53125 172.304688 L 587.515625 176.027344 L 587.515625 181.972656 L 583.53125 185.699219 Z M 413.90625 172.332031 L 416.527344 174.777344 L 418.488281 176.597656 L 418.488281 181.40625 L 416.527344 183.226562 L 413.90625 185.671875 Z M 424.6875 172.332031 L 424.6875 185.671875 L 422.070312 183.226562 L 420.109375 181.378906 L 420.109375 176.628906 L 422.070312 174.777344 Z M 426.335938 172.332031 L 430.917969 176.628906 L 430.917969 181.378906 L 428.925781 183.253906 L 426.335938 185.671875 Z M 437.117188 172.332031 L 437.117188 185.699219 L 434.5 183.253906 L 432.535156 181.40625 L 432.535156 176.941406 C 434.117188 175.976562 435.703125 174.203125 437.113281 172.332031 Z M 558.699219 172.332031 C 560.113281 174.203125 561.699219 175.976562 563.277344 176.941406 L 563.277344 181.40625 L 561.316406 183.253906 L 558.699219 185.699219 Z M 569.480469 172.332031 L 569.480469 185.671875 L 566.890625 183.253906 L 564.902344 181.378906 L 564.902344 176.628906 Z M 571.128906 172.332031 L 573.742188 174.777344 L 575.707031 176.628906 L 575.707031 181.378906 L 573.742188 183.226562 L 571.128906 185.671875 Z M 581.90625 172.332031 L 581.90625 185.671875 L 579.289062 183.226562 L 577.328125 181.40625 L 577.328125 176.601562 L 579.289062 174.78125 Z M 420.679688 187.09375 L 425.511719 191.617188 L 430.347656 187.121094 L 430.347656 297.472656 C 430.347656 297.472656 430.6875 302.945312 430.917969 306.515625 C 428.769531 308.6875 420.679688 316.867188 420.679688 316.867188 L 420.679688 187.089844 Z M 575.140625 187.09375 L 575.140625 316.867188 C 575.140625 316.867188 567.050781 308.6875 564.902344 306.511719 C 565.132812 302.945312 565.46875 297.46875 565.46875 297.46875 L 565.46875 187.121094 L 570.304688 191.617188 L 575.140625 187.089844 Z M 417.917969 187.121094 L 417.917969 312.746094 C 417.917969 316.292969 411.441406 324.5625 408.304688 326.453125 L 408.304688 187.152344 L 413.082031 191.617188 Z M 577.898438 187.121094 L 582.730469 191.617188 L 587.507812 187.148438 L 587.507812 326.453125 C 584.375 324.558594 577.898438 316.289062 577.898438 312.742188 Z M 457.765625 285.808594 C 457.765625 285.808594 453.117188 295.242188 451.308594 296.929688 C 451.308594 296.929688 452.519531 297.085938 453.894531 297.074219 C 453.050781 298.289062 446.59375 307.585938 444.566406 311.09375 C 442.671875 314.375 441.335938 312.914062 438.425781 312.914062 C 436.007812 312.914062 430.535156 316.761719 429.636719 318.320312 C 428.691406 319.953125 427.988281 321.941406 427.988281 323.582031 C 427.988281 325.378906 429.894531 327.847656 429.894531 327.847656 C 430.097656 326.984375 430.460938 326.679688 430.460938 326.679688 C 430.460938 326.679688 435.46875 332.917969 436.207031 333.730469 C 436.78125 334.367188 439.339844 334.78125 440.246094 333.960938 C 442.503906 331.90625 444.691406 330.472656 446.703125 327.503906 C 447.734375 325.976562 447.816406 324.222656 449.003906 322.582031 C 452.984375 317.09375 460.902344 306.582031 462.710938 304.183594 C 462.832031 304.851562 462.9375 305.410156 463.054688 306.089844 C 465.105469 301.945312 474.96875 294.027344 474.96875 294.027344 L 472.238281 292.238281 C 472.238281 292.238281 466.292969 299.171875 464.359375 300.457031 C 464.359375 300.457031 463.535156 297.011719 463.054688 295.792969 C 463.054688 295.792969 460.773438 297.519531 459.527344 297.558594 C 459.527344 297.558594 459.15625 295.21875 458.871094 293.6875 C 457.304688 294.734375 454.691406 294.515625 454.691406 294.515625 C 456.984375 293.425781 459.699219 286.777344 459.699219 286.777344 L 457.765625 285.808594 L 457.765625 285.8125 Z M 538.050781 285.808594 L 536.117188 286.777344 C 536.117188 286.777344 538.832031 293.425781 541.125 294.515625 C 541.125 294.515625 538.511719 294.734375 536.945312 293.691406 C 536.660156 295.21875 536.289062 297.558594 536.289062 297.558594 C 535.042969 297.519531 532.761719 295.792969 532.761719 295.792969 C 532.277344 297.011719 531.453125 300.457031 531.453125 300.457031 C 529.523438 299.171875 523.574219 292.238281 523.574219 292.238281 L 520.847656 294.027344 C 520.847656 294.027344 530.710938 301.945312 532.761719 306.089844 C 532.878906 305.410156 532.980469 304.851562 533.101562 304.183594 C 534.910156 306.582031 542.832031 317.09375 546.808594 322.585938 C 548 324.226562 548.078125 325.976562 549.117188 327.503906 C 551.125 330.472656 553.3125 331.90625 555.570312 333.960938 C 556.472656 334.78125 559.035156 334.371094 559.609375 333.730469 C 560.347656 332.917969 565.351562 326.683594 565.351562 326.683594 C 565.351562 326.683594 565.71875 326.984375 565.921875 327.847656 C 565.921875 327.847656 567.828125 325.378906 567.828125 323.582031 C 567.828125 321.941406 567.121094 319.953125 566.179688 318.320312 C 565.28125 316.761719 559.804688 312.914062 557.390625 312.914062 C 554.476562 312.914062 553.144531 314.375 551.246094 311.09375 C 549.222656 307.585938 542.765625 298.289062 541.917969 297.074219 C 543.292969 297.085938 544.507812 296.933594 544.507812 296.933594 C 542.695312 295.242188 538.050781 285.808594 538.050781 285.808594 L 538.054688 285.808594 Z M 457.105469 296.449219 C 457.105469 296.449219 457.070312 299.644531 458.074219 300.769531 L 461.601562 298.351562 C 461.601562 298.351562 461.835938 299.519531 462.140625 301.113281 C 460.632812 303.175781 451.957031 315.015625 447.664062 320.792969 C 446.597656 322.226562 445.703125 325.882812 445.703125 325.882812 C 445.703125 325.882812 444.136719 325.144531 444.136719 323.808594 C 444.136719 322.496094 444.308594 320.9375 444.308594 320.9375 C 444.308594 320.9375 443.140625 322.269531 441.125 322.269531 C 441.125 320.660156 444.242188 318.910156 444.367188 316.613281 C 441.988281 318.375 439.921875 317.472656 437.171875 318.320312 C 434.175781 319.242188 433.339844 320.503906 432.421875 320.453125 C 431.878906 320.421875 431.390625 319.492188 431.597656 318.917969 C 431.957031 317.925781 435.660156 315.175781 438.25 314.679688 C 438.871094 314.5625 443.753906 315.742188 444.738281 314.226562 C 448.789062 307.972656 455.363281 297.828125 455.996094 296.847656 C 456.414062 296.746094 456.800781 296.640625 457.105469 296.449219 Z M 538.703125 296.449219 C 539.007812 296.640625 539.394531 296.746094 539.8125 296.84375 C 540.445312 297.824219 547.023438 307.972656 551.074219 314.222656 C 552.054688 315.742188 556.9375 314.558594 557.558594 314.679688 C 560.148438 315.175781 563.851562 317.921875 564.210938 318.914062 C 564.421875 319.488281 563.929688 320.421875 563.386719 320.449219 C 562.46875 320.5 561.632812 319.242188 558.636719 318.320312 C 555.886719 317.46875 553.820312 318.375 551.441406 316.613281 C 551.566406 318.90625 554.683594 320.65625 554.683594 322.269531 C 552.667969 322.269531 551.5 320.933594 551.5 320.933594 C 551.5 320.933594 551.671875 322.492188 551.671875 323.804688 C 551.671875 325.140625 550.105469 325.882812 550.105469 325.882812 C 550.105469 325.882812 549.210938 322.226562 548.144531 320.789062 C 543.851562 315.015625 535.179688 303.171875 533.667969 301.109375 C 533.972656 299.515625 534.210938 298.351562 534.210938 298.351562 L 537.734375 300.765625 C 538.738281 299.640625 538.703125 296.445312 538.703125 296.445312 Z M 485.292969 298.777344 C 485.292969 298.777344 466.019531 343.078125 448.914062 349.890625 C 448.914062 349.890625 456.359375 353.050781 465.496094 357.796875 C 466.828125 358.488281 468.203125 359.230469 469.589844 359.984375 C 470.742188 358.597656 471.953125 357.0625 473.148438 355.464844 C 478.609375 348.152344 483.953125 339.679688 483.953125 339.679688 C 484.328125 341.878906 481.441406 348.675781 476.558594 357.054688 C 475.597656 358.703125 474.597656 360.425781 473.488281 362.175781 C 474.726562 362.882812 475.953125 363.597656 477.1875 364.335938 C 486.238281 369.785156 494.742188 376.046875 497.890625 381.800781 C 501.042969 376.046875 509.542969 369.785156 518.59375 364.335938 C 519.824219 363.597656 521.054688 362.882812 522.292969 362.175781 C 521.179688 360.425781 520.179688 358.703125 519.222656 357.054688 C 514.339844 348.675781 511.457031 341.878906 511.828125 339.679688 C 511.828125 339.679688 517.171875 348.152344 522.632812 355.464844 C 523.828125 357.0625 525.039062 358.597656 526.1875 359.984375 C 527.578125 359.230469 528.953125 358.488281 530.285156 357.796875 C 539.421875 353.050781 546.863281 349.890625 546.863281 349.890625 C 529.761719 343.078125 510.488281 298.777344 510.488281 298.777344 L 507.644531 299.605469 C 507.644531 299.605469 523.015625 337.882812 538.046875 349.460938 C 534.628906 350.492188 530.628906 351.964844 526.5 353.726562 C 521.484375 347.851562 516.296875 339.929688 512.082031 332.878906 C 507.53125 325.273438 503.804688 311.917969 503.804688 311.917969 C 501.695312 317.042969 506.191406 342.785156 515.265625 359.074219 C 507.765625 362.980469 501.085938 367.214844 497.890625 370.679688 C 494.695312 367.214844 488.019531 362.980469 480.511719 359.074219 C 489.589844 342.785156 494.082031 317.042969 491.972656 311.917969 C 491.972656 311.917969 488.25 325.273438 483.695312 332.878906 C 479.484375 339.929688 474.292969 347.851562 469.277344 353.726562 C 465.152344 351.964844 461.152344 350.492188 457.730469 349.460938 C 472.765625 337.882812 488.132812 299.605469 488.132812 299.605469 Z M 435.027344 320.050781 C 435.160156 320.066406 435.300781 320.136719 435.402344 320.25 C 435.597656 320.476562 435.578125 320.808594 435.371094 320.992188 L 433.777344 322.382812 C 433.570312 322.5625 433.234375 322.527344 433.039062 322.296875 C 432.84375 322.070312 432.859375 321.738281 433.066406 321.558594 L 434.660156 320.164062 C 434.765625 320.074219 434.898438 320.035156 435.03125 320.050781 Z M 560.933594 320.050781 C 561.066406 320.035156 561.199219 320.074219 561.304688 320.164062 L 562.898438 321.558594 C 563.105469 321.738281 563.125 322.074219 562.925781 322.296875 C 562.730469 322.527344 562.394531 322.5625 562.1875 322.382812 L 560.597656 320.992188 C 560.386719 320.808594 560.367188 320.476562 560.566406 320.25 C 560.664062 320.140625 560.804688 320.066406 560.933594 320.050781 Z M 436.707031 321.445312 C 437.105469 321.414062 437.519531 321.585938 437.816406 321.929688 C 438.292969 322.476562 438.261719 323.253906 437.761719 323.691406 L 433.890625 327.078125 C 433.386719 327.515625 432.578125 327.429688 432.097656 326.878906 C 431.625 326.328125 431.652344 325.523438 432.15625 325.085938 L 436.023438 321.730469 C 436.214844 321.566406 436.472656 321.464844 436.707031 321.445312 Z M 558.945312 321.445312 C 559.046875 321.429688 559.160156 321.4375 559.257812 321.445312 C 559.496094 321.464844 559.753906 321.566406 559.941406 321.726562 L 563.808594 325.085938 C 564.3125 325.523438 564.34375 326.328125 563.867188 326.878906 C 563.390625 327.425781 562.578125 327.515625 562.078125 327.074219 L 558.207031 323.691406 C 557.703125 323.253906 557.675781 322.476562 558.152344 321.925781 C 558.375 321.671875 558.648438 321.496094 558.945312 321.445312 Z M 438.898438 324.0625 C 439.289062 324.027344 439.734375 324.203125 440.035156 324.542969 C 440.511719 325.09375 440.480469 325.871094 439.976562 326.308594 L 436.082031 329.691406 C 435.578125 330.128906 434.796875 330.042969 434.316406 329.496094 C 433.839844 328.945312 433.871094 328.140625 434.375 327.703125 L 438.242188 324.347656 C 438.429688 324.183594 438.660156 324.082031 438.898438 324.0625 Z M 556.753906 324.0625 C 556.855469 324.046875 556.964844 324.054688 557.0625 324.0625 C 557.304688 324.082031 557.53125 324.183594 557.71875 324.347656 L 561.589844 327.703125 C 562.089844 328.140625 562.121094 328.945312 561.644531 329.496094 C 561.167969 330.042969 560.382812 330.128906 559.878906 329.691406 L 555.984375 326.308594 C 555.484375 325.871094 555.449219 325.09375 555.925781 324.542969 C 556.152344 324.289062 556.449219 324.113281 556.753906 324.0625 Z M 441.367188 326.621094 C 441.765625 326.589844 442.179688 326.734375 442.476562 327.078125 C 442.953125 327.625 442.925781 328.429688 442.421875 328.867188 L 438.554688 332.222656 C 438.050781 332.664062 437.265625 332.574219 436.789062 332.027344 C 436.316406 331.476562 436.316406 330.699219 436.820312 330.261719 L 440.714844 326.878906 C 440.902344 326.714844 441.132812 326.640625 441.367188 326.621094 Z M 554.28125 326.621094 C 554.378906 326.605469 554.496094 326.613281 554.59375 326.621094 C 554.832031 326.640625 555.058594 326.714844 555.246094 326.878906 L 559.144531 330.261719 C 559.648438 330.699219 559.648438 331.476562 559.171875 332.027344 C 558.695312 332.574219 557.910156 332.664062 557.410156 332.222656 L 553.539062 328.867188 C 553.035156 328.429688 553.003906 327.625 553.484375 327.078125 C 553.707031 326.820312 553.980469 326.664062 554.28125 326.621094 Z M 554.28125 326.621094 "/>
<path style=" stroke:none;fill-rule:evenodd;fill:rgb(96.076965%,83.135986%,0.784302%);fill-opacity:1;" d="M 610 221 L 606.300781 223.617188 L 608.179688 224.585938 L 610.054688 225.523438 Z M 606.414062 225.351562 C 605.746094 225.398438 605.152344 225.757812 604.851562 226.347656 C 604.371094 227.296875 604.835938 228.503906 605.902344 229.050781 C 606.972656 229.59375 608.207031 229.257812 608.691406 228.308594 C 609.175781 227.363281 608.703125 226.152344 607.640625 225.609375 C 607.242188 225.402344 606.820312 225.324219 606.414062 225.351562 Z M 599.445312 229.703125 C 598.890625 229.710938 598.484375 229.726562 598.398438 229.789062 C 598 230.046875 598.539062 233.425781 598.421875 236.300781 C 598.316406 239.015625 597.445312 239.777344 596.972656 240.710938 C 596.535156 241.570312 594.953125 242.585938 594.953125 242.585938 L 596.261719 243.894531 C 596.261719 243.894531 597.113281 242.570312 598.453125 239.941406 C 600.03125 236.839844 599.980469 231.226562 600.445312 230.925781 C 600.847656 230.664062 604.140625 229.84375 604.140625 229.84375 C 604.140625 229.84375 601.117188 229.683594 599.449219 229.703125 Z M 605.191406 230.472656 C 605.191406 230.472656 601.726562 231.136719 601.238281 231.609375 C 600.765625 232.066406 600.972656 236.757812 599.132812 240.371094 C 597.609375 243.363281 596.859375 244.464844 596.859375 244.464844 L 597.796875 244.949219 L 598.734375 245.402344 C 598.734375 245.402344 599.171875 244.1875 600.699219 241.195312 C 602.539062 237.585938 606.464844 234.964844 606.554688 234.308594 C 606.652344 233.636719 605.191406 230.472656 605.191406 230.472656 Z M 606.300781 230.925781 C 606.300781 230.925781 607.554688 234.085938 607.582031 234.566406 C 607.613281 235.117188 603.046875 238.378906 601.46875 241.476562 C 600.128906 244.105469 599.558594 245.574219 599.558594 245.574219 L 601.378906 245.859375 C 601.378906 245.859375 601.257812 243.984375 601.695312 243.125 C 602.171875 242.195312 602.296875 241.054688 604.425781 239.375 C 606.683594 237.589844 609.742188 236.03125 609.714844 235.558594 C 609.691406 235.125 606.300781 230.925781 606.300781 230.925781 Z M 596.007812 245.832031 C 595.433594 245.890625 595.015625 246.257812 594.785156 246.710938 C 594.4375 247.390625 594.625 248.296875 591.882812 253.679688 C 590.679688 256.039062 590.195312 256.988281 588.894531 259.539062 C 587.574219 262.132812 585.652344 265.878906 585.652344 265.878906 C 585.652344 265.878906 585 267.078125 586.222656 267.699219 C 587.441406 268.320312 587.984375 267.074219 587.984375 267.074219 C 587.984375 267.074219 589.90625 263.324219 591.226562 260.730469 C 592.527344 258.179688 593.011719 257.203125 594.214844 254.84375 C 596.957031 249.464844 597.792969 249.097656 598.140625 248.417969 C 598.511719 247.6875 598.421875 246.707031 597.199219 246.085938 C 596.742188 245.851562 596.351562 245.792969 596.007812 245.832031 L 596.007812 245.828125 Z M 584.203125 268.269531 C 583.742188 268.308594 583.378906 268.503906 583.207031 268.835938 C 582.871094 269.503906 583.449219 270.484375 584.515625 271.027344 C 585.582031 271.570312 586.738281 271.46875 587.078125 270.800781 C 587.414062 270.132812 586.804688 269.152344 585.738281 268.609375 C 585.207031 268.335938 584.664062 268.230469 584.203125 268.269531 Z M 582.613281 271.539062 C 581.847656 271.503906 581.179688 271.765625 580.90625 272.304688 C 580.464844 273.167969 581.148438 274.410156 582.441406 275.066406 C 583.730469 275.722656 585.128906 275.558594 585.570312 274.695312 C 586.007812 273.832031 585.320312 272.597656 584.035156 271.9375 C 583.546875 271.691406 583.070312 271.558594 582.613281 271.539062 Z M 580.449219 275.609375 C 579.988281 275.648438 579.625 275.839844 579.453125 276.175781 C 579.117188 276.839844 579.695312 277.820312 580.761719 278.367188 C 581.828125 278.910156 582.980469 278.804688 583.320312 278.140625 C 583.660156 277.472656 583.078125 276.492188 582.015625 275.949219 C 581.480469 275.675781 580.910156 275.566406 580.449219 275.609375 Z M 579.511719 279.105469 C 578.839844 279.191406 578.515625 279.875 578.515625 279.875 C 578.515625 279.875 571.597656 293.484375 569.160156 298.273438 C 568.378906 299.804688 565.097656 300.757812 563.8125 303.28125 C 562.519531 305.820312 563.429688 308.191406 565.121094 309.050781 C 566.808594 309.914062 569.285156 309.289062 570.582031 306.75 C 571.867188 304.230469 570.710938 301 571.488281 299.46875 C 573.929688 294.679688 580.847656 281.066406 580.847656 281.066406 C 580.847656 281.066406 581.527344 279.871094 580.304688 279.246094 C 580.003906 279.09375 579.734375 279.078125 579.511719 279.105469 Z M 562.816406 310.445312 C 562.039062 310.46875 561.347656 310.835938 561.023438 311.46875 C 560.507812 312.484375 561.097656 313.84375 562.363281 314.484375 C 563.621094 315.128906 565.085938 314.820312 565.601562 313.800781 C 566.121094 312.785156 565.5 311.429688 564.238281 310.789062 C 563.765625 310.546875 563.28125 310.433594 562.816406 310.445312 Z M 551.808594 332.261719 C 551.414062 332.273438 551.085938 332.398438 550.957031 332.65625 C 550.691406 333.179688 551.238281 334 552.179688 334.476562 C 553.121094 334.957031 554.105469 334.910156 554.371094 334.394531 C 554.632812 333.871094 554.085938 333.050781 553.148438 332.574219 C 552.675781 332.332031 552.207031 332.246094 551.808594 332.257812 Z M 548.566406 334.820312 L 548.566406 341.53125 L 554.027344 337.605469 C 554.027344 337.605469 553.289062 336.296875 551.667969 335.472656 C 550.046875 334.648438 548.566406 334.820312 548.566406 334.820312 Z M 548.566406 334.820312 "/>
<path style=" stroke:none;fill-rule:evenodd;fill:rgb(0%,0%,0%);fill-opacity:1;" d="M 414.660156 295.886719 C 414.660156 295.886719 417.746094 302.261719 420.09375 303.136719 C 418.878906 302.804688 414.941406 304.25 414.941406 304.25 C 414.941406 304.25 421.886719 310.453125 427.773438 310.863281 C 432.769531 311.203125 435.195312 308.710938 435.195312 308.710938 L 434.191406 303.421875 C 434.191406 303.421875 431.140625 299.730469 426.246094 298.027344 C 421.304688 296.304688 414.660156 295.890625 414.660156 295.890625 Z M 414.660156 295.886719 "/>
<path style=" stroke:none;fill-rule:evenodd;fill:rgb(0%,0%,0%);fill-opacity:1;" d="M 437.921875 284.472656 C 437.921875 284.472656 433.660156 288.117188 432.496094 292.34375 C 431.328125 296.570312 433.253906 301.371094 433.253906 301.371094 L 436.835938 308.046875 C 436.835938 308.046875 441.796875 305.410156 443.90625 301.460938 C 446.019531 297.507812 445.246094 292.183594 445.246094 292.183594 C 445.246094 292.183594 441.3125 293.648438 440.816406 294.292969 C 441.640625 289.914062 437.921875 284.472656 437.921875 284.472656 Z M 437.921875 284.472656 "/>
<path style=" stroke:none;fill-rule:evenodd;fill:rgb(0%,0%,0%);fill-opacity:1;" d="M 424.226562 282.765625 C 424.226562 282.765625 419.382812 284.40625 414.675781 284.121094 C 410.195312 283.851562 406.464844 280.085938 406.464844 280.085938 C 406.464844 280.085938 410.183594 277.570312 412.015625 277.910156 C 410 277.171875 407.074219 272.117188 407.074219 272.117188 C 407.074219 272.117188 411.230469 270.859375 414.917969 272.25 C 418.601562 273.640625 421.816406 277.675781 421.816406 277.675781 L 424.230469 282.765625 Z M 424.226562 282.765625 "/>
<path style=" stroke:none;fill-rule:evenodd;fill:rgb(0%,0%,0%);fill-opacity:1;" d="M 425.894531 259.101562 C 425.894531 259.101562 428.316406 264.117188 427.742188 265.859375 C 428.492188 264.699219 431.339844 262.894531 431.339844 262.894531 C 431.339844 262.894531 433.058594 271.019531 431.414062 276.035156 C 429.773438 281.050781 424.765625 282.960938 424.765625 282.960938 L 419.238281 272.21875 C 419.238281 272.21875 418.417969 268.242188 420.140625 265.089844 C 421.859375 261.9375 425.894531 259.097656 425.894531 259.097656 Z M 425.894531 259.101562 "/>
<path style=" stroke:none;fill-rule:evenodd;fill:rgb(0%,0%,0%);fill-opacity:1;" d="M 394.367188 245.816406 C 394.367188 245.816406 399.605469 245.265625 404.394531 247.253906 C 408.402344 248.914062 409.628906 251.9375 409.628906 251.9375 L 411.601562 257.226562 C 411.601562 257.226562 405.898438 259.363281 401.398438 257.726562 C 396.890625 256.09375 393.582031 250.683594 393.582031 250.683594 C 393.582031 250.683594 396.730469 249.492188 397.929688 249.9375 C 396.183594 249.167969 394.367188 245.816406 394.367188 245.816406 Z M 394.367188 245.816406 "/>
<path style=" stroke:none;fill-rule:evenodd;fill:rgb(0%,0%,0%);fill-opacity:1;" d="M 410.839844 236 C 410.839844 236 413.136719 238.953125 413.207031 242.347656 C 413.816406 240.539062 416.6875 238.546875 416.6875 238.546875 C 416.6875 238.546875 419.640625 245.691406 418.992188 250.757812 C 418.34375 255.828125 414.097656 258.828125 414.097656 258.828125 L 408.804688 248.777344 C 408.804688 248.777344 407.078125 244.660156 407.585938 241.464844 C 408.09375 238.265625 410.839844 236 410.839844 236 Z M 410.839844 236 "/>
<path style=" stroke:none;fill-rule:evenodd;fill:rgb(0%,0%,0%);fill-opacity:1;" d="M 392.699219 216.777344 C 392.699219 216.777344 391.75 222.253906 393.363281 225.40625 C 394.808594 228.21875 395.726562 228.835938 395.726562 228.835938 C 392.976562 227.019531 388.816406 226.863281 388.816406 226.863281 C 388.816406 226.863281 390.296875 232.820312 393.835938 235.535156 C 397.375 238.253906 402.832031 237.621094 402.832031 237.621094 C 402.832031 237.621094 406.421875 232.84375 406.171875 227.695312 C 405.921875 222.546875 401.835938 217.03125 401.835938 217.03125 C 401.835938 217.03125 400.222656 220.375 400.078125 222.871094 C 399.035156 220.296875 392.699219 216.777344 392.699219 216.777344 Z M 392.699219 216.777344 "/>
<path style=" stroke:none;fill-rule:evenodd;fill:rgb(3.529358%,46.665955%,32.940674%);fill-opacity:1;" d="M 394.3125 220.105469 C 394.3125 220.105469 394.171875 224.105469 395.492188 226.375 C 396.816406 228.644531 399.773438 229.550781 399.773438 229.550781 C 399.773438 229.550781 399.914062 225.550781 398.589844 223.28125 C 397.265625 221.011719 394.3125 220.105469 394.3125 220.105469 Z M 394.3125 220.105469 "/>
<path style=" stroke:none;fill-rule:evenodd;fill:rgb(3.529358%,46.665955%,32.940674%);fill-opacity:1;" d="M 391.542969 229.15625 C 391.542969 229.15625 395.019531 229.359375 397.027344 230.898438 C 399.03125 232.433594 399.808594 235.640625 399.808594 235.640625 C 399.808594 235.640625 397.507812 235.871094 395.5 234.335938 C 393.496094 232.796875 391.542969 229.15625 391.542969 229.15625 Z M 391.542969 229.15625 "/>
<path style=" stroke:none;fill-rule:evenodd;fill:rgb(3.529358%,46.665955%,32.940674%);fill-opacity:1;" d="M 402.449219 221.078125 C 402.449219 221.078125 401.292969 223.726562 401.425781 226.585938 C 401.558594 229.441406 403.226562 232.660156 403.226562 232.660156 C 403.226562 232.660156 404.734375 229.230469 404.601562 226.371094 C 404.472656 223.515625 402.851562 221.886719 402.449219 221.078125 Z M 402.449219 221.078125 "/>
<path style=" stroke:none;fill-rule:evenodd;fill:rgb(3.529358%,46.665955%,32.940674%);fill-opacity:1;" d="M 396.601562 246.835938 C 396.601562 246.835938 398.308594 249.214844 400.933594 250.515625 C 403.558594 251.8125 407.472656 251.859375 407.472656 251.859375 C 407.472656 251.859375 405.519531 249.328125 402.890625 248.027344 C 400.265625 246.726562 396.601562 246.832031 396.601562 246.832031 Z M 396.601562 246.835938 "/>
<path style=" stroke:none;fill-rule:evenodd;fill:rgb(3.529358%,46.665955%,32.940674%);fill-opacity:1;" d="M 397.445312 252.367188 C 397.445312 252.367188 398.699219 254.824219 400.992188 255.875 C 403.285156 256.929688 407.976562 256.839844 407.976562 256.839844 C 407.976562 256.839844 406.175781 254.546875 403.882812 253.492188 C 401.589844 252.4375 397.445312 252.367188 397.445312 252.367188 Z M 397.445312 252.367188 "/>
<path style=" stroke:none;fill-rule:evenodd;fill:rgb(3.529358%,46.665955%,32.940674%);fill-opacity:1;" d="M 410.648438 239.265625 C 410.648438 239.265625 409.265625 241.558594 409.398438 244.082031 C 409.535156 246.605469 411.191406 249.367188 411.191406 249.367188 C 411.191406 249.367188 412.355469 246.203125 412.222656 243.675781 C 412.085938 241.152344 410.648438 239.265625 410.648438 239.265625 Z M 410.648438 239.265625 "/>
<path style=" stroke:none;fill-rule:evenodd;fill:rgb(3.529358%,46.665955%,32.940674%);fill-opacity:1;" d="M 415.753906 242.503906 C 415.753906 242.503906 413.382812 245.691406 413.042969 248.960938 C 412.703125 252.234375 414.394531 255.597656 414.394531 255.597656 C 414.394531 255.597656 417.257812 252.71875 417.597656 249.445312 C 417.9375 246.175781 415.753906 242.507812 415.753906 242.507812 Z M 415.753906 242.503906 "/>
<path style=" stroke:none;fill-rule:evenodd;fill:rgb(3.529358%,46.665955%,32.940674%);fill-opacity:1;" d="M 409.21875 272.726562 C 409.21875 272.726562 409.503906 273.902344 410.492188 275.15625 C 411.484375 276.40625 413.179688 277.726562 413.179688 277.726562 C 413.179688 277.726562 414.816406 277.199219 416.855469 277.640625 C 418.890625 278.082031 421.597656 279.898438 421.597656 279.898438 C 421.597656 279.898438 418.683594 275.546875 415.65625 273.855469 C 412.628906 272.164062 409.21875 272.726562 409.21875 272.726562 Z M 409.21875 272.726562 "/>
<path style=" stroke:none;fill-rule:evenodd;fill:rgb(3.529358%,46.665955%,32.940674%);fill-opacity:1;" d="M 408.917969 280.207031 C 408.917969 280.207031 412.691406 278.59375 415.796875 279.007812 C 418.90625 279.425781 421.710938 281.882812 421.710938 281.882812 C 421.710938 281.882812 417.507812 283.335938 414.402344 282.921875 C 411.292969 282.503906 408.917969 280.207031 408.917969 280.207031 Z M 408.917969 280.207031 "/>
<path style=" stroke:none;fill-rule:evenodd;fill:rgb(3.529358%,46.665955%,32.940674%);fill-opacity:1;" d="M 424.867188 262.660156 C 424.867188 262.660156 421.53125 266.195312 421.25 269.265625 C 420.96875 272.332031 423.957031 275.191406 423.957031 275.191406 C 423.957031 275.191406 423.808594 273.222656 424.320312 271.929688 C 424.835938 270.632812 425.929688 269.25 425.929688 269.25 C 425.929688 269.25 426.394531 267.671875 426.214844 266.402344 C 425.964844 264.632812 424.867188 262.660156 424.867188 262.660156 Z M 424.867188 262.660156 "/>
<path style=" stroke:none;fill-rule:evenodd;fill:rgb(3.529358%,46.665955%,32.940674%);fill-opacity:1;" d="M 429.65625 266.757812 C 429.65625 266.757812 426.511719 269.9375 425.679688 273.347656 C 424.847656 276.753906 426.328125 280.390625 426.328125 280.390625 C 426.328125 280.390625 429.1875 278.132812 430.019531 274.722656 C 430.855469 271.316406 429.65625 266.757812 429.65625 266.757812 Z M 429.65625 266.757812 "/>
<path style=" stroke:none;fill-rule:evenodd;fill:rgb(3.529358%,46.665955%,32.940674%);fill-opacity:1;" d="M 437.53125 287.300781 C 437.53125 287.300781 438.960938 290.273438 439.320312 292.761719 C 439.679688 295.25 439.347656 296.109375 439.347656 296.109375 C 439.347656 296.109375 437.871094 297.558594 437.210938 298.410156 C 436.363281 299.507812 436.238281 301.507812 436.238281 301.507812 C 436.238281 301.507812 433.28125 297.109375 433.738281 293.898438 C 434.191406 290.683594 437.53125 287.300781 437.53125 287.300781 Z M 437.53125 287.300781 "/>
<path style=" stroke:none;fill-rule:evenodd;fill:rgb(3.529358%,46.665955%,32.940674%);fill-opacity:1;" d="M 443.765625 294.183594 C 443.765625 294.183594 439.980469 296.683594 438.476562 299.25 C 436.972656 301.816406 437.753906 304.445312 437.753906 304.445312 C 437.753906 304.445312 440.453125 304.207031 441.953125 301.640625 C 443.457031 299.078125 443.765625 294.183594 443.765625 294.183594 Z M 443.765625 294.183594 "/>
<path style=" stroke:none;fill-rule:evenodd;fill:rgb(3.529358%,46.665955%,32.940674%);fill-opacity:1;" d="M 418.878906 304.75 C 418.878906 304.75 424.335938 304.601562 427.671875 305.421875 C 431.011719 306.242188 432.222656 308.027344 432.222656 308.027344 C 432.222656 308.027344 428.472656 309.789062 425.136719 308.964844 C 421.800781 308.144531 418.878906 304.75 418.878906 304.75 Z M 418.878906 304.75 "/>
<path style=" stroke:none;fill-rule:evenodd;fill:rgb(3.529358%,46.665955%,32.940674%);fill-opacity:1;" d="M 417.953125 298.273438 C 417.953125 298.273438 420.417969 302.089844 423.601562 303.476562 C 427.988281 305.382812 433.070312 304.460938 433.070312 304.460938 C 433.070312 304.460938 430.3125 301.078125 426.515625 299.582031 C 422.714844 298.089844 417.953125 298.273438 417.953125 298.273438 Z M 417.953125 298.273438 "/>
<path style=" stroke:none;fill-rule:evenodd;fill:rgb(0%,0%,0%);fill-opacity:1;" d="M 435.480469 308.484375 L 435.625 310.449219 C 438.890625 310.480469 439.375 310.152344 440.210938 311.183594 C 440.769531 311.867188 442.09375 312.46875 443.425781 311.855469 C 444.757812 311.25 445.355469 309.648438 444.75 308.316406 C 444.140625 306.984375 442.902344 306.691406 441.707031 306.929688 C 440.976562 307.074219 440.492188 307.65625 439.871094 307.980469 C 438.6875 308.589844 435.476562 308.484375 435.476562 308.484375 Z M 435.480469 308.484375 "/>
<path style=" stroke:none;fill-rule:evenodd;fill:rgb(0%,0%,0%);fill-opacity:1;" d="M 435.195312 306.984375 L 436.785156 308.144531 C 435.078125 310.933594 434.546875 311.171875 434.976562 312.425781 C 435.261719 313.261719 435.070312 314.703125 433.847656 315.515625 C 432.621094 316.320312 430.949219 315.980469 430.140625 314.757812 C 429.332031 313.535156 429.746094 312.332031 430.578125 311.445312 C 431.085938 310.898438 431.835938 310.800781 432.4375 310.445312 C 433.585938 309.761719 435.195312 306.984375 435.195312 306.984375 Z M 435.195312 306.984375 "/>
<path style=" stroke:none;fill-rule:evenodd;fill:rgb(0%,0%,0%);fill-opacity:1;" d="M 424.140625 283.652344 L 424.285156 285.613281 C 427.550781 285.644531 428.035156 285.320312 428.871094 286.351562 C 429.429688 287.035156 430.757812 287.632812 432.089844 287.023438 C 433.421875 286.414062 434.019531 284.816406 433.410156 283.484375 C 432.800781 282.148438 431.5625 281.859375 430.367188 282.097656 C 429.632812 282.242188 429.152344 282.828125 428.53125 283.144531 C 427.347656 283.757812 424.136719 283.652344 424.136719 283.652344 Z M 424.140625 283.652344 "/>
<path style=" stroke:none;fill-rule:evenodd;fill:rgb(0%,0%,0%);fill-opacity:1;" d="M 424.800781 284.34375 L 426.1875 285.742188 C 424.070312 288.226562 423.507812 288.382812 423.738281 289.6875 C 423.890625 290.558594 423.476562 291.953125 422.140625 292.5625 C 420.808594 293.167969 419.207031 292.574219 418.597656 291.242188 C 417.992188 289.90625 418.585938 288.78125 419.546875 288.035156 C 420.132812 287.574219 420.894531 287.59375 421.542969 287.335938 C 422.777344 286.84375 424.800781 284.34375 424.800781 284.34375 Z M 424.800781 284.34375 "/>
<path style=" stroke:none;fill-rule:evenodd;fill:rgb(0%,0%,0%);fill-opacity:1;" d="M 413.152344 260.402344 L 413.296875 262.363281 C 416.5625 262.394531 417.046875 262.070312 417.882812 263.097656 C 418.441406 263.785156 419.765625 264.382812 421.097656 263.773438 C 422.429688 263.164062 423.03125 261.566406 422.421875 260.230469 C 421.8125 258.898438 420.574219 258.609375 419.378906 258.847656 C 418.648438 258.988281 418.164062 259.574219 417.542969 259.894531 C 416.359375 260.507812 413.148438 260.402344 413.148438 260.402344 Z M 413.152344 260.402344 "/>
<path style=" stroke:none;fill-rule:evenodd;fill:rgb(0%,0%,0%);fill-opacity:1;" d="M 414.054688 259.988281 L 415.441406 261.386719 C 413.328125 263.871094 412.765625 264.027344 412.992188 265.335938 C 413.144531 266.203125 412.730469 267.597656 411.394531 268.203125 C 410.0625 268.8125 408.464844 268.214844 407.855469 266.882812 C 407.25 265.550781 407.839844 264.425781 408.800781 263.675781 C 409.390625 263.21875 410.144531 263.238281 410.796875 262.976562 C 412.035156 262.484375 414.054688 259.988281 414.054688 259.988281 L 414.054688 259.992188 Z M 414.054688 259.988281 "/>
<path style=" stroke:none;fill-rule:evenodd;fill:rgb(0%,0%,0%);fill-opacity:1;" d="M 401.441406 235.855469 L 401.59375 237.820312 C 404.855469 237.851562 405.339844 237.523438 406.175781 238.554688 C 406.734375 239.238281 408.0625 239.839844 409.394531 239.230469 C 410.726562 238.621094 411.324219 237.019531 410.714844 235.6875 C 410.109375 234.351562 408.867188 234.066406 407.675781 234.300781 C 406.941406 234.445312 406.460938 235.03125 405.835938 235.351562 C 404.65625 235.960938 401.441406 235.855469 401.441406 235.855469 Z M 401.441406 235.855469 "/>
<path style=" stroke:none;fill-rule:evenodd;fill:rgb(0%,0%,0%);fill-opacity:1;" d="M 402.347656 235.445312 L 403.738281 236.84375 C 401.621094 239.328125 401.058594 239.484375 401.289062 240.789062 C 401.441406 241.660156 401.027344 243.054688 399.691406 243.660156 C 398.359375 244.269531 396.757812 243.675781 396.152344 242.339844 C 395.539062 241.007812 396.132812 239.882812 397.09375 239.132812 C 397.683594 238.675781 398.441406 238.695312 399.089844 238.433594 C 400.328125 237.941406 402.347656 235.445312 402.347656 235.445312 Z M 402.347656 235.445312 "/>
<path style=" stroke:none;fill-rule:evenodd;fill:rgb(96.076965%,83.135986%,0.784302%);fill-opacity:1;" d="M 422.066406 277.828125 C 420.894531 278.3125 419.164062 273.222656 417.886719 270.429688 C 416.578125 267.566406 413.925781 263.152344 414.679688 262.804688 C 415.503906 262.429688 416.597656 264.746094 417.933594 267.679688 C 419.269531 270.605469 423.164062 277.371094 422.066406 277.828125 Z M 422.066406 277.828125 "/>
<path style=" stroke:none;fill-rule:evenodd;fill:rgb(96.076965%,83.135986%,0.784302%);fill-opacity:1;" d="M 410.050781 251 C 408.882812 251.488281 407.601562 248.152344 406.324219 245.359375 C 405.019531 242.496094 403.746094 240.472656 404.5 240.132812 C 405.328125 239.75 406.546875 242.261719 407.621094 244.605469 C 408.65625 246.875 411.148438 250.542969 410.050781 251 Z M 410.050781 251 "/>
<path style=" stroke:none;fill-rule:evenodd;fill:rgb(96.076965%,83.135986%,0.784302%);fill-opacity:1;" d="M 437.851562 311.828125 C 436.929688 312.074219 432.921875 303.679688 429.683594 296.582031 C 426.441406 289.484375 424.027344 283.738281 424.785156 283.394531 C 425.609375 283.015625 428.234375 289.722656 431.476562 296.824219 C 434.714844 303.925781 438.539062 311.644531 437.851562 311.828125 Z M 437.851562 311.828125 "/>
<path style=" stroke:none;fill-rule:evenodd;fill:rgb(79.998779%,3.529358%,18.431091%);fill-opacity:1;" d="M 471.515625 122.605469 C 471.515625 122.605469 472.859375 120.058594 476.257812 120.058594 C 477.675781 120.058594 482.363281 119.960938 482.363281 119.960938 C 482.988281 121.585938 485.835938 124.296875 485.835938 127.117188 C 485.835938 127.117188 482.945312 121.90625 474.878906 121.90625 C 472.851562 121.90625 471.515625 122.605469 471.515625 122.605469 Z M 471.515625 122.605469 "/>
<path style=" stroke:none;fill-rule:evenodd;fill:rgb(0%,0%,0%);fill-opacity:1;" d="M 481.910156 123.316406 C 481.910156 123.316406 479.929688 122.679688 479.929688 122.015625 C 479.929688 121.167969 480.890625 121.167969 481.464844 121.828125 C 481.863281 122.285156 481.910156 123.316406 481.910156 123.316406 Z M 481.910156 123.316406 "/>
<path style=" stroke:none;fill-rule:evenodd;fill:rgb(81.959534%,1.568604%,16.078186%);fill-opacity:1;" d="M 484.632812 128.109375 C 484.632812 128.109375 482.914062 129.921875 482.539062 130.886719 C 480.839844 130.242188 477.875 127.1875 477.875 127.1875 C 477.875 127.1875 480.390625 128.652344 484.632812 128.109375 Z M 484.632812 128.109375 "/>
<path style=" stroke:none;fill-rule:evenodd;fill:rgb(0%,0%,0%);fill-opacity:1;" d="M 493.285156 123.367188 C 493.285156 124.542969 491.929688 125.613281 490.441406 125.613281 C 488.957031 125.613281 487.601562 124.542969 487.601562 123.367188 C 487.601562 122.191406 488.957031 121.121094 490.441406 121.121094 C 491.929688 121.121094 493.285156 122.191406 493.285156 123.367188 Z M 493.285156 123.367188 "/>
<path style=" stroke:none;fill-rule:evenodd;fill:rgb(96.076965%,83.135986%,0.784302%);fill-opacity:1;" d="M 492.421875 123.367188 C 492.421875 124.402344 491.480469 125.34375 490.441406 125.34375 C 489.410156 125.34375 488.464844 124.402344 488.464844 123.367188 C 488.464844 122.332031 489.410156 121.390625 490.441406 121.390625 C 491.480469 121.390625 492.421875 122.332031 492.421875 123.367188 Z M 492.421875 123.367188 "/>
<path style=" stroke:none;fill-rule:evenodd;fill:rgb(0%,0%,0%);fill-opacity:1;" d="M 491.285156 123.367188 C 491.296875 123.816406 490.890625 124.226562 490.441406 124.226562 C 490 124.226562 489.59375 123.816406 489.605469 123.367188 C 489.59375 122.917969 490 122.503906 490.441406 122.503906 C 490.890625 122.503906 491.296875 122.917969 491.285156 123.367188 Z M 491.285156 123.367188 "/>
<path style=" stroke:none;fill-rule:evenodd;fill:rgb(96.076965%,83.135986%,0.784302%);fill-opacity:1;" d="M 438.941406 178.023438 C 438.941406 178.023438 443.78125 181.648438 443.78125 185.332031 L 443.78125 273.101562 C 443.78125 275.414062 444.492188 276.921875 445.628906 278.390625 C 446.761719 279.976562 449.179688 282.167969 451.683594 283.792969 C 459.429688 288.824219 472.378906 294.128906 482.175781 298.585938 C 490.335938 302.296875 493.65625 303.796875 497.902344 309.050781 C 502.144531 303.796875 505.492188 302.296875 513.660156 298.585938 C 523.453125 294.128906 536.402344 288.824219 544.144531 283.792969 C 546.65625 282.167969 549.070312 279.976562 550.203125 278.390625 C 551.335938 276.921875 552.023438 275.414062 552.023438 273.101562 L 552.023438 185.332031 C 552.023438 181.652344 556.859375 178.023438 556.859375 178.023438 L 438.941406 178.023438 L 438.945312 178.023438 Z M 445.144531 180.808594 L 550.660156 180.808594 C 550.660156 180.808594 549.238281 182.523438 549.238281 185.328125 L 549.238281 273.101562 C 549.238281 275.015625 547.25 279.503906 535.785156 285.214844 C 516.835938 294.660156 502.269531 299.070312 497.902344 304.441406 C 493.535156 299.070312 478.972656 294.660156 460.019531 285.214844 C 448.554688 279.503906 446.566406 275.015625 446.566406 273.101562 L 446.566406 185.328125 C 446.566406 182.519531 445.144531 180.808594 445.144531 180.808594 Z M 445.144531 180.808594 "/>
</g>
</svg>
