<?xml version="1.0" encoding="UTF-8"?>
<svg xmlns="http://www.w3.org/2000/svg" xmlns:xlink="http://www.w3.org/1999/xlink" viewBox="0 0 1000 501" version="1.1">
<g id="surface810">
<path style=" stroke:none;fill-rule:evenodd;fill:rgb(0%,14.117432%,49.01886%);fill-opacity:1;" d="M 0 1.25 L 1000 1.25 L 1000 501.25 L 0 501.25 Z M 0 1.25 "/>
<path style=" stroke:none;fill-rule:evenodd;fill:rgb(99.998474%,99.998474%,99.998474%);fill-opacity:1;" d="M 641.222656 124.1875 L 855.289062 124.1875 L 855.035156 276.507812 C 856.8125 337.742188 818.648438 375.742188 748.421875 392.871094 C 698.554688 380.488281 641.050781 354.878906 640.964844 278.246094 Z M 641.222656 124.1875 "/>
<path style="fill-rule:evenodd;fill:rgb(0%,63.528442%,74.116516%);fill-opacity:1;stroke-width:1.510439;stroke-linecap:butt;stroke-linejoin:miter;stroke:rgb(0%,0%,0%);stroke-opacity:1;stroke-miterlimit:4;" d="M 645.960938 128.777344 L 850.539062 128.777344 L 850.292969 274.742188 C 851.996094 333.417969 815.523438 369.828125 748.410156 386.246094 C 700.753906 374.378906 645.796875 349.832031 645.71875 276.40625 Z M 645.960938 128.777344 "/>
<path style=" stroke:none;fill-rule:evenodd;fill:rgb(64.704895%,23.921204%,3.137207%);fill-opacity:1;" d="M 848.953125 292.03125 C 841.515625 348.042969 798.378906 372.511719 748.410156 385.496094 C 704.175781 373.636719 656.589844 354.691406 647.367188 292.3125 Z M 848.953125 292.03125 "/>
<path style=" stroke:none;fill-rule:evenodd;fill:rgb(0%,0%,0%);fill-opacity:1;" d="M 700.375 155.824219 L 740.300781 155.972656 L 740.019531 137.574219 L 754.566406 137.714844 L 754.707031 155.972656 L 794.492188 155.972656 L 794.640625 170.230469 L 754.707031 170.371094 L 754.390625 338.550781 L 740.199219 338.640625 L 740.019531 170.230469 L 700.367188 170.371094 Z M 700.375 155.824219 "/>
<path style=" stroke:none;fill-rule:evenodd;fill:rgb(99.998474%,60.391235%,3.137207%);fill-opacity:1;" d="M 708.097656 298.976562 L 744.515625 336.753906 C 757.109375 322.910156 748.375 271.175781 731.804688 261.644531 C 729.824219 267.773438 726.445312 275.117188 722.855469 277.484375 C 714.960938 282.867188 695.613281 289.15625 702.078125 293.183594 C 703.554688 291.140625 707.414062 289.214844 709.230469 293.753906 C 711.386719 300.902344 701.175781 301.359375 701.175781 301.359375 C 701.175781 301.359375 694.707031 300.5625 693.574219 293.980469 C 692.4375 287.402344 703.203125 281.390625 704.125 280.933594 C 705.035156 280.589844 719.101562 276.851562 721.484375 264.371094 C 724.433594 252.113281 727.496094 253.929688 728.066406 253.703125 C 746.445312 255.515625 758.472656 288.421875 759.148438 311.566406 C 759.832031 334.710938 749.734375 350.027344 747.921875 351.050781 C 746.105469 352.070312 704.125 301.238281 704.125 301.238281 Z M 708.097656 298.976562 "/>
<path style="fill:none;stroke-width:0.80635;stroke-linecap:butt;stroke-linejoin:miter;stroke:rgb(0%,0%,0%);stroke-opacity:1;stroke-miterlimit:4;" d="M 708.097656 298.976562 L 744.515625 336.753906 C 757.109375 322.910156 748.375 271.175781 731.804688 261.644531 C 729.824219 267.773438 726.445312 275.117188 722.855469 277.484375 C 714.960938 282.867188 695.613281 289.15625 702.078125 293.183594 C 703.554688 291.140625 707.414062 289.214844 709.230469 293.753906 C 711.386719 300.902344 701.175781 301.355469 701.175781 301.355469 C 701.175781 301.355469 694.707031 300.5625 693.574219 293.980469 C 692.4375 287.402344 703.203125 281.390625 704.125 280.933594 C 705.035156 280.589844 719.101562 276.851562 721.484375 264.371094 C 724.433594 252.113281 727.496094 253.929688 728.066406 253.699219 C 746.445312 255.515625 758.472656 288.421875 759.148438 311.566406 C 759.832031 334.710938 749.734375 350.027344 747.921875 351.050781 C 746.105469 352.070312 704.125 301.238281 704.125 301.238281 Z M 708.097656 298.976562 "/>
<path style="fill:none;stroke-width:0.80635;stroke-linecap:butt;stroke-linejoin:miter;stroke:rgb(0%,0%,0%);stroke-opacity:1;stroke-miterlimit:4;" d="M 734.644531 263.796875 L 734.871094 331.988281 "/>
<path style="fill:none;stroke-width:0.80635;stroke-linecap:butt;stroke-linejoin:miter;stroke:rgb(0%,0%,0%);stroke-opacity:1;stroke-miterlimit:4;" d="M 730.5625 265.046875 C 730.5625 265.160156 730.785156 326.996094 730.785156 326.996094 "/>
<path style="fill:none;stroke-width:0.80635;stroke-linecap:butt;stroke-linejoin:miter;stroke:rgb(0%,0%,0%);stroke-opacity:1;stroke-miterlimit:4;" d="M 726.136719 274.011719 L 726.363281 323.253906 "/>
<path style="fill:none;stroke-width:0.80635;stroke-linecap:butt;stroke-linejoin:miter;stroke:rgb(0%,0%,0%);stroke-opacity:1;stroke-miterlimit:4;" d="M 722.503906 277.527344 L 722.730469 318.261719 "/>
<path style="fill:none;stroke-width:0.80635;stroke-linecap:butt;stroke-linejoin:miter;stroke:rgb(0%,0%,0%);stroke-opacity:1;stroke-miterlimit:4;" d="M 718.648438 279.347656 L 718.648438 313.722656 "/>
<path style="fill:none;stroke-width:0.80635;stroke-linecap:butt;stroke-linejoin:miter;stroke:rgb(0%,0%,0%);stroke-opacity:1;stroke-miterlimit:4;" d="M 714.449219 282.066406 L 714.449219 309.296875 "/>
<path style="fill:none;stroke-width:0.80635;stroke-linecap:butt;stroke-linejoin:miter;stroke:rgb(0%,0%,0%);stroke-opacity:1;stroke-miterlimit:4;" d="M 710.820312 284.222656 L 710.820312 305.097656 "/>
<path style="fill:none;stroke-width:0.80635;stroke-linecap:butt;stroke-linejoin:miter;stroke:rgb(99.998474%,87.449646%,0%);stroke-opacity:1;stroke-miterlimit:4;" d="M 707.527344 303.285156 L 745.082031 346.285156 "/>
<path style="fill:none;stroke-width:1.510439;stroke-linecap:butt;stroke-linejoin:miter;stroke:rgb(99.998474%,87.449646%,0%);stroke-opacity:1;stroke-miterlimit:4;" d="M 746.898438 276.167969 C 746.898438 276.167969 763.917969 313.382812 748.144531 344.011719 "/>
<path style="fill:none;stroke-width:1.510439;stroke-linecap:butt;stroke-linejoin:miter;stroke:rgb(99.998474%,87.449646%,0%);stroke-opacity:1;stroke-miterlimit:4;" d="M 703.105469 295.453125 C 703.105469 295.453125 704.351562 292.164062 705.9375 293.523438 "/>
<path style="fill:none;stroke-width:1.510439;stroke-linecap:butt;stroke-linejoin:miter;stroke:rgb(99.998474%,87.449646%,0%);stroke-opacity:1;stroke-miterlimit:4;" d="M 700.152344 285.921875 C 700.152344 285.921875 693.34375 291.9375 697.089844 295.796875 "/>
<path style=" stroke:none;fill-rule:evenodd;fill:rgb(99.998474%,99.998474%,99.998474%);fill-opacity:1;" d="M 0 1.25 L 0 29.199219 L 444.097656 251.25 L 500 251.25 L 500 223.300781 L 55.902344 1.25 Z M 500 1.25 L 500 29.199219 L 55.902344 251.25 L 0 251.25 L 0 223.300781 L 444.097656 1.25 Z M 500 1.25 "/>
<path style=" stroke:none;fill-rule:evenodd;fill:rgb(81.175232%,7.843018%,16.862488%);fill-opacity:1;" d="M 0 251.25 L 166.664062 167.914062 L 203.933594 167.914062 L 37.265625 251.25 Z M 0 1.25 L 166.664062 84.585938 L 129.398438 84.585938 L 0 19.882812 Z M 296.066406 84.585938 L 462.734375 1.25 L 500 1.25 L 333.335938 84.585938 Z M 500 251.25 L 333.335938 167.914062 L 370.601562 167.914062 L 500 232.617188 Z M 500 251.25 "/>
<path style=" stroke:none;fill-rule:evenodd;fill:rgb(0%,50.195312%,12.940979%);fill-opacity:1;" d="M 754.816406 191.285156 C 757.339844 189.125 758.648438 187.800781 760.203125 188.042969 C 761.765625 188.28125 763.890625 188.164062 765.453125 187.679688 C 767.019531 187.203125 774.769531 186.238281 777.953125 187.320312 C 779.039062 187.441406 780.472656 188.042969 782.695312 189.90625 C 784.921875 191.765625 788.164062 195.011719 787.085938 204.023438 C 786 213.03125 786.359375 216.890625 785.882812 221.921875 C 785.042969 230.816406 783.070312 238.140625 779.515625 237.542969 C 784.320312 245.957031 784.800781 253.164062 787.925781 258.933594 C 791.050781 264.703125 792.96875 276.476562 791.765625 289.214844 C 790.570312 301.949219 787.207031 330.546875 797.296875 349.769531 C 795.613281 350.972656 791.535156 349.769531 787.925781 345.921875 C 784.320312 342.078125 782.738281 342.207031 779.75 344.484375 C 770.625 351.449219 762.074219 359.855469 749.476562 351.449219 C 746.589844 349.53125 745.679688 347.222656 747.796875 341.359375 C 753.082031 326.699219 755.648438 306.585938 754.816406 297.144531 Z M 754.816406 191.285156 "/>
<path style="fill:none;stroke-width:0.332285;stroke-linecap:butt;stroke-linejoin:miter;stroke:rgb(0%,0%,0%);stroke-opacity:1;stroke-miterlimit:4;" d="M 754.816406 191.285156 C 757.339844 189.125 758.648438 187.800781 760.203125 188.042969 C 761.765625 188.28125 763.890625 188.164062 765.453125 187.679688 C 767.019531 187.203125 774.769531 186.238281 777.953125 187.320312 C 779.039062 187.441406 780.472656 188.042969 782.695312 189.90625 C 784.921875 191.765625 788.164062 195.011719 787.085938 204.023438 C 786 213.03125 786.359375 216.890625 785.882812 221.921875 C 785.042969 230.816406 783.070312 238.140625 779.515625 237.542969 C 784.320312 245.957031 784.800781 253.164062 787.925781 258.933594 C 791.050781 264.703125 792.96875 276.476562 791.765625 289.214844 C 790.570312 301.949219 787.207031 330.546875 797.296875 349.769531 C 795.613281 350.972656 791.535156 349.769531 787.925781 345.921875 C 784.320312 342.078125 782.738281 342.207031 779.75 344.480469 C 770.625 351.449219 762.074219 359.855469 749.476562 351.449219 C 746.589844 349.53125 745.679688 347.222656 747.796875 341.355469 C 753.082031 326.699219 755.648438 306.585938 754.816406 297.144531 Z M 754.816406 191.285156 "/>
<path style=" stroke:none;fill-rule:evenodd;fill:rgb(99.998474%,88.233948%,81.175232%);fill-opacity:1;" d="M 763.476562 182.273438 C 764.136719 184.316406 764.492188 186.960938 763.414062 189.363281 C 762.332031 191.765625 762.09375 194.652344 763.890625 198.136719 C 766.777344 194.046875 770.863281 194.890625 773.265625 192.488281 C 775.667969 190.082031 776.152344 187.800781 777.953125 187.320312 C 776.152344 185.761719 773.390625 184.078125 773.988281 179.511719 C 774.589844 174.945312 780.957031 171.21875 775.191406 164.253906 C 771.464844 159.75 766.054688 161.007812 763.714844 162.75 C 762.613281 163.570312 761.675781 164.730469 761.3125 165.511719 C 760.953125 166.292969 761.402344 168.070312 760.527344 169.117188 C 759.929688 169.839844 759.203125 170.554688 758.363281 171.164062 C 757.828125 171.550781 757.488281 172.117188 758.066406 172.78125 C 758.296875 173.046875 758.722656 173.105469 759.183594 173.265625 C 758.917969 173.804688 758.609375 174.34375 758.304688 174.734375 C 758.023438 175.101562 758.144531 175.453125 758.484375 175.75 C 758.03125 177.191406 758.910156 177.347656 758.304688 178.433594 C 757.785156 179.363281 757.078125 180.472656 759.027344 181.550781 C 759.570312 181.855469 762.125 182.445312 763.476562 182.273438 Z M 763.476562 182.273438 "/>
<path style="fill:none;stroke-width:0.332285;stroke-linecap:butt;stroke-linejoin:miter;stroke:rgb(0%,0%,0%);stroke-opacity:1;stroke-miterlimit:4;" d="M 763.476562 182.273438 C 764.136719 184.316406 764.492188 186.960938 763.414062 189.363281 C 762.332031 191.765625 762.09375 194.652344 763.890625 198.136719 C 766.777344 194.046875 770.863281 194.890625 773.265625 192.488281 C 775.667969 190.082031 776.152344 187.800781 777.953125 187.320312 C 776.152344 185.761719 773.390625 184.078125 773.988281 179.511719 C 774.589844 174.945312 780.957031 171.222656 775.191406 164.253906 C 771.464844 159.75 766.054688 161.007812 763.714844 162.75 C 762.613281 163.570312 761.675781 164.730469 761.3125 165.511719 C 760.953125 166.292969 761.402344 168.070312 760.527344 169.117188 C 759.929688 169.839844 759.203125 170.554688 758.363281 171.164062 C 757.828125 171.550781 757.488281 172.117188 758.066406 172.785156 C 758.296875 173.046875 758.722656 173.105469 759.183594 173.265625 C 758.917969 173.804688 758.609375 174.347656 758.304688 174.734375 C 758.023438 175.101562 758.144531 175.453125 758.484375 175.753906 C 758.03125 177.191406 758.910156 177.347656 758.304688 178.433594 C 757.785156 179.363281 757.078125 180.472656 759.027344 181.550781 C 759.570312 181.855469 762.125 182.445312 763.476562 182.273438 Z M 763.476562 182.273438 "/>
<path style=" stroke:none;fill-rule:evenodd;fill:rgb(99.998474%,88.233948%,81.175232%);fill-opacity:1;" d="M 740.109375 206.1875 C 736.738281 207.027344 731.332031 205.585938 727.246094 206.0625 C 725.445312 206.277344 724.003906 205.347656 724.246094 203.546875 C 724.484375 201.738281 724.726562 198.976562 724.359375 196.453125 C 723.804688 192.519531 725.683594 187.078125 728.328125 181.074219 C 730.972656 175.0625 732.296875 171.703125 732.296875 168.875 C 732.296875 167.015625 732.476562 164.914062 734.15625 163.832031 C 735.398438 163.03125 735.640625 162.257812 736.078125 161.605469 C 737.101562 160.109375 738.0625 159.746094 738.179688 160.648438 C 738.253906 161.179688 738.0625 161.671875 737.578125 162.386719 C 738.664062 161.488281 740.496094 160.433594 740.914062 160.136719 C 741.332031 159.839844 743.472656 158.335938 743.589844 159.746094 C 744.429688 159.328125 745 159.355469 745.210938 159.804688 C 745.441406 160.292969 745.300781 160.496094 744.878906 160.859375 C 745.480469 160.738281 746.171875 161.789062 744.972656 162.71875 C 745.601562 162.511719 746.230469 163.558594 745.121094 164.519531 C 743.96875 165.511719 742.65625 166.207031 742.234375 166.988281 C 741.816406 167.769531 738.960938 169.960938 737.824219 170.4375 C 736.679688 170.921875 736.621094 171.582031 736.621094 173.261719 C 736.621094 191.765625 734.398438 190.265625 734.398438 194.710938 C 734.398438 195.914062 734.15625 196.992188 735.355469 196.632812 C 736.5625 196.273438 738.300781 195.734375 740.109375 195.734375 Z M 740.109375 206.1875 "/>
<path style="fill:none;stroke-width:0.332285;stroke-linecap:butt;stroke-linejoin:miter;stroke:rgb(0%,0%,0%);stroke-opacity:1;stroke-miterlimit:4;" d="M 740.109375 206.1875 C 736.738281 207.027344 731.332031 205.585938 727.246094 206.066406 C 725.445312 206.277344 724.003906 205.347656 724.246094 203.542969 C 724.484375 201.738281 724.726562 198.976562 724.359375 196.453125 C 723.804688 192.519531 725.683594 187.078125 728.328125 181.074219 C 730.972656 175.0625 732.296875 171.703125 732.296875 168.878906 C 732.296875 167.015625 732.476562 164.914062 734.15625 163.832031 C 735.398438 163.03125 735.640625 162.257812 736.078125 161.605469 C 737.101562 160.105469 738.0625 159.746094 738.179688 160.648438 C 738.253906 161.179688 738.0625 161.667969 737.578125 162.386719 C 738.664062 161.488281 740.496094 160.433594 740.914062 160.136719 C 741.332031 159.839844 743.472656 158.335938 743.589844 159.746094 C 744.429688 159.324219 745 159.355469 745.210938 159.804688 C 745.441406 160.292969 745.300781 160.496094 744.878906 160.859375 C 745.480469 160.738281 746.171875 161.789062 744.972656 162.71875 C 745.601562 162.511719 746.230469 163.558594 745.121094 164.519531 C 743.96875 165.511719 742.65625 166.207031 742.234375 166.988281 C 741.816406 167.769531 738.960938 169.960938 737.824219 170.441406 C 736.679688 170.921875 736.621094 171.582031 736.621094 173.261719 C 736.621094 191.765625 734.398438 190.261719 734.398438 194.710938 C 734.398438 195.914062 734.15625 196.992188 735.355469 196.632812 C 736.5625 196.273438 738.300781 195.730469 740.109375 195.730469 Z M 740.109375 206.1875 "/>
<path style=" stroke:none;fill-rule:evenodd;fill:rgb(99.998474%,88.233948%,81.175232%);fill-opacity:1;" d="M 740.824219 246.074219 C 746.253906 243.359375 752.480469 242.355469 755.722656 241.507812 C 758.964844 240.667969 764.136719 238.148438 766.65625 236.828125 C 769.183594 235.503906 771.226562 233.703125 772.667969 233.222656 C 774.109375 232.738281 775.722656 231.746094 776.632812 229.976562 C 781.3125 220.84375 783.84375 213.515625 783.84375 207.148438 C 783.84375 202.9375 782.757812 198.257812 778.671875 201.621094 C 774.832031 204.78125 770.648438 210.878906 769.542969 215.316406 C 767.859375 222.046875 766.421875 223.484375 766.054688 224.808594 C 765.699219 226.132812 764.335938 226.128906 762.691406 226.492188 C 755.601562 228.050781 753.921875 229.136719 748.632812 233.101562 C 743.351562 237.066406 737.578125 240.550781 733.734375 242.714844 C 729.886719 244.878906 729.171875 245.117188 728.328125 246.855469 C 727.488281 248.597656 726.707031 249.921875 725.984375 250.703125 C 725.265625 251.484375 725.058594 252.398438 725.203125 253.34375 C 725.328125 254.125 724.960938 257.734375 724.90625 258.933594 C 724.84375 260.136719 725.140625 260.433594 725.628906 260.492188 C 726.109375 260.554688 726.765625 260.316406 727.011719 258.871094 C 726.765625 260.316406 728.75 259.832031 728.871094 258.753906 C 728.808594 260.316406 730.914062 259.414062 731.035156 257.972656 C 731.035156 258.992188 732.628906 258.285156 732.773438 257.792969 C 733.136719 256.589844 733.433594 255.269531 733.917969 254.304688 C 734.613281 252.914062 735.367188 251.105469 736.738281 250.101562 C 738.300781 248.960938 737.578125 247.699219 740.824219 246.074219 Z M 740.824219 246.074219 "/>
<path style="fill:none;stroke-width:0.332285;stroke-linecap:butt;stroke-linejoin:miter;stroke:rgb(0%,0%,0%);stroke-opacity:1;stroke-miterlimit:4;" d="M 740.824219 246.074219 C 746.253906 243.359375 752.480469 242.355469 755.722656 241.507812 C 758.964844 240.667969 764.136719 238.148438 766.65625 236.824219 C 769.183594 235.503906 771.226562 233.699219 772.667969 233.222656 C 774.109375 232.738281 775.722656 231.746094 776.632812 229.976562 C 781.3125 220.84375 783.84375 213.515625 783.84375 207.148438 C 783.84375 202.941406 782.757812 198.257812 778.671875 201.621094 C 774.832031 204.78125 770.648438 210.878906 769.542969 215.316406 C 767.859375 222.046875 766.421875 223.484375 766.054688 224.808594 C 765.699219 226.132812 764.335938 226.128906 762.691406 226.492188 C 755.601562 228.050781 753.921875 229.136719 748.632812 233.101562 C 743.351562 237.066406 737.578125 240.550781 733.734375 242.714844 C 729.886719 244.878906 729.171875 245.117188 728.328125 246.855469 C 727.488281 248.597656 726.707031 249.921875 725.984375 250.703125 C 725.265625 251.484375 725.058594 252.398438 725.203125 253.34375 C 725.328125 254.125 724.960938 257.734375 724.90625 258.933594 C 724.84375 260.136719 725.140625 260.433594 725.628906 260.492188 C 726.109375 260.554688 726.765625 260.316406 727.011719 258.871094 C 726.765625 260.316406 728.75 259.832031 728.871094 258.753906 C 728.808594 260.316406 730.914062 259.414062 731.035156 257.972656 C 731.035156 258.992188 732.628906 258.285156 732.773438 257.792969 C 733.136719 256.589844 733.433594 255.269531 733.917969 254.304688 C 734.613281 252.914062 735.367188 251.105469 736.738281 250.101562 C 738.300781 248.960938 737.578125 247.699219 740.824219 246.074219 Z M 740.824219 246.074219 "/>
<path style=" stroke:none;fill-rule:evenodd;fill:rgb(99.998474%,88.233948%,81.175232%);fill-opacity:1;" d="M 779.75 344.484375 C 780.117188 345.804688 780.777344 347.304688 781.015625 348.207031 C 781.253906 349.109375 780.835938 349.390625 780.597656 349.890625 C 779.335938 352.535156 777.980469 356.746094 777.769531 359.023438 C 777.65625 360.339844 776.753906 361.605469 776.328125 362.386719 C 775.863281 363.246094 776.046875 363.910156 777.109375 364.730469 C 777.621094 365.121094 779.273438 364.609375 779.453125 363.769531 C 780.054688 364.371094 781.132812 364.132812 781.617188 363.226562 C 782.160156 363.769531 783.0625 363.40625 783.664062 362.503906 C 784.199219 362.867188 784.980469 362.144531 785.277344 361.664062 C 786.121094 362.085938 787.027344 361.578125 787.050781 359.921875 C 787.058594 359.589844 787.265625 359.023438 787.503906 358.632812 C 787.742188 358.242188 787.832031 357.488281 787.808594 356.832031 C 787.773438 356.167969 788.199219 354.847656 788.765625 353.917969 C 789.335938 352.984375 790.328125 351.332031 789.90625 349.769531 C 789.515625 348.316406 788.886719 348.449219 788.34375 346.347656 C 787.027344 344.964844 785.226562 343.042969 783.359375 342.921875 C 781.5 342.800781 780.421875 344.0625 779.75 344.484375 Z M 779.75 344.484375 "/>
<path style="fill:none;stroke-width:0.332285;stroke-linecap:butt;stroke-linejoin:miter;stroke:rgb(0%,0%,0%);stroke-opacity:1;stroke-miterlimit:4;" d="M 779.75 344.480469 C 780.117188 345.804688 780.777344 347.304688 781.015625 348.207031 C 781.253906 349.109375 780.835938 349.390625 780.597656 349.890625 C 779.335938 352.535156 777.980469 356.746094 777.769531 359.023438 C 777.65625 360.339844 776.753906 361.605469 776.328125 362.386719 C 775.863281 363.246094 776.046875 363.910156 777.109375 364.730469 C 777.621094 365.121094 779.273438 364.609375 779.453125 363.769531 C 780.054688 364.371094 781.132812 364.132812 781.617188 363.226562 C 782.160156 363.769531 783.0625 363.410156 783.664062 362.503906 C 784.199219 362.867188 784.980469 362.144531 785.277344 361.664062 C 786.121094 362.085938 787.027344 361.578125 787.050781 359.921875 C 787.058594 359.589844 787.265625 359.023438 787.503906 358.632812 C 787.742188 358.242188 787.832031 357.488281 787.808594 356.832031 C 787.773438 356.167969 788.199219 354.847656 788.765625 353.917969 C 789.335938 352.984375 790.328125 351.332031 789.90625 349.769531 C 789.515625 348.316406 788.886719 348.449219 788.34375 346.347656 C 787.027344 344.964844 785.226562 343.042969 783.359375 342.917969 C 781.5 342.800781 780.421875 344.0625 779.75 344.480469 Z M 779.75 344.480469 "/>
<path style=" stroke:none;fill-rule:evenodd;fill:rgb(99.998474%,88.233948%,81.175232%);fill-opacity:1;" d="M 745.570312 354.8125 C 747.25 356.5 751.039062 356.558594 753.679688 353.734375 C 752.71875 353.316406 750.613281 352.355469 749.660156 351.574219 C 748.335938 352.894531 746.832031 354.394531 745.570312 354.8125 Z M 745.570312 354.8125 "/>
<path style="fill:none;stroke-width:0.332285;stroke-linecap:butt;stroke-linejoin:miter;stroke:rgb(0%,0%,0%);stroke-opacity:1;stroke-miterlimit:4;" d="M 745.570312 354.816406 C 747.25 356.5 751.039062 356.558594 753.679688 353.734375 C 752.71875 353.316406 750.613281 352.355469 749.660156 351.574219 C 748.335938 352.894531 746.832031 354.394531 745.570312 354.816406 Z M 745.570312 354.816406 "/>
<path style=" stroke:none;fill-rule:evenodd;fill:rgb(52.940369%,5.882263%,0%);fill-opacity:1;" d="M 762.574219 163.769531 C 763.234375 159.507812 766.253906 159.605469 768.160156 160.046875 C 768.941406 160.226562 770.863281 160.40625 772.667969 159.925781 C 776.230469 158.976562 778.917969 160.226562 778.554688 163.652344 C 779.515625 164.371094 780.53125 166.054688 780.355469 167.496094 C 780.175781 168.933594 780.472656 169.542969 781.800781 169.714844 C 783.121094 169.898438 785.949219 171.523438 784.078125 173.804688 C 785.882812 174.886719 787.265625 177.652344 786.304688 179.511719 C 785.339844 181.371094 782.460938 181.675781 781.253906 179.988281 C 779.9375 180.589844 777.769531 180.710938 776.449219 179.332031 C 775.550781 180.410156 773.265625 180.292969 772.839844 179.332031 C 772.425781 178.367188 771.714844 177.855469 770.863281 177.585938 C 769.902344 177.289062 769.84375 174.644531 771.285156 174.34375 C 771.105469 173.5625 771.167969 172.660156 771.523438 172.242188 C 771.886719 171.820312 771.582031 171.039062 770.742188 170.382812 C 769.902344 169.714844 769.183594 167.199219 770.019531 165.816406 C 768.582031 166.292969 765.394531 164.914062 764.734375 163.949219 C 764.074219 162.988281 763.171875 162.929688 762.574219 163.769531 Z M 762.574219 163.769531 "/>
<path style="fill:none;stroke-width:0.332285;stroke-linecap:butt;stroke-linejoin:miter;stroke:rgb(0%,0%,0%);stroke-opacity:1;stroke-miterlimit:4;" d="M 762.574219 163.769531 C 763.234375 159.507812 766.253906 159.605469 768.160156 160.046875 C 768.941406 160.226562 770.863281 160.40625 772.667969 159.925781 C 776.230469 158.976562 778.917969 160.226562 778.554688 163.652344 C 779.515625 164.371094 780.53125 166.054688 780.355469 167.496094 C 780.175781 168.933594 780.472656 169.542969 781.800781 169.714844 C 783.121094 169.898438 785.949219 171.523438 784.078125 173.804688 C 785.882812 174.886719 787.265625 177.652344 786.304688 179.511719 C 785.339844 181.371094 782.460938 181.675781 781.253906 179.988281 C 779.9375 180.589844 777.769531 180.710938 776.449219 179.332031 C 775.550781 180.410156 773.265625 180.292969 772.839844 179.332031 C 772.425781 178.367188 771.714844 177.855469 770.863281 177.585938 C 769.902344 177.289062 769.84375 174.644531 771.285156 174.347656 C 771.105469 173.566406 771.167969 172.660156 771.523438 172.242188 C 771.886719 171.820312 771.582031 171.039062 770.742188 170.382812 C 769.902344 169.714844 769.183594 167.199219 770.019531 165.816406 C 768.582031 166.292969 765.394531 164.914062 764.734375 163.949219 C 764.074219 162.988281 763.171875 162.929688 762.574219 163.769531 Z M 762.574219 163.769531 "/>
<path style="fill:none;stroke-width:0.332285;stroke-linecap:butt;stroke-linejoin:miter;stroke:rgb(0%,0%,0%);stroke-opacity:1;stroke-miterlimit:4;" d="M 763.476562 182.273438 C 765.820312 181.972656 766.597656 180.53125 768.339844 180.652344 "/>
<path style="fill:none;stroke-width:0.332285;stroke-linecap:butt;stroke-linejoin:miter;stroke:rgb(0%,0%,0%);stroke-opacity:1;stroke-miterlimit:4;" d="M 758.484375 175.753906 C 758.636719 175.882812 758.832031 175.996094 759.058594 176.117188 C 759.53125 176.371094 760.046875 176.402344 760.527344 176.464844 "/>
<path style="fill:none;stroke-width:0.332285;stroke-linecap:butt;stroke-linejoin:miter;stroke:rgb(0%,0%,0%);stroke-opacity:1;stroke-miterlimit:4;" d="M 759.183594 173.265625 C 759.511719 173.378906 759.859375 173.542969 760.171875 173.863281 "/>
<path style="fill:none;stroke-width:0.332285;stroke-linecap:butt;stroke-linejoin:miter;stroke:rgb(0%,0%,0%);stroke-opacity:1;stroke-miterlimit:4;" d="M 764.613281 163.769531 C 763.234375 162.449219 766.957031 159.746094 770.863281 163.589844 C 771.589844 164.304688 773.449219 164.3125 773.988281 164.132812 "/>
<path style="fill:none;stroke-width:0.332285;stroke-linecap:butt;stroke-linejoin:miter;stroke:rgb(0%,0%,0%);stroke-opacity:1;stroke-miterlimit:4;" d="M 770.019531 165.816406 C 771.828125 165.390625 774.527344 165.390625 775.308594 167.4375 C 776.09375 169.476562 777.65625 168.160156 778.917969 170.5625 C 780.175781 172.964844 782.160156 175.664062 784.078125 173.804688 "/>
<path style="fill:none;stroke-width:0.332285;stroke-linecap:butt;stroke-linejoin:miter;stroke:rgb(0%,0%,0%);stroke-opacity:1;stroke-miterlimit:4;" d="M 776.449219 179.332031 C 775.910156 178.609375 775.667969 177.050781 776.03125 175.964844 C 775.308594 175.128906 775.605469 173.382812 776.03125 172.542969 "/>
<path style="fill:none;stroke-width:0.332285;stroke-linecap:butt;stroke-linejoin:miter;stroke:rgb(0%,0%,0%);stroke-opacity:1;stroke-miterlimit:4;" d="M 771.285156 174.347656 C 771.347656 175.0625 772.304688 176.386719 773.808594 176.625 "/>
<path style="fill:none;stroke-width:0.332285;stroke-linecap:butt;stroke-linejoin:miter;stroke:rgb(0%,0%,0%);stroke-opacity:1;stroke-miterlimit:4;" d="M 781.253906 179.988281 C 780.421875 178.910156 780.53125 177.949219 780.71875 176.625 "/>
<path style="fill:none;stroke-width:0.332285;stroke-linecap:butt;stroke-linejoin:miter;stroke:rgb(0%,0%,0%);stroke-opacity:1;stroke-miterlimit:4;" d="M 772.484375 168.039062 C 772.425781 169.117188 773.085938 170.5625 774.222656 171.039062 C 774.46875 171.640625 775.667969 173.324219 778.070312 173.085938 "/>
<path style="fill:none;stroke-width:0.332285;stroke-linecap:butt;stroke-linejoin:miter;stroke:rgb(0%,0%,0%);stroke-opacity:1;stroke-miterlimit:4;" d="M 778.554688 163.652344 C 777.234375 162.628906 775.449219 161.367188 773.085938 161.054688 "/>
<path style="fill:none;stroke-width:0.332285;stroke-linecap:butt;stroke-linejoin:miter;stroke:rgb(0%,0%,0%);stroke-opacity:1;stroke-miterlimit:4;" d="M 763.890625 198.136719 C 761.851562 200.898438 760.527344 204.742188 761.492188 210.152344 C 762.453125 215.554688 764.015625 223.484375 760.046875 227.09375 "/>
<path style="fill:none;stroke-width:0.332285;stroke-linecap:butt;stroke-linejoin:miter;stroke:rgb(0%,0%,0%);stroke-opacity:1;stroke-miterlimit:4;" d="M 779.515625 237.542969 C 776.753906 236.945312 772.789062 236.945312 770.625 238.507812 C 768.460938 240.070312 764.855469 240.191406 762.453125 238.988281 "/>
<path style="fill:none;stroke-width:0.332285;stroke-linecap:butt;stroke-linejoin:miter;stroke:rgb(0%,0%,0%);stroke-opacity:1;stroke-miterlimit:4;" d="M 773.6875 237.367188 C 771.285156 237.789062 770.140625 239.46875 770.140625 243.917969 C 770.140625 248.359375 769.183594 254.847656 770.019531 261.214844 "/>
<path style="fill:none;stroke-width:0.332285;stroke-linecap:butt;stroke-linejoin:miter;stroke:rgb(0%,0%,0%);stroke-opacity:1;stroke-miterlimit:4;" d="M 769.300781 239.230469 C 767.738281 239.648438 766.117188 239.707031 766.421875 243.917969 "/>
<path style="fill:none;stroke-width:0.332285;stroke-linecap:butt;stroke-linejoin:miter;stroke:rgb(0%,0%,0%);stroke-opacity:1;stroke-miterlimit:4;" d="M 761.191406 244.035156 C 761.25 241.449219 762.152344 239.046875 763.832031 239.46875 "/>
<path style="fill:none;stroke-width:0.332285;stroke-linecap:butt;stroke-linejoin:miter;stroke:rgb(0%,0%,0%);stroke-opacity:1;stroke-miterlimit:4;" d="M 778.492188 244.515625 C 778.613281 238.808594 777.355469 237.1875 775.667969 237.246094 C 777.953125 237.304688 779.511719 237.582031 780.472656 246.917969 C 781.195312 253.886719 782.65625 256.351562 784.320312 261.816406 C 788.648438 275.996094 786.484375 297.859375 788.648438 305.550781 "/>
<path style="fill:none;stroke-width:0.332285;stroke-linecap:butt;stroke-linejoin:miter;stroke:rgb(0%,0%,0%);stroke-opacity:1;stroke-miterlimit:4;" d="M 775.191406 246.195312 C 779.75 259.414062 782.160156 274.074219 774.710938 297.621094 C 779.75 311.5625 784.800781 321.65625 785.761719 327.421875 "/>
<path style="fill:none;stroke-width:0.332285;stroke-linecap:butt;stroke-linejoin:miter;stroke:rgb(0%,0%,0%);stroke-opacity:1;stroke-miterlimit:4;" d="M 760.769531 277.4375 C 761.609375 274.433594 758.609375 274.074219 761.25 263.5 C 762.398438 258.921875 762.574219 256.171875 761.851562 254.726562 "/>
<path style="fill:none;stroke-width:0.332285;stroke-linecap:butt;stroke-linejoin:miter;stroke:rgb(0%,0%,0%);stroke-opacity:1;stroke-miterlimit:4;" d="M 761.851562 260.976562 C 760.769531 265.664062 765.335938 274.433594 763.054688 280.800781 "/>
<path style="fill:none;stroke-width:0.332285;stroke-linecap:butt;stroke-linejoin:miter;stroke:rgb(0%,0%,0%);stroke-opacity:1;stroke-miterlimit:4;" d="M 757.40625 282.003906 C 757.40625 286.089844 758.363281 291.378906 758.128906 295.457031 C 757.886719 299.546875 759.550781 301.441406 761.492188 305.3125 C 768.460938 319.253906 773.203125 329.195312 772.542969 342.320312 C 772.425781 344.722656 773.265625 349.769531 770.742188 351.210938 "/>
<path style="fill:none;stroke-width:0.332285;stroke-linecap:butt;stroke-linejoin:miter;stroke:rgb(0%,0%,0%);stroke-opacity:1;stroke-miterlimit:4;" d="M 757.582031 354.757812 C 758.304688 354.816406 759.085938 354.457031 759.988281 352.292969 C 760.894531 350.132812 763.777344 337.152344 762.574219 328.261719 "/>
<path style="fill:none;stroke-width:0.332285;stroke-linecap:butt;stroke-linejoin:miter;stroke:rgb(0%,0%,0%);stroke-opacity:1;stroke-miterlimit:4;" d="M 764.015625 338.355469 C 764.375 341.117188 764.375 346.765625 762.574219 351.210938 "/>
<path style="fill:none;stroke-width:0.332285;stroke-linecap:butt;stroke-linejoin:miter;stroke:rgb(0%,0%,0%);stroke-opacity:1;stroke-miterlimit:4;" d="M 768.582031 330.0625 C 769.664062 335.953125 769.542969 341.238281 768.703125 344.964844 "/>
<path style="fill:none;stroke-width:0.332285;stroke-linecap:butt;stroke-linejoin:miter;stroke:rgb(0%,0%,0%);stroke-opacity:1;stroke-miterlimit:4;" d="M 766.175781 344.964844 C 766.296875 347.367188 767.378906 353.375 765.578125 353.855469 "/>
<path style="fill:none;stroke-width:0.332285;stroke-linecap:butt;stroke-linejoin:miter;stroke:rgb(0%,0%,0%);stroke-opacity:1;stroke-miterlimit:4;" d="M 775.191406 317.089844 C 779.632812 324.058594 783.121094 341.238281 786.839844 344.84375 "/>
<path style="fill:none;stroke-width:0.332285;stroke-linecap:butt;stroke-linejoin:miter;stroke:rgb(0%,0%,0%);stroke-opacity:1;stroke-miterlimit:4;" d="M 779.039062 342.078125 C 778.917969 340.15625 778.792969 337.515625 777.710938 336.3125 "/>
<path style="fill:none;stroke-width:0.332285;stroke-linecap:butt;stroke-linejoin:miter;stroke:rgb(0%,0%,0%);stroke-opacity:1;stroke-miterlimit:4;" d="M 731.035156 257.972656 C 731.09375 256.648438 730.855469 255.390625 732.296875 253.34375 "/>
<path style="fill:none;stroke-width:0.332285;stroke-linecap:butt;stroke-linejoin:miter;stroke:rgb(0%,0%,0%);stroke-opacity:1;stroke-miterlimit:4;" d="M 728.871094 258.753906 C 729.050781 254.125 728.988281 253.707031 730.3125 252.445312 "/>
<path style="fill:none;stroke-width:0.332285;stroke-linecap:butt;stroke-linejoin:miter;stroke:rgb(0%,0%,0%);stroke-opacity:1;stroke-miterlimit:4;" d="M 727.011719 258.871094 C 727.066406 255.570312 726.644531 254.429688 727.96875 252.324219 "/>
<path style="fill:none;stroke-width:0.332285;stroke-linecap:butt;stroke-linejoin:miter;stroke:rgb(0%,0%,0%);stroke-opacity:1;stroke-miterlimit:4;" d="M 743.589844 159.746094 C 743.078125 160.078125 740.074219 162.359375 738.8125 163.320312 "/>
<path style="fill:none;stroke-width:0.332285;stroke-linecap:butt;stroke-linejoin:miter;stroke:rgb(0%,0%,0%);stroke-opacity:1;stroke-miterlimit:4;" d="M 744.878906 160.859375 C 744.3125 160.949219 742.65625 162.300781 739.714844 164.578125 "/>
<path style="fill:none;stroke-width:0.332285;stroke-linecap:butt;stroke-linejoin:miter;stroke:rgb(0%,0%,0%);stroke-opacity:1;stroke-miterlimit:4;" d="M 744.972656 162.71875 C 744.039062 163.140625 742.269531 164.855469 740.644531 165.996094 "/>
<path style="fill:none;stroke-width:0.332285;stroke-linecap:butt;stroke-linejoin:miter;stroke:rgb(0%,0%,0%);stroke-opacity:1;stroke-miterlimit:4;" d="M 737.578125 162.386719 C 737.128906 162.71875 736.261719 163.679688 735.839844 164.011719 "/>
<path style="fill:none;stroke-width:0.332285;stroke-linecap:butt;stroke-linejoin:miter;stroke:rgb(0%,0%,0%);stroke-opacity:1;stroke-miterlimit:4;" d="M 779.453125 363.769531 C 779.183594 363.464844 779.183594 362.417969 779.664062 361.246094 "/>
<path style="fill:none;stroke-width:0.332285;stroke-linecap:butt;stroke-linejoin:miter;stroke:rgb(0%,0%,0%);stroke-opacity:1;stroke-miterlimit:4;" d="M 781.617188 363.226562 C 781.289062 362.894531 781.617188 361.453125 781.949219 360.523438 "/>
<path style="fill:none;stroke-width:0.332285;stroke-linecap:butt;stroke-linejoin:miter;stroke:rgb(0%,0%,0%);stroke-opacity:1;stroke-miterlimit:4;" d="M 783.664062 362.503906 C 783.269531 362.324219 783.148438 361.484375 783.722656 360.339844 "/>
<path style="fill:none;stroke-width:0.332285;stroke-linecap:butt;stroke-linejoin:miter;stroke:rgb(0%,0%,0%);stroke-opacity:1;stroke-miterlimit:4;" d="M 785.277344 361.664062 C 785.011719 361.578125 784.890625 361.121094 785.371094 359.804688 "/>
<path style=" stroke:none;fill-rule:evenodd;fill:rgb(0%,0%,0%);fill-opacity:1;" d="M 761.640625 167.554688 C 762.511719 168.695312 763.414062 168.578125 763.570312 169.3125 C 763.730469 170.046875 763.847656 170.101562 764.015625 170.324219 C 764.183594 170.539062 763.605469 170.492188 763.320312 170.375 C 763.039062 170.257812 762.332031 170.269531 761.898438 170.277344 C 761.46875 170.28125 760.960938 169.78125 761.285156 169.714844 C 761.597656 169.65625 761.558594 169.558594 761.507812 169.335938 C 761.460938 169.109375 761.691406 168.761719 761.820312 168.691406 C 761.957031 168.628906 761.859375 168.640625 761.742188 168.339844 C 761.617188 168.042969 761.453125 167.308594 761.640625 167.554688 Z M 761.640625 167.554688 "/>
<path style=" stroke:none;fill-rule:evenodd;fill:rgb(0%,0%,0%);fill-opacity:1;" d="M 762.167969 166.507812 C 763.144531 166.625 764.824219 167.152344 765.738281 168.164062 C 766.453125 168.953125 765.867188 168.746094 765.507812 168.773438 C 765.140625 168.804688 764.429688 168.550781 764.074219 168.09375 C 763.722656 167.644531 762.660156 167.074219 762.09375 166.921875 C 761.753906 166.835938 761.429688 166.425781 762.167969 166.507812 Z M 762.167969 166.507812 "/>
<path style="fill-rule:nonzero;fill:rgb(99.998474%,99.998474%,99.998474%);fill-opacity:1;stroke-width:0.332285;stroke-linecap:butt;stroke-linejoin:miter;stroke:rgb(99.998474%,99.998474%,99.998474%);stroke-opacity:1;stroke-miterlimit:4;" d="M 208.335938 1.25 L 208.335938 251.25 L 291.664062 251.25 L 291.664062 1.25 Z M 208.335938 1.25 "/>
<path style="fill-rule:nonzero;fill:rgb(99.998474%,99.998474%,99.998474%);fill-opacity:1;stroke-width:0.332285;stroke-linecap:butt;stroke-linejoin:miter;stroke:rgb(99.998474%,99.998474%,99.998474%);stroke-opacity:1;stroke-miterlimit:4;" d="M 0 84.585938 L 0 167.914062 L 500 167.914062 L 500 84.585938 Z M 0 84.585938 "/>
<path style="fill-rule:nonzero;fill:rgb(81.175232%,7.843018%,16.862488%);fill-opacity:1;stroke-width:0.332285;stroke-linecap:butt;stroke-linejoin:miter;stroke:rgb(81.175232%,7.843018%,16.862488%);stroke-opacity:1;stroke-miterlimit:4;" d="M 0 101.25 L 0 151.25 L 500 151.25 L 500 101.25 Z M 0 101.25 "/>
<path style="fill-rule:nonzero;fill:rgb(81.175232%,7.843018%,16.862488%);fill-opacity:1;stroke-width:0.332285;stroke-linecap:butt;stroke-linejoin:miter;stroke:rgb(81.175232%,7.843018%,16.862488%);stroke-opacity:1;stroke-miterlimit:4;" d="M 225 1.25 L 225 251.25 L 275 251.25 L 275 1.25 Z M 225 1.25 "/>
</g>
</svg>
