<?xml version="1.0" encoding="UTF-8"?>
<svg xmlns="http://www.w3.org/2000/svg" xmlns:xlink="http://www.w3.org/1999/xlink" viewBox="0 0 1000 667" version="1.1">
<defs>
<clipPath id="clip1">
  <path d="M 0 0 L 1000 0 L 1000 666.71875 L 0 666.71875 Z M 0 0 "/>
</clipPath>
<clipPath id="clip2">
  <path d="M 0 437 L 1000 437 L 1000 666.71875 L 0 666.71875 Z M 0 437 "/>
</clipPath>
<clipPath id="clip3">
  <path d="M 0 458 L 1000 458 L 1000 666.71875 L 0 666.71875 Z M 0 458 "/>
</clipPath>
<clipPath id="clip4">
  <path d="M 0 0 L 438 0 L 438 666.71875 L 0 666.71875 Z M 0 0 "/>
</clipPath>
</defs>
<g id="surface820">
<g clip-path="url(#clip1)" clip-rule="nonzero">
<path style=" stroke:none;fill-rule:evenodd;fill:rgb(0%,0%,0%);fill-opacity:1;" d="M 0 666.667969 L 0 0 L 1000 0 L 1000 666.667969 Z M 0 666.667969 "/>
</g>
<path style=" stroke:none;fill-rule:evenodd;fill:rgb(99.998474%,99.998474%,99.998474%);fill-opacity:1;" d="M 0 0 L 1000 0 L 1000 229.167969 L 0 229.167969 Z M 0 0 "/>
<path style=" stroke:none;fill-rule:evenodd;fill:rgb(0%,44.313049%,40.783691%);fill-opacity:1;" d="M 0 0 L 1000 0 L 1000 208.332031 L 0 208.332031 Z M 0 0 "/>
<g clip-path="url(#clip2)" clip-rule="nonzero">
<path style=" stroke:none;fill-rule:evenodd;fill:rgb(99.998474%,99.998474%,99.998474%);fill-opacity:1;" d="M 0 437.222656 L 1000 437.222656 L 1000 666.667969 L 0 666.667969 Z M 0 437.222656 "/>
</g>
<g clip-path="url(#clip3)" clip-rule="nonzero">
<path style=" stroke:none;fill-rule:evenodd;fill:rgb(98.822021%,88.233948%,0%);fill-opacity:1;" d="M 0 458.332031 L 1000 458.332031 L 1000 666.667969 L 0 666.667969 Z M 0 458.332031 "/>
</g>
<g clip-path="url(#clip4)" clip-rule="nonzero">
<path style=" stroke:none;fill-rule:evenodd;fill:rgb(82.351685%,6.274414%,20.391846%);fill-opacity:1;" d="M 0 0 L 0 666.667969 L 437.5 333.332031 Z M 0 0 "/>
</g>
<path style=" stroke:none;fill-rule:evenodd;fill:rgb(98.822021%,88.233948%,0%);fill-opacity:1;" d="M 227.078125 458.316406 L 145.796875 398.808594 L 64.621094 458.332031 L 96.105469 362.640625 L 14.402344 303.835938 L 115.140625 304.203125 L 145.820312 208.332031 L 176.601562 304.253906 L 277.261719 303.808594 L 195.546875 362.722656 Z M 227.078125 458.316406 "/>
<path style="fill-rule:evenodd;fill:rgb(99.998474%,99.998474%,99.998474%);fill-opacity:1;stroke-width:1.74961;stroke-linecap:butt;stroke-linejoin:miter;stroke:rgb(0%,0%,0%);stroke-opacity:1;stroke-miterlimit:4;" d="M 75.25 391.585938 L 133.804688 391.585938 C 138.515625 396.871094 149.027344 399.027344 159.039062 391.523438 C 177.394531 381.472656 212.894531 391.585938 212.894531 391.585938 L 219.890625 384.160156 L 202.84375 328.222656 L 196.730469 321.667969 C 196.730469 321.667969 183.621094 313.808594 158.710938 316.429688 C 133.804688 319.046875 125.066406 315.554688 125.066406 315.554688 C 125.066406 315.554688 103.214844 318.175781 97.097656 321.234375 C 96.425781 321.777344 90.105469 328.222656 90.105469 328.222656 Z M 75.25 391.585938 "/>
<path style="fill:none;stroke-width:1.74961;stroke-linecap:butt;stroke-linejoin:miter;stroke:rgb(0%,0%,0%);stroke-opacity:1;stroke-miterlimit:4;" d="M 87.050781 377.164062 C 87.050781 377.164062 142.980469 370.175781 159.148438 391.585938 C 150.015625 397.835938 141.976562 398.351562 133.367188 392.023438 C 134.738281 389.742188 153.464844 370.175781 201.097656 376.730469 "/>
<path style=" stroke:none;fill-rule:evenodd;fill:rgb(0%,0%,0%);fill-opacity:1;" d="M 146.914062 321.234375 L 146.472656 382.84375 Z M 196.730469 322.109375 L 207.214844 371.050781 Z M 97.671875 321.335938 L 91.855469 346.578125 Z M 97.671875 321.335938 "/>
<path style="fill:none;stroke-width:1.74961;stroke-linecap:butt;stroke-linejoin:miter;stroke:rgb(0%,0%,0%);stroke-opacity:1;stroke-miterlimit:4;" d="M 146.914062 321.234375 L 146.472656 382.84375 "/>
<path style="fill:none;stroke-width:1.74961;stroke-linecap:butt;stroke-linejoin:miter;stroke:rgb(0%,0%,0%);stroke-opacity:1;stroke-miterlimit:4;" d="M 196.730469 322.109375 L 207.214844 371.050781 "/>
<path style="fill:none;stroke-width:1.74961;stroke-linecap:butt;stroke-linejoin:miter;stroke:rgb(0%,0%,0%);stroke-opacity:1;stroke-miterlimit:4;" d="M 97.671875 321.335938 L 91.855469 346.578125 "/>
<path style="fill-rule:evenodd;fill:rgb(0%,0%,0%);fill-opacity:1;stroke-width:1.74961;stroke-linecap:butt;stroke-linejoin:miter;stroke:rgb(0%,0%,0%);stroke-opacity:1;stroke-miterlimit:4;" d="M 37.21875 398.296875 L 50.988281 414.441406 C 52.605469 415.402344 54.042969 415.34375 55.480469 414.441406 L 75.882812 389.953125 L 84.457031 379.339844 C 85.785156 377.765625 86.207031 376.015625 86.089844 374.441406 L 102.480469 359.878906 C 103.820312 359.972656 104.617188 360.125 105.957031 360.214844 C 104.371094 359.804688 103.210938 359.035156 104.460938 357.296875 L 108.132812 354.441406 L 110.984375 358.117188 C 110.984375 358.117188 106.90625 363.421875 106.5 363.421875 L 102.007812 363.421875 L 93.433594 371.175781 L 97.183594 374.492188 L 102.828125 389.953125 L 109.765625 385.054688 L 105.273438 369.132812 L 115.070312 358.523438 L 111.398438 352.808594 L 113.847656 349.542969 C 113.847656 349.542969 147.75 370.886719 160.8125 365.175781 C 161.164062 365.300781 161.601562 349.953125 161.601562 349.953125 C 161.601562 349.953125 126.496094 346.277344 125.683594 339.339844 C 124.863281 332.398438 133.4375 331.585938 133.4375 331.585938 L 129.765625 326.28125 L 130.582031 323.421875 L 136.703125 331.171875 L 150.582031 319.335938 L 232.210938 412.398438 C 236.667969 410.589844 237.621094 409.5 237.929688 405.050781 C 237.816406 404.941406 157.925781 313.214844 157.925781 313.214844 L 164.050781 306.683594 C 165.253906 305.328125 165.679688 304.746094 165.683594 302.605469 L 175.070312 294.4375 C 177.890625 295.410156 179.691406 297.101562 181.191406 299.335938 L 207 277.460938 C 207.683594 278.148438 209.75 278.824219 211.148438 278.058594 L 253.820312 237.105469 L 207.3125 269.949219 L 205.679688 268.726562 C 205.679688 267.367188 207.367188 267.03125 205.679688 264.644531 C 203.875 262.476562 201.191406 266.6875 200.785156 266.6875 C 200.375 266.6875 194.054688 264.453125 192.671875 261.621094 L 192.214844 269.132812 L 180.375 280.152344 L 171.398438 279.746094 L 158.332031 292.398438 L 156.707031 297.296875 L 158.746094 301.378906 C 158.746094 301.378906 151.808594 307.503906 151.808594 307.097656 C 151.808594 306.683594 150.402344 305.289062 150.339844 305.109375 L 156.292969 299.746094 L 157.113281 296.070312 L 155.125 292.972656 C 154.523438 293.410156 146.90625 301.378906 146.5 300.5625 C 145.816406 299.796875 124.457031 275.667969 124.457031 275.667969 L 125.683594 271.175781 L 111.804688 256.078125 C 106.75 254.328125 98.746094 254.03125 97.113281 265.054688 C 95.839844 267.644531 85.273438 265.460938 85.273438 265.460938 L 79.5625 266.6875 L 47.3125 312.402344 L 65.273438 334.035156 L 102.007812 287.5 L 103.097656 274.320312 L 110.808594 282.9375 C 113.378906 283.269531 115.828125 283.296875 118.152344 282.125 L 139.917969 306.414062 L 136.296875 309.949219 C 137.523438 311.3125 138.363281 312.179688 139.589844 313.542969 C 140.808594 312.722656 141.980469 311.746094 143.207031 310.925781 C 143.613281 311.476562 144.292969 312.503906 144.707031 313.054688 C 142.875 314.046875 141.601562 315.363281 139.773438 316.355469 C 136.859375 314.457031 134.039062 312.085938 134.253906 308.316406 L 122.011719 318.523438 L 121.597656 320.5625 L 85.273438 350.765625 L 82.007812 351.179688 L 81.195312 360.5625 L 104.867188 340.972656 L 104.867188 338.113281 L 107.3125 340.152344 L 125.683594 325.460938 C 125.683594 325.460938 126.902344 327.09375 126.496094 327.09375 C 126.089844 327.09375 110.171875 341.785156 110.171875 341.785156 L 109.765625 343.417969 L 106.90625 345.871094 L 105.273438 344.644531 L 83.234375 364.234375 L 79.96875 364.234375 L 67.726562 376.480469 C 64.566406 376.757812 61.828125 377.089844 59.152344 378.929688 Z M 37.21875 398.296875 "/>
</g>
</svg>
