<?xml version="1.0" encoding="UTF-8"?>
<svg xmlns="http://www.w3.org/2000/svg" xmlns:xlink="http://www.w3.org/1999/xlink" viewBox="0 0 1000 1220" version="1.1">
<g id="surface840">
<path style="fill:none;stroke-width:72.136425;stroke-linecap:butt;stroke-linejoin:miter;stroke:rgb(0%,21.960449%,57.646179%);stroke-opacity:1;stroke-miterlimit:4;" d="M 36.226562 591.5 L 874.265625 591.5 L 36.226562 66.699219 L 36.226562 1184.082031 L 874.265625 1184.082031 L 36.226562 346.046875 Z M 36.226562 591.5 "/>
<path style=" stroke:none;fill-rule:evenodd;fill:rgb(99.998474%,99.998474%,99.998474%);fill-opacity:1;" d="M 275.171875 997.65625 L 245.738281 1067.128906 L 216.296875 997.65625 Z M 275.171875 997.65625 "/>
<path style="fill-rule:nonzero;fill:rgb(86.273193%,7.843018%,23.529053%);fill-opacity:1;stroke-width:72.136425;stroke-linecap:butt;stroke-linejoin:miter;stroke:rgb(86.273193%,7.843018%,23.529053%);stroke-opacity:1;stroke-miterlimit:4;" d="M 36.226562 591.503906 L 874.265625 591.503906 L 36.226562 66.699219 Z M 36.226562 591.503906 "/>
<path style="fill-rule:nonzero;fill:rgb(86.273193%,7.843018%,23.529053%);fill-opacity:1;stroke-width:72.136425;stroke-linecap:butt;stroke-linejoin:miter;stroke:rgb(86.273193%,7.843018%,23.529053%);stroke-opacity:1;stroke-miterlimit:4;" d="M 36.226562 1184.082031 L 874.265625 1184.082031 L 36.226562 346.046875 Z M 36.226562 1184.082031 "/>
<path style=" stroke:none;fill-rule:evenodd;fill:rgb(99.998474%,99.998474%,99.998474%);fill-opacity:1;" d="M 78.824219 394.703125 C 104.984375 461.257812 174.222656 508.441406 245.738281 508.441406 C 317.253906 508.441406 386.492188 461.257812 412.652344 394.703125 C 412.652344 438.398438 394.660156 481.824219 363.757812 512.726562 C 332.867188 543.625 289.433594 561.609375 245.738281 561.609375 C 202.035156 561.609375 158.609375 543.625 127.710938 512.726562 C 96.816406 481.824219 78.824219 438.398438 78.824219 394.703125 Z M 78.824219 394.703125 "/>
<path style=" stroke:none;fill-rule:evenodd;fill:rgb(99.998474%,99.998474%,99.998474%);fill-opacity:1;" d="M 323.410156 472.371094 C 323.410156 515.273438 288.632812 550.046875 245.738281 550.046875 C 202.835938 550.046875 168.0625 515.273438 168.0625 472.371094 C 168.0625 429.476562 202.835938 394.703125 245.738281 394.703125 C 288.632812 394.703125 323.410156 429.476562 323.410156 472.371094 Z M 323.410156 472.371094 "/>
<path style=" stroke:none;fill-rule:evenodd;fill:rgb(99.998474%,99.998474%,99.998474%);fill-opacity:1;" d="M 275.460938 400.613281 L 266.78125 366.574219 L 245.738281 394.703125 Z M 275.460938 400.613281 "/>
<path style=" stroke:none;fill-rule:evenodd;fill:rgb(99.998474%,99.998474%,99.998474%);fill-opacity:1;" d="M 300.660156 417.449219 L 305.667969 382.683594 L 275.460938 400.613281 Z M 300.660156 417.449219 "/>
<path style=" stroke:none;fill-rule:evenodd;fill:rgb(99.998474%,99.998474%,99.998474%);fill-opacity:1;" d="M 317.496094 442.648438 L 335.425781 412.449219 L 300.660156 417.449219 Z M 317.496094 442.648438 "/>
<path style=" stroke:none;fill-rule:evenodd;fill:rgb(99.998474%,99.998474%,99.998474%);fill-opacity:1;" d="M 323.410156 472.371094 L 351.535156 451.328125 L 317.496094 442.648438 Z M 323.410156 472.371094 "/>
<path style=" stroke:none;fill-rule:evenodd;fill:rgb(99.998474%,99.998474%,99.998474%);fill-opacity:1;" d="M 317.496094 502.097656 L 351.535156 493.417969 L 323.410156 472.371094 Z M 317.496094 502.097656 "/>
<path style=" stroke:none;fill-rule:evenodd;fill:rgb(99.998474%,99.998474%,99.998474%);fill-opacity:1;" d="M 300.660156 527.292969 L 335.425781 532.304688 L 317.496094 502.097656 Z M 300.660156 527.292969 "/>
<path style=" stroke:none;fill-rule:evenodd;fill:rgb(99.998474%,99.998474%,99.998474%);fill-opacity:1;" d="M 216.015625 400.613281 L 224.695312 366.574219 L 245.738281 394.703125 Z M 216.015625 400.613281 "/>
<path style=" stroke:none;fill-rule:evenodd;fill:rgb(99.998474%,99.998474%,99.998474%);fill-opacity:1;" d="M 190.8125 417.449219 L 185.804688 382.683594 L 216.015625 400.613281 Z M 190.8125 417.449219 "/>
<path style=" stroke:none;fill-rule:evenodd;fill:rgb(99.998474%,99.998474%,99.998474%);fill-opacity:1;" d="M 173.980469 442.648438 L 156.046875 412.449219 L 190.8125 417.449219 Z M 173.980469 442.648438 "/>
<path style=" stroke:none;fill-rule:evenodd;fill:rgb(99.998474%,99.998474%,99.998474%);fill-opacity:1;" d="M 168.0625 472.371094 L 139.941406 451.328125 L 173.980469 442.648438 Z M 168.0625 472.371094 "/>
<path style=" stroke:none;fill-rule:evenodd;fill:rgb(99.998474%,99.998474%,99.998474%);fill-opacity:1;" d="M 173.980469 502.097656 L 139.941406 493.417969 L 168.0625 472.371094 Z M 173.980469 502.097656 "/>
<path style=" stroke:none;fill-rule:evenodd;fill:rgb(99.998474%,99.998474%,99.998474%);fill-opacity:1;" d="M 190.8125 527.292969 L 156.046875 532.304688 L 173.980469 502.097656 Z M 190.8125 527.292969 "/>
<path style=" stroke:none;fill-rule:evenodd;fill:rgb(99.998474%,99.998474%,99.998474%);fill-opacity:1;" d="M 359.476562 887.792969 C 359.476562 950.609375 308.554688 1001.53125 245.738281 1001.53125 C 182.921875 1001.53125 132 950.609375 132 887.792969 C 132 824.976562 182.921875 774.046875 245.738281 774.046875 C 308.554688 774.046875 359.476562 824.976562 359.476562 887.792969 Z M 359.476562 887.792969 "/>
<path style=" stroke:none;fill-rule:evenodd;fill:rgb(99.998474%,99.998474%,99.998474%);fill-opacity:1;" d="M 275.171875 997.65625 L 245.738281 1067.128906 L 216.296875 997.65625 Z M 275.171875 997.65625 "/>
<path style=" stroke:none;fill-rule:evenodd;fill:rgb(99.998474%,99.998474%,99.998474%);fill-opacity:1;" d="M 216.296875 777.925781 L 245.738281 708.449219 L 275.171875 777.925781 Z M 216.296875 777.925781 "/>
<path style=" stroke:none;fill-rule:evenodd;fill:rgb(99.998474%,99.998474%,99.998474%);fill-opacity:1;" d="M 135.871094 917.226562 L 66.390625 887.792969 L 135.871094 858.351562 Z M 135.871094 917.226562 "/>
<path style=" stroke:none;fill-rule:evenodd;fill:rgb(99.998474%,99.998474%,99.998474%);fill-opacity:1;" d="M 355.601562 858.351562 L 425.074219 887.792969 L 355.601562 917.226562 Z M 355.601562 858.351562 "/>
<path style=" stroke:none;fill-rule:evenodd;fill:rgb(99.998474%,99.998474%,99.998474%);fill-opacity:1;" d="M 216.296875 997.65625 L 156.070312 1043.109375 L 165.304688 968.21875 Z M 216.296875 997.65625 "/>
<path style=" stroke:none;fill-rule:evenodd;fill:rgb(99.998474%,99.998474%,99.998474%);fill-opacity:1;" d="M 275.171875 777.925781 L 335.40625 732.476562 L 326.160156 807.363281 Z M 275.171875 777.925781 "/>
<path style=" stroke:none;fill-rule:evenodd;fill:rgb(99.998474%,99.998474%,99.998474%);fill-opacity:1;" d="M 135.871094 858.351562 L 90.421875 798.125 L 165.304688 807.363281 Z M 135.871094 858.351562 "/>
<path style=" stroke:none;fill-rule:evenodd;fill:rgb(99.998474%,99.998474%,99.998474%);fill-opacity:1;" d="M 355.601562 917.226562 L 401.054688 977.460938 L 326.160156 968.21875 Z M 355.601562 917.226562 "/>
<path style=" stroke:none;fill-rule:evenodd;fill:rgb(99.998474%,99.998474%,99.998474%);fill-opacity:1;" d="M 165.304688 968.21875 L 90.421875 977.460938 L 135.871094 917.226562 Z M 165.304688 968.21875 "/>
<path style=" stroke:none;fill-rule:evenodd;fill:rgb(99.998474%,99.998474%,99.998474%);fill-opacity:1;" d="M 326.160156 807.363281 L 401.054688 798.125 L 355.601562 858.351562 Z M 326.160156 807.363281 "/>
<path style=" stroke:none;fill-rule:evenodd;fill:rgb(99.998474%,99.998474%,99.998474%);fill-opacity:1;" d="M 165.304688 807.363281 L 156.070312 732.476562 L 216.296875 777.925781 Z M 165.304688 807.363281 "/>
<path style=" stroke:none;fill-rule:evenodd;fill:rgb(99.998474%,99.998474%,99.998474%);fill-opacity:1;" d="M 326.160156 968.21875 L 335.40625 1043.109375 L 275.171875 997.65625 Z M 326.160156 968.21875 "/>
</g>
</svg>
