<?xml version="1.0" encoding="UTF-8"?>
<svg xmlns="http://www.w3.org/2000/svg" xmlns:xlink="http://www.w3.org/1999/xlink" viewBox="0 0 1000 500" version="1.1">
<g id="surface850">
<rect x="0" y="0" width="1000" height="500" style="fill:rgb(0%,58.430481%,26.274109%);fill-opacity:1;stroke:none;"/>
<path style=" stroke:none;fill-rule:evenodd;fill:rgb(92.939758%,25.489807%,20.783997%);fill-opacity:1;" d="M 0 0 L 1000 0 L 1000 333.332031 L 0 333.332031 Z M 0 0 "/>
<path style=" stroke:none;fill-rule:evenodd;fill:rgb(0%,20.783997%,67.842102%);fill-opacity:1;" d="M 0 0 L 1000 0 L 1000 166.667969 L 0 166.667969 Z M 0 0 "/>
<path style="fill-rule:evenodd;fill:rgb(98.03772%,90.194702%,0%);fill-opacity:1;stroke-width:5.555556;stroke-linecap:butt;stroke-linejoin:miter;stroke:rgb(0%,0%,0%);stroke-opacity:1;stroke-miterlimit:4;" d="M 497.199219 250 C 497.199219 340.5 423.832031 413.867188 333.332031 413.867188 C 242.832031 413.867188 169.464844 340.5 169.464844 250 C 169.464844 159.5 242.832031 86.132812 333.332031 86.132812 C 423.832031 86.132812 497.199219 159.5 497.199219 250 Z M 497.199219 250 "/>
<path style=" stroke:none;fill-rule:evenodd;fill:rgb(0%,0%,0%);fill-opacity:1;" d="M 305.554688 274.445312 L 361.109375 274.445312 Z M 305.554688 233.332031 L 361.109375 233.332031 Z M 333.332031 86.664062 L 333.332031 366.667969 Z M 333.332031 86.664062 "/>
<path style="fill:none;stroke-width:6.666667;stroke-linecap:butt;stroke-linejoin:miter;stroke:rgb(0%,0%,0%);stroke-opacity:1;stroke-miterlimit:4;" d="M 305.554688 274.445312 L 361.109375 274.445312 "/>
<path style="fill:none;stroke-width:6.666667;stroke-linecap:butt;stroke-linejoin:miter;stroke:rgb(0%,0%,0%);stroke-opacity:1;stroke-miterlimit:4;" d="M 305.554688 233.332031 L 361.109375 233.332031 "/>
<path style="fill:none;stroke-width:6.666667;stroke-linecap:butt;stroke-linejoin:miter;stroke:rgb(0%,0%,0%);stroke-opacity:1;stroke-miterlimit:4;" d="M 333.332031 86.664062 L 333.332031 366.667969 "/>
<path style=" stroke:none;fill-rule:evenodd;fill:rgb(0%,0%,0%);fill-opacity:1;" d="M 267.355469 400.464844 C 334.234375 427.777344 396.917969 402.144531 396.917969 402.144531 C 396.917969 402.144531 373.257812 376.535156 361.128906 366.535156 C 349.289062 356.78125 314.46875 357.167969 302.585938 366.535156 C 292.671875 374.355469 264.230469 403.167969 267.355469 400.464844 Z M 267.355469 400.464844 "/>
<path style=" stroke:none;fill-rule:evenodd;fill:rgb(0%,0%,0%);fill-opacity:1;" d="M 351.664062 325.554688 C 351.664062 340.285156 343.457031 352.226562 333.332031 352.226562 C 323.210938 352.226562 315 340.285156 315 325.554688 C 315 310.828125 323.210938 298.886719 333.332031 298.886719 C 343.457031 298.886719 351.664062 310.828125 351.664062 325.554688 Z M 351.664062 325.554688 "/>
<path style=" stroke:none;fill-rule:evenodd;fill:rgb(0%,0%,0%);fill-opacity:1;" d="M 355.554688 253.890625 C 355.554688 261.660156 345.605469 267.957031 333.332031 267.957031 C 321.0625 267.957031 311.109375 261.660156 311.109375 253.890625 C 311.109375 246.121094 321.0625 239.820312 333.332031 239.820312 C 345.605469 239.820312 355.554688 246.121094 355.554688 253.890625 Z M 355.554688 253.890625 "/>
<path style=" stroke:none;fill-rule:evenodd;fill:rgb(0%,0%,0%);fill-opacity:1;" d="M 355.554688 188.890625 C 355.554688 201.160156 345.605469 211.109375 333.332031 211.109375 C 321.0625 211.109375 311.109375 201.160156 311.109375 188.890625 C 311.109375 176.617188 321.0625 166.667969 333.332031 166.667969 C 345.605469 166.667969 355.554688 176.617188 355.554688 188.890625 Z M 355.554688 188.890625 "/>
<path style=" stroke:none;fill-rule:evenodd;fill:rgb(0%,0%,0%);fill-opacity:1;" d="M 360 106.109375 C 359.992188 106.097656 361.925781 109.296875 357.871094 116.597656 C 338.515625 151.464844 319.082031 152.21875 315.398438 155.226562 C 311.328125 158.527344 309.613281 158.304688 309.613281 158.304688 C 309.90625 155.316406 310.171875 143.105469 310.382812 141.929688 C 313.324219 125.632812 337.9375 125.863281 357.199219 109.179688 C 360.210938 106.570312 359.992188 106.097656 359.992188 106.097656 Z M 360 106.109375 "/>
<path style=" stroke:none;fill-rule:evenodd;fill:rgb(0%,0%,0%);fill-opacity:1;" d="M 294.996094 181.109375 C 294.996094 181.109375 299.347656 193.585938 300 206.109375 C 301.042969 226.105469 320.199219 226.664062 333.332031 226.664062 L 333.332031 215.554688 C 323.492188 215.554688 314.941406 214.09375 307.78125 199.445312 C 304.242188 192.21875 294.996094 181.109375 294.996094 181.109375 Z M 294.996094 181.109375 "/>
<path style=" stroke:none;fill-rule:evenodd;fill:rgb(0%,0%,0%);fill-opacity:1;" d="M 294.445312 342.21875 C 294.445312 342.21875 301.4375 333.59375 309.625 313.363281 C 313.894531 302.804688 324.011719 296.667969 333.332031 296.667969 L 333.332031 281.109375 C 312.191406 281.109375 302.054688 288.949219 300.988281 300.402344 C 298.789062 323.9375 294.445312 342.21875 294.445312 342.21875 Z M 294.445312 342.21875 "/>
<path style=" stroke:none;fill-rule:evenodd;fill:rgb(0%,0%,0%);fill-opacity:1;" d="M 371.667969 181.109375 C 371.667969 181.109375 367.316406 193.585938 366.667969 206.109375 C 365.625 226.105469 346.46875 226.664062 333.332031 226.664062 L 333.332031 215.554688 C 343.175781 215.554688 351.726562 214.09375 358.886719 199.445312 C 362.421875 192.21875 371.667969 181.109375 371.667969 181.109375 Z M 371.667969 181.109375 "/>
<path style=" stroke:none;fill-rule:evenodd;fill:rgb(0%,0%,0%);fill-opacity:1;" d="M 372.222656 342.21875 C 372.222656 342.21875 365.230469 333.59375 357.042969 313.363281 C 352.773438 302.804688 342.652344 296.667969 333.332031 296.667969 L 333.332031 281.109375 C 354.476562 281.109375 364.609375 288.949219 365.679688 300.402344 C 367.875 323.9375 372.222656 342.21875 372.222656 342.21875 Z M 372.222656 342.21875 "/>
</g>
</svg>
