<?xml version="1.0" encoding="UTF-8"?>
<svg xmlns="http://www.w3.org/2000/svg" xmlns:xlink="http://www.w3.org/1999/xlink" viewBox="0 0 1000 600" version="1.1">
<g id="surface860">
<rect x="0" y="0" width="1000" height="600" style="fill:rgb(0%,40.39917%,77.598572%);fill-opacity:1;stroke:none;"/>
<path style=" stroke:none;fill-rule:evenodd;fill:rgb(99.998474%,99.998474%,99.998474%);fill-opacity:1;" d="M 0 400 L 1000 400 L 1000 200 L 0 200 Z M 0 400 "/>
<path style=" stroke:none;fill-rule:evenodd;fill:rgb(78.398132%,64.299011%,0%);fill-opacity:1;" d="M 431.785156 342.007812 L 433.34375 344.457031 L 427.34375 353.503906 L 425.925781 351.277344 L 427.210938 349.484375 L 424.664062 345.480469 L 422.507812 345.902344 L 421.078125 343.660156 Z M 430.90625 344.308594 L 426.425781 345.152344 L 428.246094 348.015625 Z M 430.90625 344.308594 "/>
<path style=" stroke:none;fill-rule:evenodd;fill:rgb(78.398132%,64.299011%,0%);fill-opacity:1;" d="M 429.28125 356.097656 L 436.636719 349.441406 L 439.125 352.191406 L 435.167969 359.054688 L 442.367188 355.769531 L 444.878906 358.546875 L 437.523438 365.203125 L 435.941406 363.453125 L 441.867188 358.085938 L 434.273438 361.613281 L 432.546875 359.703125 L 436.78125 352.46875 L 430.855469 357.835938 Z M 429.28125 356.097656 "/>
<path style=" stroke:none;fill-rule:evenodd;fill:rgb(78.398132%,64.299011%,0%);fill-opacity:1;" d="M 453.753906 361.398438 L 450.164062 361.722656 L 449.238281 360.976562 L 452.089844 360.058594 C 452.089844 360.058594 453.753906 361.398438 453.753906 361.398438 Z M 440.066406 367.425781 L 446.289062 359.703125 L 453.199219 365.265625 L 452.121094 366.601562 L 447.148438 362.59375 L 445.820312 364.246094 L 450.371094 367.910156 L 449.308594 369.234375 L 444.757812 365.566406 L 443.15625 367.554688 L 448.359375 371.75 L 447.207031 373.179688 Z M 440.066406 367.425781 "/>
<path style=" stroke:none;fill-rule:evenodd;fill:rgb(78.398132%,64.299011%,0%);fill-opacity:1;" d="M 449.835938 375.03125 L 454.890625 366.492188 L 459.980469 369.507812 C 461.132812 370.191406 461.867188 370.898438 462.183594 371.625 C 462.496094 372.355469 462.414062 373.125 461.929688 373.9375 C 461.621094 374.460938 461.230469 374.8125 460.757812 374.992188 C 460.285156 375.171875 459.757812 375.183594 459.171875 375.027344 C 459.550781 375.414062 459.757812 375.808594 459.792969 376.210938 C 459.8125 376.613281 459.671875 377.101562 459.375 377.671875 L 458.824219 378.707031 L 458.804688 378.738281 C 458.507812 379.238281 458.460938 379.625 458.667969 379.894531 L 458.507812 380.167969 L 456.128906 378.757812 C 456.121094 378.589844 456.148438 378.402344 456.214844 378.199219 C 456.242188 378.105469 456.285156 378.003906 456.335938 377.894531 C 456.386719 377.78125 456.445312 377.664062 456.507812 377.535156 L 457.027344 376.625 C 457.3125 376.074219 457.394531 375.644531 457.28125 375.332031 C 457.175781 375.011719 456.835938 374.679688 456.261719 374.34375 L 453.960938 372.976562 L 451.992188 376.304688 Z M 454.835938 371.503906 L 457.378906 373.007812 C 457.929688 373.335938 458.390625 373.488281 458.757812 373.460938 C 459.125 373.433594 459.425781 373.226562 459.65625 372.835938 C 459.882812 372.453125 459.925781 372.097656 459.78125 371.769531 C 459.640625 371.429688 459.324219 371.109375 458.820312 370.8125 L 456.171875 369.246094 Z M 454.835938 371.503906 "/>
<path style=" stroke:none;fill-rule:evenodd;fill:rgb(78.398132%,64.299011%,0%);fill-opacity:1;" d="M 461.683594 381.585938 L 465.777344 372.546875 L 468.074219 373.585938 L 463.980469 382.625 Z M 461.683594 381.585938 "/>
<path style=" stroke:none;fill-rule:evenodd;fill:rgb(78.398132%,64.299011%,0%);fill-opacity:1;" d="M 478.773438 384.273438 C 478.339844 385.308594 477.558594 386 476.429688 386.347656 C 475.292969 386.679688 473.976562 386.605469 472.476562 386.121094 C 470.769531 385.570312 469.570312 384.699219 468.890625 383.511719 C 468.210938 382.347656 468.128906 380.972656 468.640625 379.382812 C 469.15625 377.785156 470.042969 376.710938 471.296875 376.160156 C 472.550781 375.621094 474.085938 375.644531 475.90625 376.234375 C 477.394531 376.710938 478.46875 377.382812 479.132812 378.25 C 479.808594 379.125 480.011719 380.113281 479.742188 381.203125 L 477.394531 380.445312 C 477.46875 379.878906 477.328125 379.382812 476.976562 378.949219 C 476.613281 378.527344 476.070312 378.195312 475.347656 377.964844 C 474.304688 377.628906 473.414062 377.648438 472.679688 378.023438 C 471.945312 378.398438 471.410156 379.113281 471.070312 380.167969 C 470.742188 381.179688 470.761719 382.0625 471.117188 382.8125 C 471.492188 383.546875 472.179688 384.078125 473.179688 384.398438 C 473.914062 384.632812 474.554688 384.675781 475.105469 384.523438 C 475.65625 384.371094 476.101562 384.035156 476.441406 383.519531 Z M 478.773438 384.273438 "/>
<path style=" stroke:none;fill-rule:evenodd;fill:rgb(78.398132%,64.299011%,0%);fill-opacity:1;" d="M 486.433594 379.082031 L 489.304688 379.523438 L 492.152344 390 L 489.539062 389.597656 L 489.039062 387.449219 L 484.351562 386.726562 L 483.246094 388.628906 L 480.617188 388.222656 Z M 487.582031 381.257812 L 485.261719 385.183594 L 488.617188 385.703125 Z M 487.582031 381.257812 "/>
<path style=" stroke:none;fill-rule:evenodd;fill:rgb(78.398132%,64.299011%,0%);fill-opacity:1;" d="M 516.691406 385.316406 C 516.746094 386.4375 516.335938 387.398438 515.460938 388.195312 C 514.574219 388.980469 513.351562 389.472656 511.789062 389.675781 C 510.007812 389.90625 508.554688 389.628906 507.429688 388.847656 C 506.320312 388.085938 505.65625 386.875 505.445312 385.222656 C 505.226562 383.554688 505.570312 382.207031 506.472656 381.171875 C 507.375 380.148438 508.773438 379.515625 510.671875 379.269531 C 512.21875 379.066406 513.480469 379.21875 514.449219 379.714844 C 515.433594 380.222656 516.039062 381.027344 516.261719 382.125 L 513.816406 382.441406 C 513.640625 381.902344 513.300781 381.511719 512.800781 381.269531 C 512.289062 381.039062 511.65625 380.976562 510.902344 381.074219 C 509.816406 381.214844 509.019531 381.613281 508.519531 382.265625 C 508.015625 382.917969 507.835938 383.792969 507.976562 384.894531 C 508.113281 385.945312 508.503906 386.738281 509.148438 387.265625 C 509.800781 387.769531 510.648438 387.953125 511.6875 387.816406 C 512.453125 387.71875 513.050781 387.480469 513.484375 387.109375 C 513.917969 386.734375 514.179688 386.242188 514.265625 385.632812 Z M 516.691406 385.316406 "/>
<path style=" stroke:none;fill-rule:evenodd;fill:rgb(78.398132%,64.299011%,0%);fill-opacity:1;" d="M 520.421875 387.9375 L 517.675781 378.402344 L 526.199219 375.949219 L 526.671875 377.59375 L 520.535156 379.363281 L 521.121094 381.398438 L 526.738281 379.78125 L 527.207031 381.410156 L 521.59375 383.027344 L 522.300781 385.484375 L 528.71875 383.632812 L 529.230469 385.398438 Z M 520.421875 387.9375 "/>
<path style=" stroke:none;fill-rule:evenodd;fill:rgb(78.398132%,64.299011%,0%);fill-opacity:1;" d="M 532.601562 384.183594 L 528.492188 375.15625 L 530.894531 374.058594 L 538.222656 378.199219 L 535.398438 372.003906 L 537.660156 370.976562 L 541.773438 380.003906 L 539.417969 381.078125 L 532.035156 376.941406 L 534.863281 383.152344 Z M 532.601562 384.183594 "/>
<path style=" stroke:none;fill-rule:evenodd;fill:rgb(78.398132%,64.299011%,0%);fill-opacity:1;" d="M 547.636719 376.496094 L 543.226562 369.636719 L 540.179688 371.59375 L 539.222656 370.109375 L 547.417969 364.835938 L 548.375 366.324219 L 545.34375 368.273438 L 549.753906 375.132812 Z M 547.636719 376.496094 "/>
<path style=" stroke:none;fill-rule:evenodd;fill:rgb(78.398132%,64.299011%,0%);fill-opacity:1;" d="M 555.371094 371.253906 L 548.855469 363.773438 L 553.3125 359.890625 C 554.324219 359.007812 555.222656 358.53125 556.015625 358.464844 C 556.804688 358.394531 557.507812 358.714844 558.128906 359.425781 C 558.527344 359.882812 558.738281 360.367188 558.761719 360.871094 C 558.785156 361.378906 558.628906 361.882812 558.296875 362.390625 C 558.785156 362.152344 559.226562 362.078125 559.617188 362.171875 C 560.003906 362.28125 560.421875 362.566406 560.871094 363.027344 L 561.679688 363.875 L 561.703125 363.902344 C 562.085938 364.339844 562.4375 364.507812 562.761719 364.394531 L 562.96875 364.632812 L 560.882812 366.449219 C 560.71875 366.40625 560.554688 366.320312 560.378906 366.191406 C 560.300781 366.136719 560.21875 366.066406 560.128906 365.980469 C 560.039062 365.898438 559.945312 365.804688 559.84375 365.707031 L 559.140625 364.929688 C 558.707031 364.484375 558.328125 364.269531 557.996094 364.28125 C 557.65625 364.28125 557.234375 364.5 556.734375 364.9375 L 554.714844 366.695312 L 557.253906 369.609375 Z M 553.589844 365.402344 L 555.820312 363.460938 C 556.300781 363.039062 556.589844 362.648438 556.679688 362.292969 C 556.773438 361.933594 556.667969 361.582031 556.367188 361.242188 C 556.078125 360.90625 555.753906 360.753906 555.394531 360.789062 C 555.03125 360.8125 554.628906 361.015625 554.1875 361.402344 L 551.867188 363.421875 Z M 553.589844 365.402344 "/>
<path style=" stroke:none;fill-rule:evenodd;fill:rgb(78.398132%,64.299011%,0%);fill-opacity:1;" d="M 560.367188 352.75 L 562.234375 350.523438 L 572.667969 353.511719 L 570.972656 355.539062 L 568.875 354.855469 L 565.832031 358.492188 L 566.882812 360.421875 L 565.175781 362.460938 Z M 562.828125 352.894531 L 564.984375 356.914062 L 567.164062 354.308594 Z M 562.828125 352.894531 "/>
<path style=" stroke:none;fill-rule:evenodd;fill:rgb(78.398132%,64.299011%,0%);fill-opacity:1;" d="M 574.445312 350.808594 L 565.996094 345.609375 L 567.320312 343.460938 L 574.199219 347.699219 L 577.328125 342.621094 L 578.894531 343.585938 Z M 574.445312 350.808594 "/>
<path style=" stroke:none;fill-rule:evenodd;fill:rgb(78.398132%,64.299011%,0%);fill-opacity:1;" d="M 420.828125 312.355469 L 410.953125 313.28125 L 410.402344 307.390625 C 410.277344 306.058594 410.417969 305.046875 410.824219 304.367188 C 411.226562 303.683594 411.898438 303.296875 412.839844 303.210938 C 413.445312 303.152344 413.960938 303.265625 414.382812 303.539062 C 414.808594 303.816406 415.128906 304.238281 415.34375 304.804688 C 415.433594 304.269531 415.632812 303.867188 415.933594 303.605469 C 416.25 303.355469 416.726562 303.179688 417.363281 303.085938 L 418.523438 302.921875 L 418.558594 302.921875 C 419.140625 302.867188 419.480469 302.675781 419.578125 302.351562 L 419.890625 302.320312 L 420.148438 305.074219 C 420.019531 305.179688 419.851562 305.265625 419.644531 305.332031 C 419.554688 305.363281 419.449219 305.390625 419.328125 305.414062 C 419.207031 305.4375 419.078125 305.460938 418.941406 305.488281 L 417.898438 305.601562 C 417.285156 305.695312 416.886719 305.878906 416.699219 306.152344 C 416.503906 306.429688 416.4375 306.898438 416.5 307.558594 L 416.746094 310.226562 L 420.597656 309.867188 Z M 415.039062 310.386719 L 414.765625 307.441406 C 414.703125 306.800781 414.558594 306.339844 414.320312 306.058594 C 414.082031 305.777344 413.738281 305.65625 413.285156 305.699219 C 412.84375 305.742188 412.53125 305.914062 412.351562 306.226562 C 412.15625 306.535156 412.085938 306.984375 412.140625 307.5625 L 412.429688 310.628906 Z M 415.039062 310.386719 "/>
<path style=" stroke:none;fill-rule:evenodd;fill:rgb(78.398132%,64.299011%,0%);fill-opacity:1;" d="M 419.894531 298.808594 L 410 298.101562 L 410.632812 289.25 L 412.34375 289.375 L 411.886719 295.746094 L 414 295.894531 L 414.414062 290.066406 L 416.109375 290.1875 L 415.691406 296.015625 L 418.238281 296.199219 L 418.714844 289.53125 L 420.546875 289.664062 Z M 419.894531 298.808594 "/>
<path style=" stroke:none;fill-rule:evenodd;fill:rgb(78.398132%,64.299011%,0%);fill-opacity:1;" d="M 418.238281 282.847656 L 421.679688 283.652344 L 421.101562 286.105469 L 411.445312 283.84375 L 412.6875 278.542969 C 412.980469 277.285156 413.464844 276.398438 414.136719 275.882812 C 414.820312 275.359375 415.667969 275.21875 416.679688 275.453125 C 417.679688 275.6875 418.378906 276.1875 418.773438 276.949219 C 419.15625 277.710938 419.214844 278.671875 418.941406 279.828125 Z M 416.488281 282.417969 L 417.042969 280.050781 C 417.191406 279.402344 417.195312 278.910156 417.042969 278.578125 C 416.886719 278.230469 416.5625 277.996094 416.074219 277.882812 C 415.632812 277.777344 415.253906 277.839844 414.9375 278.066406 C 414.628906 278.304688 414.410156 278.703125 414.28125 279.257812 L 413.691406 281.765625 Z M 416.488281 282.417969 "/>
<path style=" stroke:none;fill-rule:evenodd;fill:rgb(78.398132%,64.299011%,0%);fill-opacity:1;" d="M 414.59375 262.480469 L 415.929688 265.828125 L 415.484375 266.914062 L 413.785156 264.457031 Z M 414.882812 270.542969 L 415.847656 268.195312 L 421.609375 270.558594 C 422.320312 270.851562 422.910156 270.882812 423.382812 270.660156 C 423.84375 270.457031 424.230469 269.972656 424.542969 269.207031 C 424.859375 268.441406 424.925781 267.8125 424.75 267.324219 C 424.566406 266.847656 424.117188 266.460938 423.40625 266.171875 L 417.644531 263.808594 L 418.597656 261.476562 L 424.574219 263.925781 C 425.707031 264.390625 426.410156 265.132812 426.6875 266.152344 C 426.96875 267.1875 426.8125 268.429688 426.21875 269.875 C 425.621094 271.332031 424.855469 272.335938 423.925781 272.886719 C 423.015625 273.421875 421.992188 273.457031 420.859375 272.992188 Z M 414.882812 270.542969 "/>
<path style=" stroke:none;fill-rule:evenodd;fill:rgb(78.398132%,64.299011%,0%);fill-opacity:1;" d="M 429.371094 262.183594 L 420.933594 256.96875 L 423.96875 252.054688 C 424.625 250.996094 425.308594 250.296875 426.015625 249.96875 C 426.71875 249.636719 427.421875 249.683594 428.125 250.121094 C 428.550781 250.382812 428.839844 250.707031 428.988281 251.085938 C 429.15625 251.480469 429.191406 251.925781 429.089844 252.421875 C 429.597656 251.996094 430.097656 251.753906 430.59375 251.6875 C 431.089844 251.636719 431.582031 251.761719 432.066406 252.0625 C 432.890625 252.570312 433.324219 253.292969 433.363281 254.222656 C 433.40625 255.152344 433.050781 256.226562 432.304688 257.433594 Z M 425.460938 256.929688 L 426.96875 254.488281 C 427.289062 253.972656 427.453125 253.539062 427.464844 253.1875 C 427.480469 252.871094 427.328125 252.609375 427 252.40625 C 426.691406 252.21875 426.398438 252.191406 426.121094 252.335938 C 425.824219 252.480469 425.503906 252.832031 425.160156 253.386719 L 423.660156 255.8125 Z M 429.105469 259.179688 L 430.671875 256.652344 C 431.050781 256.035156 431.238281 255.546875 431.226562 255.183594 C 431.214844 254.808594 431.019531 254.5 430.640625 254.269531 C 430.246094 254.023438 429.878906 253.980469 429.546875 254.144531 C 429.203125 254.304688 428.839844 254.691406 428.460938 255.304688 L 426.90625 257.820312 Z M 429.105469 259.179688 "/>
<path style=" stroke:none;fill-rule:evenodd;fill:rgb(78.398132%,64.299011%,0%);fill-opacity:1;" d="M 436.765625 250.902344 L 429.238281 244.441406 L 430.875 242.53125 L 437.011719 247.792969 L 440.894531 243.265625 L 442.289062 244.460938 Z M 436.765625 250.902344 "/>
<path style=" stroke:none;fill-rule:evenodd;fill:rgb(78.398132%,64.299011%,0%);fill-opacity:1;" d="M 444.488281 242.425781 L 437.714844 235.179688 L 439.554688 233.457031 L 446.328125 240.703125 Z M 444.488281 242.425781 "/>
<path style=" stroke:none;fill-rule:evenodd;fill:rgb(78.398132%,64.299011%,0%);fill-opacity:1;" d="M 455.886719 229.007812 C 456.464844 229.96875 456.558594 231.007812 456.167969 232.125 C 455.761719 233.238281 454.917969 234.253906 453.640625 235.171875 C 452.183594 236.222656 450.773438 236.667969 449.410156 236.511719 C 448.074219 236.371094 446.917969 235.621094 445.941406 234.265625 C 444.960938 232.902344 444.621094 231.550781 444.921875 230.214844 C 445.230469 228.886719 446.164062 227.664062 447.714844 226.546875 C 448.984375 225.632812 450.164062 225.164062 451.253906 225.140625 C 452.359375 225.121094 453.273438 225.542969 453.992188 226.40625 L 451.992188 227.84375 C 451.578125 227.453125 451.09375 227.269531 450.539062 227.292969 C 449.980469 227.335938 449.394531 227.578125 448.777344 228.023438 C 447.886719 228.664062 447.378906 229.390625 447.246094 230.203125 C 447.109375 231.019531 447.367188 231.875 448.015625 232.777344 C 448.636719 233.636719 449.355469 234.144531 450.171875 234.304688 C 450.984375 234.4375 451.820312 234.199219 452.671875 233.585938 C 453.296875 233.136719 453.710938 232.640625 453.914062 232.105469 C 454.121094 231.574219 454.113281 231.015625 453.898438 230.4375 Z M 455.886719 229.007812 "/>
<path style=" stroke:none;fill-rule:evenodd;fill:rgb(78.398132%,64.299011%,0%);fill-opacity:1;" d="M 460.140625 219.402344 L 462.765625 218.160156 L 470.996094 225.238281 L 468.605469 226.371094 L 466.988281 224.871094 L 462.703125 226.902344 L 462.851562 229.097656 L 460.449219 230.234375 Z M 462.3125 220.5625 L 462.59375 225.113281 L 465.660156 223.660156 Z M 462.3125 220.5625 "/>
<path style=" stroke:none;fill-rule:evenodd;fill:rgb(78.398132%,64.299011%,0%);fill-opacity:1;" d="M 484.621094 221.367188 L 483.335938 211.53125 L 488.089844 210.910156 C 489.953125 210.667969 491.394531 210.890625 492.410156 211.578125 C 493.433594 212.28125 494.050781 213.460938 494.269531 215.113281 C 494.382812 216.003906 494.3125 216.820312 494.058594 217.558594 C 493.8125 218.285156 493.398438 218.898438 492.816406 219.398438 C 492.371094 219.773438 491.851562 220.070312 491.257812 220.289062 C 490.648438 220.507812 489.796875 220.691406 488.699219 220.835938 Z M 486.835938 219.261719 L 488.828125 219 C 489.988281 218.847656 490.792969 218.496094 491.25 217.945312 C 491.707031 217.390625 491.863281 216.558594 491.71875 215.445312 C 491.574219 214.347656 491.226562 213.570312 490.671875 213.113281 C 490.121094 212.667969 489.335938 212.511719 488.316406 212.644531 L 486.011719 212.945312 Z M 486.835938 219.261719 "/>
<path style=" stroke:none;fill-rule:evenodd;fill:rgb(78.398132%,64.299011%,0%);fill-opacity:1;" d="M 498.378906 219.914062 L 498.734375 210 L 507.597656 210.316406 L 507.539062 212.03125 L 501.15625 211.800781 L 501.082031 213.917969 L 506.921875 214.125 L 506.859375 215.824219 L 501.019531 215.613281 L 500.929688 218.167969 L 507.609375 218.40625 L 507.542969 220.242188 Z M 498.378906 219.914062 "/>
<path style=" stroke:none;fill-rule:evenodd;fill:rgb(78.398132%,64.299011%,0%);fill-opacity:1;" d="M 521.792969 222.882812 L 525.09375 213.527344 L 527.582031 214.40625 L 529.988281 222.472656 L 532.25 216.050781 L 534.59375 216.878906 L 531.292969 226.234375 L 528.851562 225.371094 L 526.402344 217.273438 L 524.136719 223.707031 Z M 521.792969 222.882812 "/>
<path style=" stroke:none;fill-rule:evenodd;fill:rgb(78.398132%,64.299011%,0%);fill-opacity:1;" d="M 534.535156 227.863281 L 538.96875 218.988281 L 541.222656 220.113281 L 536.789062 228.988281 Z M 534.535156 227.863281 "/>
<path style=" stroke:none;fill-rule:evenodd;fill:rgb(78.398132%,64.299011%,0%);fill-opacity:1;" d="M 551.082031 233.875 C 550.382812 234.75 549.441406 235.203125 548.257812 235.222656 C 547.074219 235.230469 545.832031 234.796875 544.523438 233.917969 C 543.03125 232.917969 542.121094 231.753906 541.789062 230.421875 C 541.457031 229.117188 541.753906 227.773438 542.683594 226.386719 C 543.621094 224.992188 544.765625 224.203125 546.125 224.015625 C 547.476562 223.84375 548.949219 224.289062 550.539062 225.355469 C 551.835938 226.226562 552.683594 227.167969 553.085938 228.179688 C 553.492188 229.210938 553.417969 230.214844 552.859375 231.191406 L 550.8125 229.816406 C 551.035156 229.292969 551.039062 228.773438 550.820312 228.261719 C 550.585938 227.753906 550.152344 227.289062 549.523438 226.867188 C 548.613281 226.253906 547.753906 226.03125 546.945312 226.191406 C 546.136719 226.347656 545.421875 226.890625 544.804688 227.808594 C 544.214844 228.691406 543.988281 229.542969 544.125 230.367188 C 544.285156 231.175781 544.800781 231.871094 545.671875 232.457031 C 546.308594 232.882812 546.917969 233.101562 547.488281 233.105469 C 548.0625 233.113281 548.582031 232.914062 549.046875 232.507812 Z M 551.082031 233.875 "/>
<path style=" stroke:none;fill-rule:evenodd;fill:rgb(78.398132%,64.299011%,0%);fill-opacity:1;" d="M 561.558594 234.484375 L 563.640625 236.507812 L 559.902344 246.699219 L 558.007812 244.859375 L 558.839844 242.820312 L 555.4375 239.515625 L 553.433594 240.425781 L 551.527344 238.574219 Z M 561.238281 236.929688 L 557.070312 238.785156 L 559.507812 241.148438 Z M 561.238281 236.929688 "/>
<path style=" stroke:none;fill-rule:evenodd;fill:rgb(78.398132%,64.299011%,0%);fill-opacity:1;" d="M 561.972656 249.207031 L 570.015625 243.398438 L 573.476562 248.195312 C 574.261719 249.28125 574.652344 250.222656 574.652344 251.015625 C 574.648438 251.808594 574.265625 252.480469 573.5 253.035156 C 573.007812 253.390625 572.507812 253.554688 572 253.53125 C 571.496094 253.511719 571.003906 253.308594 570.53125 252.933594 C 570.726562 253.441406 570.757812 253.882812 570.628906 254.265625 C 570.488281 254.640625 570.164062 255.03125 569.664062 255.4375 L 568.746094 256.164062 L 568.71875 256.1875 C 568.242188 256.527344 568.046875 256.863281 568.128906 257.195312 L 567.871094 257.378906 L 566.253906 255.136719 C 566.3125 254.980469 566.414062 254.820312 566.558594 254.660156 C 566.621094 254.585938 566.695312 254.507812 566.789062 254.429688 C 566.882812 254.347656 566.980469 254.261719 567.085938 254.167969 L 567.929688 253.539062 C 568.410156 253.148438 568.660156 252.789062 568.679688 252.457031 C 568.707031 252.121094 568.527344 251.683594 568.140625 251.144531 L 566.574219 248.972656 L 563.4375 251.234375 Z M 567.960938 247.96875 L 569.695312 250.367188 C 570.070312 250.886719 570.429688 251.207031 570.777344 251.328125 C 571.125 251.453125 571.484375 251.382812 571.851562 251.113281 C 572.210938 250.855469 572.390625 250.546875 572.390625 250.1875 C 572.402344 249.820312 572.234375 249.402344 571.894531 248.929688 L 570.089844 246.433594 Z M 567.960938 247.96875 "/>
<path style=" stroke:none;fill-rule:evenodd;fill:rgb(78.398132%,64.299011%,0%);fill-opacity:1;" d="M 580.351562 259.644531 L 581.609375 262.261719 L 574.585938 270.539062 L 573.441406 268.160156 L 574.929688 266.527344 L 572.871094 262.257812 L 570.679688 262.421875 L 569.523438 260.023438 Z M 579.207031 261.828125 L 574.65625 262.136719 L 576.128906 265.191406 Z M 579.207031 261.828125 "/>
<path style=" stroke:none;fill-rule:evenodd;fill:rgb(78.398132%,64.299011%,0%);fill-opacity:1;" d="M 579.222656 282.105469 C 578.632812 281.792969 578.140625 281.390625 577.753906 280.890625 C 577.371094 280.378906 577.082031 279.757812 576.882812 279.027344 C 576.433594 277.382812 576.535156 275.914062 577.1875 274.625 C 577.835938 273.363281 578.917969 272.523438 580.4375 272.109375 C 581.957031 271.695312 583.308594 271.871094 584.496094 272.632812 C 585.699219 273.40625 586.53125 274.644531 586.992188 276.34375 C 587.394531 277.816406 587.4375 279.101562 587.117188 280.191406 C 586.804688 281.265625 586.164062 282.039062 585.191406 282.511719 L 584.515625 280.027344 C 584.972656 279.746094 585.269531 279.339844 585.414062 278.804688 C 585.546875 278.273438 585.515625 277.632812 585.3125 276.894531 C 585.046875 275.925781 584.542969 275.226562 583.800781 274.800781 C 583.050781 274.402344 582.164062 274.339844 581.140625 274.621094 C 580.09375 274.90625 579.355469 275.417969 578.929688 276.164062 C 578.503906 276.910156 578.433594 277.796875 578.714844 278.835938 C 578.925781 279.609375 579.28125 280.203125 579.78125 280.613281 C 580.292969 281.027344 580.886719 281.210938 581.558594 281.160156 L 580.828125 278.476562 L 582.46875 278.03125 L 583.800781 282.925781 L 578.617188 284.335938 L 578.171875 282.699219 Z M 579.222656 282.105469 "/>
<path style=" stroke:none;fill-rule:evenodd;fill:rgb(78.398132%,64.299011%,0%);fill-opacity:1;" d="M 589.089844 286.839844 L 589.324219 289.367188 L 583.121094 289.945312 C 582.355469 290.019531 581.816406 290.261719 581.503906 290.675781 C 581.191406 291.070312 581.070312 291.679688 581.148438 292.503906 C 581.226562 293.328125 581.457031 293.914062 581.839844 294.265625 C 582.222656 294.605469 582.796875 294.738281 583.5625 294.667969 L 589.765625 294.085938 L 590 296.597656 L 583.570312 297.195312 C 582.351562 297.3125 581.386719 296.980469 580.667969 296.203125 C 579.9375 295.417969 579.5 294.246094 579.355469 292.6875 C 579.210938 291.121094 579.421875 289.875 579.988281 288.957031 C 580.550781 288.058594 581.441406 287.554688 582.660156 287.441406 Z M 589.089844 286.839844 "/>
<path style=" stroke:none;fill-rule:evenodd;fill:rgb(78.398132%,64.299011%,0%);fill-opacity:1;" d="M 589.730469 305.859375 L 589.496094 308.753906 L 579.253906 312.347656 L 579.46875 309.714844 L 581.574219 309.058594 L 581.957031 304.332031 L 579.980469 303.367188 L 580.195312 300.714844 Z M 587.640625 307.164062 L 583.558594 305.132812 L 583.285156 308.515625 Z M 587.640625 307.164062 "/>
<path style=" stroke:none;fill-rule:evenodd;fill:rgb(78.398132%,64.299011%,0%);fill-opacity:1;" d="M 418.144531 326.480469 L 419.855469 325.882812 L 421.359375 330.210938 L 419.648438 330.808594 Z M 418.144531 326.480469 "/>
<path style=" stroke:none;fill-rule:evenodd;fill:rgb(78.398132%,64.299011%,0%);fill-opacity:1;" d="M 581.855469 326.480469 L 580.144531 325.882812 L 578.640625 330.210938 L 580.351562 330.808594 Z M 581.855469 326.480469 "/>
<path style=" stroke:none;fill-rule:evenodd;fill:rgb(99.998474%,99.998474%,99.998474%);fill-opacity:1;" d="M 499.964844 226.40625 L 468.488281 280.941406 L 453.066406 307.644531 L 546.863281 307.644531 L 532.148438 282.160156 Z M 499.964844 226.40625 "/>
<path style=" stroke:none;fill-rule:evenodd;fill:rgb(42.698669%,85.098267%,95.698547%);fill-opacity:1;" d="M 499.960938 283.28125 L 495.199219 234.695312 L 491.984375 240.265625 Z M 499.960938 283.28125 L 490.246094 243.277344 L 487.898438 247.339844 Z M 499.960938 283.28125 L 486.574219 249.636719 L 484.722656 252.847656 Z M 499.960938 283.28125 L 483.640625 254.71875 L 482.085938 257.410156 Z M 499.960938 283.28125 L 481.15625 259.023438 L 479.78125 261.398438 Z M 499.960938 283.28125 L 478.941406 262.855469 L 477.675781 265.050781 Z M 499.960938 283.28125 L 476.882812 266.425781 L 475.664062 268.535156 Z M 499.960938 283.28125 L 474.886719 269.882812 L 473.667969 271.992188 Z M 499.960938 283.28125 L 472.871094 273.367188 L 471.601562 275.570312 Z M 499.960938 283.28125 L 470.757812 277.03125 L 469.382812 279.414062 Z M 499.960938 283.28125 L 468.449219 281.035156 L 466.886719 283.742188 Z M 499.960938 283.28125 L 465.792969 285.628906 L 463.933594 288.851562 Z M 499.960938 283.28125 L 462.597656 291.167969 L 460.234375 295.261719 Z M 499.960938 283.28125 L 458.480469 298.300781 L 455.238281 303.910156 Z M 499.960938 283.28125 L 452.722656 308.277344 L 451.160156 310.976562 L 452.710938 313.667969 Z M 499.960938 283.28125 L 454.421875 316.199219 L 457.351562 319.949219 Z M 499.960938 283.28125 L 459.394531 322.21875 L 462.820312 325.519531 Z M 499.960938 283.28125 L 465.15625 327.488281 L 469.011719 330.289062 Z M 499.960938 283.28125 L 471.597656 331.90625 L 475.808594 334.140625 Z M 499.960938 283.28125 L 478.597656 335.382812 L 482.113281 336.667969 L 483.175781 336.667969 Z M 499.960938 283.28125 L 486.308594 336.664062 L 491.03125 336.664062 Z M 499.960938 283.28125 L 493.980469 336.664062 L 498.515625 336.664062 Z M 499.960938 283.28125 L 501.40625 336.664062 L 505.945312 336.664062 Z M 499.960938 283.28125 L 508.902344 336.664062 L 513.617188 336.664062 Z M 499.960938 283.28125 L 516.75 336.667969 L 517.8125 336.667969 L 521.328125 335.382812 Z M 499.960938 283.28125 L 524.125 334.140625 L 528.328125 331.90625 Z M 499.960938 283.28125 L 530.914062 330.285156 L 534.765625 327.488281 Z M 499.960938 283.28125 L 537.109375 325.519531 L 540.53125 322.21875 Z M 499.960938 283.28125 L 542.578125 319.949219 L 545.503906 316.199219 Z M 499.960938 283.28125 L 547.210938 313.667969 L 548.765625 310.972656 L 547.210938 308.28125 Z M 499.960938 283.28125 L 544.691406 303.914062 L 541.453125 298.308594 Z M 499.960938 283.28125 L 539.699219 295.261719 L 537.332031 291.167969 Z M 499.960938 283.28125 L 535.996094 288.855469 L 534.136719 285.628906 Z M 499.960938 283.28125 L 533.046875 283.742188 L 531.484375 281.035156 Z M 499.960938 283.28125 L 530.546875 279.414062 L 529.171875 277.03125 Z M 499.960938 283.28125 L 528.324219 275.566406 L 527.058594 273.367188 Z M 499.960938 283.28125 L 526.261719 271.992188 L 525.042969 269.878906 Z M 499.960938 283.28125 L 524.265625 268.53125 L 523.046875 266.421875 Z M 499.960938 283.28125 L 522.253906 265.046875 L 520.988281 262.855469 Z M 499.960938 283.28125 L 520.144531 261.394531 L 518.773438 259.019531 Z M 499.960938 283.28125 L 517.839844 257.402344 L 516.289062 254.714844 Z M 499.960938 283.28125 L 515.207031 252.839844 L 513.355469 249.632812 Z M 499.960938 283.28125 L 512.027344 247.335938 L 509.679688 243.265625 Z M 499.960938 283.28125 L 507.9375 240.253906 L 504.726562 234.691406 Z M 499.238281 227.703125 L 497.695312 230.367188 L 499.960938 283.28125 L 502.226562 230.359375 L 500.691406 227.703125 Z M 499.238281 227.703125 "/>
<path style="fill:none;stroke-width:1.04;stroke-linecap:square;stroke-linejoin:miter;stroke:rgb(42.698669%,85.098267%,95.698547%);stroke-opacity:1;stroke-miterlimit:4;" d="M 499.960938 283.28125 L 495.199219 234.695312 L 491.984375 240.265625 Z M 499.960938 283.28125 "/>
<path style="fill:none;stroke-width:1.04;stroke-linecap:square;stroke-linejoin:miter;stroke:rgb(42.698669%,85.098267%,95.698547%);stroke-opacity:1;stroke-miterlimit:4;" d="M 499.960938 283.28125 L 490.246094 243.277344 L 487.898438 247.339844 Z M 499.960938 283.28125 "/>
<path style="fill:none;stroke-width:1.04;stroke-linecap:square;stroke-linejoin:miter;stroke:rgb(42.698669%,85.098267%,95.698547%);stroke-opacity:1;stroke-miterlimit:4;" d="M 499.960938 283.28125 L 486.574219 249.636719 L 484.722656 252.847656 Z M 499.960938 283.28125 "/>
<path style="fill:none;stroke-width:1.04;stroke-linecap:square;stroke-linejoin:miter;stroke:rgb(42.698669%,85.098267%,95.698547%);stroke-opacity:1;stroke-miterlimit:4;" d="M 499.960938 283.28125 L 483.640625 254.71875 L 482.085938 257.410156 Z M 499.960938 283.28125 "/>
<path style="fill:none;stroke-width:1.04;stroke-linecap:square;stroke-linejoin:miter;stroke:rgb(42.698669%,85.098267%,95.698547%);stroke-opacity:1;stroke-miterlimit:4;" d="M 499.960938 283.28125 L 481.15625 259.023438 L 479.78125 261.398438 Z M 499.960938 283.28125 "/>
<path style="fill:none;stroke-width:1.04;stroke-linecap:square;stroke-linejoin:miter;stroke:rgb(42.698669%,85.098267%,95.698547%);stroke-opacity:1;stroke-miterlimit:4;" d="M 499.960938 283.28125 L 478.941406 262.855469 L 477.675781 265.050781 Z M 499.960938 283.28125 "/>
<path style="fill:none;stroke-width:1.04;stroke-linecap:square;stroke-linejoin:miter;stroke:rgb(42.698669%,85.098267%,95.698547%);stroke-opacity:1;stroke-miterlimit:4;" d="M 499.960938 283.28125 L 476.882812 266.425781 L 475.664062 268.535156 Z M 499.960938 283.28125 "/>
<path style="fill:none;stroke-width:1.04;stroke-linecap:square;stroke-linejoin:miter;stroke:rgb(42.698669%,85.098267%,95.698547%);stroke-opacity:1;stroke-miterlimit:4;" d="M 499.960938 283.28125 L 474.886719 269.882812 L 473.667969 271.992188 Z M 499.960938 283.28125 "/>
<path style="fill:none;stroke-width:1.04;stroke-linecap:square;stroke-linejoin:miter;stroke:rgb(42.698669%,85.098267%,95.698547%);stroke-opacity:1;stroke-miterlimit:4;" d="M 499.960938 283.28125 L 472.871094 273.367188 L 471.601562 275.570312 Z M 499.960938 283.28125 "/>
<path style="fill:none;stroke-width:1.04;stroke-linecap:square;stroke-linejoin:miter;stroke:rgb(42.698669%,85.098267%,95.698547%);stroke-opacity:1;stroke-miterlimit:4;" d="M 499.960938 283.28125 L 470.757812 277.03125 L 469.382812 279.414062 Z M 499.960938 283.28125 "/>
<path style="fill:none;stroke-width:1.04;stroke-linecap:square;stroke-linejoin:miter;stroke:rgb(42.698669%,85.098267%,95.698547%);stroke-opacity:1;stroke-miterlimit:4;" d="M 499.960938 283.28125 L 468.449219 281.035156 L 466.886719 283.742188 Z M 499.960938 283.28125 "/>
<path style="fill:none;stroke-width:1.04;stroke-linecap:square;stroke-linejoin:miter;stroke:rgb(42.698669%,85.098267%,95.698547%);stroke-opacity:1;stroke-miterlimit:4;" d="M 499.960938 283.28125 L 465.792969 285.628906 L 463.933594 288.851562 Z M 499.960938 283.28125 "/>
<path style="fill:none;stroke-width:1.04;stroke-linecap:square;stroke-linejoin:miter;stroke:rgb(42.698669%,85.098267%,95.698547%);stroke-opacity:1;stroke-miterlimit:4;" d="M 499.960938 283.28125 L 462.597656 291.167969 L 460.234375 295.261719 Z M 499.960938 283.28125 "/>
<path style="fill:none;stroke-width:1.04;stroke-linecap:square;stroke-linejoin:miter;stroke:rgb(42.698669%,85.098267%,95.698547%);stroke-opacity:1;stroke-miterlimit:4;" d="M 499.960938 283.28125 L 458.480469 298.300781 L 455.238281 303.910156 Z M 499.960938 283.28125 "/>
<path style="fill:none;stroke-width:1.04;stroke-linecap:square;stroke-linejoin:miter;stroke:rgb(42.698669%,85.098267%,95.698547%);stroke-opacity:1;stroke-miterlimit:4;" d="M 499.960938 283.28125 L 452.722656 308.277344 L 451.160156 310.976562 L 452.710938 313.667969 Z M 499.960938 283.28125 "/>
<path style="fill:none;stroke-width:1.04;stroke-linecap:square;stroke-linejoin:miter;stroke:rgb(42.698669%,85.098267%,95.698547%);stroke-opacity:1;stroke-miterlimit:4;" d="M 499.960938 283.28125 L 454.421875 316.199219 L 457.351562 319.949219 Z M 499.960938 283.28125 "/>
<path style="fill:none;stroke-width:1.04;stroke-linecap:square;stroke-linejoin:miter;stroke:rgb(42.698669%,85.098267%,95.698547%);stroke-opacity:1;stroke-miterlimit:4;" d="M 499.960938 283.28125 L 459.394531 322.21875 L 462.820312 325.519531 Z M 499.960938 283.28125 "/>
<path style="fill:none;stroke-width:1.04;stroke-linecap:square;stroke-linejoin:miter;stroke:rgb(42.698669%,85.098267%,95.698547%);stroke-opacity:1;stroke-miterlimit:4;" d="M 499.960938 283.28125 L 465.15625 327.488281 L 469.011719 330.289062 Z M 499.960938 283.28125 "/>
<path style="fill:none;stroke-width:1.04;stroke-linecap:square;stroke-linejoin:miter;stroke:rgb(42.698669%,85.098267%,95.698547%);stroke-opacity:1;stroke-miterlimit:4;" d="M 499.960938 283.28125 L 471.597656 331.90625 L 475.808594 334.140625 Z M 499.960938 283.28125 "/>
<path style="fill:none;stroke-width:1.04;stroke-linecap:square;stroke-linejoin:miter;stroke:rgb(42.698669%,85.098267%,95.698547%);stroke-opacity:1;stroke-miterlimit:4;" d="M 499.960938 283.28125 L 478.597656 335.382812 L 482.113281 336.667969 L 483.175781 336.667969 Z M 499.960938 283.28125 "/>
<path style="fill:none;stroke-width:1.04;stroke-linecap:square;stroke-linejoin:miter;stroke:rgb(42.698669%,85.098267%,95.698547%);stroke-opacity:1;stroke-miterlimit:4;" d="M 499.960938 283.28125 L 486.308594 336.664062 L 491.03125 336.664062 Z M 499.960938 283.28125 "/>
<path style="fill:none;stroke-width:1.04;stroke-linecap:square;stroke-linejoin:miter;stroke:rgb(42.698669%,85.098267%,95.698547%);stroke-opacity:1;stroke-miterlimit:4;" d="M 499.960938 283.28125 L 493.980469 336.664062 L 498.515625 336.664062 Z M 499.960938 283.28125 "/>
<path style="fill:none;stroke-width:1.04;stroke-linecap:square;stroke-linejoin:miter;stroke:rgb(42.698669%,85.098267%,95.698547%);stroke-opacity:1;stroke-miterlimit:4;" d="M 499.960938 283.28125 L 501.40625 336.664062 L 505.945312 336.664062 Z M 499.960938 283.28125 "/>
<path style="fill:none;stroke-width:1.04;stroke-linecap:square;stroke-linejoin:miter;stroke:rgb(42.698669%,85.098267%,95.698547%);stroke-opacity:1;stroke-miterlimit:4;" d="M 499.960938 283.28125 L 508.902344 336.664062 L 513.617188 336.664062 Z M 499.960938 283.28125 "/>
<path style="fill:none;stroke-width:1.04;stroke-linecap:square;stroke-linejoin:miter;stroke:rgb(42.698669%,85.098267%,95.698547%);stroke-opacity:1;stroke-miterlimit:4;" d="M 499.960938 283.28125 L 516.75 336.667969 L 517.8125 336.667969 L 521.328125 335.382812 Z M 499.960938 283.28125 "/>
<path style="fill:none;stroke-width:1.04;stroke-linecap:square;stroke-linejoin:miter;stroke:rgb(42.698669%,85.098267%,95.698547%);stroke-opacity:1;stroke-miterlimit:4;" d="M 499.960938 283.28125 L 524.125 334.140625 L 528.328125 331.90625 Z M 499.960938 283.28125 "/>
<path style="fill:none;stroke-width:1.04;stroke-linecap:square;stroke-linejoin:miter;stroke:rgb(42.698669%,85.098267%,95.698547%);stroke-opacity:1;stroke-miterlimit:4;" d="M 499.960938 283.28125 L 530.914062 330.285156 L 534.765625 327.488281 Z M 499.960938 283.28125 "/>
<path style="fill:none;stroke-width:1.04;stroke-linecap:square;stroke-linejoin:miter;stroke:rgb(42.698669%,85.098267%,95.698547%);stroke-opacity:1;stroke-miterlimit:4;" d="M 499.960938 283.28125 L 537.109375 325.519531 L 540.53125 322.21875 Z M 499.960938 283.28125 "/>
<path style="fill:none;stroke-width:1.04;stroke-linecap:square;stroke-linejoin:miter;stroke:rgb(42.698669%,85.098267%,95.698547%);stroke-opacity:1;stroke-miterlimit:4;" d="M 499.960938 283.28125 L 542.578125 319.949219 L 545.503906 316.199219 Z M 499.960938 283.28125 "/>
<path style="fill:none;stroke-width:1.04;stroke-linecap:square;stroke-linejoin:miter;stroke:rgb(42.698669%,85.098267%,95.698547%);stroke-opacity:1;stroke-miterlimit:4;" d="M 499.960938 283.28125 L 547.210938 313.667969 L 548.765625 310.972656 L 547.210938 308.28125 Z M 499.960938 283.28125 "/>
<path style="fill:none;stroke-width:1.04;stroke-linecap:square;stroke-linejoin:miter;stroke:rgb(42.698669%,85.098267%,95.698547%);stroke-opacity:1;stroke-miterlimit:4;" d="M 499.960938 283.28125 L 544.691406 303.914062 L 541.453125 298.308594 Z M 499.960938 283.28125 "/>
<path style="fill:none;stroke-width:1.04;stroke-linecap:square;stroke-linejoin:miter;stroke:rgb(42.698669%,85.098267%,95.698547%);stroke-opacity:1;stroke-miterlimit:4;" d="M 499.960938 283.28125 L 539.699219 295.261719 L 537.332031 291.167969 Z M 499.960938 283.28125 "/>
<path style="fill:none;stroke-width:1.04;stroke-linecap:square;stroke-linejoin:miter;stroke:rgb(42.698669%,85.098267%,95.698547%);stroke-opacity:1;stroke-miterlimit:4;" d="M 499.960938 283.28125 L 535.996094 288.855469 L 534.136719 285.628906 Z M 499.960938 283.28125 "/>
<path style="fill:none;stroke-width:1.04;stroke-linecap:square;stroke-linejoin:miter;stroke:rgb(42.698669%,85.098267%,95.698547%);stroke-opacity:1;stroke-miterlimit:4;" d="M 499.960938 283.28125 L 533.046875 283.742188 L 531.484375 281.035156 Z M 499.960938 283.28125 "/>
<path style="fill:none;stroke-width:1.04;stroke-linecap:square;stroke-linejoin:miter;stroke:rgb(42.698669%,85.098267%,95.698547%);stroke-opacity:1;stroke-miterlimit:4;" d="M 499.960938 283.28125 L 530.546875 279.414062 L 529.171875 277.03125 Z M 499.960938 283.28125 "/>
<path style="fill:none;stroke-width:1.04;stroke-linecap:square;stroke-linejoin:miter;stroke:rgb(42.698669%,85.098267%,95.698547%);stroke-opacity:1;stroke-miterlimit:4;" d="M 499.960938 283.28125 L 528.324219 275.566406 L 527.058594 273.367188 Z M 499.960938 283.28125 "/>
<path style="fill:none;stroke-width:1.04;stroke-linecap:square;stroke-linejoin:miter;stroke:rgb(42.698669%,85.098267%,95.698547%);stroke-opacity:1;stroke-miterlimit:4;" d="M 499.960938 283.28125 L 526.261719 271.992188 L 525.042969 269.878906 Z M 499.960938 283.28125 "/>
<path style="fill:none;stroke-width:1.04;stroke-linecap:square;stroke-linejoin:miter;stroke:rgb(42.698669%,85.098267%,95.698547%);stroke-opacity:1;stroke-miterlimit:4;" d="M 499.960938 283.28125 L 524.265625 268.53125 L 523.046875 266.421875 Z M 499.960938 283.28125 "/>
<path style="fill:none;stroke-width:1.04;stroke-linecap:square;stroke-linejoin:miter;stroke:rgb(42.698669%,85.098267%,95.698547%);stroke-opacity:1;stroke-miterlimit:4;" d="M 499.960938 283.28125 L 522.253906 265.046875 L 520.988281 262.855469 Z M 499.960938 283.28125 "/>
<path style="fill:none;stroke-width:1.04;stroke-linecap:square;stroke-linejoin:miter;stroke:rgb(42.698669%,85.098267%,95.698547%);stroke-opacity:1;stroke-miterlimit:4;" d="M 499.960938 283.28125 L 520.144531 261.394531 L 518.773438 259.019531 Z M 499.960938 283.28125 "/>
<path style="fill:none;stroke-width:1.04;stroke-linecap:square;stroke-linejoin:miter;stroke:rgb(42.698669%,85.098267%,95.698547%);stroke-opacity:1;stroke-miterlimit:4;" d="M 499.960938 283.28125 L 517.839844 257.402344 L 516.289062 254.714844 Z M 499.960938 283.28125 "/>
<path style="fill:none;stroke-width:1.04;stroke-linecap:square;stroke-linejoin:miter;stroke:rgb(42.698669%,85.098267%,95.698547%);stroke-opacity:1;stroke-miterlimit:4;" d="M 499.960938 283.28125 L 515.207031 252.839844 L 513.355469 249.632812 Z M 499.960938 283.28125 "/>
<path style="fill:none;stroke-width:1.04;stroke-linecap:square;stroke-linejoin:miter;stroke:rgb(42.698669%,85.098267%,95.698547%);stroke-opacity:1;stroke-miterlimit:4;" d="M 499.960938 283.28125 L 512.027344 247.335938 L 509.679688 243.265625 Z M 499.960938 283.28125 "/>
<path style="fill:none;stroke-width:1.04;stroke-linecap:square;stroke-linejoin:miter;stroke:rgb(42.698669%,85.098267%,95.698547%);stroke-opacity:1;stroke-miterlimit:4;" d="M 499.960938 283.28125 L 507.9375 240.253906 L 504.726562 234.691406 Z M 499.960938 283.28125 "/>
<path style="fill:none;stroke-width:1.04;stroke-linecap:square;stroke-linejoin:miter;stroke:rgb(42.698669%,85.098267%,95.698547%);stroke-opacity:1;stroke-miterlimit:4;" d="M 499.238281 227.703125 L 497.695312 230.367188 L 499.960938 283.28125 L 502.226562 230.359375 L 500.691406 227.703125 Z M 499.238281 227.703125 "/>
<path style=" stroke:none;fill-rule:evenodd;fill:rgb(99.998474%,99.998474%,99.998474%);fill-opacity:1;" d="M 501.335938 289.796875 L 501.960938 293.539062 C 502.066406 293.515625 502.171875 293.5 502.277344 293.472656 Z M 498.597656 289.796875 L 497.65625 293.472656 C 497.761719 293.5 497.867188 293.515625 497.972656 293.539062 Z M 500.414062 289.761719 L 500.519531 293.726562 C 500.628906 293.722656 500.746094 293.707031 500.855469 293.699219 Z M 499.519531 289.761719 L 499.078125 293.695312 C 499.1875 293.707031 499.304688 293.722656 499.414062 293.726562 Z M 502.183594 289.414062 L 503.359375 293.15625 C 503.464844 293.121094 503.574219 293.089844 503.675781 293.050781 Z M 497.75 289.414062 L 496.257812 293.050781 C 496.359375 293.089844 496.46875 293.121094 496.574219 293.15625 Z M 503.074219 289.171875 L 504.683594 292.5625 C 504.777344 292.515625 504.871094 292.464844 504.960938 292.414062 Z M 496.871094 289.136719 L 494.960938 292.414062 C 495.054688 292.464844 495.144531 292.523438 495.238281 292.574219 Z M 503.890625 288.722656 L 505.914062 291.800781 C 506 291.738281 506.078125 291.679688 506.160156 291.621094 Z M 496.097656 288.652344 L 493.765625 291.609375 C 493.851562 291.675781 493.933594 291.746094 494.019531 291.808594 Z M 504.472656 287.992188 L 507.007812 290.875 C 507.085938 290.800781 507.164062 290.722656 507.238281 290.644531 Z M 495.449219 287.992188 L 492.691406 290.644531 C 492.765625 290.722656 492.839844 290.800781 492.917969 290.875 Z M 494.867188 287.304688 L 491.769531 289.542969 C 491.835938 289.628906 491.894531 289.71875 491.960938 289.804688 Z M 505.023438 287.28125 L 507.960938 289.804688 C 508.03125 289.71875 508.097656 289.628906 508.164062 289.542969 Z M 505.605469 286.582031 L 508.753906 288.597656 C 508.804688 288.507812 508.855469 288.414062 508.90625 288.320312 Z M 494.410156 286.53125 L 491.019531 288.320312 C 491.070312 288.417969 491.125 288.511719 491.175781 288.609375 Z M 506.09375 285.796875 L 509.371094 287.3125 C 509.40625 287.21875 509.441406 287.125 509.476562 287.027344 Z M 493.839844 285.796875 L 490.457031 287.027344 C 490.492188 287.125 490.527344 287.21875 490.5625 287.3125 Z M 506.339844 284.917969 L 509.785156 285.957031 C 509.808594 285.855469 509.828125 285.753906 509.847656 285.652344 Z M 493.667969 284.898438 L 490.074219 285.652344 C 490.097656 285.757812 490.113281 285.863281 490.136719 285.96875 Z M 506.488281 284.007812 L 510.015625 284.558594 C 510.027344 284.457031 510.035156 284.351562 510.039062 284.25 Z M 493.445312 284.007812 L 489.894531 284.25 C 489.898438 284.351562 489.90625 284.457031 489.917969 284.558594 Z M 510.039062 282.839844 L 506.382812 283.105469 L 510.050781 283.160156 C 510.042969 283.050781 510.046875 282.945312 510.039062 282.839844 Z M 489.894531 282.839844 C 489.886719 282.945312 489.890625 283.050781 489.882812 283.160156 L 493.550781 283.105469 Z M 509.828125 281.472656 L 506.464844 282.183594 L 509.878906 281.757812 C 509.859375 281.664062 509.847656 281.566406 509.828125 281.472656 Z M 490.105469 281.472656 C 490.085938 281.566406 490.058594 281.664062 490.042969 281.757812 L 493.445312 282.183594 Z M 509.421875 280.125 L 506.359375 281.25 L 509.519531 280.390625 C 509.488281 280.304688 509.457031 280.214844 509.421875 280.125 Z M 490.507812 280.125 C 490.476562 280.214844 490.445312 280.304688 490.414062 280.390625 L 493.574219 281.25 Z M 508.839844 278.84375 L 505.777344 280.488281 L 508.976562 279.109375 C 508.933594 279.019531 508.886719 278.929688 508.839844 278.84375 Z M 491.082031 278.84375 C 491.035156 278.929688 490.988281 279.019531 490.945312 279.109375 L 494.144531 280.488281 Z M 508.109375 277.6875 L 505.480469 279.605469 L 508.269531 277.921875 C 508.214844 277.84375 508.164062 277.765625 508.109375 277.6875 Z M 491.824219 277.675781 C 491.769531 277.753906 491.71875 277.832031 491.664062 277.910156 L 494.453125 279.597656 Z M 507.21875 276.636719 L 504.84375 278.9375 L 507.410156 276.839844 C 507.347656 276.773438 507.285156 276.703125 507.21875 276.636719 Z M 492.714844 276.617188 C 492.648438 276.6875 492.578125 276.757812 492.511719 276.828125 L 495.132812 278.972656 Z M 506.191406 275.707031 L 504.199219 278.28125 L 506.414062 275.886719 C 506.339844 275.824219 506.265625 275.761719 506.191406 275.707031 Z M 493.730469 275.707031 C 493.65625 275.761719 493.582031 275.828125 493.511719 275.886719 L 495.769531 278.335938 Z M 505.054688 274.929688 L 503.464844 277.71875 L 505.289062 275.082031 C 505.210938 275.03125 505.132812 274.980469 505.054688 274.929688 Z M 494.867188 274.929688 C 494.789062 274.976562 494.710938 275.023438 494.632812 275.070312 L 496.476562 277.742188 Z M 503.835938 274.328125 L 502.703125 277.167969 L 504.070312 274.433594 C 503.992188 274.398438 503.914062 274.359375 503.835938 274.328125 Z M 496.097656 274.328125 C 496.015625 274.363281 495.933594 274.398438 495.851562 274.433594 L 497.253906 277.242188 Z M 502.53125 273.890625 L 501.78125 277 L 502.796875 273.964844 C 502.710938 273.941406 502.621094 273.917969 502.53125 273.890625 Z M 497.402344 273.890625 C 497.3125 273.917969 497.222656 273.941406 497.136719 273.964844 L 498.152344 277 Z M 501.1875 273.628906 L 500.878906 276.820312 L 501.460938 273.660156 C 501.371094 273.644531 501.277344 273.640625 501.1875 273.628906 Z M 498.746094 273.628906 C 498.65625 273.640625 498.5625 273.644531 498.472656 273.660156 L 499.054688 276.820312 Z M 499.816406 273.542969 L 499.964844 276.851562 L 500.105469 273.542969 C 500.058594 273.542969 500.011719 273.542969 499.964844 273.542969 C 499.917969 273.542969 499.867188 273.542969 499.816406 273.542969 Z M 499.816406 273.542969 "/>
<path style=" stroke:none;fill-rule:evenodd;fill:rgb(99.998474%,0%,0%);fill-opacity:1;" d="M 499.964844 265.410156 C 489.15625 265.410156 479.246094 269.261719 471.542969 275.671875 L 456.144531 302.34375 C 455.730469 304.789062 455.511719 307.300781 455.511719 309.863281 C 455.511719 312.890625 455.816406 315.847656 456.394531 318.703125 L 462.628906 318.703125 C 461.960938 315.867188 461.605469 312.90625 461.605469 309.863281 C 461.605469 288.839844 478.511719 271.75 499.472656 271.484375 C 499.636719 271.480469 499.800781 271.484375 499.964844 271.484375 C 521.15625 271.484375 538.324219 288.675781 538.324219 309.863281 C 538.324219 312.90625 537.964844 315.867188 537.296875 318.703125 L 543.539062 318.703125 C 544.113281 315.847656 544.417969 312.890625 544.417969 309.863281 C 544.417969 307.304688 544.203125 304.796875 543.792969 302.355469 L 528.402344 275.699219 C 520.695312 269.273438 510.785156 265.410156 499.964844 265.410156 Z M 499.964844 265.410156 "/>
<path style=" stroke:none;fill-rule:evenodd;fill:rgb(99.998474%,39.99939%,0%);fill-opacity:1;" d="M 499.964844 266.269531 C 488.433594 266.269531 477.949219 270.761719 470.15625 278.078125 L 457.511719 299.976562 C 456.777344 303.152344 456.390625 306.464844 456.390625 309.863281 C 456.390625 312.894531 456.699219 315.847656 457.285156 318.703125 L 462.628906 318.703125 C 461.960938 315.867188 461.605469 312.90625 461.605469 309.863281 C 461.605469 288.839844 478.511719 271.75 499.472656 271.484375 C 499.636719 271.480469 499.800781 271.484375 499.964844 271.484375 C 521.15625 271.484375 538.324219 288.675781 538.324219 309.863281 C 538.324219 312.90625 537.964844 315.867188 537.296875 318.703125 L 542.636719 318.703125 C 543.226562 315.847656 543.539062 312.894531 543.539062 309.863281 C 543.539062 306.460938 543.148438 303.144531 542.410156 299.964844 L 529.796875 278.113281 C 522.003906 270.777344 511.511719 266.269531 499.964844 266.269531 Z M 499.964844 266.269531 "/>
<path style=" stroke:none;fill-rule:evenodd;fill:rgb(99.998474%,99.998474%,0%);fill-opacity:1;" d="M 499.414062 267.148438 C 487.160156 267.304688 476.144531 272.621094 468.449219 281.027344 L 459.210938 297.03125 C 457.9375 301.082031 457.25 305.394531 457.25 309.863281 C 457.25 312.894531 457.566406 315.851562 458.167969 318.703125 L 462.632812 318.703125 C 461.960938 315.867188 461.605469 312.90625 461.605469 309.863281 C 461.605469 288.839844 478.511719 271.75 499.472656 271.484375 C 499.636719 271.484375 499.800781 271.484375 499.964844 271.484375 C 521.15625 271.484375 538.324219 288.675781 538.324219 309.863281 C 538.324219 312.90625 537.964844 315.867188 537.296875 318.703125 L 541.757812 318.703125 C 542.359375 315.851562 542.679688 312.894531 542.679688 309.863281 C 542.679688 305.394531 541.992188 301.082031 540.71875 297.035156 L 531.484375 281.039062 C 523.675781 272.503906 512.445312 267.148438 499.964844 267.148438 C 499.78125 267.148438 499.597656 267.148438 499.414062 267.148438 Z M 499.414062 267.148438 "/>
<path style=" stroke:none;fill-rule:evenodd;fill:rgb(0%,99.998474%,0%);fill-opacity:1;" d="M 499.414062 268.011719 C 485.308594 268.1875 472.894531 275.351562 465.453125 286.195312 C 465.449219 286.199219 465.449219 286.203125 465.445312 286.207031 L 462.191406 291.847656 C 459.585938 297.304688 458.128906 303.414062 458.128906 309.863281 C 458.128906 312.898438 458.453125 315.855469 459.066406 318.703125 L 462.632812 318.703125 C 461.960938 315.867188 461.605469 312.90625 461.605469 309.863281 C 461.605469 288.839844 478.511719 271.75 499.472656 271.484375 C 499.636719 271.480469 499.800781 271.484375 499.964844 271.484375 C 521.15625 271.484375 538.324219 288.675781 538.324219 309.863281 C 538.324219 312.90625 537.964844 315.867188 537.296875 318.703125 L 540.863281 318.703125 C 541.476562 315.855469 541.800781 312.898438 541.800781 309.863281 C 541.800781 303.390625 540.332031 297.261719 537.710938 291.792969 L 534.519531 286.261719 C 526.984375 275.242188 514.320312 268.011719 499.964844 268.011719 C 499.785156 268.011719 499.59375 268.007812 499.414062 268.011719 Z M 499.414062 268.011719 "/>
<path style=" stroke:none;fill-rule:evenodd;fill:rgb(0%,79.998779%,99.998474%);fill-opacity:1;" d="M 499.433594 268.890625 C 477.046875 269.171875 458.988281 287.410156 458.988281 309.863281 C 458.988281 312.898438 459.320312 315.855469 459.945312 318.703125 L 462.628906 318.703125 C 461.960938 315.867188 461.605469 312.90625 461.605469 309.863281 C 461.605469 288.839844 478.511719 271.75 499.472656 271.484375 C 499.636719 271.484375 499.800781 271.484375 499.964844 271.484375 C 521.15625 271.484375 538.324219 288.675781 538.324219 309.863281 C 538.324219 312.90625 537.964844 315.867188 537.296875 318.703125 L 539.984375 318.703125 C 540.613281 315.855469 540.941406 312.898438 540.941406 309.863281 C 540.941406 287.234375 522.59375 268.890625 499.964844 268.890625 C 499.789062 268.890625 499.609375 268.886719 499.433594 268.890625 Z M 499.433594 268.890625 "/>
<path style=" stroke:none;fill-rule:evenodd;fill:rgb(0%,0%,99.998474%);fill-opacity:1;" d="M 499.449219 269.746094 C 477.539062 270.023438 459.867188 287.886719 459.867188 309.863281 C 459.867188 312.902344 460.207031 315.859375 460.847656 318.703125 L 462.628906 318.703125 C 461.960938 315.867188 461.605469 312.90625 461.605469 309.863281 C 461.605469 288.839844 478.511719 271.75 499.472656 271.484375 C 499.636719 271.484375 499.800781 271.484375 499.964844 271.484375 C 521.15625 271.484375 538.324219 288.675781 538.324219 309.863281 C 538.324219 312.90625 537.964844 315.867188 537.296875 318.703125 L 539.082031 318.703125 C 539.722656 315.859375 540.0625 312.902344 540.0625 309.863281 C 540.0625 287.714844 522.117188 269.746094 499.964844 269.746094 C 499.792969 269.746094 499.625 269.742188 499.449219 269.746094 Z M 499.449219 269.746094 "/>
<path style=" stroke:none;fill-rule:evenodd;fill:rgb(50.19989%,0%,50.19989%);fill-opacity:1;" d="M 499.449219 270.625 C 478.015625 270.894531 460.726562 288.363281 460.726562 309.863281 C 460.726562 312.90625 461.074219 315.863281 461.726562 318.703125 L 462.628906 318.703125 C 461.960938 315.867188 461.605469 312.90625 461.605469 309.863281 C 461.605469 288.839844 478.511719 271.75 499.472656 271.484375 C 499.636719 271.480469 499.800781 271.484375 499.964844 271.484375 C 521.15625 271.484375 538.324219 288.675781 538.324219 309.863281 C 538.324219 312.90625 537.964844 315.867188 537.296875 318.703125 L 538.203125 318.703125 C 538.855469 315.863281 539.203125 312.90625 539.203125 309.863281 C 539.203125 288.195312 521.636719 270.625 499.964844 270.625 C 499.796875 270.625 499.621094 270.621094 499.449219 270.625 Z M 499.449219 270.625 "/>
<path style=" stroke:none;fill-rule:evenodd;fill:rgb(99.998474%,99.998474%,99.998474%);fill-opacity:1;" d="M 453.066406 307.644531 L 443.113281 324.882812 L 556.820312 324.882812 L 546.863281 307.644531 Z M 453.066406 307.644531 "/>
<path style=" stroke:none;fill-rule:evenodd;fill:rgb(59.199524%,78.799438%,14.099121%);fill-opacity:1;" d="M 530.59375 297.464844 C 529.8125 297.464844 529.335938 297.644531 529.058594 297.820312 C 528.792969 297.984375 528.742188 298.097656 528.734375 298.109375 C 528.734375 298.113281 528.722656 298.117188 528.71875 298.125 C 527.316406 303.445312 524.367188 308.792969 520.382812 312.832031 C 516.371094 316.898438 511.316406 319.660156 505.777344 319.660156 L 498.105469 319.660156 L 498.105469 329.582031 L 558.960938 329.582031 L 553.28125 319.523438 C 548.59375 318.914062 544.308594 316.363281 540.820312 312.832031 C 536.835938 308.792969 533.890625 303.445312 532.488281 298.125 C 532.488281 298.125 532.472656 298.109375 532.472656 298.109375 C 532.464844 298.097656 532.402344 298.003906 532.132812 297.835938 C 531.851562 297.660156 531.378906 297.464844 530.59375 297.464844 Z M 530.59375 297.464844 "/>
<path style=" stroke:none;fill-rule:evenodd;fill:rgb(86.698914%,87.498474%,21.600342%);fill-opacity:1;" d="M 530.59375 297.464844 C 530.742188 297.464844 530.875 297.488281 531 297.5 C 531.023438 300.515625 531 305.609375 531 308.300781 C 530.972656 310.640625 530.167969 312.523438 528.988281 314.742188 C 528.441406 316.296875 528.003906 315.703125 526.640625 317.597656 C 524.808594 318.253906 523.453125 318.507812 521.5 318.8125 C 518.984375 319.210938 513.378906 319.566406 510.613281 318.949219 C 514.253906 317.882812 517.574219 315.679688 520.382812 312.832031 C 521.132812 312.074219 521.84375 311.269531 522.515625 310.429688 C 523.632812 309.03125 524.640625 307.515625 525.523438 305.953125 C 525.875 305.324219 526.210938 304.703125 526.519531 304.058594 C 526.988281 303.089844 527.402344 302.105469 527.773438 301.117188 C 527.894531 300.785156 528.015625 300.449219 528.128906 300.121094 C 528.347656 299.457031 528.542969 298.789062 528.71875 298.125 C 528.71875 298.117188 528.734375 298.113281 528.734375 298.105469 C 528.742188 298.09375 528.792969 297.984375 529.054688 297.820312 C 529.191406 297.734375 529.386719 297.648438 529.632812 297.582031 C 529.636719 297.582031 529.644531 297.585938 529.648438 297.582031 C 529.898438 297.515625 530.203125 297.464844 530.59375 297.464844 Z M 530.59375 297.464844 "/>
<path style=" stroke:none;fill-rule:evenodd;fill:rgb(77.598572%,79.598999%,14.099121%);fill-opacity:1;" d="M 529.902344 298.902344 C 529.488281 304.9375 527.625 312.09375 523.257812 316.714844 C 521.652344 318.050781 519.597656 319.261719 517.613281 318.96875 C 524.382812 313.457031 528.496094 305.019531 529.902344 298.902344 Z M 529.902344 298.902344 "/>
<path style=" stroke:none;fill-rule:evenodd;fill:rgb(61.999512%,79.598999%,20.399475%);fill-opacity:1;" d="M 524.457031 309.28125 C 523.457031 312.003906 519.671875 316.027344 515.617188 319.324219 C 514.46875 319.359375 513.859375 319.425781 512.8125 319.363281 C 515.28125 319.140625 521.035156 314.28125 524.457031 309.28125 Z M 524.457031 309.28125 "/>
<path style=" stroke:none;fill-rule:evenodd;fill:rgb(59.199524%,78.799438%,14.099121%);fill-opacity:1;" d="M 515.269531 297.464844 C 516.054688 297.464844 516.527344 297.660156 516.808594 297.835938 C 517.078125 298.003906 517.140625 298.097656 517.148438 298.109375 C 517.148438 298.109375 517.164062 298.125 517.164062 298.125 C 518.566406 303.445312 521.511719 308.792969 525.5 312.832031 C 529.515625 316.898438 534.585938 319.660156 540.121094 319.660156 C 542.800781 319.660156 547.761719 319.660156 547.761719 319.660156 L 547.761719 329.582031 L 482.78125 329.582031 L 482.78125 319.660156 C 482.78125 319.660156 487.769531 319.660156 490.457031 319.660156 C 495.992188 319.660156 501.046875 316.898438 505.0625 312.832031 C 509.042969 308.792969 511.996094 303.445312 513.394531 298.125 C 513.398438 298.117188 513.410156 298.113281 513.410156 298.109375 C 513.417969 298.097656 513.46875 297.984375 513.734375 297.820312 C 514.011719 297.644531 514.488281 297.464844 515.273438 297.464844 Z M 515.269531 297.464844 "/>
<path style=" stroke:none;fill-rule:evenodd;fill:rgb(89.398193%,90.19928%,18.800354%);fill-opacity:1;" d="M 515.261719 297.464844 C 515.410156 297.464844 515.542969 297.488281 515.667969 297.5 C 515.691406 300.515625 515.667969 305.609375 515.667969 308.300781 C 515.640625 310.640625 514.839844 312.523438 513.65625 314.742188 C 513.109375 316.296875 512.671875 315.703125 511.308594 317.597656 C 509.476562 318.253906 508.121094 318.507812 506.167969 318.8125 C 503.652344 319.210938 498.046875 319.566406 495.28125 318.949219 C 498.921875 317.882812 502.242188 315.679688 505.054688 312.832031 C 505.800781 312.074219 506.511719 311.269531 507.183594 310.429688 C 508.300781 309.03125 509.308594 307.515625 510.191406 305.953125 C 510.542969 305.324219 510.878906 304.703125 511.191406 304.058594 C 511.65625 303.089844 512.074219 302.105469 512.441406 301.117188 C 512.5625 300.785156 512.683594 300.449219 512.792969 300.121094 C 513.019531 299.457031 513.210938 298.789062 513.386719 298.125 C 513.390625 298.117188 513.402344 298.113281 513.402344 298.105469 C 513.410156 298.09375 513.460938 297.984375 513.726562 297.820312 C 513.859375 297.734375 514.054688 297.648438 514.300781 297.582031 C 514.304688 297.582031 514.3125 297.585938 514.316406 297.582031 C 514.566406 297.515625 514.871094 297.464844 515.261719 297.464844 Z M 515.261719 297.464844 "/>
<path style=" stroke:none;fill-rule:evenodd;fill:rgb(77.598572%,79.598999%,14.099121%);fill-opacity:1;" d="M 514.570312 298.902344 C 514.15625 304.9375 512.292969 312.09375 507.925781 316.714844 C 506.320312 318.050781 504.265625 319.261719 502.28125 318.96875 C 509.050781 313.457031 513.164062 305.019531 514.570312 298.902344 Z M 514.570312 298.902344 "/>
<path style=" stroke:none;fill-rule:evenodd;fill:rgb(61.999512%,79.598999%,20.399475%);fill-opacity:1;" d="M 509.128906 309.28125 C 508.125 312.003906 504.339844 316.027344 500.285156 319.324219 C 499.136719 319.359375 498.527344 319.425781 497.484375 319.363281 C 499.949219 319.140625 505.703125 314.28125 509.128906 309.28125 Z M 509.128906 309.28125 "/>
<path style=" stroke:none;fill-rule:evenodd;fill:rgb(59.199524%,78.799438%,14.099121%);fill-opacity:1;" d="M 499.9375 297.464844 C 500.722656 297.464844 501.195312 297.660156 501.476562 297.835938 C 501.746094 298.003906 501.808594 298.097656 501.816406 298.109375 C 501.816406 298.109375 501.832031 298.125 501.832031 298.125 C 503.234375 303.445312 506.179688 308.792969 510.167969 312.832031 C 514.183594 316.898438 519.253906 319.660156 524.789062 319.660156 C 527.472656 319.660156 532.429688 319.660156 532.429688 319.660156 L 532.429688 329.582031 L 467.449219 329.582031 L 467.449219 319.660156 C 467.449219 319.660156 472.4375 319.660156 475.125 319.660156 C 480.660156 319.660156 485.71875 316.898438 489.730469 312.832031 C 493.710938 308.792969 496.664062 303.445312 498.0625 298.125 C 498.066406 298.117188 498.078125 298.113281 498.082031 298.109375 C 498.085938 298.097656 498.136719 297.984375 498.402344 297.820312 C 498.679688 297.644531 499.15625 297.464844 499.9375 297.464844 Z M 499.9375 297.464844 "/>
<path style=" stroke:none;fill-rule:evenodd;fill:rgb(91.798401%,92.89856%,16.099548%);fill-opacity:1;" d="M 499.933594 297.464844 C 500.078125 297.464844 500.210938 297.488281 500.339844 297.5 C 500.359375 300.515625 500.339844 305.609375 500.339844 308.300781 C 500.308594 310.640625 499.507812 312.523438 498.324219 314.742188 C 497.777344 316.296875 497.339844 315.703125 495.976562 317.597656 C 494.144531 318.253906 492.789062 318.507812 490.835938 318.8125 C 488.320312 319.210938 482.714844 319.566406 479.949219 318.949219 C 483.589844 317.882812 486.910156 315.679688 489.722656 312.832031 C 490.46875 312.074219 491.179688 311.269531 491.851562 310.429688 C 492.96875 309.03125 493.980469 307.515625 494.859375 305.953125 C 495.214844 305.324219 495.546875 304.703125 495.859375 304.058594 C 496.324219 303.089844 496.742188 302.105469 497.109375 301.117188 C 497.230469 300.785156 497.351562 300.449219 497.464844 300.121094 C 497.6875 299.457031 497.882812 298.789062 498.054688 298.125 C 498.058594 298.117188 498.070312 298.113281 498.074219 298.105469 C 498.078125 298.09375 498.128906 297.984375 498.394531 297.820312 C 498.53125 297.734375 498.726562 297.648438 498.96875 297.582031 C 498.972656 297.582031 498.980469 297.585938 498.984375 297.582031 C 499.238281 297.515625 499.539062 297.464844 499.933594 297.464844 Z M 499.933594 297.464844 "/>
<path style=" stroke:none;fill-rule:evenodd;fill:rgb(77.598572%,79.598999%,14.099121%);fill-opacity:1;" d="M 499.238281 298.902344 C 498.828125 304.9375 496.960938 312.09375 492.59375 316.714844 C 490.988281 318.050781 488.933594 319.261719 486.949219 318.96875 C 493.71875 313.457031 497.832031 305.019531 499.238281 298.902344 Z M 499.238281 298.902344 "/>
<path style=" stroke:none;fill-rule:evenodd;fill:rgb(61.999512%,79.598999%,20.399475%);fill-opacity:1;" d="M 493.796875 309.28125 C 492.792969 312.003906 489.007812 316.027344 484.957031 319.328125 C 483.804688 319.359375 483.195312 319.425781 482.152344 319.363281 C 484.617188 319.140625 490.375 314.28125 493.796875 309.28125 Z M 493.796875 309.28125 "/>
<path style=" stroke:none;fill-rule:evenodd;fill:rgb(59.199524%,78.799438%,14.099121%);fill-opacity:1;" d="M 484.609375 297.464844 C 483.824219 297.464844 483.351562 297.660156 483.070312 297.835938 C 482.800781 298.003906 482.738281 298.097656 482.730469 298.109375 C 482.730469 298.109375 482.714844 298.125 482.714844 298.125 C 481.3125 303.445312 478.367188 308.792969 474.378906 312.832031 C 470.363281 316.898438 465.292969 319.660156 459.757812 319.660156 L 452.117188 319.660156 L 452.117188 329.582031 L 517.097656 329.582031 L 517.300781 319.660156 C 517.300781 319.660156 512.3125 319.660156 509.625 319.660156 C 504.089844 319.660156 498.828125 316.898438 494.816406 312.832031 C 490.835938 308.792969 487.882812 303.445312 486.484375 298.125 C 486.480469 298.117188 486.46875 298.113281 486.46875 298.109375 C 486.460938 298.097656 486.410156 297.984375 486.144531 297.820312 C 485.867188 297.644531 485.390625 297.464844 484.609375 297.464844 Z M 484.609375 297.464844 "/>
<path style=" stroke:none;fill-rule:evenodd;fill:rgb(57.598877%,73.698425%,18.800354%);fill-opacity:1;" d="M 483.410156 298.902344 C 482.792969 307.945312 477.757812 319.355469 472.070312 321.320312 C 470.214844 321.964844 466.96875 322.1875 465.84375 322.332031 C 475.789062 317.597656 481.671875 306.476562 483.410156 298.902344 Z M 483.410156 298.902344 "/>
<path style=" stroke:none;fill-rule:evenodd;fill:rgb(59.199524%,78.799438%,14.099121%);fill-opacity:1;" d="M 469.285156 297.464844 C 468.5 297.464844 468.027344 297.660156 467.746094 297.835938 C 467.476562 298.003906 467.414062 298.097656 467.40625 298.109375 C 467.40625 298.109375 467.390625 298.125 467.390625 298.125 C 465.988281 303.445312 463.042969 308.792969 459.054688 312.832031 C 455.589844 316.34375 451.328125 318.882812 446.664062 319.507812 L 440.984375 329.582031 L 501.773438 329.582031 L 501.773438 319.660156 L 494.097656 319.660156 C 488.5625 319.660156 483.507812 316.898438 479.496094 312.832031 C 475.511719 308.792969 472.558594 303.445312 471.160156 298.125 C 471.160156 298.117188 471.144531 298.113281 471.144531 298.109375 C 471.136719 298.097656 471.085938 297.984375 470.824219 297.820312 C 470.542969 297.644531 470.066406 297.464844 469.285156 297.464844 Z M 469.285156 297.464844 "/>
<path style=" stroke:none;fill-rule:evenodd;fill:rgb(57.598877%,73.698425%,18.800354%);fill-opacity:1;" d="M 468.085938 298.902344 C 467.46875 307.945312 462.429688 319.355469 456.746094 321.324219 C 454.890625 321.964844 451.644531 322.1875 450.515625 322.332031 C 460.464844 317.597656 466.34375 306.476562 468.085938 298.902344 Z M 468.085938 298.902344 "/>
<path style=" stroke:none;fill-rule:evenodd;fill:rgb(86.698914%,87.498474%,21.600342%);fill-opacity:1;" d="M 469.28125 297.464844 C 469.136719 297.464844 469.003906 297.488281 468.875 297.5 C 468.855469 300.515625 468.875 305.609375 468.875 308.300781 C 468.90625 310.640625 469.707031 312.523438 470.890625 314.742188 C 470.957031 314.933594 471.023438 315.09375 471.09375 315.230469 C 471.5 316.316406 471.804688 316.695312 473.375 317.886719 C 478.359375 321.671875 484.542969 322.238281 488.183594 321.925781 C 487.042969 321.027344 485.824219 320.210938 484.75 319.457031 C 486.460938 319.402344 488.101562 319.210938 489.265625 318.949219 C 485.625 317.882812 482.304688 315.679688 479.492188 312.832031 C 479.003906 312.335938 478.550781 311.808594 478.089844 311.277344 C 477.882812 310.984375 477.589844 310.578125 477.5 310.464844 C 476.382812 309.0625 475.238281 307.515625 474.355469 305.953125 C 474 305.324219 473.667969 304.703125 473.355469 304.058594 C 472.890625 303.089844 472.472656 302.105469 472.105469 301.117188 C 471.984375 300.785156 471.863281 300.449219 471.75 300.121094 C 471.527344 299.457031 471.335938 298.789062 471.160156 298.125 C 471.15625 298.117188 471.144531 298.113281 471.144531 298.105469 C 471.136719 298.09375 471.085938 297.984375 470.820312 297.820312 C 470.6875 297.734375 470.488281 297.648438 470.246094 297.582031 C 470.242188 297.582031 470.234375 297.585938 470.230469 297.582031 C 469.976562 297.515625 469.675781 297.464844 469.28125 297.464844 Z M 469.28125 297.464844 "/>
<path style=" stroke:none;fill-rule:evenodd;fill:rgb(77.598572%,79.598999%,14.099121%);fill-opacity:1;" d="M 469.984375 298.902344 C 470.394531 304.9375 472.261719 312.09375 476.628906 316.710938 C 478.234375 318.050781 480.289062 319.261719 482.273438 318.96875 C 475.503906 313.457031 471.386719 305.019531 469.984375 298.902344 Z M 469.984375 298.902344 "/>
<path style=" stroke:none;fill-rule:evenodd;fill:rgb(61.999512%,79.598999%,20.399475%);fill-opacity:1;" d="M 474.152344 307.246094 C 476.519531 313.082031 482.519531 318.535156 488.695312 322.199219 C 489.84375 322.234375 490.1875 322.203125 491.230469 322.140625 C 486.8125 319.769531 479.691406 316.386719 474.152344 307.246094 Z M 474.152344 307.246094 "/>
<path style=" stroke:none;fill-rule:evenodd;fill:rgb(57.598877%,73.698425%,18.800354%);fill-opacity:1;" d="M 501.136719 298.902344 C 501.753906 307.945312 507.65625 319.355469 513.34375 321.324219 C 515.199219 321.964844 519.347656 322.1875 520.476562 322.332031 C 510.527344 317.597656 502.878906 306.476562 501.136719 298.902344 Z M 501.136719 298.902344 "/>
<path style=" stroke:none;fill-rule:evenodd;fill:rgb(57.598877%,73.698425%,18.800354%);fill-opacity:1;" d="M 516.46875 298.902344 C 517.085938 307.945312 522.988281 319.355469 528.675781 321.320312 C 530.53125 321.964844 534.679688 322.1875 535.808594 322.332031 C 525.859375 317.597656 518.207031 306.476562 516.46875 298.902344 Z M 516.46875 298.902344 "/>
<path style=" stroke:none;fill-rule:evenodd;fill:rgb(57.598877%,73.698425%,18.800354%);fill-opacity:1;" d="M 531.800781 298.902344 C 532.417969 307.945312 538.320312 319.355469 544.007812 321.320312 C 545.859375 321.964844 550.011719 322.1875 551.140625 322.332031 C 541.191406 317.597656 533.539062 306.476562 531.800781 298.902344 Z M 531.800781 298.902344 "/>
<path style=" stroke:none;fill-rule:evenodd;fill:rgb(99.998474%,99.998474%,99.998474%);fill-opacity:1;" d="M 451.5 324.984375 C 448.621094 324.984375 445.28125 325.589844 442.5625 325.832031 L 436.292969 336.691406 L 499.261719 336.683594 L 563.636719 336.691406 L 557.34375 325.792969 C 554.746094 325.53125 551.507812 324.984375 548.75 324.984375 C 548.484375 324.984375 548.230469 324.992188 547.972656 325 C 547.792969 324.996094 547.59375 324.984375 547.414062 324.984375 C 547.292969 324.984375 547.191406 324.980469 547.074219 324.984375 C 546.957031 324.980469 546.84375 324.984375 546.722656 324.984375 C 546.542969 324.984375 546.375 324.996094 546.199219 325 C 545.9375 324.992188 545.6875 324.984375 545.421875 324.984375 C 541.820312 324.984375 538.769531 325.929688 535.34375 325.933594 C 531.914062 325.933594 528.875 324.984375 525.269531 324.984375 C 525.003906 324.984375 524.75 324.992188 524.492188 325 C 524.3125 324.996094 524.148438 324.984375 523.96875 324.984375 C 523.847656 324.984375 523.730469 324.980469 523.613281 324.984375 C 523.496094 324.980469 523.378906 324.984375 523.257812 324.984375 C 523.078125 324.984375 522.894531 324.996094 522.714844 325 C 522.457031 324.992188 522.207031 324.984375 521.941406 324.984375 C 518.339844 324.984375 515.292969 325.933594 511.863281 325.933594 C 508.433594 325.933594 505.390625 324.984375 501.789062 324.984375 C 501.519531 324.984375 501.253906 324.992188 500.996094 325 C 500.816406 324.996094 500.652344 324.984375 500.46875 324.984375 C 500.351562 324.984375 500.234375 324.980469 500.117188 324.984375 C 500 324.980469 499.878906 324.984375 499.761719 324.984375 C 499.582031 324.984375 499.414062 324.996094 499.234375 325 C 498.976562 324.992188 498.707031 324.984375 498.441406 324.984375 C 494.839844 324.984375 491.808594 325.933594 488.382812 325.933594 C 484.953125 325.933594 481.925781 324.984375 478.324219 324.984375 C 478.058594 324.984375 477.808594 324.992188 477.550781 325 C 477.371094 324.996094 477.171875 324.984375 476.992188 324.984375 C 476.871094 324.984375 476.769531 324.980469 476.652344 324.984375 C 476.535156 324.980469 476.417969 324.984375 476.296875 324.984375 C 476.117188 324.984375 475.953125 324.996094 475.777344 325 C 475.515625 324.992188 475.261719 324.984375 474.996094 324.984375 C 471.390625 324.984375 468.351562 325.933594 464.921875 325.933594 C 461.492188 325.929688 458.445312 324.984375 454.84375 324.984375 C 454.582031 324.984375 454.324219 324.992188 454.070312 325 C 453.886719 324.996094 453.730469 324.984375 453.546875 324.984375 C 453.421875 324.984375 453.292969 324.980469 453.171875 324.984375 C 453.054688 324.980469 452.9375 324.984375 452.816406 324.984375 C 452.636719 324.984375 452.453125 324.996094 452.277344 325 C 452.015625 324.992188 451.769531 324.984375 451.5 324.984375 Z M 451.5 324.984375 "/>
<path style=" stroke:none;fill-rule:evenodd;fill:rgb(89.398193%,90.19928%,18.800354%);fill-opacity:1;" d="M 484.710938 297.464844 C 484.5625 297.464844 484.429688 297.488281 484.304688 297.5 C 484.28125 300.515625 484.304688 305.609375 484.304688 308.300781 C 484.332031 310.640625 485.132812 312.523438 486.316406 314.742188 C 486.382812 314.933594 486.453125 315.09375 486.519531 315.230469 C 486.929688 316.316406 487.230469 316.695312 488.800781 317.886719 C 493.789062 321.671875 499.96875 322.238281 503.609375 321.925781 C 502.46875 321.027344 501.25 320.210938 500.175781 319.457031 C 501.886719 319.402344 503.527344 319.210938 504.691406 318.949219 C 501.050781 317.882812 497.730469 315.679688 494.921875 312.832031 C 494.429688 312.335938 493.976562 311.808594 493.519531 311.277344 C 493.308594 310.984375 493.015625 310.578125 492.925781 310.464844 C 491.808594 309.0625 490.664062 307.515625 489.78125 305.953125 C 489.429688 305.324219 489.09375 304.703125 488.785156 304.058594 C 488.316406 303.089844 487.902344 302.105469 487.53125 301.117188 C 487.410156 300.785156 487.289062 300.449219 487.175781 300.121094 C 486.953125 299.457031 486.761719 298.789062 486.585938 298.125 C 486.582031 298.117188 486.570312 298.113281 486.570312 298.105469 C 486.5625 298.09375 486.511719 297.984375 486.246094 297.820312 C 486.113281 297.734375 485.914062 297.648438 485.671875 297.582031 C 485.667969 297.582031 485.660156 297.585938 485.65625 297.582031 C 485.40625 297.515625 485.101562 297.464844 484.710938 297.464844 Z M 484.710938 297.464844 "/>
<path style=" stroke:none;fill-rule:evenodd;fill:rgb(79.998779%,81.999207%,11.799622%);fill-opacity:1;" d="M 485.410156 298.902344 C 485.820312 304.9375 487.6875 312.09375 492.054688 316.714844 C 493.660156 318.050781 495.714844 319.261719 497.699219 318.96875 C 490.929688 313.457031 486.8125 305.019531 485.410156 298.902344 Z M 485.410156 298.902344 "/>
<path style=" stroke:none;fill-rule:evenodd;fill:rgb(61.999512%,79.598999%,20.399475%);fill-opacity:1;" d="M 489.578125 307.246094 C 491.945312 313.082031 497.945312 318.535156 504.121094 322.199219 C 505.269531 322.234375 505.613281 322.203125 506.65625 322.140625 C 502.238281 319.769531 495.117188 316.386719 489.578125 307.246094 Z M 489.578125 307.246094 "/>
<path style=" stroke:none;fill-rule:evenodd;fill:rgb(99.998474%,0%,0%);fill-opacity:1;" d="M 497.105469 281.679688 C 496.511719 281.695312 495.578125 282.691406 495.164062 282.152344 C 494.921875 281.847656 494.882812 281.253906 495.125 280.753906 C 495.683594 279.601562 496.25 279.039062 497.292969 278.425781 C 499.671875 277.023438 501.179688 277.472656 502.367188 279.488281 C 503.464844 281.257812 504.519531 283.214844 504.613281 284.859375 C 504.640625 285.359375 504.894531 286.265625 504.457031 286.71875 C 503.109375 288.109375 499.859375 285.28125 497.960938 285.730469 C 497.320312 285.878906 496.582031 286.347656 495.976562 285.949219 C 495.507812 285.636719 495.902344 284.949219 496.25 284.652344 C 496.863281 284.132812 497.753906 283.394531 497.632812 282.597656 C 497.5625 282.148438 497.550781 281.667969 497.105469 281.679688 Z M 497.105469 281.679688 "/>
<path style=" stroke:none;fill-rule:evenodd;fill:rgb(66.699219%,0%,0%);fill-opacity:1;" d="M 496.863281 280.703125 C 495.78125 281.148438 495.898438 281.777344 495.355469 282.292969 C 495.507812 282.351562 496.121094 282.605469 496.71875 281.992188 C 496.976562 281.777344 497.265625 281.699219 497.394531 281.628906 C 497.089844 281.851562 496.871094 282.183594 496.710938 282.3125 C 495.902344 282.972656 494.753906 286.171875 495.230469 287.945312 C 495.707031 289.71875 499.433594 289.613281 501.039062 289.550781 C 502.644531 289.492188 505.871094 288.554688 504.222656 287.59375 C 502.851562 287.125 500.230469 287.355469 498.949219 287.582031 C 498.535156 283.5 498.894531 284.933594 498.796875 283.175781 C 498.699219 281.421875 498.171875 281.316406 498.867188 279.894531 C 498.289062 280.769531 497.59375 280.628906 496.863281 280.703125 Z M 496.863281 280.703125 "/>
<path style=" stroke:none;fill-rule:evenodd;fill:rgb(99.998474%,16.499329%,16.499329%);fill-opacity:1;" d="M 500.875 277.949219 C 500.835938 278.171875 500.796875 278.464844 500.820312 278.550781 C 500.90625 278.890625 500.996094 279.242188 501.097656 279.542969 C 501.210938 279.878906 501.257812 280.121094 501.335938 280.472656 C 501.417969 280.832031 501.738281 280.972656 502.03125 281.195312 C 502.402344 281.472656 502.117188 282.230469 502.347656 282.261719 C 502.53125 282.285156 502.835938 281.191406 502.835938 281.015625 C 502.835938 280.777344 502.835938 280.589844 502.800781 280.367188 C 502.664062 280.074219 502.527344 279.78125 502.375 279.496094 C 502.371094 279.492188 502.367188 279.492188 502.363281 279.488281 C 502.304688 279.375 502.242188 279.265625 502.171875 279.160156 C 501.953125 278.839844 501.683594 278.546875 501.382812 278.296875 C 501.367188 278.28125 501.347656 278.265625 501.328125 278.25 C 501.246094 278.183594 501.160156 278.121094 501.070312 278.0625 C 501.007812 278.023438 500.941406 277.988281 500.875 277.949219 Z M 500.875 277.949219 "/>
<path style=" stroke:none;fill-rule:evenodd;fill:rgb(99.998474%,16.499329%,16.499329%);fill-opacity:1;" d="M 498.335938 287.875 C 497.570312 287.460938 496.371094 288 495.644531 288.40625 C 495.183594 288.664062 494.925781 287.847656 494.96875 287.3125 C 495.007812 286.820312 494.773438 286.210938 495.371094 286.015625 C 496.546875 285.625 497.898438 285.199219 499.148438 285.28125 C 499.964844 285.332031 500.777344 285.164062 501.597656 285.242188 C 502.328125 285.3125 503.066406 285.390625 503.75 285.691406 C 504.191406 285.886719 504.882812 285.980469 504.9375 286.542969 C 504.980469 287.035156 504.953125 287.648438 504.8125 288.109375 C 504.625 288.71875 503.890625 288.253906 503.523438 288.230469 C 502.855469 288.1875 502.515625 288.933594 502.425781 289.476562 C 502.1875 290.914062 501.867188 291.695312 501.613281 292.855469 C 501.414062 293.753906 501.078125 294.648438 500.289062 294.429688 C 499.65625 294.261719 499.320312 292.855469 499.296875 292.289062 C 499.269531 291.671875 499.679688 290.171875 499.527344 289.582031 C 499.082031 287.871094 498.691406 288.070312 498.335938 287.875 Z M 498.335938 287.875 "/>
<path style=" stroke:none;fill-rule:evenodd;fill:rgb(91.398621%,8.200073%,8.200073%);fill-opacity:1;" d="M 498.335938 287.875 C 497.570312 287.460938 496.371094 288 495.644531 288.40625 C 495.183594 288.664062 494.925781 287.847656 494.96875 287.3125 C 495.007812 286.820312 494.773438 286.210938 495.371094 286.015625 C 496.546875 285.625 497.898438 285.199219 499.148438 285.28125 C 497.691406 285.058594 498.355469 287.394531 498.335938 287.875 Z M 498.335938 287.875 "/>
<path style=" stroke:none;fill-rule:evenodd;fill:rgb(78.398132%,64.299011%,0%);fill-opacity:1;" d="M 499.964844 227.875 L 531.511719 282.527344 L 562.363281 335.957031 L 499.261719 335.953125 L 437.5625 335.957031 L 469.121094 281.3125 Z M 499.964844 224.875 L 467.820312 280.558594 L 434.964844 337.457031 L 499.261719 337.453125 L 564.964844 337.457031 L 532.8125 281.777344 Z M 499.964844 224.875 "/>
</g>
</svg>
