<?xml version="1.0" encoding="UTF-8"?>
<svg xmlns="http://www.w3.org/2000/svg" xmlns:xlink="http://www.w3.org/1999/xlink" viewBox="0 0 1000 500" version="1.1">
<g id="surface875">
<path style="fill-rule:nonzero;fill:rgb(0%,14.117432%,49.01886%);fill-opacity:1;stroke-width:1;stroke-linecap:square;stroke-linejoin:miter;stroke:rgb(0%,14.117432%,49.01886%);stroke-opacity:1;stroke-miterlimit:3.239307;" d="M 0 252.082031 L 500 252.082031 L 500 2.082031 L 0 2.082031 Z M 0 252.082031 "/>
<path style=" stroke:none;fill-rule:evenodd;fill:rgb(99.998474%,99.998474%,99.998474%);fill-opacity:1;" d="M 0 2.082031 L 0 30.03125 L 444.097656 252.082031 L 500 252.082031 L 500 224.132812 L 55.902344 2.082031 Z M 500 2.082031 L 500 30.03125 L 55.902344 252.082031 L 0 252.082031 L 0 224.128906 L 444.097656 2.082031 Z M 500 2.082031 "/>
<path style=" stroke:none;fill-rule:evenodd;fill:rgb(81.175232%,7.843018%,16.862488%);fill-opacity:1;" d="M 0 252.082031 L 166.664062 168.75 L 203.933594 168.75 L 37.265625 252.082031 Z M 0 2.082031 L 166.664062 85.417969 L 129.398438 85.417969 L 0 20.714844 Z M 296.066406 85.417969 L 462.734375 2.082031 L 500 2.082031 L 333.335938 85.417969 Z M 500 252.082031 L 333.335938 168.75 L 370.601562 168.75 L 500 233.449219 Z M 500 252.082031 "/>
<path style="fill-rule:nonzero;fill:rgb(99.998474%,99.998474%,99.998474%);fill-opacity:1;stroke-width:1;stroke-linecap:square;stroke-linejoin:miter;stroke:rgb(99.998474%,99.998474%,99.998474%);stroke-opacity:1;stroke-miterlimit:3.239307;" d="M 208.335938 2.082031 L 208.335938 252.082031 L 291.664062 252.082031 L 291.664062 2.082031 Z M 208.335938 2.082031 "/>
<path style="fill-rule:nonzero;fill:rgb(99.998474%,99.998474%,99.998474%);fill-opacity:1;stroke-width:1;stroke-linecap:square;stroke-linejoin:miter;stroke:rgb(99.998474%,99.998474%,99.998474%);stroke-opacity:1;stroke-miterlimit:3.239307;" d="M 0 85.417969 L 0 168.75 L 500 168.75 L 500 85.417969 Z M 0 85.417969 "/>
<path style="fill-rule:nonzero;fill:rgb(81.175232%,7.843018%,16.862488%);fill-opacity:1;stroke-width:1;stroke-linecap:square;stroke-linejoin:miter;stroke:rgb(81.175232%,7.843018%,16.862488%);stroke-opacity:1;stroke-miterlimit:3.239307;" d="M 0 102.082031 L 0 152.082031 L 500 152.082031 L 500 102.082031 Z M 0 102.082031 "/>
<path style="fill-rule:nonzero;fill:rgb(81.175232%,7.843018%,16.862488%);fill-opacity:1;stroke-width:1;stroke-linecap:square;stroke-linejoin:miter;stroke:rgb(81.175232%,7.843018%,16.862488%);stroke-opacity:1;stroke-miterlimit:3.239307;" d="M 225 2.082031 L 225 252.082031 L 275 252.082031 L 275 2.082031 Z M 225 2.082031 "/>
<path style=" stroke:none;fill-rule:evenodd;fill:rgb(98.822021%,81.959534%,8.627319%);fill-opacity:1;" d="M 500 0 L 1000 0 L 1000 500 L 0 500 L 0 250 L 500 250 Z M 500 0 "/>
<path style=" stroke:none;fill-rule:evenodd;fill:rgb(0%,15.686035%,40.783691%);fill-opacity:1;" d="M 292.527344 125 C 292.527344 148.484375 273.484375 167.527344 250 167.527344 C 226.515625 167.527344 207.472656 148.484375 207.472656 125 C 207.472656 101.515625 226.515625 82.472656 250 82.472656 C 273.484375 82.472656 292.527344 101.515625 292.527344 125 Z M 292.527344 125 "/>
<path style="fill-rule:nonzero;fill:rgb(98.822021%,81.959534%,8.627319%);fill-opacity:1;stroke-width:1;stroke-linecap:square;stroke-linejoin:miter;stroke:rgb(98.822021%,81.959534%,8.627319%);stroke-opacity:1;stroke-miterlimit:3.239307;" d="M 240.914062 47.035156 L 235.300781 64.304688 L 250 53.632812 L 264.699219 64.304688 L 259.085938 47.035156 L 273.777344 36.359375 L 255.613281 36.359375 L 250 19.082031 L 244.386719 36.359375 L 226.222656 36.359375 Z M 240.914062 47.035156 "/>
<path style="fill-rule:nonzero;fill:rgb(98.822021%,81.959534%,8.627319%);fill-opacity:1;stroke-width:1;stroke-linecap:square;stroke-linejoin:miter;stroke:rgb(98.822021%,81.959534%,8.627319%);stroke-opacity:1;stroke-miterlimit:3.239307;" d="M 95.082031 130.367188 L 89.46875 147.640625 L 104.167969 136.964844 L 118.863281 147.640625 L 113.25 130.367188 L 127.945312 119.695312 L 109.78125 119.695312 L 104.167969 102.417969 L 98.550781 119.695312 L 80.386719 119.695312 Z M 95.082031 130.367188 "/>
<path style="fill-rule:nonzero;fill:rgb(98.822021%,81.959534%,8.627319%);fill-opacity:1;stroke-width:1;stroke-linecap:square;stroke-linejoin:miter;stroke:rgb(98.822021%,81.959534%,8.627319%);stroke-opacity:1;stroke-miterlimit:3.239307;" d="M 240.914062 213.699219 L 235.300781 230.972656 L 250 220.296875 L 264.699219 230.972656 L 259.085938 213.699219 L 273.777344 203.027344 L 255.613281 203.027344 L 250 185.75 L 244.386719 203.027344 L 226.222656 203.027344 Z M 240.914062 213.699219 "/>
<path style="fill-rule:nonzero;fill:rgb(98.822021%,81.959534%,8.627319%);fill-opacity:1;stroke-width:1;stroke-linecap:square;stroke-linejoin:miter;stroke:rgb(98.822021%,81.959534%,8.627319%);stroke-opacity:1;stroke-miterlimit:3.239307;" d="M 386.75 130.367188 L 381.136719 147.640625 L 395.832031 136.964844 L 410.53125 147.640625 L 404.917969 130.367188 L 419.613281 119.695312 L 401.449219 119.695312 L 395.832031 102.417969 L 390.21875 119.695312 L 372.054688 119.695312 Z M 386.75 130.367188 "/>
<path style="fill-rule:nonzero;fill:rgb(98.822021%,81.959534%,8.627319%);fill-opacity:1;stroke-width:1;stroke-linecap:square;stroke-linejoin:miter;stroke:rgb(98.822021%,81.959534%,8.627319%);stroke-opacity:1;stroke-miterlimit:3.239307;" d="M 234.550781 130.019531 L 225 159.410156 L 250 141.246094 L 275 159.410156 L 265.449219 130.019531 L 290.453125 111.855469 L 259.546875 111.855469 L 250 82.472656 L 240.453125 111.855469 L 209.546875 111.855469 Z M 234.550781 130.019531 "/>
</g>
</svg>
