<?xml version="1.0" encoding="UTF-8"?>
<svg xmlns="http://www.w3.org/2000/svg" xmlns:xlink="http://www.w3.org/1999/xlink" viewBox="0 0 1000 500" version="1.1">
<g id="surface880">
<rect x="0" y="0" width="1000" height="500" style="fill:rgb(0%,47.450256%,20.391846%);fill-opacity:1;stroke:none;"/>
<path style=" stroke:none;fill-rule:evenodd;fill:rgb(99.998474%,99.998474%,99.998474%);fill-opacity:1;" d="M 304.347656 0 L 695.652344 0 L 695.652344 500 L 304.347656 500 Z M 304.347656 0 "/>
<path style=" stroke:none;fill-rule:evenodd;fill:rgb(0%,47.450256%,20.391846%);fill-opacity:1;" d="M 503.609375 33.234375 C 502.738281 42.691406 501.863281 52.160156 500.988281 61.621094 C 497.78125 62.101562 494.582031 62.585938 491.375 63.066406 C 491.375 63.066406 498.050781 66.816406 499.214844 70.578125 C 499.40625 71.183594 499.332031 71.683594 499.0625 72.058594 C 498.96875 72.175781 498.832031 72.304688 498.710938 72.402344 C 496.777344 73.890625 491.0625 73.1875 491.0625 73.1875 C 491.0625 73.1875 498.636719 79.578125 499.214844 81.898438 C 499.230469 81.949219 499.246094 82 499.246094 82.054688 C 499.246094 82.09375 499.257812 82.167969 499.246094 82.210938 C 499.242188 82.242188 499.199219 82.300781 499.183594 82.339844 C 499.132812 82.449219 499.039062 82.578125 498.933594 82.683594 C 497.148438 84.328125 488.753906 84.789062 488.753906 84.789062 C 488.753906 84.789062 498.0625 91.429688 498.648438 95.191406 C 499.179688 98.605469 498.730469 100.601562 498.648438 100.945312 C 498 100.390625 482.980469 87.769531 473.292969 91.453125 C 472.808594 91.699219 472.523438 91.941406 472.40625 92.175781 C 472.351562 92.289062 472.34375 92.4375 472.375 92.550781 C 473.054688 94.652344 486.753906 96.800781 496.304688 105.066406 C 496.070312 107.128906 469.074219 98.488281 468.074219 103.902344 C 468.917969 105.425781 497.128906 109.492188 499.214844 113.175781 C 488.828125 113.5625 467.363281 110.886719 468.074219 114.304688 C 465.90625 118.253906 488.34375 116.027344 497.761719 119.242188 C 500.519531 122.363281 500.253906 124.976562 495.457031 125.308594 C 486.382812 120.992188 466.070312 117.785156 466.023438 123.296875 C 466.023438 123.300781 466.023438 123.324219 466.023438 123.328125 C 466.023438 123.332031 466.050781 123.355469 466.054688 123.359375 C 466.058594 123.375 466.070312 123.40625 466.085938 123.425781 C 466.117188 123.457031 466.1875 123.488281 466.246094 123.519531 C 468.539062 124.660156 487.449219 124.101562 494.570312 128.800781 C 484.476562 131.082031 450.242188 124.167969 450.027344 127.542969 C 450.996094 129.117188 456.414062 136.035156 465.734375 135.746094 C 475.054688 135.457031 496.621094 139.515625 498.078125 142.40625 C 498.125 142.5 498.121094 142.59375 498.109375 142.664062 C 497.480469 144.679688 469.710938 136.5 459.03125 141.53125 C 447.964844 146.746094 490.769531 143.582031 497.761719 149.957031 C 504.753906 156.324219 483.785156 149.355469 483.785156 149.355469 C 483.789062 149.355469 454.675781 145.316406 450.308594 147.34375 C 445.9375 149.371094 440.980469 154.011719 440.980469 154.011719 C 440.980469 154.011719 443.882812 159.789062 446.800781 158.632812 C 447.246094 158.453125 447.546875 158.421875 447.71875 158.472656 C 447.722656 158.472656 447.742188 158.472656 447.75 158.472656 C 447.753906 158.472656 447.773438 158.503906 447.78125 158.503906 C 447.785156 158.511719 447.808594 158.53125 447.8125 158.539062 C 447.816406 158.542969 447.839844 158.5625 447.84375 158.570312 C 447.84375 158.570312 447.871094 158.597656 447.875 158.601562 C 447.886719 158.628906 447.902344 158.691406 447.90625 158.722656 C 447.976562 159.59375 445.910156 162.121094 445.910156 162.121094 C 445.910156 162.121094 486.710938 171.949219 495.738281 180.636719 C 504.765625 189.324219 443.890625 167.023438 443.890625 167.023438 C 443.890625 167.023438 419.421875 176.003906 445.34375 176.582031 C 442.457031 180.785156 446.542969 183.371094 446.800781 183.53125 C 446.800781 183.53125 489.914062 192.515625 494.285156 199.46875 C 498.652344 206.414062 464.871094 192.792969 457.296875 189.027344 C 449.988281 185.398438 429.652344 190.949219 428.492188 192.644531 C 428.488281 192.660156 428.46875 192.695312 428.460938 192.707031 C 428.460938 192.710938 428.46875 192.734375 428.460938 192.738281 C 428.460938 192.753906 428.460938 192.792969 428.460938 192.800781 C 428.460938 192.808594 428.460938 192.828125 428.460938 192.835938 C 428.46875 192.839844 428.460938 192.859375 428.460938 192.867188 C 428.46875 192.871094 428.492188 192.894531 428.492188 192.898438 C 428.5 192.902344 428.492188 192.925781 428.492188 192.929688 C 428.507812 192.949219 428.539062 193 428.558594 193.019531 C 428.5625 193.03125 428.585938 193.046875 428.589844 193.050781 C 429.894531 194.480469 438.96875 196.449219 439.246094 198.902344 C 439.246094 198.910156 439.242188 198.921875 439.246094 198.933594 C 439.246094 199.066406 439.210938 199.21875 439.152344 199.339844 C 438.003906 201.542969 427.171875 202.480469 426.726562 204.558594 C 426.714844 204.59375 426.695312 204.648438 426.695312 204.683594 C 426.695312 207.003906 481.175781 218.300781 495.738281 230.464844 C 510.300781 242.628906 452.933594 215.96875 452.933594 215.96875 C 452.933594 215.96875 456.132812 220.308594 452.933594 221.472656 C 449.726562 222.628906 438.347656 205.253906 419.703125 215.96875 C 416.3125 220.378906 435.980469 223.875 440.980469 224.367188 C 439.273438 228.726562 437.785156 230.171875 444.777344 234.519531 C 445.539062 234.992188 445.96875 235.277344 446.132812 235.429688 C 446.140625 235.429688 446.160156 235.457031 446.167969 235.457031 C 446.171875 235.464844 446.191406 235.488281 446.199219 235.488281 C 446.199219 235.496094 446.199219 235.523438 446.199219 235.523438 C 446.199219 235.527344 446.199219 235.554688 446.199219 235.554688 C 446.199219 235.554688 446.171875 235.554688 446.167969 235.554688 C 446.160156 235.554688 446.140625 235.554688 446.132812 235.554688 C 445.054688 235.386719 432.496094 228.96875 431.183594 228.699219 C 431.167969 228.699219 431.125 228.699219 431.121094 228.699219 C 431.117188 228.699219 431.089844 228.699219 431.089844 228.699219 C 431.089844 229.28125 432.542969 236.25 432.542969 236.25 C 426.089844 231.03125 418.285156 229.460938 410.976562 234.800781 C 410.96875 235.105469 410.914062 240.105469 418.25 243.195312 C 414.117188 251.59375 422.925781 248.988281 436.90625 256.804688 C 416.128906 251.40625 414.460938 261.4375 429.316406 263.75 C 444.171875 266.070312 484.960938 267.519531 494.570312 279.976562 C 496.597656 282.597656 497.144531 283.917969 496.75 284.34375 C 495.148438 285.789062 480.398438 275.179688 478.253906 274.785156 C 478.25 274.789062 478.230469 274.78125 478.222656 274.785156 C 478.21875 274.789062 478.195312 274.8125 478.191406 274.816406 C 478.164062 274.855469 478.121094 274.917969 478.097656 274.976562 C 477.574219 276.128906 477.089844 281.136719 477.089844 281.136719 C 470.871094 277.5625 465.171875 274.351562 457.738281 272.839844 C 457.152344 273.996094 457.277344 275.640625 456.695312 276.796875 C 449.949219 271.960938 444.074219 268.558594 434.277344 268.09375 L 433.113281 272.742188 C 433.113281 272.742188 424.941406 262.605469 408.925781 272.742188 C 399.976562 279.121094 442.71875 275.050781 449.707031 282.582031 C 456.695312 290.113281 451.160156 291.257812 451.160156 291.257812 C 445.339844 289.136719 439.539062 287.035156 433.710938 284.90625 C 433.710938 284.90625 413.011719 281.121094 407.183594 285.753906 C 401.363281 290.394531 492.230469 301.6875 494.851562 314.144531 C 496.621094 320.898438 473.503906 307.070312 453.5 301.132812 C 452.726562 303.339844 451.9375 305.554688 451.160156 307.761719 C 450.6875 307.300781 442.949219 299.816406 434.277344 298.519531 C 434.277344 298.527344 434.25 298.546875 434.246094 298.550781 C 434.246094 298.5625 434.246094 298.601562 434.246094 298.617188 C 434.261719 299.566406 436.019531 306.347656 436.019531 306.347656 C 436.019531 306.347656 413.613281 295.910156 402.253906 301.414062 C 390.894531 306.917969 441.851562 309.808594 446.511719 315.027344 C 447.023438 315.59375 447.234375 316.007812 447.207031 316.285156 C 447.203125 316.324219 447.167969 316.402344 447.148438 316.4375 C 446.019531 318.078125 430.824219 312.023438 429.316406 315.027344 C 427.570312 318.503906 402.816406 308.664062 403.109375 313.296875 C 403.398438 317.929688 406.617188 320.523438 406.617188 320.523438 C 406.617188 320.523438 458.171875 325.445312 459.917969 331.527344 C 461.664062 337.609375 431.371094 328.070312 431.371094 328.070312 C 431.371094 328.070312 428.441406 332.394531 430.769531 334.417969 C 430.859375 334.5 430.933594 334.574219 430.960938 334.609375 C 430.960938 334.609375 430.960938 334.636719 430.960938 334.644531 C 430.957031 334.636719 430.933594 334.644531 430.929688 334.644531 C 429.875 334.296875 413.464844 323.601562 415.054688 331.8125 C 408.632812 329.265625 392.054688 321.390625 394.382812 327.472656 C 396.675781 333.464844 439.929688 342 441.207031 342.25 C 440.058594 342.339844 421.769531 343.863281 422.613281 348.628906 C 398.097656 333.777344 398.15625 342.683594 398.714844 343.378906 C 398.714844 343.378906 398.714844 343.410156 398.714844 343.410156 C 397.335938 343.191406 367.171875 335.726562 391.15625 348.628906 C 404.019531 355.550781 407.152344 358.25 407.214844 359.285156 C 407.214844 359.3125 407.222656 359.359375 407.214844 359.378906 C 407.210938 359.40625 407.195312 359.449219 407.183594 359.476562 C 407.183594 359.480469 407.15625 359.503906 407.152344 359.507812 C 407.140625 359.523438 407.136719 359.554688 407.121094 359.570312 C 407.117188 359.570312 407.09375 359.597656 407.089844 359.601562 C 407.089844 359.601562 407.0625 359.628906 407.058594 359.628906 C 407.058594 359.632812 407.03125 359.660156 407.023438 359.660156 C 407.019531 359.667969 407.003906 359.691406 406.992188 359.691406 C 406.496094 360.011719 405.289062 359.878906 404.9375 359.882812 C 404.921875 359.882812 404.886719 359.882812 404.875 359.882812 C 404.871094 359.882812 404.847656 359.910156 404.84375 359.914062 C 404.847656 359.921875 404.871094 359.9375 404.875 359.949219 C 405.21875 360.453125 407.097656 365.558594 406.992188 366.457031 C 406.992188 366.472656 406.964844 366.503906 406.960938 366.519531 C 406.960938 366.519531 406.964844 366.542969 406.960938 366.550781 C 406.960938 366.550781 406.933594 366.542969 406.929688 366.550781 C 406.929688 366.550781 406.933594 366.578125 406.929688 366.582031 C 406.929688 366.582031 406.902344 366.578125 406.898438 366.582031 C 406.898438 366.578125 406.871094 366.582031 406.871094 366.582031 C 405.816406 366.316406 389.933594 357.875 384.484375 357.304688 C 378.949219 356.726562 352.730469 364.539062 380.691406 376.703125 C 408.65625 388.867188 425.828125 373.800781 441.261719 375.539062 C 456.703125 377.277344 464 379.886719 462.539062 384.8125 C 461.085938 389.734375 446.75 368.675781 431.6875 386.886719 C 414.550781 383.511719 402.921875 381.566406 411.769531 394.085938 C 383.785156 383.6875 366.695312 397.257812 401.933594 402.761719 C 436.570312 403.777344 457.863281 394.367188 457.863281 394.367188 C 457.863281 394.367188 463.707031 405.101562 472.152344 397.578125 C 480.203125 390.398438 480.835938 399.53125 481.132812 400.40625 C 481.136719 400.417969 481.160156 400.429688 481.164062 400.4375 C 481.164062 400.4375 481.160156 400.464844 481.164062 400.46875 C 481.164062 400.46875 481.191406 400.46875 481.195312 400.46875 C 481.816406 400.3125 489.320312 396.976562 489.320312 396.976562 C 490 396.976562 490.695312 396.976562 491.375 396.976562 L 491.375 466.484375 C 500.789062 466.578125 510.191406 466.667969 519.605469 466.765625 C 519.605469 466.765625 510.578125 406.25 515.53125 398.140625 C 520.328125 390.285156 524.859375 391.132812 525.140625 391.191406 C 525.140625 391.191406 543.496094 396.6875 545.53125 395.816406 C 545.554688 395.804688 545.601562 395.792969 545.628906 395.785156 C 545.644531 395.773438 545.675781 395.761719 545.691406 395.75 C 545.722656 395.730469 545.78125 395.683594 545.8125 395.65625 C 545.824219 395.652344 545.839844 395.628906 545.84375 395.625 C 547.335938 394.273438 545.820312 388.933594 555.144531 389.75 C 558.019531 388.710938 556.921875 384.144531 558.78125 383.019531 C 558.8125 383.003906 558.871094 382.976562 558.90625 382.957031 C 558.976562 382.925781 559.082031 382.886719 559.15625 382.867188 C 559.269531 382.835938 559.410156 382.8125 559.539062 382.800781 C 562.445312 382.507812 618.65625 398.425781 630.890625 383.363281 C 627.6875 374.96875 616.601562 382.789062 613.695312 383.082031 C 611.074219 383.082031 599.996094 377.871094 593.585938 383.082031 C 587.761719 378.742188 561.273438 375.855469 561.273438 375.855469 C 557.78125 372.378906 624.480469 377.578125 628.269531 374.972656 C 636.128906 367.152344 613.710938 368.027344 610.214844 370.636719 C 604.003906 366.871094 596.191406 367.152344 591.4375 369.757812 C 589.152344 364.328125 567.5 366.679688 555.457031 365.132812 C 551.601562 362.886719 552.246094 361.597656 554.855469 360.195312 C 580.003906 361.257812 605.023438 364.523438 630.292969 363.402344 C 637.121094 354.550781 621.691406 351.210938 612.242188 358.753906 C 606.6875 349.679688 595.34375 358.457031 587.769531 357.59375 C 580.195312 356.722656 583.691406 347.464844 593.300781 348.914062 C 602.914062 350.363281 620.101562 348.320312 623.300781 343.976562 C 626.507812 339.632812 621.390625 335.230469 605.539062 339.355469 C 600.171875 334.144531 588.367188 339.351562 582.839844 341.085938 C 575.472656 337 558.34375 340.519531 552.515625 341.96875 C 546.816406 338.441406 582.519531 332.695312 582.519531 332.695312 C 596.304688 332.449219 604.078125 330.078125 608.445312 328.921875 C 629.277344 317.816406 608.15625 316.632812 597.222656 324.707031 C 590.433594 319.4375 583.988281 325.164062 577.875 327.191406 C 572.136719 329.089844 561.535156 330.476562 560.234375 329.925781 C 560.21875 329.917969 560.179688 329.902344 560.167969 329.894531 C 560.164062 329.894531 560.136719 329.867188 560.136719 329.859375 C 560.132812 329.859375 560.105469 329.835938 560.105469 329.828125 C 560.105469 329.828125 560.105469 329.800781 560.105469 329.800781 C 560.105469 329.796875 560.105469 329.769531 560.105469 329.769531 C 560.113281 329.753906 560.128906 329.722656 560.136719 329.707031 C 561 328.378906 576.703125 318.792969 576.703125 318.792969 C 576.703125 318.792969 597.09375 317.335938 601.175781 316.75 C 603.660156 316.402344 612.367188 312.304688 612.363281 310.78125 C 612.292969 309.835938 608.664062 309.925781 597.660156 312.695312 C 587.761719 313.566406 581.945312 313.003906 578.15625 313.296875 C 572.070312 312.667969 569.5 312.03125 568.992188 311.46875 C 568.96875 311.449219 568.9375 311.402344 568.925781 311.378906 C 568.882812 311.28125 568.910156 311.164062 568.992188 311.0625 C 569.007812 311.039062 569.058594 310.992188 569.085938 310.972656 C 570.578125 309.78125 580.210938 308.929688 580.210938 308.929688 C 580.210938 308.929688 609.628906 306.242188 611.570312 304.714844 L 611.605469 304.683594 C 611.613281 304.671875 611.628906 304.628906 611.636719 304.617188 C 611.640625 304.613281 611.667969 304.59375 611.667969 304.585938 C 612.273438 292.628906 586.710938 298.148438 586.027344 298.238281 C 586.101562 289.824219 562.960938 298.117188 561.875 298.238281 C 561.875 298.238281 561.847656 298.238281 561.84375 298.238281 C 560.847656 297.65625 560.414062 297.039062 560.328125 296.476562 C 560.296875 296.265625 560.324219 296.019531 560.386719 295.820312 C 560.972656 294.082031 564.46875 292.734375 564.46875 292.734375 C 570.875 291.191406 580.457031 290.707031 582.964844 288.679688 C 582.964844 288.679688 601.046875 288.523438 603.195312 283.746094 C 598.761719 271.570312 564.917969 285.898438 560.386719 288.085938 C 559.480469 288.085938 558.929688 287.855469 558.652344 287.488281 C 557.164062 285.324219 564.507812 278.210938 564.753906 277.960938 C 564.753906 277.960938 564.777344 277.933594 564.78125 277.933594 C 565.902344 277.613281 592.917969 276.238281 605.820312 258.847656 C 606.730469 248.09375 590.390625 264.914062 590.390625 264.914062 C 589.175781 250.972656 572.625 265.800781 563.015625 266.957031 C 553.402344 268.121094 553.121094 262.609375 559.820312 261.742188 C 566.519531 260.875 574.085938 261.441406 577.875 251.304688 C 581.660156 241.167969 593.035156 251.894531 595.070312 248.132812 C 597.046875 244.480469 591.351562 241.371094 590.996094 241.183594 C 590.996094 241.183594 599.433594 232.46875 585.746094 232.757812 C 572.195312 233.042969 554.675781 231.066406 554.320312 231.027344 C 555.167969 230.707031 568.976562 225.527344 581.949219 225.808594 C 595.347656 226.101562 588.066406 216.253906 575.25 216.253906 C 562.4375 216.253906 555.742188 211.914062 555.742188 211.914062 C 563.027344 209.210938 570.308594 206.503906 577.589844 203.804688 C 577.101562 201.777344 576.617188 199.765625 576.132812 197.738281 C 576.132812 197.738281 588.945312 187.59375 570.886719 189.910156 C 552.832031 192.226562 550.78125 192.519531 550.78125 192.519531 C 550.78125 192.519531 515.230469 197.933594 514.386719 198.019531 C 514.386719 198.019531 514.363281 198.019531 514.355469 198.019531 C 514.015625 197.964844 510.492188 196.878906 509.839844 195.535156 C 509.820312 195.492188 509.785156 195.425781 509.777344 195.382812 C 509.761719 195.328125 509.75 195.242188 509.746094 195.191406 C 509.738281 195.125 509.734375 195.035156 509.746094 194.972656 C 509.886719 194.265625 510.988281 193.496094 513.789062 192.800781 C 523.109375 190.488281 556.039062 183.832031 560.992188 185.574219 C 561.628906 185.796875 562.097656 185.742188 562.382812 185.507812 C 564.234375 183.839844 558.0625 173.1875 542.90625 171.679688 C 525.433594 169.9375 514.675781 176.015625 514.675781 176.015625 C 514.675781 176.015625 503.300781 171.949219 513.789062 168.472656 C 524.277344 164.996094 540.882812 169.636719 540.882812 169.636719 C 540.882812 169.636719 559.511719 164.121094 544.078125 161.808594 C 528.636719 159.488281 523.773438 163.894531 516.695312 164.132812 C 513.875 160.628906 540.9375 159.800781 542.625 156.902344 C 539.769531 151.6875 523.027344 156.902344 513.21875 156.902344 C 509.050781 155.148438 508.773438 152.28125 513.507812 150.523438 C 523.507812 150.136719 532.90625 150.71875 542.90625 150.332031 C 542.613281 145.023438 542.914062 138.730469 542.625 133.421875 C 529.9375 131.113281 515.0625 135.109375 507.941406 134.769531 C 509.84375 128.980469 537.230469 127.484375 540.28125 125.90625 C 546.578125 118.085938 514.015625 125.785156 513.21875 125.90625 C 507.441406 125.058594 507.789062 121.429688 511.449219 119.242188 C 519.898438 118.277344 538.839844 120.472656 537.40625 114.777344 C 536.308594 109.445312 524.269531 112.300781 519.324219 113.457031 C 514.371094 114.617188 507.085938 113.742188 507.085938 113.742188 C 503.917969 109.496094 535.636719 111.230469 535.351562 107.957031 C 534.9375 104.199219 515.242188 106.785156 508.539062 107.078125 C 503.390625 103.542969 532.769531 101.191406 534.148438 100.730469 C 534.160156 100.722656 534.179688 100.695312 534.179688 100.695312 C 535.277344 91.070312 513.789062 100.695312 509.710938 100.695312 C 509.011719 100.695312 508.480469 100.523438 508.097656 100.226562 C 508.011719 100.15625 507.917969 100.054688 507.84375 99.96875 C 506.449219 98.347656 507.691406 94.628906 507.691406 94.628906 C 507.691406 94.628906 515.34375 91.207031 515.8125 90.382812 C 515.816406 90.378906 515.84375 90.359375 515.84375 90.351562 C 515.847656 90.351562 515.84375 90.324219 515.84375 90.320312 C 515.84375 90.320312 515.84375 90.292969 515.84375 90.289062 C 515.84375 90.285156 515.816406 90.261719 515.8125 90.257812 C 515.792969 90.238281 515.753906 90.195312 515.71875 90.160156 C 514.816406 89.476562 509.554688 87.738281 508.859375 87.683594 C 508.851562 87.683594 508.832031 87.683594 508.824219 87.683594 C 508.820312 87.679688 508.800781 87.652344 508.792969 87.652344 C 508.785156 87.640625 508.769531 87.625 508.761719 87.621094 C 508.757812 87.613281 508.738281 87.59375 508.730469 87.589844 C 508.332031 86.777344 508.824219 81.019531 508.824219 81.019531 C 508.824219 81.019531 514.894531 76.496094 515.273438 74.695312 C 515.28125 74.679688 515.273438 74.648438 515.273438 74.632812 C 515.28125 74.621094 515.273438 74.585938 515.273438 74.574219 C 515.273438 74.558594 515.273438 74.523438 515.273438 74.511719 C 515.273438 74.496094 515.28125 74.457031 515.273438 74.445312 C 515.273438 74.441406 515.273438 74.417969 515.273438 74.414062 C 515.269531 74.398438 515.25 74.367188 515.242188 74.351562 C 515.242188 74.347656 515.25 74.324219 515.242188 74.320312 C 515.242188 74.3125 515.214844 74.292969 515.210938 74.289062 C 515.207031 74.277344 515.191406 74.265625 515.179688 74.253906 C 515.167969 74.246094 515.15625 74.207031 515.148438 74.195312 C 515.144531 74.191406 515.121094 74.164062 515.117188 74.164062 C 515.09375 74.144531 515.050781 74.117188 515.019531 74.101562 C 515.007812 74.097656 514.972656 74.074219 514.957031 74.070312 C 513.429688 73.339844 507.085938 75.511719 507.085938 75.511719 C 507.085938 73.582031 507.085938 71.660156 507.085938 69.726562 C 507.085938 69.726562 512.636719 69.128906 513.21875 66.523438 C 513.253906 66.375 513.238281 66.21875 513.21875 66.082031 C 513.210938 66.03125 513.207031 65.949219 513.1875 65.898438 C 513.152344 65.785156 513.097656 65.652344 513.03125 65.550781 C 513.019531 65.535156 512.976562 65.503906 512.964844 65.488281 C 511.695312 63.859375 506.519531 63.628906 506.519531 63.628906 C 505.546875 53.5 504.582031 43.371094 503.609375 33.234375 Z M 498.425781 132.507812 L 498.425781 136.5 C 498.425781 136.5 491.894531 136.167969 490.679688 135.148438 C 490.675781 135.144531 490.652344 135.121094 490.648438 135.117188 C 490.644531 135.109375 490.621094 135.089844 490.617188 135.085938 C 490.613281 135.078125 490.589844 135.058594 490.585938 135.050781 C 490.578125 135.050781 490.558594 135.027344 490.554688 135.019531 C 490.542969 135.007812 490.53125 134.976562 490.519531 134.960938 C 490.519531 134.957031 490.527344 134.933594 490.519531 134.929688 C 490.519531 134.925781 490.496094 134.902344 490.488281 134.898438 C 490.488281 134.894531 490.488281 134.871094 490.488281 134.867188 C 490.488281 134.855469 490.488281 134.8125 490.488281 134.804688 C 490.488281 134.796875 490.488281 134.777344 490.488281 134.769531 C 490.488281 134.765625 490.488281 134.746094 490.488281 134.738281 C 490.496094 134.71875 490.511719 134.667969 490.519531 134.644531 C 490.527344 134.636719 490.554688 134.621094 490.554688 134.613281 C 490.570312 134.589844 490.59375 134.542969 490.617188 134.523438 C 490.621094 134.511719 490.644531 134.496094 490.648438 134.488281 C 490.664062 134.472656 490.695312 134.4375 490.710938 134.425781 C 490.753906 134.386719 490.8125 134.339844 490.871094 134.300781 C 493.0625 132.777344 497.4375 132.8125 498.300781 132.566406 C 498.308594 132.566406 498.324219 132.574219 498.332031 132.566406 C 498.339844 132.566406 498.355469 132.542969 498.367188 132.535156 C 498.367188 132.535156 498.390625 132.542969 498.398438 132.535156 C 498.398438 132.535156 498.425781 132.507812 498.425781 132.507812 Z M 507.691406 137.824219 C 507.914062 137.824219 520.699219 137.929688 521.820312 139.578125 C 521.828125 139.59375 521.84375 139.628906 521.851562 139.644531 C 521.863281 139.664062 521.878906 139.71875 521.882812 139.738281 C 521.886719 139.753906 521.882812 139.785156 521.882812 139.804688 C 521.882812 139.824219 521.886719 139.871094 521.882812 139.898438 C 521.878906 139.917969 521.863281 139.96875 521.851562 139.988281 C 520.878906 142.054688 507.941406 143.289062 507.941406 143.289062 Z M 506.964844 145.710938 C 506.96875 145.714844 506.992188 145.710938 506.996094 145.710938 C 507 145.714844 507.023438 145.710938 507.027344 145.710938 C 507.785156 145.910156 513.078125 146.082031 513.730469 146.96875 C 513.734375 146.976562 513.757812 146.996094 513.761719 147 C 513.761719 147.003906 513.757812 147.027344 513.761719 147.03125 C 513.761719 147.042969 513.789062 147.050781 513.792969 147.0625 C 513.792969 147.066406 513.789062 147.089844 513.792969 147.09375 C 513.792969 147.101562 513.789062 147.121094 513.792969 147.125 C 513.792969 147.132812 513.792969 147.152344 513.792969 147.160156 C 513.789062 147.164062 513.792969 147.183594 513.792969 147.191406 C 513.789062 147.191406 513.792969 147.21875 513.792969 147.222656 C 513.789062 147.222656 513.761719 147.25 513.761719 147.25 C 513.757812 147.253906 513.761719 147.277344 513.761719 147.28125 C 513.75 147.296875 513.734375 147.328125 513.730469 147.34375 C 513.726562 147.347656 513.699219 147.371094 513.699219 147.375 C 513.691406 147.382812 513.699219 147.402344 513.699219 147.40625 C 512.597656 148.742188 507.710938 149.105469 507.46875 149.105469 C 507.46875 149.105469 507.4375 149.105469 507.4375 149.105469 C 507.4375 149.105469 507.441406 149.074219 507.4375 149.074219 C 507.429688 149.070312 507.410156 149.046875 507.402344 149.042969 C 507.179688 148.589844 506.964844 145.710938 506.964844 145.710938 Z M 467.980469 156.214844 C 472.15625 155.996094 480.441406 156.972656 495.992188 161.238281 C 495.992188 161.566406 496.304688 165.582031 496.183594 166.238281 C 496.179688 166.242188 496.152344 166.265625 496.152344 166.269531 C 496.148438 166.277344 496.152344 166.296875 496.152344 166.300781 C 496.148438 166.300781 496.121094 166.335938 496.121094 166.335938 C 495.875 166.210938 467.820312 158.199219 465.261719 158.316406 C 465.195312 158.320312 465.109375 158.324219 465.039062 158.316406 C 464.980469 158.308594 464.902344 158.300781 464.847656 158.28125 C 464.78125 158.265625 464.691406 158.21875 464.632812 158.191406 C 464.605469 158.183594 464.558594 158.171875 464.535156 158.160156 C 464.53125 158.15625 464.507812 158.132812 464.503906 158.128906 C 464.417969 158.070312 464.335938 157.984375 464.28125 157.90625 C 464.277344 157.902344 464.253906 157.882812 464.25 157.875 C 464.246094 157.863281 464.222656 157.824219 464.21875 157.816406 C 464.21875 157.804688 464.222656 157.789062 464.21875 157.785156 C 464.210938 157.769531 464.191406 157.730469 464.1875 157.71875 C 464.1875 157.714844 464.1875 157.691406 464.1875 157.6875 C 464.1875 157.671875 464.1875 157.640625 464.1875 157.625 C 464.1875 157.613281 464.1875 157.578125 464.1875 157.5625 C 464.191406 157.527344 464.207031 157.46875 464.21875 157.433594 C 464.253906 157.347656 464.324219 157.238281 464.410156 157.152344 C 464.839844 156.738281 465.910156 156.320312 467.980469 156.207031 Z M 482.523438 168.0625 C 486.996094 167.898438 497.707031 170.464844 498.300781 170.324219 C 498.300781 171.175781 498.773438 175.1875 498.238281 176.015625 C 498.230469 176.019531 498.210938 176.039062 498.207031 176.046875 C 498.199219 176.050781 498.179688 176.074219 498.175781 176.078125 C 498.167969 176.085938 498.148438 176.105469 498.144531 176.109375 C 498.132812 176.117188 498.089844 176.136719 498.078125 176.144531 C 498.074219 176.144531 498.050781 176.144531 498.046875 176.144531 C 498.03125 176.144531 498 176.144531 497.984375 176.144531 C 497.976562 176.144531 497.957031 176.144531 497.949219 176.144531 C 497.039062 175.914062 481.234375 170.917969 480.628906 168.875 C 480.617188 168.84375 480.628906 168.785156 480.628906 168.753906 C 480.632812 168.679688 480.664062 168.59375 480.722656 168.53125 C 480.726562 168.527344 480.746094 168.507812 480.753906 168.5 C 480.761719 168.496094 480.777344 168.476562 480.785156 168.46875 C 481.089844 168.226562 481.714844 168.089844 482.523438 168.058594 Z M 526.53125 179.066406 C 530.804688 178.980469 533.820312 179.34375 532.699219 180.636719 C 529.648438 184.152344 508.574219 187.050781 508.574219 187.050781 L 508.195312 180.636719 C 508.644531 180.566406 519.355469 179.207031 526.53125 179.066406 Z M 466.214844 199.058594 C 469.796875 198.867188 478.136719 200.828125 496.71875 208.644531 L 496.847656 213.269531 C 496.847656 213.269531 465.378906 203.777344 464.28125 202.199219 C 463.738281 201.425781 462.738281 199.242188 466.214844 199.058594 Z M 527.859375 205.941406 C 528.820312 205.894531 529.492188 205.992188 529.726562 206.222656 C 529.730469 206.230469 529.753906 206.25 529.757812 206.257812 C 529.769531 206.277344 529.78125 206.324219 529.789062 206.351562 C 529.789062 206.375 529.820312 206.421875 529.820312 206.441406 C 529.808594 206.574219 529.707031 206.753906 529.535156 206.945312 C 526.605469 210.222656 510.878906 213.484375 510.878906 213.484375 C 510.878906 213.484375 510.878906 209.367188 510.878906 209.246094 C 510.886719 209.246094 510.910156 209.246094 510.910156 209.246094 C 511.632812 209.21875 523.171875 206.175781 527.859375 205.941406 Z M 458.878906 206.503906 C 463.574219 206.261719 474.179688 208.734375 497.949219 219.929688 C 497.949219 220.042969 498.164062 223.910156 498.078125 224.269531 C 498.078125 224.269531 498.050781 224.269531 498.046875 224.269531 C 496.632812 223.816406 455.269531 209.367188 455.269531 209.367188 C 455.226562 209.207031 454.605469 206.734375 458.878906 206.503906 Z M 537.628906 224.582031 C 538.828125 224.535156 539.621094 224.636719 539.8125 224.894531 C 539.824219 224.929688 539.835938 224.988281 539.84375 225.023438 C 539.835938 225.152344 539.730469 225.308594 539.523438 225.496094 C 535.777344 228.867188 511.855469 232.941406 511.007812 233.003906 C 511.003906 233.003906 510.980469 233.011719 510.976562 233.003906 C 510.976562 233.003906 510.949219 233.011719 510.945312 233.003906 C 510.945312 233.003906 510.917969 232.980469 510.910156 232.972656 C 510.90625 232.964844 510.890625 232.933594 510.878906 232.914062 C 510.878906 232.90625 510.886719 232.886719 510.878906 232.882812 C 510.878906 232.867188 510.851562 232.835938 510.847656 232.820312 C 510.699219 232.039062 511.191406 229.308594 511.230469 228.917969 C 511.230469 228.914062 511.230469 228.894531 511.230469 228.886719 C 511.230469 228.894531 511.257812 228.886719 511.261719 228.886719 C 511.269531 228.894531 511.289062 228.917969 511.292969 228.917969 C 511.300781 228.917969 511.316406 228.917969 511.324219 228.917969 C 512.855469 228.898438 531.1875 224.851562 537.628906 224.582031 Z M 467.316406 235.113281 C 474.441406 234.746094 496.007812 244.585938 497.066406 244.886719 C 497.070312 244.886719 497.097656 244.886719 497.097656 244.886719 C 496.984375 245.328125 496.96875 248.878906 496.878906 249.449219 C 496.875 249.464844 496.878906 249.5 496.878906 249.511719 C 496.875 249.511719 496.847656 249.511719 496.847656 249.511719 C 496.261719 249.203125 466.695312 237.003906 465.390625 237.972656 C 464.574219 236.050781 465.417969 235.214844 467.316406 235.113281 Z M 530.925781 237.691406 C 532.40625 237.628906 533.488281 237.691406 533.835938 237.878906 C 533.878906 237.90625 533.914062 237.941406 533.929688 237.972656 C 533.929688 237.976562 533.929688 238 533.929688 238.003906 C 533.929688 238.011719 533.929688 238.03125 533.929688 238.035156 C 533.929688 238.054688 533.9375 238.089844 533.929688 238.101562 C 533.925781 238.105469 533.902344 238.128906 533.898438 238.132812 C 533.878906 238.160156 533.839844 238.195312 533.804688 238.226562 C 531.605469 240.164062 511.230469 244.167969 511.230469 244.167969 C 511.230469 244.167969 511.132812 240.414062 511.132812 240.050781 C 511.714844 239.925781 524.871094 237.957031 530.925781 237.691406 Z M 529.28125 250.675781 C 530.714844 250.625 531.730469 250.710938 531.972656 250.957031 C 531.972656 250.960938 532 250.980469 532.003906 250.988281 C 532.007812 250.996094 532 251.039062 532.003906 251.050781 C 532.003906 251.054688 532.03125 251.078125 532.035156 251.082031 C 532.03125 251.089844 532.003906 251.109375 532.003906 251.113281 C 532 251.128906 532.007812 251.160156 532.003906 251.179688 C 532 251.183594 531.972656 251.207031 531.972656 251.210938 C 531.949219 251.238281 531.929688 251.273438 531.90625 251.304688 C 531.886719 251.328125 531.839844 251.375 531.8125 251.394531 C 529.609375 253.285156 512.335938 256.898438 512.335938 256.898438 C 512.335938 256.898438 511.863281 252.777344 511.863281 252.652344 C 512.339844 252.664062 523.894531 250.855469 529.28125 250.675781 Z M 456.378906 251.714844 C 460.542969 251.449219 470.871094 253.15625 496.371094 262.367188 L 497.222656 267.335938 C 497.222656 267.335938 454.777344 253.710938 453.566406 253.285156 C 453.566406 253.285156 453.566406 253.253906 453.566406 253.253906 C 453.566406 253.226562 453.558594 253.164062 453.566406 253.09375 C 453.582031 252.972656 453.644531 252.777344 453.789062 252.589844 C 454.085938 252.230469 454.769531 251.816406 456.378906 251.714844 Z M 512.304688 262.492188 C 512.816406 262.605469 519.933594 262.839844 521.25 263.941406 C 521.257812 263.941406 521.277344 263.96875 521.28125 263.972656 C 521.289062 263.972656 521.308594 263.996094 521.316406 264.007812 C 521.320312 264.007812 521.339844 264.027344 521.347656 264.03125 C 521.363281 264.054688 521.367188 264.082031 521.378906 264.097656 C 521.382812 264.105469 521.410156 264.125 521.410156 264.128906 C 521.421875 264.15625 521.4375 264.203125 521.441406 264.222656 C 521.441406 264.230469 521.441406 264.25 521.441406 264.253906 C 521.441406 264.261719 521.441406 264.28125 521.441406 264.289062 C 521.441406 264.296875 521.441406 264.335938 521.441406 264.351562 C 521.441406 264.355469 521.441406 264.371094 521.441406 264.382812 C 521.441406 264.394531 521.414062 264.429688 521.410156 264.445312 C 521.410156 264.453125 521.414062 264.46875 521.410156 264.472656 C 521.40625 264.488281 521.386719 264.527344 521.378906 264.535156 C 520.28125 266.234375 512.84375 266.867188 512.84375 266.867188 C 512.84375 266.867188 512.476562 263.539062 512.308594 262.492188 Z M 529.535156 272.175781 C 531.191406 272.136719 532.378906 272.328125 532.636719 272.804688 C 532.773438 273.128906 532.503906 273.613281 531.71875 274.25 C 525.617188 279.222656 512.335938 280.195312 512.335938 280.195312 L 512.335938 274.722656 C 512.339844 274.722656 512.363281 274.722656 512.367188 274.722656 C 513.125 274.632812 524.03125 272.308594 529.535156 272.175781 Z M 546.449219 277.269531 C 548.550781 277.191406 549.460938 277.539062 549.734375 278.023438 C 549.757812 278.066406 549.789062 278.132812 549.800781 278.183594 C 549.820312 278.261719 549.835938 278.378906 549.832031 278.464844 C 549.761719 279.085938 549.089844 279.832031 548.566406 280.320312 C 546.492188 282.257812 513.445312 292.671875 513.445312 292.671875 C 513.445312 292.671875 513.195312 285.765625 513.316406 285.160156 C 532.640625 279.339844 542.09375 277.433594 546.449219 277.269531 Z M 525.078125 296.820312 C 527.179688 296.742188 528.820312 296.871094 529.3125 297.355469 C 529.34375 297.390625 529.386719 297.449219 529.410156 297.480469 C 529.417969 297.507812 529.433594 297.554688 529.441406 297.574219 C 529.445312 297.601562 529.441406 297.644531 529.441406 297.671875 C 529.441406 297.714844 529.449219 297.78125 529.441406 297.832031 C 529.417969 297.921875 529.355469 298.035156 529.28125 298.144531 C 526.453125 300.902344 512.714844 301.316406 512.714844 301.316406 L 512.714844 297.894531 C 515.296875 297.804688 521.039062 296.96875 525.078125 296.820312 Z M 538.828125 302.449219 C 539.480469 302.433594 539.878906 302.539062 539.9375 302.734375 C 539.9375 302.746094 539.9375 302.777344 539.9375 302.792969 C 539.902344 302.957031 539.710938 303.195312 539.308594 303.488281 C 533.8125 307.367188 513.1875 311.347656 513.1875 311.347656 C 513.1875 311.347656 513.445312 308.636719 513.570312 307.984375 C 514.144531 307.972656 533.894531 302.570312 538.828125 302.449219 Z M 550.398438 306.757812 C 552.832031 306.730469 554.6875 307.09375 555.742188 307.855469 C 555.742188 307.855469 555.777344 307.855469 555.777344 307.855469 C 555.777344 307.855469 555.777344 307.882812 555.777344 307.886719 C 555.777344 307.894531 555.777344 307.914062 555.777344 307.917969 C 555.777344 307.929688 555.777344 307.96875 555.777344 307.984375 C 555.675781 308.730469 554.125 312.273438 548.695312 313.800781 C 541.917969 313.195312 513.15625 321.648438 512.589844 321.78125 C 512.589844 321.78125 512.558594 321.78125 512.558594 321.78125 C 512.558594 321.773438 512.558594 321.734375 512.558594 321.71875 C 512.539062 321.179688 512.9375 318.261719 512.9375 318.261719 C 522.851562 312.367188 540.867188 306.847656 550.398438 306.757812 Z M 476.769531 323.351562 C 476.832031 323.351562 476.890625 323.351562 476.960938 323.351562 C 489.402344 324.6875 494.042969 329.320312 495.363281 331.183594 C 492.878906 335.507812 473.21875 325.800781 475.285156 323.730469 C 475.523438 323.523438 476.003906 323.371094 476.769531 323.351562 Z M 548.0625 324.171875 C 548.558594 324.148438 549.007812 324.25 549.328125 324.453125 C 549.453125 324.542969 549.585938 324.664062 549.671875 324.804688 C 549.792969 324.992188 549.875 325.253906 549.894531 325.554688 C 548.59375 327.550781 541.875 326.683594 541.457031 326.625 C 541.789062 326.5 545.675781 324.261719 548.0625 324.171875 Z M 521.410156 337.625 C 522.335938 337.589844 523.097656 337.679688 523.527344 337.9375 C 523.582031 337.976562 523.644531 338.027344 523.6875 338.066406 C 523.695312 338.082031 523.742188 338.113281 523.75 338.128906 C 523.765625 338.152344 523.800781 338.199219 523.8125 338.226562 C 523.824219 338.246094 523.835938 338.292969 523.847656 338.316406 C 523.917969 338.554688 523.894531 338.878906 523.6875 339.257812 C 521.734375 342.902344 513.1875 341.558594 513.1875 341.558594 L 513.1875 339.011719 C 513.195312 339.011719 513.21875 339.011719 513.21875 339.011719 C 513.703125 339.046875 518.410156 337.746094 521.410156 337.625 Z M 471.082031 347.214844 C 473.707031 347.082031 476.003906 348.796875 478.414062 350.167969 C 483.78125 349.078125 494.789062 351.015625 494.789062 351.015625 L 494.789062 355.855469 C 494.789062 355.863281 494.765625 355.886719 494.757812 355.886719 C 494.757812 355.894531 494.734375 355.886719 494.730469 355.886719 C 493.726562 356.0625 480.824219 355.5 477.941406 353.691406 C 475.589844 353.691406 468.9375 350.199219 468.425781 348.410156 C 468.421875 348.394531 468.394531 348.363281 468.394531 348.347656 C 468.386719 348.324219 468.394531 348.273438 468.394531 348.25 C 468.386719 348.234375 468.394531 348.203125 468.394531 348.1875 C 468.394531 348.175781 468.386719 348.136719 468.394531 348.125 C 468.394531 348.117188 468.386719 348.101562 468.394531 348.089844 C 468.394531 348.082031 468.421875 348.042969 468.425781 348.03125 C 468.425781 348.023438 468.421875 348.007812 468.425781 348 C 469.34375 347.511719 470.242188 347.257812 471.082031 347.214844 Z M 527.511719 349.605469 C 529.53125 349.492188 530.382812 350.113281 528.808594 352.335938 C 524.417969 358.519531 513.0625 355.984375 513.0625 355.984375 L 512.589844 352.152344 C 516.597656 352.304688 523.914062 349.792969 527.511719 349.605469 Z M 485.085938 362.144531 C 489.675781 361.933594 494.664062 363.75 494.664062 363.75 C 494.78125 363.980469 497.132812 368.589844 495.042969 370.132812 C 494.964844 370.1875 494.878906 370.238281 494.789062 370.285156 C 492.230469 371.621094 479.988281 369.246094 479.269531 364.347656 C 480.707031 362.835938 482.839844 362.25 485.085938 362.144531 Z M 437.757812 364.535156 C 441.957031 364.285156 446.644531 366.859375 447.179688 367.113281 C 447.1875 367.113281 447.207031 367.113281 447.210938 367.113281 C 447.210938 367.257812 447.054688 371.761719 447.054688 371.761719 C 447.054688 371.761719 438.742188 369.460938 436.113281 364.820312 C 436.640625 364.675781 437.203125 364.566406 437.753906 364.535156 Z M 517.710938 365.164062 C 522.390625 365.132812 528.050781 366.226562 528.871094 367.804688 C 529.027344 368.125 528.976562 368.480469 528.679688 368.84375 C 526.363281 371.628906 513.1875 369.09375 513.1875 369.09375 L 513.1875 365.695312 C 514.363281 365.355469 515.976562 365.175781 517.710938 365.164062 Z M 517.710938 365.164062 "/>
</g>
</svg>
