<?xml version="1.0" encoding="UTF-8"?>
<svg xmlns="http://www.w3.org/2000/svg" xmlns:xlink="http://www.w3.org/1999/xlink" viewBox="0 0 1000 500" version="1.1">
<g id="surface890">
<rect x="0" y="0" width="1000" height="500" style="fill:rgb(0.784302%,30.979919%,63.528442%);fill-opacity:1;stroke:none;"/>
<path style=" stroke:none;fill-rule:evenodd;fill:rgb(99.998474%,99.998474%,99.998474%);fill-opacity:1;" d="M 0 83.335938 L 1000 83.335938 L 1000 416.664062 L 0 416.664062 Z M 0 83.335938 "/>
<path style=" stroke:none;fill-rule:evenodd;fill:rgb(92.939758%,10.980225%,15.293884%);fill-opacity:1;" d="M 0 97.222656 L 1000 97.222656 L 1000 402.777344 L 0 402.777344 Z M 0 97.222656 "/>
<path style=" stroke:none;fill-rule:evenodd;fill:rgb(99.998474%,99.998474%,99.998474%);fill-opacity:1;" d="M 444.445312 250 C 444.445312 311.363281 394.699219 361.113281 333.335938 361.113281 C 271.96875 361.113281 222.222656 311.363281 222.222656 250 C 222.222656 188.636719 271.96875 138.886719 333.335938 138.886719 C 394.699219 138.886719 444.445312 188.636719 444.445312 250 Z M 444.445312 250 "/>
<path style=" stroke:none;fill-rule:evenodd;fill:rgb(92.939758%,10.980225%,15.293884%);fill-opacity:1;" d="M 333.335938 142.363281 L 300.070312 244.734375 L 351.257812 261.363281 Z M 333.335938 142.363281 "/>
<path style=" stroke:none;fill-rule:evenodd;fill:rgb(92.939758%,10.980225%,15.293884%);fill-opacity:1;" d="M 333.335938 142.363281 L 366.59375 244.734375 L 315.410156 261.363281 Z M 333.335938 142.363281 "/>
<path style=" stroke:none;fill-rule:evenodd;fill:rgb(92.939758%,10.980225%,15.293884%);fill-opacity:1;" d="M 435.703125 216.738281 L 328.0625 216.738281 L 328.0625 270.554688 Z M 435.703125 216.738281 "/>
<path style=" stroke:none;fill-rule:evenodd;fill:rgb(92.939758%,10.980225%,15.293884%);fill-opacity:1;" d="M 435.703125 216.738281 L 348.625 280.003906 L 316.988281 236.464844 Z M 435.703125 216.738281 "/>
<path style=" stroke:none;fill-rule:evenodd;fill:rgb(92.939758%,10.980225%,15.293884%);fill-opacity:1;" d="M 230.964844 216.738281 L 318.046875 280.003906 L 349.679688 236.464844 Z M 230.964844 216.738281 "/>
<path style=" stroke:none;fill-rule:evenodd;fill:rgb(92.939758%,10.980225%,15.293884%);fill-opacity:1;" d="M 230.964844 216.738281 L 338.601562 216.738281 L 338.601562 270.554688 Z M 230.964844 216.738281 "/>
<path style=" stroke:none;fill-rule:evenodd;fill:rgb(92.939758%,10.980225%,15.293884%);fill-opacity:1;" d="M 396.601562 337.082031 L 363.339844 234.710938 L 312.15625 251.34375 Z M 396.601562 337.082031 "/>
<path style=" stroke:none;fill-rule:evenodd;fill:rgb(92.939758%,10.980225%,15.293884%);fill-opacity:1;" d="M 396.601562 337.082031 L 309.523438 273.8125 L 341.152344 230.273438 Z M 396.601562 337.082031 "/>
<path style=" stroke:none;fill-rule:evenodd;fill:rgb(92.939758%,10.980225%,15.293884%);fill-opacity:1;" d="M 270.066406 337.082031 L 357.148438 273.8125 L 325.511719 230.273438 Z M 270.066406 337.082031 "/>
<path style=" stroke:none;fill-rule:evenodd;fill:rgb(92.939758%,10.980225%,15.293884%);fill-opacity:1;" d="M 270.066406 337.082031 L 303.328125 234.710938 L 354.511719 251.34375 Z M 270.066406 337.082031 "/>
</g>
</svg>
