<?xml version="1.0" encoding="UTF-8"?>
<svg xmlns="http://www.w3.org/2000/svg" xmlns:xlink="http://www.w3.org/1999/xlink" viewBox="0 0 1000 500" version="1.1">
<g id="surface720">
<rect x="0" y="0" width="1000" height="500" style="fill:rgb(82.351685%,0%,0%);fill-opacity:1;stroke:none;"/>
<path style=" stroke:none;fill-rule:evenodd;fill:rgb(99.998474%,90.194702%,0%);fill-opacity:1;" d="M 0 0 L 150 0 L 500 241.070312 L 850 0 L 1000 0 L 0 500 L 150 500 L 500 258.929688 L 850 500 L 1000 500 Z M 1000 200 L 1000 300 L 0 200 L 0 300 Z M 450 0 L 500 214.285156 L 550 0 Z M 450 500 L 500 285.714844 L 550 500 Z M 450 500 "/>
<path style="fill-rule:evenodd;fill:rgb(99.998474%,90.194702%,0%);fill-opacity:1;stroke-width:17.857143;stroke-linecap:butt;stroke-linejoin:miter;stroke:rgb(82.351685%,0%,0%);stroke-opacity:1;stroke-miterlimit:4;" d="M 580.355469 250 C 580.355469 294.382812 544.382812 330.355469 500 330.355469 C 455.617188 330.355469 419.644531 294.382812 419.644531 250 C 419.644531 205.617188 455.617188 169.644531 500 169.644531 C 544.382812 169.644531 580.355469 205.617188 580.355469 250 Z M 580.355469 250 "/>
</g>
</svg>
