<?xml version="1.0" encoding="UTF-8"?>
<svg xmlns="http://www.w3.org/2000/svg" xmlns:xlink="http://www.w3.org/1999/xlink" viewBox="0 0 1000 750" version="1.1">
<g id="surface920">
<rect x="0" y="0" width="1000" height="750" style="fill:rgb(0%,0%,0%);fill-opacity:1;stroke:none;"/>
<path style=" stroke:none;fill-rule:evenodd;fill:rgb(80.783081%,6.666565%,14.901733%);fill-opacity:1;" d="M 0 0 L 1000 0 L 1000 750 Z M 0 0 "/>
<path style=" stroke:none;fill-rule:evenodd;fill:rgb(98.822021%,81.959534%,8.627319%);fill-opacity:1;" d="M 619.125 217.914062 C 611.734375 227.449219 594.253906 208.308594 573.324219 207.878906 C 552.386719 207.4375 537.546875 227.9375 531.445312 234.921875 C 525.339844 241.902344 505.710938 278.539062 506.144531 282.460938 C 506.582031 286.394531 518.359375 271.558594 522.722656 268.945312 C 523.160156 274.175781 517.921875 280.28125 519.230469 282.03125 C 520.539062 283.773438 534.496094 271.558594 539.296875 271.128906 C 540.609375 274.617188 536.675781 278.101562 537.988281 283.339844 C 539.730469 285.082031 547.582031 274.617188 552.816406 272.4375 C 553.695312 276.359375 548.023438 283.773438 551.074219 288.574219 C 553.253906 289.007812 566.339844 273.738281 570.703125 271.996094 C 575.066406 270.246094 568.523438 286.394531 570.703125 287.703125 C 574.625 285.082031 586.839844 271.128906 590.769531 269.378906 C 594.695312 267.636719 590.332031 287.265625 592.074219 287.265625 C 596.875 283.773438 609.089844 267.195312 610.398438 264.582031 C 611.703125 261.960938 609.089844 289.886719 622.609375 304.710938 C 636.132812 319.546875 656.632812 336.554688 658.8125 336.554688 C 661.433594 331.753906 657.941406 321.722656 660.121094 322.160156 C 666.226562 328.703125 677.570312 338.296875 680.191406 338.296875 C 682.804688 338.296875 678.441406 327.832031 681.933594 327.832031 C 688.917969 334.375 708.976562 360.109375 748.234375 371.882812 C 745.621094 364.46875 739.949219 357.925781 739.511719 354.433594 C 742.132812 354.875 751.292969 359.238281 753.035156 358.796875 C 754.777344 358.367188 733.835938 332.625 735.148438 329.140625 C 739.949219 328.703125 742.132812 331.753906 743.871094 329.574219 C 741.691406 326.082031 723.371094 305.582031 723.371094 300.789062 C 723.371094 295.988281 729.042969 301.660156 730.785156 300.789062 C 732.535156 299.910156 723.8125 281.589844 725.554688 279.410156 C 727.296875 277.230469 746.492188 291.1875 751.285156 291.1875 C 756.085938 291.1875 752.597656 274.175781 754.777344 273.308594 C 756.957031 272.429688 773.105469 282.460938 776.585938 282.460938 C 780.078125 282.460938 779.640625 275.046875 780.949219 275.917969 C 782.257812 276.796875 820.207031 314.746094 807.121094 359.238281 C 794.035156 391.082031 767.863281 408.089844 729.476562 394.132812 C 731.65625 397.621094 752.164062 414.632812 774.40625 408.527344 C 796.65625 402.417969 823.699219 384.96875 820.644531 341.351562 C 817.59375 297.738281 803.199219 291.625 801.015625 285.082031 C 798.835938 278.539062 804.507812 286.824219 809.300781 288.574219 C 814.105469 290.316406 808.429688 279.410156 807.121094 274.617188 C 805.808594 269.816406 821.515625 284.644531 825.441406 285.953125 C 829.371094 287.265625 816.285156 250.1875 812.355469 247.566406 C 808.429688 244.953125 816.285156 248.445312 818.894531 249.316406 C 821.515625 250.1875 794.90625 208.746094 789.242188 208.746094 C 783.570312 208.746094 794.035156 206.566406 797.085938 206.566406 C 800.144531 206.566406 766.558594 179.523438 760.890625 179.523438 C 755.214844 179.523438 773.097656 172.542969 774.847656 172.101562 C 777.898438 172.542969 736.019531 149.863281 698.511719 172.542969 C 696.328125 170.800781 716.179688 157.054688 716.828125 151.171875 C 717.050781 149.640625 710.289062 146.371094 709.847656 144.628906 C 709.417969 142.878906 720.320312 137.644531 720.753906 133.726562 C 718.140625 130.234375 713.335938 131.542969 710.726562 130.671875 C 710.066406 127.398438 719.882812 119.328125 719.011719 115.835938 C 718.359375 113.875 711.15625 113.226562 709.417969 114.535156 C 707.667969 115.835938 713.996094 105.371094 712.90625 102.320312 C 712.035156 101.007812 708.546875 101.878906 705.054688 102.75 C 702.871094 102.320312 716.390625 83.558594 713.777344 80.941406 C 711.15625 78.328125 674.519531 100.136719 660.992188 124.558594 C 647.476562 148.992188 657.941406 168.621094 656.203125 176.902344 C 654.453125 185.199219 652.269531 193.480469 646.597656 193.480469 C 640.933594 193.480469 627.847656 184.757812 623.484375 180.394531 C 619.125 176.035156 618.246094 172.980469 612.140625 171.230469 C 606.039062 169.488281 592.074219 174.722656 586.839844 175.164062 C 581.609375 175.59375 561.109375 171.230469 559.796875 172.542969 C 558.488281 173.851562 579.867188 181.707031 584.660156 184.320312 C 589.460938 186.9375 589.898438 190.429688 593.382812 192.609375 C 596.875 194.792969 629.589844 204.386719 619.125 217.914062 Z M 746.921875 279.410156 C 757.398438 289.886719 828.058594 336.988281 828.058594 394.574219 C 828.058594 452.148438 776.585938 450.40625 761.761719 448.65625 C 778.335938 462.613281 841.144531 460.003906 841.144531 394.574219 C 841.144531 336.988281 760.011719 279.410156 749.542969 274.175781 C 739.078125 268.945312 736.457031 268.945312 746.921875 279.410156 Z M 746.921875 279.410156 "/>
<path style=" stroke:none;fill-rule:evenodd;fill:rgb(99.998474%,99.998474%,99.998474%);fill-opacity:1;" d="M 364.582031 368.488281 L 375.519531 406.039062 L 413.304688 406.039062 L 383.472656 428.996094 L 394.410156 465.503906 L 364.582031 442.554688 L 334.757812 464.453125 L 345.695312 428.996094 L 315.859375 406.039062 L 352.652344 406.039062 Z M 364.582031 368.488281 "/>
<path style=" stroke:none;fill-rule:evenodd;fill:rgb(99.998474%,99.998474%,99.998474%);fill-opacity:1;" d="M 250.546875 576.824219 L 261.484375 614.371094 L 299.265625 614.371094 L 269.433594 637.328125 L 280.371094 673.835938 L 250.546875 650.886719 L 220.710938 672.789062 L 231.648438 637.328125 L 201.824219 614.371094 L 238.613281 614.371094 Z M 250.546875 576.824219 "/>
<path style=" stroke:none;fill-rule:evenodd;fill:rgb(99.998474%,99.998474%,99.998474%);fill-opacity:1;" d="M 301.699219 497.070312 L 307.167969 515.84375 L 326.066406 515.84375 L 311.148438 527.320312 L 316.617188 545.574219 L 301.699219 534.097656 L 286.792969 545.050781 L 292.261719 527.320312 L 277.34375 515.84375 L 295.734375 515.84375 Z M 301.699219 497.070312 "/>
<path style=" stroke:none;fill-rule:evenodd;fill:rgb(99.998474%,99.998474%,99.998474%);fill-opacity:1;" d="M 250.546875 232.414062 L 261.484375 269.972656 L 299.265625 269.972656 L 269.433594 292.921875 L 280.371094 329.425781 L 250.546875 306.476562 L 220.710938 328.386719 L 231.648438 292.921875 L 201.824219 269.972656 L 238.613281 269.972656 Z M 250.546875 232.414062 "/>
<path style=" stroke:none;fill-rule:evenodd;fill:rgb(99.998474%,99.998474%,99.998474%);fill-opacity:1;" d="M 135.960938 378.90625 L 146.898438 416.453125 L 184.683594 416.453125 L 154.851562 439.414062 L 165.789062 475.917969 L 135.960938 452.972656 L 106.128906 474.871094 L 117.066406 439.414062 L 87.238281 416.453125 L 124.03125 416.453125 Z M 135.960938 378.90625 "/>
</g>
</svg>
