<?xml version="1.0" encoding="UTF-8"?>
<svg xmlns="http://www.w3.org/2000/svg" xmlns:xlink="http://www.w3.org/1999/xlink" viewBox="0 0 1000 500" version="1.1">
<g id="surface935">
<rect x="0" y="0" width="1000" height="500" style="fill:rgb(0%,21.960449%,65.881348%);fill-opacity:1;stroke:none;"/>
<path style=" stroke:none;fill-rule:evenodd;fill:rgb(80.783081%,6.666565%,14.901733%);fill-opacity:1;" d="M 0 250 L 1000 250 L 1000 500 L 0 500 Z M 0 250 "/>
<path style=" stroke:none;fill-rule:evenodd;fill:rgb(99.998474%,99.998474%,99.998474%);fill-opacity:1;" d="M 433.015625 250 L 0 500 L 0 0 Z M 433.015625 250 "/>
<path style=" stroke:none;fill-rule:evenodd;fill:rgb(98.822021%,81.959534%,8.627319%);fill-opacity:1;" d="M 205.554688 250 C 205.554688 277.617188 183.171875 300 155.554688 300 C 127.941406 300 105.554688 277.617188 105.554688 250 C 105.554688 222.382812 127.941406 200 155.554688 200 C 183.171875 200 205.554688 222.382812 205.554688 250 Z M 205.554688 250 "/>
<path style=" stroke:none;fill-rule:evenodd;fill:rgb(98.822021%,81.959534%,8.627319%);fill-opacity:1;" d="M 50 250 L 56.496094 256.496094 L 155.554688 250 L 56.496094 243.503906 Z M 50 250 "/>
<path style=" stroke:none;fill-rule:evenodd;fill:rgb(98.822021%,81.959534%,8.627319%);fill-opacity:1;" d="M 61.109375 262.433594 L 66.410156 267.730469 L 155.554688 250 Z M 61.109375 262.433594 "/>
<path style=" stroke:none;fill-rule:evenodd;fill:rgb(98.822021%,81.959534%,8.627319%);fill-opacity:1;" d="M 61.109375 237.566406 L 66.410156 232.269531 L 155.554688 250 Z M 61.109375 237.566406 "/>
<path style=" stroke:none;fill-rule:evenodd;fill:rgb(98.822021%,81.959534%,8.627319%);fill-opacity:1;" d="M 80.917969 175.363281 L 80.917969 184.542969 L 155.554688 250 L 90.097656 175.363281 Z M 80.917969 175.363281 "/>
<path style=" stroke:none;fill-rule:evenodd;fill:rgb(98.822021%,81.959534%,8.627319%);fill-opacity:1;" d="M 79.980469 192.007812 L 79.980469 199.5 L 155.554688 250 Z M 79.980469 192.007812 "/>
<path style=" stroke:none;fill-rule:evenodd;fill:rgb(98.822021%,81.959534%,8.627319%);fill-opacity:1;" d="M 97.5625 174.425781 L 105.058594 174.425781 L 155.554688 250 Z M 97.5625 174.425781 "/>
<path style=" stroke:none;fill-rule:evenodd;fill:rgb(98.822021%,81.959534%,8.627319%);fill-opacity:1;" d="M 155.554688 144.445312 L 149.0625 150.9375 L 155.554688 250 L 162.050781 150.9375 Z M 155.554688 144.445312 "/>
<path style=" stroke:none;fill-rule:evenodd;fill:rgb(98.822021%,81.959534%,8.627319%);fill-opacity:1;" d="M 143.121094 155.554688 L 137.824219 160.855469 L 155.554688 250 Z M 143.121094 155.554688 "/>
<path style=" stroke:none;fill-rule:evenodd;fill:rgb(98.822021%,81.959534%,8.627319%);fill-opacity:1;" d="M 167.992188 155.554688 L 173.285156 160.855469 L 155.554688 250 Z M 167.992188 155.554688 "/>
<path style=" stroke:none;fill-rule:evenodd;fill:rgb(98.822021%,81.959534%,8.627319%);fill-opacity:1;" d="M 230.191406 175.363281 L 221.011719 175.363281 L 155.554688 250 L 230.191406 184.542969 Z M 230.191406 175.363281 "/>
<path style=" stroke:none;fill-rule:evenodd;fill:rgb(98.822021%,81.959534%,8.627319%);fill-opacity:1;" d="M 213.546875 174.425781 L 206.054688 174.425781 L 155.554688 250 Z M 213.546875 174.425781 "/>
<path style=" stroke:none;fill-rule:evenodd;fill:rgb(98.822021%,81.959534%,8.627319%);fill-opacity:1;" d="M 231.128906 192.007812 L 231.128906 199.5 L 155.554688 250 Z M 231.128906 192.007812 "/>
<path style=" stroke:none;fill-rule:evenodd;fill:rgb(98.822021%,81.959534%,8.627319%);fill-opacity:1;" d="M 261.109375 250 L 254.617188 243.503906 L 155.554688 250 L 254.617188 256.496094 Z M 261.109375 250 "/>
<path style=" stroke:none;fill-rule:evenodd;fill:rgb(98.822021%,81.959534%,8.627319%);fill-opacity:1;" d="M 250 237.566406 L 244.699219 232.269531 L 155.554688 250 Z M 250 237.566406 "/>
<path style=" stroke:none;fill-rule:evenodd;fill:rgb(98.822021%,81.959534%,8.627319%);fill-opacity:1;" d="M 250 262.433594 L 244.699219 267.730469 L 155.554688 250 Z M 250 262.433594 "/>
<path style=" stroke:none;fill-rule:evenodd;fill:rgb(98.822021%,81.959534%,8.627319%);fill-opacity:1;" d="M 230.191406 324.636719 L 230.191406 315.457031 L 155.554688 250 L 221.011719 324.636719 Z M 230.191406 324.636719 "/>
<path style=" stroke:none;fill-rule:evenodd;fill:rgb(98.822021%,81.959534%,8.627319%);fill-opacity:1;" d="M 231.128906 307.992188 L 231.128906 300.5 L 155.554688 250 Z M 231.128906 307.992188 "/>
<path style=" stroke:none;fill-rule:evenodd;fill:rgb(98.822021%,81.959534%,8.627319%);fill-opacity:1;" d="M 213.546875 325.574219 L 206.054688 325.574219 L 155.554688 250 Z M 213.546875 325.574219 "/>
<path style=" stroke:none;fill-rule:evenodd;fill:rgb(98.822021%,81.959534%,8.627319%);fill-opacity:1;" d="M 155.554688 355.554688 L 162.050781 349.0625 L 155.554688 250 L 149.0625 349.0625 Z M 155.554688 355.554688 "/>
<path style=" stroke:none;fill-rule:evenodd;fill:rgb(98.822021%,81.959534%,8.627319%);fill-opacity:1;" d="M 167.992188 344.445312 L 173.285156 339.144531 L 155.554688 250 Z M 167.992188 344.445312 "/>
<path style=" stroke:none;fill-rule:evenodd;fill:rgb(98.822021%,81.959534%,8.627319%);fill-opacity:1;" d="M 143.121094 344.445312 L 137.824219 339.144531 L 155.554688 250 Z M 143.121094 344.445312 "/>
<path style=" stroke:none;fill-rule:evenodd;fill:rgb(98.822021%,81.959534%,8.627319%);fill-opacity:1;" d="M 80.917969 324.636719 L 90.097656 324.636719 L 155.554688 250 L 80.917969 315.457031 Z M 80.917969 324.636719 "/>
<path style=" stroke:none;fill-rule:evenodd;fill:rgb(98.822021%,81.959534%,8.627319%);fill-opacity:1;" d="M 97.5625 325.574219 L 105.058594 325.574219 L 155.554688 250 Z M 97.5625 325.574219 "/>
<path style=" stroke:none;fill-rule:evenodd;fill:rgb(98.822021%,81.959534%,8.627319%);fill-opacity:1;" d="M 79.980469 307.992188 L 79.980469 300.5 L 155.554688 250 Z M 79.980469 307.992188 "/>
<path style=" stroke:none;fill-rule:evenodd;fill:rgb(98.822021%,81.959534%,8.627319%);fill-opacity:1;" d="M 383.015625 250 L 364.226562 256.53125 L 363.816406 276.417969 L 351.800781 260.566406 L 332.765625 266.324219 L 344.125 250 Z M 383.015625 250 "/>
<path style=" stroke:none;fill-rule:evenodd;fill:rgb(98.822021%,81.959534%,8.627319%);fill-opacity:1;" d="M 383.015625 250 L 364.226562 243.46875 L 363.816406 223.582031 L 351.800781 239.433594 L 332.765625 233.675781 L 344.125 250 Z M 383.015625 250 "/>
<path style=" stroke:none;fill-rule:evenodd;fill:rgb(98.822021%,81.959534%,8.627319%);fill-opacity:1;" d="M 25 456.699219 L 28.738281 437.164062 L 11.71875 426.867188 L 31.457031 424.386719 L 35.984375 405.019531 L 44.445312 423.019531 Z M 25 456.699219 "/>
<path style=" stroke:none;fill-rule:evenodd;fill:rgb(98.822021%,81.959534%,8.627319%);fill-opacity:1;" d="M 25 456.699219 L 40.050781 443.691406 L 57.476562 453.289062 L 49.753906 434.949219 L 64.265625 421.34375 L 44.445312 423.019531 Z M 25 456.699219 "/>
<path style=" stroke:none;fill-rule:evenodd;fill:rgb(98.822021%,81.959534%,8.627319%);fill-opacity:1;" d="M 25 43.300781 L 40.050781 56.308594 L 57.476562 46.710938 L 49.753906 65.050781 L 64.265625 78.65625 L 44.445312 76.980469 Z M 25 43.300781 "/>
<path style=" stroke:none;fill-rule:evenodd;fill:rgb(98.822021%,81.959534%,8.627319%);fill-opacity:1;" d="M 25 43.300781 L 28.738281 62.835938 L 11.71875 73.132812 L 31.457031 75.613281 L 35.984375 94.980469 L 44.445312 76.980469 Z M 25 43.300781 "/>
</g>
</svg>
