<?xml version="1.0" encoding="UTF-8"?>
<svg xmlns="http://www.w3.org/2000/svg" xmlns:xlink="http://www.w3.org/1999/xlink" viewBox="0 0 1000 500" version="1.1">
<g id="surface940">
<path style=" stroke:none;fill-rule:evenodd;fill:rgb(0%,14.117432%,49.01886%);fill-opacity:1;" d="M 583.332031 125 C 583.332031 309.09375 434.09375 458.332031 250 458.332031 C 65.90625 458.332031 -83.332031 309.09375 -83.332031 125 C -83.332031 -59.09375 65.90625 -208.332031 250 -208.332031 C 434.09375 -208.332031 583.332031 -59.09375 583.332031 125 Z M 583.332031 125 "/>
<path style=" stroke:none;fill-rule:evenodd;fill:rgb(0%,0%,0%);fill-opacity:1;" d="M -83.332031 -41.667969 L 583.332031 291.667969 Z M -83.332031 291.667969 L 583.332031 -41.667969 Z M -83.332031 291.667969 "/>
<path style="fill:none;stroke-width:50;stroke-linecap:butt;stroke-linejoin:miter;stroke:rgb(99.998474%,99.998474%,99.998474%);stroke-opacity:1;stroke-miterlimit:4;" d="M -83.332031 -41.667969 L 583.332031 291.667969 "/>
<path style="fill:none;stroke-width:50;stroke-linecap:butt;stroke-linejoin:miter;stroke:rgb(99.998474%,99.998474%,99.998474%);stroke-opacity:1;stroke-miterlimit:4;" d="M -83.332031 291.667969 L 583.332031 -41.667969 "/>
<path style=" stroke:none;fill-rule:evenodd;fill:rgb(0%,0%,0%);fill-opacity:1;" d="M -83.332031 -41.667969 L 583.332031 291.667969 Z M -83.332031 291.667969 L 583.332031 -41.667969 Z M -83.332031 291.667969 "/>
<path style="fill:none;stroke-width:33.333333;stroke-linecap:butt;stroke-linejoin:miter;stroke:rgb(81.175232%,7.843018%,16.862488%);stroke-opacity:1;stroke-miterlimit:4;" d="M -83.332031 -41.667969 L 583.332031 291.667969 "/>
<path style="fill:none;stroke-width:33.333333;stroke-linecap:butt;stroke-linejoin:miter;stroke:rgb(81.175232%,7.843018%,16.862488%);stroke-opacity:1;stroke-miterlimit:4;" d="M -83.332031 291.667969 L 583.332031 -41.667969 "/>
<path style=" stroke:none;fill-rule:evenodd;fill:rgb(99.998474%,99.998474%,99.998474%);fill-opacity:1;" d="M 250 125 L 583.332031 291.667969 L 533.332031 291.667969 L 200 125 Z M 250 125 L 583.332031 -41.667969 L 633.332031 -41.667969 L 300 125 Z M 250 125 L -83.332031 291.667969 L -133.332031 291.667969 L 200 125 Z M 250 125 L -83.332031 -41.667969 L -33.332031 -41.667969 L 300 125 Z M 250 125 "/>
<path style=" stroke:none;fill-rule:evenodd;fill:rgb(0%,0%,0%);fill-opacity:1;" d="M -83.332031 125 L 583.332031 125 Z M 250 -41.667969 L 250 291.667969 Z M 250 -41.667969 "/>
<path style="fill:none;stroke-width:83.333333;stroke-linecap:butt;stroke-linejoin:miter;stroke:rgb(99.998474%,99.998474%,99.998474%);stroke-opacity:1;stroke-miterlimit:4;" d="M -83.332031 125 L 583.332031 125 "/>
<path style="fill:none;stroke-width:83.333333;stroke-linecap:butt;stroke-linejoin:miter;stroke:rgb(99.998474%,99.998474%,99.998474%);stroke-opacity:1;stroke-miterlimit:4;" d="M 250 -41.667969 L 250 291.667969 "/>
<path style=" stroke:none;fill-rule:evenodd;fill:rgb(0%,0%,0%);fill-opacity:1;" d="M -83.332031 125 L 583.332031 125 Z M 250 -41.667969 L 250 291.667969 Z M 250 -41.667969 "/>
<path style="fill:none;stroke-width:50;stroke-linecap:butt;stroke-linejoin:miter;stroke:rgb(81.175232%,7.843018%,16.862488%);stroke-opacity:1;stroke-miterlimit:4;" d="M -83.332031 125 L 583.332031 125 "/>
<path style="fill:none;stroke-width:50;stroke-linecap:butt;stroke-linejoin:miter;stroke:rgb(81.175232%,7.843018%,16.862488%);stroke-opacity:1;stroke-miterlimit:4;" d="M 250 -41.667969 L 250 291.667969 "/>
<path style="fill-rule:nonzero;fill:rgb(0%,14.117432%,49.01886%);fill-opacity:1;stroke-width:50;stroke-linecap:butt;stroke-linejoin:miter;stroke:rgb(0%,14.117432%,49.01886%);stroke-opacity:1;stroke-miterlimit:4;" d="M 0 500 L 0 250 L 500 250 L 500 0 L 1000 0 L 1000 500 Z M 0 500 "/>
<path style="fill-rule:evenodd;fill:rgb(96.861267%,87.841797%,9.01947%);fill-opacity:1;stroke-width:0.492788;stroke-linecap:butt;stroke-linejoin:miter;stroke:rgb(0%,0%,0%);stroke-opacity:1;stroke-miterlimit:4;" d="M 667.253906 265.136719 C 656.582031 274.1875 646.421875 287.371094 643.925781 299.289062 C 636.902344 332.847656 627.566406 340.316406 613.15625 333.105469 C 613.15625 351.121094 628.960938 352.511719 635.886719 341.976562 C 635.886719 358.886719 642.015625 373.542969 655.84375 386.050781 C 661.664062 391.316406 662.773438 387.714844 660.003906 381.898438 C 657.230469 376.074219 657.230469 357.222656 651.6875 346.410156 C 660.558594 352.789062 673.585938 349.1875 672.476562 331.722656 C 661.113281 338.375 649.816406 338.113281 648.636719 322.296875 C 647.253906 303.722656 654.5 276.777344 667.253906 265.136719 Z M 667.253906 265.136719 "/>
<path style="fill-rule:evenodd;fill:rgb(96.861267%,87.841797%,9.01947%);fill-opacity:1;stroke-width:0.492788;stroke-linecap:butt;stroke-linejoin:miter;stroke:rgb(0%,0%,0%);stroke-opacity:1;stroke-miterlimit:4;" d="M 653.757812 131.632812 C 654.511719 124.976562 653.089844 118.136719 648.222656 113.847656 C 638.824219 105.570312 629.613281 108.3125 622.761719 114.976562 C 612.503906 109.433594 607.054688 129.09375 595.414062 125.765625 C 597.355469 132.140625 600.40625 134.917969 606.226562 132.699219 C 600.125 138.242188 606.226562 144.894531 599.019531 151.546875 C 612.046875 155.707031 618.976562 148.5 618.425781 136.023438 C 623.414062 140.457031 631.171875 140.179688 635.332031 135.191406 C 628.402344 132.976562 628.367188 126.941406 631.171875 121.332031 C 635.332031 113.015625 654.867188 113.339844 653.757812 131.632812 Z M 653.757812 131.632812 "/>
<path style="fill-rule:evenodd;fill:rgb(19.999695%,45.097351%,12.940979%);fill-opacity:1;stroke-width:0.492788;stroke-linecap:butt;stroke-linejoin:miter;stroke:rgb(0%,0%,0%);stroke-opacity:1;stroke-miterlimit:4;" d="M 683.839844 228.050781 C 669.148438 235.8125 642.261719 232.488281 639.765625 213.359375 C 637.273438 194.234375 655.84375 185.640625 660.835938 183.144531 C 668.613281 179.257812 674.691406 186.195312 672.199219 194.234375 C 680.789062 191.1875 682.734375 181.207031 678.578125 175.382812 C 689.941406 176.214844 700.476562 167.621094 704.910156 155.429688 C 700.925781 159.222656 690.054688 156.65625 681.105469 156.078125 C 683.878906 153.03125 683.839844 147.113281 683.011719 144.0625 C 673.585938 153.761719 660.003906 149.328125 641.988281 177.324219 C 644.757812 167.621094 650.023438 148.21875 653.070312 135.46875 C 653.378906 134.191406 653.613281 132.9375 653.757812 131.632812 C 654.867188 113.339844 635.355469 113.011719 631.195312 121.324219 C 635.753906 126.46875 633.363281 132.472656 631.730469 141.566406 C 629.789062 152.375 625.628906 177.324219 622.027344 185.640625 C 620.917969 172.613281 612.324219 171.78125 610.660156 165.40625 C 608.167969 167.070312 606.785156 171.503906 607.335938 174.550781 C 604.285156 171.226562 593.753906 175.382812 589.871094 170.394531 C 585.714844 178.710938 592.371094 187.027344 599.296875 190.628906 C 595.28125 190.90625 594.308594 195.761719 589.871094 195.761719 C 595.832031 202.691406 601.929688 205.460938 608.996094 206.011719 C 616.066406 206.566406 621.332031 209.199219 625.628906 217.792969 C 632.558594 231.652344 658.964844 240.660156 683.839844 228.050781 Z M 683.839844 228.050781 "/>
<path style="fill-rule:evenodd;fill:rgb(96.861267%,87.841797%,9.01947%);fill-opacity:1;stroke-width:0.492788;stroke-linecap:butt;stroke-linejoin:miter;stroke:rgb(0%,0%,0%);stroke-opacity:1;stroke-miterlimit:4;" d="M 720.429688 211.140625 C 712.117188 234.152344 689.382812 250.503906 679.125 253 C 661.675781 257.242188 626.074219 274.523438 616.519531 283.417969 C 615.011719 283.085938 613.609375 282.535156 612.601562 281.828125 C 607.890625 278.5 604.011719 267.6875 612.324219 258.539062 C 638.382812 234.152344 666.378906 244.683594 683.839844 228.050781 C 669.148438 235.8125 642.261719 232.488281 639.765625 213.359375 C 655.566406 217.515625 684.117188 217.792969 706.847656 193.402344 C 709.894531 196.726562 718.765625 207.261719 720.429688 211.140625 Z M 720.429688 211.140625 "/>
<path style="fill-rule:evenodd;fill:rgb(19.999695%,45.097351%,12.940979%);fill-opacity:1;stroke-width:0.492788;stroke-linecap:butt;stroke-linejoin:miter;stroke:rgb(0%,0%,0%);stroke-opacity:1;stroke-miterlimit:4;" d="M 667.253906 265.136719 C 654.085938 276.304688 647.253906 303.722656 648.636719 322.296875 C 649.023438 327.460938 650.476562 330.964844 652.667969 333.113281 C 653.640625 322.578125 660.964844 295.363281 679.683594 283.210938 C 695.484375 272.957031 720.152344 249.949219 729.300781 223.617188 C 727.636719 218.902344 724.867188 215.574219 719.601562 212.253906 C 710.546875 237.101562 686.238281 249.023438 667.253906 265.136719 Z M 667.253906 265.136719 "/>
<path style="fill-rule:evenodd;fill:rgb(19.215393%,42.744446%,22.744751%);fill-opacity:1;stroke-width:0.492788;stroke-linecap:butt;stroke-linejoin:miter;stroke:rgb(0%,0%,0%);stroke-opacity:1;stroke-miterlimit:4;" d="M 711.980469 200.472656 C 707.261719 207.539062 696.589844 217.242188 686.335938 221.121094 C 688.554688 218.628906 689.246094 215.4375 689.382812 212.804688 C 676.355469 217.792969 650.300781 217.242188 639.765625 213.359375 C 655.566406 217.515625 684.117188 217.792969 706.847656 193.402344 C 709.066406 195.898438 711.003906 198.117188 711.980469 200.472656 Z M 711.980469 200.472656 "/>
<path style="fill-rule:evenodd;fill:rgb(19.999695%,45.097351%,12.940979%);fill-opacity:1;stroke-width:0.492788;stroke-linecap:butt;stroke-linejoin:miter;stroke:rgb(0%,0%,0%);stroke-opacity:1;stroke-miterlimit:4;" d="M 612.324219 258.539062 C 591.136719 278.371094 605.117188 295.6875 613.433594 299.570312 C 611.21875 313.429688 624.246094 311.761719 623.964844 323.40625 C 629.230469 320.355469 630.621094 312.316406 629.789062 305.941406 C 636.4375 313.152344 653.347656 305.109375 656.949219 318.417969 C 659.171875 303.722656 647.808594 289.035156 633.667969 290.417969 C 639.488281 285.152344 636.164062 276.558594 630.621094 274.339844 C 629.511719 285.152344 617.3125 285.152344 612.601562 281.828125 C 607.890625 278.5 604.011719 267.6875 612.324219 258.539062 Z M 612.324219 258.539062 "/>
<path style="fill-rule:evenodd;fill:rgb(96.861267%,87.841797%,9.01947%);fill-opacity:1;stroke-width:0.492788;stroke-linecap:butt;stroke-linejoin:miter;stroke:rgb(0%,0%,0%);stroke-opacity:1;stroke-miterlimit:4;" d="M 658.203125 384.667969 C 655.886719 385.988281 656.054688 388.96875 657.507812 390.902344 C 660.417969 394.785156 655.457031 403.578125 664.851562 405.453125 C 667.628906 406.011719 669.757812 404.3125 670.8125 401.15625 C 673.722656 392.425781 664.4375 391.457031 663.605469 387.300781 C 662.773438 383.140625 660.140625 383.554688 658.203125 384.667969 Z M 658.203125 384.667969 "/>
<path style="fill-rule:evenodd;fill:rgb(96.861267%,87.841797%,9.01947%);fill-opacity:1;stroke-width:0.492788;stroke-linecap:butt;stroke-linejoin:miter;stroke:rgb(0%,0%,0%);stroke-opacity:1;stroke-miterlimit:4;" d="M 666.101562 401.019531 C 662.992188 402.453125 660.277344 404.484375 661.527344 414.460938 C 662.039062 418.589844 661.804688 428.601562 658.203125 428.738281 C 660.417969 429.851562 665.132812 431.023438 667.070312 428.460938 C 668.941406 431.578125 673.167969 430.679688 674.832031 426.800781 C 677.050781 428.601562 680.101562 425.554688 680.101562 422.917969 C 682.039062 424.164062 685.921875 422.363281 684.949219 416.40625 C 687.308594 417.230469 690.355469 415.570312 691.464844 414.050781 C 687.996094 413.355469 679.269531 408.644531 677.191406 404.902344 C 675.109375 401.15625 669.707031 399.355469 666.101562 401.019531 Z M 666.101562 401.019531 "/>
<path style="fill:none;stroke-width:0.492788;stroke-linecap:butt;stroke-linejoin:miter;stroke:rgb(0%,0%,0%);stroke-opacity:1;stroke-miterlimit:4;" d="M 618.074219 120.675781 C 619.46875 118.601562 621.03125 116.664062 622.761719 114.976562 "/>
<path style="fill:none;stroke-width:0.492788;stroke-linecap:butt;stroke-linejoin:miter;stroke:rgb(0%,0%,0%);stroke-opacity:1;stroke-miterlimit:4;" d="M 670.8125 157.363281 C 673.261719 155.96875 676.976562 155.816406 681.105469 156.078125 "/>
<path style="fill:none;stroke-width:0.492788;stroke-linecap:butt;stroke-linejoin:miter;stroke:rgb(0%,0%,0%);stroke-opacity:1;stroke-miterlimit:4;" d="M 667.070312 428.460938 C 666.101562 427.078125 665.753906 421.257812 666.445312 417.722656 "/>
<path style="fill:none;stroke-width:0.492788;stroke-linecap:butt;stroke-linejoin:miter;stroke:rgb(0%,0%,0%);stroke-opacity:1;stroke-miterlimit:4;" d="M 674.832031 426.800781 C 673.308594 425.617188 670.398438 421.601562 669.914062 418.066406 "/>
<path style="fill:none;stroke-width:0.492788;stroke-linecap:butt;stroke-linejoin:miter;stroke:rgb(0%,0%,0%);stroke-opacity:1;stroke-miterlimit:4;" d="M 680.101562 422.917969 C 678.15625 422.019531 673.445312 415.917969 672.402344 411.972656 "/>
<path style="fill:none;stroke-width:0.492788;stroke-linecap:butt;stroke-linejoin:miter;stroke:rgb(0%,0%,0%);stroke-opacity:1;stroke-miterlimit:4;" d="M 684.949219 416.40625 C 682.660156 415.917969 675.667969 411.34375 672.753906 406.492188 "/>
<path style="fill-rule:evenodd;fill:rgb(96.861267%,87.841797%,9.01947%);fill-opacity:1;stroke-width:0.492788;stroke-linecap:butt;stroke-linejoin:miter;stroke:rgb(0%,0%,0%);stroke-opacity:1;stroke-miterlimit:4;" d="M 812.738281 258.816406 C 846.835938 287.371094 849.046875 310.097656 843.78125 323.40625 C 841.011719 310.933594 826.871094 291.527344 812.179688 286.539062 Z M 812.738281 258.816406 "/>
<path style="fill-rule:evenodd;fill:rgb(19.999695%,45.097351%,12.940979%);fill-opacity:1;stroke-width:0.492788;stroke-linecap:butt;stroke-linejoin:miter;stroke:rgb(0%,0%,0%);stroke-opacity:1;stroke-miterlimit:4;" d="M 751.753906 242.742188 L 814.953125 242.742188 L 814.953125 317.585938 C 814.953125 381.339844 779.476562 419.035156 743.4375 438.992188 C 707.402344 419.035156 671.917969 381.339844 671.917969 317.585938 L 671.917969 242.742188 L 716.273438 242.742188 C 716.339844 246.621094 716.691406 252.445312 721.261719 258.265625 C 731.726562 257.226562 743.574219 249.394531 751.753906 242.742188 Z M 751.753906 242.742188 "/>
<path style="fill-rule:evenodd;fill:rgb(0%,43.136597%,78.038025%);fill-opacity:1;stroke-width:0.492788;stroke-linecap:butt;stroke-linejoin:miter;stroke:rgb(0%,0%,0%);stroke-opacity:1;stroke-miterlimit:4;" d="M 814.953125 242.742188 L 814.953125 317.585938 C 814.953125 336.832031 811.71875 353.703125 806.214844 368.429688 L 743.4375 253.277344 L 680.660156 368.429688 C 675.152344 353.703125 671.917969 336.832031 671.917969 317.585938 L 671.917969 242.742188 Z M 814.953125 242.742188 "/>
<path style=" stroke:none;fill-rule:evenodd;fill:rgb(96.861267%,87.841797%,9.01947%);fill-opacity:1;" d="M 808.125 362.90625 C 807.019531 366.300781 805.007812 371.808594 803.449219 375.203125 L 743.4375 263.675781 L 683.421875 375.203125 C 681.867188 371.808594 679.855469 366.300781 678.746094 362.90625 L 743.4375 242.957031 Z M 808.125 362.90625 "/>
<path style="fill-rule:evenodd;fill:rgb(96.861267%,87.841797%,9.01947%);fill-opacity:1;stroke-width:0.492788;stroke-linecap:butt;stroke-linejoin:miter;stroke:rgb(0%,0%,0%);stroke-opacity:1;stroke-miterlimit:4;" d="M 771.972656 403.917969 C 773.636719 404.75 776.695312 406.285156 778.089844 406.839844 C 781.414062 400.1875 781.964844 390.761719 780.859375 382.445312 C 777.253906 391.597656 765.054688 391.316406 761.734375 396.859375 C 763.78125 397.882812 765.679688 399.226562 767.3125 400.40625 C 763.152344 404.5625 753.414062 411.550781 747.871094 413.214844 L 747.871094 353.757812 C 747.871094 349.601562 746.484375 346.132812 746.484375 342.671875 L 746.484375 330.378906 C 746.484375 327.609375 745.933594 323.589844 743.4375 323.589844 C 740.941406 323.589844 740.386719 327.609375 740.386719 330.378906 L 740.386719 342.671875 C 740.386719 346.132812 739 350.152344 739 353.757812 L 739 413.214844 C 735.953125 404.347656 724.015625 407.382812 718.46875 398.511719 C 720.636719 397.980469 722.921875 397.824219 725.144531 398.246094 C 720.988281 384.109375 709.617188 383.003906 707.402344 378.84375 C 707.402344 384.667969 704.910156 398.246094 708.789062 404.070312 C 709.660156 403.027344 710.96875 401.953125 712.539062 400.992188 C 717.253906 411.25 738.449219 411.273438 743.4375 428.1875 C 747.445312 421.976562 761.871094 414.761719 771.972656 403.917969 Z M 771.972656 403.917969 "/>
<path style="fill-rule:evenodd;fill:rgb(96.861267%,87.841797%,9.01947%);fill-opacity:1;stroke-width:0.492788;stroke-linecap:butt;stroke-linejoin:miter;stroke:rgb(0%,0%,0%);stroke-opacity:1;stroke-miterlimit:4;" d="M 743.4375 354.449219 C 748.148438 354.449219 763.117188 352.917969 768.523438 352.917969 C 769.929688 352.917969 771.074219 350.8125 771.074219 348.214844 C 771.074219 345.617188 769.929688 343.511719 768.523438 343.511719 C 763.117188 343.511719 748.148438 341.976562 743.4375 341.976562 C 738.726562 341.976562 723.757812 343.511719 718.351562 343.511719 C 716.945312 343.511719 715.804688 345.617188 715.804688 348.214844 C 715.804688 350.8125 716.945312 352.917969 718.351562 352.917969 C 723.757812 352.917969 738.726562 354.449219 743.4375 354.449219 Z M 743.4375 354.449219 "/>
<path style="fill-rule:evenodd;fill:rgb(96.861267%,87.841797%,9.01947%);fill-opacity:1;stroke-width:0.492788;stroke-linecap:butt;stroke-linejoin:miter;stroke:rgb(0%,0%,0%);stroke-opacity:1;stroke-miterlimit:4;" d="M 740.402344 330.085938 C 739.398438 329.28125 738.085938 328.792969 736.648438 328.792969 C 733.507812 328.792969 730.964844 331.117188 730.964844 333.984375 C 730.964844 336.847656 733.507812 339.171875 736.648438 339.171875 C 739.785156 339.171875 742.332031 336.847656 742.332031 333.984375 C 742.332031 331.765625 745.554688 331.765625 745.554688 333.984375 C 745.554688 338.472656 741.570312 342.113281 736.648438 342.113281 C 731.730469 342.113281 727.738281 338.472656 727.738281 333.984375 C 727.738281 329.492188 731.730469 325.851562 736.648438 325.851562 C 738.121094 325.851562 739.515625 326.175781 740.742188 326.757812 C 740.628906 327.503906 740.402344 328.890625 740.402344 330.085938 Z M 740.402344 330.085938 "/>
<path style=" stroke:none;fill-rule:evenodd;fill:rgb(96.861267%,87.841797%,9.01947%);fill-opacity:1;" d="M 718.351562 352.917969 C 719.757812 352.917969 720.898438 350.8125 720.898438 348.214844 C 720.898438 345.617188 719.757812 343.511719 718.351562 343.511719 Z M 718.351562 352.917969 "/>
<path style="fill:none;stroke-width:0.492788;stroke-linecap:butt;stroke-linejoin:miter;stroke:rgb(0%,0%,0%);stroke-opacity:1;stroke-miterlimit:4;" d="M 718.351562 352.917969 C 719.757812 352.917969 720.898438 350.8125 720.898438 348.214844 C 720.898438 345.617188 719.757812 343.511719 718.351562 343.511719 "/>
<path style=" stroke:none;fill-rule:evenodd;fill:rgb(96.861267%,87.841797%,9.01947%);fill-opacity:1;" d="M 720.445312 352.917969 C 721.855469 352.917969 722.992188 350.8125 722.992188 348.214844 C 722.992188 345.617188 721.855469 343.511719 720.445312 343.511719 Z M 720.445312 352.917969 "/>
<path style="fill:none;stroke-width:0.492788;stroke-linecap:butt;stroke-linejoin:miter;stroke:rgb(0%,0%,0%);stroke-opacity:1;stroke-miterlimit:4;" d="M 720.445312 352.917969 C 721.855469 352.917969 722.992188 350.8125 722.992188 348.214844 C 722.992188 345.617188 721.855469 343.511719 720.445312 343.511719 "/>
<path style=" stroke:none;fill-rule:evenodd;fill:rgb(96.861267%,87.841797%,9.01947%);fill-opacity:1;" d="M 734.132812 353.886719 C 735.824219 353.886719 737.199219 351.347656 737.199219 348.214844 C 737.199219 345.082031 735.824219 342.546875 734.132812 342.546875 Z M 734.132812 353.886719 "/>
<path style="fill:none;stroke-width:0.492788;stroke-linecap:butt;stroke-linejoin:miter;stroke:rgb(0%,0%,0%);stroke-opacity:1;stroke-miterlimit:4;" d="M 734.132812 353.886719 C 735.824219 353.886719 737.199219 351.347656 737.199219 348.214844 C 737.199219 345.082031 735.824219 342.546875 734.132812 342.546875 "/>
<path style=" stroke:none;fill-rule:evenodd;fill:rgb(96.861267%,87.841797%,9.01947%);fill-opacity:1;" d="M 737.316406 354.144531 C 739.089844 354.144531 740.527344 351.488281 740.527344 348.214844 C 740.527344 344.941406 739.089844 342.285156 737.316406 342.285156 Z M 737.316406 354.144531 "/>
<path style="fill:none;stroke-width:0.492788;stroke-linecap:butt;stroke-linejoin:miter;stroke:rgb(0%,0%,0%);stroke-opacity:1;stroke-miterlimit:4;" d="M 737.316406 354.144531 C 739.089844 354.144531 740.527344 351.488281 740.527344 348.214844 C 740.527344 344.941406 739.089844 342.285156 737.316406 342.285156 "/>
<path style=" stroke:none;fill-rule:evenodd;fill:rgb(96.861267%,87.841797%,9.01947%);fill-opacity:1;" d="M 747.953125 354.207031 C 749.742188 354.207031 751.199219 351.527344 751.199219 348.214844 C 751.199219 344.902344 749.742188 342.21875 747.953125 342.21875 Z M 747.953125 354.207031 "/>
<path style="fill:none;stroke-width:0.492788;stroke-linecap:butt;stroke-linejoin:miter;stroke:rgb(0%,0%,0%);stroke-opacity:1;stroke-miterlimit:4;" d="M 747.953125 354.207031 C 749.742188 354.207031 751.199219 351.527344 751.199219 348.214844 C 751.199219 344.902344 749.742188 342.21875 747.953125 342.21875 "/>
<path style=" stroke:none;fill-rule:evenodd;fill:rgb(96.861267%,87.841797%,9.01947%);fill-opacity:1;" d="M 751.316406 354.019531 C 753.089844 354.019531 754.523438 351.417969 754.523438 348.214844 C 754.523438 345.007812 753.089844 342.410156 751.316406 342.410156 Z M 751.316406 354.019531 "/>
<path style="fill:none;stroke-width:0.492788;stroke-linecap:butt;stroke-linejoin:miter;stroke:rgb(0%,0%,0%);stroke-opacity:1;stroke-miterlimit:4;" d="M 751.316406 354.019531 C 753.089844 354.019531 754.523438 351.417969 754.523438 348.214844 C 754.523438 345.007812 753.089844 342.410156 751.316406 342.410156 "/>
<path style=" stroke:none;fill-rule:evenodd;fill:rgb(96.861267%,87.841797%,9.01947%);fill-opacity:1;" d="M 766.199219 353.011719 C 767.636719 353.011719 768.804688 350.863281 768.804688 348.214844 C 768.804688 345.566406 767.636719 343.417969 766.199219 343.417969 Z M 766.199219 353.011719 "/>
<path style="fill:none;stroke-width:0.492788;stroke-linecap:butt;stroke-linejoin:miter;stroke:rgb(0%,0%,0%);stroke-opacity:1;stroke-miterlimit:4;" d="M 766.199219 353.011719 C 767.636719 353.011719 768.804688 350.863281 768.804688 348.214844 C 768.804688 345.566406 767.636719 343.417969 766.199219 343.417969 "/>
<path style=" stroke:none;fill-rule:evenodd;fill:rgb(96.861267%,87.841797%,9.01947%);fill-opacity:1;" d="M 712.539062 400.992188 C 714.257812 399.941406 716.300781 399.039062 718.46875 398.511719 Z M 712.539062 400.992188 "/>
<path style="fill:none;stroke-width:0.492788;stroke-linecap:butt;stroke-linejoin:miter;stroke:rgb(0%,0%,0%);stroke-opacity:1;stroke-miterlimit:4;" d="M 712.539062 400.992188 C 714.257812 399.941406 716.300781 399.039062 718.46875 398.511719 "/>
<path style=" stroke:none;fill-rule:evenodd;fill:rgb(96.861267%,87.841797%,9.01947%);fill-opacity:1;" d="M 768.941406 401.574219 C 768.433594 401.210938 767.886719 400.824219 767.3125 400.40625 Z M 768.941406 401.574219 "/>
<path style="fill:none;stroke-width:0.492788;stroke-linecap:butt;stroke-linejoin:miter;stroke:rgb(0%,0%,0%);stroke-opacity:1;stroke-miterlimit:4;" d="M 768.941406 401.574219 C 768.433594 401.210938 767.886719 400.824219 767.3125 400.40625 "/>
<path style=" stroke:none;fill-rule:evenodd;fill:rgb(96.861267%,87.841797%,9.01947%);fill-opacity:1;" d="M 771.972656 403.917969 C 775.855469 399.746094 779.089844 395.039062 780.859375 389.652344 Z M 771.972656 403.917969 "/>
<path style="fill:none;stroke-width:0.492788;stroke-linecap:butt;stroke-linejoin:miter;stroke:rgb(0%,0%,0%);stroke-opacity:1;stroke-miterlimit:4;" d="M 771.972656 403.917969 C 775.855469 399.746094 779.089844 395.039062 780.859375 389.652344 "/>
<path style=" stroke:none;fill-rule:evenodd;fill:rgb(99.998474%,99.998474%,99.998474%);fill-opacity:1;" d="M 730.746094 295.648438 C 730.746094 294.300781 731.855469 293.722656 733.148438 292.742188 C 734.707031 291.558594 735.332031 291.007812 736.75 291.007812 L 754.945312 291.007812 C 756.292969 291.007812 756.605469 291.351562 756.605469 292.601562 L 756.605469 317.339844 C 756.605469 318.585938 756.292969 318.9375 754.945312 318.9375 L 730.746094 318.9375 L 730.746094 295.410156 Z M 730.746094 295.648438 "/>
<path style="fill:none;stroke-width:0.492788;stroke-linecap:butt;stroke-linejoin:miter;stroke:rgb(0%,0%,0%);stroke-opacity:1;stroke-miterlimit:4;" d="M 730.746094 295.648438 C 730.746094 294.300781 731.855469 293.722656 733.148438 292.742188 C 734.707031 291.558594 735.332031 291.007812 736.75 291.007812 L 754.945312 291.007812 C 756.292969 291.007812 756.605469 291.351562 756.605469 292.601562 L 756.605469 317.339844 C 756.605469 318.585938 756.292969 318.9375 754.945312 318.9375 L 730.746094 318.9375 L 730.746094 295.410156 "/>
<path style="fill-rule:evenodd;fill:rgb(89.802551%,89.802551%,89.802551%);fill-opacity:1;stroke-width:0.492788;stroke-linecap:butt;stroke-linejoin:miter;stroke:rgb(0%,0%,0%);stroke-opacity:1;stroke-miterlimit:4;" d="M 750.441406 321.085938 C 752.828125 321.085938 752.398438 321.03125 754.078125 319.351562 C 755.828125 317.601562 755.664062 317.757812 755.664062 316.148438 L 755.664062 293.53125 C 755.664062 292.363281 755.375 292.035156 754.121094 292.035156 L 737.289062 292.035156 C 735.96875 292.035156 735.394531 292.558594 733.953125 293.65625 C 732.753906 294.570312 731.742188 295.117188 731.742188 296.378906 L 731.742188 321.085938 Z M 750.441406 321.085938 "/>
<path style="fill-rule:evenodd;fill:rgb(99.998474%,99.998474%,99.998474%);fill-opacity:1;stroke-width:0.492788;stroke-linecap:butt;stroke-linejoin:miter;stroke:rgb(0%,0%,0%);stroke-opacity:1;stroke-miterlimit:4;" d="M 752.242188 320.566406 C 752.242188 321.808594 751.929688 322.160156 750.578125 322.160156 L 732.390625 322.160156 C 731.035156 322.160156 730.746094 321.808594 730.746094 320.566406 L 730.746094 295.824219 C 730.746094 294.574219 731.035156 294.230469 732.390625 294.230469 L 750.578125 294.230469 C 751.929688 294.230469 752.242188 294.574219 752.242188 295.824219 Z M 752.242188 320.566406 "/>
<path style="fill-rule:evenodd;fill:rgb(58.822632%,52.940369%,49.01886%);fill-opacity:1;stroke-width:0.492788;stroke-linecap:butt;stroke-linejoin:miter;stroke:rgb(0%,0%,0%);stroke-opacity:1;stroke-miterlimit:4;" d="M 787.503906 228.246094 C 791.046875 232.195312 792.214844 237.519531 790.285156 242.714844 L 785.019531 242.714844 C 787.230469 236.0625 785.847656 229.714844 776.425781 228.882812 C 762.328125 227.640625 745.933594 254.941406 721.261719 258.265625 C 714.054688 249.671875 714.441406 233.304688 723.589844 225.542969 C 718.859375 211.910156 708.871094 196.914062 701.960938 190.425781 C 697.4375 189.691406 692.207031 189.324219 688.832031 189.523438 C 692.429688 181.757812 702.703125 173.589844 711.019531 170.261719 C 712.367188 168.296875 713.808594 166.40625 715.164062 164.714844 C 715.996094 154.039062 766.71875 159.027344 777.53125 165.683594 C 777.53125 177.601562 782.238281 217.433594 787.503906 228.246094 Z M 787.503906 228.246094 "/>
<path style=" stroke:none;fill-rule:evenodd;fill:rgb(0%,0%,0%);fill-opacity:1;" d="M 726.019531 235.523438 C 724.8125 217.042969 717.347656 201.832031 706.847656 191.464844 C 711.835938 192.847656 722.09375 192.847656 729.023438 187.859375 C 738.171875 181.757812 762.011719 171.085938 770.742188 175.664062 C 771.433594 177.183594 771.851562 180.652344 771.292969 182.871094 C 769.21875 177.324219 746.207031 185.917969 739.695312 188.550781 C 733.460938 191.464844 730.6875 195.339844 732.902344 204.074219 C 729.300781 201.023438 730.546875 198.117188 726.804688 195.898438 C 728.332031 199.5 729.578125 206.011719 729.992188 211.277344 C 728.605469 207.539062 726.109375 199.5 720.707031 194.789062 C 725.421875 203.933594 729.507812 225.902344 727.570312 237.542969 C 731.3125 237.542969 739.558594 233.871094 742.882812 231.238281 C 739.972656 235.394531 731.585938 238.304688 726.183594 239.417969 C 723.757812 242.324219 722.09375 249.808594 722.234375 253.96875 C 721.816406 248.839844 723.433594 236.339844 726.019531 235.523438 Z M 726.019531 235.523438 "/>
<path style=" stroke:none;fill-rule:evenodd;fill:rgb(0%,0%,0%);fill-opacity:1;" d="M 787.503906 228.246094 C 782.914062 223.136719 774.351562 220.371094 763.394531 223.339844 C 765.054688 222.503906 768.660156 221.121094 771.851562 220.570312 C 771.433594 217.65625 768.804688 205.183594 768.382812 202.132812 L 771.433594 200.886719 C 772.957031 208.371094 774.898438 216.964844 776.148438 220.425781 C 777.117188 220.707031 779.332031 221.121094 781.273438 222.089844 C 780.445312 219.179688 775.726562 198.253906 775.871094 196.035156 L 780.023438 193.820312 C 781.691406 205.183594 784.320312 221.675781 787.503906 228.246094 Z M 787.503906 228.246094 "/>
<path style="fill-rule:evenodd;fill:rgb(58.822632%,52.940369%,49.01886%);fill-opacity:1;stroke-width:0.492788;stroke-linecap:butt;stroke-linejoin:miter;stroke:rgb(0%,0%,0%);stroke-opacity:1;stroke-miterlimit:4;" d="M 785.019531 242.714844 C 787.230469 236.0625 785.847656 229.714844 776.425781 228.882812 C 769.117188 228.238281 761.195312 235.339844 751.816406 242.714844 Z M 785.019531 242.714844 "/>
<path style="fill-rule:evenodd;fill:rgb(58.822632%,52.940369%,49.01886%);fill-opacity:1;stroke-width:0.492788;stroke-linecap:butt;stroke-linejoin:miter;stroke:rgb(0%,0%,0%);stroke-opacity:1;stroke-miterlimit:4;" d="M 723.757812 183.007812 C 719.601562 183.5625 710.316406 182.730469 705.597656 181.207031 C 705.871094 179.957031 706.355469 178.660156 706.976562 177.285156 C 704.066406 179.226562 698.53125 183.007812 696.453125 185.640625 C 703.109375 187.027344 716.835938 187.714844 723.757812 183.007812 Z M 723.757812 183.007812 "/>
<path style="fill:none;stroke-width:0.492788;stroke-linecap:butt;stroke-linejoin:miter;stroke:rgb(0%,0%,0%);stroke-opacity:1;stroke-miterlimit:4;" d="M 723.589844 225.542969 C 725.117188 229.960938 726.113281 234.230469 726.253906 238.027344 "/>
<path style="fill:none;stroke-width:0.492788;stroke-linecap:butt;stroke-linejoin:miter;stroke:rgb(0%,0%,0%);stroke-opacity:1;stroke-miterlimit:4;" d="M 711.019531 170.261719 C 708.503906 173.9375 706.320312 177.867188 705.597656 181.207031 C 710.316406 182.730469 719.601562 183.5625 723.757812 183.007812 "/>
<path style="fill:none;stroke-width:0.492788;stroke-linecap:butt;stroke-linejoin:miter;stroke:rgb(0%,0%,0%);stroke-opacity:1;stroke-miterlimit:4;" d="M 701.960938 190.425781 C 703.753906 190.71875 705.433594 191.070312 706.847656 191.464844 C 711.835938 192.847656 722.09375 192.847656 729.023438 187.859375 C 735.953125 182.871094 754.800781 167.347656 776.148438 165.683594 "/>
<path style="fill:none;stroke-width:0.492788;stroke-linecap:butt;stroke-linejoin:miter;stroke:rgb(0%,0%,0%);stroke-opacity:1;stroke-miterlimit:4;" d="M 696.453125 185.640625 C 703.109375 187.027344 716.835938 187.714844 723.757812 183.007812 C 739.835938 172.058594 755.355469 165.683594 770.878906 164.851562 "/>
<path style="fill-rule:evenodd;fill:rgb(19.999695%,45.097351%,12.940979%);fill-opacity:1;stroke-width:0.492788;stroke-linecap:butt;stroke-linejoin:miter;stroke:rgb(0%,0%,0%);stroke-opacity:1;stroke-miterlimit:4;" d="M 812.738281 258.816406 C 836.019531 274.898438 853.207031 290.417969 858.195312 315.367188 C 863.183594 340.316406 872.613281 346.96875 884.253906 340.316406 C 881.480469 354.726562 867.066406 356.394531 854.871094 345.304688 C 855.976562 361.933594 849.324219 381.898438 832.140625 389.101562 C 831.03125 379.117188 837.625 371.21875 835.742188 363.042969 C 834.914062 359.441406 834.636719 351.121094 839.347656 347.246094 C 830.199219 350.292969 815.789062 344.46875 814.398438 330.890625 C 824.929688 335.878906 838.511719 336.710938 843.78125 323.40625 C 849.046875 310.097656 846.835938 287.371094 812.738281 258.816406 Z M 812.738281 258.816406 "/>
<path style="fill-rule:evenodd;fill:rgb(19.999695%,45.097351%,12.940979%);fill-opacity:1;stroke-width:0.492788;stroke-linecap:butt;stroke-linejoin:miter;stroke:rgb(0%,0%,0%);stroke-opacity:1;stroke-miterlimit:4;" d="M 842.117188 129.09375 C 849.324219 110.246094 868.175781 112.183594 874.550781 120.222656 C 893.121094 109.6875 895.617188 133.527344 911.414062 128.816406 C 911.140625 133.253906 905.871094 137.410156 900.054688 137.132812 C 906.148438 142.675781 897.558594 150.992188 910.582031 155.980469 C 899.5 161.523438 883.972656 155.707031 879.816406 140.457031 C 876.210938 147.664062 863.183594 147.664062 857.917969 141.847656 C 869.285156 138.792969 868.453125 128.261719 862.078125 124.105469 C 855.65625 119.914062 844.335938 121.609375 842.117188 129.09375 Z M 842.117188 129.09375 "/>
<path style="fill-rule:evenodd;fill:rgb(19.999695%,45.097351%,12.940979%);fill-opacity:1;stroke-width:0.492788;stroke-linecap:butt;stroke-linejoin:miter;stroke:rgb(0%,0%,0%);stroke-opacity:1;stroke-miterlimit:4;" d="M 785.886719 170.601562 C 791.058594 187.285156 801.761719 202.792969 813.289062 213.359375 C 826.59375 225.558594 846.691406 222.503906 857.917969 210.863281 C 858.195312 234.082031 834.152344 235.878906 820.773438 228.605469 C 814.878906 225.398438 810.113281 227.082031 815.789062 232.210938 C 824.378906 239.96875 843.175781 245.738281 865.402344 250.503906 C 904.207031 258.816406 890.351562 289.585938 878.988281 289.308594 C 882.242188 289.242188 884.917969 285.832031 880.230469 281.621094 C 846.554688 251.335938 778.089844 263.253906 779.195312 195.621094 C 771.988281 213.359375 742.332031 206.429688 756.1875 185.363281 C 760.621094 188.96875 768.382812 189.246094 770.605469 183.699219 C 772.328125 179.386719 771.199219 171.882812 763.433594 165.4375 C 764.710938 165.335938 767.453125 165.441406 767.171875 162.253906 C 767.515625 164.125 769.21875 166.894531 773.582031 165.957031 C 774.828125 167.9375 776.140625 169.234375 777.914062 168.523438 C 778.257812 168.382812 779.300781 167.867188 778.882812 165.890625 C 779.230469 169.5625 783.59375 170.882812 785.886719 170.601562 Z M 785.886719 170.601562 "/>
<path style="fill-rule:evenodd;fill:rgb(96.861267%,87.841797%,9.01947%);fill-opacity:1;stroke-width:0.492788;stroke-linecap:butt;stroke-linejoin:miter;stroke:rgb(0%,0%,0%);stroke-opacity:1;stroke-miterlimit:4;" d="M 820.773438 228.605469 C 836.847656 239.140625 855.027344 239.132812 871.777344 219.734375 C 877.046875 213.636719 885.359375 208.371094 891.183594 207.816406 C 897 207.261719 896.722656 201.714844 901.160156 200.609375 C 898.386719 199.777344 897.277344 196.453125 893.121094 196.867188 C 903.515625 193.261719 900.46875 184.949219 905.59375 180.929688 C 901.4375 182.453125 894.925781 176.214844 888.964844 184.113281 C 890.492188 180.511719 888.40625 176.214844 886.886719 174.550781 C 887.4375 178.710938 878.707031 179.539062 877.046875 190.074219 C 876.109375 195.988281 872.886719 195.621094 872.332031 186.472656 C 871.925781 179.78125 868.730469 161.246094 864.847656 151.824219 C 860.964844 142.398438 860.078125 129.460938 865.34375 127.519531 C 864.554688 126.179688 863.441406 124.996094 862.078125 124.105469 C 855.65625 119.914062 844.335938 121.609375 842.117188 129.09375 C 834.914062 147.941406 855.148438 158.753906 853.484375 179.265625 C 850.433594 164.019531 825.765625 160.140625 826.042969 145.167969 C 818 148.773438 819.109375 155.429688 822.160156 160.695312 C 817.171875 152.933594 805.804688 165.683594 796.101562 155.148438 C 794.996094 169.011719 807.195312 174.277344 817.171875 174.828125 C 812.179688 183.699219 818.835938 191.1875 825.484375 193.679688 C 825.765625 178.15625 857.59375 184.527344 857.917969 211.140625 C 858.195312 233.871094 833.800781 235.8125 820.773438 228.605469 Z M 820.773438 228.605469 "/>
<path style="fill-rule:evenodd;fill:rgb(96.861267%,87.841797%,9.01947%);fill-opacity:1;stroke-width:0.492788;stroke-linecap:butt;stroke-linejoin:miter;stroke:rgb(0%,0%,0%);stroke-opacity:1;stroke-miterlimit:4;" d="M 865.402344 250.503906 C 904.207031 258.816406 890.351562 289.585938 878.988281 289.308594 C 871.75 289.136719 864.847656 283.074219 864.433594 277.808594 C 856.117188 282.242188 858.335938 290.976562 864.710938 294.4375 C 847.246094 292.359375 839.902344 303.863281 839.484375 316.476562 C 842.671875 310.652344 852.375 310.238281 855.976562 311.488281 C 859.582031 312.730469 868.863281 313.429688 872.613281 309.269531 C 869.558594 311.902344 874.550781 318 870.253906 322.714844 C 884.804688 322.160156 891.183594 308.574219 888.6875 302.617188 C 907.535156 285.429688 903.929688 257.433594 865.402344 250.503906 Z M 865.402344 250.503906 "/>
<path style="fill-rule:evenodd;fill:rgb(96.861267%,87.841797%,9.01947%);fill-opacity:1;stroke-width:0.492788;stroke-linecap:butt;stroke-linejoin:miter;stroke:rgb(0%,0%,0%);stroke-opacity:1;stroke-miterlimit:4;" d="M 835.855469 382.207031 C 838.382812 383.785156 838.066406 387.097656 836.355469 389.195312 C 832.9375 393.402344 838.09375 403.433594 827.523438 405.121094 C 824.40625 405.621094 822.09375 403.632812 821.058594 400.066406 C 818.191406 390.195312 828.601562 389.515625 829.707031 384.914062 C 830.820312 380.304688 833.742188 380.882812 835.855469 382.207031 Z M 835.855469 382.207031 "/>
<path style="fill-rule:evenodd;fill:rgb(96.861267%,87.841797%,9.01947%);fill-opacity:1;stroke-width:0.492788;stroke-linecap:butt;stroke-linejoin:miter;stroke:rgb(0%,0%,0%);stroke-opacity:1;stroke-miterlimit:4;" d="M 826.324219 400.117188 C 829.738281 401.855469 832.667969 404.234375 830.847656 415.320312 C 830.089844 419.90625 829.917969 431.085938 833.933594 431.402344 C 831.410156 432.539062 826.097656 433.652344 824.046875 430.707031 C 821.820312 434.101562 817.144531 432.914062 815.453125 428.507812 C 812.902344 430.425781 809.632812 426.886719 809.746094 423.945312 C 807.527344 425.257812 803.277344 423.074219 804.613281 416.464844 C 801.949219 417.292969 798.617188 415.304688 797.449219 413.550781 C 801.347656 412.925781 811.296875 408.050781 813.78125 403.964844 C 816.261719 399.878906 822.375 398.101562 826.324219 400.117188 Z M 826.324219 400.117188 "/>
<path style="fill:none;stroke-width:0.492788;stroke-linecap:butt;stroke-linejoin:miter;stroke:rgb(0%,0%,0%);stroke-opacity:1;stroke-miterlimit:4;" d="M 824.046875 430.707031 C 825.1875 429.199219 825.832031 422.71875 825.210938 418.742188 "/>
<path style="fill:none;stroke-width:0.492788;stroke-linecap:butt;stroke-linejoin:miter;stroke:rgb(0%,0%,0%);stroke-opacity:1;stroke-miterlimit:4;" d="M 815.453125 428.507812 C 817.210938 427.261719 820.628906 422.902344 821.332031 418.980469 "/>
<path style="fill:none;stroke-width:0.492788;stroke-linecap:butt;stroke-linejoin:miter;stroke:rgb(0%,0%,0%);stroke-opacity:1;stroke-miterlimit:4;" d="M 809.746094 423.945312 C 811.949219 423.03125 817.476562 416.425781 818.8125 412.058594 "/>
<path style="fill:none;stroke-width:0.492788;stroke-linecap:butt;stroke-linejoin:miter;stroke:rgb(0%,0%,0%);stroke-opacity:1;stroke-miterlimit:4;" d="M 804.613281 416.464844 C 807.191406 416.023438 815.199219 411.226562 818.660156 405.941406 "/>
<path style="fill-rule:evenodd;fill:rgb(96.861267%,87.841797%,9.01947%);fill-opacity:1;stroke-width:0.492788;stroke-linecap:butt;stroke-linejoin:miter;stroke:rgb(0%,0%,0%);stroke-opacity:1;stroke-miterlimit:4;" d="M 779.195312 195.621094 C 778.726562 224.03125 790.539062 238.402344 806.898438 247.765625 C 800.816406 244.128906 803.449219 231.652344 795.273438 227.636719 C 797.210938 227.496094 800.261719 230.269531 805.113281 229.160156 C 802.757812 223.894531 798.871094 215.851562 789.863281 214.746094 C 792.222656 214.46875 797.351562 215.300781 800.679688 214.054688 C 795.964844 206.84375 783.492188 210.308594 779.195312 195.621094 Z M 779.195312 195.621094 "/>
<path style="fill-rule:evenodd;fill:rgb(96.861267%,87.841797%,9.01947%);fill-opacity:1;stroke-width:0.492788;stroke-linecap:butt;stroke-linejoin:miter;stroke:rgb(0%,0%,0%);stroke-opacity:1;stroke-miterlimit:4;" d="M 776.253906 168.597656 C 775.257812 168.273438 774.410156 167.269531 773.582031 165.957031 C 769.21875 166.894531 767.515625 164.125 767.171875 162.253906 C 767.453125 165.441406 764.691406 165.320312 763.410156 165.421875 C 771.214844 171.875 772.332031 179.378906 770.605469 183.699219 C 768.382812 189.246094 760.621094 188.96875 756.1875 185.363281 C 755.636719 197.144531 770.878906 201.023438 776.425781 186.195312 C 776.425781 188.6875 779.609375 188.410156 780.445312 191.738281 C 784.402344 185.367188 781.414062 176.214844 776.253906 168.597656 Z M 776.253906 168.597656 "/>
<path style="fill-rule:evenodd;fill:rgb(19.999695%,45.097351%,12.940979%);fill-opacity:1;stroke-width:0.492788;stroke-linecap:butt;stroke-linejoin:miter;stroke:rgb(0%,0%,0%);stroke-opacity:1;stroke-miterlimit:4;" d="M 751.890625 112.320312 C 744.960938 105.949219 741.773438 95.277344 742.050781 89.175781 C 742.332031 83.082031 744.824219 76.429688 753.695312 79.199219 C 750.917969 79.199219 752.863281 84.742188 749.949219 85.300781 C 752.308594 86.128906 755.496094 84.1875 755.914062 82.9375 C 756.464844 84.878906 760.070312 84.324219 760.347656 86.542969 C 761.734375 85.4375 760.210938 80.027344 758.128906 78.921875 C 759.652344 78.089844 760.484375 73.792969 759.789062 71.710938 C 758.40625 71.992188 756.328125 73.929688 755.914062 76.707031 C 756.605469 74.488281 755.773438 68.941406 751.890625 68.113281 C 750.78125 69.636719 750.503906 73.375 752.03125 75.457031 C 748.429688 74.625 743.160156 76.980469 741.910156 80.027344 C 742.191406 76.355469 742.695312 71.125 744.960938 67.835938 C 745.722656 66.722656 743.851562 64.78125 742.394531 67.417969 C 739.695312 62.148438 732.492188 59.378906 729.300781 62.011719 C 726.109375 64.644531 721.816406 60.765625 719.183594 64.921875 C 716.554688 69.078125 707.628906 69.519531 708.09375 73.929688 C 708.371094 76.566406 707.734375 80.632812 706.433594 82.109375 C 703.246094 85.714844 707.957031 88.347656 708.789062 91.53125 C 708.230469 81.003906 725.003906 60.488281 741.773438 68.527344 C 740.246094 71.160156 738.914062 76.417969 738.449219 82.800781 C 737.757812 92.226562 739.140625 105.535156 748.285156 113.292969 Z M 751.890625 112.320312 "/>
<path style="fill-rule:evenodd;fill:rgb(81.175232%,7.843018%,16.862488%);fill-opacity:1;stroke-width:0.492788;stroke-linecap:butt;stroke-linejoin:miter;stroke:rgb(0%,0%,0%);stroke-opacity:1;stroke-miterlimit:4;" d="M 756.878906 79.335938 C 756.792969 76.839844 761.109375 73.597656 766.929688 73.652344 C 773.925781 73.722656 779.332031 80.097656 784.945312 79.476562 C 790.558594 78.851562 787.789062 81.96875 786.609375 82.800781 C 785.433594 83.632812 784.742188 84.878906 785.15625 86.40625 C 785.566406 87.929688 784.851562 88.929688 782.59375 87.515625 C 777.601562 84.394531 772.613281 88.761719 766.027344 86.335938 C 760.320312 84.230469 757.019531 83.082031 756.878906 79.335938 Z M 756.878906 79.335938 "/>
<path style="fill-rule:evenodd;fill:rgb(58.822632%,52.940369%,49.01886%);fill-opacity:1;stroke-width:0.492788;stroke-linecap:butt;stroke-linejoin:miter;stroke:rgb(0%,0%,0%);stroke-opacity:1;stroke-miterlimit:4;" d="M 728.332031 144.753906 C 725.558594 136.023438 715.027344 126.460938 709.894531 124.242188 L 709.617188 119.53125 C 712.390625 118.421875 719.042969 113.15625 722.09375 110.246094 C 742.882812 120.222656 771.15625 106.085938 784.183594 91.394531 L 789.175781 94.445312 L 786.683594 97.769531 L 784.046875 96.382812 C 780.859375 100.265625 768.957031 111.460938 765.351562 113.820312 C 770.199219 115.042969 776.824219 115.890625 778.640625 115.789062 C 790.285156 107.472656 799.429688 99.988281 803.867188 99.433594 L 807.605469 104.421875 L 804.285156 106.777344 L 801.648438 105.253906 C 789.175781 115.511719 775.039062 137.964844 769.492188 152.933594 C 761.734375 151.269531 734.011719 152.375 728.332031 144.753906 Z M 728.332031 144.753906 "/>
<path style="fill:none;stroke-width:0.492788;stroke-linecap:butt;stroke-linejoin:miter;stroke:rgb(0%,0%,0%);stroke-opacity:1;stroke-miterlimit:4;" d="M 765.351562 113.820312 C 763.558594 113.367188 762.011719 112.847656 761.039062 112.320312 C 758.820312 114.398438 753.277344 116.203125 746.207031 116.480469 "/>
<path style="fill:none;stroke-width:0.492788;stroke-linecap:butt;stroke-linejoin:miter;stroke:rgb(0%,0%,0%);stroke-opacity:1;stroke-miterlimit:4;" d="M 729.441406 141.703125 C 727.570312 131.378906 730.546875 119.945312 735.8125 116.480469 C 747.320312 124.105469 767 124.105469 778.640625 115.789062 "/>
<path style="fill:none;stroke-width:0.492788;stroke-linecap:butt;stroke-linejoin:miter;stroke:rgb(0%,0%,0%);stroke-opacity:1;stroke-miterlimit:4;" d="M 729.441406 136.300781 C 738.308594 136.023438 757.574219 137.550781 762.285156 138.242188 C 767 138.933594 774.898438 140.871094 773.789062 143.230469 "/>
<path style="fill:none;stroke-width:0.492788;stroke-linecap:butt;stroke-linejoin:miter;stroke:rgb(0%,0%,0%);stroke-opacity:1;stroke-miterlimit:4;" d="M 733.539062 134.832031 L 736.089844 132.277344 L 733.539062 129.730469 L 730.996094 132.277344 Z M 733.539062 134.832031 "/>
<path style="fill-rule:evenodd;fill:rgb(19.999695%,45.097351%,12.940979%);fill-opacity:1;stroke-width:0.492788;stroke-linecap:butt;stroke-linejoin:miter;stroke:rgb(0%,0%,0%);stroke-opacity:1;stroke-miterlimit:4;" d="M 739.558594 83.21875 C 736.367188 78.785156 727.582031 77.378906 725.695312 83.355469 C 724.867188 85.992188 723.621094 88.761719 721.539062 90.011719 C 719.460938 91.253906 719.949219 95.03125 720.851562 96.664062 C 723.0625 100.679688 721.121094 104.5625 725.421875 107.195312 C 725.421875 104.007812 730.132812 100.679688 734.15625 99.847656 C 738.171875 99.019531 744.269531 95.414062 745.101562 91.394531 C 745.933594 87.375 747.320312 84.050781 739.558594 83.21875 Z M 739.558594 83.21875 "/>
<path style="fill-rule:evenodd;fill:rgb(58.822632%,52.940369%,49.01886%);fill-opacity:1;stroke-width:0.492788;stroke-linecap:butt;stroke-linejoin:miter;stroke:rgb(0%,0%,0%);stroke-opacity:1;stroke-miterlimit:4;" d="M 719.601562 123.132812 L 720.707031 123.132812 L 720.726562 130.710938 C 720.949219 130.792969 721.203125 130.898438 721.382812 131.0625 L 727.917969 127.292969 L 728.472656 128.253906 L 721.914062 132.058594 C 721.960938 132.300781 721.996094 132.570312 721.945312 132.808594 L 728.472656 136.582031 L 727.917969 137.539062 L 721.347656 133.769531 C 721.164062 133.921875 720.945312 134.089844 720.710938 134.164062 L 720.707031 141.707031 L 719.601562 141.707031 L 719.585938 134.128906 C 719.351562 134.046875 719.101562 133.941406 718.921875 133.777344 L 712.386719 137.542969 L 711.835938 136.585938 L 718.386719 132.777344 C 718.34375 132.539062 718.308594 132.269531 718.359375 132.03125 L 711.835938 128.253906 L 712.386719 127.292969 L 718.964844 131.070312 C 719.144531 130.917969 719.359375 130.75 719.597656 130.675781 Z M 719.601562 123.132812 "/>
<path style="fill-rule:evenodd;fill:rgb(58.822632%,52.940369%,49.01886%);fill-opacity:1;stroke-width:0.492788;stroke-linecap:butt;stroke-linejoin:miter;stroke:rgb(0%,0%,0%);stroke-opacity:1;stroke-miterlimit:4;" d="M 729.476562 141.671875 C 727.089844 144.066406 723.796875 145.550781 720.152344 145.550781 C 712.898438 145.550781 707.019531 139.671875 707.019531 132.417969 C 707.019531 125.167969 712.898438 119.289062 720.152344 119.289062 C 724.414062 119.289062 728.203125 121.316406 730.601562 124.460938 C 729.925781 126.113281 729.136719 129.820312 729.082031 131.503906 C 728.621094 126.976562 724.796875 123.445312 720.152344 123.445312 C 715.195312 123.445312 711.175781 127.460938 711.175781 132.417969 C 711.175781 137.378906 715.195312 141.394531 720.152344 141.394531 C 724.300781 141.394531 727.886719 138.492188 728.917969 134.671875 C 728.914062 136.316406 728.957031 140.285156 729.476562 141.671875 Z M 729.476562 141.671875 "/>
<path style="fill-rule:evenodd;fill:rgb(19.999695%,45.097351%,12.940979%);fill-opacity:1;stroke-width:0.492788;stroke-linecap:butt;stroke-linejoin:miter;stroke:rgb(0%,0%,0%);stroke-opacity:1;stroke-miterlimit:4;" d="M 714.605469 154.179688 C 713.777344 153.210938 712.257812 150.574219 712.390625 148.636719 C 713.640625 148.5 715.996094 149.328125 717.101562 150.433594 C 716.964844 149.050781 716.414062 146 716.691406 144.617188 C 718.210938 145.167969 721.398438 146.972656 722.507812 149.050781 C 722.234375 147.664062 721.675781 144.0625 722.234375 141.847656 C 723.898438 142.816406 726.667969 145.445312 727.222656 147.25 C 727.359375 144.476562 728.332031 139.90625 729.164062 138.792969 C 730.40625 140.042969 732.347656 141.148438 733.597656 142.816406 C 733.875 140.597656 734.980469 137.964844 736.644531 137.273438 C 737.894531 138.65625 739.835938 141.847656 740.246094 145.445312 C 741.5 145.03125 743.160156 142.953125 743.851562 141.847656 C 744.542969 142.953125 745.238281 144.894531 744.824219 147.25 C 746.347656 145.863281 748.148438 143.921875 748.566406 142.261719 C 749.675781 143.089844 751.753906 145.167969 752.308594 147.386719 C 752.03125 145.585938 752.167969 142.398438 751.617188 140.597656 C 753.695312 141.703125 755.355469 143.644531 755.773438 145.722656 C 756.328125 143.78125 757.574219 140.320312 758.683594 139.488281 C 759.789062 141.703125 760.902344 144.339844 760.761719 146.558594 C 761.453125 145.167969 762.566406 142.675781 763.671875 142.121094 C 764.644531 143.644531 764.507812 146.972656 764.226562 148.773438 C 765.199219 147.386719 767 145.722656 768.105469 145.167969 C 768.246094 146 768.382812 147.664062 768.105469 148.914062 C 769.355469 148.21875 771.433594 144.476562 772.128906 142.539062 C 774.066406 143.507812 776.007812 146.835938 776.148438 148.5 C 777.53125 147.941406 780.304688 145.445312 781.132812 144.0625 C 781.132812 145.03125 781.550781 147.664062 780.996094 149.742188 C 781.828125 148.914062 782.660156 147.25 783.078125 146.558594 C 783.628906 147.941406 783.214844 151.269531 782.660156 153.070312 C 783.910156 151.960938 785.710938 151.269531 786.820312 151.269531 C 786.957031 153.625 785.292969 157.785156 783.769531 160.832031 C 770.464844 157.089844 742.605469 155.707031 714.605469 154.179688 Z M 714.605469 154.179688 "/>
<path style=" stroke:none;fill-rule:evenodd;fill:rgb(96.861267%,87.841797%,9.01947%);fill-opacity:1;" d="M 761.007812 80.753906 C 760.941406 79.730469 763.222656 77.421875 767.304688 77.445312 C 772.199219 77.472656 776.722656 81.066406 780.652344 80.808594 C 784.582031 80.558594 782.644531 81.832031 781.820312 82.175781 C 780.992188 82.511719 780.503906 83.023438 780.796875 83.648438 C 781.089844 84.269531 780.585938 84.679688 779.003906 84.101562 C 775.511719 82.824219 772.019531 84.613281 767.410156 83.617188 C 763.410156 82.757812 761.105469 82.289062 761.007812 80.753906 Z M 761.007812 80.753906 "/>
<path style="fill-rule:evenodd;fill:rgb(96.861267%,87.841797%,9.01947%);fill-opacity:1;stroke-width:0.492788;stroke-linecap:butt;stroke-linejoin:miter;stroke:rgb(0%,0%,0%);stroke-opacity:1;stroke-miterlimit:4;" d="M 718.902344 162.496094 C 714.75 167.484375 710.589844 166.652344 709.757812 163.464844 C 708.925781 160.277344 711.980469 158.753906 710.867188 155.980469 C 709.757812 153.210938 712.667969 151.960938 714.054688 153.210938 C 715.4375 154.457031 719.871094 150.433594 721.816406 154.59375 C 723.757812 158.753906 725.285156 161.660156 724.167969 163.324219 C 723.0625 164.992188 719.734375 164.160156 718.902344 162.496094 Z M 718.902344 162.496094 "/>
<path style="fill-rule:evenodd;fill:rgb(96.861267%,87.841797%,9.01947%);fill-opacity:1;stroke-width:0.492788;stroke-linecap:butt;stroke-linejoin:miter;stroke:rgb(0%,0%,0%);stroke-opacity:1;stroke-miterlimit:4;" d="M 736.785156 155.007812 C 736.003906 153.1875 740.320312 149.675781 742.535156 152.167969 C 744.753906 154.664062 748.21875 149.464844 750.160156 153.417969 C 752.101562 157.363281 752.722656 159.445312 753.695312 161.660156 C 754.667969 163.878906 748.429688 165.058594 746.484375 163.117188 C 746.765625 164.4375 741.101562 165.464844 739.558594 161.730469 C 738.726562 159.726562 737.824219 157.4375 736.785156 155.007812 Z M 736.785156 155.007812 "/>
<path style="fill-rule:evenodd;fill:rgb(96.861267%,87.841797%,9.01947%);fill-opacity:1;stroke-width:0.492788;stroke-linecap:butt;stroke-linejoin:miter;stroke:rgb(0%,0%,0%);stroke-opacity:1;stroke-miterlimit:4;" d="M 765.613281 157.296875 C 764.570312 155.359375 769.632812 152.582031 772.265625 156.121094 C 772.957031 154.664062 777.949219 154.386719 778.296875 158.613281 C 778.640625 162.839844 778.78125 165.335938 778.917969 167 C 779.058594 168.664062 775.871094 170.1875 773.582031 165.957031 C 769.492188 166.792969 767.621094 164.507812 767.136719 162.082031 C 766.652344 159.65625 766.167969 158.476562 765.613281 157.296875 Z M 765.613281 157.296875 "/>
<path style="fill-rule:evenodd;fill:rgb(19.999695%,45.097351%,12.940979%);fill-opacity:1;stroke-width:0.492788;stroke-linecap:butt;stroke-linejoin:miter;stroke:rgb(0%,0%,0%);stroke-opacity:1;stroke-miterlimit:4;" d="M 721.609375 154.523438 C 720.988281 153.140625 725.144531 150.367188 727.980469 152.445312 C 730.828125 154.523438 734.761719 150.65625 736.441406 154.386719 C 739.835938 161.941406 740.042969 162.496094 739 163.949219 C 737.960938 165.40625 733.527344 164.851562 732.417969 162.839844 C 732.210938 164.230469 728.386719 163.996094 726.390625 162.910156 C 724.105469 161.660156 722.507812 157.019531 721.609375 154.523438 Z M 721.609375 154.523438 "/>
<path style="fill-rule:evenodd;fill:rgb(19.999695%,45.097351%,12.940979%);fill-opacity:1;stroke-width:0.492788;stroke-linecap:butt;stroke-linejoin:miter;stroke:rgb(0%,0%,0%);stroke-opacity:1;stroke-miterlimit:4;" d="M 750.78125 154.871094 C 749.8125 152.722656 756.328125 150.855469 759.167969 154.59375 C 760.621094 153.277344 763.808594 153.210938 765.613281 157.296875 C 767.414062 161.386719 767.691406 163.671875 766.375 164.714844 C 765.445312 165.441406 762.078125 166.027344 760.96875 164.160156 C 759.445312 165.128906 754.730469 164.300781 753.695312 161.660156 C 752.652344 159.027344 751.753906 156.742188 750.78125 154.871094 Z M 750.78125 154.871094 "/>
<path style="fill-rule:evenodd;fill:rgb(19.999695%,45.097351%,12.940979%);fill-opacity:1;stroke-width:0.492788;stroke-linecap:butt;stroke-linejoin:miter;stroke:rgb(0%,0%,0%);stroke-opacity:1;stroke-miterlimit:4;" d="M 778.363281 158.960938 C 778.222656 157.019531 781.761719 156.121094 783.078125 158.960938 C 784.394531 161.800781 788.601562 159.246094 788.96875 163.949219 C 789.035156 164.851562 788.480469 168.316406 787.167969 169.980469 C 785.847656 171.644531 779.402344 169.980469 778.988281 166.445312 C 778.574219 162.910156 778.433594 160.902344 778.363281 158.960938 Z M 778.363281 158.960938 "/>
<path style="fill:none;stroke-width:0.492788;stroke-linecap:butt;stroke-linejoin:miter;stroke:rgb(0%,0%,0%);stroke-opacity:1;stroke-miterlimit:4;" d="M 718.902344 162.496094 C 717.382812 160.417969 715.300781 157.089844 712.667969 160.695312 "/>
<path style="fill:none;stroke-width:0.492788;stroke-linecap:butt;stroke-linejoin:miter;stroke:rgb(0%,0%,0%);stroke-opacity:1;stroke-miterlimit:4;" d="M 732.417969 162.839844 C 731.519531 161.660156 730.34375 159.726562 729.925781 158.199219 "/>
<path style="fill:none;stroke-width:0.492788;stroke-linecap:butt;stroke-linejoin:miter;stroke:rgb(0%,0%,0%);stroke-opacity:1;stroke-miterlimit:4;" d="M 746.484375 163.117188 C 745.515625 162.425781 744.058594 161.039062 743.296875 159.582031 "/>
<path style="fill:none;stroke-width:0.492788;stroke-linecap:butt;stroke-linejoin:miter;stroke:rgb(0%,0%,0%);stroke-opacity:1;stroke-miterlimit:4;" d="M 745.238281 155.84375 C 747.664062 156.121094 749.328125 158.40625 750.089844 159.445312 C 750.855469 160.484375 752.445312 162.355469 753.695312 162.566406 "/>
<path style="fill:none;stroke-width:0.492788;stroke-linecap:butt;stroke-linejoin:miter;stroke:rgb(0%,0%,0%);stroke-opacity:1;stroke-miterlimit:4;" d="M 760.96875 164.160156 C 760.136719 162.839844 759.304688 161.660156 759.101562 160.695312 "/>
<path style="fill:none;stroke-width:0.492788;stroke-linecap:butt;stroke-linejoin:miter;stroke:rgb(0%,0%,0%);stroke-opacity:1;stroke-miterlimit:4;" d="M 759.167969 154.59375 C 759.996094 155.773438 760.621094 156.742188 761.109375 157.851562 "/>
<path style="fill:none;stroke-width:0.492788;stroke-linecap:butt;stroke-linejoin:miter;stroke:rgb(0%,0%,0%);stroke-opacity:1;stroke-miterlimit:4;" d="M 773.582031 165.957031 C 772.472656 163.878906 770.742188 161.871094 769.289062 161.175781 "/>
<path style="fill:none;stroke-width:0.492788;stroke-linecap:butt;stroke-linejoin:miter;stroke:rgb(0%,0%,0%);stroke-opacity:1;stroke-miterlimit:4;" d="M 773.027344 158.335938 C 773.164062 162.425781 778.640625 162.703125 778.847656 165.613281 "/>
<path style="fill:none;stroke-width:0.492788;stroke-linecap:butt;stroke-linejoin:miter;stroke:rgb(0%,0%,0%);stroke-opacity:1;stroke-miterlimit:4;" d="M 783.078125 158.960938 C 783.628906 160.003906 783.835938 161.039062 783.910156 162.773438 "/>
</g>
</svg>
