<?xml version="1.0" encoding="UTF-8"?>
<svg xmlns="http://www.w3.org/2000/svg" xmlns:xlink="http://www.w3.org/1999/xlink" viewBox="0 0 1000 667" version="1.1">
<defs>
<clipPath id="clip1">
  <path d="M 0 500 L 1000 500 L 1000 666.71875 L 0 666.71875 Z M 0 500 "/>
</clipPath>
</defs>
<g id="surface985">
<path style=" stroke:none;fill-rule:evenodd;fill:rgb(0%,63.136292%,87.057495%);fill-opacity:1;" d="M 0 0 L 1000 0 L 1000 333.332031 L 0 333.332031 Z M 0 0 "/>
<path style=" stroke:none;fill-rule:evenodd;fill:rgb(98.03772%,82.351685%,0.392151%);fill-opacity:1;" d="M 0 333.332031 L 1000 333.332031 L 1000 500 L 0 500 Z M 0 333.332031 "/>
<g clip-path="url(#clip1)" clip-rule="nonzero">
<path style=" stroke:none;fill-rule:evenodd;fill:rgb(12.548828%,37.646484%,23.921204%);fill-opacity:1;" d="M 0 500 L 1000 500 L 1000 666.667969 L 0 666.667969 Z M 0 500 "/>
</g>
<path style=" stroke:none;fill-rule:evenodd;fill:rgb(89.802551%,74.508667%,0.392151%);fill-opacity:1;" d="M 928.332031 174.167969 L 853.882812 178.515625 L 924.667969 201.992188 L 851.628906 186.921875 L 913.933594 227.917969 L 847.277344 194.457031 L 896.847656 250.179688 L 841.121094 200.609375 L 874.585938 267.265625 L 833.589844 204.960938 L 848.65625 278.003906 L 825.1875 207.214844 L 820.832031 281.664062 L 819.90625 173.242188 Z M 928.332031 174.167969 "/>
<path style=" stroke:none;fill-rule:evenodd;fill:rgb(89.802551%,74.508667%,0.392151%);fill-opacity:1;" d="M 928.332031 174.167969 L 853.882812 169.816406 L 924.667969 146.34375 L 851.628906 161.410156 L 913.933594 120.414062 L 847.277344 153.875 L 896.847656 98.152344 L 841.121094 147.722656 L 874.585938 81.066406 L 833.589844 143.371094 L 848.65625 70.332031 L 825.1875 141.117188 L 820.832031 66.667969 L 819.90625 175.09375 Z M 928.332031 174.167969 "/>
<path style=" stroke:none;fill-rule:evenodd;fill:rgb(89.802551%,74.508667%,0.392151%);fill-opacity:1;" d="M 713.332031 174.167969 L 787.785156 178.515625 L 716.996094 201.992188 L 790.039062 186.921875 L 727.734375 227.917969 L 794.390625 194.457031 L 744.816406 250.179688 L 800.542969 200.609375 L 767.085938 267.265625 L 808.078125 204.960938 L 793.007812 278.003906 L 816.484375 207.214844 L 820.832031 281.664062 L 821.757812 173.242188 Z M 713.332031 174.167969 "/>
<path style=" stroke:none;fill-rule:evenodd;fill:rgb(89.802551%,74.508667%,0.392151%);fill-opacity:1;" d="M 713.332031 174.167969 L 787.785156 169.816406 L 716.996094 146.34375 L 790.039062 161.410156 L 727.734375 120.414062 L 794.390625 153.875 L 744.816406 98.152344 L 800.542969 147.722656 L 767.085938 81.066406 L 808.078125 143.371094 L 793.007812 70.332031 L 816.484375 141.117188 L 820.832031 66.667969 L 821.757812 175.09375 Z M 713.332031 174.167969 "/>
<path style="fill-rule:evenodd;fill:rgb(89.802551%,74.508667%,0.392151%);fill-opacity:1;stroke-width:3.148148;stroke-linecap:butt;stroke-linejoin:miter;stroke:rgb(0%,63.136292%,87.057495%);stroke-opacity:1;stroke-miterlimit:4;" d="M 852.59375 174.167969 C 852.59375 191.703125 838.375 205.929688 820.832031 205.929688 C 803.296875 205.929688 789.078125 191.703125 789.078125 174.167969 C 789.078125 156.625 803.296875 142.40625 820.832031 142.40625 C 838.375 142.40625 852.59375 156.625 852.59375 174.167969 Z M 852.59375 174.167969 "/>
</g>
</svg>
