<?xml version="1.0" encoding="UTF-8"?>
<svg xmlns="http://www.w3.org/2000/svg" xmlns:xlink="http://www.w3.org/1999/xlink" viewBox="0 0 1000 500" version="1.1">
<g id="surface1025">
<rect x="0" y="0" width="1000" height="500" style="fill:rgb(80.783081%,6.666565%,14.901733%);fill-opacity:1;stroke:none;"/>
<path style=" stroke:none;fill-rule:evenodd;fill:rgb(0%,16.862488%,49.803162%);fill-opacity:1;" d="M 0 0 L 500 0 L 500 250 L 0 250 Z M 0 0 "/>
<path style="fill-rule:nonzero;fill:rgb(99.998474%,99.998474%,99.998474%);fill-opacity:1;stroke-width:1;stroke-linecap:square;stroke-linejoin:miter;stroke:rgb(99.998474%,99.998474%,99.998474%);stroke-opacity:1;stroke-miterlimit:3.239307;" d="M 236.738281 214.355469 L 228.542969 239.582031 L 250 223.992188 L 271.457031 239.582031 L 263.261719 214.355469 L 284.722656 198.765625 L 258.195312 198.765625 L 250 173.539062 L 241.804688 198.765625 L 215.277344 198.765625 Z M 236.738281 214.355469 "/>
<path style="fill-rule:nonzero;fill:rgb(99.998474%,99.998474%,99.998474%);fill-opacity:1;stroke-width:1;stroke-linecap:square;stroke-linejoin:miter;stroke:rgb(99.998474%,99.998474%,99.998474%);stroke-opacity:1;stroke-miterlimit:3.239307;" d="M 163 105.105469 L 156.441406 125 L 173.609375 112.703125 L 190.777344 125 L 184.222656 105.105469 L 201.390625 92.8125 L 180.167969 92.8125 L 173.609375 72.917969 L 167.054688 92.8125 L 145.832031 92.8125 Z M 163 105.105469 "/>
<path style="fill-rule:nonzero;fill:rgb(99.998474%,99.998474%,99.998474%);fill-opacity:1;stroke-width:1;stroke-linecap:square;stroke-linejoin:miter;stroke:rgb(99.998474%,99.998474%,99.998474%);stroke-opacity:1;stroke-miterlimit:3.239307;" d="M 318.179688 92.542969 L 312.03125 111.109375 L 328.125 99.636719 L 344.21875 111.109375 L 338.070312 92.542969 L 354.167969 81.066406 L 334.273438 81.066406 L 328.125 62.5 L 321.976562 81.066406 L 302.082031 81.066406 Z M 318.179688 92.542969 "/>
<path style="fill-rule:nonzero;fill:rgb(99.998474%,99.998474%,99.998474%);fill-opacity:1;stroke-width:1;stroke-linecap:square;stroke-linejoin:miter;stroke:rgb(99.998474%,99.998474%,99.998474%);stroke-opacity:1;stroke-miterlimit:3.239307;" d="M 239.390625 42.605469 L 232.832031 62.5 L 250 50.203125 L 267.167969 62.5 L 260.609375 42.605469 L 277.777344 30.3125 L 256.558594 30.3125 L 250 10.417969 L 243.441406 30.3125 L 222.222656 30.3125 Z M 239.390625 42.605469 "/>
<path style="fill-rule:nonzero;fill:rgb(99.998474%,99.998474%,99.998474%);fill-opacity:1;stroke-width:1;stroke-linecap:square;stroke-linejoin:miter;stroke:rgb(99.998474%,99.998474%,99.998474%);stroke-opacity:1;stroke-miterlimit:3.239307;" d="M 281.5625 147.109375 L 277.464844 159.722656 L 288.195312 151.925781 L 298.925781 159.722656 L 294.824219 147.109375 L 305.554688 139.3125 L 292.292969 139.3125 L 288.195312 126.699219 L 284.09375 139.3125 L 270.832031 139.3125 Z M 281.5625 147.109375 "/>
</g>
</svg>
