<?xml version="1.0" encoding="UTF-8"?>
<svg xmlns="http://www.w3.org/2000/svg" xmlns:xlink="http://www.w3.org/1999/xlink" viewBox="0 0 1000 667" version="1.1">
<defs>
<clipPath id="clip1">
  <path d="M 0 0 L 1000 0 L 1000 666.71875 L 0 666.71875 Z M 0 0 "/>
</clipPath>
</defs>
<g id="surface1040">
<g clip-path="url(#clip1)" clip-rule="nonzero">
<path style=" stroke:none;fill-rule:evenodd;fill:rgb(0%,42.352295%,20.783997%);fill-opacity:1;" d="M 0 666.667969 L 0 0 L 1000 0 L 1000 666.667969 Z M 0 666.667969 "/>
</g>
<path style=" stroke:none;fill-rule:evenodd;fill:rgb(99.998474%,99.998474%,99.998474%);fill-opacity:1;" d="M 431.042969 157.453125 C 430.519531 157.433594 429.753906 157.726562 428.664062 158.371094 C 426.222656 160.007812 421.394531 165.039062 421.25 170.828125 C 421.101562 174.09375 420.480469 174.082031 422.625 176.160156 C 424.167969 178.390625 425.710938 178.171875 428.835938 176.535156 C 430.625 175.214844 431.230469 174.375 431.828125 172.160156 C 432.570312 168.449219 427.921875 173.921875 427.328125 169.785156 C 426.296875 165.949219 429.257812 164.375 432.082031 160.664062 C 432.148438 158.914062 432.175781 157.488281 431.042969 157.453125 Z M 476.457031 157.703125 C 475.585938 157.816406 474.519531 158.9375 473.039062 161.621094 C 471.980469 164.425781 467.402344 168.683594 470.703125 177.453125 C 473.40625 183.015625 474.511719 192.050781 473.289062 202.121094 C 471.421875 204.980469 470.988281 205.96875 468.542969 208.828125 C 465.089844 212.535156 461.359375 211.589844 458.496094 210.203125 C 455.820312 208.398438 453.714844 207.472656 452.5 201.746094 C 452.722656 192.609375 453.25 177.671875 451.582031 174.492188 C 449.121094 169.582031 445.066406 171.339844 443.332031 172.824219 C 435 180.441406 430.886719 193.300781 428.371094 203.535156 C 426.0625 210.988281 423.601562 208.835938 421.875 205.828125 C 417.664062 201.882812 417.371094 171.046875 412.292969 176.121094 C 404.152344 199.375 416.960938 224.84375 425.832031 222.371094 C 432.234375 225.019531 436.296875 212.839844 438.914062 199.492188 C 440.710938 195.75 442.078125 195.316406 442.996094 197.246094 C 442.761719 214.988281 444.269531 218.945312 448.828125 224.328125 C 459.003906 232.175781 467.421875 225.324219 468.078125 224.660156 L 475.996094 216.746094 C 477.761719 214.890625 480.089844 214.777344 482.578125 216.414062 C 485 218.613281 484.6875 222.402344 489.871094 225.039062 C 494.230469 226.785156 503.546875 225.460938 505.703125 221.703125 C 508.613281 216.71875 509.316406 215.007812 510.664062 213.117188 C 512.742188 210.359375 516.289062 211.582031 516.289062 212.453125 C 515.957031 213.992188 513.875 215.515625 515.285156 218.289062 C 517.753906 220.136719 518.332031 218.945312 519.792969 218.535156 C 524.953125 216.066406 528.828125 204.871094 528.828125 204.871094 C 529.0625 200.691406 526.6875 201.007812 525.164062 201.867188 C 523.183594 203.078125 523.058594 203.488281 521.078125 204.699219 C 518.554688 205.078125 513.664062 206.746094 511.25 202.996094 C 508.777344 198.488281 508.761719 192.207031 506.875 187.664062 C 506.875 187.328125 503.566406 180.515625 506.621094 180.078125 C 508.164062 180.363281 511.476562 181.214844 512 178.449219 C 513.613281 175.753906 508.507812 168.105469 505.039062 164.246094 C 502.023438 160.9375 497.863281 160.535156 493.828125 163.914062 C 491.007812 166.511719 491.425781 169.410156 490.871094 172.160156 C 490.15625 175.316406 490.292969 179.230469 493.496094 183.410156 C 496.316406 188.972656 501.4375 196.101562 499.746094 206.160156 C 499.746094 206.160156 496.769531 210.949219 491.535156 210.324219 C 489.355469 209.851562 485.808594 208.90625 483.914062 194.953125 C 482.488281 184.386719 484.269531 169.589844 479.792969 162.664062 C 478.777344 160.046875 477.910156 157.507812 476.457031 157.703125 Z M 462.082031 158.820312 C 460.730469 158.9375 459.226562 160.519531 458 163.574219 C 456.945312 165.890625 455.664062 178.035156 455.871094 178.035156 C 455.035156 181.648438 459.648438 183.175781 461.75 178.535156 C 464.898438 170.019531 464.914062 166.394531 465.125 162.78125 C 464.636719 160.035156 463.4375 158.703125 462.082031 158.820312 Z M 515.164062 159.777344 C 513.769531 159.910156 512.664062 160.722656 512.246094 162.78125 C 511.691406 167.625 511.980469 170.253906 512.792969 174.285156 C 513.410156 176.964844 517.324219 181.464844 519.25 184.074219 C 528.441406 196.433594 537.292969 208.847656 545.832031 221.699219 C 547.175781 231.238281 548.160156 240.574219 548.789062 249.863281 C 550.175781 270.242188 550.597656 295.613281 549.335938 317.070312 C 553.152344 317.226562 559.269531 310.90625 561.421875 301.660156 C 562.8125 288.859375 560.917969 262.753906 560.796875 255.203125 C 560.703125 252.0625 560.507812 248.320312 560.292969 244.410156 C 570.226562 260.644531 579.871094 277.851562 589.328125 296.738281 C 592.78125 295.097656 592.019531 275.675781 590 272.949219 C 582.421875 256.648438 571.960938 240.554688 568.625 234.363281 C 567.421875 232.128906 563.320312 225.890625 558.457031 218.699219 C 557.566406 208.433594 556.589844 199.738281 555.957031 197.117188 C 554.394531 186.261719 560.417969 198.339844 559.582031 192.03125 C 557.628906 181.191406 551.648438 173.828125 544.582031 163.90625 C 542.304688 160.675781 542.351562 160.019531 538.835938 164.691406 C 536.730469 169.464844 536.757812 173.433594 537.375 177.15625 C 536.453125 175.8125 535.308594 174.21875 533.664062 172.238281 C 527.566406 167.003906 527.1875 166.71875 522.121094 162.449219 C 520.527344 161.316406 517.488281 159.570312 515.171875 159.777344 Z M 672.5 161.40625 C 671.824219 161.300781 671.078125 161.632812 670.246094 162.863281 C 668.660156 164.257812 666.945312 166.785156 667 170.035156 C 667.382812 175.75 668.40625 181.609375 668.789062 187.324219 C 668.925781 188.085938 669.066406 188.847656 669.203125 189.617188 C 668.59375 188.835938 668.054688 188.222656 667.746094 187.910156 C 656.601562 176.199219 672.871094 185.996094 665.625 176.945312 C 659.492188 170.222656 657.703125 168.078125 652.453125 164.03125 C 649.824219 162.328125 648.234375 159.082031 647.375 164.617188 C 647.03125 169.472656 646.671875 175.101562 647 179.199219 C 646.980469 181.476562 649.335938 185.761719 651.375 188.28125 C 658.808594 197.414062 666.40625 207.140625 674.042969 217.285156 C 675.644531 237.96875 676.074219 256.933594 677.707031 277.65625 C 677.472656 286.523438 674.753906 298.296875 672.167969 299.410156 C 672.167969 299.410156 668.214844 301.671875 665.578125 299.152344 C 663.664062 298.386719 655.996094 286.367188 655.996094 286.367188 C 652.078125 282.765625 649.460938 283.796875 646.667969 286.367188 C 638.964844 293.800781 635.480469 307.726562 630.246094 317.324219 C 628.898438 319.464844 625.097656 321.289062 620.871094 317.15625 C 610.144531 302.492188 616.421875 281.628906 615.085938 286.992188 C 605.527344 297.761719 609.757812 315.613281 611.914062 319.445312 C 615.066406 325.753906 617.617188 329.792969 623.75 332.910156 C 629.335938 337.019531 633.683594 334.453125 636.078125 331.574219 C 641.703125 325.75 641.777344 310.851562 644.414062 307.910156 C 646.269531 302.492188 650.90625 303.425781 653.164062 305.828125 C 655.359375 308.976562 657.941406 311.027344 661.164062 312.742188 C 666.40625 317.363281 672.664062 318.203125 678.835938 313.992188 C 683.046875 311.628906 685.78125 308.554688 688.25 302.492188 C 690.898438 295.410156 689.589844 258.300781 688.996094 237.65625 C 692.953125 243.234375 696.867188 248.933594 700.75 254.699219 C 702.453125 272.816406 703.230469 290.664062 702.664062 307.78125 C 702.265625 311.183594 714.539062 297.625 714.460938 291.199219 C 714.402344 285.578125 714.464844 280.480469 714.460938 275.742188 C 720.410156 285.246094 726.179688 294.914062 731.621094 304.699219 C 735 302.910156 733.839844 283.796875 731.703125 281.160156 C 726.003906 271.582031 718.699219 261.242188 713.039062 253.242188 C 711.921875 243.136719 710.398438 231.222656 709.707031 227.570312 C 708.625 221.882812 707.546875 213.328125 705.917969 206.574219 C 705.46875 203.933594 704.113281 195.507812 704.539062 194.699219 C 705.207031 192.8125 707.722656 194.757812 708.957031 192.570312 C 710.8125 190.554688 702.535156 169.109375 698.332031 162.988281 C 696.824219 160.246094 694.089844 161.199219 690.710938 165.660156 C 687.570312 168.585938 688.714844 175.285156 689.914062 181.652344 C 693.027344 197.882812 695.800781 214.421875 698 230.90625 C 693.933594 224.863281 688.972656 217.546875 684.082031 210.488281 C 683.953125 209.8125 683.457031 207.316406 683.457031 207.277344 C 683.457031 206.992188 682.785156 194.003906 682.207031 190.90625 C 682.101562 189.648438 681.804688 189.289062 683.125 189.445312 C 684.519531 190.625 684.707031 190.683594 685.578125 191.074219 C 686.992188 191.335938 688.222656 188.945312 687.375 186.738281 C 683.015625 178.699219 678.652344 170.617188 674.289062 162.570312 C 673.761719 162.058594 673.175781 161.511719 672.5 161.40625 Z M 266.457031 161.824219 C 264.042969 161.75 261.375 163.253906 262.414062 166.160156 C 261.808594 167.742188 267.148438 173.089844 268.085938 176.027344 C 268.925781 178.125 267.253906 184.871094 268.996094 185.488281 C 270.613281 186.183594 272.824219 180.820312 273.664062 175.867188 C 274.132812 173.152344 273.785156 163.851562 267.460938 161.945312 C 267.136719 161.875 266.804688 161.828125 266.457031 161.824219 Z M 729.003906 161.875 C 728.457031 161.933594 727.785156 162.816406 726.757812 165 C 724.285156 169.050781 723.433594 176.300781 724.421875 182.707031 C 730.378906 222.980469 734.796875 261.972656 735.714844 297.671875 C 735.203125 301.054688 735.050781 302.859375 733.464844 307.128906 C 729.949219 311.632812 726.074219 317.277344 722.421875 320 C 718.769531 322.722656 711.003906 325.316406 708.464844 327.335938 C 700.402344 331.992188 700.363281 337.351562 706.882812 337.546875 C 718.105469 336.238281 731.394531 335.316406 740.546875 321.503906 C 742.996094 317.628906 745.878906 307.136719 746.003906 300.710938 C 746.863281 263.046875 745.519531 226.222656 739.882812 199.003906 C 739.519531 196.347656 738.347656 190.253906 738.796875 189.460938 C 739.523438 187.597656 743.195312 189.648438 744.503906 187.5 C 746.425781 185.539062 735.007812 170.917969 731.003906 164.667969 C 730.207031 163.097656 729.714844 161.808594 729.003906 161.875 Z M 611.257812 162.5 C 610.796875 162.585938 610.109375 163.289062 608.839844 164.960938 C 605.703125 175.214844 604.601562 183.59375 605.800781 189.960938 C 613.851562 232.003906 622.109375 270.3125 620.800781 310.332031 C 624.617188 310.359375 629.035156 301.59375 630.925781 292.917969 C 631.953125 280.96875 630.234375 273.691406 629.921875 266.667969 C 629.617188 259.640625 621.972656 202.648438 620.421875 197.335938 C 618.554688 187.285156 627.851562 196.015625 626.839844 190.171875 C 623.625 182.800781 615.597656 172.070312 613.089844 165.671875 C 612.148438 163.953125 612.03125 162.371094 611.257812 162.5 Z M 324.550781 163.296875 C 323.5625 163.464844 322.601562 164.285156 322.257812 165.625 C 322.039062 166.511719 322.636719 167.976562 321.839844 168.417969 C 321.378906 168.878906 319.640625 168.566406 319.714844 166.125 C 319.714844 165.351562 319.148438 164.539062 318.800781 164.042969 C 318.449219 163.816406 318.214844 163.75 317.589844 163.75 C 316.828125 163.785156 316.839844 163.984375 316.425781 164.628906 C 316.238281 165.28125 315.996094 165.917969 315.996094 166.667969 C 315.90625 167.539062 315.554688 167.832031 314.914062 167.953125 C 314.199219 167.953125 314.367188 168.035156 313.789062 167.671875 C 313.441406 167.292969 313.039062 167.140625 313.039062 166.496094 C 313.039062 165.832031 312.863281 164.773438 312.664062 164.335938 C 312.363281 163.933594 311.882812 163.722656 311.328125 163.578125 C 308.332031 163.59375 308.117188 167.039062 308.289062 168.332031 C 308.066406 168.578125 307.953125 174.683594 312.039062 176.375 C 317.527344 178.992188 327.808594 177.882812 327.371094 169.042969 C 327.371094 168.261719 327.199219 165.632812 327.121094 164.914062 C 326.5625 163.613281 325.527344 163.117188 324.539062 163.296875 Z M 398.132812 163.378906 C 396.238281 163.476562 394.5625 164.015625 393.132812 164.753906 C 389.5 168.234375 388.648438 173.816406 391.511719 177.292969 C 394.296875 178.605469 397.078125 181.414062 395.214844 182.960938 C 387.335938 191.375 366.835938 205.4375 365.800781 208 C 365.796875 208.019531 365.761719 208.066406 365.761719 208.085938 C 365.753906 208.105469 365.761719 208.152344 365.761719 208.171875 C 365.761719 208.175781 365.753906 208.203125 365.761719 208.210938 C 365.769531 208.230469 365.789062 208.273438 365.800781 208.296875 C 365.808594 208.300781 365.832031 208.328125 365.839844 208.332031 C 365.847656 208.339844 365.878906 208.332031 365.886719 208.332031 C 365.890625 208.339844 365.917969 208.371094 365.925781 208.378906 C 365.9375 208.378906 365.957031 208.371094 365.96875 208.378906 C 365.96875 208.378906 366.003906 208.417969 366.007812 208.417969 C 367.050781 209.113281 379.882812 209.101562 381.300781 208.457031 C 381.308594 208.457031 381.335938 208.425781 381.339844 208.417969 C 381.347656 208.417969 381.378906 208.417969 381.386719 208.417969 C 381.386719 208.417969 381.378906 208.378906 381.386719 208.378906 C 385.796875 206.75 406.71875 182.832031 406.71875 182.832031 C 405.632812 181.910156 404.636719 181.222656 403.546875 180.292969 C 402.390625 179.289062 402.507812 178.300781 403.546875 177.292969 C 408.730469 174.277344 407.089844 167.644531 404.382812 164.628906 C 402.140625 163.621094 400.027344 163.28125 398.132812 163.378906 Z M 590.46875 163.457031 C 589.914062 163.515625 589.246094 164.363281 588.214844 166.542969 C 585.742188 170.589844 584.0625 177.648438 584.257812 184.25 C 589.617188 221.335938 591.257812 253.789062 594.757812 290.878906 C 595.046875 294.464844 594.519531 299.675781 592.136719 301.75 C 583.3125 310.957031 570.597656 322.316406 556.757812 327.546875 C 555.265625 329.21875 560.460938 336.339844 567.175781 336.335938 C 578.40625 335.035156 588.273438 328.730469 597.429688 312.128906 C 599.875 308.253906 604.171875 299.964844 604.304688 293.542969 C 605.15625 255.878906 602.402344 226.59375 596.757812 199.375 C 596.398438 196.726562 596.640625 193.585938 597.089844 192.792969 C 597.816406 191.925781 600.285156 192.8125 601.59375 190.671875 C 603.507812 188.710938 596.464844 172.460938 592.464844 166.210938 C 591.667969 164.640625 591.179688 163.390625 590.46875 163.457031 Z M 292.507812 164.597656 C 290.957031 164.773438 289.5 166.035156 288.796875 167.722656 C 288.542969 173.664062 288.503906 179.609375 289.171875 185.089844 C 291.882812 194.707031 292.734375 203.164062 294.050781 213.007812 C 294.414062 226.199219 286.433594 218.714844 286.796875 212.175781 C 288.640625 203.683594 288.144531 190.316406 286.503906 186.925781 C 285.207031 183.542969 283.703125 182.703125 280.546875 183.261719 C 278.039062 183.105469 271.566406 190.164062 269.757812 201.839844 C 269.757812 201.839844 268.25 207.839844 267.589844 213.175781 C 266.703125 219.210938 262.707031 223.484375 259.921875 212.34375 C 257.511719 204.25 256.035156 184.304688 252.003906 188.972656 C 250.851562 204.546875 249.480469 231.945312 262.714844 234.757812 C 278.722656 236.300781 269.875 207.703125 275.671875 202.511719 C 276.769531 199.949219 278.796875 199.902344 278.964844 203.136719 L 278.964844 227.429688 C 278.820312 235.324219 284.015625 237.671875 288.046875 239.304688 C 292.246094 238.976562 295.027344 239.09375 296.671875 243.175781 C 297.328125 257.183594 298.015625 271.214844 298.671875 285.222656 C 298.671875 285.222656 308.378906 288.007812 308.839844 261.59375 C 309.304688 246.085938 305.75 233.066406 307.839844 230.050781 C 307.917969 227.089844 311.710938 226.941406 314.339844 228.386719 C 318.523438 231.335938 320.378906 234.964844 326.882812 233.507812 C 336.777344 230.789062 342.734375 225.984375 342.882812 218.386719 C 342.304688 211.164062 341.472656 203.9375 338.339844 196.71875 C 338.777344 195.402344 336.445312 191.992188 336.882812 190.675781 C 338.660156 193.464844 341.347656 193.230469 341.964844 190.675781 C 340.28125 185.128906 337.65625 179.8125 333.425781 177.511719 C 329.921875 174.425781 324.796875 175.078125 322.921875 181.511719 C 322.050781 188.921875 325.613281 197.707031 331.007812 204.882812 C 332.15625 207.6875 333.757812 212.355469 333.046875 216.550781 C 330.175781 218.191406 327.328125 217.507812 324.921875 214.964844 C 324.921875 214.964844 317.050781 209.074219 317.050781 207.761719 C 319.140625 194.382812 317.5 192.84375 316.339844 189.132812 C 315.535156 184.011719 313.097656 182.382812 311.132812 178.886719 C 309.160156 176.796875 306.492188 176.796875 305.214844 178.886719 C 301.730469 184.921875 303.367188 197.871094 305.878906 203.679688 C 307.703125 209.011719 310.480469 212.34375 309.171875 212.34375 C 308.089844 215.359375 305.839844 214.65625 304.210938 211.179688 C 301.894531 203.984375 301.425781 193.261719 301.425781 188.425781 C 300.730469 182.433594 299.949219 169.636719 296.007812 166.386719 C 294.953125 164.953125 293.710938 164.453125 292.507812 164.597656 Z M 348.714844 164.675781 C 347.921875 164.777344 347.046875 165.226562 346.007812 165.46875 C 342.601562 166.550781 339.421875 169.492188 340.421875 175.222656 C 344.445312 199.660156 347.070312 218.3125 351.085938 242.761719 C 351.703125 245.625 349.308594 249.394531 346.214844 249.011719 C 340.957031 245.449219 339.648438 238.242188 330.671875 238.546875 C 324.171875 238.625 316.765625 245.703125 315.839844 252.511719 C 314.757812 257.921875 314.367188 263.789062 315.839844 268.507812 C 320.402344 274.003906 325.878906 273.417969 330.671875 272.175781 C 334.617188 270.554688 337.863281 266.667969 339.257812 267.589844 C 339.257812 267.597656 339.296875 267.589844 339.296875 267.589844 C 339.304688 267.597656 339.296875 267.628906 339.296875 267.636719 C 340.15625 269.140625 339.21875 281.855469 320.714844 291.671875 C 309.339844 296.785156 300.292969 298 295.421875 288.714844 C 292.402344 282.917969 295.644531 260.820312 288.214844 265.925781 C 266.25 322.546875 339.683594 330.453125 347.878906 268.261719 C 348.410156 266.503906 350.035156 264.746094 351.171875 265.175781 C 351.671875 265.390625 352.136719 266.066406 352.296875 267.34375 C 350.589844 323.660156 295.488281 327.511719 286.132812 309.796875 C 283.808594 305.625 283.113281 296.328125 282.882812 290.761719 C 282.453125 287.390625 281.609375 285.449219 280.632812 284.675781 C 278.398438 283 275.398438 287.375 274.757812 294.964844 C 273.828125 301.078125 274.089844 302.753906 274.089844 308.632812 C 277.03125 353.113281 347.941406 334.003906 359.464844 297.257812 C 365.171875 278.269531 359.347656 263.9375 361.257812 262.175781 C 361.269531 262.160156 361.320312 262.148438 361.339844 262.136719 C 361.351562 262.121094 361.40625 262.101562 361.421875 262.097656 C 361.445312 262.082031 361.484375 262.058594 361.503906 262.050781 C 361.566406 262.039062 361.679688 262.011719 361.757812 262.011719 C 368.796875 269.597656 378.671875 262.976562 380.839844 260.34375 C 381.765625 259.03125 384.089844 258.183594 385.714844 259.882812 C 391.203125 263.835938 400.828125 261.972656 402.839844 255.011719 C 403.996094 248.203125 404.980469 241.199219 405.214844 233.925781 C 401.632812 235.039062 398.75 235.871094 397.589844 237.097656 C 397.3125 237.398438 397.109375 237.734375 397.046875 238.089844 C 396.738281 240.101562 396.4375 242.121094 396.132812 244.132812 C 396.09375 244.304688 396.042969 244.460938 395.964844 244.597656 C 395.8125 244.84375 395.558594 245.070312 395.300781 245.222656 C 394.03125 245.910156 391.828125 245.515625 391.710938 243.679688 C 390.011719 235.941406 383.007812 234.933594 378.757812 246.925781 C 375.890625 249.246094 370.671875 249.699219 370.128906 246.214844 C 370.828125 238.175781 367.585938 237.097656 361.085938 240.886719 C 358.996094 224.953125 356.925781 209.738281 354.835938 193.800781 C 357.546875 193.722656 360.035156 195.691406 362.507812 192.597656 C 359.824219 184.265625 354.160156 167.3125 350.964844 165.722656 C 350.9375 165.710938 350.90625 165.691406 350.878906 165.675781 C 350.734375 165.507812 350.566406 165.34375 350.421875 165.222656 C 350.363281 165.171875 350.273438 165.097656 350.214844 165.050781 C 350.15625 165.011719 350.066406 164.960938 350.007812 164.929688 C 349.875 164.855469 349.714844 164.804688 349.589844 164.765625 C 349.296875 164.683594 349.015625 164.640625 348.710938 164.683594 Z M 567.832031 164.804688 C 565.027344 164.71875 561.914062 166.492188 563.125 170.011719 C 562.421875 171.925781 569.167969 178.441406 570.253906 182.011719 C 572.207031 187.488281 568.757812 192.714844 570.796875 193.46875 C 572.671875 194.316406 575.273438 187.8125 576.25 181.804688 C 577.382812 176.941406 573.914062 166.984375 569.003906 164.929688 C 568.625 164.835938 568.234375 164.8125 567.832031 164.804688 Z M 397.128906 170.800781 C 398.40625 170.671875 399.953125 171.847656 400.710938 173.507812 C 401.515625 175.285156 401.113281 176.980469 399.792969 177.304688 C 398.476562 177.625 396.769531 176.453125 395.964844 174.675781 C 395.15625 172.902344 395.558594 171.164062 396.875 170.847656 C 396.960938 170.820312 397.046875 170.808594 397.128906 170.800781 Z M 713.796875 179.011719 C 711.230469 178.921875 708.4375 180.867188 709.546875 184.675781 C 708.898438 186.757812 715.011719 193.816406 716.003906 197.675781 C 716.894531 200.421875 714.648438 209.277344 716.503906 210.089844 C 718.210938 211.007812 720.613281 203.976562 721.503906 197.464844 C 722 193.90625 719.355469 181.398438 714.875 179.171875 C 714.539062 179.082031 714.160156 179.023438 713.796875 179.011719 Z M 538.714844 183.347656 C 538.953125 184.386719 539.1875 185.441406 539.339844 186.511719 C 539.863281 188.820312 540.316406 191.113281 540.800781 193.386719 C 538.777344 190.597656 537.101562 188.351562 536.378906 187.550781 C 531.804688 182.117188 536.484375 183.976562 538.714844 183.347656 Z M 579.050781 203.175781 C 578.058594 203.347656 577.101562 204.203125 576.757812 205.554688 C 576.535156 206.433594 577.183594 207.859375 576.378906 208.300781 C 575.925781 208.761719 574.140625 208.496094 574.210938 206.054688 C 574.210938 205.273438 573.648438 204.421875 573.300781 203.925781 C 572.949219 203.699219 572.714844 203.632812 572.089844 203.632812 C 571.328125 203.664062 571.339844 203.867188 570.925781 204.511719 C 570.75 205.164062 570.507812 205.808594 570.507812 206.550781 C 570.410156 207.421875 570.101562 207.714844 569.464844 207.84375 C 568.75 207.84375 568.878906 207.921875 568.300781 207.550781 C 567.953125 207.175781 567.546875 207.023438 567.546875 206.386719 C 567.546875 205.722656 567.375 204.65625 567.175781 204.21875 C 566.867188 203.816406 566.386719 203.652344 565.839844 203.507812 C 562.84375 203.523438 562.671875 206.921875 562.839844 208.214844 C 562.617188 208.464844 562.460938 214.601562 566.550781 216.300781 C 572.03125 218.921875 582.355469 217.765625 581.921875 208.925781 C 581.921875 208.144531 581.703125 205.519531 581.632812 204.796875 C 581.074219 203.496094 580.039062 203.007812 579.050781 203.175781 Z M 394.890625 205.011719 C 394.210938 204.941406 393.328125 205.1875 392.304688 205.800781 C 387.453125 208.425781 385.578125 216.203125 388.59375 220.761719 C 391.421875 224.773438 395.878906 223.300781 396.472656 223.300781 C 401.222656 223.894531 404.058594 214.386719 404.058594 214.386719 C 404.058594 214.386719 404.199219 211.710938 398.554688 216.757812 C 396.179688 217.207031 395.859375 216.347656 395.261719 215.011719 C 394.765625 212.539062 394.875 210.027344 396.015625 207.550781 C 396.535156 206.066406 396.015625 205.125 394.890625 205.011719 Z M 655.222656 206.214844 C 652.527344 206.085938 649.660156 207.832031 648.933594 211.511719 C 648.9375 213.679688 649.910156 214.875 649.71875 216.839844 C 649.441406 217.96875 648.28125 218.710938 645.515625 217.382812 C 645.941406 216.984375 643.722656 213.839844 643.722656 213.839844 C 641.5625 212.527344 638.679688 213.914062 636.804688 215.136719 C 635.773438 217.011719 635.007812 220.226562 636.179688 223.507812 C 639.277344 229.230469 649.902344 239.003906 654.972656 239.09375 C 655.066406 233.933594 655.566406 227.070312 655.847656 222.800781 C 655.964844 221.191406 656.339844 219.414062 657.890625 219.011719 C 659.433594 218.605469 662.109375 220.558594 662.136719 218.886719 C 661.855469 215.597656 661.199219 210.753906 659.347656 208.46875 C 658.398438 207.0625 656.835938 206.296875 655.222656 206.214844 Z M 439.726562 224.179688 C 439.65625 224.203125 439.582031 224.265625 439.519531 224.304688 C 439.484375 224.324219 439.425781 224.363281 439.394531 224.386719 C 438.859375 224.785156 438.222656 225.714844 436.808594 226.71875 C 434.425781 229.433594 433.996094 231.320312 434.148438 236.757812 C 434.277344 237.335938 438.671875 249.550781 442.398438 258.136719 C 444.902344 267.058594 447.226562 277.277344 445.519531 286.925781 C 439.648438 299.6875 427.839844 311.125 416.4375 317.34375 C 410.632812 319.203125 405.613281 318.566406 404.269531 317.296875 C 404.257812 317.292969 404.238281 317.273438 404.230469 317.257812 C 400.890625 315.019531 400.820312 311.027344 401.023438 310.34375 C 401.023438 310.339844 401.023438 310.308594 401.023438 310.300781 C 401.027344 310.292969 401.054688 310.265625 401.0625 310.261719 C 410.683594 303.5625 421.667969 298.136719 430.273438 280.050781 C 432.8125 273.136719 433.585938 268.992188 431.0625 258.300781 C 430.078125 254.324219 428.859375 251.042969 426.148438 248.214844 C 426.152344 248.210938 426.179688 248.183594 426.183594 248.175781 C 427.824219 247.398438 432.070312 250.519531 432.726562 248.554688 C 431.726562 243.449219 428.269531 236.601562 424.355469 233.089844 C 420.925781 229.980469 417.199219 229.621094 414.0625 232.464844 C 410.527344 234.433594 409.777344 241.496094 411.476562 247.675781 C 413.367188 252.328125 418.46875 253.144531 422.101562 262.511719 C 422.101562 262.519531 422.101562 262.546875 422.101562 262.550781 C 422.183594 263.136719 423.351562 269.546875 421.515625 272.136719 C 420.035156 276.765625 400.957031 291.816406 399.601562 292.722656 C 399.589844 292.734375 399.492188 292.785156 399.480469 292.800781 C 399.472656 292.8125 399.441406 292.839844 399.433594 292.84375 C 399.433594 292.84375 399.402344 292.878906 399.394531 292.882812 C 399.386719 292.890625 399.355469 292.921875 399.355469 292.929688 C 399.347656 292.929688 399.316406 292.929688 399.308594 292.929688 C 399.308594 292.929688 399.277344 292.929688 399.269531 292.929688 C 399.265625 292.921875 399.238281 292.890625 399.226562 292.882812 C 399.230469 292.882812 399.226562 292.84375 399.226562 292.84375 C 399.21875 292.832031 399.191406 292.773438 399.1875 292.761719 C 399.128906 292.382812 399.230469 291.425781 399.1875 289.882812 C 399.0625 287.0625 400.226562 280.691406 400.144531 279.597656 C 400.144531 279.589844 400.144531 279.558594 400.144531 279.550781 C 400.136719 279.546875 400.109375 279.519531 400.101562 279.511719 C 400.101562 279.503906 400.101562 279.472656 400.101562 279.464844 C 400.089844 279.464844 400.066406 279.464844 400.058594 279.464844 C 393.757812 283.542969 391.671875 296.023438 390.519531 299.71875 C 374.550781 310.753906 356.421875 318.957031 345.976562 330.136719 C 340.539062 338.625 383.449219 320.382812 388.4375 318.175781 C 388.484375 318.210938 388.523438 318.261719 388.5625 318.300781 C 389.511719 319.339844 389.589844 322.980469 392.433594 326.261719 C 396.902344 332.304688 406.378906 336.023438 415.605469 333.714844 C 431.074219 328.125 439.988281 317.585938 449.0625 305.886719 C 450.359375 303.996094 452.390625 302.511719 454.269531 303.972656 C 460.507812 317.929688 478.484375 327.863281 501.730469 328.886719 C 507.109375 322.34375 504.539062 319.128906 502.355469 317.761719 C 501.679688 317.316406 490.796875 313.074219 489.101562 308.847656 C 488.039062 304.914062 490.625 301.425781 495.8125 298.800781 C 510.734375 297 525.410156 294.992188 539.601562 290.429688 C 539.746094 285.660156 542.558594 278.527344 544.441406 275.429688 C 545.742188 273.28125 546.582031 273.066406 546.894531 272.761719 C 546.910156 272.753906 546.925781 272.726562 546.941406 272.722656 C 546.941406 272.714844 546.980469 272.683594 546.980469 272.675781 C 546.984375 272.671875 547.011719 272.644531 547.019531 272.636719 C 547.023438 272.625 547.023438 272.566406 547.019531 272.550781 C 547.03125 272.460938 547.019531 272.296875 546.980469 272.136719 L 544.5625 270.722656 L 496.941406 270.515625 C 496.347656 270.285156 495.910156 270.058594 495.644531 269.84375 C 495.625 269.828125 495.578125 269.777344 495.558594 269.757812 C 495.554688 269.753906 495.527344 269.726562 495.519531 269.71875 C 495.515625 269.714844 495.488281 269.6875 495.480469 269.683594 C 495.476562 269.660156 495.441406 269.609375 495.4375 269.597656 C 495.4375 269.589844 495.402344 269.558594 495.398438 269.550781 C 495.398438 269.550781 495.398438 269.519531 495.398438 269.511719 C 495.390625 269.503906 495.359375 269.472656 495.359375 269.472656 C 495.359375 269.464844 495.351562 269.433594 495.359375 269.425781 C 495.359375 269.425781 495.351562 269.394531 495.359375 269.386719 C 495.359375 269.382812 495.351562 269.347656 495.359375 269.339844 C 495.351562 269.335938 495.359375 269.308594 495.359375 269.304688 C 495.359375 269.304688 495.359375 269.269531 495.359375 269.265625 C 495.351562 269.257812 495.359375 269.226562 495.359375 269.21875 C 495.351562 269.21875 495.359375 269.1875 495.359375 269.179688 C 495.351562 269.171875 495.359375 269.140625 495.359375 269.140625 C 495.363281 269.128906 495.390625 269.101562 495.398438 269.09375 C 495.410156 269.074219 495.421875 269.035156 495.4375 269.011719 C 495.671875 268.699219 496.238281 268.40625 496.941406 268.136719 C 508.308594 266.589844 528.515625 263.273438 529.855469 243.847656 C 529.648438 233.722656 525.527344 227.097656 513.105469 225.261719 C 503.976562 225.96875 497.472656 234.792969 498.523438 244.511719 C 498.085938 247.128906 499.410156 252.265625 496.730469 252.84375 C 479.226562 254.445312 460.125 265.410156 459.480469 273.261719 C 459.472656 273.261719 459.441406 273.261719 459.441406 273.261719 C 459.433594 273.269531 459.402344 273.296875 459.394531 273.300781 C 459.382812 273.308594 459.335938 273.332031 459.308594 273.347656 C 459.296875 273.347656 459.246094 273.347656 459.230469 273.347656 C 459.199219 273.351562 459.132812 273.378906 459.109375 273.386719 C 459.09375 273.386719 459.074219 273.386719 459.0625 273.386719 C 459.035156 273.386719 458.996094 273.386719 458.976562 273.386719 C 458.972656 273.386719 458.953125 273.386719 458.9375 273.386719 C 458.921875 273.386719 458.867188 273.386719 458.851562 273.386719 C 458.808594 273.378906 458.730469 273.351562 458.691406 273.347656 C 457.550781 273.027344 456.078125 271.152344 456.316406 268.507812 C 455.644531 254.941406 451.230469 239.589844 444.316406 227.761719 C 441.839844 225.292969 440.769531 224.296875 440.066406 224.179688 C 440.039062 224.171875 440 224.179688 439.980469 224.179688 C 439.949219 224.179688 439.898438 224.179688 439.855469 224.179688 C 439.851562 224.179688 439.816406 224.179688 439.8125 224.179688 C 439.8125 224.179688 439.777344 224.179688 439.773438 224.179688 C 439.765625 224.179688 439.734375 224.179688 439.734375 224.179688 Z M 485.3125 231.339844 C 484.324219 231.515625 483.367188 232.328125 483.019531 233.679688 C 482.800781 234.558594 483.441406 236.023438 482.644531 236.472656 C 482.1875 236.933594 480.402344 236.660156 480.480469 234.21875 C 480.480469 233.4375 479.910156 232.585938 479.5625 232.097656 C 479.210938 231.867188 479.023438 231.804688 478.398438 231.804688 C 477.628906 231.835938 477.601562 232.039062 477.1875 232.675781 C 477.011719 233.332031 476.769531 233.976562 476.769531 234.71875 C 476.671875 235.585938 476.367188 235.886719 475.730469 236.007812 C 475.011719 236.007812 475.183594 236.085938 474.601562 235.714844 C 474.257812 235.34375 473.816406 235.195312 473.816406 234.550781 C 473.816406 233.886719 473.679688 232.824219 473.476562 232.382812 C 473.175781 231.984375 472.65625 231.816406 472.101562 231.679688 C 469.109375 231.6875 468.933594 235.089844 469.101562 236.386719 C 468.878906 236.628906 468.722656 242.773438 472.8125 244.464844 C 478.296875 247.082031 491.367188 245.546875 488.183594 237.097656 C 488.183594 236.308594 487.976562 233.683594 487.898438 232.96875 C 487.335938 231.667969 486.300781 231.171875 485.3125 231.339844 Z M 669.269531 238.886719 C 669.132812 238.859375 668.976562 238.867188 668.816406 238.925781 C 668.816406 238.925781 643.398438 257.003906 642.773438 257.636719 C 640.253906 259.875 641.511719 267.753906 642.773438 266.839844 C 644.597656 267.546875 670.175781 250.207031 669.6875 248.175781 C 670.808594 248.242188 671.339844 239.257812 669.269531 238.886719 Z M 509.324219 241.5625 C 510.363281 241.457031 511.726562 241.808594 513.035156 242.566406 C 514.929688 243.664062 516.101562 245.316406 515.949219 246.523438 C 515.941406 246.558594 515.957031 246.613281 515.949219 246.648438 C 515.941406 246.679688 515.878906 246.746094 515.867188 246.769531 C 515.859375 246.804688 515.839844 246.867188 515.828125 246.902344 C 515.820312 246.921875 515.796875 246.960938 515.78125 246.980469 C 515.773438 247 515.753906 247.046875 515.742188 247.0625 C 515.675781 247.167969 515.578125 247.273438 515.496094 247.355469 C 514.582031 248.210938 512.472656 248.085938 510.496094 246.941406 C 508.613281 245.851562 507.449219 244.179688 507.578125 242.980469 C 507.578125 242.949219 507.609375 242.890625 507.617188 242.859375 C 507.648438 242.707031 507.707031 242.570312 507.785156 242.441406 C 507.8125 242.398438 507.832031 242.316406 507.863281 242.273438 C 507.871094 242.265625 507.902344 242.238281 507.910156 242.234375 C 507.960938 242.167969 508.046875 242.078125 508.117188 242.023438 C 508.417969 241.785156 508.847656 241.613281 509.324219 241.5625 Z M 286.777344 246.148438 C 273.613281 246.386719 254.328125 263.410156 253.820312 272.859375 C 267.714844 266.183594 281.359375 259.757812 295.488281 252.859375 C 293.210938 249.453125 295.351562 246.386719 286.777344 246.148438 Z M 329.445312 252.0625 C 330.734375 252.078125 332.097656 252.714844 332.816406 254.523438 C 333.46875 256.179688 332.851562 257.917969 332.070312 258.777344 C 332.0625 258.785156 332.078125 258.808594 332.070312 258.816406 C 332.058594 258.835938 332.046875 258.878906 332.03125 258.898438 C 331.476562 259.609375 329.539062 259.316406 328.152344 259.316406 C 326.484375 259.238281 325.660156 258.964844 324.65625 257.601562 C 324.171875 256.09375 325.636719 254.609375 326.277344 253.484375 C 326.285156 253.46875 326.316406 253.449219 326.320312 253.4375 C 326.394531 253.332031 326.503906 253.210938 326.613281 253.105469 C 327.109375 252.648438 327.976562 252.21875 328.90625 252.109375 C 329.082031 252.082031 329.257812 252.0625 329.445312 252.0625 Z M 664.324219 257.304688 C 661.984375 257.589844 659.757812 259.804688 660.78125 263.347656 C 660.144531 265.421875 663.957031 272.695312 664.949219 276.558594 C 665.839844 279.304688 663.800781 287.070312 665.660156 287.890625 C 667.371094 288.800781 671.863281 283.273438 671.699219 276.347656 C 672.191406 272.785156 670.429688 259.65625 665.949219 257.429688 C 665.4375 257.285156 664.863281 257.238281 664.324219 257.304688 Z M 379.910156 270.136719 C 377.84375 270.28125 375.996094 271.386719 376.828125 274.304688 C 376.703125 276.421875 382.675781 278.992188 383.035156 283.886719 C 383.894531 285.90625 381.757812 292.371094 383.535156 292.96875 C 385.171875 293.648438 387.433594 288.503906 388.289062 283.722656 C 388.761719 281.101562 386.238281 271.941406 381.953125 270.308594 C 381.296875 270.164062 380.597656 270.089844 379.910156 270.136719 Z M 465.039062 281.765625 C 465.195312 281.75 465.332031 281.765625 465.496094 281.765625 C 465.519531 281.765625 465.554688 281.765625 465.578125 281.765625 C 470.886719 283.203125 478.703125 283.351562 485.496094 284.058594 C 491.027344 284.410156 493.757812 288.738281 488.578125 290.554688 C 483.46875 292.304688 478.5625 293.671875 478.535156 301.054688 C 479.210938 304.714844 479.066406 306.632812 478.496094 307.511719 C 478.449219 307.578125 478.378906 307.671875 478.328125 307.722656 C 478.320312 307.726562 478.296875 307.753906 478.289062 307.761719 C 478.28125 307.773438 478.253906 307.800781 478.25 307.808594 C 478.234375 307.8125 478.210938 307.839844 478.203125 307.84375 L 478.164062 307.890625 C 478.152344 307.898438 478.089844 307.921875 478.078125 307.929688 C 478.007812 307.976562 477.910156 308.027344 477.832031 308.054688 C 477.761719 308.078125 477.65625 308.085938 477.578125 308.097656 C 476.367188 308.273438 474.601562 307.117188 473.289062 306.433594 C 470.136719 304.167969 461.296875 298.691406 460.039062 286.925781 C 459.855469 284.277344 461.839844 281.984375 465.039062 281.765625 Z M 257.117188 290.808594 C 256.785156 290.8125 256.121094 291.804688 255.242188 292.929688 C 247.410156 305.410156 246.710938 324.035156 251.035156 329.597656 C 253.332031 332.21875 257.117188 333.378906 259.910156 332.550781 C 264.828125 330.421875 266.992188 320.453125 265.828125 316.804688 C 264.1875 314.238281 262.882812 313.828125 261.242188 316.015625 C 257.78125 323.046875 256.335938 318.234375 256.035156 314.304688 C 255.5 306.855469 256.222656 299.992188 257.03125 294.558594 C 257.464844 291.769531 257.449219 290.796875 257.117188 290.808594 Z M 523.996094 307.191406 C 523.417969 307.160156 522.792969 307.253906 522.160156 307.566406 C 522.039062 307.566406 516.558594 311.277344 514.792969 313.859375 C 513.710938 314.683594 513.835938 315.390625 514.167969 316.816406 C 515.007812 318.75 516.484375 318.144531 518.164062 317.234375 C 520.390625 316.925781 521.472656 318.390625 521.289062 321.066406 C 520.261719 324.410156 521.746094 325.652344 521.746094 325.859375 C 521.746094 326.066406 523.894531 327.910156 526.414062 326.445312 C 531.730469 324.414062 535.046875 322.433594 542.5 320.8125 C 544.453125 320.78125 544.339844 315.546875 541.25 315.359375 C 537.214844 315.558594 533.488281 315.769531 529.453125 318.9375 C 526.972656 319.519531 526.550781 318.007812 525.996094 316.648438 C 525.363281 313.289062 527.414062 310.917969 527 308.398438 C 527.109375 308.507812 525.742188 307.285156 523.996094 307.191406 Z M 694.875 313.566406 C 693.886719 313.601562 692.84375 313.738281 691.335938 313.859375 C 689.699219 314.203125 689.132812 314.921875 688.835938 316.902344 C 688.953125 319.902344 690.789062 319.753906 692.671875 320.941406 C 693.757812 322.324219 694.464844 323.578125 692.585938 325.859375 C 690.800781 327.492188 689.53125 328.390625 687.753906 330.027344 C 686.914062 331.457031 686.386719 333.664062 688.957031 334.355469 C 693.710938 335.695312 704.707031 328.546875 704.707031 328.398438 C 706.492188 327.0625 705.898438 324.523438 705.75 324.523438 C 704.714844 323.339844 702.371094 324.050781 700.796875 323.859375 C 700.046875 323.859375 697.578125 323.496094 698.75 321.316406 C 699.726562 319.960938 700.089844 319.152344 700.75 317.480469 C 701.492188 315.851562 700.839844 314.753906 698.171875 313.859375 C 696.808594 313.613281 695.867188 313.535156 694.875 313.566406 Z M 623.488281 458.097656 C 623.484375 458.105469 623.457031 458.132812 623.449219 458.144531 C 615.546875 460.171875 615.796875 468.371094 620.867188 471.972656 C 537.410156 471.972656 409.328125 470.558594 381.867188 470.558594 C 366.496094 470.558594 317.882812 468.722656 316.945312 468.722656 C 327.375 483.972656 342.480469 487.078125 362.238281 487.390625 C 399.308594 487.390625 571.066406 486.933594 619.949219 486.933594 C 616.472656 493.105469 620.261719 503.035156 622.988281 504.851562 C 623.046875 504.890625 623.136719 504.949219 623.195312 504.972656 C 623.300781 505.027344 623.433594 505.078125 623.527344 505.097656 C 623.5625 505.109375 623.625 505.097656 623.652344 505.097656 C 626.894531 505.867188 628.3125 503.523438 629.410156 501.808594 C 634.65625 502.273438 664.199219 502.703125 666.910156 501.765625 C 666.914062 501.765625 666.941406 501.730469 666.945312 501.726562 C 668.777344 504.421875 670.589844 506.960938 674.066406 506.515625 C 680.164062 505.207031 684.960938 504.550781 685.109375 492.183594 C 685.109375 492.183594 684.492188 471.113281 670.660156 472.433594 C 667.382812 472.929688 658.195312 473.851562 658.195312 473.851562 C 647.566406 472.585938 639.773438 472.453125 627.816406 472.019531 C 628.925781 470.617188 630.871094 464.949219 628.488281 462.890625 C 627.863281 462.375 626.941406 462.089844 625.660156 462.1875 C 625.644531 462.1875 625.625 462.1875 625.613281 462.1875 C 625.589844 462.183594 625.546875 462.1875 625.527344 462.1875 C 625.519531 462.183594 625.496094 462.148438 625.488281 462.140625 C 625.453125 462.128906 625.398438 462.121094 625.363281 462.101562 C 625.300781 462.058594 625.214844 461.964844 625.15625 461.894531 C 625.144531 461.875 625.085938 461.828125 625.070312 461.808594 C 624.464844 460.933594 624.140625 458.777344 623.738281 458.230469 C 623.730469 458.222656 623.703125 458.191406 623.699219 458.183594 C 623.691406 458.183594 623.660156 458.144531 623.652344 458.144531 C 623.640625 458.132812 623.585938 458.105469 623.574219 458.097656 C 623.566406 458.097656 623.535156 458.097656 623.527344 458.097656 C 623.523438 458.105469 623.496094 458.097656 623.488281 458.097656 Z M 629.160156 488.222656 C 629.171875 488.214844 629.1875 488.230469 629.199219 488.222656 C 641.375 488.820312 652.8125 488.339844 664.992188 488.933594 C 666.921875 490.574219 665.957031 494.328125 664.699219 495.019531 C 664.640625 495.046875 664.550781 495.085938 664.492188 495.097656 C 664.445312 495.109375 664.367188 495.097656 664.324219 495.097656 C 664.277344 495.097656 664.203125 495.109375 664.160156 495.097656 C 660.195312 495 657.910156 494.910156 653.953125 494.8125 C 653.945312 494.609375 653.921875 494.402344 653.867188 494.226562 C 652.929688 491.445312 646.132812 491.628906 644.53125 493.808594 C 644.511719 493.839844 644.464844 493.898438 644.445312 493.933594 C 644.421875 493.976562 644.386719 494.058594 644.367188 494.101562 C 644.339844 494.152344 644.304688 494.25 644.285156 494.308594 C 644.257812 494.386719 644.25 494.511719 644.238281 494.601562 C 644.230469 494.699219 644.191406 494.828125 644.199219 494.933594 C 638.851562 495.574219 634.042969 494.757812 628.699219 494.558594 C 627.128906 492.601562 627.3125 489.074219 629.160156 488.222656 Z M 629.160156 488.222656 "/>
</g>
</svg>
