<?xml version="1.0" encoding="UTF-8"?>
<svg xmlns="http://www.w3.org/2000/svg" xmlns:xlink="http://www.w3.org/1999/xlink" viewBox="0 0 1000 667" version="1.1">
<defs>
<clipPath id="clip1">
  <path d="M 0 0 L 1000 0 L 1000 666.71875 L 0 666.71875 Z M 0 0 "/>
</clipPath>
<clipPath id="clip2">
  <path d="M 0 0 L 445 0 L 445 666.71875 L 0 666.71875 Z M 0 0 "/>
</clipPath>
</defs>
<g id="surface1070">
<g clip-path="url(#clip1)" clip-rule="nonzero">
<path style=" stroke:none;fill-rule:evenodd;fill:rgb(0.392151%,16.470337%,52.940369%);fill-opacity:1;" d="M 0 666.667969 L 0 0 L 1000 0 L 1000 666.667969 Z M 0 666.667969 "/>
</g>
<path style=" stroke:none;fill-rule:evenodd;fill:rgb(86.273193%,9.01947%,11.372375%);fill-opacity:1;" d="M 0 0 L 1000 0 L 1000 333.332031 L 0 333.332031 Z M 0 0 "/>
<g clip-path="url(#clip2)" clip-rule="nonzero">
<path style=" stroke:none;fill-rule:evenodd;fill:rgb(99.998474%,99.998474%,99.998474%);fill-opacity:1;" d="M 0 0 L 0 666.667969 L 444.445312 333.332031 Z M 0 0 "/>
</g>
<path style=" stroke:none;fill-rule:evenodd;fill:rgb(99.998474%,99.998474%,0%);fill-opacity:1;" d="M 224.347656 251.570312 L 224.496094 246.40625 C 224.496094 246.40625 221.722656 241.992188 224.929688 237.246094 C 224.929688 237.246094 218.105469 233.628906 219.691406 227.972656 C 219.691406 227.972656 213.511719 226.394531 213.976562 219.605469 C 213.976562 219.605469 207.296875 219.140625 206.609375 213.457031 C 206.609375 213.457031 199.941406 214.5625 197.003906 209.019531 C 197.003906 209.019531 190.496094 210.292969 188.65625 205.746094 C 188.65625 205.746094 182.34375 207.921875 178.582031 202.5625 C 178.582031 202.5625 171.910156 205.257812 169.105469 200.203125 C 166.339844 205.246094 159.671875 202.5625 159.671875 202.5625 C 155.96875 207.90625 149.59375 205.691406 149.59375 205.691406 C 147.820312 210.265625 141.324219 208.964844 141.324219 208.964844 C 138.402344 214.503906 131.742188 213.394531 131.742188 213.394531 C 131.082031 219.070312 124.429688 219.53125 124.429688 219.53125 C 124.964844 226.339844 118.785156 227.886719 118.785156 227.886719 C 120.414062 233.542969 113.59375 237.152344 113.59375 237.152344 C 116.890625 241.914062 114.144531 246.304688 114.144531 246.304688 L 114 251.0625 L 224.378906 251.570312 Z M 224.347656 251.570312 "/>
<path style=" stroke:none;fill-rule:evenodd;fill:rgb(97.645569%,85.096741%,5.882263%);fill-opacity:1;" d="M 224.347656 251.570312 L 224.496094 246.40625 C 224.496094 246.40625 221.722656 241.992188 224.929688 237.246094 C 224.929688 237.246094 218.105469 233.628906 219.691406 227.972656 C 219.691406 227.972656 213.511719 226.394531 213.976562 219.605469 C 213.976562 219.605469 207.296875 219.140625 206.609375 213.457031 C 206.609375 213.457031 199.941406 214.5625 197.003906 209.019531 C 197.003906 209.019531 190.496094 210.292969 188.65625 205.746094 C 188.65625 205.746094 182.34375 207.921875 178.582031 202.5625 C 178.582031 202.5625 171.910156 205.257812 169.105469 200.203125 C 166.339844 205.246094 159.671875 202.5625 159.671875 202.5625 C 155.96875 207.90625 149.59375 205.691406 149.59375 205.691406 C 147.820312 210.265625 141.324219 208.964844 141.324219 208.964844 C 138.402344 214.503906 131.742188 213.394531 131.742188 213.394531 C 131.082031 219.070312 124.429688 219.53125 124.429688 219.53125 C 124.964844 226.339844 118.785156 227.886719 118.785156 227.886719 C 120.414062 233.542969 113.59375 237.152344 113.59375 237.152344 C 116.890625 241.914062 114.144531 246.304688 114.144531 246.304688 L 114 251.0625 L 224.378906 251.570312 Z M 224.347656 251.570312 "/>
<path style="fill:none;stroke-width:0.404834;stroke-linecap:butt;stroke-linejoin:miter;stroke:rgb(0%,0%,0%);stroke-opacity:1;stroke-miterlimit:4;" d="M 224.347656 251.570312 L 224.496094 246.40625 C 224.496094 246.40625 221.722656 241.992188 224.929688 237.246094 C 224.929688 237.246094 218.105469 233.628906 219.691406 227.972656 C 219.691406 227.972656 213.511719 226.394531 213.976562 219.605469 C 213.976562 219.605469 207.296875 219.140625 206.609375 213.457031 C 206.609375 213.457031 199.941406 214.5625 197.003906 209.019531 C 197.003906 209.019531 190.496094 210.292969 188.65625 205.742188 C 188.65625 205.742188 182.34375 207.921875 178.582031 202.5625 C 178.582031 202.5625 171.910156 205.257812 169.105469 200.203125 C 166.339844 205.242188 159.671875 202.5625 159.671875 202.5625 C 155.96875 207.90625 149.59375 205.691406 149.59375 205.691406 C 147.820312 210.265625 141.324219 208.960938 141.324219 208.960938 C 138.402344 214.503906 131.742188 213.394531 131.742188 213.394531 C 131.082031 219.066406 124.429688 219.53125 124.429688 219.53125 C 124.964844 226.339844 118.785156 227.886719 118.785156 227.886719 C 120.414062 233.542969 113.59375 237.152344 113.59375 237.152344 C 116.890625 241.914062 114.144531 246.304688 114.144531 246.304688 L 114 251.0625 L 224.378906 251.570312 Z M 224.347656 251.570312 "/>
<path style=" stroke:none;fill-rule:evenodd;fill:rgb(86.273193%,9.01947%,11.372375%);fill-opacity:1;" d="M 221.78125 245.125 C 204.433594 243.394531 184.476562 239.273438 169.0625 247.945312 C 158.730469 241.867188 144.355469 242.246094 132.105469 243.425781 C 125.441406 244.617188 117.621094 244.617188 110.683594 245.753906 L 109.59375 245.898438 C 96.976562 246.75 85.535156 243.019531 74.574219 238.121094 C 78.050781 257.871094 81.914062 278.105469 83.820312 298.792969 C 87.949219 329.414062 69.320312 355.128906 76.960938 385.378906 C 81.53125 399.898438 97.492188 408.332031 112.101562 410.003906 C 126.25 410.835938 140.894531 413.152344 153.984375 416 C 156.472656 416.507812 159.417969 417.671875 161.132812 418.417969 C 164.742188 419.921875 167.390625 422.136719 169.71875 424.507812 C 177.609375 416.285156 189.191406 413.984375 200.628906 412.773438 C 221.222656 410.375 246.613281 411.6875 259.230469 393.019531 L 259.230469 391.96875 C 266.082031 381.648438 265.183594 365.898438 262.203125 354.214844 C 262.007812 350.128906 260.917969 346.527344 260.320312 342.648438 C 247.734375 309.417969 258.515625 272.046875 263.929688 238.539062 C 257.320312 242.167969 249.949219 243.871094 242.585938 245.675781 C 236.703125 246.46875 230.164062 246.105469 224.226562 245.796875 L 221.765625 245.125 Z M 221.78125 245.125 "/>
<path style=" stroke:none;fill-rule:evenodd;fill:rgb(38.430786%,68.626404%,88.233948%);fill-opacity:1;" d="M 247.664062 340.5 C 247.589844 342.679688 248.769531 344.394531 249.195312 346.425781 C 251.605469 360.945312 253.929688 380.203125 238.976562 389.214844 C 222.425781 399.730469 200.730469 395.226562 181.582031 400.796875 C 177.761719 401.851562 172.492188 405.375 169.804688 407.847656 C 168.078125 406.71875 166.339844 404.96875 164.121094 403.957031 C 148.355469 395.570312 127.878906 398.371094 110.097656 393.851562 C 101.15625 391.03125 91.847656 384.078125 89.589844 374.929688 C 83.765625 350.949219 97.699219 330.519531 96.058594 306.714844 C 94.996094 288.546875 91.933594 271.105469 87.738281 254.078125 C 101.636719 260.554688 117.746094 261.632812 133.371094 258.527344 C 144.9375 256.914062 158.421875 256.871094 169.269531 261.761719 C 175.238281 259.195312 182.242188 258.050781 188.6875 257.328125 C 200.925781 258.527344 214.089844 260.75 226.707031 260.640625 C 235.128906 260.214844 242.78125 257.777344 250.109375 254.542969 C 245.769531 282.6875 237.421875 312.175781 247.664062 340.5 Z M 247.664062 340.5 "/>
<path style=" stroke:none;fill-rule:evenodd;fill:rgb(99.998474%,99.998474%,99.998474%);fill-opacity:1;" d="M 222.664062 346.113281 L 222.527344 319.640625 L 225.796875 319.640625 L 185.316406 293.503906 L 185.242188 279.925781 L 189.148438 279.925781 L 168.925781 265.4375 L 148.792969 279.910156 L 152.683594 279.910156 L 152.761719 293.476562 L 112.5 319.582031 L 115.710938 319.609375 L 115.863281 346.050781 L 222.664062 346.128906 Z M 222.664062 346.113281 "/>
<path style="fill:none;stroke-width:1.737616;stroke-linecap:butt;stroke-linejoin:miter;stroke:rgb(0%,0%,0%);stroke-opacity:1;stroke-miterlimit:4;" d="M 222.664062 346.113281 L 222.527344 319.640625 L 225.796875 319.640625 L 185.316406 293.503906 L 185.242188 279.925781 L 189.148438 279.925781 L 168.925781 265.4375 L 148.792969 279.910156 L 152.683594 279.910156 L 152.761719 293.472656 L 112.5 319.582031 L 115.710938 319.609375 L 115.863281 346.050781 L 222.664062 346.128906 Z M 222.664062 346.113281 "/>
<path style=" stroke:none;fill-rule:evenodd;fill:rgb(99.998474%,99.998474%,99.998474%);fill-opacity:1;" d="M 235.105469 380.890625 L 235.105469 389.171875 L 104.722656 389.019531 L 104.679688 380.78125 Z M 235.105469 380.890625 "/>
<path style="fill:none;stroke-width:1.737616;stroke-linecap:butt;stroke-linejoin:miter;stroke:rgb(0%,0%,0%);stroke-opacity:1;stroke-miterlimit:4;" d="M 235.105469 380.886719 L 235.105469 389.171875 L 104.722656 389.019531 L 104.679688 380.78125 Z M 235.105469 380.886719 "/>
<path style=" stroke:none;fill-rule:evenodd;fill:rgb(99.998474%,99.998474%,99.998474%);fill-opacity:1;" d="M 113.394531 380.390625 L 113.28125 352.351562 L 118.5625 352.335938 L 118.265625 380.707031 L 118.589844 352.574219 L 110.980469 352.351562 L 110.980469 346.339844 L 227.507812 346.46875 L 227.554688 352.425781 L 220.378906 352.425781 L 220.507812 380.808594 L 220.253906 352.425781 L 225.601562 352.425781 L 225.722656 380.5 Z M 113.394531 380.390625 "/>
<path style="fill:none;stroke-width:1.737616;stroke-linecap:butt;stroke-linejoin:miter;stroke:rgb(0%,0%,0%);stroke-opacity:1;stroke-miterlimit:4;" d="M 113.394531 380.390625 L 113.28125 352.351562 L 118.5625 352.335938 L 118.265625 380.707031 L 118.589844 352.574219 L 110.980469 352.351562 L 110.980469 346.339844 L 227.507812 346.46875 L 227.554688 352.421875 L 220.378906 352.421875 L 220.507812 380.808594 L 220.253906 352.421875 L 225.601562 352.421875 L 225.722656 380.496094 "/>
<path style="fill:none;stroke-width:1.737616;stroke-linecap:butt;stroke-linejoin:miter;stroke:rgb(0%,0%,0%);stroke-opacity:1;stroke-miterlimit:4;" d="M 138.449219 373.480469 L 138.355469 353.9375 L 122.714844 353.9375 L 122.800781 373.46875 L 138.449219 373.480469 "/>
<path style="fill:none;stroke-width:1.737616;stroke-linecap:butt;stroke-linejoin:miter;stroke:rgb(0%,0%,0%);stroke-opacity:1;stroke-miterlimit:4;" d="M 126.980469 358.007812 L 127.027344 369.363281 L 134.179688 369.363281 L 134.144531 358.007812 L 126.980469 358.007812 "/>
<path style="fill:none;stroke-width:1.737616;stroke-linecap:butt;stroke-linejoin:miter;stroke:rgb(0%,0%,0%);stroke-opacity:1;stroke-miterlimit:4;" d="M 214.929688 373.546875 L 214.835938 354.007812 L 199.253906 353.992188 L 199.3125 373.546875 L 214.929688 373.546875 "/>
<path style="fill:none;stroke-width:1.737616;stroke-linecap:butt;stroke-linejoin:miter;stroke:rgb(0%,0%,0%);stroke-opacity:1;stroke-miterlimit:4;" d="M 203.464844 358.082031 L 203.535156 369.410156 L 210.707031 369.410156 L 210.625 358.082031 L 203.464844 358.082031 "/>
<path style="fill:none;stroke-width:1.737616;stroke-linecap:butt;stroke-linejoin:miter;stroke:rgb(0%,0%,0%);stroke-opacity:1;stroke-miterlimit:4;" d="M 214.808594 341.710938 L 214.71875 322.15625 L 199.105469 322.15625 L 199.167969 341.710938 L 214.820312 341.710938 Z M 214.808594 341.710938 "/>
<path style="fill:none;stroke-width:1.737616;stroke-linecap:butt;stroke-linejoin:miter;stroke:rgb(0%,0%,0%);stroke-opacity:1;stroke-miterlimit:4;" d="M 203.34375 326.265625 L 203.394531 337.609375 L 210.539062 337.609375 L 210.539062 326.265625 L 203.34375 326.265625 "/>
<path style="fill:none;stroke-width:1.737616;stroke-linecap:butt;stroke-linejoin:miter;stroke:rgb(0%,0%,0%);stroke-opacity:1;stroke-miterlimit:4;" d="M 138.3125 341.636719 L 138.210938 322.113281 L 122.589844 322.097656 L 122.671875 341.621094 L 138.3125 341.621094 Z M 138.3125 341.636719 "/>
<path style="fill:none;stroke-width:1.737616;stroke-linecap:butt;stroke-linejoin:miter;stroke:rgb(0%,0%,0%);stroke-opacity:1;stroke-miterlimit:4;" d="M 126.84375 326.1875 L 126.894531 337.515625 L 134.058594 337.53125 L 134 326.1875 L 126.84375 326.1875 "/>
<path style="fill:none;stroke-width:1.737616;stroke-linecap:butt;stroke-linejoin:miter;stroke:rgb(0%,0%,0%);stroke-opacity:1;stroke-miterlimit:4;" d="M 166.625 341.667969 L 166.550781 322.15625 L 150.925781 322.128906 L 151 341.667969 L 166.625 341.667969 "/>
<path style="fill:none;stroke-width:1.737616;stroke-linecap:butt;stroke-linejoin:miter;stroke:rgb(0%,0%,0%);stroke-opacity:1;stroke-miterlimit:4;" d="M 155.179688 326.222656 L 155.207031 337.53125 L 162.371094 337.578125 L 162.324219 326.222656 L 155.179688 326.222656 "/>
<path style="fill:none;stroke-width:1.737616;stroke-linecap:butt;stroke-linejoin:miter;stroke:rgb(0%,0%,0%);stroke-opacity:1;stroke-miterlimit:4;" d="M 188.449219 341.710938 L 188.347656 322.15625 L 172.726562 322.128906 L 172.808594 341.667969 L 188.449219 341.710938 "/>
<path style="fill:none;stroke-width:1.737616;stroke-linecap:butt;stroke-linejoin:miter;stroke:rgb(0%,0%,0%);stroke-opacity:1;stroke-miterlimit:4;" d="M 176.980469 326.238281 L 177.035156 337.59375 L 184.195312 337.59375 L 184.148438 326.238281 L 176.980469 326.238281 "/>
<path style="fill-rule:evenodd;fill:rgb(99.998474%,99.998474%,99.998474%);fill-opacity:1;stroke-width:1.737616;stroke-linecap:butt;stroke-linejoin:miter;stroke:rgb(0%,0%,0%);stroke-opacity:1;stroke-miterlimit:4;" d="M 192.332031 335.714844 L 192.492188 380.78125 L 147.222656 380.707031 L 147.054688 335.664062 L 192.320312 335.714844 Z M 192.332031 335.714844 "/>
<path style="fill:none;stroke-width:1.737616;stroke-linecap:butt;stroke-linejoin:miter;stroke:rgb(0%,0%,0%);stroke-opacity:1;stroke-miterlimit:4;" d="M 146.789062 348.574219 L 192.375 348.601562 "/>
<path style="fill:none;stroke-width:1.737616;stroke-linecap:butt;stroke-linejoin:miter;stroke:rgb(0%,0%,0%);stroke-opacity:1;stroke-miterlimit:4;" d="M 152.472656 380.765625 L 152.316406 348.902344 "/>
<path style="fill:none;stroke-width:1.737616;stroke-linecap:butt;stroke-linejoin:miter;stroke:rgb(0%,0%,0%);stroke-opacity:1;stroke-miterlimit:4;" d="M 186.988281 380.78125 L 186.835938 348.953125 "/>
<path style="fill:none;stroke-width:1.737616;stroke-linecap:butt;stroke-linejoin:miter;stroke:rgb(0%,0%,0%);stroke-opacity:1;stroke-miterlimit:4;" d="M 208.855469 316.523438 L 183.363281 297.894531 L 154.714844 297.867188 L 129.414062 316.441406 L 208.855469 316.523438 "/>
<path style="fill:none;stroke-width:1.737616;stroke-linecap:butt;stroke-linejoin:miter;stroke:rgb(0%,0%,0%);stroke-opacity:1;stroke-miterlimit:4;" d="M 156.90625 282.449219 L 156.953125 293.808594 L 181.0625 293.824219 L 181.019531 282.464844 L 156.90625 282.449219 "/>
<path style="fill:none;stroke-width:1.737616;stroke-linecap:butt;stroke-linejoin:miter;stroke:rgb(0%,0%,0%);stroke-opacity:1;stroke-miterlimit:4;" d="M 163.449219 285.273438 L 163.492188 290.921875 L 174.550781 290.921875 L 174.523438 285.273438 L 163.449219 285.273438 "/>
<path style="fill:none;stroke-width:1.737616;stroke-linecap:butt;stroke-linejoin:miter;stroke:rgb(0%,0%,0%);stroke-opacity:1;stroke-miterlimit:4;" d="M 168.925781 269.523438 L 182.3125 279 L 155.613281 278.972656 L 168.925781 269.523438 "/>
<path style=" stroke:none;fill-rule:evenodd;fill:rgb(99.998474%,99.998474%,99.998474%);fill-opacity:1;" d="M 223.105469 263.105469 C 226.917969 263.019531 227.898438 278.777344 227.898438 286.597656 C 231.183594 287.507812 238.425781 292.070312 241.628906 296.195312 L 204.855469 296.152344 C 208.015625 292.070312 215.214844 287.492188 218.453125 286.582031 C 218.453125 278.761719 219.253906 263 223.105469 263.09375 Z M 223.105469 263.105469 "/>
<path style="fill:none;stroke-width:1.737616;stroke-linecap:butt;stroke-linejoin:miter;stroke:rgb(0%,0%,0%);stroke-opacity:1;stroke-miterlimit:4;" d="M 223.105469 263.109375 C 226.917969 263.019531 227.898438 278.777344 227.898438 286.597656 C 231.183594 287.507812 238.425781 292.074219 241.628906 296.195312 L 204.855469 296.152344 C 208.015625 292.074219 215.214844 287.492188 218.453125 286.582031 C 218.453125 278.761719 219.253906 263 223.105469 263.09375 "/>
<path style="fill:none;stroke-width:1.737616;stroke-linecap:butt;stroke-linejoin:miter;stroke:rgb(0%,0%,0%);stroke-opacity:1;stroke-miterlimit:4;" d="M 149.175781 336.964844 L 152.472656 336.964844 L 151.503906 338.738281 C 151.503906 338.738281 153.105469 340.785156 151.535156 343.128906 L 152.402344 344.753906 L 149.21875 344.753906 L 150.085938 343.214844 C 150.085938 343.214844 148.460938 340.503906 150.160156 338.738281 L 149.175781 336.964844 "/>
<path style="fill:none;stroke-width:1.737616;stroke-linecap:butt;stroke-linejoin:miter;stroke:rgb(0%,0%,0%);stroke-opacity:1;stroke-miterlimit:4;" d="M 155.894531 336.964844 L 159.195312 336.964844 L 158.238281 338.738281 C 158.238281 338.738281 159.835938 340.726562 158.253906 343.128906 L 159.101562 344.753906 L 155.9375 344.753906 L 156.792969 343.214844 C 156.792969 343.214844 155.195312 340.503906 156.863281 338.738281 L 155.894531 336.964844 "/>
<path style="fill:none;stroke-width:1.737616;stroke-linecap:butt;stroke-linejoin:miter;stroke:rgb(0%,0%,0%);stroke-opacity:1;stroke-miterlimit:4;" d="M 163.238281 336.964844 L 166.523438 336.964844 L 165.539062 338.738281 C 165.539062 338.738281 167.152344 340.785156 165.566406 343.128906 L 166.433594 344.796875 L 163.28125 344.753906 L 164.121094 343.214844 C 164.121094 343.214844 162.507812 340.515625 164.179688 338.738281 L 163.222656 336.964844 Z M 163.238281 336.964844 "/>
<path style="fill:none;stroke-width:1.737616;stroke-linecap:butt;stroke-linejoin:miter;stroke:rgb(0%,0%,0%);stroke-opacity:1;stroke-miterlimit:4;" d="M 171.503906 336.996094 L 174.820312 336.996094 L 173.851562 338.789062 C 173.851562 338.789062 175.449219 340.785156 173.863281 343.144531 L 174.746094 344.796875 L 171.550781 344.796875 L 172.402344 343.25 C 172.402344 343.25 170.820312 340.515625 172.527344 338.789062 L 171.519531 336.996094 Z M 171.503906 336.996094 "/>
<path style="fill:none;stroke-width:1.737616;stroke-linecap:butt;stroke-linejoin:miter;stroke:rgb(0%,0%,0%);stroke-opacity:1;stroke-miterlimit:4;" d="M 178.863281 336.996094 L 182.144531 336.996094 L 181.179688 338.789062 C 181.179688 338.789062 182.777344 340.785156 181.207031 343.128906 L 182.074219 344.796875 L 178.914062 344.796875 L 179.730469 343.25 C 179.730469 343.25 178.132812 340.53125 179.855469 338.789062 L 178.863281 336.996094 "/>
<path style="fill:none;stroke-width:1.737616;stroke-linecap:butt;stroke-linejoin:miter;stroke:rgb(0%,0%,0%);stroke-opacity:1;stroke-miterlimit:4;" d="M 186.183594 337.007812 L 189.480469 336.996094 L 188.492188 338.789062 C 188.492188 338.789062 190.117188 340.785156 188.539062 343.144531 L 189.375 344.796875 L 186.199219 344.796875 L 187.042969 343.25 C 187.042969 343.25 185.445312 340.53125 187.152344 338.789062 L 186.183594 337.007812 "/>
<path style=" stroke:none;fill-rule:evenodd;fill:rgb(97.645569%,85.096741%,5.882263%);fill-opacity:1;" d="M 169.90625 438.546875 C 186.863281 438.59375 207.71875 435.136719 217.484375 430.085938 L 238.929688 428.191406 L 239.367188 454.367188 C 221.195312 464.382812 179.222656 466.53125 170 466.457031 C 160.761719 466.53125 118.28125 464.351562 100.023438 454.296875 L 100.261719 428.105469 L 121.757812 430.027344 C 131.53125 435.054688 153.015625 438.546875 169.957031 438.546875 Z M 169.90625 438.546875 "/>
<path style="fill:none;stroke-width:0.404834;stroke-linecap:butt;stroke-linejoin:miter;stroke:rgb(0%,0%,0%);stroke-opacity:1;stroke-miterlimit:4;" d="M 169.90625 438.550781 C 186.863281 438.59375 207.71875 435.136719 217.484375 430.085938 L 238.929688 428.191406 L 239.367188 454.371094 C 221.195312 464.378906 179.222656 466.53125 170 466.457031 C 160.761719 466.53125 118.28125 464.351562 100.023438 454.296875 L 100.261719 428.105469 L 121.757812 430.027344 C 131.53125 435.054688 153.015625 438.550781 169.957031 438.550781 L 169.90625 438.550781 "/>
<path style=" stroke:none;fill-rule:evenodd;fill:rgb(97.645569%,85.096741%,5.882263%);fill-opacity:1;" d="M 44.796875 326.902344 L 63.695312 332.921875 L 57.992188 363.511719 L 40.097656 366.289062 C 40.097656 366.289062 37.078125 350.203125 44.796875 326.890625 Z M 44.796875 326.902344 "/>
<path style="fill:none;stroke-width:0.404834;stroke-linecap:butt;stroke-linejoin:miter;stroke:rgb(0%,0%,0%);stroke-opacity:1;stroke-miterlimit:4;" d="M 44.796875 326.902344 L 63.695312 332.921875 L 57.992188 363.511719 L 40.097656 366.289062 C 40.097656 366.289062 37.078125 350.203125 44.796875 326.886719 "/>
<path style=" stroke:none;fill-rule:evenodd;fill:rgb(97.645569%,71.37146%,5.882263%);fill-opacity:1;" d="M 57.980469 363.1875 L 40.097656 366.289062 L 51.410156 350.203125 Z M 57.980469 363.1875 "/>
<path style="fill:none;stroke-width:0.404834;stroke-linecap:butt;stroke-linejoin:miter;stroke:rgb(0%,0%,0%);stroke-opacity:1;stroke-miterlimit:4;" d="M 57.980469 363.1875 L 40.097656 366.289062 L 51.410156 350.203125 L 57.980469 363.1875 "/>
<path style=" stroke:none;fill-rule:evenodd;fill:rgb(97.645569%,85.096741%,5.882263%);fill-opacity:1;" d="M 33.5 348.953125 L 51.722656 350.261719 C 52.125 365.691406 53.992188 424.59375 124.34375 427.808594 L 122.144531 449.234375 C 36.53125 450.113281 30.019531 376.972656 33.5 348.953125 Z M 33.5 348.953125 "/>
<path style="fill:none;stroke-width:0.404834;stroke-linecap:butt;stroke-linejoin:miter;stroke:rgb(0%,0%,0%);stroke-opacity:1;stroke-miterlimit:4;" d="M 33.5 348.953125 L 51.722656 350.261719 C 52.125 365.691406 53.992188 424.59375 124.34375 427.808594 L 122.144531 449.234375 C 36.53125 450.117188 30.019531 376.976562 33.5 348.953125 "/>
<path style="fill:none;stroke-width:0.404834;stroke-linecap:butt;stroke-linejoin:miter;stroke:rgb(0%,0%,0%);stroke-opacity:1;stroke-miterlimit:4;" d="M 100.367188 453.625 L 121.832031 448.921875 "/>
<path style=" stroke:none;fill-rule:evenodd;fill:rgb(97.645569%,85.096741%,5.882263%);fill-opacity:1;" d="M 293.535156 327.125 L 274.695312 333.085938 L 280.664062 363.636719 L 298.589844 366.515625 C 298.589844 366.515625 301.476562 350.441406 293.535156 327.097656 Z M 293.535156 327.125 "/>
<path style="fill:none;stroke-width:0.404834;stroke-linecap:butt;stroke-linejoin:miter;stroke:rgb(0%,0%,0%);stroke-opacity:1;stroke-miterlimit:4;" d="M 293.535156 327.128906 L 274.695312 333.085938 L 280.664062 363.636719 L 298.589844 366.515625 C 298.589844 366.515625 301.476562 350.441406 293.535156 327.097656 Z M 293.535156 327.128906 "/>
<path style=" stroke:none;fill-rule:evenodd;fill:rgb(97.645569%,71.37146%,5.882263%);fill-opacity:1;" d="M 280.664062 363.316406 L 298.589844 366.53125 L 287.132812 350.441406 Z M 280.664062 363.316406 "/>
<path style="fill:none;stroke-width:0.404834;stroke-linecap:butt;stroke-linejoin:miter;stroke:rgb(0%,0%,0%);stroke-opacity:1;stroke-miterlimit:4;" d="M 280.664062 363.316406 L 298.589844 366.53125 L 287.132812 350.441406 L 280.664062 363.316406 "/>
<path style=" stroke:none;fill-rule:evenodd;fill:rgb(97.645569%,85.096741%,5.882263%);fill-opacity:1;" d="M 305.042969 349.1875 L 286.796875 350.441406 C 286.53125 365.855469 285.183594 424.777344 214.835938 427.90625 L 217.222656 449.328125 C 302.84375 450.3125 308.722656 377.214844 305.042969 349.1875 Z M 305.042969 349.1875 "/>
<path style="fill:none;stroke-width:0.404834;stroke-linecap:butt;stroke-linejoin:miter;stroke:rgb(0%,0%,0%);stroke-opacity:1;stroke-miterlimit:4;" d="M 305.042969 349.191406 L 286.796875 350.441406 C 286.53125 365.859375 285.183594 424.777344 214.835938 427.90625 L 217.222656 449.328125 C 302.84375 450.3125 308.722656 377.210938 305.042969 349.191406 "/>
<path style="fill:none;stroke-width:0.404834;stroke-linecap:butt;stroke-linejoin:miter;stroke:rgb(0%,0%,0%);stroke-opacity:1;stroke-miterlimit:4;" d="M 239.078125 453.726562 L 217.554688 449.023438 "/>
<path style=" stroke:none;fill-rule:evenodd;fill:rgb(0.392151%,16.470337%,52.940369%);fill-opacity:1;" d="M 158.523438 451.445312 C 158.042969 451.757812 157.386719 451.828125 156.640625 451.800781 L 153.242188 451.621094 L 153.523438 447.390625 L 156.894531 447.5625 C 157.566406 447.605469 158.085938 447.742188 158.421875 447.9375 C 159.101562 448.292969 159.402344 448.953125 159.324219 449.863281 C 159.28125 450.636719 159.011719 451.144531 158.523438 451.445312 Z M 152.808594 458.132812 L 153.144531 452.953125 L 157.105469 453.21875 C 158.382812 453.328125 159.339844 452.996094 159.984375 452.335938 C 160.65625 451.699219 161 450.859375 161.046875 449.921875 C 161.132812 448.820312 160.851562 447.925781 160.191406 447.25 C 159.5625 446.621094 158.6875 446.28125 157.566406 446.175781 L 151.894531 445.820312 L 151.121094 457.992188 L 152.808594 458.101562 Z M 152.808594 458.132812 "/>
<path style=" stroke:none;fill-rule:evenodd;fill:rgb(0.392151%,16.470337%,52.940369%);fill-opacity:1;" d="M 165.132812 447.9375 L 169.269531 447.980469 C 169.863281 448.039062 170.339844 448.117188 170.6875 448.277344 C 171.324219 448.582031 171.628906 449.175781 171.628906 450.042969 C 171.628906 450.859375 171.390625 451.417969 170.929688 451.742188 C 170.480469 452.039062 169.835938 452.179688 169.0625 452.179688 L 165.089844 452.132812 L 165.117188 447.9375 Z M 165.0625 458.722656 L 165.089844 453.515625 L 168.980469 453.582031 C 169.667969 453.582031 170.179688 453.640625 170.535156 453.804688 C 171.101562 454.070312 171.390625 454.621094 171.417969 455.382812 L 171.519531 457.429688 C 171.535156 457.921875 171.550781 458.21875 171.585938 458.429688 C 171.644531 458.566406 171.65625 458.722656 171.730469 458.832031 L 173.820312 458.832031 L 173.792969 458.566406 C 173.554688 458.441406 173.355469 458.1875 173.285156 457.820312 C 173.207031 457.597656 173.164062 457.234375 173.148438 456.785156 L 173.117188 455.15625 C 173.089844 454.429688 172.953125 453.921875 172.683594 453.640625 C 172.429688 453.3125 172.105469 453.023438 171.585938 452.851562 C 172.164062 452.546875 172.597656 452.191406 172.910156 451.757812 C 173.21875 451.28125 173.371094 450.664062 173.371094 449.921875 C 173.371094 448.515625 172.808594 447.5625 171.644531 447.054688 C 171.015625 446.773438 170.210938 446.621094 169.269531 446.605469 L 163.417969 446.550781 L 163.375 458.757812 L 165.0625 458.757812 Z M 165.0625 458.722656 "/>
<path style=" stroke:none;fill-rule:evenodd;fill:rgb(0.392151%,16.470337%,52.940369%);fill-opacity:1;" d="M 178.03125 456.179688 C 177.285156 455.265625 176.882812 454.128906 176.792969 452.785156 C 176.699219 451.085938 177.035156 449.804688 177.808594 448.921875 C 178.582031 447.980469 179.601562 447.535156 180.910156 447.460938 C 182.242188 447.390625 183.324219 447.816406 184.136719 448.652344 C 184.96875 449.457031 185.429688 450.605469 185.527344 452.011719 C 185.570312 453.386719 185.328125 454.59375 184.699219 455.648438 C 184.09375 456.726562 183.058594 457.34375 181.539062 457.386719 C 179.957031 457.457031 178.777344 457.089844 178.03125 456.179688 Z M 176.027344 448.488281 C 175.238281 449.695312 174.929688 451.085938 175 452.785156 C 175.121094 454.605469 175.6875 456.113281 176.742188 457.25 C 177.921875 458.382812 179.492188 458.964844 181.417969 458.847656 C 183.476562 458.757812 185.035156 457.980469 186.089844 456.546875 C 186.941406 455.25 187.363281 453.726562 187.269531 451.882812 C 187.152344 450.203125 186.660156 448.863281 185.761719 447.84375 C 184.628906 446.492188 182.972656 445.890625 180.714844 445.984375 C 178.582031 446.113281 177.035156 446.910156 176.011719 448.488281 Z M 176.027344 448.488281 "/>
<path style=" stroke:none;fill-rule:evenodd;fill:rgb(0.392151%,16.470337%,52.940369%);fill-opacity:1;" d="M 233.40625 430.925781 C 234.570312 430.730469 235.589844 430.773438 236.53125 431.105469 C 237.882812 431.519531 238.792969 432.535156 239.382812 434.070312 L 237.6875 434.308594 C 237.332031 433.476562 236.8125 432.90625 236.109375 432.582031 C 235.4375 432.285156 234.570312 432.207031 233.601562 432.355469 C 232.449219 432.535156 231.523438 433.101562 230.890625 434.027344 C 230.257812 434.996094 230.0625 436.3125 230.347656 437.984375 C 230.570312 439.375 231.089844 440.539062 231.929688 441.3125 C 232.6875 442.113281 233.824219 442.398438 235.316406 442.195312 C 236.421875 442.015625 237.320312 441.566406 237.949219 440.804688 C 238.585938 440.074219 238.78125 438.96875 238.570312 437.550781 L 234.648438 438.164062 L 234.453125 436.804688 L 239.902344 435.964844 L 240.957031 442.433594 L 239.886719 442.59375 L 239.214844 441.101562 C 238.75 441.777344 238.304688 442.296875 237.898438 442.59375 C 237.226562 443.136719 236.320312 443.460938 235.183594 443.628906 C 233.710938 443.851562 232.363281 443.597656 231.15625 442.800781 C 229.8125 441.820312 228.941406 440.34375 228.632812 438.296875 C 228.269531 436.300781 228.589844 434.578125 229.515625 433.222656 C 230.390625 431.90625 231.675781 431.148438 233.40625 430.910156 Z M 233.40625 430.925781 "/>
<path style=" stroke:none;fill-rule:evenodd;fill:rgb(0.392151%,16.470337%,52.940369%);fill-opacity:1;" d="M 245.738281 429.984375 L 249.644531 428.566406 C 250.167969 428.355469 250.652344 428.296875 251.035156 428.34375 C 251.75 428.398438 252.285156 428.820312 252.589844 429.6875 C 252.871094 430.402344 252.871094 431.039062 252.546875 431.488281 C 252.214844 431.953125 251.691406 432.285156 250.917969 432.566406 L 247.246094 433.875 Z M 249.644531 440.074219 L 247.734375 435.179688 L 251.367188 433.859375 C 252.046875 433.660156 252.53125 433.535156 252.871094 433.566406 C 253.53125 433.660156 254.007812 434.042969 254.332031 434.785156 L 255.171875 436.652344 C 255.355469 437.117188 255.5 437.386719 255.621094 437.523438 C 255.664062 437.6875 255.78125 437.789062 255.875 437.890625 L 257.839844 437.160156 L 257.742188 436.90625 C 257.4375 436.90625 257.167969 436.75 256.960938 436.414062 C 256.800781 436.191406 256.664062 435.863281 256.453125 435.488281 L 255.792969 433.957031 C 255.511719 433.296875 255.214844 432.878906 254.867188 432.640625 C 254.515625 432.445312 254.078125 432.328125 253.574219 432.285156 C 253.964844 431.820312 254.261719 431.359375 254.359375 430.824219 C 254.484375 430.265625 254.429688 429.644531 254.167969 428.957031 C 253.660156 427.65625 252.75 426.9375 251.453125 426.851562 C 250.78125 426.808594 249.992188 426.9375 249.097656 427.273438 L 243.605469 429.222656 L 248.035156 440.699219 L 249.644531 440.105469 Z M 249.644531 440.074219 "/>
<path style=" stroke:none;fill-rule:evenodd;fill:rgb(0.392151%,16.470337%,52.940369%);fill-opacity:1;" d="M 263.929688 434.027344 L 256.960938 423.851562 L 264.621094 418.964844 L 265.453125 420.210938 L 259.1875 424.210938 L 261.335938 427.316406 L 267.128906 423.597656 L 267.917969 424.777344 L 262.125 428.507812 L 264.480469 431.9375 L 270.871094 427.851562 L 271.710938 429.058594 Z M 263.929688 434.027344 "/>
<path style=" stroke:none;fill-rule:evenodd;fill:rgb(0.392151%,16.470337%,52.940369%);fill-opacity:1;" d="M 270.035156 416.042969 L 272.019531 413.851562 C 272.960938 412.867188 273.929688 412.433594 275.007812 412.550781 C 276.085938 412.644531 277.171875 413.210938 278.335938 414.222656 C 278.652344 414.472656 278.933594 414.792969 279.230469 415.148438 C 279.738281 415.804688 280.035156 416.394531 280.230469 416.96875 C 280.394531 417.703125 280.355469 418.359375 280.101562 419.003906 C 279.949219 419.316406 279.667969 419.683594 279.261719 420.132812 L 277.265625 422.316406 L 270.035156 416.03125 Z M 280.59375 420.820312 C 282.007812 419.253906 282.320312 417.585938 281.488281 415.691406 C 281.011719 414.65625 280.273438 413.65625 279.246094 412.773438 C 277.980469 411.644531 276.636719 411.0625 275.230469 410.960938 C 273.660156 410.835938 272.335938 411.398438 271.1875 412.660156 L 267.78125 416.3125 L 277.171875 424.507812 L 280.578125 420.832031 Z M 280.59375 420.820312 "/>
<path style=" stroke:none;fill-rule:evenodd;fill:rgb(0.392151%,16.470337%,52.940369%);fill-opacity:1;" d="M 287.875 411.34375 L 277.054688 405 L 277.929688 403.601562 L 288.773438 409.910156 L 287.875 411.355469 Z M 287.875 411.34375 "/>
<path style=" stroke:none;fill-rule:evenodd;fill:rgb(0.392151%,16.470337%,52.940369%);fill-opacity:1;" d="M 292.113281 403.972656 L 280.441406 399.296875 L 283.875 391.09375 L 285.292969 391.628906 L 282.488281 398.410156 L 286.007812 399.777344 L 288.636719 393.554688 L 289.980469 394.105469 L 287.386719 400.332031 L 291.304688 401.925781 L 294.191406 395.082031 L 295.609375 395.617188 L 292.101562 403.972656 Z M 292.113281 403.972656 "/>
<path style=" stroke:none;fill-rule:evenodd;fill:rgb(0.392151%,16.470337%,52.940369%);fill-opacity:1;" d="M 297.476562 389.625 L 285.183594 386.914062 L 285.589844 385.019531 L 296.949219 381.183594 L 286.980469 378.992188 L 287.332031 377.496094 L 299.625 380.136719 L 299.234375 381.988281 L 287.875 385.902344 L 297.828125 388.050781 L 297.492188 389.625 Z M 297.476562 389.625 "/>
<path style=" stroke:none;fill-rule:evenodd;fill:rgb(0.392151%,16.470337%,52.940369%);fill-opacity:1;" d="M 296.5 374.035156 L 296.648438 372.496094 C 297.367188 372.511719 297.964844 372.394531 298.417969 372.15625 C 299.304688 371.679688 299.832031 370.753906 299.964844 369.40625 C 300.007812 368.765625 299.992188 368.214844 299.847656 367.695312 C 299.574219 366.660156 299.007812 366.109375 298.082031 366.023438 C 297.410156 365.941406 296.917969 366.109375 296.566406 366.484375 C 296.246094 366.898438 295.90625 367.527344 295.652344 368.394531 L 295.082031 370.007812 C 294.726562 371.050781 294.394531 371.78125 294.023438 372.183594 C 293.4375 372.960938 292.621094 373.214844 291.570312 373.140625 C 290.472656 373.035156 289.5625 372.582031 288.917969 371.722656 C 288.246094 370.949219 287.976562 369.828125 288.144531 368.453125 C 288.246094 367.1875 288.664062 366.125 289.410156 365.277344 C 290.097656 364.480469 291.175781 364.113281 292.550781 364.257812 L 292.410156 365.8125 C 291.738281 365.8125 291.21875 365.914062 290.8125 366.195312 C 290.109375 366.585938 289.726562 367.410156 289.605469 368.621094 C 289.503906 369.617188 289.632812 370.289062 290.023438 370.796875 C 290.394531 371.230469 290.894531 371.5 291.441406 371.542969 C 292.050781 371.601562 292.511719 371.40625 292.847656 370.949219 C 293.085938 370.632812 293.367188 369.945312 293.742188 368.828125 L 294.308594 367.121094 C 294.574219 366.347656 294.90625 365.753906 295.277344 365.320312 C 295.964844 364.621094 296.859375 364.320312 297.964844 364.394531 C 299.335938 364.539062 300.3125 365.109375 300.804688 366.140625 C 301.292969 367.1875 301.492188 368.335938 301.367188 369.644531 C 301.214844 371.121094 300.722656 372.285156 299.847656 373.082031 C 298.953125 373.871094 297.84375 374.140625 296.5 374.035156 Z M 296.5 374.035156 "/>
<path style=" stroke:none;fill-rule:evenodd;fill:rgb(0.392151%,16.470337%,52.940369%);fill-opacity:1;" d="M 41.839844 373.285156 L 42.121094 374.8125 C 41.433594 374.964844 40.886719 375.230469 40.496094 375.585938 C 39.777344 376.257812 39.527344 377.257812 39.777344 378.632812 C 39.886719 379.210938 40.097656 379.78125 40.363281 380.246094 C 40.898438 381.171875 41.617188 381.539062 42.511719 381.394531 C 43.171875 381.273438 43.621094 381.019531 43.828125 380.554688 C 44.019531 380.078125 44.171875 379.375 44.214844 378.464844 L 44.292969 376.75 C 44.351562 375.695312 44.464844 374.855469 44.707031 374.394531 C 45.082031 373.5625 45.769531 373.035156 46.808594 372.875 C 47.929688 372.664062 48.914062 372.917969 49.769531 373.5625 C 50.613281 374.140625 51.1875 375.167969 51.394531 376.527344 C 51.648438 377.777344 51.527344 378.898438 51.035156 379.898438 C 50.570312 380.890625 49.660156 381.480469 48.269531 381.734375 L 48.003906 380.203125 C 48.648438 379.964844 49.125 379.738281 49.433594 379.40625 C 49.992188 378.8125 50.152344 377.929688 49.949219 376.722656 C 49.785156 375.738281 49.433594 375.09375 48.929688 374.785156 C 48.4375 374.40625 47.929688 374.261719 47.394531 374.347656 C 46.78125 374.449219 46.375 374.785156 46.1875 375.332031 C 46.066406 375.695312 45.976562 376.4375 45.898438 377.605469 L 45.8125 379.375 C 45.769531 380.214844 45.644531 380.902344 45.363281 381.378906 C 44.914062 382.242188 44.171875 382.785156 43.0625 382.957031 C 41.675781 383.195312 40.605469 382.871094 39.84375 381.988281 C 39.0625 381.105469 38.570312 380.0625 38.332031 378.769531 C 38.066406 377.226562 38.257812 376.019531 38.875 375.066406 C 39.496094 374.082031 40.496094 373.496094 41.839844 373.308594 Z M 41.839844 373.285156 "/>
<path style=" stroke:none;fill-rule:evenodd;fill:rgb(0.392151%,16.470337%,52.940369%);fill-opacity:1;" d="M 41.066406 389.390625 L 53.082031 385.777344 L 55.875 394.242188 L 54.414062 394.707031 L 52.125 387.753906 L 48.464844 388.851562 L 50.585938 395.269531 L 49.183594 395.71875 L 47.09375 389.285156 L 43.019531 390.496094 L 45.347656 397.597656 L 43.917969 398.019531 Z M 41.066406 389.390625 "/>
<path style=" stroke:none;fill-rule:evenodd;fill:rgb(0.392151%,16.470337%,52.940369%);fill-opacity:1;" d="M 46.390625 404.058594 L 57.4375 398.199219 L 58.613281 400.253906 L 51.019531 408.296875 L 62.125 406.386719 L 63.257812 408.433594 L 52.242188 414.273438 L 51.453125 412.914062 L 57.964844 409.476562 C 58.203125 409.347656 58.558594 409.148438 59.09375 408.867188 C 59.605469 408.628906 60.183594 408.3125 60.769531 408.015625 L 49.726562 409.894531 L 48.914062 408.464844 L 56.453125 400.449219 L 56.097656 400.628906 C 55.859375 400.78125 55.453125 400.96875 54.902344 401.285156 C 54.347656 401.628906 53.949219 401.835938 53.675781 401.945312 L 47.183594 405.417969 L 46.390625 404.042969 Z M 46.390625 404.058594 "/>
<path style=" stroke:none;fill-rule:evenodd;fill:rgb(0.392151%,16.470337%,52.940369%);fill-opacity:1;" d="M 66.976562 420.328125 C 66.429688 420.210938 65.886719 419.878906 65.351562 419.328125 L 63.003906 416.929688 L 66.152344 414.046875 L 68.496094 416.449219 C 68.960938 416.898438 69.25 417.332031 69.40625 417.703125 C 69.617188 418.417969 69.40625 419.074219 68.734375 419.683594 C 68.144531 420.242188 67.542969 420.464844 66.976562 420.328125 Z M 58.09375 421.449219 L 61.964844 417.910156 L 64.691406 420.6875 C 65.574219 421.578125 66.472656 422 67.410156 421.96875 C 68.382812 421.925781 69.199219 421.566406 69.9375 420.882812 C 70.753906 420.144531 71.144531 419.300781 71.144531 418.375 C 71.128906 417.492188 70.722656 416.660156 69.964844 415.863281 L 66.035156 411.863281 L 56.902344 420.253906 L 58.078125 421.449219 Z M 58.09375 421.449219 "/>
<path style=" stroke:none;fill-rule:evenodd;fill:rgb(0.392151%,16.470337%,52.940369%);fill-opacity:1;" d="M 69.125 431.25 L 75.75 420.882812 L 83.578125 425.644531 L 82.769531 426.882812 L 76.339844 423.019531 L 74.335938 426.164062 L 80.257812 429.746094 L 79.484375 430.9375 L 73.574219 427.371094 L 71.320312 430.894531 L 77.828125 434.800781 L 77.054688 436.03125 Z M 69.125 431.25 "/>
<path style=" stroke:none;fill-rule:evenodd;fill:rgb(0.392151%,16.470337%,52.940369%);fill-opacity:1;" d="M 88.722656 429.253906 L 92.707031 430.519531 C 93.28125 430.683594 93.679688 430.910156 93.964844 431.148438 C 94.472656 431.625 94.605469 432.328125 94.308594 433.160156 C 94.054688 433.875 93.679688 434.355469 93.097656 434.5625 C 92.59375 434.65625 91.933594 434.65625 91.175781 434.417969 L 87.414062 433.210938 Z M 85.292969 439.460938 L 86.949219 434.503906 L 90.667969 435.714844 C 91.320312 435.878906 91.796875 436.117188 92.035156 436.371094 C 92.5 436.777344 92.636719 437.386719 92.398438 438.128906 L 91.847656 440.105469 C 91.722656 440.597656 91.667969 440.90625 91.609375 441.058594 C 91.609375 441.203125 91.609375 441.371094 91.636719 441.476562 L 93.589844 442.113281 L 93.699219 441.832031 C 93.488281 441.667969 93.382812 441.371094 93.382812 441 C 93.425781 440.777344 93.488281 440.414062 93.621094 439.980469 L 94.097656 438.417969 C 94.277344 437.714844 94.351562 437.210938 94.191406 436.835938 C 94.039062 436.429688 93.800781 436.089844 93.382812 435.742188 C 94.011719 435.640625 94.53125 435.445312 94.996094 435.121094 C 95.429688 434.746094 95.785156 434.222656 95.992188 433.492188 C 96.441406 432.175781 96.203125 431.074219 95.21875 430.238281 C 94.726562 429.804688 94.023438 429.433594 93.113281 429.085938 L 87.542969 427.371094 L 83.667969 438.953125 Z M 85.292969 439.460938 "/>
<path style=" stroke:none;fill-rule:evenodd;fill:rgb(73.724365%,44.313049%,37.254333%);fill-opacity:1;" d="M 102.179688 228.660156 C 103.609375 225.203125 116.90625 215.769531 160.570312 219.898438 C 160.570312 219.898438 167.941406 224.40625 172.265625 223.828125 C 174.746094 223.5 170.820312 223.980469 167.601562 221.289062 C 164.300781 218.621094 163.601562 213.128906 171.121094 213.257812 C 178.59375 213.457031 206.582031 215.039062 207.125 217.554688 C 207.617188 220.097656 192.320312 221.160156 186.625 221.023438 C 180.910156 220.855469 181.582031 223.753906 187.269531 223.53125 C 205.035156 222.902344 224.433594 216.636719 244.929688 231.128906 C 247.367188 232.886719 238.75 233.167969 232.082031 230.332031 C 232.082031 230.332031 214.003906 231.273438 206.199219 229.992188 C 206.199219 229.992188 200.179688 234.875 192.359375 234.394531 C 193.375 236.929688 189.480469 246.390625 164.878906 239.273438 C 160.820312 240.523438 146.015625 243.003906 147.628906 238.601562 C 143.726562 238.601562 136.894531 239.855469 135.878906 237.644531 C 134.894531 235.453125 147.910156 232.152344 150.195312 229.796875 C 150.195312 229.796875 122.671875 230.0625 117.464844 228.167969 C 117.464844 228.167969 101.214844 231.816406 102.179688 228.644531 Z M 102.179688 228.660156 "/>
<path style=" stroke:none;fill-rule:evenodd;fill:rgb(0%,53.33252%,18.823242%);fill-opacity:1;" d="M 110.996094 267.195312 C 111.582031 266.40625 111.820312 264.972656 113.070312 265.003906 C 115.796875 265.734375 117.648438 270.71875 121.015625 267.476562 C 122.191406 267.222656 122.65625 268.835938 123.640625 269.03125 C 124.261719 271.796875 126.492188 268.46875 128.144531 268.65625 C 131.699219 267.078125 136.105469 266.703125 140.316406 267.476562 C 140.429688 270.195312 138.3125 273.199219 135.640625 274.746094 C 135.683594 277.480469 138.179688 279.222656 138.128906 281.988281 C 137.703125 283.015625 138.058594 284.628906 136.5 284.953125 C 134.535156 284.613281 132.582031 284.402344 130.953125 283.296875 C 130.746094 283.101562 130.578125 282.703125 130.15625 282.832031 C 129.96875 283.746094 131.402344 284.65625 131.964844 285.597656 C 130.96875 287.285156 129.324219 285.75 127.953125 285.761719 C 127.53125 286.734375 127.9375 287.957031 126.9375 288.585938 C 125.1875 288.535156 124.832031 286.625 123.753906 285.683594 C 122.671875 286.878906 124.535156 287.578125 124.804688 288.535156 C 124.132812 292.101562 124.21875 295.609375 120.640625 297.953125 L 118.238281 299.144531 C 117.578125 297.34375 118 294.609375 117.550781 292.730469 C 116.132812 295.042969 115.023438 297.054688 112.949219 299.015625 C 110.519531 298.21875 109.101562 295.339844 108.566406 292.96875 C 107.542969 290.191406 108.132812 286.878906 110.308594 284.867188 C 109.5625 283.421875 107.007812 283.746094 106.65625 281.683594 C 102.828125 279.195312 100.710938 286.046875 98.234375 282.480469 C 97.4375 279.152344 98.394531 275.015625 100.804688 272.539062 C 100.261719 271.179688 98.488281 271.542969 97.425781 270.746094 C 95.023438 268.707031 91.542969 266.550781 91.722656 262.855469 C 98.308594 260.375 106.191406 262.195312 110.980469 267.195312 Z M 110.996094 267.195312 "/>
<path style=" stroke:none;fill-rule:evenodd;fill:rgb(97.645569%,85.096741%,5.882263%);fill-opacity:1;" d="M 114.417969 266.824219 C 114.25 269.835938 116.441406 267.644531 118.070312 269.480469 C 116.804688 268.972656 115.878906 271.671875 114.621094 270.125 L 113.847656 270.871094 C 114.292969 271.910156 115.191406 272.046875 114.265625 273.179688 C 112.90625 273.707031 112.621094 271.984375 111.996094 271.320312 C 111.894531 271.015625 112.203125 270.449219 111.695312 270.253906 C 110.9375 270.914062 110.113281 271.152344 109.058594 271.027344 C 108.773438 270.449219 108.203125 269.691406 108.773438 269.242188 C 109.816406 267.839844 111.445312 269.75 112.230469 268.765625 C 112.355469 267.894531 111.597656 266.824219 112.578125 266.226562 C 113.265625 266.347656 114.144531 265.972656 114.417969 266.824219 Z M 114.417969 266.824219 "/>
<path style=" stroke:none;fill-rule:evenodd;fill:rgb(97.645569%,85.096741%,5.882263%);fill-opacity:1;" d="M 122.5625 269.300781 C 122.644531 269.886719 122.265625 270.703125 123.027344 271.105469 C 124.007812 270.566406 125.070312 270.984375 125.636719 271.953125 C 125.636719 272.496094 125.804688 273.179688 125.101562 273.4375 L 123.5625 273.148438 C 123.667969 272.835938 123.179688 272.65625 122.980469 272.359375 C 122.308594 272.148438 121.902344 272.699219 121.398438 273.046875 C 121.773438 273.625 122.671875 273.945312 122.460938 274.6875 C 121.550781 275.601562 121.101562 273.914062 120.101562 274.328125 C 119.414062 274.074219 120.339844 272.65625 119.261719 272.222656 C 118 272.222656 118.84375 274.3125 117.214844 273.496094 C 116.636719 272.835938 116.074219 271.953125 116.695312 271.222656 C 117.367188 270.777344 118.535156 270.882812 119.097656 271.476562 C 120.101562 270.378906 120.203125 266.140625 122.5625 269.300781 Z M 122.5625 269.300781 "/>
<path style=" stroke:none;fill-rule:evenodd;fill:rgb(97.645569%,85.096741%,5.882263%);fill-opacity:1;" d="M 112.414062 273.675781 C 113.070312 274.632812 112.261719 275.925781 113.113281 277.003906 C 114.445312 274.507812 115.710938 277.523438 117.296875 277.300781 C 117.785156 277.878906 117.464844 278.703125 117.550781 279.375 C 115.609375 279.898438 113.25 280.503906 111.515625 278.941406 L 111.039062 279.507812 C 112.074219 280.460938 113.042969 281.539062 112.21875 283.140625 C 110.757812 283.449219 108.484375 283.492188 107.753906 281.988281 C 107.386719 280.730469 108.652344 279.839844 107.304688 278.832031 C 106.335938 280.042969 106.378906 281.65625 104.355469 280.570312 C 103.097656 279.882812 102.726562 278.449219 103.355469 277.257812 C 104.667969 275.179688 106.953125 277.316406 108.371094 276.300781 C 108.566406 274.535156 107.921875 272.988281 109.535156 272 C 110.9375 271.757812 111.582031 272.808594 112.414062 273.675781 Z M 112.414062 273.675781 "/>
<path style=" stroke:none;fill-rule:evenodd;fill:rgb(99.998474%,99.998474%,99.998474%);fill-opacity:1;" d="M 117.953125 274.761719 C 117.296875 277.777344 115.023438 274.59375 113.96875 274.480469 C 115.386719 271.953125 116.277344 275.296875 117.953125 274.761719 Z M 117.953125 274.761719 "/>
<path style=" stroke:none;fill-rule:evenodd;fill:rgb(99.998474%,99.998474%,99.998474%);fill-opacity:1;" d="M 125.03125 278.046875 C 123.445312 278.480469 123.699219 276.511719 122.925781 275.746094 L 123.515625 275.179688 C 124.105469 275.882812 124.535156 277.121094 125.03125 278.046875 Z M 125.03125 278.046875 "/>
<path style=" stroke:none;fill-rule:evenodd;fill:rgb(97.645569%,85.096741%,5.882263%);fill-opacity:1;" d="M 122.894531 277.429688 C 123.335938 278.480469 121.859375 279.3125 123.132812 280.09375 C 123.515625 279.746094 124.007812 279.28125 124.21875 279.085938 C 125.3125 279.421875 126.5625 279.601562 127.308594 280.671875 C 128.117188 282.898438 125.875 282.832031 124.609375 283.449219 L 123.335938 283.40625 C 123.640625 282.777344 122.800781 282.523438 122.589844 282.089844 C 122.011719 281.9375 121.519531 282.117188 121.1875 282.609375 C 121.476562 284.027344 123.191406 285.121094 121.425781 286.371094 C 119.921875 286.285156 117.59375 286.863281 117.746094 284.792969 C 117.171875 283.613281 119.261719 281.808594 117.027344 281.734375 C 116.296875 283.3125 115.488281 284.835938 113.5625 283.339844 L 113.800781 281.089844 C 115.640625 281.148438 117.800781 281.460938 118.640625 279.421875 C 119.164062 277.929688 117.714844 276.554688 119.011719 275.375 C 120.875 274.941406 121.941406 276.195312 122.894531 277.429688 Z M 122.894531 277.429688 "/>
<path style=" stroke:none;fill-rule:evenodd;fill:rgb(0%,0%,0%);fill-opacity:1;" d="M 121.550781 280.824219 C 122.011719 281.9375 120.738281 282.015625 120.144531 282.566406 C 119.335938 282.640625 118.773438 282.3125 118.28125 281.777344 C 117.917969 280.417969 118.925781 280.28125 119.699219 279.746094 C 120.59375 279.375 120.964844 280.417969 121.550781 280.824219 Z M 121.550781 280.824219 "/>
<path style=" stroke:none;fill-rule:evenodd;fill:rgb(99.998474%,99.998474%,99.998474%);fill-opacity:1;" d="M 120.441406 281.554688 C 120.25 281.820312 119.964844 281.734375 119.667969 281.808594 L 119.386719 280.460938 C 119.980469 280.503906 120.761719 280.699219 120.441406 281.554688 Z M 120.441406 281.554688 "/>
</g>
</svg>
