<?xml version="1.0" encoding="UTF-8"?>
<svg xmlns="http://www.w3.org/2000/svg" xmlns:xlink="http://www.w3.org/1999/xlink" viewBox="0 0 1000 502" version="1.1">
<defs>
<clipPath id="clip1">
  <path d="M 0 1 L 1000 1 L 1000 501.601562 L 0 501.601562 Z M 0 1 "/>
</clipPath>
</defs>
<g id="surface1080">
<g clip-path="url(#clip1)" clip-rule="nonzero">
<path style=" stroke:none;fill-rule:evenodd;fill:rgb(92.939758%,10.980225%,14.117432%);fill-opacity:1;" d="M 0.0507812 1.757812 L 999.007812 1.757812 L 999.007812 501.238281 L 0.0507812 501.238281 Z M 0.0507812 1.757812 "/>
</g>
<path style=" stroke:none;fill-rule:evenodd;fill:rgb(0%,36.470032%,64.312744%);fill-opacity:1;" d="M 0.0507812 1.757812 L 999.007812 1.757812 L 999.007812 334.742188 L 0.0507812 334.742188 Z M 0.0507812 1.757812 "/>
<path style=" stroke:none;fill-rule:evenodd;fill:rgb(99.998474%,99.998474%,99.998474%);fill-opacity:1;" d="M 0.0507812 1.757812 L 999.007812 1.757812 L 999.007812 168.25 L 0.0507812 168.25 Z M 0.0507812 1.757812 "/>
<path style=" stroke:none;fill-rule:evenodd;fill:rgb(0%,36.470032%,64.312744%);fill-opacity:1;" d="M 309.164062 176.941406 L 314.40625 99.539062 C 294.292969 90.007812 272.050781 85.003906 249.792969 85.003906 C 227.535156 85.003906 205.289062 90.007812 185.175781 99.539062 L 190.417969 176.941406 C 191.5625 193.800781 197.949219 210.265625 208.472656 223.484375 C 219.003906 236.699219 233.621094 246.609375 249.792969 251.492188 C 265.964844 246.609375 280.582031 236.699219 291.105469 223.484375 C 301.632812 210.265625 308.019531 193.800781 309.164062 176.941406 Z M 309.164062 176.941406 "/>
<path style=" stroke:none;fill-rule:evenodd;fill:rgb(99.998474%,99.998474%,99.998474%);fill-opacity:1;" d="M 201.328125 187.433594 C 204.074219 199.796875 210.042969 211.433594 218.480469 220.882812 C 226.917969 230.332031 237.8125 237.570312 249.792969 241.691406 C 261.769531 237.570312 272.660156 230.332031 281.101562 220.882812 C 289.539062 211.433594 295.503906 199.796875 298.253906 187.433594 L 274.023438 155.121094 L 264.328125 168.046875 L 249.792969 138.96875 L 235.253906 168.046875 L 225.558594 155.121094 Z M 201.328125 187.433594 "/>
<path style=" stroke:none;fill-rule:evenodd;fill:rgb(0%,36.470032%,64.312744%);fill-opacity:1;" d="M 203.496094 195.511719 C 207.722656 202.835938 218.238281 205.652344 225.5625 201.417969 C 230.445312 198.601562 236.832031 198.601562 241.714844 201.417969 C 246.597656 204.242188 252.988281 204.242188 257.867188 201.417969 C 262.75 198.601562 269.140625 198.601562 274.023438 201.417969 C 281.347656 205.652344 291.859375 202.835938 296.089844 195.511719 L 296.089844 200.171875 C 291.859375 207.496094 281.347656 210.3125 274.023438 206.085938 C 269.140625 203.265625 262.75 203.265625 257.867188 206.085938 C 252.988281 208.902344 246.597656 208.902344 241.714844 206.085938 C 236.832031 203.265625 230.445312 203.265625 225.5625 206.085938 C 218.238281 210.3125 207.722656 207.496094 203.496094 200.171875 Z M 203.496094 195.511719 "/>
<path style=" stroke:none;fill-rule:evenodd;fill:rgb(0%,36.470032%,64.312744%);fill-opacity:1;" d="M 203.496094 204.832031 C 207.722656 212.160156 218.238281 214.976562 225.5625 210.75 C 230.445312 207.925781 236.832031 207.925781 241.714844 210.75 C 246.597656 213.570312 252.988281 213.570312 257.867188 210.75 C 262.75 207.925781 269.140625 207.925781 274.023438 210.75 C 281.347656 214.976562 291.859375 212.160156 296.089844 204.832031 L 296.089844 209.496094 C 291.859375 216.824219 281.347656 219.640625 274.023438 215.410156 C 269.140625 212.59375 262.75 212.59375 257.867188 215.410156 C 252.988281 218.230469 246.597656 218.230469 241.714844 215.410156 C 236.832031 212.59375 230.445312 212.59375 225.5625 215.410156 C 218.238281 219.640625 207.722656 216.824219 203.496094 209.496094 Z M 203.496094 204.832031 "/>
<path style=" stroke:none;fill-rule:evenodd;fill:rgb(99.998474%,86.665344%,0%);fill-opacity:1;" d="M 249.792969 116.757812 L 251.003906 120.71875 L 255.035156 119.785156 L 252.214844 122.816406 L 255.035156 125.84375 L 251.003906 124.914062 L 249.792969 128.871094 L 248.582031 124.914062 L 244.546875 125.84375 L 247.371094 122.816406 L 244.546875 119.785156 L 248.582031 120.71875 Z M 249.792969 116.757812 "/>
<path style=" stroke:none;fill-rule:evenodd;fill:rgb(99.998474%,86.665344%,0%);fill-opacity:1;" d="M 231.621094 92.527344 L 232.832031 96.488281 L 236.863281 95.558594 L 234.042969 98.585938 L 236.863281 101.613281 L 232.832031 100.683594 L 231.621094 104.640625 L 230.40625 100.683594 L 226.371094 101.613281 L 229.195312 98.585938 L 226.371094 95.558594 L 230.40625 96.488281 Z M 231.621094 92.527344 "/>
<path style=" stroke:none;fill-rule:evenodd;fill:rgb(99.998474%,86.665344%,0%);fill-opacity:1;" d="M 267.964844 92.527344 L 269.179688 96.488281 L 273.210938 95.558594 L 270.390625 98.585938 L 273.210938 101.613281 L 269.179688 100.683594 L 267.964844 104.640625 L 266.753906 100.683594 L 262.71875 101.613281 L 265.539062 98.585938 L 262.71875 95.558594 L 266.753906 96.488281 Z M 267.964844 92.527344 "/>
<path style=" stroke:none;fill-rule:evenodd;fill:rgb(92.939758%,10.980225%,14.117432%);fill-opacity:1;" d="M 189.710938 97.480469 L 195.074219 176.628906 C 196.136719 192.3125 202.003906 207.640625 211.6875 220.019531 C 221.367188 232.402344 234.828125 241.789062 249.792969 246.605469 C 264.753906 241.789062 278.214844 232.402344 287.894531 220.019531 C 297.578125 207.640625 303.449219 192.3125 304.507812 176.628906 L 309.875 97.480469 C 311.375 98.191406 312.886719 98.878906 314.40625 99.535156 L 309.164062 176.941406 C 308.019531 193.796875 301.632812 210.265625 291.105469 223.480469 C 280.582031 236.699219 265.964844 246.609375 249.792969 251.492188 C 233.621094 246.609375 219.003906 236.699219 208.472656 223.480469 C 197.949219 210.265625 191.5625 193.796875 190.417969 176.941406 L 185.175781 99.535156 C 186.699219 98.878906 188.210938 98.191406 189.710938 97.480469 Z M 189.710938 97.480469 "/>
</g>
</svg>
