<?xml version="1.0" encoding="UTF-8"?>
<svg xmlns="http://www.w3.org/2000/svg" xmlns:xlink="http://www.w3.org/1999/xlink" viewBox="0 0 1000 500" version="1.1">
<g id="surface1085">
<rect x="0" y="0" width="1000" height="500" style="fill:rgb(12.940979%,35.68573%,19.999695%);fill-opacity:1;stroke:none;"/>
<path style=" stroke:none;fill-rule:evenodd;fill:rgb(0%,31.764221%,72.940063%);fill-opacity:1;" d="M 0 500 L 0 0 L 1000 0 Z M 0 500 "/>
<path style=" stroke:none;fill-rule:evenodd;fill:rgb(0%,0%,0%);fill-opacity:1;" d="M 1000 0 L 0 500 Z M 1000 0 "/>
<path style="fill:none;stroke-width:45;stroke-linecap:butt;stroke-linejoin:miter;stroke:rgb(98.822021%,81.959534%,8.627319%);stroke-opacity:1;stroke-miterlimit:4;" d="M 1000 0 L 0 500 "/>
<path style=" stroke:none;fill-rule:evenodd;fill:rgb(99.998474%,99.998474%,99.998474%);fill-opacity:1;" d="M 175 100 L 159.550781 147.554688 L 183.324219 155.277344 Z M 175 100 "/>
<path style=" stroke:none;fill-rule:evenodd;fill:rgb(99.998474%,99.998474%,99.998474%);fill-opacity:1;" d="M 175 100 L 190.449219 147.554688 L 166.675781 155.277344 Z M 175 100 "/>
<path style=" stroke:none;fill-rule:evenodd;fill:rgb(99.998474%,99.998474%,99.998474%);fill-opacity:1;" d="M 222.554688 134.550781 L 172.554688 134.550781 L 172.554688 159.550781 Z M 222.554688 134.550781 "/>
<path style=" stroke:none;fill-rule:evenodd;fill:rgb(99.998474%,99.998474%,99.998474%);fill-opacity:1;" d="M 222.554688 134.550781 L 182.101562 163.941406 L 167.40625 143.714844 Z M 222.554688 134.550781 "/>
<path style=" stroke:none;fill-rule:evenodd;fill:rgb(99.998474%,99.998474%,99.998474%);fill-opacity:1;" d="M 127.445312 134.550781 L 167.898438 163.941406 L 182.59375 143.714844 Z M 127.445312 134.550781 "/>
<path style=" stroke:none;fill-rule:evenodd;fill:rgb(99.998474%,99.998474%,99.998474%);fill-opacity:1;" d="M 127.445312 134.550781 L 177.445312 134.550781 L 177.445312 159.550781 Z M 127.445312 134.550781 "/>
<path style=" stroke:none;fill-rule:evenodd;fill:rgb(99.998474%,99.998474%,99.998474%);fill-opacity:1;" d="M 204.390625 190.449219 L 188.941406 142.898438 L 165.160156 150.621094 Z M 204.390625 190.449219 "/>
<path style=" stroke:none;fill-rule:evenodd;fill:rgb(99.998474%,99.998474%,99.998474%);fill-opacity:1;" d="M 204.390625 190.449219 L 163.941406 161.058594 L 178.632812 140.835938 Z M 204.390625 190.449219 "/>
<path style=" stroke:none;fill-rule:evenodd;fill:rgb(99.998474%,99.998474%,99.998474%);fill-opacity:1;" d="M 145.609375 190.449219 L 186.058594 161.058594 L 171.367188 140.835938 Z M 145.609375 190.449219 "/>
<path style=" stroke:none;fill-rule:evenodd;fill:rgb(99.998474%,99.998474%,99.998474%);fill-opacity:1;" d="M 145.609375 190.449219 L 161.058594 142.898438 L 184.839844 150.621094 Z M 145.609375 190.449219 "/>
<path style=" stroke:none;fill-rule:evenodd;fill:rgb(99.998474%,99.998474%,99.998474%);fill-opacity:1;" d="M 273.707031 15.402344 L 258.257812 62.953125 L 282.03125 70.679688 Z M 273.707031 15.402344 "/>
<path style=" stroke:none;fill-rule:evenodd;fill:rgb(99.998474%,99.998474%,99.998474%);fill-opacity:1;" d="M 273.707031 15.402344 L 289.15625 62.953125 L 265.382812 70.679688 Z M 273.707031 15.402344 "/>
<path style=" stroke:none;fill-rule:evenodd;fill:rgb(99.998474%,99.998474%,99.998474%);fill-opacity:1;" d="M 321.257812 49.945312 L 271.257812 49.945312 L 271.257812 74.945312 Z M 321.257812 49.945312 "/>
<path style=" stroke:none;fill-rule:evenodd;fill:rgb(99.998474%,99.998474%,99.998474%);fill-opacity:1;" d="M 321.257812 49.945312 L 280.804688 79.335938 L 266.113281 59.109375 Z M 321.257812 49.945312 "/>
<path style=" stroke:none;fill-rule:evenodd;fill:rgb(99.998474%,99.998474%,99.998474%);fill-opacity:1;" d="M 226.152344 49.945312 L 266.601562 79.335938 L 281.300781 59.109375 Z M 226.152344 49.945312 "/>
<path style=" stroke:none;fill-rule:evenodd;fill:rgb(99.998474%,99.998474%,99.998474%);fill-opacity:1;" d="M 226.152344 49.945312 L 276.152344 49.945312 L 276.152344 74.945312 Z M 226.152344 49.945312 "/>
<path style=" stroke:none;fill-rule:evenodd;fill:rgb(99.998474%,99.998474%,99.998474%);fill-opacity:1;" d="M 303.097656 105.851562 L 287.644531 58.296875 L 263.867188 66.023438 Z M 303.097656 105.851562 "/>
<path style=" stroke:none;fill-rule:evenodd;fill:rgb(99.998474%,99.998474%,99.998474%);fill-opacity:1;" d="M 303.097656 105.851562 L 262.644531 76.460938 L 277.339844 56.234375 Z M 303.097656 105.851562 "/>
<path style=" stroke:none;fill-rule:evenodd;fill:rgb(99.998474%,99.998474%,99.998474%);fill-opacity:1;" d="M 244.316406 105.851562 L 284.765625 76.460938 L 270.074219 56.234375 Z M 244.316406 105.851562 "/>
<path style=" stroke:none;fill-rule:evenodd;fill:rgb(99.998474%,99.998474%,99.998474%);fill-opacity:1;" d="M 244.316406 105.851562 L 259.765625 58.296875 L 283.542969 66.023438 Z M 244.316406 105.851562 "/>
<path style=" stroke:none;fill-rule:evenodd;fill:rgb(99.998474%,99.998474%,99.998474%);fill-opacity:1;" d="M 273.707031 184.597656 L 258.257812 232.152344 L 282.03125 239.878906 Z M 273.707031 184.597656 "/>
<path style=" stroke:none;fill-rule:evenodd;fill:rgb(99.998474%,99.998474%,99.998474%);fill-opacity:1;" d="M 273.707031 184.597656 L 289.15625 232.152344 L 265.382812 239.878906 Z M 273.707031 184.597656 "/>
<path style=" stroke:none;fill-rule:evenodd;fill:rgb(99.998474%,99.998474%,99.998474%);fill-opacity:1;" d="M 321.257812 219.148438 L 271.257812 219.148438 L 271.257812 244.148438 Z M 321.257812 219.148438 "/>
<path style=" stroke:none;fill-rule:evenodd;fill:rgb(99.998474%,99.998474%,99.998474%);fill-opacity:1;" d="M 321.257812 219.148438 L 280.804688 248.539062 L 266.113281 228.3125 Z M 321.257812 219.148438 "/>
<path style=" stroke:none;fill-rule:evenodd;fill:rgb(99.998474%,99.998474%,99.998474%);fill-opacity:1;" d="M 226.152344 219.148438 L 266.601562 248.539062 L 281.300781 228.3125 Z M 226.152344 219.148438 "/>
<path style=" stroke:none;fill-rule:evenodd;fill:rgb(99.998474%,99.998474%,99.998474%);fill-opacity:1;" d="M 226.152344 219.148438 L 276.152344 219.148438 L 276.152344 244.148438 Z M 226.152344 219.148438 "/>
<path style=" stroke:none;fill-rule:evenodd;fill:rgb(99.998474%,99.998474%,99.998474%);fill-opacity:1;" d="M 303.097656 275.054688 L 287.644531 227.496094 L 263.867188 235.226562 Z M 303.097656 275.054688 "/>
<path style=" stroke:none;fill-rule:evenodd;fill:rgb(99.998474%,99.998474%,99.998474%);fill-opacity:1;" d="M 303.097656 275.054688 L 262.644531 245.664062 L 277.339844 225.433594 Z M 303.097656 275.054688 "/>
<path style=" stroke:none;fill-rule:evenodd;fill:rgb(99.998474%,99.998474%,99.998474%);fill-opacity:1;" d="M 244.316406 275.054688 L 284.765625 245.664062 L 270.074219 225.433594 Z M 244.316406 275.054688 "/>
<path style=" stroke:none;fill-rule:evenodd;fill:rgb(99.998474%,99.998474%,99.998474%);fill-opacity:1;" d="M 244.316406 275.054688 L 259.765625 227.496094 L 283.542969 235.226562 Z M 244.316406 275.054688 "/>
<path style=" stroke:none;fill-rule:evenodd;fill:rgb(99.998474%,99.998474%,99.998474%);fill-opacity:1;" d="M 76.292969 184.597656 L 60.84375 232.152344 L 84.617188 239.878906 Z M 76.292969 184.597656 "/>
<path style=" stroke:none;fill-rule:evenodd;fill:rgb(99.998474%,99.998474%,99.998474%);fill-opacity:1;" d="M 76.292969 184.597656 L 91.742188 232.152344 L 67.96875 239.878906 Z M 76.292969 184.597656 "/>
<path style=" stroke:none;fill-rule:evenodd;fill:rgb(99.998474%,99.998474%,99.998474%);fill-opacity:1;" d="M 123.847656 219.148438 L 73.847656 219.148438 L 73.847656 244.148438 Z M 123.847656 219.148438 "/>
<path style=" stroke:none;fill-rule:evenodd;fill:rgb(99.998474%,99.998474%,99.998474%);fill-opacity:1;" d="M 123.847656 219.148438 L 83.398438 248.539062 L 68.699219 228.3125 Z M 123.847656 219.148438 "/>
<path style=" stroke:none;fill-rule:evenodd;fill:rgb(99.998474%,99.998474%,99.998474%);fill-opacity:1;" d="M 28.742188 219.148438 L 69.195312 248.539062 L 83.886719 228.3125 Z M 28.742188 219.148438 "/>
<path style=" stroke:none;fill-rule:evenodd;fill:rgb(99.998474%,99.998474%,99.998474%);fill-opacity:1;" d="M 28.742188 219.148438 L 78.742188 219.148438 L 78.742188 244.148438 Z M 28.742188 219.148438 "/>
<path style=" stroke:none;fill-rule:evenodd;fill:rgb(99.998474%,99.998474%,99.998474%);fill-opacity:1;" d="M 105.683594 275.054688 L 90.234375 227.496094 L 66.457031 235.226562 Z M 105.683594 275.054688 "/>
<path style=" stroke:none;fill-rule:evenodd;fill:rgb(99.998474%,99.998474%,99.998474%);fill-opacity:1;" d="M 105.683594 275.054688 L 65.234375 245.664062 L 79.925781 225.433594 Z M 105.683594 275.054688 "/>
<path style=" stroke:none;fill-rule:evenodd;fill:rgb(99.998474%,99.998474%,99.998474%);fill-opacity:1;" d="M 46.902344 275.054688 L 87.355469 245.664062 L 72.660156 225.433594 Z M 46.902344 275.054688 "/>
<path style=" stroke:none;fill-rule:evenodd;fill:rgb(99.998474%,99.998474%,99.998474%);fill-opacity:1;" d="M 46.902344 275.054688 L 62.355469 227.496094 L 86.132812 235.226562 Z M 46.902344 275.054688 "/>
<path style=" stroke:none;fill-rule:evenodd;fill:rgb(99.998474%,99.998474%,99.998474%);fill-opacity:1;" d="M 76.292969 15.402344 L 60.84375 62.953125 L 84.617188 70.679688 Z M 76.292969 15.402344 "/>
<path style=" stroke:none;fill-rule:evenodd;fill:rgb(99.998474%,99.998474%,99.998474%);fill-opacity:1;" d="M 76.292969 15.402344 L 91.742188 62.953125 L 67.96875 70.679688 Z M 76.292969 15.402344 "/>
<path style=" stroke:none;fill-rule:evenodd;fill:rgb(99.998474%,99.998474%,99.998474%);fill-opacity:1;" d="M 123.847656 49.945312 L 73.847656 49.945312 L 73.847656 74.945312 Z M 123.847656 49.945312 "/>
<path style=" stroke:none;fill-rule:evenodd;fill:rgb(99.998474%,99.998474%,99.998474%);fill-opacity:1;" d="M 123.847656 49.945312 L 83.398438 79.335938 L 68.699219 59.109375 Z M 123.847656 49.945312 "/>
<path style=" stroke:none;fill-rule:evenodd;fill:rgb(99.998474%,99.998474%,99.998474%);fill-opacity:1;" d="M 28.742188 49.945312 L 69.195312 79.335938 L 83.886719 59.109375 Z M 28.742188 49.945312 "/>
<path style=" stroke:none;fill-rule:evenodd;fill:rgb(99.998474%,99.998474%,99.998474%);fill-opacity:1;" d="M 28.742188 49.945312 L 78.742188 49.945312 L 78.742188 74.945312 Z M 28.742188 49.945312 "/>
<path style=" stroke:none;fill-rule:evenodd;fill:rgb(99.998474%,99.998474%,99.998474%);fill-opacity:1;" d="M 105.683594 105.851562 L 90.234375 58.296875 L 66.457031 66.023438 Z M 105.683594 105.851562 "/>
<path style=" stroke:none;fill-rule:evenodd;fill:rgb(99.998474%,99.998474%,99.998474%);fill-opacity:1;" d="M 105.683594 105.851562 L 65.234375 76.460938 L 79.925781 56.234375 Z M 105.683594 105.851562 "/>
<path style=" stroke:none;fill-rule:evenodd;fill:rgb(99.998474%,99.998474%,99.998474%);fill-opacity:1;" d="M 46.902344 105.851562 L 87.355469 76.460938 L 72.660156 56.234375 Z M 46.902344 105.851562 "/>
<path style=" stroke:none;fill-rule:evenodd;fill:rgb(99.998474%,99.998474%,99.998474%);fill-opacity:1;" d="M 46.902344 105.851562 L 62.355469 58.296875 L 86.132812 66.023438 Z M 46.902344 105.851562 "/>
</g>
</svg>
