<?xml version="1.0" encoding="UTF-8"?>
<svg xmlns="http://www.w3.org/2000/svg" xmlns:xlink="http://www.w3.org/1999/xlink" viewBox="0 0 1000 667" version="1.1">
<defs>
<clipPath id="clip1">
  <path d="M 0 0 L 1000 0 L 1000 666.71875 L 0 666.71875 Z M 0 0 "/>
</clipPath>
</defs>
<g id="surface1105">
<g clip-path="url(#clip1)" clip-rule="nonzero">
<path style=" stroke:none;fill-rule:evenodd;fill:rgb(99.998474%,99.998474%,99.998474%);fill-opacity:1;" d="M 0 666.667969 L 0 0 L 1000 0 L 1000 666.667969 Z M 0 666.667969 "/>
</g>
<path style=" stroke:none;fill-rule:evenodd;fill:rgb(0%,0%,0%);fill-opacity:1;" d="M 153.316406 202.359375 L 245.761719 63.6875 L 338.210938 125.320312 L 245.761719 263.996094 Z M 153.316406 202.359375 "/>
<path style=" stroke:none;fill-rule:evenodd;fill:rgb(99.998474%,99.998474%,99.998474%);fill-opacity:1;" d="M 168.722656 229.328125 L 276.578125 67.539062 L 288.132812 75.246094 L 180.277344 237.035156 Z M 168.722656 229.328125 "/>
<path style=" stroke:none;fill-rule:evenodd;fill:rgb(99.998474%,99.998474%,99.998474%);fill-opacity:1;" d="M 203.390625 252.441406 L 311.246094 90.652344 L 322.804688 98.355469 L 214.945312 260.144531 Z M 203.390625 252.441406 "/>
<path style=" stroke:none;fill-rule:evenodd;fill:rgb(0%,0%,0%);fill-opacity:1;" d="M 661.789062 541.347656 L 754.238281 402.667969 L 846.683594 464.308594 L 754.238281 602.980469 Z M 661.789062 541.347656 "/>
<path style=" stroke:none;fill-rule:evenodd;fill:rgb(99.998474%,99.998474%,99.998474%);fill-opacity:1;" d="M 677.195312 568.3125 L 785.054688 406.519531 L 796.609375 414.226562 L 688.753906 576.015625 Z M 677.195312 568.3125 "/>
<path style=" stroke:none;fill-rule:evenodd;fill:rgb(99.998474%,99.998474%,99.998474%);fill-opacity:1;" d="M 711.867188 591.421875 L 819.722656 429.632812 L 831.277344 437.335938 L 723.421875 599.125 Z M 711.867188 591.421875 "/>
<path style=" stroke:none;fill-rule:evenodd;fill:rgb(99.998474%,99.998474%,99.998474%);fill-opacity:1;" d="M 692.605469 470.085938 L 700.308594 458.527344 L 815.871094 535.566406 L 808.164062 547.125 Z M 692.605469 470.085938 "/>
<path style=" stroke:none;fill-rule:evenodd;fill:rgb(77.645874%,4.705811%,18.823242%);fill-opacity:1;" d="M 592.445312 194.65625 C 669.039062 245.71875 689.734375 349.195312 638.679688 425.78125 C 587.613281 502.371094 484.136719 523.066406 407.554688 472.011719 C 330.960938 420.945312 310.265625 317.46875 361.320312 240.886719 C 412.386719 164.296875 515.863281 143.597656 592.445312 194.65625 Z M 592.445312 194.65625 "/>
<path style=" stroke:none;fill-rule:evenodd;fill:rgb(0%,20.391846%,47.058105%);fill-opacity:1;" d="M 361.320312 240.886719 C 337.121094 277.1875 348.132812 332.242188 384.441406 356.445312 C 420.742188 380.648438 475.796875 369.640625 500 333.332031 C 524.203125 297.027344 579.257812 286.019531 615.558594 310.222656 C 651.867188 334.421875 662.878906 389.480469 638.679688 425.78125 C 614.46875 462.085938 575.472656 488.207031 532.6875 496.761719 C 489.898438 505.320312 443.851562 496.210938 407.554688 472.011719 C 371.246094 447.804688 345.128906 408.804688 336.570312 366.019531 C 328.011719 323.230469 337.121094 277.1875 361.320312 240.886719 Z M 361.320312 240.886719 "/>
<path style=" stroke:none;fill-rule:evenodd;fill:rgb(0%,0%,0%);fill-opacity:1;" d="M 245.761719 602.980469 L 153.316406 464.308594 L 245.761719 402.667969 L 338.210938 541.347656 Z M 245.761719 602.980469 "/>
<path style=" stroke:none;fill-rule:evenodd;fill:rgb(99.998474%,99.998474%,99.998474%);fill-opacity:1;" d="M 276.578125 599.125 L 168.722656 437.335938 L 180.277344 429.632812 L 288.132812 591.421875 Z M 276.578125 599.125 "/>
<path style=" stroke:none;fill-rule:evenodd;fill:rgb(99.998474%,99.998474%,99.998474%);fill-opacity:1;" d="M 311.246094 576.015625 L 203.390625 414.226562 L 214.945312 406.519531 L 322.804688 568.3125 Z M 311.246094 576.015625 "/>
<path style=" stroke:none;fill-rule:evenodd;fill:rgb(0%,0%,0%);fill-opacity:1;" d="M 754.238281 263.996094 L 661.789062 125.320312 L 754.238281 63.6875 L 846.683594 202.359375 Z M 754.238281 263.996094 "/>
<path style=" stroke:none;fill-rule:evenodd;fill:rgb(99.998474%,99.998474%,99.998474%);fill-opacity:1;" d="M 785.054688 260.144531 L 677.195312 98.355469 L 688.753906 90.652344 L 796.609375 252.441406 Z M 785.054688 260.144531 "/>
<path style=" stroke:none;fill-rule:evenodd;fill:rgb(99.998474%,99.998474%,99.998474%);fill-opacity:1;" d="M 819.722656 237.035156 L 711.867188 75.246094 L 723.421875 67.539062 L 831.277344 229.328125 Z M 819.722656 237.035156 "/>
<path style=" stroke:none;fill-rule:evenodd;fill:rgb(99.998474%,99.998474%,99.998474%);fill-opacity:1;" d="M 700.308594 208.136719 L 692.605469 196.582031 L 808.164062 119.542969 L 815.871094 131.097656 Z M 700.308594 208.136719 "/>
<path style=" stroke:none;fill-rule:evenodd;fill:rgb(0%,0%,0%);fill-opacity:1;" d="M 750.382812 183.101562 L 734.976562 159.988281 L 758.089844 144.582031 L 773.496094 167.691406 Z M 750.382812 183.101562 "/>
<path style=" stroke:none;fill-rule:evenodd;fill:rgb(99.998474%,99.998474%,99.998474%);fill-opacity:1;" d="M 226.503906 524.011719 L 218.796875 512.457031 L 265.023438 481.640625 L 272.726562 493.195312 Z M 226.503906 524.011719 "/>
</g>
</svg>
