<?xml version="1.0" encoding="UTF-8"?>
<svg xmlns="http://www.w3.org/2000/svg" xmlns:xlink="http://www.w3.org/1999/xlink" viewBox="0 0 1000 500" version="1.1">
<g id="surface1035">
<rect x="0" y="0" width="1000" height="500" style="fill:rgb(7.058716%,67.842102%,16.862488%);fill-opacity:1;stroke:none;"/>
<path style=" stroke:none;fill-rule:evenodd;fill:rgb(99.998474%,80.783081%,0%);fill-opacity:1;" d="M 0 142.855469 L 1000 142.855469 L 1000 357.144531 L 0 357.144531 Z M 0 142.855469 "/>
<path style=" stroke:none;fill-rule:evenodd;fill:rgb(82.351685%,6.274414%,20.391846%);fill-opacity:1;" d="M 0 0 L 0 500 L 250 250 Z M 0 0 "/>
<path style=" stroke:none;fill-rule:evenodd;fill:rgb(0%,0%,0%);fill-opacity:1;" d="M 500 178.570312 L 477.929688 246.503906 L 511.894531 257.539062 Z M 500 178.570312 "/>
<path style=" stroke:none;fill-rule:evenodd;fill:rgb(0%,0%,0%);fill-opacity:1;" d="M 500 178.570312 L 522.070312 246.503906 L 488.105469 257.539062 Z M 500 178.570312 "/>
<path style=" stroke:none;fill-rule:evenodd;fill:rgb(0%,0%,0%);fill-opacity:1;" d="M 567.933594 227.929688 L 496.503906 227.929688 L 496.503906 263.640625 Z M 567.933594 227.929688 "/>
<path style=" stroke:none;fill-rule:evenodd;fill:rgb(0%,0%,0%);fill-opacity:1;" d="M 567.933594 227.929688 L 510.144531 269.910156 L 489.152344 241.019531 Z M 567.933594 227.929688 "/>
<path style=" stroke:none;fill-rule:evenodd;fill:rgb(0%,0%,0%);fill-opacity:1;" d="M 541.984375 307.785156 L 519.910156 239.855469 L 485.945312 250.890625 Z M 541.984375 307.785156 "/>
<path style=" stroke:none;fill-rule:evenodd;fill:rgb(0%,0%,0%);fill-opacity:1;" d="M 541.984375 307.785156 L 484.199219 265.800781 L 505.191406 236.910156 Z M 541.984375 307.785156 "/>
<path style=" stroke:none;fill-rule:evenodd;fill:rgb(0%,0%,0%);fill-opacity:1;" d="M 458.015625 307.785156 L 515.800781 265.800781 L 494.808594 236.910156 Z M 458.015625 307.785156 "/>
<path style=" stroke:none;fill-rule:evenodd;fill:rgb(0%,0%,0%);fill-opacity:1;" d="M 458.015625 307.785156 L 480.089844 239.855469 L 514.054688 250.890625 Z M 458.015625 307.785156 "/>
<path style=" stroke:none;fill-rule:evenodd;fill:rgb(0%,0%,0%);fill-opacity:1;" d="M 432.066406 227.929688 L 489.855469 269.910156 L 510.847656 241.019531 Z M 432.066406 227.929688 "/>
<path style=" stroke:none;fill-rule:evenodd;fill:rgb(0%,0%,0%);fill-opacity:1;" d="M 432.066406 227.929688 L 503.496094 227.929688 L 503.496094 263.640625 Z M 432.066406 227.929688 "/>
<path style=" stroke:none;fill-rule:evenodd;fill:rgb(0%,0%,0%);fill-opacity:1;" d="M 750 178.570312 L 727.929688 246.503906 L 761.894531 257.539062 Z M 750 178.570312 "/>
<path style=" stroke:none;fill-rule:evenodd;fill:rgb(0%,0%,0%);fill-opacity:1;" d="M 750 178.570312 L 772.070312 246.503906 L 738.105469 257.539062 Z M 750 178.570312 "/>
<path style=" stroke:none;fill-rule:evenodd;fill:rgb(0%,0%,0%);fill-opacity:1;" d="M 817.933594 227.929688 L 746.503906 227.929688 L 746.503906 263.640625 Z M 817.933594 227.929688 "/>
<path style=" stroke:none;fill-rule:evenodd;fill:rgb(0%,0%,0%);fill-opacity:1;" d="M 817.933594 227.929688 L 760.144531 269.910156 L 739.152344 241.019531 Z M 817.933594 227.929688 "/>
<path style=" stroke:none;fill-rule:evenodd;fill:rgb(0%,0%,0%);fill-opacity:1;" d="M 791.984375 307.785156 L 769.910156 239.855469 L 735.945312 250.890625 Z M 791.984375 307.785156 "/>
<path style=" stroke:none;fill-rule:evenodd;fill:rgb(0%,0%,0%);fill-opacity:1;" d="M 791.984375 307.785156 L 734.199219 265.800781 L 755.191406 236.910156 Z M 791.984375 307.785156 "/>
<path style=" stroke:none;fill-rule:evenodd;fill:rgb(0%,0%,0%);fill-opacity:1;" d="M 708.015625 307.785156 L 765.800781 265.800781 L 744.808594 236.910156 Z M 708.015625 307.785156 "/>
<path style=" stroke:none;fill-rule:evenodd;fill:rgb(0%,0%,0%);fill-opacity:1;" d="M 708.015625 307.785156 L 730.089844 239.855469 L 764.054688 250.890625 Z M 708.015625 307.785156 "/>
<path style=" stroke:none;fill-rule:evenodd;fill:rgb(0%,0%,0%);fill-opacity:1;" d="M 682.066406 227.929688 L 739.855469 269.910156 L 760.847656 241.019531 Z M 682.066406 227.929688 "/>
<path style=" stroke:none;fill-rule:evenodd;fill:rgb(0%,0%,0%);fill-opacity:1;" d="M 682.066406 227.929688 L 753.496094 227.929688 L 753.496094 263.640625 Z M 682.066406 227.929688 "/>
</g>
</svg>
