<?xml version="1.0" encoding="UTF-8"?>
<svg xmlns="http://www.w3.org/2000/svg" xmlns:xlink="http://www.w3.org/1999/xlink" viewBox="0 0 1000 667" version="1.1">
<defs>
<clipPath id="clip1">
  <path d="M 0 0 L 1000 0 L 1000 666.71875 L 0 666.71875 Z M 0 0 "/>
</clipPath>
</defs>
<g id="surface1160">
<g clip-path="url(#clip1)" clip-rule="nonzero">
<path style=" stroke:none;fill-rule:evenodd;fill:rgb(99.606323%,0%,0%);fill-opacity:1;" d="M 0 666.667969 L 0 0 L 1000 0 L 1000 666.667969 Z M 0 666.667969 "/>
</g>
<path style=" stroke:none;fill-rule:evenodd;fill:rgb(0%,0%,58.430481%);fill-opacity:1;" d="M 0 0 L 500 0 L 500 333.332031 L 0 333.332031 Z M 0 0 "/>
<path style=" stroke:none;fill-rule:evenodd;fill:rgb(99.998474%,99.998474%,99.998474%);fill-opacity:1;" d="M 283.332031 166.667969 L 250 291.667969 L 216.667969 166.667969 L 250 41.667969 Z M 250 200 L 375 166.667969 L 250 133.332031 L 125 166.667969 Z M 250 200 "/>
<path style=" stroke:none;fill-rule:evenodd;fill:rgb(99.998474%,99.998474%,99.998474%);fill-opacity:1;" d="M 278.867188 183.332031 L 187.5 274.917969 L 221.132812 150 L 312.5 58.414062 Z M 233.332031 195.535156 L 358.25 229.167969 L 266.667969 137.796875 L 141.75 104.167969 Z M 233.332031 195.535156 "/>
<path style=" stroke:none;fill-rule:evenodd;fill:rgb(99.998474%,99.998474%,99.998474%);fill-opacity:1;" d="M 266.667969 195.535156 L 141.75 229.167969 L 233.332031 137.796875 L 358.25 104.167969 Z M 221.132812 183.332031 L 312.5 274.917969 L 278.867188 150 L 187.5 58.414062 Z M 221.132812 183.332031 "/>
<path style=" stroke:none;fill-rule:evenodd;fill:rgb(0%,0%,58.430481%);fill-opacity:1;" d="M 320.832031 166.667969 C 320.832031 205.789062 289.121094 237.5 250 237.5 C 210.878906 237.5 179.167969 205.789062 179.167969 166.667969 C 179.167969 127.542969 210.878906 95.832031 250 95.832031 C 289.121094 95.832031 320.832031 127.542969 320.832031 166.667969 Z M 320.832031 166.667969 "/>
<path style=" stroke:none;fill-rule:evenodd;fill:rgb(99.998474%,99.998474%,99.998474%);fill-opacity:1;" d="M 312.5 166.667969 C 312.5 201.183594 284.515625 229.167969 250 229.167969 C 215.484375 229.167969 187.5 201.183594 187.5 166.667969 C 187.5 132.148438 215.484375 104.167969 250 104.167969 C 284.515625 104.167969 312.5 132.148438 312.5 166.667969 Z M 312.5 166.667969 "/>
</g>
</svg>
