<?xml version="1.0" encoding="UTF-8"?>
<svg xmlns="http://www.w3.org/2000/svg" xmlns:xlink="http://www.w3.org/1999/xlink" viewBox="0 0 1000 500" version="1.1">
<g id="surface1165">
<rect x="0" y="0" width="1000" height="500" style="fill:rgb(0%,39.99939%,0%);fill-opacity:1;stroke:none;"/>
<path style=" stroke:none;fill-rule:evenodd;fill:rgb(99.998474%,99.998474%,99.998474%);fill-opacity:1;" d="M 0 0 L 1000 0 L 1000 357.140625 L 0 357.140625 Z M 0 0 "/>
<path style=" stroke:none;fill-rule:evenodd;fill:rgb(79.998779%,0%,0%);fill-opacity:1;" d="M 0 0 L 1000 0 L 1000 142.859375 L 0 142.859375 Z M 0 0 "/>
<path style=" stroke:none;fill-rule:evenodd;fill:rgb(97.253418%,76.469421%,0%);fill-opacity:1;" d="M 480 243.355469 C 481.933594 240.03125 486.179688 238.246094 489.910156 239.1875 C 493.636719 240.132812 496.523438 243.730469 496.644531 247.570312 L 496.644531 283.285156 L 503.355469 283.285156 L 503.355469 247.570312 C 503.476562 243.730469 506.363281 240.132812 510.089844 239.1875 C 513.820312 238.246094 518.066406 240.03125 520 243.355469 C 522.089844 237.050781 520.972656 229.773438 517.085938 224.390625 C 513.195312 219.007812 506.640625 215.652344 500 215.652344 C 493.359375 215.652344 486.804688 219.007812 482.914062 224.390625 C 479.027344 229.773438 477.910156 237.050781 480 243.355469 Z M 480 243.355469 "/>
<path style=" stroke:none;fill-rule:evenodd;fill:rgb(99.998474%,99.998474%,99.998474%);fill-opacity:1;" d="M 484.785156 234.039062 C 487.691406 233.441406 490.785156 233.78125 493.488281 234.996094 C 496.199219 236.210938 498.511719 238.289062 500 240.855469 C 501.488281 238.289062 503.800781 236.210938 506.511719 234.996094 C 509.214844 233.78125 512.308594 233.441406 515.214844 234.039062 C 514.714844 230.398438 512.863281 226.964844 510.09375 224.550781 C 507.328125 222.140625 503.667969 220.769531 500 220.769531 C 496.332031 220.769531 492.671875 222.140625 489.90625 224.550781 C 487.136719 226.964844 485.285156 230.398438 484.785156 234.039062 Z M 484.785156 234.039062 "/>
<path style=" stroke:none;fill-rule:evenodd;fill:rgb(97.253418%,76.469421%,0%);fill-opacity:1;" d="M 496.644531 269.019531 C 496.191406 274.050781 494.300781 278.949219 491.246094 282.980469 C 488.195312 287.007812 483.992188 290.15625 479.269531 291.957031 C 474.542969 293.753906 469.316406 294.199219 464.355469 293.222656 C 459.394531 292.246094 454.722656 289.847656 451.039062 286.390625 C 447.878906 294.316406 440.933594 300.628906 432.746094 303.027344 C 424.554688 305.417969 415.304688 303.839844 408.375 298.863281 C 410.976562 324.882812 449.980469 319.570312 452.886719 294.269531 C 465.140625 315.785156 492.082031 309.621094 499.964844 283.273438 Z M 496.644531 269.019531 "/>
<path style=" stroke:none;fill-rule:evenodd;fill:rgb(97.253418%,76.469421%,0%);fill-opacity:1;" d="M 503.355469 269.019531 C 503.808594 274.050781 505.699219 278.949219 508.753906 282.980469 C 511.804688 287.007812 516.007812 290.15625 520.730469 291.957031 C 525.457031 293.753906 530.683594 294.199219 535.644531 293.222656 C 540.605469 292.246094 545.277344 289.847656 548.960938 286.390625 C 552.121094 294.316406 559.066406 300.628906 567.253906 303.027344 C 575.445312 305.417969 584.695312 303.839844 591.625 298.863281 C 589.023438 324.882812 550.019531 319.570312 547.113281 294.269531 C 534.859375 315.785156 507.917969 309.621094 500.035156 283.273438 Z M 503.355469 269.019531 "/>
<path style=" stroke:none;fill-rule:evenodd;fill:rgb(97.253418%,76.469421%,0%);fill-opacity:1;" d="M 470.601562 315.222656 C 465.15625 326.96875 454.28125 328.988281 444.769531 319.503906 C 444.769531 319.503906 448.589844 316.800781 452.683594 316.054688 C 451.921875 312.789062 453.496094 308.269531 455.710938 305.828125 C 458.039062 307.414062 461.289062 310.605469 462.113281 314.304688 C 467.847656 313.566406 470.601562 315.222656 470.601562 315.222656 Z M 470.601562 315.222656 "/>
<path style=" stroke:none;fill-rule:evenodd;fill:rgb(97.253418%,76.469421%,0%);fill-opacity:1;" d="M 513.171875 313.890625 C 505.886719 324.597656 494.828125 324.816406 486.988281 313.910156 C 486.988281 313.910156 491.199219 311.871094 495.363281 311.800781 C 495.132812 308.449219 497.425781 304.246094 500.011719 302.195312 C 502.046875 304.144531 504.730469 307.816406 504.945312 311.609375 C 510.726562 311.808594 513.171875 313.890625 513.171875 313.890625 Z M 513.171875 313.890625 "/>
<path style=" stroke:none;fill-rule:evenodd;fill:rgb(97.253418%,76.469421%,0%);fill-opacity:1;" d="M 555.386719 319.511719 C 546.464844 328.886719 535.515625 327.304688 529.554688 315.265625 C 529.554688 315.265625 534.042969 313.9375 538.160156 314.546875 C 538.480469 311.207031 541.421875 307.429688 544.3125 305.832031 C 546.003906 308.082031 548.054688 312.140625 547.644531 315.917969 C 553.316406 317.058594 555.386719 319.511719 555.386719 319.511719 Z M 555.386719 319.511719 "/>
<path style="fill:none;stroke-width:11.428572;stroke-linecap:butt;stroke-linejoin:miter;stroke:rgb(97.253418%,76.469421%,0%);stroke-opacity:1;stroke-miterlimit:4;" d="M 430.710938 341.425781 C 475.609375 328.0625 524.390625 328.0625 569.289062 341.425781 "/>
<path style=" stroke:none;fill-rule:evenodd;fill:rgb(97.253418%,76.469421%,0%);fill-opacity:1;" d="M 500 153.574219 L 510.496094 185.875 L 483.015625 165.910156 L 516.984375 165.910156 L 489.503906 185.875 Z M 500 153.574219 "/>
<path style=" stroke:none;fill-rule:evenodd;fill:rgb(97.253418%,76.469421%,0%);fill-opacity:1;" d="M 450 166.96875 L 460.496094 199.273438 L 433.015625 179.308594 L 466.984375 179.308594 L 439.503906 199.273438 Z M 450 166.96875 "/>
<path style=" stroke:none;fill-rule:evenodd;fill:rgb(97.253418%,76.469421%,0%);fill-opacity:1;" d="M 413.398438 203.574219 L 423.894531 235.875 L 396.414062 215.910156 L 430.378906 215.910156 L 402.902344 235.875 Z M 413.398438 203.574219 "/>
<path style=" stroke:none;fill-rule:evenodd;fill:rgb(97.253418%,76.469421%,0%);fill-opacity:1;" d="M 400 253.574219 L 410.496094 285.875 L 383.015625 265.910156 L 416.984375 265.910156 L 389.503906 285.875 Z M 400 253.574219 "/>
<path style=" stroke:none;fill-rule:evenodd;fill:rgb(97.253418%,76.469421%,0%);fill-opacity:1;" d="M 550 166.96875 L 539.503906 199.273438 L 566.984375 179.308594 L 533.015625 179.308594 L 560.496094 199.273438 Z M 550 166.96875 "/>
<path style=" stroke:none;fill-rule:evenodd;fill:rgb(97.253418%,76.469421%,0%);fill-opacity:1;" d="M 586.601562 203.574219 L 576.105469 235.875 L 603.585938 215.910156 L 569.621094 215.910156 L 597.097656 235.875 Z M 586.601562 203.574219 "/>
<path style=" stroke:none;fill-rule:evenodd;fill:rgb(97.253418%,76.469421%,0%);fill-opacity:1;" d="M 600 253.574219 L 589.503906 285.875 L 616.984375 265.910156 L 583.015625 265.910156 L 610.496094 285.875 Z M 600 253.574219 "/>
</g>
</svg>
