<?xml version="1.0" encoding="UTF-8"?>
<svg xmlns="http://www.w3.org/2000/svg" xmlns:xlink="http://www.w3.org/1999/xlink" viewBox="0 0 1000 617" version="1.1">
<g id="surface1180">
<path style=" stroke:none;fill-rule:evenodd;fill:rgb(0%,41.567993%,30.587769%);fill-opacity:1;" d="M 0 0 L 998.765625 0 L 998.765625 617.285156 L 0 617.285156 Z M 0 0 "/>
<path style=" stroke:none;fill-rule:evenodd;fill:rgb(99.998474%,80.783081%,0%);fill-opacity:1;" d="M 0 123.457031 L 998.765625 123.457031 L 998.765625 246.914062 L 0 246.914062 Z M 0 123.457031 "/>
<path style=" stroke:none;fill-rule:evenodd;fill:rgb(99.998474%,80.783081%,0%);fill-opacity:1;" d="M 0 370.371094 L 998.765625 370.371094 L 998.765625 493.828125 L 0 493.828125 Z M 0 370.371094 "/>
<path style=" stroke:none;fill-rule:evenodd;fill:rgb(82.351685%,6.274414%,20.391846%);fill-opacity:1;" d="M 0 0 L 370.371094 0 L 370.371094 370.371094 L 0 370.371094 Z M 0 0 "/>
<path style=" stroke:none;fill-rule:evenodd;fill:rgb(99.998474%,99.998474%,99.998474%);fill-opacity:1;" d="M 185.183594 67.902344 L 148.945312 179.445312 L 207.652344 198.519531 Z M 185.183594 67.902344 "/>
<path style=" stroke:none;fill-rule:evenodd;fill:rgb(99.998474%,99.998474%,99.998474%);fill-opacity:1;" d="M 185.183594 67.902344 L 221.425781 179.445312 L 162.71875 198.519531 Z M 185.183594 67.902344 "/>
<path style=" stroke:none;fill-rule:evenodd;fill:rgb(99.998474%,99.998474%,99.998474%);fill-opacity:1;" d="M 296.730469 148.945312 L 179.445312 148.945312 L 179.445312 210.671875 Z M 296.730469 148.945312 "/>
<path style=" stroke:none;fill-rule:evenodd;fill:rgb(99.998474%,99.998474%,99.998474%);fill-opacity:1;" d="M 296.730469 148.945312 L 201.847656 217.882812 L 165.5625 167.9375 Z M 296.730469 148.945312 "/>
<path style=" stroke:none;fill-rule:evenodd;fill:rgb(99.998474%,99.998474%,99.998474%);fill-opacity:1;" d="M 254.125 280.066406 L 217.882812 168.523438 L 159.175781 187.601562 Z M 254.125 280.066406 "/>
<path style=" stroke:none;fill-rule:evenodd;fill:rgb(99.998474%,99.998474%,99.998474%);fill-opacity:1;" d="M 254.125 280.066406 L 159.242188 211.128906 L 195.523438 161.191406 Z M 254.125 280.066406 "/>
<path style=" stroke:none;fill-rule:evenodd;fill:rgb(99.998474%,99.998474%,99.998474%);fill-opacity:1;" d="M 116.246094 280.066406 L 211.128906 211.128906 L 174.847656 161.191406 Z M 116.246094 280.066406 "/>
<path style=" stroke:none;fill-rule:evenodd;fill:rgb(99.998474%,99.998474%,99.998474%);fill-opacity:1;" d="M 116.246094 280.066406 L 152.488281 168.523438 L 211.195312 187.601562 Z M 116.246094 280.066406 "/>
<path style=" stroke:none;fill-rule:evenodd;fill:rgb(99.998474%,99.998474%,99.998474%);fill-opacity:1;" d="M 73.640625 148.945312 L 168.523438 217.882812 L 204.808594 167.9375 Z M 73.640625 148.945312 "/>
<path style=" stroke:none;fill-rule:evenodd;fill:rgb(99.998474%,99.998474%,99.998474%);fill-opacity:1;" d="M 73.640625 148.945312 L 190.925781 148.945312 L 190.925781 210.671875 Z M 73.640625 148.945312 "/>
</g>
</svg>
