<?xml version="1.0" encoding="UTF-8"?>
<svg xmlns="http://www.w3.org/2000/svg" xmlns:xlink="http://www.w3.org/1999/xlink" viewBox="0 0 1000 500" version="1.1">
<g id="surface1185">
<rect x="0" y="0" width="1000" height="500" style="fill:rgb(0%,14.117432%,49.01886%);fill-opacity:1;stroke:none;"/>
<path style=" stroke:none;fill-rule:evenodd;fill:rgb(99.606323%,81.959534%,0%);fill-opacity:1;" d="M 182.984375 431.8125 C 173.023438 431.730469 276.664062 376.574219 363.414062 305.925781 C 477.105469 213.332031 721.96875 65.089844 793.953125 40.996094 C 801.476562 38.480469 778.519531 53.816406 775.542969 58.785156 C 698.6875 149.75 760.027344 321.410156 856.082031 407.699219 C 884.964844 429.789062 883.488281 430.949219 937.03125 433.113281 L 937.03125 438.113281 Z M 182.984375 431.8125 "/>
<path style=" stroke:none;fill-rule:evenodd;fill:rgb(99.606323%,81.959534%,0%);fill-opacity:1;" d="M 176.734375 441.847656 C 176.734375 441.847656 169.421875 447.070312 169.445312 450.960938 C 169.46875 455.277344 177.648438 460.984375 177.648438 460.984375 L 921.394531 469.191406 L 935.066406 460.074219 L 915.925781 448.226562 Z M 176.734375 441.847656 "/>
<path style=" stroke:none;fill-rule:evenodd;fill:rgb(99.998474%,99.998474%,99.998474%);fill-opacity:1;" d="M 190.53125 54.421875 L 190.53125 66.921875 L 215.53125 54.421875 Z M 190.53125 54.421875 "/>
<path style=" stroke:none;fill-rule:evenodd;fill:rgb(99.998474%,99.998474%,99.998474%);fill-opacity:1;" d="M 195.308594 69.117188 L 187.957031 59.003906 L 215.53125 54.421875 Z M 195.308594 69.117188 "/>
<path style=" stroke:none;fill-rule:evenodd;fill:rgb(99.998474%,99.998474%,99.998474%);fill-opacity:1;" d="M 190.53125 54.421875 L 190.53125 66.921875 L 165.53125 54.421875 Z M 190.53125 54.421875 "/>
<path style=" stroke:none;fill-rule:evenodd;fill:rgb(99.998474%,99.998474%,99.998474%);fill-opacity:1;" d="M 185.753906 69.117188 L 193.105469 59.003906 L 165.53125 54.421875 Z M 185.753906 69.117188 "/>
<path style=" stroke:none;fill-rule:evenodd;fill:rgb(99.998474%,99.998474%,99.998474%);fill-opacity:1;" d="M 198.253906 60.035156 L 186.367188 63.898438 L 205.980469 83.8125 Z M 198.253906 60.035156 "/>
<path style=" stroke:none;fill-rule:evenodd;fill:rgb(99.998474%,99.998474%,99.998474%);fill-opacity:1;" d="M 185.753906 69.117188 L 193.105469 59.003906 L 205.980469 83.8125 Z M 185.753906 69.117188 "/>
<path style=" stroke:none;fill-rule:evenodd;fill:rgb(99.998474%,99.998474%,99.998474%);fill-opacity:1;" d="M 182.808594 60.035156 L 194.695312 63.898438 L 190.53125 36.257812 Z M 182.808594 60.035156 "/>
<path style=" stroke:none;fill-rule:evenodd;fill:rgb(99.998474%,99.998474%,99.998474%);fill-opacity:1;" d="M 198.253906 60.035156 L 186.367188 63.898438 L 190.53125 36.257812 Z M 198.253906 60.035156 "/>
<path style=" stroke:none;fill-rule:evenodd;fill:rgb(99.998474%,99.998474%,99.998474%);fill-opacity:1;" d="M 182.808594 60.035156 L 194.695312 63.898438 L 175.082031 83.8125 Z M 182.808594 60.035156 "/>
<path style=" stroke:none;fill-rule:evenodd;fill:rgb(99.998474%,99.998474%,99.998474%);fill-opacity:1;" d="M 195.308594 69.117188 L 187.957031 59.003906 L 175.082031 83.8125 Z M 195.308594 69.117188 "/>
<path style=" stroke:none;fill-rule:evenodd;fill:rgb(99.998474%,99.998474%,99.998474%);fill-opacity:1;" d="M 289.558594 141.859375 L 289.558594 152.277344 L 310.390625 141.859375 Z M 289.558594 141.859375 "/>
<path style=" stroke:none;fill-rule:evenodd;fill:rgb(99.998474%,99.998474%,99.998474%);fill-opacity:1;" d="M 293.535156 154.105469 L 287.414062 145.675781 L 310.390625 141.859375 Z M 293.535156 154.105469 "/>
<path style=" stroke:none;fill-rule:evenodd;fill:rgb(99.998474%,99.998474%,99.998474%);fill-opacity:1;" d="M 289.558594 141.859375 L 289.558594 152.277344 L 268.726562 141.859375 Z M 289.558594 141.859375 "/>
<path style=" stroke:none;fill-rule:evenodd;fill:rgb(99.998474%,99.998474%,99.998474%);fill-opacity:1;" d="M 285.578125 154.105469 L 291.703125 145.675781 L 268.726562 141.859375 Z M 285.578125 154.105469 "/>
<path style=" stroke:none;fill-rule:evenodd;fill:rgb(99.998474%,99.998474%,99.998474%);fill-opacity:1;" d="M 295.996094 146.535156 L 286.089844 149.753906 L 302.433594 166.347656 Z M 295.996094 146.535156 "/>
<path style=" stroke:none;fill-rule:evenodd;fill:rgb(99.998474%,99.998474%,99.998474%);fill-opacity:1;" d="M 285.578125 154.105469 L 291.703125 145.675781 L 302.433594 166.347656 Z M 285.578125 154.105469 "/>
<path style=" stroke:none;fill-rule:evenodd;fill:rgb(99.998474%,99.998474%,99.998474%);fill-opacity:1;" d="M 283.117188 146.535156 L 293.027344 149.753906 L 289.558594 126.722656 Z M 283.117188 146.535156 "/>
<path style=" stroke:none;fill-rule:evenodd;fill:rgb(99.998474%,99.998474%,99.998474%);fill-opacity:1;" d="M 295.996094 146.535156 L 286.089844 149.753906 L 289.558594 126.722656 Z M 295.996094 146.535156 "/>
<path style=" stroke:none;fill-rule:evenodd;fill:rgb(99.998474%,99.998474%,99.998474%);fill-opacity:1;" d="M 283.117188 146.535156 L 293.027344 149.753906 L 276.683594 166.347656 Z M 283.117188 146.535156 "/>
<path style=" stroke:none;fill-rule:evenodd;fill:rgb(99.998474%,99.998474%,99.998474%);fill-opacity:1;" d="M 293.535156 154.105469 L 287.414062 145.675781 L 276.683594 166.347656 Z M 293.535156 154.105469 "/>
<path style=" stroke:none;fill-rule:evenodd;fill:rgb(99.998474%,99.998474%,99.998474%);fill-opacity:1;" d="M 75 170.660156 L 75 183.160156 L 100 170.660156 Z M 75 170.660156 "/>
<path style=" stroke:none;fill-rule:evenodd;fill:rgb(99.998474%,99.998474%,99.998474%);fill-opacity:1;" d="M 79.773438 185.355469 L 72.429688 175.242188 L 100 170.660156 Z M 79.773438 185.355469 "/>
<path style=" stroke:none;fill-rule:evenodd;fill:rgb(99.998474%,99.998474%,99.998474%);fill-opacity:1;" d="M 75 170.660156 L 75 183.160156 L 50 170.660156 Z M 75 170.660156 "/>
<path style=" stroke:none;fill-rule:evenodd;fill:rgb(99.998474%,99.998474%,99.998474%);fill-opacity:1;" d="M 70.226562 185.355469 L 77.570312 175.242188 L 50 170.660156 Z M 70.226562 185.355469 "/>
<path style=" stroke:none;fill-rule:evenodd;fill:rgb(99.998474%,99.998474%,99.998474%);fill-opacity:1;" d="M 82.726562 176.273438 L 70.835938 180.136719 L 90.453125 200.046875 Z M 82.726562 176.273438 "/>
<path style=" stroke:none;fill-rule:evenodd;fill:rgb(99.998474%,99.998474%,99.998474%);fill-opacity:1;" d="M 70.226562 185.355469 L 77.570312 175.242188 L 90.453125 200.046875 Z M 70.226562 185.355469 "/>
<path style=" stroke:none;fill-rule:evenodd;fill:rgb(99.998474%,99.998474%,99.998474%);fill-opacity:1;" d="M 67.273438 176.273438 L 79.164062 180.136719 L 75 152.496094 Z M 67.273438 176.273438 "/>
<path style=" stroke:none;fill-rule:evenodd;fill:rgb(99.998474%,99.998474%,99.998474%);fill-opacity:1;" d="M 82.726562 176.273438 L 70.835938 180.136719 L 75 152.496094 Z M 82.726562 176.273438 "/>
<path style=" stroke:none;fill-rule:evenodd;fill:rgb(99.998474%,99.998474%,99.998474%);fill-opacity:1;" d="M 67.273438 176.273438 L 79.164062 180.136719 L 59.546875 200.046875 Z M 67.273438 176.273438 "/>
<path style=" stroke:none;fill-rule:evenodd;fill:rgb(99.998474%,99.998474%,99.998474%);fill-opacity:1;" d="M 79.773438 185.355469 L 72.429688 175.242188 L 59.546875 200.046875 Z M 79.773438 185.355469 "/>
<path style=" stroke:none;fill-rule:evenodd;fill:rgb(99.998474%,99.998474%,99.998474%);fill-opacity:1;" d="M 190.53125 353.066406 L 190.53125 367.652344 L 219.695312 353.066406 Z M 190.53125 353.066406 "/>
<path style=" stroke:none;fill-rule:evenodd;fill:rgb(99.998474%,99.998474%,99.998474%);fill-opacity:1;" d="M 196.101562 370.210938 L 187.53125 358.414062 L 219.695312 353.066406 Z M 196.101562 370.210938 "/>
<path style=" stroke:none;fill-rule:evenodd;fill:rgb(99.998474%,99.998474%,99.998474%);fill-opacity:1;" d="M 190.53125 353.066406 L 190.53125 367.652344 L 161.363281 353.066406 Z M 190.53125 353.066406 "/>
<path style=" stroke:none;fill-rule:evenodd;fill:rgb(99.998474%,99.998474%,99.998474%);fill-opacity:1;" d="M 184.960938 370.210938 L 193.535156 358.414062 L 161.363281 353.066406 Z M 184.960938 370.210938 "/>
<path style=" stroke:none;fill-rule:evenodd;fill:rgb(99.998474%,99.998474%,99.998474%);fill-opacity:1;" d="M 199.542969 359.617188 L 185.675781 364.121094 L 208.558594 387.355469 Z M 199.542969 359.617188 "/>
<path style=" stroke:none;fill-rule:evenodd;fill:rgb(99.998474%,99.998474%,99.998474%);fill-opacity:1;" d="M 184.960938 370.210938 L 193.535156 358.414062 L 208.558594 387.355469 Z M 184.960938 370.210938 "/>
<path style=" stroke:none;fill-rule:evenodd;fill:rgb(99.998474%,99.998474%,99.998474%);fill-opacity:1;" d="M 181.519531 359.617188 L 195.386719 364.121094 L 190.53125 331.875 Z M 181.519531 359.617188 "/>
<path style=" stroke:none;fill-rule:evenodd;fill:rgb(99.998474%,99.998474%,99.998474%);fill-opacity:1;" d="M 199.542969 359.617188 L 185.675781 364.121094 L 190.53125 331.875 Z M 199.542969 359.617188 "/>
<path style=" stroke:none;fill-rule:evenodd;fill:rgb(99.998474%,99.998474%,99.998474%);fill-opacity:1;" d="M 181.519531 359.617188 L 195.386719 364.121094 L 172.503906 387.355469 Z M 181.519531 359.617188 "/>
<path style=" stroke:none;fill-rule:evenodd;fill:rgb(99.998474%,99.998474%,99.998474%);fill-opacity:1;" d="M 196.101562 370.210938 L 187.53125 358.414062 L 172.503906 387.355469 Z M 196.101562 370.210938 "/>
</g>
</svg>
