<?xml version="1.0" encoding="UTF-8"?>
<svg xmlns="http://www.w3.org/2000/svg" xmlns:xlink="http://www.w3.org/1999/xlink" viewBox="0 0 1000 667" version="1.1">
<defs>
<clipPath id="clip1">
  <path d="M 0 0 L 1000 0 L 1000 666.71875 L 0 666.71875 Z M 0 0 "/>
</clipPath>
</defs>
<g id="surface1200">
<g clip-path="url(#clip1)" clip-rule="nonzero">
<path style=" stroke:none;fill-rule:evenodd;fill:rgb(90.586853%,0%,7.450867%);fill-opacity:1;" d="M 0 666.667969 L 0 0 L 1000 0 L 1000 666.667969 Z M 0 666.667969 "/>
</g>
<path style=" stroke:none;fill-rule:evenodd;fill:rgb(99.998474%,99.998474%,99.998474%);fill-opacity:1;" d="M 666.667969 333.332031 C 666.667969 425.382812 592.050781 500 500 500 C 407.949219 500 333.332031 425.382812 333.332031 333.332031 C 333.332031 241.285156 407.949219 166.667969 500 166.667969 C 592.050781 166.667969 666.667969 241.285156 666.667969 333.332031 Z M 666.667969 333.332031 "/>
<path style=" stroke:none;fill-rule:evenodd;fill:rgb(90.586853%,0%,7.450867%);fill-opacity:1;" d="M 625 333.332031 C 625 402.367188 569.035156 458.332031 500 458.332031 C 430.964844 458.332031 375 402.367188 375 333.332031 C 375 264.300781 430.964844 208.332031 500 208.332031 C 569.035156 208.332031 625 264.300781 625 333.332031 Z M 625 333.332031 "/>
<path style=" stroke:none;fill-rule:evenodd;fill:rgb(99.998474%,99.998474%,99.998474%);fill-opacity:1;" d="M 633.332031 333.332031 C 633.332031 388.5625 588.5625 433.332031 533.332031 433.332031 C 478.105469 433.332031 433.332031 388.5625 433.332031 333.332031 C 433.332031 278.105469 478.105469 233.332031 533.332031 233.332031 C 588.5625 233.332031 633.332031 278.105469 633.332031 333.332031 Z M 633.332031 333.332031 "/>
<path style="fill-rule:nonzero;fill:rgb(90.586853%,0%,7.450867%);fill-opacity:1;stroke-width:1;stroke-linecap:square;stroke-linejoin:miter;stroke:rgb(90.586853%,0%,7.450867%);stroke-opacity:1;stroke-miterlimit:3.239307;" d="M 510.15625 350.171875 L 510.15625 404.664062 L 542.1875 360.578125 L 594.011719 377.417969 L 561.980469 333.332031 L 594.011719 289.25 L 542.1875 306.089844 L 510.15625 262.003906 L 510.15625 316.496094 L 458.332031 333.332031 Z M 510.15625 350.171875 "/>
</g>
</svg>
