<?xml version="1.0" encoding="UTF-8"?>
<svg xmlns="http://www.w3.org/2000/svg" xmlns:xlink="http://www.w3.org/1999/xlink" viewBox="0 0 1000 667" version="1.1">
<defs>
<clipPath id="clip1">
  <path d="M 0 0 L 1000 0 L 1000 666.71875 L 0 666.71875 Z M 0 0 "/>
</clipPath>
</defs>
<g id="surface1205">
<g clip-path="url(#clip1)" clip-rule="nonzero">
<path style=" stroke:none;fill-rule:evenodd;fill:rgb(89.01825%,3.921509%,9.01947%);fill-opacity:1;" d="M 0 666.667969 L 0 0 L 1000 0 L 1000 666.667969 Z M 0 666.667969 "/>
</g>
<path style=" stroke:none;fill-rule:evenodd;fill:rgb(99.998474%,99.998474%,99.998474%);fill-opacity:1;" d="M 520.832031 333.332031 C 520.832031 425.382812 446.214844 500 354.167969 500 C 262.117188 500 187.5 425.382812 187.5 333.332031 C 187.5 241.285156 262.117188 166.667969 354.167969 166.667969 C 446.214844 166.667969 520.832031 241.285156 520.832031 333.332031 Z M 520.832031 333.332031 "/>
<path style=" stroke:none;fill-rule:evenodd;fill:rgb(89.01825%,3.921509%,9.01947%);fill-opacity:1;" d="M 529.167969 333.332031 C 529.167969 406.96875 469.46875 466.667969 395.832031 466.667969 C 322.195312 466.667969 262.5 406.96875 262.5 333.332031 C 262.5 259.695312 322.195312 200 395.832031 200 C 469.46875 200 529.167969 259.695312 529.167969 333.332031 Z M 529.167969 333.332031 "/>
<path style="fill-rule:nonzero;fill:rgb(99.998474%,99.998474%,99.998474%);fill-opacity:1;stroke-width:1;stroke-linecap:square;stroke-linejoin:miter;stroke:rgb(99.998474%,99.998474%,99.998474%);stroke-opacity:1;stroke-miterlimit:3.239307;" d="M 543.691406 352.042969 L 543.691406 412.589844 L 579.28125 363.605469 L 636.863281 382.316406 L 601.273438 333.332031 L 636.863281 284.351562 L 579.28125 303.0625 L 543.691406 254.078125 L 543.691406 314.625 L 486.113281 333.332031 Z M 543.691406 352.042969 "/>
</g>
</svg>
