<?xml version="1.0" encoding="UTF-8"?>
<svg xmlns="http://www.w3.org/2000/svg" xmlns:xlink="http://www.w3.org/1999/xlink" viewBox="0 0 1000 667" version="1.1">
<defs>
<clipPath id="clip1">
  <path d="M 0 0 L 1000 0 L 1000 666.71875 L 0 666.71875 Z M 0 0 "/>
</clipPath>
<clipPath id="clip2">
  <path d="M 0 555 L 1000 555 L 1000 666.71875 L 0 666.71875 Z M 0 555 "/>
</clipPath>
</defs>
<g id="surface1225">
<g clip-path="url(#clip1)" clip-rule="nonzero">
<path style=" stroke:none;fill-rule:evenodd;fill:rgb(0%,0%,0%);fill-opacity:1;" d="M 0 666.667969 L 0 0 L 1000 0 L 1000 666.667969 Z M 0 666.667969 "/>
</g>
<path style=" stroke:none;fill-rule:evenodd;fill:rgb(98.822021%,86.273193%,1.568604%);fill-opacity:1;" d="M 0 111.109375 L 1000 111.109375 L 1000 222.222656 L 0 222.222656 Z M 0 111.109375 "/>
<path style=" stroke:none;fill-rule:evenodd;fill:rgb(85.096741%,0%,0%);fill-opacity:1;" d="M 0 222.222656 L 1000 222.222656 L 1000 333.332031 L 0 333.332031 Z M 0 222.222656 "/>
<path style=" stroke:none;fill-rule:evenodd;fill:rgb(98.822021%,86.273193%,1.568604%);fill-opacity:1;" d="M 0 444.445312 L 1000 444.445312 L 1000 555.554688 L 0 555.554688 Z M 0 444.445312 "/>
<g clip-path="url(#clip2)" clip-rule="nonzero">
<path style=" stroke:none;fill-rule:evenodd;fill:rgb(85.096741%,0%,0%);fill-opacity:1;" d="M 0 555.554688 L 1000 555.554688 L 1000 666.667969 L 0 666.667969 Z M 0 555.554688 "/>
</g>
<path style=" stroke:none;fill-rule:evenodd;fill:rgb(99.998474%,99.998474%,99.998474%);fill-opacity:1;" d="M 603.890625 333.332031 C 603.890625 390.710938 557.378906 437.222656 500 437.222656 C 442.621094 437.222656 396.109375 390.710938 396.109375 333.332031 C 396.109375 275.957031 442.621094 229.441406 500 229.441406 C 557.378906 229.441406 603.890625 275.957031 603.890625 333.332031 Z M 603.890625 333.332031 "/>
<path style="fill-rule:evenodd;fill:rgb(85.096741%,0%,0%);fill-opacity:1;stroke-width:1.111111;stroke-linecap:butt;stroke-linejoin:miter;stroke:rgb(0%,0%,0%);stroke-opacity:1;stroke-miterlimit:4;" d="M 481.6875 253.765625 L 474.953125 241.355469 C 477.550781 238.753906 481.929688 236.746094 488.898438 236.746094 C 488.898438 237.21875 488.1875 250.339844 488.1875 250.339844 Z M 481.6875 253.765625 "/>
<path style="fill-rule:evenodd;fill:rgb(98.822021%,86.273193%,1.568604%);fill-opacity:1;stroke-width:1.111111;stroke-linecap:butt;stroke-linejoin:miter;stroke:rgb(0%,0%,0%);stroke-opacity:1;stroke-miterlimit:4;" d="M 488.1875 250.457031 L 489.140625 236.746094 C 489.140625 236.746094 503.085938 235.921875 510.648438 245.019531 C 510.769531 244.898438 503.203125 255.660156 503.203125 255.660156 Z M 488.1875 250.457031 "/>
<path style="fill-rule:evenodd;fill:rgb(85.096741%,0%,0%);fill-opacity:1;stroke-width:1.111111;stroke-linecap:butt;stroke-linejoin:miter;stroke:rgb(0%,0%,0%);stroke-opacity:1;stroke-miterlimit:4;" d="M 503.441406 255.539062 L 510.292969 244.898438 C 514.902344 249.75 516.796875 253.171875 517.503906 258.375 C 517.621094 258.496094 506.628906 261.09375 506.628906 260.976562 C 506.628906 260.859375 503.558594 255.660156 503.441406 255.539062 Z M 503.441406 255.539062 "/>
<path style="fill-rule:evenodd;fill:rgb(0%,0%,0%);fill-opacity:1;stroke-width:1.111111;stroke-linecap:butt;stroke-linejoin:miter;stroke:rgb(0%,0%,0%);stroke-opacity:1;stroke-miterlimit:4;" d="M 485.117188 431.191406 C 485.117188 431.191406 498.003906 416.417969 523.0625 419.605469 C 519.277344 413.460938 507.101562 414.171875 507.101562 414.171875 C 507.101562 414.171875 503.320312 385.449219 506.277344 384.027344 C 509.230469 382.609375 521.761719 384.148438 521.761719 384.148438 C 523.414062 384.148438 526.253906 379.65625 524.007812 376.816406 C 521.761719 373.980469 515.140625 363.109375 517.859375 360.980469 C 520.578125 358.847656 535.351562 362.160156 535.351562 362.160156 L 493.625 308.734375 C 493.625 308.734375 489.371094 288.640625 497.882812 278.945312 C 508.164062 270.433594 507.101562 261.214844 506.75 261.332031 C 505.328125 251.996094 491.144531 245.257812 481.570312 253.882812 C 475.894531 260.742188 479.675781 265.941406 479.675781 265.941406 C 479.675781 265.941406 464.785156 269.960938 464.191406 272.5625 C 463.601562 275.164062 480.980469 272.089844 480.980469 272.089844 L 479.324219 284.027344 C 479.324219 284.027344 445.519531 314.761719 471.402344 341.355469 C 471.640625 341.238281 472.234375 340.175781 472.234375 340.175781 C 472.234375 340.175781 481.335938 351.40625 490.90625 353.882812 C 499.890625 363.109375 499.066406 361.6875 499.066406 361.6875 C 499.066406 361.6875 500.835938 376.226562 499.1875 379.0625 C 496.933594 378.351562 474.007812 377.527344 470.578125 378.824219 C 467.503906 379.773438 455.6875 379.183594 458.636719 398.449219 C 460.882812 393.25 462.894531 388.640625 462.894531 388.640625 C 462.894531 388.640625 462.539062 395.609375 465.375 398.097656 C 464.902344 390.765625 468.09375 385.800781 468.09375 385.800781 C 468.09375 385.800781 468.683594 393.839844 470.457031 395.019531 C 472.234375 396.203125 472.234375 382.019531 482.042969 383.203125 C 491.855469 384.386719 498.945312 384.027344 498.945312 384.027344 C 498.945312 384.027344 502.257812 411.804688 501.191406 414.410156 C 494.097656 412.75 477.195312 415.117188 476.132812 419.375 C 486.0625 418.78125 490.671875 419.960938 490.671875 419.960938 C 490.671875 419.960938 482.632812 427.054688 485.117188 431.191406 Z M 485.117188 431.191406 "/>
<path style="fill-rule:evenodd;fill:rgb(61.175537%,65.097046%,61.175537%);fill-opacity:1;stroke-width:1.111111;stroke-linecap:butt;stroke-linejoin:miter;stroke:rgb(61.175537%,65.097046%,61.175537%);stroke-opacity:1;stroke-miterlimit:4;" d="M 489.101562 279.621094 C 489.101562 279.621094 464.5 306.738281 475.113281 327.484375 C 475.679688 324.59375 475.433594 322.773438 475.785156 322.890625 C 475.195312 322.539062 478.839844 325.382812 478.5625 324.832031 C 478.640625 323.335938 477.453125 320.117188 477.453125 320.117188 C 478.5625 320.394531 479.671875 320.671875 480.785156 320.945312 C 480.132812 319.75 479.484375 318.542969 478.839844 317.34375 C 480.410156 317.527344 481.980469 317.714844 483.554688 317.898438 C 483.554688 317.898438 481.890625 313.460938 482.441406 313.460938 C 483.003906 313.460938 486.328125 313.738281 486.328125 313.738281 C 479.335938 301.183594 485.933594 290.761719 489.101562 279.621094 Z M 489.101562 279.621094 "/>
<path style="fill-rule:evenodd;fill:rgb(61.175537%,65.097046%,61.175537%);fill-opacity:1;stroke-width:1.111111;stroke-linecap:butt;stroke-linejoin:miter;stroke:rgb(61.175537%,65.097046%,61.175537%);stroke-opacity:1;stroke-miterlimit:4;" d="M 497.644531 256.371094 C 497.644531 256.371094 498.945312 265.707031 493.863281 268.425781 C 493.039062 269.015625 489.84375 270.078125 490.316406 271.972656 C 490.90625 274.570312 492.328125 274.101562 494.335938 273.628906 C 499.660156 272.679688 505.804688 261.332031 497.644531 256.371094 Z M 497.644531 256.371094 "/>
<path style=" stroke:none;fill-rule:evenodd;fill:rgb(99.998474%,99.998474%,99.998474%);fill-opacity:1;" d="M 488.667969 264.441406 C 488.667969 265.546875 487.769531 266.445312 486.664062 266.445312 C 485.5625 266.445312 484.667969 265.546875 484.667969 264.441406 C 484.667969 263.339844 485.5625 262.445312 486.664062 262.445312 C 487.769531 262.445312 488.667969 263.339844 488.667969 264.441406 Z M 488.667969 264.441406 "/>
<path style="fill-rule:evenodd;fill:rgb(85.096741%,0%,0%);fill-opacity:1;stroke-width:1.111111;stroke-linecap:butt;stroke-linejoin:miter;stroke:rgb(0%,0%,0%);stroke-opacity:1;stroke-miterlimit:4;" d="M 480.625 272.207031 C 479.324219 273.269531 472.472656 280.367188 479.203125 282.964844 C 486.183594 281.070312 484.289062 279.773438 485.828125 278.234375 C 485.867188 275.042969 482.355469 274.21875 480.625 272.207031 Z M 480.625 272.207031 "/>
<path style="fill-rule:evenodd;fill:rgb(61.175537%,65.097046%,61.175537%);fill-opacity:1;stroke-width:1.111111;stroke-linecap:butt;stroke-linejoin:miter;stroke:rgb(61.175537%,65.097046%,61.175537%);stroke-opacity:1;stroke-miterlimit:4;" d="M 495.519531 339.230469 C 495.167969 340.765625 493.625 346.441406 495.757812 350.8125 C 501.664062 348.328125 504.382812 349.039062 506.394531 350.339844 C 501.546875 346.441406 499.660156 344.785156 495.519531 339.230469 Z M 495.519531 339.230469 "/>
<path style="fill-rule:evenodd;fill:rgb(99.998474%,99.998474%,99.998474%);fill-opacity:1;stroke-width:1.111111;stroke-linecap:butt;stroke-linejoin:miter;stroke:rgb(99.998474%,99.998474%,99.998474%);stroke-opacity:1;stroke-miterlimit:4;" d="M 505.6875 366.058594 L 506.039062 379.304688 C 506.039062 379.304688 510.648438 380.125 512.777344 379.304688 C 514.902344 378.472656 512.65625 370.078125 505.6875 366.058594 Z M 505.6875 366.058594 "/>
<path style="fill-rule:evenodd;fill:rgb(61.175537%,65.097046%,61.175537%);fill-opacity:1;stroke-width:1.111111;stroke-linecap:butt;stroke-linejoin:miter;stroke:rgb(0%,0%,0%);stroke-opacity:1;stroke-miterlimit:4;" d="M 539.140625 367.71875 C 539.140625 367.71875 530.625 347.152344 508.875 341.949219 C 487.125 336.746094 489.960938 313.578125 491.738281 312.160156 C 492.679688 310.152344 493.390625 307.074219 499.660156 310.03125 C 505.917969 312.988281 534.757812 327.527344 538.898438 328.234375 C 543.039062 328.945312 539.492188 368.191406 539.140625 367.71875 Z M 539.140625 367.71875 "/>
<path style="fill-rule:evenodd;fill:rgb(85.096741%,0%,0%);fill-opacity:1;stroke-width:1.111111;stroke-linecap:butt;stroke-linejoin:miter;stroke:rgb(0%,0%,0%);stroke-opacity:1;stroke-miterlimit:4;" d="M 518.453125 341.828125 C 518.09375 342.066406 547.53125 359.207031 538.660156 373.980469 C 547.058594 368.425781 544.335938 358.734375 544.335938 358.734375 C 544.335938 358.734375 551.191406 376.585938 534.527344 385.332031 C 536.300781 386.867188 537.484375 386.511719 537.484375 386.511719 L 534.644531 389.351562 C 534.644531 389.351562 533.34375 391.476562 544.574219 386.035156 C 541.5 388.519531 541.265625 390.292969 541.265625 390.292969 C 541.265625 390.292969 542.089844 392.660156 549.417969 386.273438 C 543.511719 392.660156 542.210938 395.96875 542.210938 395.851562 C 558.164062 394.429688 592.917969 342.539062 531.21875 327.167969 C 534.527344 330.597656 534.054688 330.125 534.054688 330.125 Z M 518.453125 341.828125 "/>
<path style="fill-rule:evenodd;fill:rgb(99.998474%,99.998474%,99.998474%);fill-opacity:1;stroke-width:1.111111;stroke-linecap:butt;stroke-linejoin:miter;stroke:rgb(0%,0%,0%);stroke-opacity:1;stroke-miterlimit:4;" d="M 519.753906 336.746094 C 523.769531 339.582031 525.191406 340.527344 525.664062 341.949219 C 521.996094 341.117188 518.683594 341.355469 518.683594 341.355469 C 518.683594 341.355469 510.769531 333.792969 509.347656 333.203125 C 508.285156 333.203125 502.136719 329.304688 502.136719 329.304688 C 499.066406 327.761719 496.230469 317.121094 507.574219 320.199219 C 519.277344 325.753906 520.929688 326.226562 520.929688 326.226562 C 525.582031 327.6875 530.230469 329.144531 534.878906 330.597656 C 537.558594 333.59375 540.242188 336.589844 542.917969 339.582031 C 542.917969 339.582031 528.617188 332.492188 526.84375 332.375 C 530.746094 335.5625 532.992188 339.9375 532.992188 339.9375 C 528.457031 338.640625 524.515625 337.457031 519.753906 336.746094 Z M 519.753906 336.746094 "/>
<path style=" stroke:none;fill-rule:evenodd;fill:rgb(0%,0%,0%);fill-opacity:1;" d="M 464.078125 273.269531 C 464.078125 273.269531 477.789062 269.960938 479.441406 270.433594 Z M 464.078125 273.269531 "/>
<path style="fill:none;stroke-width:1.111111;stroke-linecap:butt;stroke-linejoin:miter;stroke:rgb(99.998474%,99.998474%,99.998474%);stroke-opacity:1;stroke-miterlimit:4;" d="M 464.078125 273.269531 C 464.078125 273.269531 477.789062 269.960938 479.441406 270.433594 "/>
</g>
</svg>
