<?xml version="1.0" encoding="UTF-8"?>
<svg xmlns="http://www.w3.org/2000/svg" xmlns:xlink="http://www.w3.org/1999/xlink" viewBox="0 0 1000 668" version="1.1">
<g id="surface1255">
<path style=" stroke:none;fill-rule:evenodd;fill:rgb(99.998474%,99.998474%,99.998474%);fill-opacity:1;" d="M 0 0.335938 L 998.65625 0.335938 L 998.65625 666.109375 L 0 666.109375 Z M 0 0.335938 "/>
<path style="fill-rule:evenodd;fill:rgb(99.998474%,83.920288%,0%);fill-opacity:1;stroke-width:1.991275;stroke-linecap:butt;stroke-linejoin:miter;stroke:rgb(0%,0%,0%);stroke-opacity:1;stroke-miterlimit:4;" d="M 587.871094 240.058594 C 587.871094 235.472656 586.375 226.558594 581.527344 223.46875 C 575.292969 220.226562 575.292969 218.234375 574.796875 214 C 574.296875 209.765625 585.261719 201.789062 585.261719 201.789062 C 585.261719 201.789062 575.292969 197.308594 571.558594 197.804688 C 567.820312 198.300781 560.59375 199.050781 559.597656 200.046875 C 558.601562 201.042969 553.121094 182.101562 556.605469 179.113281 C 560.09375 176.125 567.316406 186.09375 567.316406 186.09375 C 567.316406 186.09375 572.054688 175.128906 555.363281 154.191406 C 561.089844 113.328125 522.964844 103.855469 514.25 104.105469 C 507.019531 103.109375 488.332031 109.84375 485.34375 118.808594 C 475.875 122.050781 475.375 130.269531 475.375 130.269531 C 475.375 130.269531 455.9375 133.761719 453.445312 150.707031 C 464.910156 141.238281 472.382812 151.703125 472.382812 151.703125 C 472.382812 151.703125 482.347656 158.683594 487.585938 158.929688 C 492.816406 159.179688 482.597656 176.371094 479.609375 179.367188 C 476.621094 182.355469 464.164062 193.820312 464.660156 194.566406 C 465.15625 195.3125 474.378906 198.054688 473.882812 202.285156 C 473.378906 206.527344 445.46875 219.484375 446.972656 222.722656 C 454.191406 220.480469 459.832031 222.203125 459.832031 222.203125 C 460.832031 229.285156 458.015625 237.429688 453.210938 240.066406 Z M 587.871094 240.058594 "/>
<path style="fill-rule:evenodd;fill:rgb(99.998474%,83.920288%,0%);fill-opacity:1;stroke-width:1.991275;stroke-linecap:butt;stroke-linejoin:miter;stroke:rgb(0%,0%,0%);stroke-opacity:1;stroke-miterlimit:4;" d="M 580.484375 426.785156 C 580.484375 426.785156 581.75 441.769531 575.40625 448.113281 C 603.585938 449.890625 618.820312 478.582031 619.074219 485.4375 C 619.324219 492.292969 610.4375 497.621094 610.4375 497.621094 C 610.4375 497.621094 613.484375 509.8125 601.804688 511.84375 C 602.058594 523.523438 593.941406 523.523438 593.941406 523.523438 C 593.941406 523.523438 590.894531 533.171875 581.492188 532.660156 C 578.703125 546.628906 564.230469 546.371094 564.230469 546.371094 C 564.230469 546.371094 555.855469 566.683594 543.414062 558.8125 C 535.542969 576.074219 514.726562 575.316406 506.855469 558.8125 C 502.535156 558.5625 492.890625 564.394531 487.046875 547.132812 C 474.105469 549.417969 469.023438 532.917969 469.023438 532.917969 C 469.023438 532.917969 460.394531 532.15625 457.089844 523.523438 C 446.9375 521.492188 448.714844 511.332031 448.714844 511.332031 C 448.714844 511.332031 438.5625 508.542969 438.808594 497.371094 C 430.691406 492.546875 431.453125 483.917969 431.453125 483.917969 C 431.453125 483.917969 437.796875 453.957031 474.609375 447.605469 C 468.769531 439.230469 469.53125 427.039062 469.53125 427.039062 Z M 580.484375 426.785156 "/>
<path style=" stroke:none;fill-rule:evenodd;fill:rgb(99.998474%,83.920288%,0%);fill-opacity:1;" d="M 404.117188 254.921875 C 404.117188 254.921875 384.050781 276.511719 374.015625 260.394531 C 363.984375 244.285156 388.003906 239.71875 388.304688 239.417969 C 388.613281 239.117188 402.292969 234.855469 403.511719 209.621094 C 404.722656 184.382812 373.40625 167.964844 364.59375 165.832031 C 355.777344 163.703125 329.933594 163.703125 329.933594 163.703125 C 329.933594 163.703125 235.371094 140.902344 225.644531 133.90625 C 215.914062 126.914062 126.527344 110.496094 126.527344 110.496094 C 126.527344 110.496094 112.234375 108.667969 113.453125 121.441406 C 114.671875 134.210938 126.527344 135.730469 126.527344 135.730469 C 126.527344 135.730469 116.492188 143.632812 117.703125 150.632812 C 118.925781 157.628906 126.527344 168.875 142.335938 167.050781 C 140.511719 191.984375 175.171875 195.9375 175.171875 195.9375 C 175.171875 195.9375 178.820312 231.8125 210.746094 229.992188 C 218.351562 254.617188 246.925781 255.535156 246.925781 255.535156 C 246.925781 255.535156 260.304688 272.257812 279.761719 273.472656 C 291.015625 301.445312 315.335938 293.539062 315.335938 293.539062 C 315.335938 293.539062 313.511719 311.171875 324.761719 311.171875 C 318.980469 331.238281 340.570312 333.980469 348.785156 330.027344 C 350.90625 334.28125 358.207031 347.355469 374.929688 339.152344 C 384.964844 354.046875 401.382812 347.054688 401.382812 347.054688 C 401.382812 347.054688 405.03125 358.910156 419.320312 354.347656 C 433.613281 349.785156 403.820312 255.535156 404.117188 254.921875 Z M 404.117188 254.921875 "/>
<path style="fill:none;stroke-width:1.991349;stroke-linecap:butt;stroke-linejoin:miter;stroke:rgb(0%,0%,0%);stroke-opacity:1;stroke-miterlimit:4;" d="M 404.121094 254.921875 C 404.121094 254.921875 384.050781 276.511719 374.019531 260.394531 C 363.984375 244.285156 388.003906 239.71875 388.304688 239.417969 C 388.613281 239.113281 402.292969 234.855469 403.511719 209.621094 C 404.722656 184.382812 373.40625 167.964844 364.59375 165.832031 C 355.777344 163.703125 329.933594 163.703125 329.933594 163.703125 C 329.933594 163.703125 235.371094 140.902344 225.644531 133.90625 C 215.914062 126.914062 126.527344 110.496094 126.527344 110.496094 C 126.527344 110.496094 112.234375 108.667969 113.449219 121.441406 C 114.671875 134.210938 126.527344 135.730469 126.527344 135.730469 C 126.527344 135.730469 116.492188 143.632812 117.707031 150.632812 C 118.925781 157.628906 126.527344 168.875 142.335938 167.050781 C 140.511719 191.984375 175.171875 195.9375 175.171875 195.9375 C 175.171875 195.9375 178.820312 231.8125 210.746094 229.992188 C 218.351562 254.617188 246.925781 255.535156 246.925781 255.535156 C 246.925781 255.535156 260.304688 272.257812 279.761719 273.472656 C 291.015625 301.445312 315.335938 293.539062 315.335938 293.539062 C 315.335938 293.539062 313.507812 311.171875 324.761719 311.171875 C 318.980469 331.238281 340.570312 333.980469 348.785156 330.027344 C 350.90625 334.28125 358.207031 347.355469 374.929688 339.152344 C 384.960938 354.046875 401.378906 347.054688 401.378906 347.054688 C 401.378906 347.054688 405.03125 358.910156 419.320312 354.347656 C 433.613281 349.785156 403.816406 255.535156 404.121094 254.921875 Z M 404.121094 254.921875 "/>
<path style=" stroke:none;fill-rule:evenodd;fill:rgb(99.998474%,83.920288%,0%);fill-opacity:1;" d="M 342.09375 181.339844 C 342.09375 181.339844 364.289062 183.773438 361.550781 218.136719 Z M 342.09375 181.339844 "/>
<path style="fill:none;stroke-width:1.991349;stroke-linecap:butt;stroke-linejoin:miter;stroke:rgb(0%,0%,0%);stroke-opacity:1;stroke-miterlimit:4;" d="M 342.089844 181.339844 C 342.089844 181.339844 364.289062 183.773438 361.550781 218.136719 "/>
<path style=" stroke:none;fill-rule:evenodd;fill:rgb(99.998474%,83.920288%,0%);fill-opacity:1;" d="M 257.570312 145.765625 C 257.570312 145.765625 215.007812 174.957031 294.667969 184.082031 Z M 257.570312 145.765625 "/>
<path style="fill:none;stroke-width:1.991349;stroke-linecap:butt;stroke-linejoin:miter;stroke:rgb(0%,0%,0%);stroke-opacity:1;stroke-miterlimit:4;" d="M 257.570312 145.765625 C 257.570312 145.765625 215.007812 174.957031 294.664062 184.082031 "/>
<path style=" stroke:none;fill-rule:evenodd;fill:rgb(99.998474%,83.920288%,0%);fill-opacity:1;" d="M 269.734375 180.121094 C 269.425781 180.730469 249.667969 204.144531 286.152344 211.136719 C 268.816406 227.558594 301.351562 233.035156 301.351562 233.035156 C 301.351562 233.035156 294.660156 250.363281 314.117188 254.921875 C 307.734375 272.863281 328.714844 271.953125 328.714844 271.953125 C 328.714844 271.953125 329.324219 293.84375 354.257812 293.539062 C 353.953125 308.4375 371.285156 309.347656 371.285156 309.347656 C 371.285156 309.347656 376.449219 325.464844 393.175781 320.601562 C 394.996094 331.847656 406.550781 329.417969 406.550781 329.417969 Z M 269.734375 180.121094 "/>
<path style="fill:none;stroke-width:1.991349;stroke-linecap:butt;stroke-linejoin:miter;stroke:rgb(0%,0%,0%);stroke-opacity:1;stroke-miterlimit:4;" d="M 269.734375 180.121094 C 269.425781 180.730469 249.667969 204.144531 286.152344 211.136719 C 268.816406 227.558594 301.351562 233.035156 301.351562 233.035156 C 301.351562 233.035156 294.660156 250.363281 314.121094 254.921875 C 307.734375 272.863281 328.714844 271.953125 328.714844 271.953125 C 328.714844 271.953125 329.324219 293.84375 354.257812 293.539062 C 353.953125 308.4375 371.285156 309.347656 371.285156 309.347656 C 371.285156 309.347656 376.449219 325.464844 393.175781 320.601562 C 394.996094 331.847656 406.550781 329.417969 406.550781 329.417969 "/>
<path style=" stroke:none;fill-rule:evenodd;fill:rgb(96.861267%,95.292664%,3.137207%);fill-opacity:1;" d="M 401.6875 347.355469 C 401.6875 347.355469 402.597656 331.847656 398.949219 328.808594 Z M 401.6875 347.355469 "/>
<path style="fill:none;stroke-width:1.991349;stroke-linecap:butt;stroke-linejoin:miter;stroke:rgb(0%,0%,0%);stroke-opacity:1;stroke-miterlimit:4;" d="M 401.6875 347.355469 C 401.6875 347.355469 402.601562 331.847656 398.949219 328.808594 "/>
<path style=" stroke:none;fill-rule:evenodd;fill:rgb(96.861267%,95.292664%,3.137207%);fill-opacity:1;" d="M 374.015625 338.84375 C 374.324219 338.539062 381.320312 324.554688 378.878906 322.117188 Z M 374.015625 338.84375 "/>
<path style="fill:none;stroke-width:1.991349;stroke-linecap:butt;stroke-linejoin:miter;stroke:rgb(0%,0%,0%);stroke-opacity:1;stroke-miterlimit:4;" d="M 374.019531 338.84375 C 374.324219 338.539062 381.316406 324.554688 378.878906 322.117188 "/>
<path style=" stroke:none;fill-rule:evenodd;fill:rgb(96.861267%,95.292664%,3.137207%);fill-opacity:1;" d="M 348.480469 330.027344 L 367.332031 311.476562 Z M 348.480469 330.027344 "/>
<path style="fill:none;stroke-width:1.991349;stroke-linecap:butt;stroke-linejoin:miter;stroke:rgb(0%,0%,0%);stroke-opacity:1;stroke-miterlimit:4;" d="M 348.480469 330.027344 L 367.332031 311.476562 "/>
<path style=" stroke:none;fill-rule:evenodd;fill:rgb(96.861267%,95.292664%,3.137207%);fill-opacity:1;" d="M 324.761719 311.78125 C 325.070312 311.476562 353.34375 293.84375 353.34375 293.84375 Z M 324.761719 311.78125 "/>
<path style="fill:none;stroke-width:1.991349;stroke-linecap:butt;stroke-linejoin:miter;stroke:rgb(0%,0%,0%);stroke-opacity:1;stroke-miterlimit:4;" d="M 324.761719 311.78125 C 325.070312 311.476562 353.347656 293.84375 353.347656 293.84375 "/>
<path style=" stroke:none;fill-rule:evenodd;fill:rgb(96.861267%,95.292664%,3.137207%);fill-opacity:1;" d="M 314.726562 293.84375 C 315.035156 293.535156 330.84375 286.847656 331.453125 281.066406 Z M 314.726562 293.84375 "/>
<path style="fill:none;stroke-width:1.991349;stroke-linecap:butt;stroke-linejoin:miter;stroke:rgb(0%,0%,0%);stroke-opacity:1;stroke-miterlimit:4;" d="M 314.726562 293.84375 C 315.039062 293.535156 330.84375 286.847656 331.453125 281.066406 "/>
<path style=" stroke:none;fill-rule:evenodd;fill:rgb(99.998474%,83.920288%,0%);fill-opacity:1;" d="M 279.769531 273.472656 C 279.769531 273.472656 318.078125 281.679688 324.761719 272.863281 Z M 279.769531 273.472656 "/>
<path style="fill:none;stroke-width:1.991349;stroke-linecap:butt;stroke-linejoin:miter;stroke:rgb(0%,0%,0%);stroke-opacity:1;stroke-miterlimit:4;" d="M 279.769531 273.472656 C 279.769531 273.472656 318.078125 281.679688 324.761719 272.863281 "/>
<path style=" stroke:none;fill-rule:evenodd;fill:rgb(99.998474%,83.920288%,0%);fill-opacity:1;" d="M 247.84375 255.226562 C 249.355469 255.226562 305.304688 261.308594 310.476562 254.3125 Z M 247.84375 255.226562 "/>
<path style="fill:none;stroke-width:1.991349;stroke-linecap:butt;stroke-linejoin:miter;stroke:rgb(0%,0%,0%);stroke-opacity:1;stroke-miterlimit:4;" d="M 247.84375 255.226562 C 249.355469 255.226562 305.304688 261.308594 310.476562 254.3125 "/>
<path style=" stroke:none;fill-rule:evenodd;fill:rgb(99.998474%,83.920288%,0%);fill-opacity:1;" d="M 210.746094 229.992188 C 211.65625 229.683594 277.027344 242.148438 295.578125 232.726562 Z M 210.746094 229.992188 "/>
<path style="fill:none;stroke-width:1.991349;stroke-linecap:butt;stroke-linejoin:miter;stroke:rgb(0%,0%,0%);stroke-opacity:1;stroke-miterlimit:4;" d="M 210.746094 229.992188 C 211.65625 229.683594 277.027344 242.148438 295.578125 232.726562 "/>
<path style=" stroke:none;fill-rule:evenodd;fill:rgb(99.998474%,83.920288%,0%);fill-opacity:1;" d="M 179.429688 196.238281 C 180.953125 196.238281 266.386719 216.917969 279.160156 210.523438 Z M 179.429688 196.238281 "/>
<path style="fill:none;stroke-width:1.991349;stroke-linecap:butt;stroke-linejoin:miter;stroke:rgb(0%,0%,0%);stroke-opacity:1;stroke-miterlimit:4;" d="M 179.429688 196.238281 C 180.953125 196.238281 266.386719 216.917969 279.160156 210.523438 "/>
<path style=" stroke:none;fill-rule:evenodd;fill:rgb(99.998474%,83.920288%,0%);fill-opacity:1;" d="M 146.898438 166.441406 C 147.507812 166.441406 248.753906 190.15625 261.523438 180.429688 Z M 146.898438 166.441406 "/>
<path style="fill:none;stroke-width:1.991349;stroke-linecap:butt;stroke-linejoin:miter;stroke:rgb(0%,0%,0%);stroke-opacity:1;stroke-miterlimit:4;" d="M 146.898438 166.441406 C 147.507812 166.441406 248.753906 190.15625 261.523438 180.429688 "/>
<path style=" stroke:none;fill-rule:evenodd;fill:rgb(99.998474%,83.920288%,0%);fill-opacity:1;" d="M 133.828125 137.558594 C 134.128906 137.558594 230.816406 169.175781 239.023438 161.273438 Z M 133.828125 137.558594 "/>
<path style="fill:none;stroke-width:1.991349;stroke-linecap:butt;stroke-linejoin:miter;stroke:rgb(0%,0%,0%);stroke-opacity:1;stroke-miterlimit:4;" d="M 133.828125 137.558594 C 134.128906 137.558594 230.816406 169.175781 239.023438 161.273438 "/>
<path style=" stroke:none;fill-rule:evenodd;fill:rgb(99.998474%,83.920288%,0%);fill-opacity:1;" d="M 646.8125 255.617188 C 646.8125 255.617188 666.882812 277.207031 676.914062 261.097656 C 686.949219 244.980469 662.929688 240.417969 662.628906 240.109375 C 662.320312 239.808594 648.640625 235.554688 647.421875 210.316406 C 646.210938 185.074219 677.523438 168.65625 686.339844 166.527344 C 695.15625 164.40625 721 164.40625 721 164.40625 C 721 164.40625 815.554688 141.59375 825.285156 134.601562 C 835.011719 127.609375 924.40625 111.191406 924.40625 111.191406 C 924.40625 111.191406 938.691406 109.367188 937.480469 122.136719 C 936.261719 134.910156 924.40625 136.429688 924.40625 136.429688 C 924.40625 136.429688 934.441406 144.335938 933.21875 151.328125 C 932 158.320312 924.40625 169.570312 908.589844 167.746094 C 910.417969 192.679688 875.753906 196.632812 875.753906 196.632812 C 875.753906 196.632812 872.101562 232.515625 840.183594 230.6875 C 832.582031 255.316406 804 256.226562 804 256.226562 C 804 256.226562 790.621094 272.953125 771.164062 274.167969 C 759.917969 302.140625 735.59375 294.234375 735.59375 294.234375 C 735.59375 294.234375 737.417969 311.871094 726.167969 311.871094 C 731.941406 331.941406 710.359375 334.675781 702.148438 330.722656 C 700.019531 334.976562 692.722656 348.050781 676 339.84375 C 665.96875 354.742188 649.550781 347.75 649.550781 347.75 C 649.550781 347.75 645.902344 359.613281 631.613281 355.042969 C 617.324219 350.484375 647.121094 256.226562 646.8125 255.617188 Z M 646.8125 255.617188 "/>
<path style="fill:none;stroke-width:1.991349;stroke-linecap:butt;stroke-linejoin:miter;stroke:rgb(0%,0%,0%);stroke-opacity:1;stroke-miterlimit:4;" d="M 646.8125 255.617188 C 646.8125 255.617188 666.882812 277.207031 676.914062 261.097656 C 686.949219 244.980469 662.929688 240.417969 662.625 240.109375 C 662.320312 239.808594 648.640625 235.554688 647.421875 210.316406 C 646.210938 185.074219 677.523438 168.65625 686.339844 166.527344 C 695.15625 164.40625 720.996094 164.40625 720.996094 164.40625 C 720.996094 164.40625 815.554688 141.59375 825.285156 134.601562 C 835.011719 127.609375 924.40625 111.191406 924.40625 111.191406 C 924.40625 111.191406 938.691406 109.371094 937.480469 122.136719 C 936.261719 134.910156 924.40625 136.429688 924.40625 136.429688 C 924.40625 136.429688 934.4375 144.335938 933.21875 151.328125 C 932 158.320312 924.40625 169.570312 908.589844 167.746094 C 910.417969 192.679688 875.753906 196.632812 875.753906 196.632812 C 875.753906 196.632812 872.101562 232.515625 840.183594 230.6875 C 832.582031 255.316406 804 256.226562 804 256.226562 C 804 256.226562 790.621094 272.953125 771.164062 274.167969 C 759.917969 302.140625 735.59375 294.234375 735.59375 294.234375 C 735.59375 294.234375 737.417969 311.871094 726.167969 311.871094 C 731.945312 331.941406 710.359375 334.675781 702.148438 330.722656 C 700.019531 334.976562 692.722656 348.050781 676 339.84375 C 665.96875 354.742188 649.550781 347.75 649.550781 347.75 C 649.550781 347.75 645.902344 359.613281 631.613281 355.042969 C 617.324219 350.484375 647.121094 256.226562 646.8125 255.617188 Z M 646.8125 255.617188 "/>
<path style=" stroke:none;fill-rule:evenodd;fill:rgb(99.998474%,83.920288%,0%);fill-opacity:1;" d="M 708.839844 182.035156 C 708.839844 182.035156 686.648438 184.472656 689.382812 218.832031 Z M 708.839844 182.035156 "/>
<path style="fill:none;stroke-width:1.991349;stroke-linecap:butt;stroke-linejoin:miter;stroke:rgb(0%,0%,0%);stroke-opacity:1;stroke-miterlimit:4;" d="M 708.839844 182.035156 C 708.839844 182.035156 686.648438 184.472656 689.378906 218.832031 "/>
<path style=" stroke:none;fill-rule:evenodd;fill:rgb(99.998474%,83.920288%,0%);fill-opacity:1;" d="M 793.363281 146.464844 C 793.363281 146.464844 835.929688 175.652344 756.273438 184.773438 Z M 793.363281 146.464844 "/>
<path style="fill:none;stroke-width:1.991349;stroke-linecap:butt;stroke-linejoin:miter;stroke:rgb(0%,0%,0%);stroke-opacity:1;stroke-miterlimit:4;" d="M 793.363281 146.464844 C 793.363281 146.464844 835.929688 175.652344 756.273438 184.773438 "/>
<path style=" stroke:none;fill-rule:evenodd;fill:rgb(99.998474%,83.920288%,0%);fill-opacity:1;" d="M 781.203125 180.820312 C 781.503906 181.425781 801.265625 204.84375 764.78125 211.835938 C 782.117188 228.253906 749.582031 233.726562 749.582031 233.726562 C 749.582031 233.726562 756.273438 251.058594 736.8125 255.617188 C 743.195312 273.558594 722.214844 272.644531 722.214844 272.644531 C 722.214844 272.644531 721.605469 294.535156 696.675781 294.234375 C 696.984375 309.132812 679.648438 310.050781 679.648438 310.050781 C 679.648438 310.050781 674.484375 326.160156 657.757812 321.296875 C 655.9375 332.542969 644.382812 330.113281 644.382812 330.113281 Z M 781.203125 180.820312 "/>
<path style="fill:none;stroke-width:1.991349;stroke-linecap:butt;stroke-linejoin:miter;stroke:rgb(0%,0%,0%);stroke-opacity:1;stroke-miterlimit:4;" d="M 781.203125 180.820312 C 781.503906 181.425781 801.265625 204.84375 764.78125 211.835938 C 782.117188 228.253906 749.582031 233.726562 749.582031 233.726562 C 749.582031 233.726562 756.273438 251.058594 736.8125 255.617188 C 743.195312 273.558594 722.21875 272.644531 722.21875 272.644531 C 722.21875 272.644531 721.605469 294.535156 696.675781 294.234375 C 696.984375 309.132812 679.648438 310.050781 679.648438 310.050781 C 679.648438 310.050781 674.484375 326.160156 657.757812 321.296875 C 655.9375 332.542969 644.378906 330.113281 644.378906 330.113281 "/>
<path style=" stroke:none;fill-rule:evenodd;fill:rgb(96.861267%,95.292664%,3.137207%);fill-opacity:1;" d="M 649.25 348.050781 C 649.25 348.050781 648.332031 332.542969 651.984375 329.503906 Z M 649.25 348.050781 "/>
<path style="fill:none;stroke-width:1.991349;stroke-linecap:butt;stroke-linejoin:miter;stroke:rgb(0%,0%,0%);stroke-opacity:1;stroke-miterlimit:4;" d="M 649.25 348.050781 C 649.25 348.050781 648.332031 332.542969 651.984375 329.503906 "/>
<path style=" stroke:none;fill-rule:evenodd;fill:rgb(96.861267%,95.292664%,3.137207%);fill-opacity:1;" d="M 676.914062 339.535156 C 676.605469 339.234375 669.621094 325.25 672.050781 322.816406 Z M 676.914062 339.535156 "/>
<path style="fill:none;stroke-width:1.991349;stroke-linecap:butt;stroke-linejoin:miter;stroke:rgb(0%,0%,0%);stroke-opacity:1;stroke-miterlimit:4;" d="M 676.914062 339.535156 C 676.609375 339.234375 669.621094 325.25 672.050781 322.816406 "/>
<path style=" stroke:none;fill-rule:evenodd;fill:rgb(96.861267%,95.292664%,3.137207%);fill-opacity:1;" d="M 702.457031 330.722656 L 683.601562 312.171875 Z M 702.457031 330.722656 "/>
<path style="fill:none;stroke-width:1.991349;stroke-linecap:butt;stroke-linejoin:miter;stroke:rgb(0%,0%,0%);stroke-opacity:1;stroke-miterlimit:4;" d="M 702.457031 330.722656 L 683.601562 312.171875 "/>
<path style=" stroke:none;fill-rule:evenodd;fill:rgb(99.998474%,83.920288%,0%);fill-opacity:1;" d="M 726.167969 312.480469 C 725.867188 312.171875 697.59375 294.542969 697.59375 294.542969 Z M 726.167969 312.480469 "/>
<path style="fill:none;stroke-width:1.991349;stroke-linecap:butt;stroke-linejoin:miter;stroke:rgb(0%,0%,0%);stroke-opacity:1;stroke-miterlimit:4;" d="M 726.167969 312.480469 C 725.867188 312.171875 697.59375 294.542969 697.59375 294.542969 "/>
<path style=" stroke:none;fill-rule:evenodd;fill:rgb(96.861267%,95.292664%,3.137207%);fill-opacity:1;" d="M 736.203125 294.535156 C 735.894531 294.234375 720.085938 287.542969 719.476562 281.769531 Z M 736.203125 294.535156 "/>
<path style="fill:none;stroke-width:1.991349;stroke-linecap:butt;stroke-linejoin:miter;stroke:rgb(0%,0%,0%);stroke-opacity:1;stroke-miterlimit:4;" d="M 736.203125 294.535156 C 735.894531 294.234375 720.085938 287.542969 719.476562 281.769531 "/>
<path style=" stroke:none;fill-rule:evenodd;fill:rgb(99.998474%,83.920288%,0%);fill-opacity:1;" d="M 771.167969 274.167969 C 771.167969 274.167969 732.859375 282.378906 726.167969 273.558594 Z M 771.167969 274.167969 "/>
<path style="fill:none;stroke-width:1.991349;stroke-linecap:butt;stroke-linejoin:miter;stroke:rgb(0%,0%,0%);stroke-opacity:1;stroke-miterlimit:4;" d="M 771.171875 274.167969 C 771.171875 274.167969 732.863281 282.378906 726.167969 273.558594 "/>
<path style=" stroke:none;fill-rule:evenodd;fill:rgb(99.998474%,83.920288%,0%);fill-opacity:1;" d="M 803.09375 255.925781 C 801.574219 255.925781 745.628906 262 740.464844 255.007812 Z M 803.09375 255.925781 "/>
<path style="fill:none;stroke-width:1.991349;stroke-linecap:butt;stroke-linejoin:miter;stroke:rgb(0%,0%,0%);stroke-opacity:1;stroke-miterlimit:4;" d="M 803.09375 255.925781 C 801.574219 255.925781 745.628906 262 740.464844 255.007812 "/>
<path style=" stroke:none;fill-rule:evenodd;fill:rgb(99.998474%,83.920288%,0%);fill-opacity:1;" d="M 840.183594 230.6875 C 839.273438 230.378906 773.902344 242.851562 755.355469 233.417969 Z M 840.183594 230.6875 "/>
<path style="fill:none;stroke-width:1.991349;stroke-linecap:butt;stroke-linejoin:miter;stroke:rgb(0%,0%,0%);stroke-opacity:1;stroke-miterlimit:4;" d="M 840.183594 230.6875 C 839.273438 230.378906 773.902344 242.851562 755.355469 233.417969 "/>
<path style=" stroke:none;fill-rule:evenodd;fill:rgb(99.998474%,83.920288%,0%);fill-opacity:1;" d="M 871.5 196.933594 C 869.988281 196.933594 784.546875 217.609375 771.777344 211.226562 Z M 871.5 196.933594 "/>
<path style="fill:none;stroke-width:1.991349;stroke-linecap:butt;stroke-linejoin:miter;stroke:rgb(0%,0%,0%);stroke-opacity:1;stroke-miterlimit:4;" d="M 871.5 196.933594 C 869.984375 196.933594 784.546875 217.609375 771.777344 211.226562 "/>
<path style=" stroke:none;fill-rule:evenodd;fill:rgb(99.998474%,83.920288%,0%);fill-opacity:1;" d="M 904.035156 167.136719 C 903.429688 167.136719 802.183594 190.855469 789.410156 181.125 Z M 904.035156 167.136719 "/>
<path style="fill:none;stroke-width:1.991349;stroke-linecap:butt;stroke-linejoin:miter;stroke:rgb(0%,0%,0%);stroke-opacity:1;stroke-miterlimit:4;" d="M 904.035156 167.136719 C 903.433594 167.136719 802.183594 190.855469 789.410156 181.125 "/>
<path style=" stroke:none;fill-rule:evenodd;fill:rgb(99.998474%,83.920288%,0%);fill-opacity:1;" d="M 917.109375 138.253906 C 916.800781 138.253906 820.117188 169.878906 811.910156 161.964844 Z M 917.109375 138.253906 "/>
<path style="fill:none;stroke-width:1.991349;stroke-linecap:butt;stroke-linejoin:miter;stroke:rgb(0%,0%,0%);stroke-opacity:1;stroke-miterlimit:4;" d="M 917.109375 138.253906 C 916.800781 138.253906 820.117188 169.878906 811.910156 161.964844 "/>
<path style="fill-rule:evenodd;fill:rgb(0%,80.783081%,87.057495%);fill-opacity:1;stroke-width:1.991275;stroke-linecap:butt;stroke-linejoin:miter;stroke:rgb(0%,0%,0%);stroke-opacity:1;stroke-miterlimit:4;" d="M 762.996094 292.472656 C 762.996094 292.472656 757.050781 377.433594 756.761719 377.238281 C 756.476562 377.046875 744.363281 362.398438 744.363281 362.398438 L 706.984375 479.585938 L 715.722656 505.144531 L 693.964844 576.507812 L 676.011719 553.738281 L 647.023438 565.398438 L 670.296875 490.242188 L 691.792969 474.785156 L 730.515625 359.34375 L 709.023438 362.035156 Z M 762.996094 292.472656 "/>
<path style="fill-rule:evenodd;fill:rgb(0%,80.783081%,87.057495%);fill-opacity:1;stroke-width:1.991275;stroke-linecap:butt;stroke-linejoin:miter;stroke:rgb(0%,0%,0%);stroke-opacity:1;stroke-miterlimit:4;" d="M 845.597656 327.515625 C 845.597656 327.515625 800.394531 399.691406 800.230469 399.390625 C 800.066406 399.082031 796.265625 380.453125 796.265625 380.453125 L 721.980469 449.371094 L 642.65625 525.910156 L 642.433594 510.148438 L 615.292969 506.792969 L 651.191406 479.324219 L 669.582031 476.296875 L 785.476562 371.246094 L 765.25 363.511719 Z M 845.597656 327.515625 "/>
<path style="fill:none;stroke-width:2.033557;stroke-linecap:butt;stroke-linejoin:miter;stroke:rgb(0%,0%,0%);stroke-opacity:1;stroke-miterlimit:4;" d="M 642.710938 510.023438 C 643.203125 509 683.953125 474.171875 683.953125 474.171875 "/>
<path style="fill-rule:evenodd;fill:rgb(0%,80.783081%,87.057495%);fill-opacity:1;stroke-width:1.991275;stroke-linecap:butt;stroke-linejoin:miter;stroke:rgb(0%,0%,0%);stroke-opacity:1;stroke-miterlimit:4;" d="M 821.445312 266.453125 C 821.445312 266.453125 799.351562 348.707031 799.105469 348.464844 C 798.859375 348.214844 789.777344 331.523438 789.777344 331.523438 L 700.164062 485.472656 L 703.839844 512.230469 L 671.679688 571.160156 L 658.417969 545.375 L 627.734375 551.273438 L 662.101562 488.90625 L 686.164062 477.855469 L 776.761719 325.871094 L 755.15625 324.398438 Z M 821.445312 266.453125 "/>
<path style="fill:none;stroke-width:1.991275;stroke-linecap:butt;stroke-linejoin:miter;stroke:rgb(0%,0%,0%);stroke-opacity:1;stroke-miterlimit:4;" d="M 658.910156 544.398438 C 658.910156 543.90625 689.84375 489.886719 689.84375 489.886719 "/>
<path style="fill-rule:evenodd;fill:rgb(0%,80.783081%,87.057495%);fill-opacity:1;stroke-width:1.991275;stroke-linecap:butt;stroke-linejoin:miter;stroke:rgb(0%,0%,0%);stroke-opacity:1;stroke-miterlimit:4;" d="M 50.511719 250.984375 L 104.523438 251.234375 L 99.125 264.242188 L 122.699219 357.546875 L 151.179688 264.492188 L 141.109375 250.984375 L 197.332031 250.984375 L 185.304688 264 L 138.902344 397.324219 L 150.929688 414.757812 L 96.917969 414.757812 L 108.949219 397.324219 L 63.523438 264.492188 Z M 50.511719 250.984375 "/>
<path style="fill-rule:evenodd;fill:rgb(0%,80.783081%,87.057495%);fill-opacity:1;stroke-width:1.991275;stroke-linecap:butt;stroke-linejoin:miter;stroke:rgb(0%,0%,0%);stroke-opacity:1;stroke-miterlimit:4;" d="M 879.144531 254.175781 L 930.460938 254.175781 L 922.109375 265.71875 L 921.863281 401.5 L 933.40625 414.265625 L 879.144531 414.265625 L 889.949219 400.515625 L 889.703125 265.960938 Z M 879.144531 254.175781 "/>
<path style="fill:none;stroke-width:1.991275;stroke-linecap:butt;stroke-linejoin:miter;stroke:rgb(0%,0%,0%);stroke-opacity:1;stroke-miterlimit:4;" d="M 474.609375 131.398438 C 474.609375 131.398438 481.191406 139.664062 483.640625 140.421875 C 486.09375 141.191406 499.863281 147.929688 499.101562 152.515625 C 498.335938 157.105469 489.304688 159.40625 489.304688 159.40625 "/>
<path style="fill:none;stroke-width:1.991275;stroke-linecap:butt;stroke-linejoin:miter;stroke:rgb(0%,0%,0%);stroke-opacity:1;stroke-miterlimit:4;" d="M 485.476562 119.15625 L 499.253906 132.316406 C 499.253906 132.316406 501.699219 143.640625 511.496094 142.722656 C 521.289062 141.796875 519.910156 137.671875 519.910156 137.671875 C 519.910156 137.671875 508.128906 129.40625 498.792969 131.390625 "/>
<path style=" stroke:none;fill-rule:evenodd;fill:rgb(9.411621%,51.763916%,0%);fill-opacity:1;" d="M 401.5 533.945312 L 419.894531 518.667969 C 419.894531 518.667969 415.839844 510.246094 401.183594 510.558594 C 387.464844 500.894531 363.773438 478.132812 363.773438 478.132812 L 351.921875 446.015625 C 351.921875 446.015625 361.589844 443.210938 363.773438 435.417969 C 365.953125 427.617188 363.152344 417.949219 362.214844 417.019531 C 361.273438 416.082031 351.613281 418.578125 348.804688 422.632812 C 346 426.6875 341.632812 442.273438 335.085938 436.976562 C 328.539062 431.675781 336.023438 425.75 336.023438 425.75 C 336.023438 425.75 342.570312 417.644531 342.253906 413.277344 C 341.949219 408.914062 333.523438 395.816406 332.59375 395.507812 C 331.65625 395.195312 329.789062 412.65625 327.292969 414.527344 C 324.796875 416.398438 321.367188 424.191406 316.378906 419.824219 C 311.394531 415.460938 318.871094 408.914062 318.871094 408.914062 C 318.871094 408.914062 332.902344 401.433594 319.183594 376.796875 C 315.128906 387.402344 307.335938 394.257812 307.335938 394.257812 C 307.335938 394.257812 303.59375 400.804688 300.164062 395.195312 C 296.738281 389.582031 304.214844 384.28125 304.214844 384.28125 C 304.214844 384.28125 316.378906 377.113281 316.6875 366.507812 C 317.003906 355.910156 302.039062 343.746094 302.039062 343.746094 C 302.039062 343.746094 301.101562 363.386719 296.421875 365.882812 C 291.75 368.382812 289.875 372.433594 284.578125 368.066406 C 279.277344 363.703125 288.628906 354.035156 288.628906 354.035156 C 288.628906 354.035156 304.84375 337.820312 303.90625 328.464844 C 302.96875 319.113281 302.039062 317.554688 302.039062 317.554688 C 302.039062 317.554688 289.875 325.039062 288.320312 328.78125 C 286.761719 332.523438 281.773438 345.929688 275.535156 341.878906 C 271.167969 336.890625 279.277344 327.222656 279.277344 327.222656 C 279.277344 327.222656 285.203125 320.675781 284.886719 317.867188 C 284.578125 315.058594 279.898438 306.644531 270.863281 298.535156 C 269.609375 296.042969 268.988281 286.0625 268.988281 286.0625 C 268.988281 286.0625 262.132812 294.167969 262.441406 298.535156 C 262.753906 302.898438 261.816406 311.628906 262.753906 321.296875 C 263.691406 330.964844 255.269531 318.179688 255.269531 318.179688 L 256.828125 287 C 256.828125 287 244.980469 272.652344 230.640625 267.355469 C 235.941406 275.148438 235.628906 282.632812 235.628906 282.632812 C 235.628906 282.632812 229.703125 295.414062 229.703125 298.847656 C 229.703125 302.277344 236.5625 317.238281 249.34375 327.222656 C 230.015625 306.328125 206.007812 313.191406 198.839844 309.132812 C 202.265625 313.191406 212.558594 328.464844 211.308594 332.515625 C 210.058594 336.574219 229.703125 344.988281 229.703125 344.988281 L 250.59375 345.304688 C 250.59375 345.304688 260.886719 352.476562 261.816406 357.15625 C 262.753906 361.828125 246.855469 348.425781 240.613281 348.734375 C 234.382812 349.046875 217.859375 346.550781 217.859375 346.550781 C 217.859375 346.550781 227.832031 355.910156 228.144531 359.960938 C 228.457031 364.015625 232.820312 373.367188 238.746094 375.859375 C 244.671875 378.355469 260.570312 379.292969 260.570312 379.292969 C 260.570312 379.292969 267.429688 375.238281 268.679688 379.601562 C 269.925781 383.96875 259.632812 387.402344 259.632812 387.402344 C 259.632812 387.402344 249.035156 387.402344 245.601562 384.589844 C 242.175781 381.785156 241.550781 377.113281 226.273438 375.238281 C 224.714844 388.023438 234.691406 401.117188 234.691406 401.117188 C 234.691406 401.117188 276.785156 397.683594 276.472656 406.730469 C 276.15625 415.773438 241.550781 407.667969 240.308594 404.855469 C 239.054688 402.050781 241.867188 422.632812 249.964844 426.996094 C 258.074219 431.359375 276.164062 429.179688 278.347656 428.238281 C 280.527344 427.308594 288.628906 426.371094 288.628906 431.050781 C 288.628906 435.726562 247.476562 439.46875 246.855469 438.222656 C 246.230469 436.96875 253.085938 454.121094 269.617188 453.183594 C 286.140625 452.253906 293.308594 447.261719 293.308594 447.261719 C 293.308594 447.261719 303.285156 445.394531 304.222656 449.441406 C 305.160156 453.5 294.246094 455.367188 294.246094 455.367188 C 294.246094 455.367188 268.058594 455.988281 267.117188 454.746094 C 266.183594 453.5 273.042969 471.269531 291.441406 470.960938 C 305.160156 469.707031 306.089844 463.789062 308.902344 462.851562 C 312.953125 461.917969 321.683594 461.917969 322.929688 462.230469 C 324.179688 462.539062 346.003906 477.816406 346.003906 477.816406 Z M 401.5 533.945312 "/>
<path style="fill:none;stroke-width:1.991275;stroke-linecap:butt;stroke-linejoin:miter;stroke:rgb(0%,0%,0%);stroke-opacity:1;stroke-miterlimit:4;" d="M 401.5 533.945312 L 419.894531 518.667969 C 419.894531 518.667969 415.839844 510.246094 401.183594 510.558594 C 387.464844 500.894531 363.773438 478.132812 363.773438 478.132812 L 351.921875 446.015625 C 351.921875 446.015625 361.589844 443.210938 363.773438 435.417969 C 365.953125 427.617188 363.152344 417.949219 362.214844 417.019531 C 361.273438 416.082031 351.613281 418.578125 348.804688 422.632812 C 346 426.6875 341.632812 442.273438 335.085938 436.976562 C 328.539062 431.675781 336.023438 425.75 336.023438 425.75 C 336.023438 425.75 342.570312 417.644531 342.253906 413.277344 C 341.949219 408.914062 333.523438 395.816406 332.59375 395.507812 C 331.65625 395.195312 329.789062 412.65625 327.292969 414.527344 C 324.796875 416.398438 321.367188 424.191406 316.378906 419.824219 C 311.394531 415.460938 318.871094 408.914062 318.871094 408.914062 C 318.871094 408.914062 332.902344 401.433594 319.183594 376.796875 C 315.128906 387.402344 307.335938 394.257812 307.335938 394.257812 C 307.335938 394.257812 303.59375 400.804688 300.164062 395.195312 C 296.738281 389.582031 304.214844 384.28125 304.214844 384.28125 C 304.214844 384.28125 316.378906 377.113281 316.6875 366.507812 C 317.003906 355.910156 302.039062 343.746094 302.039062 343.746094 C 302.039062 343.746094 301.101562 363.386719 296.421875 365.882812 C 291.75 368.382812 289.875 372.433594 284.578125 368.066406 C 279.277344 363.703125 288.628906 354.035156 288.628906 354.035156 C 288.628906 354.035156 304.84375 337.820312 303.90625 328.464844 C 302.96875 319.113281 302.039062 317.554688 302.039062 317.554688 C 302.039062 317.554688 289.875 325.039062 288.320312 328.78125 C 286.761719 332.523438 281.773438 345.929688 275.535156 341.878906 C 271.167969 336.890625 279.277344 327.222656 279.277344 327.222656 C 279.277344 327.222656 285.203125 320.675781 284.886719 317.871094 C 284.578125 315.058594 279.898438 306.644531 270.863281 298.535156 C 269.609375 296.042969 268.988281 286.0625 268.988281 286.0625 C 268.988281 286.0625 262.132812 294.167969 262.441406 298.535156 C 262.753906 302.898438 261.816406 311.628906 262.753906 321.296875 C 263.691406 330.964844 255.269531 318.179688 255.269531 318.179688 L 256.828125 287 C 256.828125 287 244.980469 272.652344 230.640625 267.355469 C 235.941406 275.148438 235.628906 282.632812 235.628906 282.632812 C 235.628906 282.632812 229.703125 295.414062 229.703125 298.847656 C 229.703125 302.277344 236.5625 317.238281 249.34375 327.222656 C 230.015625 306.328125 206.007812 313.191406 198.839844 309.132812 C 202.265625 313.191406 212.558594 328.464844 211.308594 332.515625 C 210.058594 336.574219 229.703125 344.988281 229.703125 344.988281 L 250.59375 345.304688 C 250.59375 345.304688 260.886719 352.476562 261.816406 357.15625 C 262.753906 361.828125 246.855469 348.425781 240.613281 348.734375 C 234.382812 349.046875 217.859375 346.550781 217.859375 346.550781 C 217.859375 346.550781 227.832031 355.910156 228.144531 359.960938 C 228.457031 364.015625 232.820312 373.371094 238.746094 375.859375 C 244.671875 378.355469 260.570312 379.292969 260.570312 379.292969 C 260.570312 379.292969 267.429688 375.238281 268.679688 379.601562 C 269.925781 383.96875 259.632812 387.402344 259.632812 387.402344 C 259.632812 387.402344 249.035156 387.402344 245.601562 384.589844 C 242.175781 381.785156 241.550781 377.113281 226.273438 375.238281 C 224.714844 388.023438 234.691406 401.121094 234.691406 401.121094 C 234.691406 401.121094 276.785156 397.683594 276.472656 406.730469 C 276.15625 415.773438 241.550781 407.667969 240.308594 404.855469 C 239.054688 402.050781 241.867188 422.632812 249.964844 426.996094 C 258.074219 431.359375 276.164062 429.179688 278.347656 428.238281 C 280.527344 427.308594 288.628906 426.371094 288.628906 431.050781 C 288.628906 435.726562 247.476562 439.46875 246.855469 438.222656 C 246.230469 436.96875 253.085938 454.121094 269.617188 453.183594 C 286.140625 452.253906 293.308594 447.261719 293.308594 447.261719 C 293.308594 447.261719 303.285156 445.394531 304.222656 449.441406 C 305.160156 453.5 294.246094 455.367188 294.246094 455.367188 C 294.246094 455.367188 268.058594 455.988281 267.117188 454.746094 C 266.183594 453.5 273.042969 471.269531 291.441406 470.960938 C 305.160156 469.707031 306.089844 463.789062 308.902344 462.851562 C 312.953125 461.917969 321.683594 461.917969 322.929688 462.230469 C 324.179688 462.539062 346.003906 477.816406 346.003906 477.816406 Z M 401.5 533.945312 "/>
<path style="fill:none;stroke-width:1.991275;stroke-linecap:butt;stroke-linejoin:miter;stroke:rgb(0%,0%,0%);stroke-opacity:1;stroke-miterlimit:4;" d="M 240.613281 287.621094 C 240.613281 287.621094 239.992188 317.554688 254.960938 326.597656 "/>
<path style="fill:none;stroke-width:1.991275;stroke-linecap:butt;stroke-linejoin:miter;stroke:rgb(0%,0%,0%);stroke-opacity:1;stroke-miterlimit:4;" d="M 272.105469 311.316406 C 272.105469 311.316406 282.082031 326.597656 265.25 332.210938 "/>
<path style="fill:none;stroke-width:1.991275;stroke-linecap:butt;stroke-linejoin:miter;stroke:rgb(0%,0%,0%);stroke-opacity:1;stroke-miterlimit:4;" d="M 220.347656 321.605469 C 220.347656 321.605469 219.105469 338.757812 249.34375 337.511719 "/>
<path style="fill:none;stroke-width:1.991275;stroke-linecap:butt;stroke-linejoin:miter;stroke:rgb(0%,0%,0%);stroke-opacity:1;stroke-miterlimit:4;" d="M 295.179688 336.574219 C 295.179688 336.574219 290.191406 348.734375 278.03125 348.109375 "/>
<path style="fill:none;stroke-width:1.991275;stroke-linecap:butt;stroke-linejoin:miter;stroke:rgb(0%,0%,0%);stroke-opacity:1;stroke-miterlimit:4;" d="M 306.40625 364.011719 C 306.40625 365.570312 308.585938 382.097656 292.6875 381.785156 "/>
<path style="fill:none;stroke-width:1.991275;stroke-linecap:butt;stroke-linejoin:miter;stroke:rgb(0%,0%,0%);stroke-opacity:1;stroke-miterlimit:4;" d="M 230.324219 357.15625 C 230.324219 357.15625 250.28125 369.628906 259.328125 368.691406 "/>
<path style="fill:none;stroke-width:1.991275;stroke-linecap:butt;stroke-linejoin:miter;stroke:rgb(0%,0%,0%);stroke-opacity:1;stroke-miterlimit:4;" d="M 234.691406 387.394531 C 234.691406 387.394531 244.046875 397.378906 261.195312 394.878906 "/>
<path style="fill:none;stroke-width:1.991275;stroke-linecap:butt;stroke-linejoin:miter;stroke:rgb(0%,0%,0%);stroke-opacity:1;stroke-miterlimit:4;" d="M 317.003906 394.257812 C 317.003906 395.503906 313.890625 405.167969 307.027344 406.421875 "/>
<path style="fill:none;stroke-width:1.991275;stroke-linecap:butt;stroke-linejoin:miter;stroke:rgb(0%,0%,0%);stroke-opacity:1;stroke-miterlimit:4;" d="M 250.28125 416.398438 C 250.28125 416.398438 257.765625 426.058594 277.410156 420.761719 "/>
<path style="fill:none;stroke-width:1.991275;stroke-linecap:butt;stroke-linejoin:miter;stroke:rgb(0%,0%,0%);stroke-opacity:1;stroke-miterlimit:4;" d="M 335.714844 412.339844 C 335.714844 412.339844 332.59375 427.617188 324.488281 427.933594 "/>
<path style="fill:none;stroke-width:1.991275;stroke-linecap:butt;stroke-linejoin:miter;stroke:rgb(0%,0%,0%);stroke-opacity:1;stroke-miterlimit:4;" d="M 354.726562 428.871094 C 354.726562 428.871094 348.496094 447.261719 332.59375 444.453125 "/>
<path style="fill:none;stroke-width:1.991275;stroke-linecap:butt;stroke-linejoin:miter;stroke:rgb(0%,0%,0%);stroke-opacity:1;stroke-miterlimit:4;" d="M 281.460938 461.605469 C 281.460938 461.605469 287.699219 467.21875 302.96875 460.355469 "/>
<path style="fill:none;stroke-width:1.991275;stroke-linecap:butt;stroke-linejoin:miter;stroke:rgb(0%,0%,0%);stroke-opacity:1;stroke-miterlimit:4;" d="M 264.3125 442.894531 C 265.558594 442.894531 273.351562 449.441406 292.0625 439.46875 "/>
<path style="fill:none;stroke-width:1.991275;stroke-linecap:butt;stroke-linejoin:miter;stroke:rgb(0%,0%,0%);stroke-opacity:1;stroke-miterlimit:4;" d="M 401.464844 511.03125 C 401.464844 511.03125 389.820312 516.242188 401.117188 533.808594 "/>
<path style=" stroke:none;fill-rule:evenodd;fill:rgb(99.998474%,83.920288%,0%);fill-opacity:1;" d="M 630.328125 357.816406 C 630.328125 357.816406 642.570312 369.574219 642.8125 372.019531 C 643.0625 374.46875 646 385.980469 649.179688 387.695312 C 652.363281 389.40625 664.855469 399.449219 666.566406 403.367188 C 668.285156 407.285156 679.300781 423.933594 679.300781 423.933594 C 679.300781 423.933594 689.582031 445 696.441406 446.710938 C 703.296875 448.429688 722.644531 445.484375 726.5625 454.789062 C 730.476562 464.097656 729.5 477.566406 729.5 477.566406 C 729.5 477.566406 724.84375 481.726562 722.644531 479.285156 C 720.441406 476.832031 716.523438 491.527344 709.667969 487.367188 C 700.328125 467.472656 675.878906 470.726562 675.878906 470.726562 C 675.878906 470.726562 681.261719 462.386719 659.46875 455.039062 C 625.425781 460.914062 615.386719 425.410156 615.386719 425.410156 L 596.011719 408.605469 Z M 630.328125 357.816406 "/>
<path style="fill:none;stroke-width:1.991275;stroke-linecap:butt;stroke-linejoin:miter;stroke:rgb(0%,0%,0%);stroke-opacity:1;stroke-miterlimit:4;" d="M 630.328125 357.816406 C 630.328125 357.816406 642.570312 369.574219 642.8125 372.019531 C 643.0625 374.46875 646 385.980469 649.179688 387.695312 C 652.363281 389.40625 664.855469 399.449219 666.566406 403.367188 C 668.285156 407.285156 679.300781 423.933594 679.300781 423.933594 C 679.300781 423.933594 689.582031 445 696.441406 446.710938 C 703.296875 448.425781 722.644531 445.484375 726.5625 454.789062 C 730.476562 464.097656 729.5 477.566406 729.5 477.566406 C 729.5 477.566406 724.84375 481.726562 722.644531 479.285156 C 720.441406 476.832031 716.523438 491.527344 709.667969 487.367188 C 700.328125 467.472656 675.878906 470.726562 675.878906 470.726562 C 675.878906 470.726562 681.261719 462.386719 659.46875 455.039062 C 625.425781 460.914062 615.386719 425.410156 615.386719 425.410156 L 596.011719 408.605469 Z M 630.328125 357.816406 "/>
<path style=" stroke:none;fill-rule:evenodd;fill:rgb(99.998474%,83.920288%,0%);fill-opacity:1;" d="M 610.738281 408.261719 L 625.917969 415.367188 L 624.691406 402.382812 Z M 610.738281 408.261719 "/>
<path style="fill:none;stroke-width:1.991275;stroke-linecap:butt;stroke-linejoin:miter;stroke:rgb(0%,0%,0%);stroke-opacity:1;stroke-miterlimit:4;" d="M 610.738281 408.261719 L 625.917969 415.367188 L 624.691406 402.382812 "/>
<path style=" stroke:none;fill-rule:evenodd;fill:rgb(99.998474%,83.920288%,0%);fill-opacity:1;" d="M 632.28125 406.304688 L 646.242188 413.160156 L 640.613281 401.898438 Z M 632.28125 406.304688 "/>
<path style="fill:none;stroke-width:1.991275;stroke-linecap:butt;stroke-linejoin:miter;stroke:rgb(0%,0%,0%);stroke-opacity:1;stroke-miterlimit:4;" d="M 632.28125 406.304688 L 646.242188 413.160156 L 640.613281 401.898438 "/>
<path style=" stroke:none;fill-rule:evenodd;fill:rgb(99.998474%,83.920288%,0%);fill-opacity:1;" d="M 631.546875 387.941406 L 645.265625 395.285156 L 638.894531 381.082031 Z M 631.546875 387.941406 "/>
<path style="fill:none;stroke-width:1.991275;stroke-linecap:butt;stroke-linejoin:miter;stroke:rgb(0%,0%,0%);stroke-opacity:1;stroke-miterlimit:4;" d="M 631.546875 387.941406 L 645.265625 395.285156 L 638.894531 381.082031 "/>
<path style=" stroke:none;fill-rule:evenodd;fill:rgb(99.998474%,83.920288%,0%);fill-opacity:1;" d="M 653.347656 455.28125 C 653.347656 455.28125 637.667969 434.710938 637.917969 434.710938 C 638.160156 434.710938 664.605469 439.855469 664.605469 439.855469 L 654.816406 418.796875 L 679.058594 425.160156 Z M 653.347656 455.28125 "/>
<path style="fill:none;stroke-width:1.991275;stroke-linecap:butt;stroke-linejoin:miter;stroke:rgb(0%,0%,0%);stroke-opacity:1;stroke-miterlimit:4;" d="M 653.347656 455.28125 C 653.347656 455.28125 637.667969 434.710938 637.917969 434.710938 C 638.160156 434.710938 664.605469 439.855469 664.605469 439.855469 L 654.816406 418.796875 L 679.058594 425.160156 "/>
<path style=" stroke:none;fill-rule:evenodd;fill:rgb(99.998474%,83.920288%,0%);fill-opacity:1;" d="M 698.398438 458.46875 C 698.398438 458.46875 713.828125 461.894531 713.335938 487.605469 Z M 698.398438 458.46875 "/>
<path style="fill:none;stroke-width:1.991275;stroke-linecap:butt;stroke-linejoin:miter;stroke:rgb(0%,0%,0%);stroke-opacity:1;stroke-miterlimit:4;" d="M 698.398438 458.46875 C 698.398438 458.46875 713.828125 461.894531 713.335938 487.605469 "/>
<path style=" stroke:none;fill-rule:evenodd;fill:rgb(99.998474%,83.920288%,0%);fill-opacity:1;" d="M 706.480469 454.546875 C 706.480469 454.546875 723.132812 453.570312 722.152344 479.527344 Z M 706.480469 454.546875 "/>
<path style="fill:none;stroke-width:1.991275;stroke-linecap:butt;stroke-linejoin:miter;stroke:rgb(0%,0%,0%);stroke-opacity:1;stroke-miterlimit:4;" d="M 706.480469 454.546875 C 706.480469 454.546875 723.132812 453.570312 722.152344 479.527344 "/>
<path style="fill-rule:evenodd;fill:rgb(99.998474%,83.920288%,0%);fill-opacity:1;stroke-width:1.991275;stroke-linecap:butt;stroke-linejoin:miter;stroke:rgb(0%,0%,0%);stroke-opacity:1;stroke-miterlimit:4;" d="M 419.296875 361 C 419.296875 361 407.054688 372.761719 406.8125 375.203125 C 406.5625 377.65625 401.597656 387.644531 398.417969 389.355469 C 395.234375 391.070312 384.265625 402.128906 382.550781 406.046875 C 380.839844 409.960938 370.328125 427.125 370.328125 427.125 C 370.328125 427.125 358.265625 444.625 351.410156 446.34375 C 343.027344 447.042969 326.984375 448.667969 323.066406 457.976562 C 319.144531 467.285156 325.207031 481.511719 329.777344 481.511719 C 336.632812 484.558594 339.757812 487.707031 341.964844 485.261719 C 345.691406 486.363281 343.558594 489.554688 350.417969 485.394531 C 345.203125 478.714844 345.761719 472.257812 350.988281 470.566406 C 356.195312 468.785156 364.683594 476.714844 364.683594 476.714844 C 364.683594 476.714844 367.777344 462.296875 389.570312 454.949219 C 423.605469 460.828125 432.753906 433.359375 435.132812 426.804688 C 440.5 419.503906 448.84375 417.558594 455.707031 412.929688 Z M 419.296875 361 "/>
<path style="fill:none;stroke-width:1.991275;stroke-linecap:butt;stroke-linejoin:miter;stroke:rgb(0%,0%,0%);stroke-opacity:1;stroke-miterlimit:4;" d="M 439.488281 408.472656 L 423.710938 416.761719 L 424.9375 405.574219 "/>
<path style="fill:none;stroke-width:1.991275;stroke-linecap:butt;stroke-linejoin:miter;stroke:rgb(0%,0%,0%);stroke-opacity:1;stroke-miterlimit:4;" d="M 418.53125 406.21875 L 403.679688 413.074219 L 410.503906 401.511719 "/>
<path style="fill:none;stroke-width:1.991275;stroke-linecap:butt;stroke-linejoin:miter;stroke:rgb(0%,0%,0%);stroke-opacity:1;stroke-miterlimit:4;" d="M 418.972656 388.148438 L 406.152344 393.707031 L 410.734375 384.269531 "/>
<path style="fill:none;stroke-width:1.991275;stroke-linecap:butt;stroke-linejoin:miter;stroke:rgb(0%,0%,0%);stroke-opacity:1;stroke-miterlimit:4;" d="M 396.878906 455.191406 C 399.261719 450.425781 411.363281 435.515625 411.113281 435.515625 C 410.871094 435.515625 386.207031 440.660156 386.207031 440.660156 L 394.214844 419.898438 L 372.65625 424.175781 "/>
<path style="fill:none;stroke-width:1.991275;stroke-linecap:butt;stroke-linejoin:miter;stroke:rgb(0%,0%,0%);stroke-opacity:1;stroke-miterlimit:4;" d="M 352.246094 458.351562 C 352.246094 458.351562 333.511719 461.777344 340.859375 484.953125 "/>
<path style="fill:none;stroke-width:1.991275;stroke-linecap:butt;stroke-linejoin:miter;stroke:rgb(0%,0%,0%);stroke-opacity:1;stroke-miterlimit:4;" d="M 344.164062 455.199219 C 344.164062 455.199219 323.703125 455.742188 330.773438 481.191406 "/>
<path style="fill:none;stroke-width:2.489128;stroke-linecap:butt;stroke-linejoin:miter;stroke:rgb(0%,0%,0%);stroke-opacity:1;stroke-miterlimit:4;" d="M 569.566406 436.433594 C 569.566406 436.179688 576.421875 453.695312 561.695312 456.746094 C 599.523438 453.953125 610.1875 497.109375 610.1875 497.109375 "/>
<path style="fill:none;stroke-width:1.991275;stroke-linecap:butt;stroke-linejoin:miter;stroke:rgb(0%,0%,0%);stroke-opacity:1;stroke-miterlimit:4;" d="M 560.933594 442.785156 C 560.933594 442.785156 564.230469 455.480469 553.316406 461.824219 C 592.925781 470.453125 602.058594 511.589844 602.058594 511.589844 "/>
<path style="fill:none;stroke-width:1.991275;stroke-linecap:butt;stroke-linejoin:miter;stroke:rgb(0%,0%,0%);stroke-opacity:1;stroke-miterlimit:4;" d="M 552.550781 448.625 C 552.550781 449.128906 556.367188 465.128906 543.917969 467.664062 C 568.546875 461.0625 594.191406 523.523438 594.191406 523.523438 "/>
<path style="fill:none;stroke-width:1.991275;stroke-linecap:butt;stroke-linejoin:miter;stroke:rgb(0%,0%,0%);stroke-opacity:1;stroke-miterlimit:4;" d="M 540.621094 455.726562 C 540.621094 455.726562 546.964844 467.914062 535.285156 471.726562 C 557.375 474.007812 564.488281 546.628906 564.488281 546.628906 "/>
<path style="fill:none;stroke-width:1.991275;stroke-linecap:butt;stroke-linejoin:miter;stroke:rgb(0%,0%,0%);stroke-opacity:1;stroke-miterlimit:4;" d="M 533.007812 460.046875 C 533.007812 460.046875 536.558594 473.503906 525.132812 477.566406 C 548.238281 465.375 543.917969 559.320312 543.917969 559.320312 "/>
<path style="fill:none;stroke-width:1.991275;stroke-linecap:butt;stroke-linejoin:miter;stroke:rgb(0%,0%,0%);stroke-opacity:1;stroke-miterlimit:4;" d="M 517.773438 460.808594 C 517.773438 460.808594 512.953125 475.023438 523.613281 477.816406 C 502.535156 471.984375 506.601562 559.320312 506.601562 559.320312 "/>
<path style="fill:none;stroke-width:1.991275;stroke-linecap:butt;stroke-linejoin:miter;stroke:rgb(0%,0%,0%);stroke-opacity:1;stroke-miterlimit:4;" d="M 507.871094 455.222656 C 507.871094 455.222656 504.570312 468.167969 517.519531 474.773438 C 495.9375 461.0625 487.046875 547.644531 487.046875 547.644531 "/>
<path style="fill:none;stroke-width:1.991275;stroke-linecap:butt;stroke-linejoin:miter;stroke:rgb(0%,0%,0%);stroke-opacity:1;stroke-miterlimit:4;" d="M 542.144531 467.160156 C 542.144531 467.160156 581.492188 504.988281 581.246094 532.917969 "/>
<path style="fill:none;stroke-width:1.991275;stroke-linecap:butt;stroke-linejoin:miter;stroke:rgb(0%,0%,0%);stroke-opacity:1;stroke-miterlimit:4;" d="M 479.945312 436.6875 C 479.945312 436.945312 475.121094 457 489.085938 457.503906 "/>
<path style="fill:none;stroke-width:1.991275;stroke-linecap:butt;stroke-linejoin:miter;stroke:rgb(0%,0%,0%);stroke-opacity:1;stroke-miterlimit:4;" d="M 489.847656 444.046875 C 489.847656 444.558594 486.035156 461.0625 497.207031 461.824219 "/>
<path style="fill:none;stroke-width:1.991275;stroke-linecap:butt;stroke-linejoin:miter;stroke:rgb(0%,0%,0%);stroke-opacity:1;stroke-miterlimit:4;" d="M 498.726562 448.871094 C 498.726562 448.871094 491.878906 465.375 508.632812 467.664062 "/>
<path style="fill:none;stroke-width:1.991275;stroke-linecap:butt;stroke-linejoin:miter;stroke:rgb(0%,0%,0%);stroke-opacity:1;stroke-miterlimit:4;" d="M 507.359375 467.917969 C 507.109375 467.917969 474.609375 498.132812 469.53125 533.164062 "/>
<path style="fill:none;stroke-width:1.991275;stroke-linecap:butt;stroke-linejoin:miter;stroke:rgb(0%,0%,0%);stroke-opacity:1;stroke-miterlimit:4;" d="M 501.273438 464.871094 C 501.015625 464.871094 459.890625 490.511719 457.089844 523.269531 "/>
<path style="fill:none;stroke-width:1.991275;stroke-linecap:butt;stroke-linejoin:miter;stroke:rgb(0%,0%,0%);stroke-opacity:1;stroke-miterlimit:4;" d="M 492.128906 460.550781 C 492.128906 460.550781 446.433594 487.214844 448.457031 511.332031 "/>
<path style="fill:none;stroke-width:1.991275;stroke-linecap:butt;stroke-linejoin:miter;stroke:rgb(0%,0%,0%);stroke-opacity:1;stroke-miterlimit:4;" d="M 481.210938 454.714844 C 481.210938 454.714844 447.191406 461.0625 438.808594 497.621094 "/>
<path style="fill:none;stroke-width:1.991275;stroke-linecap:butt;stroke-linejoin:miter;stroke:rgb(0%,0%,0%);stroke-opacity:1;stroke-miterlimit:4;" d="M 409.460938 220.789062 C 409.460938 220.789062 442.363281 238.957031 465.929688 237.976562 C 489.5 236.992188 524.859375 221.765625 524.859375 221.765625 C 524.859375 221.765625 556.28125 239.441406 581.820312 236.992188 C 607.347656 234.535156 642.710938 220.789062 642.710938 220.789062 C 663.820312 326.199219 615.699219 420.8125 524.859375 463.371094 C 428.449219 419.339844 381.640625 313.429688 409.460938 220.789062 Z M 409.460938 220.789062 "/>
<path style=" stroke:none;fill-rule:evenodd;fill:rgb(99.998474%,99.998474%,99.998474%);fill-opacity:1;" d="M 409.460938 220.789062 C 409.460938 220.789062 442.363281 238.957031 465.929688 237.976562 C 489.5 236.992188 524.859375 221.765625 524.859375 221.765625 C 524.859375 221.765625 556.28125 239.449219 581.816406 236.992188 C 607.347656 234.539062 642.703125 220.789062 642.703125 220.789062 C 663.820312 326.199219 615.699219 420.8125 524.859375 463.371094 C 428.449219 419.339844 381.640625 313.429688 409.460938 220.789062 Z M 409.460938 220.789062 "/>
<path style="fill:none;stroke-width:1.991349;stroke-linecap:butt;stroke-linejoin:miter;stroke:rgb(0%,0%,0%);stroke-opacity:1;stroke-miterlimit:4;" d="M 409.460938 220.789062 C 409.460938 220.789062 442.363281 238.957031 465.929688 237.976562 C 489.5 236.992188 524.859375 221.765625 524.859375 221.765625 C 524.859375 221.765625 556.28125 239.449219 581.816406 236.992188 C 607.351562 234.539062 642.703125 220.789062 642.703125 220.789062 C 663.820312 326.199219 615.699219 420.8125 524.859375 463.371094 C 428.449219 419.339844 381.640625 313.429688 409.460938 220.789062 Z M 409.460938 220.789062 "/>
<path style=" stroke:none;fill-rule:evenodd;fill:rgb(74.508667%,3.921509%,18.431091%);fill-opacity:1;" d="M 421.585938 297.394531 L 421.585938 363.300781 L 440.277344 394.820312 L 440.277344 297.394531 Z M 421.585938 297.394531 "/>
<path style=" stroke:none;fill-rule:evenodd;fill:rgb(74.508667%,3.921509%,18.431091%);fill-opacity:1;" d="M 458.972656 297.394531 L 458.972656 416.730469 L 477.664062 434.132812 L 477.664062 297.394531 Z M 458.972656 297.394531 "/>
<path style=" stroke:none;fill-rule:evenodd;fill:rgb(74.508667%,3.921509%,18.431091%);fill-opacity:1;" d="M 496.355469 297.394531 L 496.355469 448.257812 L 515.046875 458.636719 L 515.046875 297.394531 Z M 496.355469 297.394531 "/>
<path style=" stroke:none;fill-rule:evenodd;fill:rgb(74.508667%,3.921509%,18.431091%);fill-opacity:1;" d="M 627.207031 297.394531 L 627.207031 363.320312 L 608.515625 395.109375 L 608.515625 297.394531 Z M 627.207031 297.394531 "/>
<path style=" stroke:none;fill-rule:evenodd;fill:rgb(74.508667%,3.921509%,18.431091%);fill-opacity:1;" d="M 589.824219 297.394531 L 589.824219 417.320312 L 571.132812 434.367188 L 571.132812 297.394531 Z M 589.824219 297.394531 "/>
<path style=" stroke:none;fill-rule:evenodd;fill:rgb(74.508667%,3.921509%,18.431091%);fill-opacity:1;" d="M 552.433594 297.394531 L 552.433594 447.96875 L 533.738281 459.105469 L 533.738281 297.394531 Z M 552.433594 297.394531 "/>
<path style=" stroke:none;fill-rule:evenodd;fill:rgb(0%,15.293884%,40.783691%);fill-opacity:1;" d="M 409.460938 220.789062 C 409.460938 220.789062 417.6875 225.332031 428.855469 229.75 C 440.03125 234.167969 454.148438 238.464844 465.929688 237.976562 C 489.5 236.992188 524.851562 221.765625 524.851562 221.765625 C 524.851562 221.765625 556.28125 239.441406 581.816406 236.992188 C 607.347656 234.535156 642.703125 220.785156 642.703125 220.785156 C 647.859375 251.398438 650.4375 267.027344 645.894531 297.394531 L 402.894531 297.394531 C 399.808594 267.085938 399.972656 253.355469 409.460938 220.789062 Z M 409.460938 220.789062 "/>
<path style="fill:none;stroke-width:1.991349;stroke-linecap:butt;stroke-linejoin:miter;stroke:rgb(0%,0%,0%);stroke-opacity:1;stroke-miterlimit:4;" d="M 409.460938 220.789062 C 409.460938 220.789062 417.6875 225.332031 428.855469 229.75 C 440.03125 234.167969 454.148438 238.464844 465.929688 237.976562 C 489.5 236.992188 524.851562 221.765625 524.851562 221.765625 C 524.851562 221.765625 556.28125 239.441406 581.816406 236.992188 C 607.351562 234.535156 642.703125 220.785156 642.703125 220.785156 C 647.859375 251.398438 650.4375 267.027344 645.894531 297.394531 L 402.894531 297.394531 C 399.808594 267.085938 399.972656 253.355469 409.460938 220.789062 Z M 409.460938 220.789062 "/>
<path style="fill:none;stroke-width:1.991275;stroke-linecap:butt;stroke-linejoin:miter;stroke:rgb(0%,0%,0%);stroke-opacity:1;stroke-miterlimit:4;" d="M 409.460938 220.789062 C 409.460938 220.789062 442.363281 238.957031 465.929688 237.976562 C 489.5 236.992188 524.859375 221.765625 524.859375 221.765625 C 524.859375 221.765625 556.28125 239.441406 581.820312 236.992188 C 607.347656 234.535156 642.710938 220.789062 642.710938 220.789062 C 663.820312 326.199219 615.699219 420.8125 524.859375 463.371094 C 428.449219 419.339844 381.640625 313.429688 409.460938 220.789062 Z M 409.460938 220.789062 "/>
</g>
</svg>
