<?xml version="1.0" encoding="UTF-8"?>
<svg xmlns="http://www.w3.org/2000/svg" xmlns:xlink="http://www.w3.org/1999/xlink" viewBox="0 0 1000 526" version="1.1">
<g id="surface1245">
<rect x="0" y="0" width="1000" height="526" style="fill:rgb(99.998474%,99.998474%,99.998474%);fill-opacity:1;stroke:none;"/>
<path style=" stroke:none;fill-rule:evenodd;fill:rgb(69.802856%,13.33313%,20.391846%);fill-opacity:1;" d="M 0 0 L 1000 0 L 1000 40.484375 L 0 40.484375 Z M 0 0 "/>
<path style=" stroke:none;fill-rule:evenodd;fill:rgb(69.802856%,13.33313%,20.391846%);fill-opacity:1;" d="M 0 80.972656 L 1000 80.972656 L 1000 121.457031 L 0 121.457031 Z M 0 80.972656 "/>
<path style=" stroke:none;fill-rule:evenodd;fill:rgb(69.802856%,13.33313%,20.391846%);fill-opacity:1;" d="M 0 161.941406 L 1000 161.941406 L 1000 202.429688 L 0 202.429688 Z M 0 161.941406 "/>
<path style=" stroke:none;fill-rule:evenodd;fill:rgb(69.802856%,13.33313%,20.391846%);fill-opacity:1;" d="M 0 242.914062 L 1000 242.914062 L 1000 283.402344 L 0 283.402344 Z M 0 242.914062 "/>
<path style=" stroke:none;fill-rule:evenodd;fill:rgb(69.802856%,13.33313%,20.391846%);fill-opacity:1;" d="M 0 323.886719 L 1000 323.886719 L 1000 364.371094 L 0 364.371094 Z M 0 323.886719 "/>
<path style=" stroke:none;fill-rule:evenodd;fill:rgb(69.802856%,13.33313%,20.391846%);fill-opacity:1;" d="M 0 404.859375 L 1000 404.859375 L 1000 445.34375 L 0 445.34375 Z M 0 404.859375 "/>
<path style=" stroke:none;fill-rule:evenodd;fill:rgb(69.802856%,13.33313%,20.391846%);fill-opacity:1;" d="M 0 485.828125 L 1000 485.828125 L 1000 526.316406 L 0 526.316406 Z M 0 485.828125 "/>
<path style=" stroke:none;fill-rule:evenodd;fill:rgb(23.529053%,23.136902%,43.136597%);fill-opacity:1;" d="M 0 0 L 400 0 L 400 283.402344 L 0 283.402344 Z M 0 0 "/>
<path style=" stroke:none;fill-rule:evenodd;fill:rgb(99.998474%,99.998474%,99.998474%);fill-opacity:1;" d="M 38.472656 31.113281 L 24.683594 41.128906 L 29.949219 24.921875 Z M 38.472656 31.113281 "/>
<path style=" stroke:none;fill-rule:evenodd;fill:rgb(99.998474%,99.998474%,99.998474%);fill-opacity:1;" d="M 32.582031 33.023438 L 18.792969 23.007812 L 35.835938 23.007812 Z M 32.582031 33.023438 "/>
<path style=" stroke:none;fill-rule:evenodd;fill:rgb(99.998474%,99.998474%,99.998474%);fill-opacity:1;" d="M 28.945312 28.015625 L 34.210938 11.804688 L 39.476562 28.015625 Z M 28.945312 28.015625 "/>
<path style=" stroke:none;fill-rule:evenodd;fill:rgb(99.998474%,99.998474%,99.998474%);fill-opacity:1;" d="M 32.582031 23.007812 L 49.625 23.007812 L 35.835938 33.023438 Z M 32.582031 23.007812 "/>
<path style=" stroke:none;fill-rule:evenodd;fill:rgb(99.998474%,99.998474%,99.998474%);fill-opacity:1;" d="M 38.472656 24.921875 L 43.738281 41.128906 L 29.949219 31.113281 Z M 38.472656 24.921875 "/>
<path style=" stroke:none;fill-rule:evenodd;fill:rgb(99.998474%,99.998474%,99.998474%);fill-opacity:1;" d="M 104.789062 31.113281 L 90.996094 41.128906 L 96.265625 24.921875 Z M 104.789062 31.113281 "/>
<path style=" stroke:none;fill-rule:evenodd;fill:rgb(99.998474%,99.998474%,99.998474%);fill-opacity:1;" d="M 98.898438 33.023438 L 85.105469 23.007812 L 102.15625 23.007812 Z M 98.898438 33.023438 "/>
<path style=" stroke:none;fill-rule:evenodd;fill:rgb(99.998474%,99.998474%,99.998474%);fill-opacity:1;" d="M 95.261719 28.015625 L 100.527344 11.804688 L 105.792969 28.015625 Z M 95.261719 28.015625 "/>
<path style=" stroke:none;fill-rule:evenodd;fill:rgb(99.998474%,99.998474%,99.998474%);fill-opacity:1;" d="M 98.898438 23.007812 L 115.941406 23.007812 L 102.15625 33.023438 Z M 98.898438 23.007812 "/>
<path style=" stroke:none;fill-rule:evenodd;fill:rgb(99.998474%,99.998474%,99.998474%);fill-opacity:1;" d="M 104.789062 24.921875 L 110.054688 41.128906 L 96.265625 31.113281 Z M 104.789062 24.921875 "/>
<path style=" stroke:none;fill-rule:evenodd;fill:rgb(99.998474%,99.998474%,99.998474%);fill-opacity:1;" d="M 171.105469 31.113281 L 157.3125 41.128906 L 162.578125 24.921875 Z M 171.105469 31.113281 "/>
<path style=" stroke:none;fill-rule:evenodd;fill:rgb(99.998474%,99.998474%,99.998474%);fill-opacity:1;" d="M 165.210938 33.023438 L 151.425781 23.007812 L 168.46875 23.007812 Z M 165.210938 33.023438 "/>
<path style=" stroke:none;fill-rule:evenodd;fill:rgb(99.998474%,99.998474%,99.998474%);fill-opacity:1;" d="M 161.574219 28.015625 L 166.84375 11.804688 L 172.109375 28.015625 Z M 161.574219 28.015625 "/>
<path style=" stroke:none;fill-rule:evenodd;fill:rgb(99.998474%,99.998474%,99.998474%);fill-opacity:1;" d="M 165.210938 23.007812 L 182.257812 23.007812 L 168.46875 33.023438 Z M 165.210938 23.007812 "/>
<path style=" stroke:none;fill-rule:evenodd;fill:rgb(99.998474%,99.998474%,99.998474%);fill-opacity:1;" d="M 171.105469 24.921875 L 176.371094 41.128906 L 162.578125 31.113281 Z M 171.105469 24.921875 "/>
<path style=" stroke:none;fill-rule:evenodd;fill:rgb(99.998474%,99.998474%,99.998474%);fill-opacity:1;" d="M 237.417969 31.113281 L 223.628906 41.128906 L 228.894531 24.921875 Z M 237.417969 31.113281 "/>
<path style=" stroke:none;fill-rule:evenodd;fill:rgb(99.998474%,99.998474%,99.998474%);fill-opacity:1;" d="M 231.527344 33.023438 L 217.742188 23.007812 L 234.785156 23.007812 Z M 231.527344 33.023438 "/>
<path style=" stroke:none;fill-rule:evenodd;fill:rgb(99.998474%,99.998474%,99.998474%);fill-opacity:1;" d="M 227.890625 28.015625 L 233.15625 11.804688 L 238.421875 28.015625 Z M 227.890625 28.015625 "/>
<path style=" stroke:none;fill-rule:evenodd;fill:rgb(99.998474%,99.998474%,99.998474%);fill-opacity:1;" d="M 231.527344 23.007812 L 248.578125 23.007812 L 234.785156 33.023438 Z M 231.527344 23.007812 "/>
<path style=" stroke:none;fill-rule:evenodd;fill:rgb(99.998474%,99.998474%,99.998474%);fill-opacity:1;" d="M 237.417969 24.921875 L 242.683594 41.128906 L 228.894531 31.113281 Z M 237.417969 24.921875 "/>
<path style=" stroke:none;fill-rule:evenodd;fill:rgb(99.998474%,99.998474%,99.998474%);fill-opacity:1;" d="M 303.734375 31.113281 L 289.945312 41.128906 L 295.214844 24.921875 Z M 303.734375 31.113281 "/>
<path style=" stroke:none;fill-rule:evenodd;fill:rgb(99.998474%,99.998474%,99.998474%);fill-opacity:1;" d="M 297.847656 33.023438 L 284.058594 23.007812 L 301.101562 23.007812 Z M 297.847656 33.023438 "/>
<path style=" stroke:none;fill-rule:evenodd;fill:rgb(99.998474%,99.998474%,99.998474%);fill-opacity:1;" d="M 294.207031 28.015625 L 299.472656 11.804688 L 304.738281 28.015625 Z M 294.207031 28.015625 "/>
<path style=" stroke:none;fill-rule:evenodd;fill:rgb(99.998474%,99.998474%,99.998474%);fill-opacity:1;" d="M 297.847656 23.007812 L 314.890625 23.007812 L 301.101562 33.023438 Z M 297.847656 23.007812 "/>
<path style=" stroke:none;fill-rule:evenodd;fill:rgb(99.998474%,99.998474%,99.998474%);fill-opacity:1;" d="M 303.734375 24.921875 L 309 41.128906 L 295.214844 31.113281 Z M 303.734375 24.921875 "/>
<path style=" stroke:none;fill-rule:evenodd;fill:rgb(99.998474%,99.998474%,99.998474%);fill-opacity:1;" d="M 370.050781 31.113281 L 356.257812 41.128906 L 361.53125 24.921875 Z M 370.050781 31.113281 "/>
<path style=" stroke:none;fill-rule:evenodd;fill:rgb(99.998474%,99.998474%,99.998474%);fill-opacity:1;" d="M 364.164062 33.023438 L 350.371094 23.007812 L 367.417969 23.007812 Z M 364.164062 33.023438 "/>
<path style=" stroke:none;fill-rule:evenodd;fill:rgb(99.998474%,99.998474%,99.998474%);fill-opacity:1;" d="M 360.519531 28.015625 L 365.789062 11.804688 L 371.058594 28.015625 Z M 360.519531 28.015625 "/>
<path style=" stroke:none;fill-rule:evenodd;fill:rgb(99.998474%,99.998474%,99.998474%);fill-opacity:1;" d="M 364.164062 23.007812 L 381.207031 23.007812 L 367.417969 33.023438 Z M 364.164062 23.007812 "/>
<path style=" stroke:none;fill-rule:evenodd;fill:rgb(99.998474%,99.998474%,99.998474%);fill-opacity:1;" d="M 370.050781 24.921875 L 375.316406 41.128906 L 361.53125 31.113281 Z M 370.050781 24.921875 "/>
<path style=" stroke:none;fill-rule:evenodd;fill:rgb(99.998474%,99.998474%,99.998474%);fill-opacity:1;" d="M 71.628906 59.535156 L 57.839844 69.554688 L 63.109375 53.34375 Z M 71.628906 59.535156 "/>
<path style=" stroke:none;fill-rule:evenodd;fill:rgb(99.998474%,99.998474%,99.998474%);fill-opacity:1;" d="M 65.742188 61.449219 L 51.953125 51.429688 L 68.996094 51.429688 Z M 65.742188 61.449219 "/>
<path style=" stroke:none;fill-rule:evenodd;fill:rgb(99.998474%,99.998474%,99.998474%);fill-opacity:1;" d="M 62.101562 56.4375 L 67.367188 40.226562 L 72.636719 56.4375 Z M 62.101562 56.4375 "/>
<path style=" stroke:none;fill-rule:evenodd;fill:rgb(99.998474%,99.998474%,99.998474%);fill-opacity:1;" d="M 65.742188 51.429688 L 82.785156 51.429688 L 68.996094 61.449219 Z M 65.742188 51.429688 "/>
<path style=" stroke:none;fill-rule:evenodd;fill:rgb(99.998474%,99.998474%,99.998474%);fill-opacity:1;" d="M 71.628906 53.34375 L 76.894531 69.554688 L 63.109375 59.535156 Z M 71.628906 53.34375 "/>
<path style=" stroke:none;fill-rule:evenodd;fill:rgb(99.998474%,99.998474%,99.998474%);fill-opacity:1;" d="M 137.945312 59.535156 L 124.15625 69.554688 L 129.425781 53.34375 Z M 137.945312 59.535156 "/>
<path style=" stroke:none;fill-rule:evenodd;fill:rgb(99.998474%,99.998474%,99.998474%);fill-opacity:1;" d="M 132.058594 61.449219 L 118.265625 51.429688 L 135.3125 51.429688 Z M 132.058594 61.449219 "/>
<path style=" stroke:none;fill-rule:evenodd;fill:rgb(99.998474%,99.998474%,99.998474%);fill-opacity:1;" d="M 128.414062 56.4375 L 133.683594 40.226562 L 138.953125 56.4375 Z M 128.414062 56.4375 "/>
<path style=" stroke:none;fill-rule:evenodd;fill:rgb(99.998474%,99.998474%,99.998474%);fill-opacity:1;" d="M 132.058594 51.429688 L 149.101562 51.429688 L 135.3125 61.449219 Z M 132.058594 51.429688 "/>
<path style=" stroke:none;fill-rule:evenodd;fill:rgb(99.998474%,99.998474%,99.998474%);fill-opacity:1;" d="M 137.945312 53.34375 L 143.210938 69.554688 L 129.425781 59.535156 Z M 137.945312 53.34375 "/>
<path style=" stroke:none;fill-rule:evenodd;fill:rgb(99.998474%,99.998474%,99.998474%);fill-opacity:1;" d="M 204.261719 59.535156 L 190.472656 69.554688 L 195.738281 53.34375 Z M 204.261719 59.535156 "/>
<path style=" stroke:none;fill-rule:evenodd;fill:rgb(99.998474%,99.998474%,99.998474%);fill-opacity:1;" d="M 198.371094 61.449219 L 184.582031 51.429688 L 201.625 51.429688 Z M 198.371094 61.449219 "/>
<path style=" stroke:none;fill-rule:evenodd;fill:rgb(99.998474%,99.998474%,99.998474%);fill-opacity:1;" d="M 194.730469 56.4375 L 200.003906 40.226562 L 205.269531 56.4375 Z M 194.730469 56.4375 "/>
<path style=" stroke:none;fill-rule:evenodd;fill:rgb(99.998474%,99.998474%,99.998474%);fill-opacity:1;" d="M 198.371094 51.429688 L 215.417969 51.429688 L 201.625 61.449219 Z M 198.371094 51.429688 "/>
<path style=" stroke:none;fill-rule:evenodd;fill:rgb(99.998474%,99.998474%,99.998474%);fill-opacity:1;" d="M 204.261719 53.34375 L 209.53125 69.554688 L 195.738281 59.535156 Z M 204.261719 53.34375 "/>
<path style=" stroke:none;fill-rule:evenodd;fill:rgb(99.998474%,99.998474%,99.998474%);fill-opacity:1;" d="M 270.574219 59.535156 L 256.789062 69.554688 L 262.054688 53.34375 Z M 270.574219 59.535156 "/>
<path style=" stroke:none;fill-rule:evenodd;fill:rgb(99.998474%,99.998474%,99.998474%);fill-opacity:1;" d="M 264.6875 61.449219 L 250.898438 51.429688 L 267.941406 51.429688 Z M 264.6875 61.449219 "/>
<path style=" stroke:none;fill-rule:evenodd;fill:rgb(99.998474%,99.998474%,99.998474%);fill-opacity:1;" d="M 261.050781 56.4375 L 266.316406 40.226562 L 271.582031 56.4375 Z M 261.050781 56.4375 "/>
<path style=" stroke:none;fill-rule:evenodd;fill:rgb(99.998474%,99.998474%,99.998474%);fill-opacity:1;" d="M 264.6875 51.429688 L 281.734375 51.429688 L 267.941406 61.449219 Z M 264.6875 51.429688 "/>
<path style=" stroke:none;fill-rule:evenodd;fill:rgb(99.998474%,99.998474%,99.998474%);fill-opacity:1;" d="M 270.574219 53.34375 L 275.84375 69.554688 L 262.054688 59.535156 Z M 270.574219 53.34375 "/>
<path style=" stroke:none;fill-rule:evenodd;fill:rgb(99.998474%,99.998474%,99.998474%);fill-opacity:1;" d="M 336.894531 59.535156 L 323.105469 69.554688 L 328.371094 53.34375 Z M 336.894531 59.535156 "/>
<path style=" stroke:none;fill-rule:evenodd;fill:rgb(99.998474%,99.998474%,99.998474%);fill-opacity:1;" d="M 331.003906 61.449219 L 317.210938 51.429688 L 334.261719 51.429688 Z M 331.003906 61.449219 "/>
<path style=" stroke:none;fill-rule:evenodd;fill:rgb(99.998474%,99.998474%,99.998474%);fill-opacity:1;" d="M 327.367188 56.4375 L 332.632812 40.226562 L 337.898438 56.4375 Z M 327.367188 56.4375 "/>
<path style=" stroke:none;fill-rule:evenodd;fill:rgb(99.998474%,99.998474%,99.998474%);fill-opacity:1;" d="M 331.003906 51.429688 L 348.046875 51.429688 L 334.261719 61.449219 Z M 331.003906 51.429688 "/>
<path style=" stroke:none;fill-rule:evenodd;fill:rgb(99.998474%,99.998474%,99.998474%);fill-opacity:1;" d="M 336.894531 53.34375 L 342.160156 69.554688 L 328.371094 59.535156 Z M 336.894531 53.34375 "/>
<path style=" stroke:none;fill-rule:evenodd;fill:rgb(99.998474%,99.998474%,99.998474%);fill-opacity:1;" d="M 38.472656 87.953125 L 24.683594 97.972656 L 29.949219 81.761719 Z M 38.472656 87.953125 "/>
<path style=" stroke:none;fill-rule:evenodd;fill:rgb(99.998474%,99.998474%,99.998474%);fill-opacity:1;" d="M 32.582031 89.867188 L 18.792969 79.847656 L 35.835938 79.847656 Z M 32.582031 89.867188 "/>
<path style=" stroke:none;fill-rule:evenodd;fill:rgb(99.998474%,99.998474%,99.998474%);fill-opacity:1;" d="M 28.945312 84.859375 L 34.210938 68.648438 L 39.476562 84.859375 Z M 28.945312 84.859375 "/>
<path style=" stroke:none;fill-rule:evenodd;fill:rgb(99.998474%,99.998474%,99.998474%);fill-opacity:1;" d="M 32.582031 79.847656 L 49.625 79.847656 L 35.835938 89.867188 Z M 32.582031 79.847656 "/>
<path style=" stroke:none;fill-rule:evenodd;fill:rgb(99.998474%,99.998474%,99.998474%);fill-opacity:1;" d="M 38.472656 81.761719 L 43.738281 97.972656 L 29.949219 87.953125 Z M 38.472656 81.761719 "/>
<path style=" stroke:none;fill-rule:evenodd;fill:rgb(99.998474%,99.998474%,99.998474%);fill-opacity:1;" d="M 104.789062 87.953125 L 90.996094 97.972656 L 96.265625 81.761719 Z M 104.789062 87.953125 "/>
<path style=" stroke:none;fill-rule:evenodd;fill:rgb(99.998474%,99.998474%,99.998474%);fill-opacity:1;" d="M 98.898438 89.867188 L 85.105469 79.847656 L 102.15625 79.847656 Z M 98.898438 89.867188 "/>
<path style=" stroke:none;fill-rule:evenodd;fill:rgb(99.998474%,99.998474%,99.998474%);fill-opacity:1;" d="M 95.261719 84.859375 L 100.527344 68.648438 L 105.792969 84.859375 Z M 95.261719 84.859375 "/>
<path style=" stroke:none;fill-rule:evenodd;fill:rgb(99.998474%,99.998474%,99.998474%);fill-opacity:1;" d="M 98.898438 79.847656 L 115.941406 79.847656 L 102.15625 89.867188 Z M 98.898438 79.847656 "/>
<path style=" stroke:none;fill-rule:evenodd;fill:rgb(99.998474%,99.998474%,99.998474%);fill-opacity:1;" d="M 104.789062 81.761719 L 110.054688 97.972656 L 96.265625 87.953125 Z M 104.789062 81.761719 "/>
<path style=" stroke:none;fill-rule:evenodd;fill:rgb(99.998474%,99.998474%,99.998474%);fill-opacity:1;" d="M 171.105469 87.953125 L 157.3125 97.972656 L 162.578125 81.761719 Z M 171.105469 87.953125 "/>
<path style=" stroke:none;fill-rule:evenodd;fill:rgb(99.998474%,99.998474%,99.998474%);fill-opacity:1;" d="M 165.210938 89.867188 L 151.425781 79.847656 L 168.46875 79.847656 Z M 165.210938 89.867188 "/>
<path style=" stroke:none;fill-rule:evenodd;fill:rgb(99.998474%,99.998474%,99.998474%);fill-opacity:1;" d="M 161.574219 84.859375 L 166.84375 68.648438 L 172.109375 84.859375 Z M 161.574219 84.859375 "/>
<path style=" stroke:none;fill-rule:evenodd;fill:rgb(99.998474%,99.998474%,99.998474%);fill-opacity:1;" d="M 165.210938 79.847656 L 182.257812 79.847656 L 168.46875 89.867188 Z M 165.210938 79.847656 "/>
<path style=" stroke:none;fill-rule:evenodd;fill:rgb(99.998474%,99.998474%,99.998474%);fill-opacity:1;" d="M 171.105469 81.761719 L 176.371094 97.972656 L 162.578125 87.953125 Z M 171.105469 81.761719 "/>
<path style=" stroke:none;fill-rule:evenodd;fill:rgb(99.998474%,99.998474%,99.998474%);fill-opacity:1;" d="M 237.417969 87.953125 L 223.628906 97.972656 L 228.894531 81.761719 Z M 237.417969 87.953125 "/>
<path style=" stroke:none;fill-rule:evenodd;fill:rgb(99.998474%,99.998474%,99.998474%);fill-opacity:1;" d="M 231.527344 89.867188 L 217.742188 79.847656 L 234.785156 79.847656 Z M 231.527344 89.867188 "/>
<path style=" stroke:none;fill-rule:evenodd;fill:rgb(99.998474%,99.998474%,99.998474%);fill-opacity:1;" d="M 227.890625 84.859375 L 233.15625 68.648438 L 238.421875 84.859375 Z M 227.890625 84.859375 "/>
<path style=" stroke:none;fill-rule:evenodd;fill:rgb(99.998474%,99.998474%,99.998474%);fill-opacity:1;" d="M 231.527344 79.847656 L 248.578125 79.847656 L 234.785156 89.867188 Z M 231.527344 79.847656 "/>
<path style=" stroke:none;fill-rule:evenodd;fill:rgb(99.998474%,99.998474%,99.998474%);fill-opacity:1;" d="M 237.417969 81.761719 L 242.683594 97.972656 L 228.894531 87.953125 Z M 237.417969 81.761719 "/>
<path style=" stroke:none;fill-rule:evenodd;fill:rgb(99.998474%,99.998474%,99.998474%);fill-opacity:1;" d="M 303.734375 87.953125 L 289.945312 97.972656 L 295.214844 81.761719 Z M 303.734375 87.953125 "/>
<path style=" stroke:none;fill-rule:evenodd;fill:rgb(99.998474%,99.998474%,99.998474%);fill-opacity:1;" d="M 297.847656 89.867188 L 284.058594 79.847656 L 301.101562 79.847656 Z M 297.847656 89.867188 "/>
<path style=" stroke:none;fill-rule:evenodd;fill:rgb(99.998474%,99.998474%,99.998474%);fill-opacity:1;" d="M 294.207031 84.859375 L 299.472656 68.648438 L 304.738281 84.859375 Z M 294.207031 84.859375 "/>
<path style=" stroke:none;fill-rule:evenodd;fill:rgb(99.998474%,99.998474%,99.998474%);fill-opacity:1;" d="M 297.847656 79.847656 L 314.890625 79.847656 L 301.101562 89.867188 Z M 297.847656 79.847656 "/>
<path style=" stroke:none;fill-rule:evenodd;fill:rgb(99.998474%,99.998474%,99.998474%);fill-opacity:1;" d="M 303.734375 81.761719 L 309 97.972656 L 295.214844 87.953125 Z M 303.734375 81.761719 "/>
<path style=" stroke:none;fill-rule:evenodd;fill:rgb(99.998474%,99.998474%,99.998474%);fill-opacity:1;" d="M 370.050781 87.953125 L 356.257812 97.972656 L 361.53125 81.761719 Z M 370.050781 87.953125 "/>
<path style=" stroke:none;fill-rule:evenodd;fill:rgb(99.998474%,99.998474%,99.998474%);fill-opacity:1;" d="M 364.164062 89.867188 L 350.371094 79.847656 L 367.417969 79.847656 Z M 364.164062 89.867188 "/>
<path style=" stroke:none;fill-rule:evenodd;fill:rgb(99.998474%,99.998474%,99.998474%);fill-opacity:1;" d="M 360.519531 84.859375 L 365.789062 68.648438 L 371.058594 84.859375 Z M 360.519531 84.859375 "/>
<path style=" stroke:none;fill-rule:evenodd;fill:rgb(99.998474%,99.998474%,99.998474%);fill-opacity:1;" d="M 364.164062 79.847656 L 381.207031 79.847656 L 367.417969 89.867188 Z M 364.164062 79.847656 "/>
<path style=" stroke:none;fill-rule:evenodd;fill:rgb(99.998474%,99.998474%,99.998474%);fill-opacity:1;" d="M 370.050781 81.761719 L 375.316406 97.972656 L 361.53125 87.953125 Z M 370.050781 81.761719 "/>
<path style=" stroke:none;fill-rule:evenodd;fill:rgb(99.998474%,99.998474%,99.998474%);fill-opacity:1;" d="M 71.628906 116.375 L 57.839844 126.394531 L 63.109375 110.179688 Z M 71.628906 116.375 "/>
<path style=" stroke:none;fill-rule:evenodd;fill:rgb(99.998474%,99.998474%,99.998474%);fill-opacity:1;" d="M 65.742188 118.289062 L 51.953125 108.273438 L 68.996094 108.273438 Z M 65.742188 118.289062 "/>
<path style=" stroke:none;fill-rule:evenodd;fill:rgb(99.998474%,99.998474%,99.998474%);fill-opacity:1;" d="M 62.101562 113.28125 L 67.367188 97.066406 L 72.636719 113.28125 Z M 62.101562 113.28125 "/>
<path style=" stroke:none;fill-rule:evenodd;fill:rgb(99.998474%,99.998474%,99.998474%);fill-opacity:1;" d="M 65.742188 108.273438 L 82.785156 108.273438 L 68.996094 118.289062 Z M 65.742188 108.273438 "/>
<path style=" stroke:none;fill-rule:evenodd;fill:rgb(99.998474%,99.998474%,99.998474%);fill-opacity:1;" d="M 71.628906 110.179688 L 76.894531 126.394531 L 63.109375 116.375 Z M 71.628906 110.179688 "/>
<path style=" stroke:none;fill-rule:evenodd;fill:rgb(99.998474%,99.998474%,99.998474%);fill-opacity:1;" d="M 137.945312 116.375 L 124.15625 126.394531 L 129.425781 110.179688 Z M 137.945312 116.375 "/>
<path style=" stroke:none;fill-rule:evenodd;fill:rgb(99.998474%,99.998474%,99.998474%);fill-opacity:1;" d="M 132.058594 118.289062 L 118.265625 108.273438 L 135.3125 108.273438 Z M 132.058594 118.289062 "/>
<path style=" stroke:none;fill-rule:evenodd;fill:rgb(99.998474%,99.998474%,99.998474%);fill-opacity:1;" d="M 128.414062 113.28125 L 133.683594 97.066406 L 138.953125 113.28125 Z M 128.414062 113.28125 "/>
<path style=" stroke:none;fill-rule:evenodd;fill:rgb(99.998474%,99.998474%,99.998474%);fill-opacity:1;" d="M 132.058594 108.273438 L 149.101562 108.273438 L 135.3125 118.289062 Z M 132.058594 108.273438 "/>
<path style=" stroke:none;fill-rule:evenodd;fill:rgb(99.998474%,99.998474%,99.998474%);fill-opacity:1;" d="M 137.945312 110.179688 L 143.210938 126.394531 L 129.425781 116.375 Z M 137.945312 110.179688 "/>
<path style=" stroke:none;fill-rule:evenodd;fill:rgb(99.998474%,99.998474%,99.998474%);fill-opacity:1;" d="M 204.261719 116.375 L 190.472656 126.394531 L 195.738281 110.179688 Z M 204.261719 116.375 "/>
<path style=" stroke:none;fill-rule:evenodd;fill:rgb(99.998474%,99.998474%,99.998474%);fill-opacity:1;" d="M 198.371094 118.289062 L 184.582031 108.273438 L 201.625 108.273438 Z M 198.371094 118.289062 "/>
<path style=" stroke:none;fill-rule:evenodd;fill:rgb(99.998474%,99.998474%,99.998474%);fill-opacity:1;" d="M 194.730469 113.28125 L 200.003906 97.066406 L 205.269531 113.28125 Z M 194.730469 113.28125 "/>
<path style=" stroke:none;fill-rule:evenodd;fill:rgb(99.998474%,99.998474%,99.998474%);fill-opacity:1;" d="M 198.371094 108.273438 L 215.417969 108.273438 L 201.625 118.289062 Z M 198.371094 108.273438 "/>
<path style=" stroke:none;fill-rule:evenodd;fill:rgb(99.998474%,99.998474%,99.998474%);fill-opacity:1;" d="M 204.261719 110.179688 L 209.53125 126.394531 L 195.738281 116.375 Z M 204.261719 110.179688 "/>
<path style=" stroke:none;fill-rule:evenodd;fill:rgb(99.998474%,99.998474%,99.998474%);fill-opacity:1;" d="M 270.574219 116.375 L 256.789062 126.394531 L 262.054688 110.179688 Z M 270.574219 116.375 "/>
<path style=" stroke:none;fill-rule:evenodd;fill:rgb(99.998474%,99.998474%,99.998474%);fill-opacity:1;" d="M 264.6875 118.289062 L 250.898438 108.273438 L 267.941406 108.273438 Z M 264.6875 118.289062 "/>
<path style=" stroke:none;fill-rule:evenodd;fill:rgb(99.998474%,99.998474%,99.998474%);fill-opacity:1;" d="M 261.050781 113.28125 L 266.316406 97.066406 L 271.582031 113.28125 Z M 261.050781 113.28125 "/>
<path style=" stroke:none;fill-rule:evenodd;fill:rgb(99.998474%,99.998474%,99.998474%);fill-opacity:1;" d="M 264.6875 108.273438 L 281.734375 108.273438 L 267.941406 118.289062 Z M 264.6875 108.273438 "/>
<path style=" stroke:none;fill-rule:evenodd;fill:rgb(99.998474%,99.998474%,99.998474%);fill-opacity:1;" d="M 270.574219 110.179688 L 275.84375 126.394531 L 262.054688 116.375 Z M 270.574219 110.179688 "/>
<path style=" stroke:none;fill-rule:evenodd;fill:rgb(99.998474%,99.998474%,99.998474%);fill-opacity:1;" d="M 336.894531 116.375 L 323.105469 126.394531 L 328.371094 110.179688 Z M 336.894531 116.375 "/>
<path style=" stroke:none;fill-rule:evenodd;fill:rgb(99.998474%,99.998474%,99.998474%);fill-opacity:1;" d="M 331.003906 118.289062 L 317.210938 108.273438 L 334.261719 108.273438 Z M 331.003906 118.289062 "/>
<path style=" stroke:none;fill-rule:evenodd;fill:rgb(99.998474%,99.998474%,99.998474%);fill-opacity:1;" d="M 327.367188 113.28125 L 332.632812 97.066406 L 337.898438 113.28125 Z M 327.367188 113.28125 "/>
<path style=" stroke:none;fill-rule:evenodd;fill:rgb(99.998474%,99.998474%,99.998474%);fill-opacity:1;" d="M 331.003906 108.273438 L 348.046875 108.273438 L 334.261719 118.289062 Z M 331.003906 108.273438 "/>
<path style=" stroke:none;fill-rule:evenodd;fill:rgb(99.998474%,99.998474%,99.998474%);fill-opacity:1;" d="M 336.894531 110.179688 L 342.160156 126.394531 L 328.371094 116.375 Z M 336.894531 110.179688 "/>
<path style=" stroke:none;fill-rule:evenodd;fill:rgb(99.998474%,99.998474%,99.998474%);fill-opacity:1;" d="M 38.472656 144.796875 L 24.683594 154.816406 L 29.949219 138.605469 Z M 38.472656 144.796875 "/>
<path style=" stroke:none;fill-rule:evenodd;fill:rgb(99.998474%,99.998474%,99.998474%);fill-opacity:1;" d="M 32.582031 146.710938 L 18.792969 136.691406 L 35.835938 136.691406 Z M 32.582031 146.710938 "/>
<path style=" stroke:none;fill-rule:evenodd;fill:rgb(99.998474%,99.998474%,99.998474%);fill-opacity:1;" d="M 28.945312 141.699219 L 34.210938 125.488281 L 39.476562 141.699219 Z M 28.945312 141.699219 "/>
<path style=" stroke:none;fill-rule:evenodd;fill:rgb(99.998474%,99.998474%,99.998474%);fill-opacity:1;" d="M 32.582031 136.691406 L 49.625 136.691406 L 35.835938 146.710938 Z M 32.582031 136.691406 "/>
<path style=" stroke:none;fill-rule:evenodd;fill:rgb(99.998474%,99.998474%,99.998474%);fill-opacity:1;" d="M 38.472656 138.605469 L 43.738281 154.816406 L 29.949219 144.796875 Z M 38.472656 138.605469 "/>
<path style=" stroke:none;fill-rule:evenodd;fill:rgb(99.998474%,99.998474%,99.998474%);fill-opacity:1;" d="M 104.789062 144.796875 L 90.996094 154.816406 L 96.265625 138.605469 Z M 104.789062 144.796875 "/>
<path style=" stroke:none;fill-rule:evenodd;fill:rgb(99.998474%,99.998474%,99.998474%);fill-opacity:1;" d="M 98.898438 146.710938 L 85.105469 136.691406 L 102.15625 136.691406 Z M 98.898438 146.710938 "/>
<path style=" stroke:none;fill-rule:evenodd;fill:rgb(99.998474%,99.998474%,99.998474%);fill-opacity:1;" d="M 95.261719 141.699219 L 100.527344 125.488281 L 105.792969 141.699219 Z M 95.261719 141.699219 "/>
<path style=" stroke:none;fill-rule:evenodd;fill:rgb(99.998474%,99.998474%,99.998474%);fill-opacity:1;" d="M 98.898438 136.691406 L 115.941406 136.691406 L 102.15625 146.710938 Z M 98.898438 136.691406 "/>
<path style=" stroke:none;fill-rule:evenodd;fill:rgb(99.998474%,99.998474%,99.998474%);fill-opacity:1;" d="M 104.789062 138.605469 L 110.054688 154.816406 L 96.265625 144.796875 Z M 104.789062 138.605469 "/>
<path style=" stroke:none;fill-rule:evenodd;fill:rgb(99.998474%,99.998474%,99.998474%);fill-opacity:1;" d="M 171.105469 144.796875 L 157.3125 154.816406 L 162.578125 138.605469 Z M 171.105469 144.796875 "/>
<path style=" stroke:none;fill-rule:evenodd;fill:rgb(99.998474%,99.998474%,99.998474%);fill-opacity:1;" d="M 165.210938 146.710938 L 151.425781 136.691406 L 168.46875 136.691406 Z M 165.210938 146.710938 "/>
<path style=" stroke:none;fill-rule:evenodd;fill:rgb(99.998474%,99.998474%,99.998474%);fill-opacity:1;" d="M 161.574219 141.699219 L 166.84375 125.488281 L 172.109375 141.699219 Z M 161.574219 141.699219 "/>
<path style=" stroke:none;fill-rule:evenodd;fill:rgb(99.998474%,99.998474%,99.998474%);fill-opacity:1;" d="M 165.210938 136.691406 L 182.257812 136.691406 L 168.46875 146.710938 Z M 165.210938 136.691406 "/>
<path style=" stroke:none;fill-rule:evenodd;fill:rgb(99.998474%,99.998474%,99.998474%);fill-opacity:1;" d="M 171.105469 138.605469 L 176.371094 154.816406 L 162.578125 144.796875 Z M 171.105469 138.605469 "/>
<path style=" stroke:none;fill-rule:evenodd;fill:rgb(99.998474%,99.998474%,99.998474%);fill-opacity:1;" d="M 237.417969 144.796875 L 223.628906 154.816406 L 228.894531 138.605469 Z M 237.417969 144.796875 "/>
<path style=" stroke:none;fill-rule:evenodd;fill:rgb(99.998474%,99.998474%,99.998474%);fill-opacity:1;" d="M 231.527344 146.710938 L 217.742188 136.691406 L 234.785156 136.691406 Z M 231.527344 146.710938 "/>
<path style=" stroke:none;fill-rule:evenodd;fill:rgb(99.998474%,99.998474%,99.998474%);fill-opacity:1;" d="M 227.890625 141.699219 L 233.15625 125.488281 L 238.421875 141.699219 Z M 227.890625 141.699219 "/>
<path style=" stroke:none;fill-rule:evenodd;fill:rgb(99.998474%,99.998474%,99.998474%);fill-opacity:1;" d="M 231.527344 136.691406 L 248.578125 136.691406 L 234.785156 146.710938 Z M 231.527344 136.691406 "/>
<path style=" stroke:none;fill-rule:evenodd;fill:rgb(99.998474%,99.998474%,99.998474%);fill-opacity:1;" d="M 237.417969 138.605469 L 242.683594 154.816406 L 228.894531 144.796875 Z M 237.417969 138.605469 "/>
<path style=" stroke:none;fill-rule:evenodd;fill:rgb(99.998474%,99.998474%,99.998474%);fill-opacity:1;" d="M 303.734375 144.796875 L 289.945312 154.816406 L 295.214844 138.605469 Z M 303.734375 144.796875 "/>
<path style=" stroke:none;fill-rule:evenodd;fill:rgb(99.998474%,99.998474%,99.998474%);fill-opacity:1;" d="M 297.847656 146.710938 L 284.058594 136.691406 L 301.101562 136.691406 Z M 297.847656 146.710938 "/>
<path style=" stroke:none;fill-rule:evenodd;fill:rgb(99.998474%,99.998474%,99.998474%);fill-opacity:1;" d="M 294.207031 141.699219 L 299.472656 125.488281 L 304.738281 141.699219 Z M 294.207031 141.699219 "/>
<path style=" stroke:none;fill-rule:evenodd;fill:rgb(99.998474%,99.998474%,99.998474%);fill-opacity:1;" d="M 297.847656 136.691406 L 314.890625 136.691406 L 301.101562 146.710938 Z M 297.847656 136.691406 "/>
<path style=" stroke:none;fill-rule:evenodd;fill:rgb(99.998474%,99.998474%,99.998474%);fill-opacity:1;" d="M 303.734375 138.605469 L 309 154.816406 L 295.214844 144.796875 Z M 303.734375 138.605469 "/>
<path style=" stroke:none;fill-rule:evenodd;fill:rgb(99.998474%,99.998474%,99.998474%);fill-opacity:1;" d="M 370.050781 144.796875 L 356.257812 154.816406 L 361.53125 138.605469 Z M 370.050781 144.796875 "/>
<path style=" stroke:none;fill-rule:evenodd;fill:rgb(99.998474%,99.998474%,99.998474%);fill-opacity:1;" d="M 364.164062 146.710938 L 350.371094 136.691406 L 367.417969 136.691406 Z M 364.164062 146.710938 "/>
<path style=" stroke:none;fill-rule:evenodd;fill:rgb(99.998474%,99.998474%,99.998474%);fill-opacity:1;" d="M 360.519531 141.699219 L 365.789062 125.488281 L 371.058594 141.699219 Z M 360.519531 141.699219 "/>
<path style=" stroke:none;fill-rule:evenodd;fill:rgb(99.998474%,99.998474%,99.998474%);fill-opacity:1;" d="M 364.164062 136.691406 L 381.207031 136.691406 L 367.417969 146.710938 Z M 364.164062 136.691406 "/>
<path style=" stroke:none;fill-rule:evenodd;fill:rgb(99.998474%,99.998474%,99.998474%);fill-opacity:1;" d="M 370.050781 138.605469 L 375.316406 154.816406 L 361.53125 144.796875 Z M 370.050781 138.605469 "/>
<path style=" stroke:none;fill-rule:evenodd;fill:rgb(99.998474%,99.998474%,99.998474%);fill-opacity:1;" d="M 71.628906 173.21875 L 57.839844 183.238281 L 63.109375 167.023438 Z M 71.628906 173.21875 "/>
<path style=" stroke:none;fill-rule:evenodd;fill:rgb(99.998474%,99.998474%,99.998474%);fill-opacity:1;" d="M 65.742188 175.128906 L 51.953125 165.109375 L 68.996094 165.109375 Z M 65.742188 175.128906 "/>
<path style=" stroke:none;fill-rule:evenodd;fill:rgb(99.998474%,99.998474%,99.998474%);fill-opacity:1;" d="M 62.101562 170.121094 L 67.367188 153.910156 L 72.636719 170.121094 Z M 62.101562 170.121094 "/>
<path style=" stroke:none;fill-rule:evenodd;fill:rgb(99.998474%,99.998474%,99.998474%);fill-opacity:1;" d="M 65.742188 165.109375 L 82.785156 165.109375 L 68.996094 175.128906 Z M 65.742188 165.109375 "/>
<path style=" stroke:none;fill-rule:evenodd;fill:rgb(99.998474%,99.998474%,99.998474%);fill-opacity:1;" d="M 71.628906 167.023438 L 76.894531 183.238281 L 63.109375 173.21875 Z M 71.628906 167.023438 "/>
<path style=" stroke:none;fill-rule:evenodd;fill:rgb(99.998474%,99.998474%,99.998474%);fill-opacity:1;" d="M 137.945312 173.21875 L 124.15625 183.238281 L 129.425781 167.023438 Z M 137.945312 173.21875 "/>
<path style=" stroke:none;fill-rule:evenodd;fill:rgb(99.998474%,99.998474%,99.998474%);fill-opacity:1;" d="M 132.058594 175.128906 L 118.265625 165.109375 L 135.3125 165.109375 Z M 132.058594 175.128906 "/>
<path style=" stroke:none;fill-rule:evenodd;fill:rgb(99.998474%,99.998474%,99.998474%);fill-opacity:1;" d="M 128.414062 170.121094 L 133.683594 153.910156 L 138.953125 170.121094 Z M 128.414062 170.121094 "/>
<path style=" stroke:none;fill-rule:evenodd;fill:rgb(99.998474%,99.998474%,99.998474%);fill-opacity:1;" d="M 132.058594 165.109375 L 149.101562 165.109375 L 135.3125 175.128906 Z M 132.058594 165.109375 "/>
<path style=" stroke:none;fill-rule:evenodd;fill:rgb(99.998474%,99.998474%,99.998474%);fill-opacity:1;" d="M 137.945312 167.023438 L 143.210938 183.238281 L 129.425781 173.21875 Z M 137.945312 167.023438 "/>
<path style=" stroke:none;fill-rule:evenodd;fill:rgb(99.998474%,99.998474%,99.998474%);fill-opacity:1;" d="M 204.261719 173.21875 L 190.472656 183.238281 L 195.738281 167.023438 Z M 204.261719 173.21875 "/>
<path style=" stroke:none;fill-rule:evenodd;fill:rgb(99.998474%,99.998474%,99.998474%);fill-opacity:1;" d="M 198.371094 175.128906 L 184.582031 165.109375 L 201.625 165.109375 Z M 198.371094 175.128906 "/>
<path style=" stroke:none;fill-rule:evenodd;fill:rgb(99.998474%,99.998474%,99.998474%);fill-opacity:1;" d="M 194.730469 170.121094 L 200.003906 153.910156 L 205.269531 170.121094 Z M 194.730469 170.121094 "/>
<path style=" stroke:none;fill-rule:evenodd;fill:rgb(99.998474%,99.998474%,99.998474%);fill-opacity:1;" d="M 198.371094 165.109375 L 215.417969 165.109375 L 201.625 175.128906 Z M 198.371094 165.109375 "/>
<path style=" stroke:none;fill-rule:evenodd;fill:rgb(99.998474%,99.998474%,99.998474%);fill-opacity:1;" d="M 204.261719 167.023438 L 209.53125 183.238281 L 195.738281 173.21875 Z M 204.261719 167.023438 "/>
<path style=" stroke:none;fill-rule:evenodd;fill:rgb(99.998474%,99.998474%,99.998474%);fill-opacity:1;" d="M 270.574219 173.21875 L 256.789062 183.238281 L 262.054688 167.023438 Z M 270.574219 173.21875 "/>
<path style=" stroke:none;fill-rule:evenodd;fill:rgb(99.998474%,99.998474%,99.998474%);fill-opacity:1;" d="M 264.6875 175.128906 L 250.898438 165.109375 L 267.941406 165.109375 Z M 264.6875 175.128906 "/>
<path style=" stroke:none;fill-rule:evenodd;fill:rgb(99.998474%,99.998474%,99.998474%);fill-opacity:1;" d="M 261.050781 170.121094 L 266.316406 153.910156 L 271.582031 170.121094 Z M 261.050781 170.121094 "/>
<path style=" stroke:none;fill-rule:evenodd;fill:rgb(99.998474%,99.998474%,99.998474%);fill-opacity:1;" d="M 264.6875 165.109375 L 281.734375 165.109375 L 267.941406 175.128906 Z M 264.6875 165.109375 "/>
<path style=" stroke:none;fill-rule:evenodd;fill:rgb(99.998474%,99.998474%,99.998474%);fill-opacity:1;" d="M 270.574219 167.023438 L 275.84375 183.238281 L 262.054688 173.21875 Z M 270.574219 167.023438 "/>
<path style=" stroke:none;fill-rule:evenodd;fill:rgb(99.998474%,99.998474%,99.998474%);fill-opacity:1;" d="M 336.894531 173.21875 L 323.105469 183.238281 L 328.371094 167.023438 Z M 336.894531 173.21875 "/>
<path style=" stroke:none;fill-rule:evenodd;fill:rgb(99.998474%,99.998474%,99.998474%);fill-opacity:1;" d="M 331.003906 175.128906 L 317.210938 165.109375 L 334.261719 165.109375 Z M 331.003906 175.128906 "/>
<path style=" stroke:none;fill-rule:evenodd;fill:rgb(99.998474%,99.998474%,99.998474%);fill-opacity:1;" d="M 327.367188 170.121094 L 332.632812 153.910156 L 337.898438 170.121094 Z M 327.367188 170.121094 "/>
<path style=" stroke:none;fill-rule:evenodd;fill:rgb(99.998474%,99.998474%,99.998474%);fill-opacity:1;" d="M 331.003906 165.109375 L 348.046875 165.109375 L 334.261719 175.128906 Z M 331.003906 165.109375 "/>
<path style=" stroke:none;fill-rule:evenodd;fill:rgb(99.998474%,99.998474%,99.998474%);fill-opacity:1;" d="M 336.894531 167.023438 L 342.160156 183.238281 L 328.371094 173.21875 Z M 336.894531 167.023438 "/>
<path style=" stroke:none;fill-rule:evenodd;fill:rgb(99.998474%,99.998474%,99.998474%);fill-opacity:1;" d="M 38.472656 201.636719 L 24.683594 211.65625 L 29.949219 195.449219 Z M 38.472656 201.636719 "/>
<path style=" stroke:none;fill-rule:evenodd;fill:rgb(99.998474%,99.998474%,99.998474%);fill-opacity:1;" d="M 32.582031 203.550781 L 18.792969 193.535156 L 35.835938 193.535156 Z M 32.582031 203.550781 "/>
<path style=" stroke:none;fill-rule:evenodd;fill:rgb(99.998474%,99.998474%,99.998474%);fill-opacity:1;" d="M 28.945312 198.542969 L 34.210938 182.332031 L 39.476562 198.542969 Z M 28.945312 198.542969 "/>
<path style=" stroke:none;fill-rule:evenodd;fill:rgb(99.998474%,99.998474%,99.998474%);fill-opacity:1;" d="M 32.582031 193.535156 L 49.625 193.535156 L 35.835938 203.550781 Z M 32.582031 193.535156 "/>
<path style=" stroke:none;fill-rule:evenodd;fill:rgb(99.998474%,99.998474%,99.998474%);fill-opacity:1;" d="M 38.472656 195.449219 L 43.738281 211.65625 L 29.949219 201.636719 Z M 38.472656 195.449219 "/>
<path style=" stroke:none;fill-rule:evenodd;fill:rgb(99.998474%,99.998474%,99.998474%);fill-opacity:1;" d="M 104.789062 201.636719 L 90.996094 211.65625 L 96.265625 195.449219 Z M 104.789062 201.636719 "/>
<path style=" stroke:none;fill-rule:evenodd;fill:rgb(99.998474%,99.998474%,99.998474%);fill-opacity:1;" d="M 98.898438 203.550781 L 85.105469 193.535156 L 102.15625 193.535156 Z M 98.898438 203.550781 "/>
<path style=" stroke:none;fill-rule:evenodd;fill:rgb(99.998474%,99.998474%,99.998474%);fill-opacity:1;" d="M 95.261719 198.542969 L 100.527344 182.332031 L 105.792969 198.542969 Z M 95.261719 198.542969 "/>
<path style=" stroke:none;fill-rule:evenodd;fill:rgb(99.998474%,99.998474%,99.998474%);fill-opacity:1;" d="M 98.898438 193.535156 L 115.941406 193.535156 L 102.15625 203.550781 Z M 98.898438 193.535156 "/>
<path style=" stroke:none;fill-rule:evenodd;fill:rgb(99.998474%,99.998474%,99.998474%);fill-opacity:1;" d="M 104.789062 195.449219 L 110.054688 211.65625 L 96.265625 201.636719 Z M 104.789062 195.449219 "/>
<path style=" stroke:none;fill-rule:evenodd;fill:rgb(99.998474%,99.998474%,99.998474%);fill-opacity:1;" d="M 171.105469 201.636719 L 157.3125 211.65625 L 162.578125 195.449219 Z M 171.105469 201.636719 "/>
<path style=" stroke:none;fill-rule:evenodd;fill:rgb(99.998474%,99.998474%,99.998474%);fill-opacity:1;" d="M 165.210938 203.550781 L 151.425781 193.535156 L 168.46875 193.535156 Z M 165.210938 203.550781 "/>
<path style=" stroke:none;fill-rule:evenodd;fill:rgb(99.998474%,99.998474%,99.998474%);fill-opacity:1;" d="M 161.574219 198.542969 L 166.84375 182.332031 L 172.109375 198.542969 Z M 161.574219 198.542969 "/>
<path style=" stroke:none;fill-rule:evenodd;fill:rgb(99.998474%,99.998474%,99.998474%);fill-opacity:1;" d="M 165.210938 193.535156 L 182.257812 193.535156 L 168.46875 203.550781 Z M 165.210938 193.535156 "/>
<path style=" stroke:none;fill-rule:evenodd;fill:rgb(99.998474%,99.998474%,99.998474%);fill-opacity:1;" d="M 171.105469 195.449219 L 176.371094 211.65625 L 162.578125 201.636719 Z M 171.105469 195.449219 "/>
<path style=" stroke:none;fill-rule:evenodd;fill:rgb(99.998474%,99.998474%,99.998474%);fill-opacity:1;" d="M 237.417969 201.636719 L 223.628906 211.65625 L 228.894531 195.449219 Z M 237.417969 201.636719 "/>
<path style=" stroke:none;fill-rule:evenodd;fill:rgb(99.998474%,99.998474%,99.998474%);fill-opacity:1;" d="M 231.527344 203.550781 L 217.742188 193.535156 L 234.785156 193.535156 Z M 231.527344 203.550781 "/>
<path style=" stroke:none;fill-rule:evenodd;fill:rgb(99.998474%,99.998474%,99.998474%);fill-opacity:1;" d="M 227.890625 198.542969 L 233.15625 182.332031 L 238.421875 198.542969 Z M 227.890625 198.542969 "/>
<path style=" stroke:none;fill-rule:evenodd;fill:rgb(99.998474%,99.998474%,99.998474%);fill-opacity:1;" d="M 231.527344 193.535156 L 248.578125 193.535156 L 234.785156 203.550781 Z M 231.527344 193.535156 "/>
<path style=" stroke:none;fill-rule:evenodd;fill:rgb(99.998474%,99.998474%,99.998474%);fill-opacity:1;" d="M 237.417969 195.449219 L 242.683594 211.65625 L 228.894531 201.636719 Z M 237.417969 195.449219 "/>
<path style=" stroke:none;fill-rule:evenodd;fill:rgb(99.998474%,99.998474%,99.998474%);fill-opacity:1;" d="M 303.734375 201.636719 L 289.945312 211.65625 L 295.214844 195.449219 Z M 303.734375 201.636719 "/>
<path style=" stroke:none;fill-rule:evenodd;fill:rgb(99.998474%,99.998474%,99.998474%);fill-opacity:1;" d="M 297.847656 203.550781 L 284.058594 193.535156 L 301.101562 193.535156 Z M 297.847656 203.550781 "/>
<path style=" stroke:none;fill-rule:evenodd;fill:rgb(99.998474%,99.998474%,99.998474%);fill-opacity:1;" d="M 294.207031 198.542969 L 299.472656 182.332031 L 304.738281 198.542969 Z M 294.207031 198.542969 "/>
<path style=" stroke:none;fill-rule:evenodd;fill:rgb(99.998474%,99.998474%,99.998474%);fill-opacity:1;" d="M 297.847656 193.535156 L 314.890625 193.535156 L 301.101562 203.550781 Z M 297.847656 193.535156 "/>
<path style=" stroke:none;fill-rule:evenodd;fill:rgb(99.998474%,99.998474%,99.998474%);fill-opacity:1;" d="M 303.734375 195.449219 L 309 211.65625 L 295.214844 201.636719 Z M 303.734375 195.449219 "/>
<path style=" stroke:none;fill-rule:evenodd;fill:rgb(99.998474%,99.998474%,99.998474%);fill-opacity:1;" d="M 370.050781 201.636719 L 356.257812 211.65625 L 361.53125 195.449219 Z M 370.050781 201.636719 "/>
<path style=" stroke:none;fill-rule:evenodd;fill:rgb(99.998474%,99.998474%,99.998474%);fill-opacity:1;" d="M 364.164062 203.550781 L 350.371094 193.535156 L 367.417969 193.535156 Z M 364.164062 203.550781 "/>
<path style=" stroke:none;fill-rule:evenodd;fill:rgb(99.998474%,99.998474%,99.998474%);fill-opacity:1;" d="M 360.519531 198.542969 L 365.789062 182.332031 L 371.058594 198.542969 Z M 360.519531 198.542969 "/>
<path style=" stroke:none;fill-rule:evenodd;fill:rgb(99.998474%,99.998474%,99.998474%);fill-opacity:1;" d="M 364.164062 193.535156 L 381.207031 193.535156 L 367.417969 203.550781 Z M 364.164062 193.535156 "/>
<path style=" stroke:none;fill-rule:evenodd;fill:rgb(99.998474%,99.998474%,99.998474%);fill-opacity:1;" d="M 370.050781 195.449219 L 375.316406 211.65625 L 361.53125 201.636719 Z M 370.050781 195.449219 "/>
<path style=" stroke:none;fill-rule:evenodd;fill:rgb(99.998474%,99.998474%,99.998474%);fill-opacity:1;" d="M 71.628906 230.058594 L 57.839844 240.074219 L 63.109375 223.867188 Z M 71.628906 230.058594 "/>
<path style=" stroke:none;fill-rule:evenodd;fill:rgb(99.998474%,99.998474%,99.998474%);fill-opacity:1;" d="M 65.742188 231.972656 L 51.953125 221.953125 L 68.996094 221.953125 Z M 65.742188 231.972656 "/>
<path style=" stroke:none;fill-rule:evenodd;fill:rgb(99.998474%,99.998474%,99.998474%);fill-opacity:1;" d="M 62.101562 226.960938 L 67.367188 210.753906 L 72.636719 226.960938 Z M 62.101562 226.960938 "/>
<path style=" stroke:none;fill-rule:evenodd;fill:rgb(99.998474%,99.998474%,99.998474%);fill-opacity:1;" d="M 65.742188 221.953125 L 82.785156 221.953125 L 68.996094 231.972656 Z M 65.742188 221.953125 "/>
<path style=" stroke:none;fill-rule:evenodd;fill:rgb(99.998474%,99.998474%,99.998474%);fill-opacity:1;" d="M 71.628906 223.867188 L 76.894531 240.074219 L 63.109375 230.058594 Z M 71.628906 223.867188 "/>
<path style=" stroke:none;fill-rule:evenodd;fill:rgb(99.998474%,99.998474%,99.998474%);fill-opacity:1;" d="M 137.945312 230.058594 L 124.15625 240.074219 L 129.425781 223.867188 Z M 137.945312 230.058594 "/>
<path style=" stroke:none;fill-rule:evenodd;fill:rgb(99.998474%,99.998474%,99.998474%);fill-opacity:1;" d="M 132.058594 231.972656 L 118.265625 221.953125 L 135.3125 221.953125 Z M 132.058594 231.972656 "/>
<path style=" stroke:none;fill-rule:evenodd;fill:rgb(99.998474%,99.998474%,99.998474%);fill-opacity:1;" d="M 128.414062 226.960938 L 133.683594 210.753906 L 138.953125 226.960938 Z M 128.414062 226.960938 "/>
<path style=" stroke:none;fill-rule:evenodd;fill:rgb(99.998474%,99.998474%,99.998474%);fill-opacity:1;" d="M 132.058594 221.953125 L 149.101562 221.953125 L 135.3125 231.972656 Z M 132.058594 221.953125 "/>
<path style=" stroke:none;fill-rule:evenodd;fill:rgb(99.998474%,99.998474%,99.998474%);fill-opacity:1;" d="M 137.945312 223.867188 L 143.210938 240.074219 L 129.425781 230.058594 Z M 137.945312 223.867188 "/>
<path style=" stroke:none;fill-rule:evenodd;fill:rgb(99.998474%,99.998474%,99.998474%);fill-opacity:1;" d="M 204.261719 230.058594 L 190.472656 240.074219 L 195.738281 223.867188 Z M 204.261719 230.058594 "/>
<path style=" stroke:none;fill-rule:evenodd;fill:rgb(99.998474%,99.998474%,99.998474%);fill-opacity:1;" d="M 198.371094 231.972656 L 184.582031 221.953125 L 201.625 221.953125 Z M 198.371094 231.972656 "/>
<path style=" stroke:none;fill-rule:evenodd;fill:rgb(99.998474%,99.998474%,99.998474%);fill-opacity:1;" d="M 194.730469 226.960938 L 200.003906 210.753906 L 205.269531 226.960938 Z M 194.730469 226.960938 "/>
<path style=" stroke:none;fill-rule:evenodd;fill:rgb(99.998474%,99.998474%,99.998474%);fill-opacity:1;" d="M 198.371094 221.953125 L 215.417969 221.953125 L 201.625 231.972656 Z M 198.371094 221.953125 "/>
<path style=" stroke:none;fill-rule:evenodd;fill:rgb(99.998474%,99.998474%,99.998474%);fill-opacity:1;" d="M 204.261719 223.867188 L 209.53125 240.074219 L 195.738281 230.058594 Z M 204.261719 223.867188 "/>
<path style=" stroke:none;fill-rule:evenodd;fill:rgb(99.998474%,99.998474%,99.998474%);fill-opacity:1;" d="M 270.574219 230.058594 L 256.789062 240.074219 L 262.054688 223.867188 Z M 270.574219 230.058594 "/>
<path style=" stroke:none;fill-rule:evenodd;fill:rgb(99.998474%,99.998474%,99.998474%);fill-opacity:1;" d="M 264.6875 231.972656 L 250.898438 221.953125 L 267.941406 221.953125 Z M 264.6875 231.972656 "/>
<path style=" stroke:none;fill-rule:evenodd;fill:rgb(99.998474%,99.998474%,99.998474%);fill-opacity:1;" d="M 261.050781 226.960938 L 266.316406 210.753906 L 271.582031 226.960938 Z M 261.050781 226.960938 "/>
<path style=" stroke:none;fill-rule:evenodd;fill:rgb(99.998474%,99.998474%,99.998474%);fill-opacity:1;" d="M 264.6875 221.953125 L 281.734375 221.953125 L 267.941406 231.972656 Z M 264.6875 221.953125 "/>
<path style=" stroke:none;fill-rule:evenodd;fill:rgb(99.998474%,99.998474%,99.998474%);fill-opacity:1;" d="M 270.574219 223.867188 L 275.84375 240.074219 L 262.054688 230.058594 Z M 270.574219 223.867188 "/>
<path style=" stroke:none;fill-rule:evenodd;fill:rgb(99.998474%,99.998474%,99.998474%);fill-opacity:1;" d="M 336.894531 230.058594 L 323.105469 240.074219 L 328.371094 223.867188 Z M 336.894531 230.058594 "/>
<path style=" stroke:none;fill-rule:evenodd;fill:rgb(99.998474%,99.998474%,99.998474%);fill-opacity:1;" d="M 331.003906 231.972656 L 317.210938 221.953125 L 334.261719 221.953125 Z M 331.003906 231.972656 "/>
<path style=" stroke:none;fill-rule:evenodd;fill:rgb(99.998474%,99.998474%,99.998474%);fill-opacity:1;" d="M 327.367188 226.960938 L 332.632812 210.753906 L 337.898438 226.960938 Z M 327.367188 226.960938 "/>
<path style=" stroke:none;fill-rule:evenodd;fill:rgb(99.998474%,99.998474%,99.998474%);fill-opacity:1;" d="M 331.003906 221.953125 L 348.046875 221.953125 L 334.261719 231.972656 Z M 331.003906 221.953125 "/>
<path style=" stroke:none;fill-rule:evenodd;fill:rgb(99.998474%,99.998474%,99.998474%);fill-opacity:1;" d="M 336.894531 223.867188 L 342.160156 240.074219 L 328.371094 230.058594 Z M 336.894531 223.867188 "/>
<path style=" stroke:none;fill-rule:evenodd;fill:rgb(99.998474%,99.998474%,99.998474%);fill-opacity:1;" d="M 38.472656 258.480469 L 24.683594 268.5 L 29.949219 252.289062 Z M 38.472656 258.480469 "/>
<path style=" stroke:none;fill-rule:evenodd;fill:rgb(99.998474%,99.998474%,99.998474%);fill-opacity:1;" d="M 32.582031 260.394531 L 18.792969 250.375 L 35.835938 250.375 Z M 32.582031 260.394531 "/>
<path style=" stroke:none;fill-rule:evenodd;fill:rgb(99.998474%,99.998474%,99.998474%);fill-opacity:1;" d="M 28.945312 255.382812 L 34.210938 239.175781 L 39.476562 255.382812 Z M 28.945312 255.382812 "/>
<path style=" stroke:none;fill-rule:evenodd;fill:rgb(99.998474%,99.998474%,99.998474%);fill-opacity:1;" d="M 32.582031 250.375 L 49.625 250.375 L 35.835938 260.394531 Z M 32.582031 250.375 "/>
<path style=" stroke:none;fill-rule:evenodd;fill:rgb(99.998474%,99.998474%,99.998474%);fill-opacity:1;" d="M 38.472656 252.289062 L 43.738281 268.5 L 29.949219 258.480469 Z M 38.472656 252.289062 "/>
<path style=" stroke:none;fill-rule:evenodd;fill:rgb(99.998474%,99.998474%,99.998474%);fill-opacity:1;" d="M 104.789062 258.480469 L 90.996094 268.5 L 96.265625 252.289062 Z M 104.789062 258.480469 "/>
<path style=" stroke:none;fill-rule:evenodd;fill:rgb(99.998474%,99.998474%,99.998474%);fill-opacity:1;" d="M 98.898438 260.394531 L 85.105469 250.375 L 102.15625 250.375 Z M 98.898438 260.394531 "/>
<path style=" stroke:none;fill-rule:evenodd;fill:rgb(99.998474%,99.998474%,99.998474%);fill-opacity:1;" d="M 95.261719 255.382812 L 100.527344 239.175781 L 105.792969 255.382812 Z M 95.261719 255.382812 "/>
<path style=" stroke:none;fill-rule:evenodd;fill:rgb(99.998474%,99.998474%,99.998474%);fill-opacity:1;" d="M 98.898438 250.375 L 115.941406 250.375 L 102.15625 260.394531 Z M 98.898438 250.375 "/>
<path style=" stroke:none;fill-rule:evenodd;fill:rgb(99.998474%,99.998474%,99.998474%);fill-opacity:1;" d="M 104.789062 252.289062 L 110.054688 268.5 L 96.265625 258.480469 Z M 104.789062 252.289062 "/>
<path style=" stroke:none;fill-rule:evenodd;fill:rgb(99.998474%,99.998474%,99.998474%);fill-opacity:1;" d="M 171.105469 258.480469 L 157.3125 268.5 L 162.578125 252.289062 Z M 171.105469 258.480469 "/>
<path style=" stroke:none;fill-rule:evenodd;fill:rgb(99.998474%,99.998474%,99.998474%);fill-opacity:1;" d="M 165.210938 260.394531 L 151.425781 250.375 L 168.46875 250.375 Z M 165.210938 260.394531 "/>
<path style=" stroke:none;fill-rule:evenodd;fill:rgb(99.998474%,99.998474%,99.998474%);fill-opacity:1;" d="M 161.574219 255.382812 L 166.84375 239.175781 L 172.109375 255.382812 Z M 161.574219 255.382812 "/>
<path style=" stroke:none;fill-rule:evenodd;fill:rgb(99.998474%,99.998474%,99.998474%);fill-opacity:1;" d="M 165.210938 250.375 L 182.257812 250.375 L 168.46875 260.394531 Z M 165.210938 250.375 "/>
<path style=" stroke:none;fill-rule:evenodd;fill:rgb(99.998474%,99.998474%,99.998474%);fill-opacity:1;" d="M 171.105469 252.289062 L 176.371094 268.5 L 162.578125 258.480469 Z M 171.105469 252.289062 "/>
<path style=" stroke:none;fill-rule:evenodd;fill:rgb(99.998474%,99.998474%,99.998474%);fill-opacity:1;" d="M 237.417969 258.480469 L 223.628906 268.5 L 228.894531 252.289062 Z M 237.417969 258.480469 "/>
<path style=" stroke:none;fill-rule:evenodd;fill:rgb(99.998474%,99.998474%,99.998474%);fill-opacity:1;" d="M 231.527344 260.394531 L 217.742188 250.375 L 234.785156 250.375 Z M 231.527344 260.394531 "/>
<path style=" stroke:none;fill-rule:evenodd;fill:rgb(99.998474%,99.998474%,99.998474%);fill-opacity:1;" d="M 227.890625 255.382812 L 233.15625 239.175781 L 238.421875 255.382812 Z M 227.890625 255.382812 "/>
<path style=" stroke:none;fill-rule:evenodd;fill:rgb(99.998474%,99.998474%,99.998474%);fill-opacity:1;" d="M 231.527344 250.375 L 248.578125 250.375 L 234.785156 260.394531 Z M 231.527344 250.375 "/>
<path style=" stroke:none;fill-rule:evenodd;fill:rgb(99.998474%,99.998474%,99.998474%);fill-opacity:1;" d="M 237.417969 252.289062 L 242.683594 268.5 L 228.894531 258.480469 Z M 237.417969 252.289062 "/>
<path style=" stroke:none;fill-rule:evenodd;fill:rgb(99.998474%,99.998474%,99.998474%);fill-opacity:1;" d="M 303.734375 258.480469 L 289.945312 268.5 L 295.214844 252.289062 Z M 303.734375 258.480469 "/>
<path style=" stroke:none;fill-rule:evenodd;fill:rgb(99.998474%,99.998474%,99.998474%);fill-opacity:1;" d="M 297.847656 260.394531 L 284.058594 250.375 L 301.101562 250.375 Z M 297.847656 260.394531 "/>
<path style=" stroke:none;fill-rule:evenodd;fill:rgb(99.998474%,99.998474%,99.998474%);fill-opacity:1;" d="M 294.207031 255.382812 L 299.472656 239.175781 L 304.738281 255.382812 Z M 294.207031 255.382812 "/>
<path style=" stroke:none;fill-rule:evenodd;fill:rgb(99.998474%,99.998474%,99.998474%);fill-opacity:1;" d="M 297.847656 250.375 L 314.890625 250.375 L 301.101562 260.394531 Z M 297.847656 250.375 "/>
<path style=" stroke:none;fill-rule:evenodd;fill:rgb(99.998474%,99.998474%,99.998474%);fill-opacity:1;" d="M 303.734375 252.289062 L 309 268.5 L 295.214844 258.480469 Z M 303.734375 252.289062 "/>
<path style=" stroke:none;fill-rule:evenodd;fill:rgb(99.998474%,99.998474%,99.998474%);fill-opacity:1;" d="M 370.050781 258.480469 L 356.257812 268.5 L 361.53125 252.289062 Z M 370.050781 258.480469 "/>
<path style=" stroke:none;fill-rule:evenodd;fill:rgb(99.998474%,99.998474%,99.998474%);fill-opacity:1;" d="M 364.164062 260.394531 L 350.371094 250.375 L 367.417969 250.375 Z M 364.164062 260.394531 "/>
<path style=" stroke:none;fill-rule:evenodd;fill:rgb(99.998474%,99.998474%,99.998474%);fill-opacity:1;" d="M 360.519531 255.382812 L 365.789062 239.175781 L 371.058594 255.382812 Z M 360.519531 255.382812 "/>
<path style=" stroke:none;fill-rule:evenodd;fill:rgb(99.998474%,99.998474%,99.998474%);fill-opacity:1;" d="M 364.164062 250.375 L 381.207031 250.375 L 367.417969 260.394531 Z M 364.164062 250.375 "/>
<path style=" stroke:none;fill-rule:evenodd;fill:rgb(99.998474%,99.998474%,99.998474%);fill-opacity:1;" d="M 370.050781 252.289062 L 375.316406 268.5 L 361.53125 258.480469 Z M 370.050781 252.289062 "/>
</g>
</svg>
