<?xml version="1.0" encoding="UTF-8"?>
<svg xmlns="http://www.w3.org/2000/svg" xmlns:xlink="http://www.w3.org/1999/xlink" viewBox="0 0 1000 667" version="1.1">
<defs>
<clipPath id="clip1">
  <path d="M 0 0 L 1000 0 L 1000 666.71875 L 0 666.71875 Z M 0 0 "/>
</clipPath>
</defs>
<g id="surface1260">
<g clip-path="url(#clip1)" clip-rule="nonzero">
<path style=" stroke:none;fill-rule:evenodd;fill:rgb(99.998474%,99.998474%,99.998474%);fill-opacity:1;" d="M 0 666.667969 L 0 0 L 1000 0 L 1000 666.667969 Z M 0 666.667969 "/>
</g>
<path style=" stroke:none;fill-rule:evenodd;fill:rgb(0%,21.960449%,65.881348%);fill-opacity:1;" d="M 370.371094 74.070312 L 1000 74.070312 L 1000 148.148438 L 370.371094 148.148438 Z M 370.371094 74.070312 "/>
<path style=" stroke:none;fill-rule:evenodd;fill:rgb(0%,21.960449%,65.881348%);fill-opacity:1;" d="M 370.371094 222.222656 L 1000 222.222656 L 1000 296.292969 L 370.371094 296.292969 Z M 370.371094 222.222656 "/>
<path style=" stroke:none;fill-rule:evenodd;fill:rgb(0%,21.960449%,65.881348%);fill-opacity:1;" d="M 0 370.371094 L 1000 370.371094 L 1000 444.445312 L 0 444.445312 Z M 0 370.371094 "/>
<path style=" stroke:none;fill-rule:evenodd;fill:rgb(0%,21.960449%,65.881348%);fill-opacity:1;" d="M 0 518.515625 L 1000 518.515625 L 1000 592.59375 L 0 592.59375 Z M 0 518.515625 "/>
<path style=" stroke:none;fill-rule:evenodd;fill:rgb(98.822021%,81.959534%,8.627319%);fill-opacity:1;" d="M 176.800781 221.398438 L 189.0625 239.707031 C 138.683594 276.167969 169.4375 297.726562 133.734375 309.398438 C 155.941406 287.726562 130.242188 285.898438 148.945312 240.734375 Z M 176.800781 221.398438 "/>
<path style="fill:none;stroke-width:2.055524;stroke-linecap:round;stroke-linejoin:miter;stroke:rgb(0%,0%,0%);stroke-opacity:1;stroke-miterlimit:20;" d="M 176.800781 221.398438 L 189.0625 239.707031 C 138.683594 276.167969 169.4375 297.726562 133.734375 309.398438 C 155.941406 287.726562 130.242188 285.898438 148.949219 240.734375 "/>
<path style="fill:none;stroke-width:2.055524;stroke-linecap:butt;stroke-linejoin:miter;stroke:rgb(0%,0%,0%);stroke-opacity:1;stroke-miterlimit:20;" d="M 168.035156 226.589844 C 140.242188 272.402344 158.46875 297.59375 133.734375 309.398438 "/>
<path style=" stroke:none;fill-rule:evenodd;fill:rgb(98.822021%,81.959534%,8.627319%);fill-opacity:1;" d="M 185.183594 185.183594 L 209.628906 185.183594 L 185.183594 319.628906 L 160.742188 185.183594 L 185.183594 185.183594 L 185.183594 319.628906 Z M 185.183594 185.183594 "/>
<path style="fill:none;stroke-width:2.444444;stroke-linecap:butt;stroke-linejoin:miter;stroke:rgb(0%,0%,0%);stroke-opacity:1;stroke-miterlimit:20;" d="M 185.183594 185.183594 L 209.628906 185.183594 L 185.183594 319.628906 L 160.742188 185.183594 L 185.183594 185.183594 L 185.183594 319.628906 "/>
<path style=" stroke:none;fill-rule:evenodd;fill:rgb(98.822021%,81.959534%,8.627319%);fill-opacity:1;" d="M 153.644531 204.859375 L 149.371094 226.476562 C 87.964844 216.632812 94.472656 253.628906 60.976562 236.636719 C 91.996094 237.011719 75.121094 217.546875 120.285156 198.839844 Z M 153.644531 204.859375 "/>
<path style="fill:none;stroke-width:2.055524;stroke-linecap:round;stroke-linejoin:miter;stroke:rgb(0%,0%,0%);stroke-opacity:1;stroke-miterlimit:20;" d="M 153.644531 204.859375 L 149.371094 226.476562 C 87.96875 216.632812 94.472656 253.628906 60.976562 236.636719 C 92 237.011719 75.121094 217.546875 120.285156 198.839844 "/>
<path style="fill:none;stroke-width:2.055524;stroke-linecap:butt;stroke-linejoin:miter;stroke:rgb(0%,0%,0%);stroke-opacity:1;stroke-miterlimit:20;" d="M 143.78125 202.332031 C 91.730469 215.078125 86.8125 245.777344 60.976562 236.636719 "/>
<path style=" stroke:none;fill-rule:evenodd;fill:rgb(98.822021%,81.959534%,8.627319%);fill-opacity:1;" d="M 185.183594 185.183594 L 202.46875 202.46875 L 90.121094 280.25 L 167.898438 167.898438 L 185.183594 185.183594 L 90.121094 280.25 Z M 185.183594 185.183594 "/>
<path style="fill:none;stroke-width:1;stroke-linecap:butt;stroke-linejoin:miter;stroke:rgb(0%,0%,0%);stroke-opacity:1;stroke-miterlimit:20;" d="M 185.183594 185.183594 L 202.46875 202.46875 L 90.121094 280.25 L 167.898438 167.898438 L 185.183594 185.183594 L 90.121094 280.25 "/>
<path style=" stroke:none;fill-rule:evenodd;fill:rgb(98.822021%,81.959534%,8.627319%);fill-opacity:1;" d="M 148.96875 176.800781 L 130.664062 189.0625 C 94.207031 138.683594 72.644531 169.4375 60.976562 133.734375 C 82.644531 155.941406 84.472656 130.242188 129.640625 148.945312 Z M 148.96875 176.800781 "/>
<path style="fill:none;stroke-width:2.055524;stroke-linecap:round;stroke-linejoin:miter;stroke:rgb(0%,0%,0%);stroke-opacity:1;stroke-miterlimit:20;" d="M 148.96875 176.800781 L 130.664062 189.0625 C 94.207031 138.683594 72.644531 169.441406 60.976562 133.734375 C 82.644531 155.941406 84.472656 130.238281 129.636719 148.945312 "/>
<path style="fill:none;stroke-width:2.055524;stroke-linecap:butt;stroke-linejoin:miter;stroke:rgb(0%,0%,0%);stroke-opacity:1;stroke-miterlimit:20;" d="M 143.78125 168.035156 C 97.972656 140.238281 72.78125 158.46875 60.976562 133.734375 "/>
<path style=" stroke:none;fill-rule:evenodd;fill:rgb(98.822021%,81.959534%,8.627319%);fill-opacity:1;" d="M 185.183594 185.183594 L 185.183594 209.628906 L 50.742188 185.183594 L 185.183594 160.742188 L 185.183594 185.183594 L 50.742188 185.183594 Z M 185.183594 185.183594 "/>
<path style="fill:none;stroke-width:2.444444;stroke-linecap:butt;stroke-linejoin:miter;stroke:rgb(0%,0%,0%);stroke-opacity:1;stroke-miterlimit:20;" d="M 185.183594 185.183594 L 185.183594 209.628906 L 50.742188 185.183594 L 185.183594 160.742188 L 185.183594 185.183594 L 50.742188 185.183594 "/>
<path style=" stroke:none;fill-rule:evenodd;fill:rgb(98.822021%,81.959534%,8.627319%);fill-opacity:1;" d="M 165.503906 153.644531 L 143.890625 149.371094 C 153.738281 87.964844 116.742188 94.472656 133.734375 60.976562 C 133.355469 91.996094 152.820312 75.121094 171.535156 120.285156 Z M 165.503906 153.644531 "/>
<path style="fill:none;stroke-width:2.055524;stroke-linecap:round;stroke-linejoin:miter;stroke:rgb(0%,0%,0%);stroke-opacity:1;stroke-miterlimit:20;" d="M 165.503906 153.644531 L 143.890625 149.371094 C 153.738281 87.96875 116.742188 94.472656 133.734375 60.976562 C 133.355469 91.996094 152.820312 75.121094 171.535156 120.285156 "/>
<path style="fill:none;stroke-width:2.055524;stroke-linecap:butt;stroke-linejoin:miter;stroke:rgb(0%,0%,0%);stroke-opacity:1;stroke-miterlimit:20;" d="M 168.035156 143.78125 C 155.296875 91.730469 124.59375 86.8125 133.734375 60.976562 "/>
<path style=" stroke:none;fill-rule:evenodd;fill:rgb(98.822021%,81.959534%,8.627319%);fill-opacity:1;" d="M 185.183594 185.183594 L 167.898438 202.46875 L 90.121094 90.121094 L 202.46875 167.898438 L 185.183594 185.183594 L 90.121094 90.121094 Z M 185.183594 185.183594 "/>
<path style="fill:none;stroke-width:1;stroke-linecap:butt;stroke-linejoin:miter;stroke:rgb(0%,0%,0%);stroke-opacity:1;stroke-miterlimit:20;" d="M 185.183594 185.183594 L 167.898438 202.46875 L 90.121094 90.121094 L 202.46875 167.898438 L 185.183594 185.183594 L 90.121094 90.121094 "/>
<path style=" stroke:none;fill-rule:evenodd;fill:rgb(98.822021%,81.959534%,8.627319%);fill-opacity:1;" d="M 193.570312 148.96875 L 181.308594 130.664062 C 231.6875 94.207031 200.933594 72.644531 236.636719 60.976562 C 214.433594 82.644531 240.132812 84.472656 221.425781 129.640625 Z M 193.570312 148.96875 "/>
<path style="fill:none;stroke-width:2.055524;stroke-linecap:round;stroke-linejoin:miter;stroke:rgb(0%,0%,0%);stroke-opacity:1;stroke-miterlimit:20;" d="M 193.570312 148.96875 L 181.308594 130.664062 C 231.691406 94.207031 200.933594 72.644531 236.636719 60.976562 C 214.429688 82.644531 240.132812 84.472656 221.425781 129.640625 "/>
<path style="fill:none;stroke-width:2.055524;stroke-linecap:butt;stroke-linejoin:miter;stroke:rgb(0%,0%,0%);stroke-opacity:1;stroke-miterlimit:20;" d="M 202.332031 143.78125 C 230.132812 97.972656 211.902344 72.78125 236.636719 60.976562 "/>
<path style=" stroke:none;fill-rule:evenodd;fill:rgb(98.822021%,81.959534%,8.627319%);fill-opacity:1;" d="M 185.183594 185.183594 L 160.742188 185.183594 L 185.183594 50.742188 L 209.628906 185.183594 L 185.183594 185.183594 L 185.183594 50.742188 Z M 185.183594 185.183594 "/>
<path style="fill:none;stroke-width:2.444444;stroke-linecap:butt;stroke-linejoin:miter;stroke:rgb(0%,0%,0%);stroke-opacity:1;stroke-miterlimit:20;" d="M 185.183594 185.183594 L 160.742188 185.183594 L 185.183594 50.742188 L 209.628906 185.183594 L 185.183594 185.183594 L 185.183594 50.742188 "/>
<path style=" stroke:none;fill-rule:evenodd;fill:rgb(98.822021%,81.959534%,8.627319%);fill-opacity:1;" d="M 216.722656 165.503906 L 220.996094 143.890625 C 282.398438 153.738281 275.898438 116.742188 309.398438 133.734375 C 278.371094 133.355469 295.253906 152.820312 250.085938 171.535156 Z M 216.722656 165.503906 "/>
<path style="fill:none;stroke-width:2.055524;stroke-linecap:round;stroke-linejoin:miter;stroke:rgb(0%,0%,0%);stroke-opacity:1;stroke-miterlimit:20;" d="M 216.722656 165.503906 L 220.996094 143.890625 C 282.398438 153.738281 275.898438 116.742188 309.398438 133.734375 C 278.367188 133.355469 295.253906 152.820312 250.085938 171.53125 "/>
<path style="fill:none;stroke-width:2.055524;stroke-linecap:butt;stroke-linejoin:miter;stroke:rgb(0%,0%,0%);stroke-opacity:1;stroke-miterlimit:20;" d="M 226.589844 168.035156 C 278.640625 155.292969 283.5625 124.59375 309.398438 133.734375 "/>
<path style=" stroke:none;fill-rule:evenodd;fill:rgb(98.822021%,81.959534%,8.627319%);fill-opacity:1;" d="M 185.183594 185.183594 L 167.898438 167.898438 L 280.25 90.121094 L 202.46875 202.46875 L 185.183594 185.183594 L 280.25 90.121094 Z M 185.183594 185.183594 "/>
<path style="fill:none;stroke-width:1;stroke-linecap:butt;stroke-linejoin:miter;stroke:rgb(0%,0%,0%);stroke-opacity:1;stroke-miterlimit:20;" d="M 185.183594 185.183594 L 167.898438 167.898438 L 280.25 90.121094 L 202.46875 202.46875 L 185.183594 185.183594 L 280.25 90.121094 "/>
<path style=" stroke:none;fill-rule:evenodd;fill:rgb(98.822021%,81.959534%,8.627319%);fill-opacity:1;" d="M 221.398438 193.570312 L 239.707031 181.308594 C 276.167969 231.6875 297.726562 200.933594 309.398438 236.636719 C 287.726562 214.433594 285.898438 240.132812 240.734375 221.425781 Z M 221.398438 193.570312 "/>
<path style="fill:none;stroke-width:2.055524;stroke-linecap:round;stroke-linejoin:miter;stroke:rgb(0%,0%,0%);stroke-opacity:1;stroke-miterlimit:20;" d="M 221.398438 193.570312 L 239.707031 181.308594 C 276.167969 231.6875 297.726562 200.933594 309.394531 236.636719 C 287.726562 214.429688 285.898438 240.132812 240.734375 221.425781 "/>
<path style="fill:none;stroke-width:2.055524;stroke-linecap:butt;stroke-linejoin:miter;stroke:rgb(0%,0%,0%);stroke-opacity:1;stroke-miterlimit:20;" d="M 226.589844 202.332031 C 272.402344 230.132812 297.589844 211.902344 309.394531 236.636719 "/>
<path style=" stroke:none;fill-rule:evenodd;fill:rgb(98.822021%,81.959534%,8.627319%);fill-opacity:1;" d="M 185.183594 185.183594 L 185.183594 160.742188 L 319.628906 185.183594 L 185.183594 209.628906 L 185.183594 185.183594 L 319.628906 185.183594 Z M 185.183594 185.183594 "/>
<path style="fill:none;stroke-width:2.444444;stroke-linecap:butt;stroke-linejoin:miter;stroke:rgb(0%,0%,0%);stroke-opacity:1;stroke-miterlimit:20;" d="M 185.183594 185.183594 L 185.183594 160.742188 L 319.628906 185.183594 L 185.183594 209.628906 L 185.183594 185.183594 L 319.628906 185.183594 "/>
<path style=" stroke:none;fill-rule:evenodd;fill:rgb(98.822021%,81.959534%,8.627319%);fill-opacity:1;" d="M 204.859375 216.722656 L 226.476562 220.996094 C 216.632812 282.398438 253.628906 275.898438 236.636719 309.398438 C 237.011719 278.371094 217.546875 295.253906 198.839844 250.085938 Z M 204.859375 216.722656 "/>
<path style="fill:none;stroke-width:2.055524;stroke-linecap:round;stroke-linejoin:miter;stroke:rgb(0%,0%,0%);stroke-opacity:1;stroke-miterlimit:20;" d="M 204.863281 216.722656 L 226.476562 220.996094 C 216.632812 282.398438 253.628906 275.902344 236.636719 309.394531 C 237.011719 278.367188 217.546875 295.253906 198.839844 250.085938 "/>
<path style="fill:none;stroke-width:2.055524;stroke-linecap:butt;stroke-linejoin:miter;stroke:rgb(0%,0%,0%);stroke-opacity:1;stroke-miterlimit:20;" d="M 202.332031 226.589844 C 215.078125 278.640625 245.78125 283.5625 236.636719 309.394531 "/>
<path style=" stroke:none;fill-rule:evenodd;fill:rgb(98.822021%,81.959534%,8.627319%);fill-opacity:1;" d="M 185.183594 185.183594 L 202.46875 167.898438 L 280.25 280.25 L 167.898438 202.46875 L 185.183594 185.183594 L 280.25 280.25 Z M 185.183594 185.183594 "/>
<path style="fill:none;stroke-width:1;stroke-linecap:butt;stroke-linejoin:miter;stroke:rgb(0%,0%,0%);stroke-opacity:1;stroke-miterlimit:20;" d="M 185.183594 185.183594 L 202.46875 167.898438 L 280.25 280.25 L 167.898438 202.46875 L 185.183594 185.183594 L 280.25 280.25 "/>
<path style="fill-rule:evenodd;fill:rgb(98.822021%,81.959534%,8.627319%);fill-opacity:1;stroke-width:2.444444;stroke-linecap:butt;stroke-linejoin:miter;stroke:rgb(0%,0%,0%);stroke-opacity:1;stroke-miterlimit:20;" d="M 230.003906 185.183594 C 230.003906 209.933594 209.933594 230.003906 185.183594 230.003906 C 160.433594 230.003906 140.371094 209.933594 140.371094 185.183594 C 140.371094 160.433594 160.433594 140.371094 185.183594 140.371094 C 209.933594 140.371094 230.003906 160.433594 230.003906 185.183594 Z M 230.003906 185.183594 "/>
<path style=" stroke:none;fill-rule:evenodd;fill:rgb(0%,0%,0%);fill-opacity:1;" d="M 218.1875 167.257812 C 215.332031 170.519531 213.703125 164.816406 203.519531 164.816406 C 193.332031 164.816406 191.703125 170.925781 190.070312 169.707031 C 188.445312 168.484375 198.628906 161.148438 201.886719 160.742188 C 205.148438 160.335938 214.519531 163.589844 218.1875 167.257812 Z M 206.371094 170.925781 C 209.222656 173.371094 206.777344 178.667969 203.929688 178.667969 C 201.074219 178.667969 195.777344 173.777344 198.222656 170.519531 Z M 206.371094 170.925781 "/>
<path style=" stroke:none;fill-rule:evenodd;fill:rgb(0%,0%,0%);fill-opacity:1;" d="M 192.925781 174.59375 C 193.332031 169.707031 197.40625 168.890625 203.929688 168.890625 C 210.445312 168.890625 213.296875 173.777344 215.738281 175 C 212.890625 175 210.445312 170.925781 203.929688 170.925781 C 197.40625 170.925781 197.40625 170.925781 192.925781 175 Z M 194.144531 175.8125 C 195.777344 173.371094 197.8125 178.261719 202.292969 178.261719 C 206.777344 178.261719 209.222656 177.035156 212.070312 175 C 214.925781 172.964844 208.003906 179.890625 203.519531 179.890625 C 199.039062 179.890625 192.925781 177.445312 194.144531 175.8125 Z M 194.144531 175.8125 "/>
<path style=" stroke:none;fill-rule:evenodd;fill:rgb(0%,0%,0%);fill-opacity:1;" d="M 208.003906 178.261719 C 213.296875 175.40625 210.039062 171.332031 208.003906 170.519531 C 208.816406 171.332031 212.070312 175.40625 208.003906 178.261719 Z M 185.183594 202.703125 C 187.628906 202.703125 188.445312 201.886719 191.703125 201.886719 C 194.964844 201.886719 202.703125 206.371094 207.183594 204.742188 C 197.8125 208.410156 201.480469 205.960938 185.183594 205.960938 L 183.148438 205.960938 Z M 208.816406 208.410156 C 207.183594 205.554688 207.589844 206.371094 204.335938 201.886719 C 207.589844 204.335938 208.410156 205.554688 208.816406 208.410156 Z M 185.183594 212.484375 C 195.371094 212.484375 193.738281 210.445312 207.183594 204.742188 C 197.40625 205.960938 195.371094 209.222656 185.183594 209.222656 L 183.148438 209.222656 Z M 185.183594 197.40625 C 188.039062 197.40625 188.851562 195.371094 192.109375 195.371094 C 195.371094 195.371094 199.855469 196.59375 201.886719 198.222656 C 202.292969 198.628906 200.667969 194.964844 197.40625 194.554688 C 194.144531 194.144531 195.371094 188.851562 191.703125 188.039062 C 191.703125 189.664062 192.925781 189.257812 193.332031 191.703125 C 193.332031 193.738281 189.664062 193.738281 188.851562 191.703125 C 189.664062 194.964844 187.222656 194.964844 185.183594 194.964844 Z M 185.183594 197.40625 "/>
<path style=" stroke:none;fill-rule:evenodd;fill:rgb(0%,0%,0%);fill-opacity:1;" d="M 152.1875 167.257812 C 155.035156 170.519531 156.667969 164.816406 166.851562 164.816406 C 177.035156 164.816406 178.667969 170.925781 180.292969 169.707031 C 181.929688 168.484375 171.738281 161.148438 168.484375 160.742188 C 165.222656 160.335938 155.855469 163.589844 152.1875 167.257812 Z M 163.996094 170.925781 C 161.148438 173.371094 163.589844 178.667969 166.445312 178.667969 C 169.296875 178.667969 174.59375 173.777344 172.144531 170.519531 Z M 163.996094 170.925781 "/>
<path style=" stroke:none;fill-rule:evenodd;fill:rgb(0%,0%,0%);fill-opacity:1;" d="M 177.445312 174.59375 C 177.035156 169.707031 172.964844 168.890625 166.445312 168.890625 C 159.929688 168.890625 157.074219 173.777344 154.628906 175 C 157.480469 175 159.929688 170.925781 166.445312 170.925781 C 172.964844 170.925781 172.964844 170.925781 177.445312 175 Z M 176.222656 175.8125 C 174.59375 173.371094 172.554688 178.261719 168.070312 178.261719 C 163.589844 178.261719 161.148438 177.035156 158.296875 175 C 155.445312 172.964844 162.371094 179.890625 166.851562 179.890625 C 171.332031 179.890625 177.445312 177.445312 176.222656 175.8125 Z M 176.222656 175.8125 "/>
<path style=" stroke:none;fill-rule:evenodd;fill:rgb(0%,0%,0%);fill-opacity:1;" d="M 162.371094 178.261719 C 157.074219 175.40625 160.335938 171.332031 162.371094 170.519531 C 161.554688 171.332031 158.296875 175.40625 162.371094 178.261719 Z M 185.183594 202.703125 C 182.742188 202.703125 181.929688 201.886719 178.667969 201.886719 C 175.40625 201.886719 167.664062 206.371094 163.183594 204.742188 C 172.554688 208.410156 168.890625 205.960938 185.183594 205.960938 L 187.222656 205.960938 Z M 161.554688 208.410156 C 163.183594 205.554688 162.777344 206.371094 166.039062 201.886719 C 162.777344 204.335938 161.960938 205.554688 161.554688 208.410156 Z M 185.183594 212.484375 C 175 212.484375 176.628906 210.445312 163.183594 204.742188 C 172.964844 205.960938 175 209.222656 185.183594 209.222656 L 187.222656 209.222656 Z M 185.183594 197.40625 C 182.335938 197.40625 181.515625 195.371094 178.261719 195.371094 C 175 195.371094 170.519531 196.59375 168.484375 198.222656 C 168.070312 198.628906 169.707031 194.964844 172.964844 194.554688 C 176.222656 194.144531 175 188.851562 178.667969 188.039062 C 178.667969 189.664062 177.445312 189.257812 177.035156 191.703125 C 177.035156 193.738281 180.703125 193.738281 181.515625 191.703125 C 180.703125 194.964844 183.148438 194.964844 185.183594 194.964844 Z M 185.183594 197.40625 "/>
<path style=" stroke:none;fill-rule:evenodd;fill:rgb(0%,0%,0%);fill-opacity:1;" d="M 185.183594 216.144531 C 183.148438 216.144531 177.855469 217.371094 185.183594 217.371094 C 192.519531 217.371094 187.222656 216.144531 185.183594 216.144531 Z M 185.183594 216.144531 "/>
</g>
</svg>
