<?xml version="1.0" encoding="UTF-8"?>
<svg xmlns="http://www.w3.org/2000/svg" xmlns:xlink="http://www.w3.org/1999/xlink" viewBox="0 0 1000 500" version="1.1">
<g id="surface1265">
<path style=" stroke:none;fill-rule:evenodd;fill:rgb(0%,59.999084%,70.979309%);fill-opacity:1;" d="M 0 0 L 1000 0 L 1000 160 L 0 160 Z M 0 0 "/>
<path style=" stroke:none;fill-rule:evenodd;fill:rgb(80.783081%,6.666565%,14.901733%);fill-opacity:1;" d="M 0 160 L 1000 160 L 1000 340 L 0 340 Z M 0 160 "/>
<path style=" stroke:none;fill-rule:evenodd;fill:rgb(99.998474%,99.998474%,99.998474%);fill-opacity:1;" d="M 0 170 L 1000 170 L 1000 330 L 0 330 Z M 0 170 "/>
<path style=" stroke:none;fill-rule:evenodd;fill:rgb(11.764526%,70.979309%,22.744751%);fill-opacity:1;" d="M 0 340 L 1000 340 L 1000 500 L 0 500 Z M 0 340 "/>
<path style=" stroke:none;fill-rule:evenodd;fill:rgb(99.998474%,99.998474%,99.998474%);fill-opacity:1;" d="M 200 80 C 200 113.136719 173.136719 140 140 140 C 106.863281 140 80 113.136719 80 80 C 80 46.863281 106.863281 20 140 20 C 173.136719 20 200 46.863281 200 80 Z M 200 80 "/>
<path style=" stroke:none;fill-rule:evenodd;fill:rgb(0%,59.999084%,70.979309%);fill-opacity:1;" d="M 220 80 C 220 113.136719 193.136719 140 160 140 C 126.863281 140 100 113.136719 100 80 C 100 46.863281 126.863281 20 160 20 C 193.136719 20 220 46.863281 220 80 Z M 220 80 "/>
<path style=" stroke:none;fill-rule:evenodd;fill:rgb(99.998474%,99.998474%,99.998474%);fill-opacity:1;" d="M 175.996094 115.996094 L 172.296875 127.414062 L 177.996094 129.265625 Z M 175.996094 115.996094 "/>
<path style=" stroke:none;fill-rule:evenodd;fill:rgb(99.998474%,99.998474%,99.998474%);fill-opacity:1;" d="M 175.996094 115.996094 L 179.707031 127.414062 L 174.003906 129.265625 Z M 175.996094 115.996094 "/>
<path style=" stroke:none;fill-rule:evenodd;fill:rgb(99.998474%,99.998474%,99.998474%);fill-opacity:1;" d="M 187.414062 124.289062 L 175.410156 124.289062 L 175.410156 130.292969 Z M 187.414062 124.289062 "/>
<path style=" stroke:none;fill-rule:evenodd;fill:rgb(99.998474%,99.998474%,99.998474%);fill-opacity:1;" d="M 187.414062 124.289062 L 177.703125 131.347656 L 174.179688 126.496094 Z M 187.414062 124.289062 "/>
<path style=" stroke:none;fill-rule:evenodd;fill:rgb(99.998474%,99.998474%,99.998474%);fill-opacity:1;" d="M 183.058594 137.703125 L 179.34375 126.300781 L 173.640625 128.15625 Z M 183.058594 137.703125 "/>
<path style=" stroke:none;fill-rule:evenodd;fill:rgb(99.998474%,99.998474%,99.998474%);fill-opacity:1;" d="M 183.058594 137.703125 L 173.351562 130.65625 L 176.875 125.800781 Z M 183.058594 137.703125 "/>
<path style=" stroke:none;fill-rule:evenodd;fill:rgb(99.998474%,99.998474%,99.998474%);fill-opacity:1;" d="M 168.945312 137.703125 L 178.652344 130.65625 L 175.128906 125.800781 Z M 168.945312 137.703125 "/>
<path style=" stroke:none;fill-rule:evenodd;fill:rgb(99.998474%,99.998474%,99.998474%);fill-opacity:1;" d="M 168.945312 137.703125 L 172.65625 126.300781 L 178.359375 128.15625 Z M 168.945312 137.703125 "/>
<path style=" stroke:none;fill-rule:evenodd;fill:rgb(99.998474%,99.998474%,99.998474%);fill-opacity:1;" d="M 164.589844 124.289062 L 174.296875 131.347656 L 177.824219 126.496094 Z M 164.589844 124.289062 "/>
<path style=" stroke:none;fill-rule:evenodd;fill:rgb(99.998474%,99.998474%,99.998474%);fill-opacity:1;" d="M 164.589844 124.289062 L 176.59375 124.289062 L 176.59375 130.292969 Z M 164.589844 124.289062 "/>
<path style=" stroke:none;fill-rule:evenodd;fill:rgb(99.998474%,99.998474%,99.998474%);fill-opacity:1;" d="M 224.003906 115.996094 L 220.292969 127.414062 L 225.996094 129.265625 Z M 224.003906 115.996094 "/>
<path style=" stroke:none;fill-rule:evenodd;fill:rgb(99.998474%,99.998474%,99.998474%);fill-opacity:1;" d="M 224.003906 115.996094 L 227.703125 127.414062 L 222.003906 129.265625 Z M 224.003906 115.996094 "/>
<path style=" stroke:none;fill-rule:evenodd;fill:rgb(99.998474%,99.998474%,99.998474%);fill-opacity:1;" d="M 235.410156 124.289062 L 223.40625 124.289062 L 223.40625 130.292969 Z M 235.410156 124.289062 "/>
<path style=" stroke:none;fill-rule:evenodd;fill:rgb(99.998474%,99.998474%,99.998474%);fill-opacity:1;" d="M 235.410156 124.289062 L 225.703125 131.347656 L 222.175781 126.496094 Z M 235.410156 124.289062 "/>
<path style=" stroke:none;fill-rule:evenodd;fill:rgb(99.998474%,99.998474%,99.998474%);fill-opacity:1;" d="M 231.054688 137.703125 L 227.34375 126.300781 L 221.640625 128.15625 Z M 231.054688 137.703125 "/>
<path style=" stroke:none;fill-rule:evenodd;fill:rgb(99.998474%,99.998474%,99.998474%);fill-opacity:1;" d="M 231.054688 137.703125 L 221.347656 130.65625 L 224.871094 125.800781 Z M 231.054688 137.703125 "/>
<path style=" stroke:none;fill-rule:evenodd;fill:rgb(99.998474%,99.998474%,99.998474%);fill-opacity:1;" d="M 216.941406 137.703125 L 226.648438 130.65625 L 223.125 125.800781 Z M 216.941406 137.703125 "/>
<path style=" stroke:none;fill-rule:evenodd;fill:rgb(99.998474%,99.998474%,99.998474%);fill-opacity:1;" d="M 216.941406 137.703125 L 220.65625 126.300781 L 226.359375 128.15625 Z M 216.941406 137.703125 "/>
<path style=" stroke:none;fill-rule:evenodd;fill:rgb(99.998474%,99.998474%,99.998474%);fill-opacity:1;" d="M 212.585938 124.289062 L 222.296875 131.347656 L 225.820312 126.496094 Z M 212.585938 124.289062 "/>
<path style=" stroke:none;fill-rule:evenodd;fill:rgb(99.998474%,99.998474%,99.998474%);fill-opacity:1;" d="M 212.585938 124.289062 L 224.589844 124.289062 L 224.589844 130.292969 Z M 212.585938 124.289062 "/>
<path style=" stroke:none;fill-rule:evenodd;fill:rgb(99.998474%,99.998474%,99.998474%);fill-opacity:1;" d="M 272.003906 115.996094 L 268.289062 127.414062 L 273.996094 129.265625 Z M 272.003906 115.996094 "/>
<path style=" stroke:none;fill-rule:evenodd;fill:rgb(99.998474%,99.998474%,99.998474%);fill-opacity:1;" d="M 272.003906 115.996094 L 275.710938 127.414062 L 270 129.265625 Z M 272.003906 115.996094 "/>
<path style=" stroke:none;fill-rule:evenodd;fill:rgb(99.998474%,99.998474%,99.998474%);fill-opacity:1;" d="M 283.40625 124.289062 L 271.414062 124.289062 L 271.414062 130.292969 Z M 283.40625 124.289062 "/>
<path style=" stroke:none;fill-rule:evenodd;fill:rgb(99.998474%,99.998474%,99.998474%);fill-opacity:1;" d="M 283.40625 124.289062 L 273.699219 131.347656 L 270.175781 126.496094 Z M 283.40625 124.289062 "/>
<path style=" stroke:none;fill-rule:evenodd;fill:rgb(99.998474%,99.998474%,99.998474%);fill-opacity:1;" d="M 279.050781 137.703125 L 275.34375 126.300781 L 269.636719 128.15625 Z M 279.050781 137.703125 "/>
<path style=" stroke:none;fill-rule:evenodd;fill:rgb(99.998474%,99.998474%,99.998474%);fill-opacity:1;" d="M 279.050781 137.703125 L 269.34375 130.65625 L 272.871094 125.800781 Z M 279.050781 137.703125 "/>
<path style=" stroke:none;fill-rule:evenodd;fill:rgb(99.998474%,99.998474%,99.998474%);fill-opacity:1;" d="M 264.949219 137.703125 L 274.65625 130.65625 L 271.132812 125.800781 Z M 264.949219 137.703125 "/>
<path style=" stroke:none;fill-rule:evenodd;fill:rgb(99.998474%,99.998474%,99.998474%);fill-opacity:1;" d="M 264.949219 137.703125 L 268.652344 126.300781 L 274.363281 128.15625 Z M 264.949219 137.703125 "/>
<path style=" stroke:none;fill-rule:evenodd;fill:rgb(99.998474%,99.998474%,99.998474%);fill-opacity:1;" d="M 260.585938 124.289062 L 270.292969 131.347656 L 273.816406 126.496094 Z M 260.585938 124.289062 "/>
<path style=" stroke:none;fill-rule:evenodd;fill:rgb(99.998474%,99.998474%,99.998474%);fill-opacity:1;" d="M 260.585938 124.289062 L 272.585938 124.289062 L 272.585938 130.292969 Z M 260.585938 124.289062 "/>
<path style=" stroke:none;fill-rule:evenodd;fill:rgb(99.998474%,99.998474%,99.998474%);fill-opacity:1;" d="M 320 115.996094 L 316.289062 127.414062 L 322.003906 129.265625 Z M 320 115.996094 "/>
<path style=" stroke:none;fill-rule:evenodd;fill:rgb(99.998474%,99.998474%,99.998474%);fill-opacity:1;" d="M 320 115.996094 L 323.710938 127.414062 L 317.996094 129.265625 Z M 320 115.996094 "/>
<path style=" stroke:none;fill-rule:evenodd;fill:rgb(99.998474%,99.998474%,99.998474%);fill-opacity:1;" d="M 331.414062 124.289062 L 319.414062 124.289062 L 319.414062 130.292969 Z M 331.414062 124.289062 "/>
<path style=" stroke:none;fill-rule:evenodd;fill:rgb(99.998474%,99.998474%,99.998474%);fill-opacity:1;" d="M 331.414062 124.289062 L 321.710938 131.347656 L 318.175781 126.496094 Z M 331.414062 124.289062 "/>
<path style=" stroke:none;fill-rule:evenodd;fill:rgb(99.998474%,99.998474%,99.998474%);fill-opacity:1;" d="M 327.050781 137.703125 L 323.351562 126.300781 L 317.636719 128.15625 Z M 327.050781 137.703125 "/>
<path style=" stroke:none;fill-rule:evenodd;fill:rgb(99.998474%,99.998474%,99.998474%);fill-opacity:1;" d="M 327.050781 137.703125 L 317.34375 130.65625 L 320.871094 125.800781 Z M 327.050781 137.703125 "/>
<path style=" stroke:none;fill-rule:evenodd;fill:rgb(99.998474%,99.998474%,99.998474%);fill-opacity:1;" d="M 312.949219 137.703125 L 322.65625 130.65625 L 319.128906 125.800781 Z M 312.949219 137.703125 "/>
<path style=" stroke:none;fill-rule:evenodd;fill:rgb(99.998474%,99.998474%,99.998474%);fill-opacity:1;" d="M 312.949219 137.703125 L 316.648438 126.300781 L 322.363281 128.15625 Z M 312.949219 137.703125 "/>
<path style=" stroke:none;fill-rule:evenodd;fill:rgb(99.998474%,99.998474%,99.998474%);fill-opacity:1;" d="M 308.585938 124.289062 L 318.289062 131.347656 L 321.824219 126.496094 Z M 308.585938 124.289062 "/>
<path style=" stroke:none;fill-rule:evenodd;fill:rgb(99.998474%,99.998474%,99.998474%);fill-opacity:1;" d="M 308.585938 124.289062 L 320.585938 124.289062 L 320.585938 130.292969 Z M 308.585938 124.289062 "/>
<path style=" stroke:none;fill-rule:evenodd;fill:rgb(99.998474%,99.998474%,99.998474%);fill-opacity:1;" d="M 367.996094 115.996094 L 364.289062 127.414062 L 370 129.265625 Z M 367.996094 115.996094 "/>
<path style=" stroke:none;fill-rule:evenodd;fill:rgb(99.998474%,99.998474%,99.998474%);fill-opacity:1;" d="M 367.996094 115.996094 L 371.710938 127.414062 L 366.003906 129.265625 Z M 367.996094 115.996094 "/>
<path style=" stroke:none;fill-rule:evenodd;fill:rgb(99.998474%,99.998474%,99.998474%);fill-opacity:1;" d="M 379.414062 124.289062 L 367.414062 124.289062 L 367.414062 130.292969 Z M 379.414062 124.289062 "/>
<path style=" stroke:none;fill-rule:evenodd;fill:rgb(99.998474%,99.998474%,99.998474%);fill-opacity:1;" d="M 379.414062 124.289062 L 369.707031 131.347656 L 366.183594 126.496094 Z M 379.414062 124.289062 "/>
<path style=" stroke:none;fill-rule:evenodd;fill:rgb(99.998474%,99.998474%,99.998474%);fill-opacity:1;" d="M 375.050781 137.703125 L 371.347656 126.300781 L 365.636719 128.15625 Z M 375.050781 137.703125 "/>
<path style=" stroke:none;fill-rule:evenodd;fill:rgb(99.998474%,99.998474%,99.998474%);fill-opacity:1;" d="M 375.050781 137.703125 L 365.34375 130.65625 L 368.867188 125.800781 Z M 375.050781 137.703125 "/>
<path style=" stroke:none;fill-rule:evenodd;fill:rgb(99.998474%,99.998474%,99.998474%);fill-opacity:1;" d="M 360.949219 137.703125 L 370.65625 130.65625 L 367.128906 125.800781 Z M 360.949219 137.703125 "/>
<path style=" stroke:none;fill-rule:evenodd;fill:rgb(99.998474%,99.998474%,99.998474%);fill-opacity:1;" d="M 360.949219 137.703125 L 364.65625 126.300781 L 370.363281 128.15625 Z M 360.949219 137.703125 "/>
<path style=" stroke:none;fill-rule:evenodd;fill:rgb(99.998474%,99.998474%,99.998474%);fill-opacity:1;" d="M 356.59375 124.289062 L 366.300781 131.347656 L 369.824219 126.496094 Z M 356.59375 124.289062 "/>
<path style=" stroke:none;fill-rule:evenodd;fill:rgb(99.998474%,99.998474%,99.998474%);fill-opacity:1;" d="M 356.59375 124.289062 L 368.585938 124.289062 L 368.585938 130.292969 Z M 356.59375 124.289062 "/>
<path style=" stroke:none;fill-rule:evenodd;fill:rgb(99.998474%,99.998474%,99.998474%);fill-opacity:1;" d="M 224.003906 67.996094 L 220.292969 79.414062 L 225.996094 81.269531 Z M 224.003906 67.996094 "/>
<path style=" stroke:none;fill-rule:evenodd;fill:rgb(99.998474%,99.998474%,99.998474%);fill-opacity:1;" d="M 224.003906 67.996094 L 227.703125 79.414062 L 222.003906 81.269531 Z M 224.003906 67.996094 "/>
<path style=" stroke:none;fill-rule:evenodd;fill:rgb(99.998474%,99.998474%,99.998474%);fill-opacity:1;" d="M 235.410156 76.289062 L 223.40625 76.289062 L 223.40625 82.296875 Z M 235.410156 76.289062 "/>
<path style=" stroke:none;fill-rule:evenodd;fill:rgb(99.998474%,99.998474%,99.998474%);fill-opacity:1;" d="M 235.410156 76.289062 L 225.703125 83.351562 L 222.175781 78.488281 Z M 235.410156 76.289062 "/>
<path style=" stroke:none;fill-rule:evenodd;fill:rgb(99.998474%,99.998474%,99.998474%);fill-opacity:1;" d="M 231.054688 89.707031 L 227.34375 78.289062 L 221.640625 80.148438 Z M 231.054688 89.707031 "/>
<path style=" stroke:none;fill-rule:evenodd;fill:rgb(99.998474%,99.998474%,99.998474%);fill-opacity:1;" d="M 231.054688 89.707031 L 221.347656 82.65625 L 224.871094 77.800781 Z M 231.054688 89.707031 "/>
<path style=" stroke:none;fill-rule:evenodd;fill:rgb(99.998474%,99.998474%,99.998474%);fill-opacity:1;" d="M 216.941406 89.707031 L 226.648438 82.65625 L 223.125 77.800781 Z M 216.941406 89.707031 "/>
<path style=" stroke:none;fill-rule:evenodd;fill:rgb(99.998474%,99.998474%,99.998474%);fill-opacity:1;" d="M 216.941406 89.707031 L 220.65625 78.289062 L 226.359375 80.148438 Z M 216.941406 89.707031 "/>
<path style=" stroke:none;fill-rule:evenodd;fill:rgb(99.998474%,99.998474%,99.998474%);fill-opacity:1;" d="M 212.585938 76.289062 L 222.296875 83.351562 L 225.820312 78.488281 Z M 212.585938 76.289062 "/>
<path style=" stroke:none;fill-rule:evenodd;fill:rgb(99.998474%,99.998474%,99.998474%);fill-opacity:1;" d="M 212.585938 76.289062 L 224.589844 76.289062 L 224.589844 82.296875 Z M 212.585938 76.289062 "/>
<path style=" stroke:none;fill-rule:evenodd;fill:rgb(99.998474%,99.998474%,99.998474%);fill-opacity:1;" d="M 272.003906 67.996094 L 268.289062 79.414062 L 273.996094 81.269531 Z M 272.003906 67.996094 "/>
<path style=" stroke:none;fill-rule:evenodd;fill:rgb(99.998474%,99.998474%,99.998474%);fill-opacity:1;" d="M 272.003906 67.996094 L 275.710938 79.414062 L 270 81.269531 Z M 272.003906 67.996094 "/>
<path style=" stroke:none;fill-rule:evenodd;fill:rgb(99.998474%,99.998474%,99.998474%);fill-opacity:1;" d="M 283.40625 76.289062 L 271.414062 76.289062 L 271.414062 82.296875 Z M 283.40625 76.289062 "/>
<path style=" stroke:none;fill-rule:evenodd;fill:rgb(99.998474%,99.998474%,99.998474%);fill-opacity:1;" d="M 283.40625 76.289062 L 273.699219 83.351562 L 270.175781 78.488281 Z M 283.40625 76.289062 "/>
<path style=" stroke:none;fill-rule:evenodd;fill:rgb(99.998474%,99.998474%,99.998474%);fill-opacity:1;" d="M 279.050781 89.707031 L 275.34375 78.289062 L 269.636719 80.148438 Z M 279.050781 89.707031 "/>
<path style=" stroke:none;fill-rule:evenodd;fill:rgb(99.998474%,99.998474%,99.998474%);fill-opacity:1;" d="M 279.050781 89.707031 L 269.34375 82.65625 L 272.871094 77.800781 Z M 279.050781 89.707031 "/>
<path style=" stroke:none;fill-rule:evenodd;fill:rgb(99.998474%,99.998474%,99.998474%);fill-opacity:1;" d="M 264.949219 89.707031 L 274.65625 82.65625 L 271.132812 77.800781 Z M 264.949219 89.707031 "/>
<path style=" stroke:none;fill-rule:evenodd;fill:rgb(99.998474%,99.998474%,99.998474%);fill-opacity:1;" d="M 264.949219 89.707031 L 268.652344 78.289062 L 274.363281 80.148438 Z M 264.949219 89.707031 "/>
<path style=" stroke:none;fill-rule:evenodd;fill:rgb(99.998474%,99.998474%,99.998474%);fill-opacity:1;" d="M 260.585938 76.289062 L 270.292969 83.351562 L 273.816406 78.488281 Z M 260.585938 76.289062 "/>
<path style=" stroke:none;fill-rule:evenodd;fill:rgb(99.998474%,99.998474%,99.998474%);fill-opacity:1;" d="M 260.585938 76.289062 L 272.585938 76.289062 L 272.585938 82.296875 Z M 260.585938 76.289062 "/>
<path style=" stroke:none;fill-rule:evenodd;fill:rgb(99.998474%,99.998474%,99.998474%);fill-opacity:1;" d="M 320 67.996094 L 316.289062 79.414062 L 322.003906 81.269531 Z M 320 67.996094 "/>
<path style=" stroke:none;fill-rule:evenodd;fill:rgb(99.998474%,99.998474%,99.998474%);fill-opacity:1;" d="M 320 67.996094 L 323.710938 79.414062 L 317.996094 81.269531 Z M 320 67.996094 "/>
<path style=" stroke:none;fill-rule:evenodd;fill:rgb(99.998474%,99.998474%,99.998474%);fill-opacity:1;" d="M 331.414062 76.289062 L 319.414062 76.289062 L 319.414062 82.296875 Z M 331.414062 76.289062 "/>
<path style=" stroke:none;fill-rule:evenodd;fill:rgb(99.998474%,99.998474%,99.998474%);fill-opacity:1;" d="M 331.414062 76.289062 L 321.710938 83.351562 L 318.175781 78.488281 Z M 331.414062 76.289062 "/>
<path style=" stroke:none;fill-rule:evenodd;fill:rgb(99.998474%,99.998474%,99.998474%);fill-opacity:1;" d="M 327.050781 89.707031 L 323.351562 78.289062 L 317.636719 80.148438 Z M 327.050781 89.707031 "/>
<path style=" stroke:none;fill-rule:evenodd;fill:rgb(99.998474%,99.998474%,99.998474%);fill-opacity:1;" d="M 327.050781 89.707031 L 317.34375 82.65625 L 320.871094 77.800781 Z M 327.050781 89.707031 "/>
<path style=" stroke:none;fill-rule:evenodd;fill:rgb(99.998474%,99.998474%,99.998474%);fill-opacity:1;" d="M 312.949219 89.707031 L 322.65625 82.65625 L 319.128906 77.800781 Z M 312.949219 89.707031 "/>
<path style=" stroke:none;fill-rule:evenodd;fill:rgb(99.998474%,99.998474%,99.998474%);fill-opacity:1;" d="M 312.949219 89.707031 L 316.648438 78.289062 L 322.363281 80.148438 Z M 312.949219 89.707031 "/>
<path style=" stroke:none;fill-rule:evenodd;fill:rgb(99.998474%,99.998474%,99.998474%);fill-opacity:1;" d="M 308.585938 76.289062 L 318.289062 83.351562 L 321.824219 78.488281 Z M 308.585938 76.289062 "/>
<path style=" stroke:none;fill-rule:evenodd;fill:rgb(99.998474%,99.998474%,99.998474%);fill-opacity:1;" d="M 308.585938 76.289062 L 320.585938 76.289062 L 320.585938 82.296875 Z M 308.585938 76.289062 "/>
<path style=" stroke:none;fill-rule:evenodd;fill:rgb(99.998474%,99.998474%,99.998474%);fill-opacity:1;" d="M 367.996094 67.996094 L 364.289062 79.414062 L 370 81.269531 Z M 367.996094 67.996094 "/>
<path style=" stroke:none;fill-rule:evenodd;fill:rgb(99.998474%,99.998474%,99.998474%);fill-opacity:1;" d="M 367.996094 67.996094 L 371.710938 79.414062 L 366.003906 81.269531 Z M 367.996094 67.996094 "/>
<path style=" stroke:none;fill-rule:evenodd;fill:rgb(99.998474%,99.998474%,99.998474%);fill-opacity:1;" d="M 379.414062 76.289062 L 367.414062 76.289062 L 367.414062 82.296875 Z M 379.414062 76.289062 "/>
<path style=" stroke:none;fill-rule:evenodd;fill:rgb(99.998474%,99.998474%,99.998474%);fill-opacity:1;" d="M 379.414062 76.289062 L 369.707031 83.351562 L 366.183594 78.488281 Z M 379.414062 76.289062 "/>
<path style=" stroke:none;fill-rule:evenodd;fill:rgb(99.998474%,99.998474%,99.998474%);fill-opacity:1;" d="M 375.050781 89.707031 L 371.347656 78.289062 L 365.636719 80.148438 Z M 375.050781 89.707031 "/>
<path style=" stroke:none;fill-rule:evenodd;fill:rgb(99.998474%,99.998474%,99.998474%);fill-opacity:1;" d="M 375.050781 89.707031 L 365.34375 82.65625 L 368.867188 77.800781 Z M 375.050781 89.707031 "/>
<path style=" stroke:none;fill-rule:evenodd;fill:rgb(99.998474%,99.998474%,99.998474%);fill-opacity:1;" d="M 360.949219 89.707031 L 370.65625 82.65625 L 367.128906 77.800781 Z M 360.949219 89.707031 "/>
<path style=" stroke:none;fill-rule:evenodd;fill:rgb(99.998474%,99.998474%,99.998474%);fill-opacity:1;" d="M 360.949219 89.707031 L 364.65625 78.289062 L 370.363281 80.148438 Z M 360.949219 89.707031 "/>
<path style=" stroke:none;fill-rule:evenodd;fill:rgb(99.998474%,99.998474%,99.998474%);fill-opacity:1;" d="M 356.59375 76.289062 L 366.300781 83.351562 L 369.824219 78.488281 Z M 356.59375 76.289062 "/>
<path style=" stroke:none;fill-rule:evenodd;fill:rgb(99.998474%,99.998474%,99.998474%);fill-opacity:1;" d="M 356.59375 76.289062 L 368.585938 76.289062 L 368.585938 82.296875 Z M 356.59375 76.289062 "/>
<path style=" stroke:none;fill-rule:evenodd;fill:rgb(99.998474%,99.998474%,99.998474%);fill-opacity:1;" d="M 272.003906 20 L 268.289062 31.414062 L 273.996094 33.273438 Z M 272.003906 20 "/>
<path style=" stroke:none;fill-rule:evenodd;fill:rgb(99.998474%,99.998474%,99.998474%);fill-opacity:1;" d="M 272.003906 20 L 275.710938 31.414062 L 270 33.273438 Z M 272.003906 20 "/>
<path style=" stroke:none;fill-rule:evenodd;fill:rgb(99.998474%,99.998474%,99.998474%);fill-opacity:1;" d="M 283.40625 28.289062 L 271.414062 28.289062 L 271.414062 34.289062 Z M 283.40625 28.289062 "/>
<path style=" stroke:none;fill-rule:evenodd;fill:rgb(99.998474%,99.998474%,99.998474%);fill-opacity:1;" d="M 283.40625 28.289062 L 273.699219 35.34375 L 270.175781 30.488281 Z M 283.40625 28.289062 "/>
<path style=" stroke:none;fill-rule:evenodd;fill:rgb(99.998474%,99.998474%,99.998474%);fill-opacity:1;" d="M 279.050781 41.710938 L 275.34375 30.292969 L 269.636719 32.148438 Z M 279.050781 41.710938 "/>
<path style=" stroke:none;fill-rule:evenodd;fill:rgb(99.998474%,99.998474%,99.998474%);fill-opacity:1;" d="M 279.050781 41.710938 L 269.34375 34.65625 L 272.871094 29.804688 Z M 279.050781 41.710938 "/>
<path style=" stroke:none;fill-rule:evenodd;fill:rgb(99.998474%,99.998474%,99.998474%);fill-opacity:1;" d="M 264.949219 41.710938 L 274.65625 34.65625 L 271.132812 29.804688 Z M 264.949219 41.710938 "/>
<path style=" stroke:none;fill-rule:evenodd;fill:rgb(99.998474%,99.998474%,99.998474%);fill-opacity:1;" d="M 264.949219 41.710938 L 268.652344 30.292969 L 274.363281 32.148438 Z M 264.949219 41.710938 "/>
<path style=" stroke:none;fill-rule:evenodd;fill:rgb(99.998474%,99.998474%,99.998474%);fill-opacity:1;" d="M 260.585938 28.289062 L 270.292969 35.34375 L 273.816406 30.488281 Z M 260.585938 28.289062 "/>
<path style=" stroke:none;fill-rule:evenodd;fill:rgb(99.998474%,99.998474%,99.998474%);fill-opacity:1;" d="M 260.585938 28.289062 L 272.585938 28.289062 L 272.585938 34.289062 Z M 260.585938 28.289062 "/>
<path style=" stroke:none;fill-rule:evenodd;fill:rgb(99.998474%,99.998474%,99.998474%);fill-opacity:1;" d="M 320 20 L 316.289062 31.414062 L 322.003906 33.273438 Z M 320 20 "/>
<path style=" stroke:none;fill-rule:evenodd;fill:rgb(99.998474%,99.998474%,99.998474%);fill-opacity:1;" d="M 320 20 L 323.710938 31.414062 L 317.996094 33.273438 Z M 320 20 "/>
<path style=" stroke:none;fill-rule:evenodd;fill:rgb(99.998474%,99.998474%,99.998474%);fill-opacity:1;" d="M 331.414062 28.289062 L 319.414062 28.289062 L 319.414062 34.289062 Z M 331.414062 28.289062 "/>
<path style=" stroke:none;fill-rule:evenodd;fill:rgb(99.998474%,99.998474%,99.998474%);fill-opacity:1;" d="M 331.414062 28.289062 L 321.710938 35.34375 L 318.175781 30.488281 Z M 331.414062 28.289062 "/>
<path style=" stroke:none;fill-rule:evenodd;fill:rgb(99.998474%,99.998474%,99.998474%);fill-opacity:1;" d="M 327.050781 41.710938 L 323.351562 30.292969 L 317.636719 32.148438 Z M 327.050781 41.710938 "/>
<path style=" stroke:none;fill-rule:evenodd;fill:rgb(99.998474%,99.998474%,99.998474%);fill-opacity:1;" d="M 327.050781 41.710938 L 317.34375 34.65625 L 320.871094 29.804688 Z M 327.050781 41.710938 "/>
<path style=" stroke:none;fill-rule:evenodd;fill:rgb(99.998474%,99.998474%,99.998474%);fill-opacity:1;" d="M 312.949219 41.710938 L 322.65625 34.65625 L 319.128906 29.804688 Z M 312.949219 41.710938 "/>
<path style=" stroke:none;fill-rule:evenodd;fill:rgb(99.998474%,99.998474%,99.998474%);fill-opacity:1;" d="M 312.949219 41.710938 L 316.648438 30.292969 L 322.363281 32.148438 Z M 312.949219 41.710938 "/>
<path style=" stroke:none;fill-rule:evenodd;fill:rgb(99.998474%,99.998474%,99.998474%);fill-opacity:1;" d="M 308.585938 28.289062 L 318.289062 35.34375 L 321.824219 30.488281 Z M 308.585938 28.289062 "/>
<path style=" stroke:none;fill-rule:evenodd;fill:rgb(99.998474%,99.998474%,99.998474%);fill-opacity:1;" d="M 308.585938 28.289062 L 320.585938 28.289062 L 320.585938 34.289062 Z M 308.585938 28.289062 "/>
<path style=" stroke:none;fill-rule:evenodd;fill:rgb(99.998474%,99.998474%,99.998474%);fill-opacity:1;" d="M 367.996094 20 L 364.289062 31.414062 L 370 33.273438 Z M 367.996094 20 "/>
<path style=" stroke:none;fill-rule:evenodd;fill:rgb(99.998474%,99.998474%,99.998474%);fill-opacity:1;" d="M 367.996094 20 L 371.710938 31.414062 L 366.003906 33.273438 Z M 367.996094 20 "/>
<path style=" stroke:none;fill-rule:evenodd;fill:rgb(99.998474%,99.998474%,99.998474%);fill-opacity:1;" d="M 379.414062 28.289062 L 367.414062 28.289062 L 367.414062 34.289062 Z M 379.414062 28.289062 "/>
<path style=" stroke:none;fill-rule:evenodd;fill:rgb(99.998474%,99.998474%,99.998474%);fill-opacity:1;" d="M 379.414062 28.289062 L 369.707031 35.34375 L 366.183594 30.488281 Z M 379.414062 28.289062 "/>
<path style=" stroke:none;fill-rule:evenodd;fill:rgb(99.998474%,99.998474%,99.998474%);fill-opacity:1;" d="M 375.050781 41.710938 L 371.347656 30.292969 L 365.636719 32.148438 Z M 375.050781 41.710938 "/>
<path style=" stroke:none;fill-rule:evenodd;fill:rgb(99.998474%,99.998474%,99.998474%);fill-opacity:1;" d="M 375.050781 41.710938 L 365.34375 34.65625 L 368.867188 29.804688 Z M 375.050781 41.710938 "/>
<path style=" stroke:none;fill-rule:evenodd;fill:rgb(99.998474%,99.998474%,99.998474%);fill-opacity:1;" d="M 360.949219 41.710938 L 370.65625 34.65625 L 367.128906 29.804688 Z M 360.949219 41.710938 "/>
<path style=" stroke:none;fill-rule:evenodd;fill:rgb(99.998474%,99.998474%,99.998474%);fill-opacity:1;" d="M 360.949219 41.710938 L 364.65625 30.292969 L 370.363281 32.148438 Z M 360.949219 41.710938 "/>
<path style=" stroke:none;fill-rule:evenodd;fill:rgb(99.998474%,99.998474%,99.998474%);fill-opacity:1;" d="M 356.59375 28.289062 L 366.300781 35.34375 L 369.824219 30.488281 Z M 356.59375 28.289062 "/>
<path style=" stroke:none;fill-rule:evenodd;fill:rgb(99.998474%,99.998474%,99.998474%);fill-opacity:1;" d="M 356.59375 28.289062 L 368.585938 28.289062 L 368.585938 34.289062 Z M 356.59375 28.289062 "/>
</g>
</svg>
