<?xml version="1.0" encoding="UTF-8"?>
<svg xmlns="http://www.w3.org/2000/svg" xmlns:xlink="http://www.w3.org/1999/xlink" viewBox="0 0 1000 667" version="1.1">
<defs>
<clipPath id="clip1">
  <path d="M 0 0 L 1000 0 L 1000 666.71875 L 0 666.71875 Z M 0 0 "/>
</clipPath>
<clipPath id="clip2">
  <path d="M 880 238 L 1000 238 L 1000 666.71875 L 880 666.71875 Z M 880 238 "/>
</clipPath>
<clipPath id="clip3">
  <path d="M 761 238 L 881 238 L 881 666.71875 L 761 666.71875 Z M 761 238 "/>
</clipPath>
<clipPath id="clip4">
  <path d="M 642 238 L 762 238 L 762 666.71875 L 642 666.71875 Z M 642 238 "/>
</clipPath>
</defs>
<g id="surface1319">
<g clip-path="url(#clip1)" clip-rule="nonzero">
<path style=" stroke:none;fill-rule:evenodd;fill:rgb(9.803772%,54.116821%,0%);fill-opacity:1;" d="M 0 666.667969 L 0 0 L 1000 0 L 1000 666.667969 Z M 0 666.667969 "/>
</g>
<g clip-path="url(#clip2)" clip-rule="nonzero">
<path style=" stroke:none;fill-rule:evenodd;fill:rgb(93.72406%,49.01886%,0%);fill-opacity:1;" d="M 880.953125 238.09375 L 1000 238.09375 L 1000 666.667969 L 880.953125 666.667969 Z M 880.953125 238.09375 "/>
</g>
<g clip-path="url(#clip3)" clip-rule="nonzero">
<path style=" stroke:none;fill-rule:evenodd;fill:rgb(0%,0%,0%);fill-opacity:1;" d="M 761.90625 238.09375 L 880.953125 238.09375 L 880.953125 666.667969 L 761.90625 666.667969 Z M 761.90625 238.09375 "/>
</g>
<g clip-path="url(#clip4)" clip-rule="nonzero">
<path style=" stroke:none;fill-rule:evenodd;fill:rgb(87.057495%,12.548828%,6.274414%);fill-opacity:1;" d="M 642.855469 238.09375 L 761.90625 238.09375 L 761.90625 666.667969 L 642.855469 666.667969 Z M 642.855469 238.09375 "/>
</g>
<path style="fill-rule:evenodd;fill:rgb(93.72406%,49.01886%,0%);fill-opacity:1;stroke-width:1.071429;stroke-linecap:butt;stroke-linejoin:miter;stroke:rgb(0%,0%,0%);stroke-opacity:1;stroke-miterlimit:4;" d="M 912.582031 80.160156 C 912.582031 80.160156 953.535156 64.109375 957.503906 60.800781 C 959.308594 62.785156 941.085938 82.972656 905.726562 90.417969 C 937.839844 83.46875 965.261719 61.625 970.855469 62.289062 C 972.480469 62.617188 972.117188 83.632812 898.511719 101.835938 C 949.386719 89.589844 978.972656 67.085938 978.613281 69.570312 C 978.972656 70.066406 973.5625 87.273438 929 100.675781 C 941.449219 98.03125 975.183594 79.167969 974.824219 82.808594 C 975.90625 84.296875 942.171875 124.007812 881.191406 111.101562 C 929.902344 122.683594 961.472656 94.71875 965.984375 95.21875 C 966.886719 95.382812 956.964844 119.707031 895.625 121.195312 C 925.03125 118.382812 916.554688 121.03125 916.554688 121.03125 C 916.554688 121.03125 899.234375 133.441406 878.304688 125.003906 C 894.722656 129.140625 896.527344 129.304688 896.886719 130.625 C 895.804688 132.28125 882.277344 134.761719 869.285156 128.3125 C 879.75 132.28125 889.128906 132.945312 889.308594 134.433594 C 889.128906 134.929688 882.453125 138.40625 876.5 135.921875 C 870.546875 133.441406 815.703125 102.496094 815.703125 102.496094 L 909.15625 79 Z M 912.582031 80.160156 "/>
<path style="fill-rule:evenodd;fill:rgb(93.72406%,49.01886%,0%);fill-opacity:1;stroke-width:1.071429;stroke-linecap:butt;stroke-linejoin:miter;stroke:rgb(0%,0%,0%);stroke-opacity:1;stroke-miterlimit:4;" d="M 802.71875 163.859375 C 794.503906 163.859375 794.277344 170.566406 794.277344 170.566406 C 794.277344 170.566406 793.597656 171.050781 794.050781 174.300781 C 795.40625 172.089844 796.085938 171.394531 796.085938 171.394531 C 796.992188 171.535156 800.761719 172.574219 806.714844 168.285156 C 801.289062 173.46875 804.527344 175.40625 804.527344 175.40625 C 804.527344 175.40625 803.25 179.488281 807.394531 180.316406 C 806.113281 178.65625 806.867188 177.207031 806.867188 177.207031 C 806.867188 177.207031 812.671875 176.652344 812.296875 170.152344 C 812.523438 176.03125 815.988281 177.480469 815.988281 177.480469 C 815.988281 177.480469 815.988281 180.730469 819.757812 181.007812 C 817.722656 179.347656 818.175781 176.789062 818.175781 176.789062 C 818.175781 176.789062 823.078125 173.539062 818.929688 168.007812 C 821.417969 166.695312 823.453125 163.03125 823.453125 163.03125 C 823.453125 163.03125 820.0625 161.714844 818.476562 160.609375 C 817.722656 159.15625 818.402344 151.203125 818.402344 151.203125 L 816.367188 140.902344 L 810.5625 156.945312 C 810.785156 154.660156 810.9375 163.859375 802.71875 163.859375 Z M 802.71875 163.859375 "/>
<path style="fill-rule:evenodd;fill:rgb(93.72406%,49.01886%,0%);fill-opacity:1;stroke-width:1.071429;stroke-linecap:butt;stroke-linejoin:miter;stroke:rgb(0%,0%,0%);stroke-opacity:1;stroke-miterlimit:4;" d="M 843.304688 140.71875 C 843.488281 140.886719 849.441406 147.011719 855.214844 146.675781 C 857.378906 145.023438 850.703125 141.382812 850.703125 140.554688 C 853.046875 142.542969 862.96875 150.320312 869.285156 147.503906 C 871.808594 144.195312 864.773438 144.691406 857.015625 135.757812 C 862.429688 139.066406 875.960938 146.347656 882.277344 143.535156 C 884.980469 140.886719 868.203125 132.613281 862.609375 126.160156 L 848.175781 119.375 L 828.511719 134.101562 Z M 843.304688 140.71875 "/>
<path style="fill-rule:evenodd;fill:rgb(93.72406%,49.01886%,0%);fill-opacity:1;stroke-width:1.071429;stroke-linecap:butt;stroke-linejoin:miter;stroke:rgb(0%,0%,0%);stroke-opacity:1;stroke-miterlimit:4;" d="M 821.117188 90.417969 C 821.117188 90.417969 827.792969 86.777344 854.492188 88.597656 C 857.378906 88.929688 872.710938 83.800781 877.582031 82.308594 C 885.34375 80.988281 910.054688 76.023438 916.730469 71.390625 C 921.421875 70.894531 915.46875 79.332031 909.515625 81.316406 C 903.203125 83.964844 880.289062 91.246094 872.171875 90.253906 C 881.914062 90.417969 876.5 97.699219 860.265625 94.222656 C 868.023438 98.195312 865.136719 98.859375 865.136719 98.859375 C 865.136719 98.859375 851.425781 99.519531 847.816406 96.707031 C 857.015625 99.851562 853.230469 101.007812 853.230469 101.007812 C 853.230469 101.007812 843.847656 101.835938 839.519531 100.015625 C 846.191406 101.835938 842.765625 102.996094 842.765625 102.996094 C 842.765625 102.996094 837.355469 103.824219 832.84375 102.332031 C 828.332031 100.84375 821.476562 90.417969 821.117188 90.417969 Z M 821.117188 90.417969 "/>
<path style="fill-rule:evenodd;fill:rgb(93.72406%,49.01886%,0%);fill-opacity:1;stroke-width:1.071429;stroke-linecap:butt;stroke-linejoin:miter;stroke:rgb(0%,0%,0%);stroke-opacity:1;stroke-miterlimit:4;" d="M 831.820312 144.148438 L 832.804688 160.332031 C 832.804688 160.332031 832.277344 161.164062 831.820312 161.644531 C 831.371094 162.128906 819.304688 159.917969 820.964844 168.355469 C 820.964844 171.8125 821.039062 172.710938 823.605469 174.644531 C 822.925781 172.367188 823.152344 170.773438 823.152344 170.773438 C 823.152344 170.773438 826.542969 172.640625 829.863281 167.523438 C 827.601562 172.574219 829.183594 174.371094 829.710938 174.507812 C 830.238281 175.410156 828.804688 179.488281 833.332031 179.417969 C 831.597656 177.898438 832.425781 175.683594 832.425781 175.683594 C 832.425781 175.683594 837.175781 174.992188 835.515625 167.109375 C 837.25 165.519531 837.929688 167.042969 837.929688 167.042969 C 837.929688 167.042969 838.457031 171.742188 842.605469 170.773438 C 844.488281 171.742188 842.304688 174.300781 842.304688 174.300781 C 842.304688 174.300781 845.316406 174.371094 846.222656 172.019531 C 847.128906 169.667969 848.183594 165.449219 843.207031 163.722656 C 842.605469 162.0625 845.167969 161.921875 845.167969 161.921875 C 845.167969 161.921875 848.335938 162.890625 849.238281 164.34375 C 850.144531 165.792969 849.839844 160.539062 845.921875 159.984375 C 841.097656 159.847656 840.792969 158.949219 840.792969 158.742188 C 840.792969 158.535156 839.964844 146.988281 839.589844 143.667969 Z M 831.820312 144.148438 "/>
<path style="fill-rule:evenodd;fill:rgb(93.72406%,49.01886%,0%);fill-opacity:1;stroke-width:1.071429;stroke-linecap:butt;stroke-linejoin:miter;stroke:rgb(0%,0%,0%);stroke-opacity:1;stroke-miterlimit:4;" d="M 848.605469 157.941406 C 848.664062 157.199219 840.375 146.960938 842.476562 145.636719 C 844.578125 146.035156 848.027344 150.691406 850.820312 149.179688 C 849.972656 147.363281 847.476562 148.386719 844.644531 143.738281 C 841.8125 138.484375 841.398438 130.597656 831.476562 121.996094 C 837.898438 131.101562 852.472656 136.433594 853.089844 133.78125 C 853.707031 131.125 840.257812 121.089844 840.945312 118.671875 C 843.621094 123.640625 857.125 134.707031 867.074219 133.792969 C 867.753906 131.660156 858.925781 127.359375 856.65625 123.34375 C 850.296875 119.425781 833.289062 105.980469 832.949219 102.863281 C 826.761719 94.582031 822.894531 92.078125 821.097656 91.121094 C 820.402344 90.371094 820.226562 89.65625 820.089844 89.199219 C 816.25 80.890625 821.339844 78.191406 824.316406 77.792969 C 826.765625 77.542969 827.480469 77.882812 829.242188 77.097656 C 827.15625 76.347656 825.066406 75.644531 822.980469 74.898438 C 825.703125 76.730469 832.65625 75.117188 831.148438 80.390625 C 834.199219 79.328125 840.6875 72.246094 823.796875 70.648438 C 818.296875 64.863281 795.695312 61.542969 790.039062 86.785156 C 790.488281 87.140625 790.726562 87.433594 792.164062 88.417969 C 785.027344 85.246094 765.773438 82.796875 758.835938 81.769531 C 740.089844 76.808594 720.625 64.855469 718.753906 66.324219 C 716.25 67.34375 730.078125 79.144531 729.359375 79.402344 C 717.367188 72.992188 706.414062 68.449219 696.222656 64.316406 C 689.054688 61.855469 681.871094 56.132812 681.082031 57.222656 C 678.441406 62.234375 692.574219 74.839844 695.203125 76.320312 C 697.832031 77.738281 718.511719 86.539062 718.207031 86.644531 C 687.0625 73.679688 681.839844 71.332031 680.277344 69.835938 C 677.53125 69.269531 670.84375 60.988281 668.984375 61.519531 C 667.960938 62.4375 670.007812 75.527344 684.871094 81.398438 C 687.292969 83.015625 716.726562 92.703125 716.4375 93.460938 C 716.367188 93.652344 682.722656 80.726562 681.417969 80.265625 C 674.933594 77.933594 666.972656 69.753906 665.484375 70.675781 C 664.066406 71.507812 669.15625 80.359375 675.707031 83.136719 C 679.144531 84.527344 692.324219 90.511719 704.195312 94.320312 C 704.953125 94.574219 682.855469 86.636719 672.230469 82.5625 C 667.410156 80.109375 665.144531 77.054688 664.410156 77.714844 C 663.324219 78.367188 666.160156 91.445312 700.304688 98.820312 C 701.203125 99.171875 712.324219 96.40625 711.773438 96.773438 C 711.636719 96.867188 700.730469 99.042969 699.667969 98.96875 C 698.726562 98.835938 692.753906 99.617188 692.644531 99.898438 C 692.28125 100.785156 694.808594 105.464844 712.4375 104.488281 C 714.691406 104.363281 726.921875 100.40625 725.894531 101.253906 C 725.378906 101.683594 709.238281 106.492188 708.011719 106.585938 C 706.941406 106.726562 701.273438 107.269531 701.0625 107.824219 C 700.804688 108.578125 705.257812 111.910156 714.726562 112.445312 C 723.109375 112.851562 739.035156 107.746094 738.714844 108.078125 C 738.398438 108.40625 723.363281 113.132812 722.96875 113.421875 C 722.421875 113.703125 716.921875 113.976562 716.726562 114.363281 C 716.277344 115.328125 724.667969 122.527344 749.480469 114.847656 C 746.988281 117.933594 734.960938 120.046875 734.976562 120.601562 C 734.921875 121.003906 737.628906 123.402344 741.832031 124.261719 C 743.9375 124.691406 746.8125 124.601562 749.445312 124.222656 C 754.167969 123.355469 759.144531 121.640625 765.464844 116.28125 C 766.222656 117.964844 749.667969 125.644531 750.445312 126.378906 C 754.035156 129.429688 765.960938 125.984375 766.742188 125.585938 C 767.523438 125.183594 789.699219 113.714844 789.625 112.386719 C 789.96875 114.089844 761.03125 128.507812 761.34375 129.101562 C 763.199219 131.820312 773.085938 128.957031 773.558594 128.707031 C 774.03125 128.460938 786.175781 122.441406 786.507812 122.261719 C 786.839844 122.085938 772.234375 130.105469 773.535156 131.324219 C 772.90625 136.53125 796.34375 127.730469 798.179688 126.632812 C 799.101562 126.089844 786.921875 131.546875 786.890625 134.140625 C 790.8125 140.21875 803.367188 138.289062 805.304688 136.953125 C 806.273438 136.285156 804.164062 141.472656 804.84375 141 C 805.082031 140.902344 807.574219 138.199219 808.535156 136.238281 C 808.226562 137.9375 806.851562 140.617188 806.046875 143.6875 C 805.242188 146.757812 805.011719 150.222656 803.910156 153.902344 C 803.65625 155.523438 811.644531 150.742188 810.484375 139.320312 C 811.171875 145.261719 807.964844 156.371094 808.804688 156.949219 C 810.480469 158.105469 815.121094 151.417969 815.589844 146.890625 C 816.96875 149.175781 819.859375 153.945312 822.347656 155.042969 C 822.078125 151.589844 822.394531 151.746094 821.277344 148.347656 C 821.921875 143.839844 822.011719 137.597656 822.171875 130.550781 C 828.929688 142.429688 831.625 147.445312 829.738281 156.542969 C 831.75 157.3125 834.960938 150.191406 834.699219 146.527344 C 837.285156 156.710938 848.425781 158.234375 848.605469 157.941406 Z M 848.605469 157.941406 "/>
<path style=" stroke:none;fill-rule:evenodd;fill:rgb(93.72406%,49.01886%,0%);fill-opacity:1;" d="M 735.988281 82.515625 C 735.988281 82.515625 731.386719 85.707031 725.65625 85.519531 C 727.089844 90.769531 738.953125 86.738281 738.953125 86.738281 C 738.953125 86.738281 733.226562 92.554688 729.136719 93.492188 C 731.589844 95.367188 741.921875 94.710938 743.660156 93.773438 C 745.394531 92.835938 748.464844 89.179688 748.464844 89.179688 C 748.464844 89.179688 737.828125 100.433594 736.296875 100.339844 C 736.089844 101.652344 747.441406 101.183594 749.796875 99.214844 C 752.144531 97.246094 758.078125 94.335938 758.078125 94.335938 C 758.078125 94.335938 742.535156 104.277344 741.816406 104.277344 C 747.648438 105.6875 759.304688 102.589844 766.769531 98.371094 C 755.722656 105.121094 754.703125 106.34375 749.078125 108.59375 C 754.089844 109.625 756.644531 112.722656 773.625 105.96875 C 783.339844 101.746094 788.859375 94.054688 788.859375 94.054688 C 782.828125 101.464844 773.3125 107.75 762.785156 113.941406 C 762.167969 115.066406 774.03125 119.660156 789.167969 105.21875 Z M 735.988281 82.515625 "/>
<path style="fill:none;stroke-width:1.071429;stroke-linecap:butt;stroke-linejoin:miter;stroke:rgb(0%,0%,0%);stroke-opacity:1;stroke-miterlimit:4;" d="M 735.988281 82.515625 C 735.988281 82.515625 731.386719 85.707031 725.65625 85.519531 C 727.089844 90.769531 738.953125 86.738281 738.953125 86.738281 C 738.953125 86.738281 733.226562 92.554688 729.136719 93.492188 C 731.589844 95.367188 741.921875 94.710938 743.660156 93.773438 C 745.394531 92.835938 748.464844 89.179688 748.464844 89.179688 C 748.464844 89.179688 737.828125 100.433594 736.296875 100.339844 C 736.089844 101.652344 747.441406 101.183594 749.796875 99.214844 C 752.144531 97.246094 758.078125 94.335938 758.078125 94.335938 C 758.078125 94.335938 742.535156 104.277344 741.816406 104.277344 C 747.648438 105.6875 759.304688 102.589844 766.769531 98.371094 C 755.722656 105.121094 754.703125 106.34375 749.078125 108.59375 C 754.089844 109.625 756.644531 112.722656 773.625 105.96875 C 783.339844 101.746094 788.859375 94.054688 788.859375 94.054688 C 782.828125 101.464844 773.3125 107.75 762.785156 113.941406 C 762.167969 115.066406 774.03125 119.660156 789.167969 105.21875 "/>
<path style=" stroke:none;fill-rule:evenodd;fill:rgb(93.72406%,49.01886%,0%);fill-opacity:1;" d="M 818.210938 113.847656 C 818.210938 113.847656 819.234375 118.253906 823.324219 121.632812 C 827.414062 125.007812 827.71875 128.292969 827.71875 128.292969 Z M 818.210938 113.847656 "/>
<path style="fill:none;stroke-width:1.071429;stroke-linecap:butt;stroke-linejoin:miter;stroke:rgb(0%,0%,0%);stroke-opacity:1;stroke-miterlimit:4;" d="M 818.210938 113.847656 C 818.210938 113.847656 819.234375 118.253906 823.324219 121.632812 C 827.414062 125.007812 827.71875 128.292969 827.71875 128.292969 "/>
<path style=" stroke:none;fill-rule:evenodd;fill:rgb(93.72406%,49.01886%,0%);fill-opacity:1;" d="M 816.164062 85.144531 C 816.164062 85.144531 817.597656 89.082031 821.789062 91.617188 C 826.085938 94.148438 832.527344 102.121094 833.039062 103.53125 C 833.535156 105.230469 836.003906 117.507812 835.800781 118.816406 Z M 816.164062 85.144531 "/>
<path style="fill:none;stroke-width:1.071429;stroke-linecap:butt;stroke-linejoin:miter;stroke:rgb(0%,0%,0%);stroke-opacity:1;stroke-miterlimit:4;" d="M 816.164062 85.144531 C 816.164062 85.144531 817.597656 89.082031 821.789062 91.617188 C 826.085938 94.148438 832.527344 102.121094 833.039062 103.53125 C 833.535156 105.230469 836.003906 117.507812 835.800781 118.816406 "/>
<path style=" stroke:none;fill-rule:evenodd;fill:rgb(93.72406%,49.01886%,0%);fill-opacity:1;" d="M 790.089844 91.242188 C 790.394531 92.742188 784.054688 100.339844 792.746094 109.25 C 784.871094 118.066406 784.871094 119.195312 784.871094 119.195312 C 784.871094 119.195312 789.269531 121.445312 797.144531 115.253906 C 810.132812 129.886719 805.804688 136.582031 805.804688 136.582031 Z M 790.089844 91.242188 "/>
<path style="fill:none;stroke-width:1.071429;stroke-linecap:butt;stroke-linejoin:miter;stroke:rgb(0%,0%,0%);stroke-opacity:1;stroke-miterlimit:4;" d="M 790.089844 91.242188 C 790.394531 92.742188 784.054688 100.339844 792.746094 109.25 C 784.871094 118.066406 784.871094 119.195312 784.871094 119.195312 C 784.871094 119.195312 789.269531 121.445312 797.144531 115.253906 C 810.132812 129.886719 805.804688 136.582031 805.804688 136.582031 "/>
<path style=" stroke:none;fill-rule:evenodd;fill:rgb(93.72406%,49.01886%,0%);fill-opacity:1;" d="M 804.769531 126.253906 C 804.769531 126.253906 803.570312 124.679688 805.707031 118.8125 C 807.625 120.933594 809.761719 121.386719 810.699219 122.246094 C 811.632812 123.105469 821.441406 124.40625 822.0625 130.417969 Z M 804.769531 126.253906 "/>
<path style="fill:none;stroke-width:1.071429;stroke-linecap:butt;stroke-linejoin:miter;stroke:rgb(0%,0%,0%);stroke-opacity:1;stroke-miterlimit:4;" d="M 804.769531 126.253906 C 804.769531 126.253906 803.570312 124.679688 805.707031 118.8125 C 807.625 120.933594 809.761719 121.386719 810.699219 122.246094 C 811.632812 123.105469 821.441406 124.40625 822.0625 130.417969 "/>
<path style="fill-rule:evenodd;fill:rgb(93.72406%,49.01886%,0%);fill-opacity:1;stroke-width:1.071429;stroke-linecap:butt;stroke-linejoin:miter;stroke:rgb(0%,0%,0%);stroke-opacity:1;stroke-miterlimit:4;" d="M 816.296875 71.160156 C 816.296875 70.71875 814.324219 66.828125 806.953125 71.6875 C 810.902344 71.910156 814.804688 73.984375 816.296875 71.160156 Z M 816.296875 71.160156 "/>
<path style=" stroke:none;fill-rule:evenodd;fill:rgb(93.72406%,49.01886%,0%);fill-opacity:1;" d="M 886.605469 88.929688 C 886.964844 89.09375 908.613281 93.394531 915.828125 91.246094 C 906.628906 102.496094 888.226562 94.886719 888.226562 94.886719 C 897.246094 97.367188 897.609375 97.203125 900.496094 99.519531 C 901.398438 101.667969 883.898438 100.675781 878.125 97.699219 C 894.183594 102.332031 894.542969 102 895.085938 103.824219 C 895.804688 106.304688 868.742188 103.160156 866.398438 99.851562 C 873.613281 104.980469 877.582031 105.972656 881.550781 108.289062 C 876.679688 110.273438 867.660156 112.261719 851.0625 101.503906 C 872.894531 119.707031 892.558594 118.546875 895.625 121.855469 C 888.046875 132.117188 858.640625 115.734375 845.109375 107.460938 C 831.582031 99.1875 874.699219 127.484375 878.667969 126.988281 C 876.679688 129.796875 862.429688 127.320312 861.527344 125.996094 Z M 886.605469 88.929688 "/>
<path style="fill:none;stroke-width:1.071429;stroke-linecap:butt;stroke-linejoin:miter;stroke:rgb(0%,0%,0%);stroke-opacity:1;stroke-miterlimit:4;" d="M 886.605469 88.929688 C 886.964844 89.09375 908.613281 93.394531 915.828125 91.246094 C 906.628906 102.496094 888.226562 94.886719 888.226562 94.886719 C 897.246094 97.367188 897.609375 97.203125 900.496094 99.519531 C 901.398438 101.667969 883.898438 100.675781 878.125 97.699219 C 894.183594 102.332031 894.542969 102 895.085938 103.824219 C 895.804688 106.304688 868.742188 103.160156 866.398438 99.851562 C 873.613281 104.980469 877.582031 105.972656 881.550781 108.289062 C 876.679688 110.273438 867.660156 112.261719 851.0625 101.503906 C 872.894531 119.707031 892.558594 118.546875 895.625 121.855469 C 888.046875 132.117188 858.640625 115.734375 845.109375 107.460938 C 831.582031 99.1875 874.699219 127.484375 878.667969 126.988281 C 876.679688 129.796875 862.429688 127.320312 861.527344 125.996094 "/>
<path style=" stroke:none;fill-rule:evenodd;fill:rgb(93.72406%,49.01886%,0%);fill-opacity:1;" d="M 892.195312 107.957031 C 889.671875 108.289062 882.09375 108.289062 881.011719 108.125 Z M 892.195312 107.957031 "/>
<path style="fill:none;stroke-width:1.071429;stroke-linecap:butt;stroke-linejoin:miter;stroke:rgb(0%,0%,0%);stroke-opacity:1;stroke-miterlimit:4;" d="M 892.195312 107.957031 C 889.671875 108.289062 882.09375 108.289062 881.011719 108.125 "/>
<path style=" stroke:none;fill-rule:evenodd;fill:rgb(93.72406%,49.01886%,0%);fill-opacity:1;" d="M 729.648438 79.515625 C 729.648438 79.515625 746.113281 87.488281 753.066406 86.925781 C 751.226562 88.519531 748.464844 89.179688 748.464844 89.179688 C 750.203125 89.835938 755.007812 92.179688 762.269531 90.679688 C 760.53125 92.273438 758.28125 94.054688 758.28125 94.054688 C 758.28125 94.054688 764.519531 96.210938 771.578125 92.835938 C 769.429688 95.273438 768.203125 97.054688 768.203125 97.054688 L 773.109375 97.335938 Z M 729.648438 79.515625 "/>
<path style="fill:none;stroke-width:1.071429;stroke-linecap:butt;stroke-linejoin:miter;stroke:rgb(0%,0%,0%);stroke-opacity:1;stroke-miterlimit:4;" d="M 729.648438 79.515625 C 729.648438 79.515625 746.113281 87.488281 753.066406 86.925781 C 751.226562 88.519531 748.464844 89.179688 748.464844 89.179688 C 750.203125 89.835938 755.007812 92.179688 762.269531 90.679688 C 760.53125 92.273438 758.28125 94.054688 758.28125 94.054688 C 758.28125 94.054688 764.519531 96.210938 771.578125 92.835938 C 769.429688 95.273438 768.203125 97.054688 768.203125 97.054688 L 773.109375 97.335938 "/>
</g>
</svg>
