<?xml version="1.0" encoding="UTF-8"?>
<svg xmlns="http://www.w3.org/2000/svg" xmlns:xlink="http://www.w3.org/1999/xlink" viewBox="0 0 1000 502" version="1.1">
<g id="surface1324">
<path style=" stroke:none;fill-rule:evenodd;fill:rgb(19.215393%,57.254028%,3.137207%);fill-opacity:1;" d="M 0 0.992188 L 999.253906 0.992188 L 999.253906 500.617188 L 0 500.617188 Z M 0 0.992188 "/>
<path style=" stroke:none;fill-rule:evenodd;fill:rgb(99.998474%,82.351685%,0%);fill-opacity:1;" d="M 0 72.371094 L 999.253906 72.371094 L 999.253906 429.246094 L 0 429.246094 Z M 0 72.371094 "/>
<path style=" stroke:none;fill-rule:evenodd;fill:rgb(87.057495%,12.548828%,6.274414%);fill-opacity:1;" d="M 0 143.742188 L 999.253906 143.742188 L 999.253906 357.867188 L 0 357.867188 Z M 0 143.742188 "/>
<path style=" stroke:none;fill-rule:evenodd;fill:rgb(0%,0%,0%);fill-opacity:1;" d="M 0 215.117188 L 999.253906 215.117188 L 999.253906 286.492188 L 0 286.492188 Z M 0 215.117188 "/>
<path style=" stroke:none;fill-rule:evenodd;fill:rgb(0%,0%,0%);fill-opacity:1;" d="M 18.171875 0.992188 L 351.257812 250.808594 L 18.171875 500.617188 L 0 500.617188 L 0 0.992188 Z M 18.171875 0.992188 "/>
<path style=" stroke:none;fill-rule:evenodd;fill:rgb(99.998474%,99.998474%,99.998474%);fill-opacity:1;" d="M 0 0.992188 L 333.085938 250.808594 L 0 500.617188 Z M 0 0.992188 "/>
<path style=" stroke:none;fill-rule:evenodd;fill:rgb(87.057495%,12.548828%,6.274414%);fill-opacity:1;" d="M 134.820312 123.914062 L 78.660156 237.703125 L 164.003906 279.820312 Z M 134.820312 123.914062 "/>
<path style=" stroke:none;fill-rule:evenodd;fill:rgb(87.057495%,12.548828%,6.274414%);fill-opacity:1;" d="M 134.820312 123.914062 L 190.976562 237.703125 L 105.636719 279.820312 Z M 134.820312 123.914062 "/>
<path style=" stroke:none;fill-rule:evenodd;fill:rgb(87.057495%,12.548828%,6.274414%);fill-opacity:1;" d="M 134.820312 123.914062 L 92.296875 243.46875 L 181.960938 275.363281 Z M 134.820312 123.914062 "/>
<path style=" stroke:none;fill-rule:evenodd;fill:rgb(87.057495%,12.548828%,6.274414%);fill-opacity:1;" d="M 134.820312 123.914062 L 177.34375 243.46875 L 87.679688 275.363281 Z M 134.820312 123.914062 "/>
<path style=" stroke:none;fill-rule:evenodd;fill:rgb(87.057495%,12.548828%,6.274414%);fill-opacity:1;" d="M 255.5 211.59375 L 129.929688 193.347656 L 116.242188 287.527344 Z M 255.5 211.59375 "/>
<path style=" stroke:none;fill-rule:evenodd;fill:rgb(87.057495%,12.548828%,6.274414%);fill-opacity:1;" d="M 14.140625 211.59375 L 139.710938 193.347656 L 153.398438 287.527344 Z M 14.140625 211.59375 "/>
<path style=" stroke:none;fill-rule:evenodd;fill:rgb(87.057495%,12.548828%,6.274414%);fill-opacity:1;" d="M 255.5 211.59375 L 128.660156 208.09375 L 126.035156 303.222656 Z M 255.5 211.59375 "/>
<path style=" stroke:none;fill-rule:evenodd;fill:rgb(87.057495%,12.548828%,6.274414%);fill-opacity:1;" d="M 14.140625 211.59375 L 140.984375 208.09375 L 143.605469 303.222656 Z M 14.140625 211.59375 "/>
<path style=" stroke:none;fill-rule:evenodd;fill:rgb(87.057495%,12.548828%,6.274414%);fill-opacity:1;" d="M 134.820312 141.761719 L 90.074219 241.203125 L 139.796875 263.578125 Z M 134.820312 141.761719 "/>
<path style=" stroke:none;fill-rule:evenodd;fill:rgb(87.057495%,12.548828%,6.274414%);fill-opacity:1;" d="M 134.820312 141.761719 L 179.5625 241.203125 L 129.839844 263.578125 Z M 134.820312 141.761719 "/>
<path style=" stroke:none;fill-rule:evenodd;fill:rgb(87.057495%,12.548828%,6.274414%);fill-opacity:1;" d="M 198.914062 339.023438 L 176.660156 232.273438 L 123.285156 243.402344 Z M 198.914062 339.023438 "/>
<path style=" stroke:none;fill-rule:evenodd;fill:rgb(87.057495%,12.548828%,6.274414%);fill-opacity:1;" d="M 198.914062 339.023438 L 104.269531 284.875 L 131.339844 237.550781 Z M 198.914062 339.023438 "/>
<path style=" stroke:none;fill-rule:evenodd;fill:rgb(87.057495%,12.548828%,6.274414%);fill-opacity:1;" d="M 70.722656 339.023438 L 165.375 284.875 L 138.296875 237.550781 Z M 70.722656 339.023438 "/>
<path style=" stroke:none;fill-rule:evenodd;fill:rgb(87.057495%,12.548828%,6.274414%);fill-opacity:1;" d="M 70.722656 339.023438 L 92.980469 232.273438 L 146.351562 243.402344 Z M 70.722656 339.023438 "/>
<path style=" stroke:none;fill-rule:evenodd;fill:rgb(99.998474%,77.645874%,9.411621%);fill-opacity:1;" d="M 113.546875 219.519531 C 121.382812 236.585938 123.34375 237.707031 142.933594 244.421875 C 162.523438 251.140625 217.867188 257.507812 223.324219 258.140625 C 219.757812 254.570312 157.417969 208.390625 144.613281 199.15625 C 131.808594 189.917969 128.242188 185.722656 128.242188 185.722656 C 128.242188 185.722656 116.699219 164.941406 112.710938 158.855469 C 108.722656 152.769531 101.375 144.164062 91.71875 144.164062 C 82.066406 144.164062 76.183594 149.832031 73.386719 159.902344 C 71.847656 160.324219 63.59375 165.363281 63.871094 170.539062 C 66.25 170.257812 81.222656 166.0625 86.402344 182.992188 C 91.578125 199.925781 91.859375 227.628906 86.542969 241.34375 C 81.222656 255.0625 72.964844 265.417969 72.964844 277.449219 C 72.964844 279.128906 74.089844 282.488281 76.886719 282.488281 C 77.863281 287.804688 85.699219 325.726562 85.699219 325.726562 L 197.371094 325.726562 L 215.105469 257.160156 Z M 113.546875 219.519531 "/>
<path style="fill:none;stroke-width:0.839605;stroke-linecap:butt;stroke-linejoin:miter;stroke:rgb(0%,0%,0%);stroke-opacity:1;stroke-miterlimit:4;" d="M 113.546875 219.519531 C 121.382812 236.585938 123.34375 237.707031 142.933594 244.421875 C 162.523438 251.140625 217.867188 257.507812 223.324219 258.140625 C 219.757812 254.570312 157.417969 208.390625 144.613281 199.15625 C 131.808594 189.917969 128.242188 185.722656 128.242188 185.722656 C 128.242188 185.722656 116.699219 164.941406 112.710938 158.855469 C 108.722656 152.769531 101.375 144.164062 91.71875 144.164062 C 82.066406 144.164062 76.183594 149.832031 73.386719 159.902344 C 71.847656 160.324219 63.59375 165.363281 63.871094 170.539062 C 66.25 170.257812 81.222656 166.0625 86.402344 182.992188 C 91.578125 199.925781 91.859375 227.628906 86.542969 241.34375 C 81.222656 255.0625 72.964844 265.417969 72.964844 277.449219 C 72.964844 279.128906 74.089844 282.488281 76.886719 282.488281 C 77.863281 287.804688 85.699219 325.726562 85.699219 325.726562 L 197.371094 325.726562 L 215.105469 257.160156 "/>
<path style="fill:none;stroke-width:0.839605;stroke-linecap:butt;stroke-linejoin:miter;stroke:rgb(0%,0%,0%);stroke-opacity:1;stroke-miterlimit:4;" d="M 76.886719 282.488281 C 76.886719 282.488281 100.675781 281.089844 107.109375 281.089844 C 113.546875 281.089844 173.46875 281.164062 206.894531 288.890625 "/>
<path style="fill:none;stroke-width:0.839605;stroke-linecap:butt;stroke-linejoin:miter;stroke:rgb(0%,0%,0%);stroke-opacity:1;stroke-miterlimit:4;" d="M 85.285156 282.011719 C 85.285156 282.011719 82.902344 279.128906 84.441406 273.394531 C 85.980469 267.652344 102.773438 252.820312 102.773438 231.832031 "/>
<path style="fill:none;stroke-width:0.839605;stroke-linecap:butt;stroke-linejoin:miter;stroke:rgb(0%,0%,0%);stroke-opacity:1;stroke-miterlimit:4;" d="M 99.695312 281.089844 C 99.695312 281.089844 97.734375 271.714844 119.148438 263.734375 C 125.164062 261.914062 142.371094 252.257812 142.933594 244.421875 "/>
<path style="fill:none;stroke-width:0.839605;stroke-linecap:butt;stroke-linejoin:miter;stroke:rgb(0%,0%,0%);stroke-opacity:1;stroke-miterlimit:4;" d="M 116.867188 264.628906 C 116.867188 264.628906 169.382812 264.855469 210.941406 273.253906 "/>
<path style="fill:none;stroke-width:0.839605;stroke-linecap:butt;stroke-linejoin:miter;stroke:rgb(0%,0%,0%);stroke-opacity:1;stroke-miterlimit:4;" d="M 130.035156 258.359375 C 130.035156 258.359375 148.074219 258.976562 151.015625 258.140625 C 153.957031 257.296875 159.15625 255.113281 161.226562 248.96875 "/>
<path style="fill:none;stroke-width:0.839605;stroke-linecap:butt;stroke-linejoin:miter;stroke:rgb(0%,0%,0%);stroke-opacity:1;stroke-miterlimit:4;" d="M 140.730469 258.578125 C 140.730469 258.578125 150.382812 253.554688 152.269531 247.03125 "/>
<path style="fill:none;stroke-width:0.839605;stroke-linecap:butt;stroke-linejoin:miter;stroke:rgb(0%,0%,0%);stroke-opacity:1;stroke-miterlimit:4;" d="M 111.585938 325.726562 C 111.585938 325.726562 107.464844 297.113281 106.621094 281.089844 L 117.394531 291.375 L 128.796875 281.402344 L 138.597656 291.863281 L 149.929688 282.246094 L 159.726562 293.261719 L 170.945312 283.71875 L 179.875 294.101562 L 191.066406 286.007812 L 204.375 298.65625 "/>
<path style="fill:none;stroke-width:0.839605;stroke-linecap:butt;stroke-linejoin:miter;stroke:rgb(0%,0%,0%);stroke-opacity:1;stroke-miterlimit:4;" d="M 202.035156 307.6875 C 162.0625 301.960938 108.570312 302.335938 108.570312 302.335938 "/>
<path style="fill:none;stroke-width:0.839605;stroke-linecap:butt;stroke-linejoin:miter;stroke:rgb(0%,0%,0%);stroke-opacity:1;stroke-miterlimit:4;" d="M 89.988281 203.429688 C 89.988281 203.429688 122.5 187.890625 128.242188 185.722656 "/>
<path style="fill:none;stroke-width:0.839606;stroke-linecap:butt;stroke-linejoin:miter;stroke:rgb(0%,0%,0%);stroke-opacity:1;stroke-miterlimit:4;" d="M 107.511719 292.425781 L 118.441406 302.371094 L 128.320312 292.5 L 138.304688 302.800781 L 149.089844 293.261719 L 159.023438 303.699219 L 170.21875 294.453125 L 179.371094 305.136719 L 190.511719 296.621094 L 202.222656 306.964844 "/>
<path style="fill:none;stroke-width:0.839606;stroke-linecap:butt;stroke-linejoin:miter;stroke:rgb(0%,0%,0%);stroke-opacity:1;stroke-miterlimit:4;" d="M 142.867188 273.53125 C 142.867188 275.929688 140.921875 277.871094 138.527344 277.871094 C 136.132812 277.871094 134.1875 275.929688 134.1875 273.53125 C 134.1875 271.136719 136.132812 269.195312 138.527344 269.195312 C 140.921875 269.195312 142.867188 271.136719 142.867188 273.53125 Z M 142.867188 273.53125 "/>
<path style="fill:none;stroke-width:0.839606;stroke-linecap:butt;stroke-linejoin:miter;stroke:rgb(0%,0%,0%);stroke-opacity:1;stroke-miterlimit:4;" d="M 161.175781 274.757812 C 161.175781 277.152344 159.238281 279.101562 156.839844 279.101562 C 154.445312 279.101562 152.503906 277.152344 152.503906 274.757812 C 152.503906 272.363281 154.445312 270.421875 156.839844 270.421875 C 159.238281 270.421875 161.175781 272.363281 161.175781 274.757812 Z M 161.175781 274.757812 "/>
<path style="fill:none;stroke-width:0.839606;stroke-linecap:butt;stroke-linejoin:miter;stroke:rgb(0%,0%,0%);stroke-opacity:1;stroke-miterlimit:4;" d="M 92.03125 157.59375 C 92.03125 159.449219 90.53125 160.953125 88.675781 160.953125 C 86.816406 160.953125 85.320312 159.449219 85.320312 157.59375 C 85.320312 155.742188 86.816406 154.234375 88.675781 154.234375 C 90.53125 154.234375 92.03125 155.742188 92.03125 157.59375 Z M 92.03125 157.59375 "/>
</g>
</svg>
